<?xml version="1.0" encoding="utf-8"?>
<!-- Generator: Adobe Illustrator 16.0.0, SVG Export Plug-In . SVG Version: 6.00 Build 0)  -->
<!DOCTYPE svg PUBLIC "-//W3C//DTD SVG 1.1//EN" "http://www.w3.org/Graphics/SVG/1.1/DTD/svg11.dtd">
<svg version="1.1" id="Layer_1" xmlns="http://www.w3.org/2000/svg" xmlns:xlink="http://www.w3.org/1999/xlink" x="0px" y="0px"
	 width="453.54px" height="198.43px" viewBox="0 0 453.54 198.43" enable-background="new 0 0 453.54 198.43" xml:space="preserve">
<rect x="39" y="69" fill="#ACD0E0" width="63" height="57"/>
<rect x="38" y="114" fill="#ACD0E0" width="64" height="67"/>
<rect x="188" y="98" fill="#ACD0E0" width="66" height="83"/>
<path d="M124.145,69.385h-2.405c-2.045,0-3.73-1.669-3.73-3.722v-24.96c0-4.356-3.534-7.887-7.887-7.887h-6.577
	c-0.917,0-1.669-0.753-1.669-1.689v-6.492c0-0.933,0.752-1.689,1.669-1.689h6.577c9.785,0,17.753,7.972,17.753,17.757v24.96
	C127.859,67.716,126.189,69.385,124.145,69.385L124.145,69.385z M105.214,29.461h4.908c6.201,0,11.241,5.04,11.241,11.241v24.96
	c0,0.196,0.164,0.359,0.376,0.359h2.405c0.196,0,0.359-0.163,0.359-0.359v-24.96c0-7.937-6.446-14.398-14.382-14.398h-4.908V29.461z
	 M105.214,29.461"/>
<path d="M96.346,183.505H43.933c-4.892,0-8.864-3.984-8.864-8.877V33.563L17.773,16.286c-0.474-0.471-0.621-1.195-0.364-1.829
	c0.25-0.626,0.867-1.031,1.539-1.031h84.597c0.912,0,1.669,0.749,1.669,1.665v159.537
	C105.214,179.521,101.237,183.505,96.346,183.505L96.346,183.505z M23.011,16.78l14.904,14.923c0.328,0.307,0.491,0.736,0.491,1.174
	v141.751c0,3.053,2.492,5.522,5.526,5.522h52.413c3.043,0,5.514-2.47,5.514-5.522V16.78H23.011z M23.011,16.78"/>
<path d="M45.722,58.467h-8.979c-0.938,0-1.689-0.757-1.689-1.685c0-0.917,0.752-1.673,1.689-1.673h8.979
	c0.915,0,1.673,0.756,1.673,1.673C47.395,57.709,46.637,58.467,45.722,58.467L45.722,58.467z M45.722,58.467"/>
<path d="M45.722,79.308h-8.979c-0.938,0-1.689-0.757-1.689-1.673c0-0.928,0.752-1.685,1.689-1.685h8.979
	c0.915,0,1.673,0.757,1.673,1.685C47.395,78.551,46.637,79.308,45.722,79.308L45.722,79.308z M45.722,79.308"/>
<path d="M45.722,16.784h-8.979c-0.938,0-1.689-0.757-1.689-1.685c0-0.917,0.752-1.673,1.689-1.673h8.979
	c0.915,0,1.673,0.756,1.673,1.673C47.395,16.027,46.637,16.784,45.722,16.784L45.722,16.784z M45.722,16.784"/>
<path d="M45.722,37.625h-8.979c-0.938,0-1.689-0.757-1.689-1.673c0-0.928,0.752-1.685,1.689-1.685h8.979
	c0.915,0,1.673,0.757,1.673,1.685C47.395,36.869,46.637,37.625,45.722,37.625L45.722,37.625z M45.722,37.625"/>
<path d="M45.722,100.139h-8.979c-0.938,0-1.689-0.735-1.689-1.677c0-0.907,0.752-1.66,1.689-1.66h8.979
	c0.915,0,1.673,0.753,1.673,1.66C47.395,99.403,46.637,100.139,45.722,100.139L45.722,100.139z M45.722,100.139"/>
<path d="M45.722,120.98h-8.979c-0.938,0-1.689-0.735-1.689-1.677c0-0.907,0.752-1.66,1.689-1.66h8.979
	c0.915,0,1.673,0.753,1.673,1.66C47.395,120.245,46.637,120.98,45.722,120.98L45.722,120.98z M45.722,120.98"/>
<path d="M45.722,141.833h-8.979c-0.938,0-1.689-0.758-1.689-1.686c0-0.917,0.752-1.674,1.689-1.674h8.979
	c0.915,0,1.673,0.757,1.673,1.674C47.395,141.075,46.637,141.833,45.722,141.833L45.722,141.833z M45.722,141.833"/>
<path d="M45.722,162.674h-8.979c-0.938,0-1.689-0.758-1.689-1.674c0-0.928,0.752-1.686,1.689-1.686h8.979
	c0.915,0,1.673,0.758,1.673,1.686C47.395,161.916,46.637,162.674,45.722,162.674L45.722,162.674z M45.722,162.674"/>
<path d="M275.145,69.385h-2.405c-2.045,0-3.73-1.669-3.73-3.722v-24.96c0-4.356-3.534-7.887-7.887-7.887h-6.577
	c-0.917,0-1.669-0.753-1.669-1.689v-6.492c0-0.933,0.752-1.689,1.669-1.689h6.577c9.785,0,17.753,7.972,17.753,17.757v24.96
	C278.859,67.716,277.189,69.385,275.145,69.385L275.145,69.385z M256.214,29.461h4.908c6.201,0,11.241,5.04,11.241,11.241v24.96
	c0,0.196,0.164,0.359,0.376,0.359h2.405c0.196,0,0.359-0.163,0.359-0.359v-24.96c0-7.937-6.446-14.398-14.382-14.398h-4.908V29.461z
	 M256.214,29.461"/>
<path d="M247.346,183.505h-52.413c-4.892,0-8.864-3.984-8.864-8.877V33.563l-17.295-17.278c-0.474-0.471-0.621-1.195-0.364-1.829
	c0.25-0.626,0.867-1.031,1.539-1.031h84.597c0.912,0,1.669,0.749,1.669,1.665v159.537
	C256.214,179.521,252.237,183.505,247.346,183.505L247.346,183.505z M174.011,16.78l14.904,14.923
	c0.328,0.307,0.491,0.736,0.491,1.174v141.751c0,3.053,2.492,5.522,5.526,5.522h52.413c3.043,0,5.514-2.47,5.514-5.522V16.78
	H174.011z M174.011,16.78"/>
<path d="M196.722,58.467h-8.979c-0.938,0-1.689-0.757-1.689-1.685c0-0.917,0.752-1.673,1.689-1.673h8.979
	c0.915,0,1.673,0.756,1.673,1.673C198.395,57.709,197.637,58.467,196.722,58.467L196.722,58.467z M196.722,58.467"/>
<path d="M196.722,79.308h-8.979c-0.938,0-1.689-0.757-1.689-1.673c0-0.928,0.752-1.685,1.689-1.685h8.979
	c0.915,0,1.673,0.757,1.673,1.685C198.395,78.551,197.637,79.308,196.722,79.308L196.722,79.308z M196.722,79.308"/>
<path d="M196.722,16.784h-8.979c-0.938,0-1.689-0.757-1.689-1.685c0-0.917,0.752-1.673,1.689-1.673h8.979
	c0.915,0,1.673,0.756,1.673,1.673C198.395,16.027,197.637,16.784,196.722,16.784L196.722,16.784z M196.722,16.784"/>
<path d="M196.722,37.625h-8.979c-0.938,0-1.689-0.757-1.689-1.673c0-0.928,0.752-1.685,1.689-1.685h8.979
	c0.915,0,1.673,0.757,1.673,1.685C198.395,36.869,197.637,37.625,196.722,37.625L196.722,37.625z M196.722,37.625"/>
<path d="M196.722,100.139h-8.979c-0.938,0-1.689-0.735-1.689-1.677c0-0.907,0.752-1.66,1.689-1.66h8.979
	c0.915,0,1.673,0.753,1.673,1.66C198.395,99.403,197.637,100.139,196.722,100.139L196.722,100.139z M196.722,100.139"/>
<path d="M196.722,120.98h-8.979c-0.938,0-1.689-0.735-1.689-1.677c0-0.907,0.752-1.66,1.689-1.66h8.979
	c0.915,0,1.673,0.753,1.673,1.66C198.395,120.245,197.637,120.98,196.722,120.98L196.722,120.98z M196.722,120.98"/>
<path d="M196.722,141.833h-8.979c-0.938,0-1.689-0.758-1.689-1.686c0-0.917,0.752-1.674,1.689-1.674h8.979
	c0.915,0,1.673,0.757,1.673,1.674C198.395,141.075,197.637,141.833,196.722,141.833L196.722,141.833z M196.722,141.833"/>
<path d="M196.722,162.674h-8.979c-0.938,0-1.689-0.758-1.689-1.674c0-0.928,0.752-1.686,1.689-1.686h8.979
	c0.915,0,1.673,0.758,1.673,1.686C198.395,161.916,197.637,162.674,196.722,162.674L196.722,162.674z M196.722,162.674"/>
<rect x="333" y="78" fill="#ACD0E0" width="67" height="103"/>
<path d="M420.145,69.385h-2.405c-2.045,0-3.73-1.669-3.73-3.722v-24.96c0-4.356-3.534-7.887-7.887-7.887h-6.577
	c-0.917,0-1.669-0.753-1.669-1.689v-6.492c0-0.933,0.752-1.689,1.669-1.689h6.577c9.785,0,17.753,7.972,17.753,17.757v24.96
	C423.859,67.716,422.189,69.385,420.145,69.385L420.145,69.385z M401.214,29.461h4.908c6.201,0,11.241,5.04,11.241,11.241v24.96
	c0,0.196,0.164,0.359,0.376,0.359h2.405c0.196,0,0.359-0.163,0.359-0.359v-24.96c0-7.937-6.446-14.398-14.382-14.398h-4.908V29.461z
	 M401.214,29.461"/>
<path d="M392.346,183.505h-52.413c-4.892,0-8.864-3.984-8.864-8.877V33.563l-17.295-17.278c-0.474-0.471-0.621-1.195-0.364-1.829
	c0.25-0.626,0.867-1.031,1.539-1.031h84.597c0.912,0,1.669,0.749,1.669,1.665v159.537
	C401.214,179.521,397.237,183.505,392.346,183.505L392.346,183.505z M319.011,16.78l14.904,14.923
	c0.328,0.307,0.491,0.736,0.491,1.174v141.751c0,3.053,2.492,5.522,5.526,5.522h52.413c3.043,0,5.514-2.47,5.514-5.522V16.78
	H319.011z M319.011,16.78"/>
<path d="M341.722,58.467h-8.979c-0.938,0-1.689-0.757-1.689-1.685c0-0.917,0.752-1.673,1.689-1.673h8.979
	c0.915,0,1.673,0.756,1.673,1.673C343.395,57.709,342.637,58.467,341.722,58.467L341.722,58.467z M341.722,58.467"/>
<path d="M341.722,79.308h-8.979c-0.938,0-1.689-0.757-1.689-1.673c0-0.928,0.752-1.685,1.689-1.685h8.979
	c0.915,0,1.673,0.757,1.673,1.685C343.395,78.551,342.637,79.308,341.722,79.308L341.722,79.308z M341.722,79.308"/>
<path d="M341.722,16.784h-8.979c-0.938,0-1.689-0.757-1.689-1.685c0-0.917,0.752-1.673,1.689-1.673h8.979
	c0.915,0,1.673,0.756,1.673,1.673C343.395,16.027,342.637,16.784,341.722,16.784L341.722,16.784z M341.722,16.784"/>
<path d="M341.722,37.625h-8.979c-0.938,0-1.689-0.757-1.689-1.673c0-0.928,0.752-1.685,1.689-1.685h8.979
	c0.915,0,1.673,0.757,1.673,1.685C343.395,36.869,342.637,37.625,341.722,37.625L341.722,37.625z M341.722,37.625"/>
<path d="M341.722,100.139h-8.979c-0.938,0-1.689-0.735-1.689-1.677c0-0.907,0.752-1.66,1.689-1.66h8.979
	c0.915,0,1.673,0.753,1.673,1.66C343.395,99.403,342.637,100.139,341.722,100.139L341.722,100.139z M341.722,100.139"/>
<path d="M341.722,120.98h-8.979c-0.938,0-1.689-0.735-1.689-1.677c0-0.907,0.752-1.66,1.689-1.66h8.979
	c0.915,0,1.673,0.753,1.673,1.66C343.395,120.245,342.637,120.98,341.722,120.98L341.722,120.98z M341.722,120.98"/>
<path d="M341.722,141.833h-8.979c-0.938,0-1.689-0.758-1.689-1.686c0-0.917,0.752-1.674,1.689-1.674h8.979
	c0.915,0,1.673,0.757,1.673,1.674C343.395,141.075,342.637,141.833,341.722,141.833L341.722,141.833z M341.722,141.833"/>
<path d="M341.722,162.674h-8.979c-0.938,0-1.689-0.758-1.689-1.674c0-0.928,0.752-1.686,1.689-1.686h8.979
	c0.915,0,1.673,0.758,1.673,1.686C343.395,161.916,342.637,162.674,341.722,162.674L341.722,162.674z M341.722,162.674"/>
<text transform="matrix(1 0 0 1 121.1812 125.7832)"><tspan x="0" y="0" fill="#221F1F" font-family="'Arial-BoldMT'" font-size="22.3544">2</tspan><tspan x="0" y="29.1" fill="#221F1F" font-family="'Arial-BoldMT'" font-size="22.3544">3</tspan></text>
<line fill="none" stroke="#221F1F" stroke-width="1.55" stroke-miterlimit="10" x1="112.164" y1="133.333" x2="142.726" y2="132.645"/>
<text transform="matrix(1 0 0 1 272.1807 125.7832)"><tspan x="0" y="0" fill="#221F1F" font-family="'Arial-BoldMT'" font-size="22.3544">1</tspan><tspan x="0" y="29.1" fill="#221F1F" font-family="'Arial-BoldMT'" font-size="22.3544">2</tspan></text>
<line fill="none" stroke="#221F1F" stroke-width="1.55" stroke-miterlimit="10" x1="263.164" y1="133.333" x2="293.726" y2="132.645"/>
<text transform="matrix(1 0 0 1 416.1807 125.7832)"><tspan x="0" y="0" fill="#221F1F" font-family="'Arial-BoldMT'" font-size="22.3544">5</tspan><tspan x="0" y="29.1" fill="#221F1F" font-family="'Arial-BoldMT'" font-size="22.3544">8</tspan></text>
<line fill="none" stroke="#221F1F" stroke-width="1.55" stroke-miterlimit="10" x1="407.163" y1="133.333" x2="437.725" y2="132.645"/>
</svg>
