<?xml version="1.0" encoding="utf-8"?>
<!-- Generator: Adobe Illustrator 16.0.0, SVG Export Plug-In . SVG Version: 6.00 Build 0)  -->
<!DOCTYPE svg PUBLIC "-//W3C//DTD SVG 1.1//EN" "http://www.w3.org/Graphics/SVG/1.1/DTD/svg11.dtd">
<svg version="1.1" id="Layer_1" xmlns="http://www.w3.org/2000/svg" xmlns:xlink="http://www.w3.org/1999/xlink" x="0px" y="0px"
	 width="141.73px" height="170.08px" viewBox="0 0 141.73 170.08" enable-background="new 0 0 141.73 170.08" xml:space="preserve">
<g>
	<path fill="#231F20" d="M123.607,133.354c-3.616-11.783-22.178-73.909-37.273-94.417V27.611h8.669c1.04,0,3.042-0.729,3.151-3.502
		c0.057-1.538,0.029-5.196,0.016-7.868c-0.008-0.96-0.016-1.773-0.016-2.265c0-1.791-1.26-2.991-3.137-2.991
		c-0.227,0-0.419,0.014-0.555,0.033H48.015c-0.163-0.025-0.401-0.052-0.681-0.052c-2.039,0-3.374,1.36-3.404,3.465
		c-0.022,2.31-0.004,8.643,0,9.388c-0.034,0.447-0.049,1.761,0.851,2.764c0.413,0.463,1.169,1.014,2.41,1.028
		c0.529,0.012,3.851,0.016,8.575,0.016v11.321c-15.093,20.508-33.646,82.634-37.267,94.406c-3.223,8.736-6.033,18.328-2.497,23.303
		c1.475,2.079,3.858,3.129,7.077,3.129h95.958c3.216,0,5.595-1.05,7.069-3.125C129.641,151.694,126.834,142.098,123.607,133.354
		L123.607,133.354z M123.57,154.908c-0.875,1.229-2.357,1.826-4.532,1.826H23.08c-2.179,0-3.665-0.597-4.539-1.826
		c-3.094-4.354,1.252-16.123,2.886-20.553c0.011-0.025,0.019-0.051,0.03-0.082c2.72-8.922,18.601-66.042,37.172-94.018
		c0.245-0.369,0.333-0.801,0.235-1.218V26.099c0-0.841-0.696-1.526-1.551-1.526c-5.307,0-9.498,0-10.069-0.012
		c-0.091,0-0.136-0.011-0.147-0.007c-0.053-0.089-0.091-0.338-0.079-0.491c0.007-0.06,0.011-0.119,0.011-0.18
		c0-0.07-0.026-7,0-9.414c0.003-0.295,0.061-0.41,0.057-0.414c0.022-0.01,0.106-0.037,0.25-0.037c0.102,0,0.178,0.012,0.182,0.012
		c0.117,0.025,0.238,0.041,0.355,0.041h46.713c0.078,0,0.192-0.011,0.275-0.021c0.026-0.008,0.117-0.016,0.197-0.012
		c0,0.5,0.007,1.293,0.011,2.224c0.019,2.497,0.042,6.267-0.011,7.734c-0.016,0.381-0.103,0.545-0.061,0.566H84.782
		c-0.854,0-1.547,0.682-1.547,1.524v12.875c-0.121,0.439-0.019,0.903,0.242,1.296c19.386,29.283,34.452,85.088,37.176,94.018
		c0.008,0.027,0.019,0.052,0.026,0.082C122.318,138.789,126.66,150.564,123.57,154.908L123.57,154.908z M123.57,154.908"/>
	<path fill="#231F20" d="M60.063,45.209c-1.346,1.935-32.996,82.966-36.377,98.736c-0.677,2.642-0.431,4.6,0.749,5.986
		c1.335,1.565,3.469,1.93,5.711,1.93c1.01,0,2.043-0.074,3.034-0.146c0.496-0.038,0.984-0.071,1.445-0.093
		c0.855-0.041,1.513-0.76,1.471-1.603c-0.045-0.842-0.771-1.489-1.626-1.445c-0.484,0.023-0.995,0.061-1.517,0.099
		c-2.327,0.167-5.228,0.371-6.143-0.705c-0.609-0.711-0.44-2.186-0.106-3.334c10.415-35.813,34.047-95.752,36.033-101.322
		C62.909,42.828,60.547,44.517,60.063,45.209z M62.215,44.815"/>
</g>
</svg>
