<?xml version="1.0" encoding="utf-8"?>
<!-- Generator: Adobe Illustrator 16.0.0, SVG Export Plug-In . SVG Version: 6.00 Build 0)  -->
<!DOCTYPE svg PUBLIC "-//W3C//DTD SVG 1.1//EN" "http://www.w3.org/Graphics/SVG/1.1/DTD/svg11.dtd">
<svg version="1.1" id="Layer_1" xmlns="http://www.w3.org/2000/svg" xmlns:xlink="http://www.w3.org/1999/xlink" x="0px" y="0px"
	 width="141.73px" height="127.56px" viewBox="0 0 141.73 127.56" enable-background="new 0 0 141.73 127.56" xml:space="preserve">
<g>
	<path d="M126.945,99.263V40.05c0-2.085-0.443-3.876-1.315-5.287c-0.02-0.021-0.041-0.063-0.063-0.084
		c-0.637-0.906-1.315-1.748-1.972-2.59c-1.739-2.211-3.395-4.318-3.967-6.635v-0.084h0.869c1.4,0,2.948-1.18,2.948-2.885v-6.025
		c0-1.707-1.548-2.886-2.948-2.886H20.077c-1.677,0-2.948,1.243-2.948,2.886v6.025c0,1.643,1.271,2.885,2.948,2.885h0.55v0.19
		c-0.189,2.316-1.844,4.318-3.584,6.445c-0.699,0.842-1.42,1.727-2.057,2.633c-1.399,1.727-1.399,3.686-1.399,5.413v59.276
		c0,4.802,2.269,9.204,6.063,11.773c1.422,1.096,3.225,1.686,5.092,1.686c0.361,0,0.721-0.021,1.102-0.063h88.929
		c2.778,0,5.174-0.758,6.956-2.19C125.419,107.54,127.222,103.643,126.945,99.263L126.945,99.263z M20.33,22.209v-5.497h99.936
		v5.497H20.33z M119.733,108.047c-1.526,1.221-3.52,1.473-4.938,1.473H25.761c-0.065,0-0.149,0-0.212,0.021
		c-1.421,0.189-2.886-0.168-3.945-0.99c-0.021-0.021-0.063-0.041-0.084-0.063c-2.991-2.001-4.709-5.351-4.709-9.184V40.03
		c0-1.602,0.042-2.634,0.721-3.455c0.021-0.043,0.063-0.063,0.084-0.105c0.553-0.821,1.231-1.622,1.931-2.464
		c1.909-2.317,4.072-4.93,4.306-8.279v-0.358h92.617v0.253c0,0.104,0.021,0.231,0.043,0.336c0.679,3.075,2.672,5.624,4.602,8.068
		c0.615,0.779,1.252,1.602,1.844,2.422c0.554,0.906,0.828,2.105,0.828,3.581v59.379C123.998,102.801,122.64,105.709,119.733,108.047
		L119.733,108.047z M119.271,107.164"/>
	<path d="M117.635,67.056c-0.861,0-1.576,0.71-1.576,1.565v23.393c0,2.733-0.82,5.175-2.354,7.096l-2.688,3.379
		c-0.547,0.669-0.442,1.648,0.252,2.191c0.272,0.23,0.63,0.334,0.966,0.334c0.463,0,0.926-0.207,1.24-0.584l2.711-3.381
		c1.973-2.461,3.025-5.592,3.025-9.035V68.621C119.211,67.766,118.496,67.056,117.635,67.056L117.635,67.056z M117.635,67.056"/>
</g>
</svg>
