<?xml version="1.0" encoding="utf-8"?>
<!-- Generator: Adobe Illustrator 16.0.0, SVG Export Plug-In . SVG Version: 6.00 Build 0)  -->
<!DOCTYPE svg PUBLIC "-//W3C//DTD SVG 1.1//EN" "http://www.w3.org/Graphics/SVG/1.1/DTD/svg11.dtd">
<svg version="1.1" id="Layer_1" xmlns="http://www.w3.org/2000/svg" xmlns:xlink="http://www.w3.org/1999/xlink" x="0px" y="0px"
	 width="269.29px" height="113.39px" viewBox="0 0 269.29 113.39" enable-background="new 0 0 269.29 113.39" xml:space="preserve">
<g>
	
		<path fill="#A97C50" stroke="#3C2415" stroke-width="2" stroke-linecap="round" stroke-linejoin="round" stroke-miterlimit="10" d="
		M253,14.283c0-0.002-0.15-0.011-0.289-0.011c-23.482,0-42.457,19.037-42.457,42.52c0,23.483,18.942,42.52,42.425,42.52
		c0.14,0,0.321-0.009,0.321-0.011V14.283z"/>
	<g>
		
			<circle fill="#A97C50" stroke="#3C2415" stroke-width="1.5" stroke-linecap="round" stroke-linejoin="round" stroke-miterlimit="10" cx="58.549" cy="58.015" r="42.52"/>
		<path fill="#734B46" d="M51.204,56.461l-1.477,4.429c-0.467,1.401,0.167,2.93,1.487,3.591l4.685,2.342
			c1.143,0.571,2.521,0.349,3.425-0.555l2.782-2.783c0.962-0.962,1.146-2.455,0.445-3.623l-2.394-3.989
			c-0.536-0.894-1.501-1.439-2.542-1.439h-3.599C52.741,54.433,51.607,55.25,51.204,56.461L51.204,56.461z M51.204,56.461"/>
		<path fill="#734B46" d="M34.802,37.173l1.403,4.454c0.443,1.407,1.854,2.274,3.312,2.035l5.167-0.853
			c1.26-0.207,2.246-1.198,2.446-2.459l0.623-3.886c0.213-1.344-0.514-2.661-1.767-3.195l-4.278-1.825
			c-0.957-0.409-2.061-0.286-2.903,0.325l-2.914,2.11C34.857,34.629,34.419,35.955,34.802,37.173L34.802,37.173z M34.802,37.173"/>
		<path fill="#734B46" d="M66.447,32.769l-3.752,2.777c-1.188,0.878-1.549,2.494-0.848,3.793l2.487,4.609
			c0.607,1.123,1.864,1.733,3.122,1.514l3.877-0.679c1.34-0.234,2.349-1.353,2.446-2.709l0.334-4.641
			c0.075-1.038-0.401-2.041-1.253-2.64l-2.944-2.067C68.872,31.993,67.475,32.011,66.447,32.769L66.447,32.769z M66.447,32.769"/>
		<path fill="#734B46" d="M27.213,61.989l0.979,3.602c0.309,1.138,1.408,1.877,2.579,1.731l4.156-0.515
			c1.014-0.126,1.831-0.886,2.033-1.886l0.619-3.084c0.215-1.067-0.324-2.144-1.306-2.61l-3.361-1.596
			c-0.752-0.357-1.638-0.294-2.33,0.167l-2.395,1.594C27.338,59.958,26.945,61.003,27.213,61.989L27.213,61.989z M27.213,61.989"/>
		<path fill="#734B46" d="M79.353,70.866l-4.551-1.05c-1.437-0.332-2.9,0.445-3.433,1.821l-1.888,4.886
			c-0.462,1.191-0.107,2.543,0.877,3.355l3.034,2.507c1.048,0.867,2.553,0.908,3.648,0.101l3.746-2.76
			c0.837-0.619,1.289-1.632,1.191-2.67l-0.341-3.58C81.517,72.205,80.596,71.154,79.353,70.866L79.353,70.866z M79.353,70.866"/>
		<path fill="#734B46" d="M52.004,83.242l-2.464-2.797c-0.778-0.884-2.088-1.062-3.073-0.415l-3.498,2.292
			c-0.853,0.558-1.252,1.599-0.99,2.585l0.801,3.037c0.279,1.05,1.235,1.776,2.321,1.762l3.713-0.049
			c0.832-0.012,1.597-0.458,2.015-1.177l1.444-2.481C52.785,85.118,52.677,84.008,52.004,83.242L52.004,83.242z M52.004,83.242"/>
		<path fill="#644141" d="M39.424,41.627l-1.402-4.454c-0.384-1.218,0.055-2.544,1.088-3.293l2.914-2.11
			c0.061-0.045,0.134-0.067,0.197-0.108l-0.513-0.218c-0.957-0.408-2.061-0.286-2.904,0.326l-2.914,2.11
			c-1.033,0.749-1.471,2.075-1.088,3.293l1.403,4.454c0.443,1.407,1.854,2.274,3.312,2.035l1.491-0.246
			C40.273,43.074,39.682,42.446,39.424,41.627L39.424,41.627z M39.424,41.627"/>
		<path fill="#644141" d="M67.555,43.948l-2.487-4.609c-0.701-1.299-0.34-2.915,0.846-3.793l3.755-2.776
			c0.049-0.038,0.11-0.052,0.163-0.085c-1.036-0.677-2.383-0.655-3.384,0.085l-3.752,2.776c-1.188,0.878-1.549,2.494-0.848,3.793
			l2.487,4.609c0.607,1.124,1.864,1.733,3.122,1.514l1.425-0.25C68.331,44.946,67.86,44.514,67.555,43.948L67.555,43.948z
			 M67.555,43.948"/>
		<path fill="#644141" d="M76.611,82.386l-3.033-2.507c-0.984-0.813-1.338-2.164-0.878-3.355l1.889-4.886
			c0.266-0.689,0.766-1.228,1.378-1.553l-1.165-0.269c-1.438-0.331-2.9,0.445-3.433,1.821l-1.888,4.886
			c-0.462,1.191-0.107,2.543,0.877,3.355l3.034,2.507c1.009,0.833,2.431,0.883,3.514,0.169
			C76.81,82.493,76.701,82.459,76.611,82.386L76.611,82.386z M76.611,82.386"/>
		<path fill="#644141" d="M54.435,64.48c-1.32-0.661-1.955-2.19-1.487-3.591l1.477-4.429c0.404-1.212,1.536-2.028,2.813-2.028h-3.22
			c-1.276,0-2.41,0.816-2.813,2.028l-1.477,4.429c-0.467,1.4,0.167,2.93,1.487,3.591l4.685,2.342
			c0.938,0.47,2.024,0.376,2.887-0.165L54.435,64.48z M54.435,64.48"/>
		<path fill="#644141" d="M31.411,65.591l-0.979-3.603c-0.268-0.985,0.125-2.03,0.975-2.596l2.172-1.444l-0.666-0.315
			c-0.752-0.358-1.638-0.294-2.33,0.167l-2.395,1.593c-0.85,0.565-1.242,1.61-0.976,2.596l0.979,3.603
			c0.309,1.138,1.41,1.877,2.579,1.731l1.935-0.24C32.095,66.796,31.6,66.283,31.411,65.591L31.411,65.591z M31.411,65.591"/>
		<path fill="#644141" d="M46,87.944l-0.804-3.039c-0.26-0.984,0.14-2.026,0.992-2.584l3.13-2.051
			c-0.789-0.702-1.949-0.832-2.852-0.24l-3.498,2.291c-0.853,0.559-1.252,1.6-0.99,2.584l0.801,3.039
			c0.279,1.05,1.235,1.776,2.321,1.762l2.965-0.04C47.09,89.571,46.254,88.909,46,87.944L46,87.944z M46,87.944"/>
		<path fill="#734B46" d="M92.024,46.087l-2.464-2.798c-0.778-0.884-2.09-1.062-3.074-0.415l-3.497,2.292
			c-0.853,0.559-1.252,1.6-0.992,2.585l0.803,3.037c0.277,1.049,1.234,1.776,2.32,1.761l3.713-0.048
			c0.832-0.012,1.597-0.458,2.016-1.177l1.444-2.482C92.805,47.961,92.696,46.852,92.024,46.087L92.024,46.087z M92.024,46.087"/>
		<path fill="#644141" d="M86.02,50.788l-0.803-3.038c-0.261-0.984,0.139-2.027,0.991-2.586l3.131-2.05
			c-0.789-0.703-1.949-0.833-2.853-0.24l-3.497,2.29c-0.853,0.561-1.252,1.602-0.992,2.586l0.803,3.038
			c0.277,1.049,1.234,1.776,2.32,1.761l2.966-0.039C87.109,52.416,86.274,51.752,86.02,50.788L86.02,50.788z M86.02,50.788"/>
		<path fill="#C98850" d="M55.56,47.519c-0.818,0-1.483-0.665-1.483-1.484v-2.965c0-0.819,0.665-1.483,1.483-1.483
			c0.82,0,1.483,0.664,1.483,1.483v2.965C57.043,46.854,56.38,47.519,55.56,47.519L55.56,47.519z M55.56,47.519"/>
		<path fill="#925F4A" d="M42.828,54.063c-0.58,0.58-1.518,0.58-2.099,0l-2.096-2.097c-0.58-0.579-0.58-1.519,0-2.098
			c0.578-0.579,1.519-0.579,2.096,0l2.099,2.098C43.407,52.546,43.407,53.484,42.828,54.063L42.828,54.063z M42.828,54.063"/>
		<path fill="#C98850" d="M42.606,74.003c-0.762-0.301-1.135-1.161-0.834-1.923l1.09-2.76c0.301-0.761,1.162-1.135,1.924-0.833
			c0.762,0.3,1.136,1.162,0.833,1.923l-1.09,2.76C44.229,73.932,43.368,74.304,42.606,74.003L42.606,74.003z M42.606,74.003"/>
		<path fill="#925F4A" d="M60.105,78.283c-0.798,0.191-1.597-0.3-1.788-1.096l-0.691-2.885c-0.191-0.797,0.301-1.597,1.097-1.787
			c0.797-0.191,1.598,0.299,1.788,1.096l0.69,2.885C61.393,77.292,60.902,78.093,60.105,78.283L60.105,78.283z M60.105,78.283"/>
		<path fill="#925F4A" d="M64.567,91.083c-0.31-0.758,0.055-1.624,0.813-1.933l2.746-1.121c0.758-0.31,1.624,0.054,1.934,0.813
			c0.31,0.758-0.055,1.623-0.813,1.933l-2.746,1.122C65.743,92.205,64.878,91.843,64.567,91.083L64.567,91.083z M64.567,91.083"/>
		<path fill="#925F4A" d="M55.908,26.797c0.192-0.796,0.994-1.286,1.789-1.093l2.884,0.695c0.795,0.192,1.285,0.994,1.094,1.79
			c-0.192,0.796-0.994,1.285-1.79,1.094l-2.883-0.695C56.206,28.396,55.716,27.594,55.908,26.797L55.908,26.797z M55.908,26.797"/>
		<path fill="#925F4A" d="M28.854,79.885c-0.771-0.275-1.174-1.123-0.899-1.895l0.996-2.795c0.277-0.771,1.124-1.173,1.896-0.897
			s1.175,1.123,0.899,1.896l-0.997,2.793C30.474,79.758,29.626,80.16,28.854,79.885L28.854,79.885z M28.854,79.885"/>
		<path fill="#C98850" d="M26.724,44.983c0.796-0.192,1.599,0.296,1.792,1.092l0.7,2.882c0.193,0.796-0.295,1.598-1.091,1.791
			s-1.598-0.295-1.791-1.091l-0.7-2.882C25.44,45.979,25.93,45.177,26.724,44.983L26.724,44.983z M26.724,44.983"/>
		<path fill="#925F4A" d="M68.293,58.512c-0.579-0.577-0.579-1.518,0-2.096l2.097-2.099c0.579-0.578,1.519-0.578,2.098,0
			c0.579,0.58,0.579,1.519,0,2.099l-2.098,2.096C69.811,59.093,68.872,59.093,68.293,58.512L68.293,58.512z M68.293,58.512"/>
		<path fill="#925F4A" d="M88.006,64.265c0.579-0.579,1.518-0.579,2.097,0l2.098,2.097c0.579,0.58,0.579,1.519,0,2.099
			c-0.579,0.578-1.518,0.578-2.098,0l-2.097-2.099C87.426,65.783,87.426,64.844,88.006,64.265L88.006,64.265z M88.006,64.265"/>
		<path fill="#C98850" d="M88.394,76.027c0.758,0.313,1.119,1.178,0.809,1.936l-1.128,2.743c-0.312,0.758-1.178,1.119-1.935,0.809
			c-0.758-0.312-1.12-1.179-0.809-1.937l1.127-2.742C86.77,76.078,87.637,75.716,88.394,76.027L88.394,76.027z M88.394,76.027"/>
		<path fill="#C98850" d="M81.071,31.855c0.758,0.311,1.12,1.178,0.809,1.934l-1.128,2.744c-0.311,0.758-1.178,1.12-1.936,0.809
			c-0.757-0.312-1.119-1.178-0.808-1.937l1.128-2.742C79.448,31.905,80.314,31.543,81.071,31.855L81.071,31.855z M81.071,31.855"/>
	</g>
	<g>
		
			<circle fill="#A97C50" stroke="#3C2415" stroke-width="1.5" stroke-linecap="round" stroke-linejoin="round" stroke-miterlimit="10" cx="156.724" cy="57.403" r="42.52"/>
		<path fill="#734B46" d="M149.379,55.85l-1.477,4.429c-0.467,1.401,0.167,2.93,1.487,3.591l4.685,2.342
			c1.143,0.571,2.521,0.349,3.425-0.555l2.782-2.783c0.962-0.962,1.146-2.455,0.445-3.623l-2.394-3.989
			c-0.536-0.894-1.501-1.439-2.542-1.439h-3.599C150.916,53.821,149.782,54.639,149.379,55.85L149.379,55.85z M149.379,55.85"/>
		<path fill="#734B46" d="M132.977,36.562l1.403,4.454c0.443,1.407,1.854,2.274,3.312,2.035l5.167-0.853
			c1.26-0.207,2.246-1.198,2.446-2.459l0.623-3.886c0.213-1.344-0.514-2.661-1.767-3.195l-4.278-1.825
			c-0.957-0.409-2.061-0.286-2.903,0.325l-2.914,2.11C133.032,34.018,132.594,35.344,132.977,36.562L132.977,36.562z
			 M132.977,36.562"/>
		<path fill="#734B46" d="M164.622,32.157l-3.752,2.777c-1.188,0.878-1.549,2.494-0.848,3.793l2.487,4.609
			c0.607,1.123,1.864,1.733,3.122,1.514l3.877-0.679c1.34-0.234,2.349-1.353,2.446-2.709l0.334-4.641
			c0.075-1.038-0.401-2.041-1.253-2.64l-2.944-2.067C167.047,31.382,165.649,31.399,164.622,32.157L164.622,32.157z M164.622,32.157
			"/>
		<path fill="#734B46" d="M125.388,61.378l0.979,3.602c0.309,1.138,1.408,1.877,2.579,1.731l4.156-0.515
			c1.014-0.126,1.831-0.886,2.033-1.886l0.619-3.084c0.215-1.067-0.324-2.144-1.306-2.61l-3.361-1.596
			c-0.752-0.357-1.638-0.294-2.33,0.167l-2.395,1.594C125.513,59.347,125.12,60.392,125.388,61.378L125.388,61.378z M125.388,61.378
			"/>
		<path fill="#734B46" d="M177.527,70.255l-4.551-1.05c-1.437-0.332-2.9,0.445-3.433,1.821l-1.888,4.886
			c-0.462,1.191-0.107,2.543,0.877,3.355l3.034,2.507c1.048,0.867,2.553,0.908,3.648,0.101l3.746-2.76
			c0.837-0.619,1.289-1.632,1.191-2.67l-0.341-3.58C179.691,71.594,178.771,70.543,177.527,70.255L177.527,70.255z M177.527,70.255"
			/>
		<path fill="#734B46" d="M150.179,82.631l-2.464-2.797c-0.778-0.884-2.088-1.062-3.073-0.415l-3.498,2.292
			c-0.853,0.558-1.252,1.599-0.99,2.585l0.801,3.037c0.279,1.05,1.235,1.776,2.321,1.762l3.713-0.049
			c0.832-0.012,1.597-0.458,2.015-1.177l1.444-2.481C150.96,84.507,150.852,83.396,150.179,82.631L150.179,82.631z M150.179,82.631"
			/>
		<path fill="#644141" d="M137.599,41.016l-1.402-4.454c-0.384-1.218,0.055-2.544,1.088-3.293l2.914-2.11
			c0.061-0.045,0.134-0.067,0.197-0.108l-0.513-0.218c-0.957-0.408-2.061-0.286-2.904,0.326l-2.914,2.11
			c-1.033,0.749-1.471,2.075-1.088,3.293l1.403,4.454c0.443,1.407,1.854,2.274,3.312,2.035l1.491-0.246
			C138.448,42.463,137.856,41.835,137.599,41.016L137.599,41.016z M137.599,41.016"/>
		<path fill="#644141" d="M165.729,43.337l-2.487-4.609c-0.701-1.299-0.34-2.915,0.846-3.793l3.755-2.776
			c0.049-0.038,0.11-0.052,0.163-0.085c-1.036-0.677-2.383-0.655-3.384,0.085l-3.752,2.776c-1.188,0.878-1.549,2.494-0.848,3.793
			l2.487,4.609c0.607,1.124,1.864,1.733,3.122,1.514l1.425-0.25C166.506,44.335,166.035,43.902,165.729,43.337L165.729,43.337z
			 M165.729,43.337"/>
		<path fill="#644141" d="M174.786,81.774l-3.033-2.507c-0.984-0.813-1.338-2.164-0.878-3.355l1.889-4.886
			c0.266-0.689,0.766-1.228,1.378-1.553l-1.165-0.269c-1.438-0.331-2.9,0.445-3.433,1.821l-1.888,4.886
			c-0.462,1.191-0.107,2.543,0.877,3.355l3.034,2.507c1.009,0.833,2.431,0.883,3.514,0.169
			C174.984,81.882,174.876,81.848,174.786,81.774L174.786,81.774z M174.786,81.774"/>
		<path fill="#644141" d="M152.609,63.869c-1.32-0.661-1.955-2.19-1.487-3.591l1.477-4.429c0.404-1.212,1.536-2.028,2.813-2.028
			h-3.22c-1.276,0-2.41,0.816-2.813,2.028l-1.477,4.429c-0.467,1.4,0.167,2.93,1.487,3.591l4.685,2.342
			c0.938,0.47,2.024,0.376,2.887-0.165L152.609,63.869z M152.609,63.869"/>
		<path fill="#644141" d="M129.586,64.979l-0.979-3.603c-0.268-0.985,0.125-2.03,0.975-2.596l2.172-1.444l-0.666-0.315
			c-0.752-0.358-1.638-0.294-2.33,0.167l-2.395,1.593c-0.85,0.565-1.242,1.61-0.976,2.596l0.979,3.603
			c0.309,1.138,1.41,1.877,2.579,1.731l1.935-0.24C130.27,66.185,129.774,65.672,129.586,64.979L129.586,64.979z M129.586,64.979"/>
		<path fill="#644141" d="M144.175,87.333l-0.804-3.039c-0.26-0.984,0.14-2.026,0.992-2.584l3.13-2.051
			c-0.789-0.702-1.949-0.832-2.852-0.24l-3.498,2.291c-0.853,0.559-1.252,1.6-0.99,2.584l0.801,3.039
			c0.279,1.05,1.235,1.776,2.321,1.762l2.965-0.04C145.265,88.96,144.429,88.298,144.175,87.333L144.175,87.333z M144.175,87.333"/>
		<path fill="#734B46" d="M190.199,45.476l-2.464-2.798c-0.778-0.884-2.09-1.062-3.074-0.415l-3.497,2.292
			c-0.853,0.559-1.252,1.6-0.992,2.585l0.803,3.037c0.277,1.049,1.234,1.776,2.32,1.761l3.713-0.048
			c0.832-0.012,1.597-0.458,2.016-1.177l1.444-2.482C190.979,47.35,190.871,46.24,190.199,45.476L190.199,45.476z M190.199,45.476"
			/>
		<path fill="#644141" d="M184.194,50.177l-0.803-3.038c-0.261-0.984,0.139-2.027,0.991-2.586l3.131-2.05
			c-0.789-0.703-1.949-0.833-2.853-0.24l-3.497,2.29c-0.853,0.561-1.252,1.602-0.992,2.586l0.803,3.038
			c0.277,1.049,1.234,1.776,2.32,1.761l2.966-0.039C185.284,51.805,184.449,51.141,184.194,50.177L184.194,50.177z M184.194,50.177"
			/>
		<path fill="#C98850" d="M153.734,46.907c-0.818,0-1.483-0.665-1.483-1.484v-2.965c0-0.819,0.665-1.483,1.483-1.483
			c0.82,0,1.483,0.664,1.483,1.483v2.965C155.218,46.242,154.555,46.907,153.734,46.907L153.734,46.907z M153.734,46.907"/>
		<path fill="#925F4A" d="M141.003,53.452c-0.58,0.58-1.518,0.58-2.099,0l-2.096-2.097c-0.58-0.579-0.58-1.519,0-2.098
			c0.578-0.579,1.519-0.579,2.096,0l2.099,2.098C141.582,51.935,141.582,52.873,141.003,53.452L141.003,53.452z M141.003,53.452"/>
		<path fill="#C98850" d="M140.781,73.392c-0.762-0.301-1.135-1.161-0.834-1.923l1.09-2.76c0.301-0.761,1.162-1.135,1.924-0.833
			c0.762,0.3,1.136,1.162,0.833,1.923l-1.09,2.76C142.404,73.32,141.543,73.692,140.781,73.392L140.781,73.392z M140.781,73.392"/>
		<path fill="#925F4A" d="M158.28,77.672c-0.798,0.191-1.597-0.3-1.788-1.096l-0.691-2.885c-0.191-0.797,0.301-1.597,1.097-1.787
			c0.797-0.191,1.598,0.299,1.788,1.096l0.69,2.885C159.567,76.681,159.077,77.481,158.28,77.672L158.28,77.672z M158.28,77.672"/>
		<path fill="#925F4A" d="M162.742,90.472c-0.31-0.758,0.055-1.624,0.813-1.933l2.746-1.121c0.758-0.31,1.624,0.054,1.934,0.813
			c0.31,0.758-0.055,1.623-0.813,1.933l-2.746,1.122C163.918,91.594,163.053,91.231,162.742,90.472L162.742,90.472z M162.742,90.472
			"/>
		<path fill="#925F4A" d="M154.083,26.186c0.192-0.796,0.994-1.286,1.789-1.093l2.884,0.695c0.795,0.192,1.285,0.994,1.094,1.79
			c-0.192,0.796-0.994,1.285-1.79,1.094l-2.883-0.695C154.381,27.784,153.891,26.982,154.083,26.186L154.083,26.186z
			 M154.083,26.186"/>
		<path fill="#925F4A" d="M127.029,79.273c-0.771-0.275-1.174-1.123-0.899-1.895l0.996-2.795c0.277-0.771,1.124-1.173,1.896-0.897
			s1.175,1.123,0.899,1.896l-0.997,2.793C128.648,79.146,127.801,79.549,127.029,79.273L127.029,79.273z M127.029,79.273"/>
		<path fill="#C98850" d="M124.898,44.372c0.796-0.192,1.599,0.296,1.792,1.092l0.7,2.882c0.193,0.796-0.295,1.598-1.091,1.791
			s-1.598-0.295-1.791-1.091l-0.7-2.882C123.615,45.367,124.104,44.565,124.898,44.372L124.898,44.372z M124.898,44.372"/>
		<path fill="#925F4A" d="M166.468,57.9c-0.579-0.577-0.579-1.518,0-2.096l2.097-2.099c0.579-0.578,1.519-0.578,2.098,0
			c0.579,0.58,0.579,1.519,0,2.099l-2.098,2.096C167.985,58.481,167.047,58.481,166.468,57.9L166.468,57.9z M166.468,57.9"/>
		<path fill="#925F4A" d="M186.181,63.653c0.579-0.579,1.518-0.579,2.097,0l2.098,2.097c0.579,0.58,0.579,1.519,0,2.099
			c-0.579,0.578-1.518,0.578-2.098,0l-2.097-2.099C185.601,65.172,185.601,64.232,186.181,63.653L186.181,63.653z M186.181,63.653"
			/>
		<path fill="#C98850" d="M186.568,75.416c0.758,0.313,1.119,1.178,0.809,1.936l-1.128,2.743c-0.312,0.758-1.178,1.119-1.935,0.809
			c-0.758-0.312-1.12-1.179-0.809-1.937l1.127-2.742C184.944,75.467,185.812,75.104,186.568,75.416L186.568,75.416z M186.568,75.416
			"/>
		<path fill="#C98850" d="M179.246,31.244c0.758,0.311,1.12,1.178,0.809,1.934l-1.128,2.744c-0.311,0.758-1.178,1.12-1.936,0.809
			c-0.757-0.312-1.119-1.178-0.808-1.937l1.128-2.742C177.623,31.294,178.489,30.932,179.246,31.244L179.246,31.244z
			 M179.246,31.244"/>
	</g>
	<path fill="#734B46" d="M229.089,35.95l1.403,4.454c0.443,1.407,1.854,2.274,3.312,2.035l5.167-0.853
		c1.26-0.207,2.246-1.198,2.446-2.459l0.623-3.886c0.213-1.344-0.514-2.661-1.767-3.195l-4.278-1.825
		c-0.957-0.409-2.061-0.286-2.903,0.325l-2.914,2.11C229.145,33.406,228.706,34.732,229.089,35.95L229.089,35.95z M229.089,35.95"/>
	<path fill="#734B46" d="M221.5,60.767l0.979,3.602c0.309,1.138,1.408,1.877,2.579,1.731l4.156-0.515
		c1.014-0.126,1.831-0.886,2.033-1.886l0.619-3.084c0.215-1.067-0.324-2.144-1.306-2.61l-3.361-1.596
		c-0.752-0.357-1.638-0.294-2.33,0.167l-2.395,1.594C221.625,58.735,221.232,59.78,221.5,60.767L221.5,60.767z M221.5,60.767"/>
	<path fill="#734B46" d="M246.291,82.02l-2.464-2.797c-0.778-0.884-2.088-1.062-3.073-0.415l-3.498,2.292
		c-0.853,0.558-1.252,1.599-0.99,2.585l0.801,3.037c0.279,1.05,1.235,1.776,2.321,1.762l3.713-0.049
		c0.832-0.012,1.597-0.458,2.015-1.177l1.444-2.481C247.072,83.896,246.964,82.785,246.291,82.02L246.291,82.02z M246.291,82.02"/>
	<path fill="#644141" d="M233.711,40.404l-1.402-4.454c-0.384-1.218,0.055-2.544,1.088-3.293l2.914-2.11
		c0.061-0.045,0.134-0.067,0.197-0.108l-0.513-0.218c-0.957-0.408-2.061-0.286-2.904,0.326l-2.914,2.11
		c-1.033,0.749-1.471,2.075-1.088,3.293l1.403,4.454c0.443,1.407,1.854,2.274,3.312,2.035l1.491-0.246
		C234.561,41.852,233.969,41.224,233.711,40.404L233.711,40.404z M233.711,40.404"/>
	<path fill="#644141" d="M225.698,64.368l-0.979-3.603c-0.268-0.985,0.125-2.03,0.975-2.596l2.172-1.444L227.2,56.41
		c-0.752-0.358-1.638-0.294-2.33,0.167l-2.395,1.593c-0.85,0.565-1.242,1.61-0.976,2.596l0.979,3.603
		c0.309,1.138,1.41,1.877,2.579,1.731l1.935-0.24C226.382,65.573,225.887,65.061,225.698,64.368L225.698,64.368z M225.698,64.368"/>
	<path fill="#644141" d="M240.287,86.722l-0.804-3.039c-0.26-0.984,0.14-2.026,0.992-2.584l3.13-2.051
		c-0.789-0.702-1.949-0.832-2.852-0.24l-3.498,2.291c-0.853,0.559-1.252,1.6-0.99,2.584l0.801,3.039
		c0.279,1.05,1.235,1.776,2.321,1.762l2.965-0.04C241.377,88.349,240.541,87.687,240.287,86.722L240.287,86.722z M240.287,86.722"/>
	<path fill="#C98850" d="M249.847,46.296c-0.818,0-1.483-0.665-1.483-1.484v-2.965c0-0.819,0.665-1.483,1.483-1.483
		c0.82,0,1.483,0.664,1.483,1.483v2.965C251.33,45.631,250.667,46.296,249.847,46.296L249.847,46.296z M249.847,46.296"/>
	<path fill="#925F4A" d="M237.115,52.841c-0.58,0.58-1.518,0.58-2.099,0l-2.096-2.097c-0.58-0.579-0.58-1.519,0-2.098
		c0.578-0.579,1.519-0.579,2.096,0l2.099,2.098C237.694,51.323,237.694,52.262,237.115,52.841L237.115,52.841z M237.115,52.841"/>
	<path fill="#C98850" d="M236.894,72.78c-0.762-0.301-1.135-1.161-0.834-1.923l1.09-2.76c0.301-0.761,1.162-1.135,1.924-0.833
		c0.762,0.3,1.136,1.162,0.833,1.923l-1.09,2.76C238.517,72.709,237.655,73.081,236.894,72.78L236.894,72.78z M236.894,72.78"/>
	<path fill="#925F4A" d="M249.16,76.38c-0.798,0.191-1.597-0.3-1.788-1.096l-0.691-2.885c-0.191-0.797,0.301-1.597,1.097-1.787
		c0.797-0.191,1.598,0.299,1.788,1.096l0.69,2.885C250.447,75.389,249.957,76.189,249.16,76.38L249.16,76.38z M249.16,76.38"/>
	<path fill="#925F4A" d="M245.48,24.354c0.192-0.796,0.994-1.286,1.789-1.093l2.884,0.695c0.795,0.192,1.285,0.994,1.094,1.79
		c-0.192,0.796-0.994,1.285-1.79,1.094l-2.883-0.695C245.778,25.953,245.288,25.151,245.48,24.354L245.48,24.354z M245.48,24.354"/>
	<path fill="#925F4A" d="M223.142,78.662c-0.771-0.275-1.174-1.123-0.899-1.895l0.996-2.795c0.277-0.771,1.124-1.173,1.896-0.897
		s1.175,1.123,0.899,1.896l-0.997,2.793C224.761,78.535,223.913,78.938,223.142,78.662L223.142,78.662z M223.142,78.662"/>
	<path fill="#C98850" d="M221.011,43.761c0.796-0.192,1.599,0.296,1.792,1.092l0.7,2.882c0.193,0.796-0.295,1.598-1.091,1.791
		s-1.598-0.295-1.791-1.091l-0.7-2.882C219.728,44.756,220.217,43.954,221.011,43.761L221.011,43.761z M221.011,43.761"/>
	<path fill="#734B46" d="M252,53.549c0-0.212-0.618-0.549-1.097-0.549h-3.599c-1.276,0-2.41,0.922-2.813,2.133l-1.477,4.481
		c-0.467,1.401,0.167,2.956,1.487,3.617l4.559,2.355c1,0.5,1.939,0.404,2.939-0.235V53.549z"/>
	<path fill="#644141" d="M246.234,59.667l1.477-4.534c0.404-1.211,1.536-2.133,2.813-2.133h-3.22c-1.276,0-2.41,0.922-2.813,2.133
		l-1.477,4.481c-0.467,1.4,0.167,2.956,1.487,3.617l4.685,2.355c0.938,0.47,2.024,0.382,2.887-0.159l-4.352-2.173
		C246.401,62.594,245.767,61.067,246.234,59.667z"/>
</g>
</svg>
