<?xml version="1.0" encoding="utf-8"?>
<!-- Generator: Adobe Illustrator 16.0.0, SVG Export Plug-In . SVG Version: 6.00 Build 0)  -->
<!DOCTYPE svg PUBLIC "-//W3C//DTD SVG 1.1//EN" "http://www.w3.org/Graphics/SVG/1.1/DTD/svg11.dtd">
<svg version="1.1" id="Layer_1" xmlns="http://www.w3.org/2000/svg" xmlns:xlink="http://www.w3.org/1999/xlink" x="0px" y="0px"
	 width="311.811px" height="283.46px" viewBox="0 0 311.811 283.46" enable-background="new 0 0 311.811 283.46"
	 xml:space="preserve">
<path fill="none" stroke="#231F20" stroke-miterlimit="10" d="M196.826,196.757"/>
<rect x="61.905" y="162.73" fill="#FFFFFF" stroke="#00A651" stroke-miterlimit="10" width="135" height="34"/>
<g>
	<path d="M85.259,269.24v-10.021h3.028l1.818,6.836l1.798-6.836h3.035v10.021h-1.88v-7.889l-1.989,7.889h-1.948l-1.982-7.889v7.889
		H85.259z"/>
	<path d="M96.49,265.507c0-0.639,0.157-1.256,0.472-1.854c0.314-0.596,0.76-1.053,1.336-1.367s1.22-0.471,1.931-0.471
		c1.098,0,1.999,0.355,2.7,1.07c0.702,0.713,1.053,1.613,1.053,2.703c0,1.098-0.354,2.008-1.063,2.73s-1.601,1.084-2.676,1.084
		c-0.666,0-1.3-0.15-1.904-0.451s-1.063-0.742-1.377-1.322C96.647,267.048,96.49,266.341,96.49,265.507z M98.459,265.609
		c0,0.721,0.171,1.271,0.513,1.654s0.763,0.574,1.265,0.574s0.922-0.191,1.261-0.574s0.509-0.938,0.509-1.668
		c0-0.711-0.17-1.258-0.509-1.641s-0.76-0.574-1.261-0.574s-0.923,0.191-1.265,0.574S98.459,264.89,98.459,265.609z"/>
	<path d="M105.343,261.98h1.771v0.99c0.633-0.77,1.388-1.154,2.263-1.154c0.465,0,0.868,0.096,1.21,0.287s0.622,0.48,0.841,0.867
		c0.319-0.387,0.663-0.676,1.032-0.867s0.763-0.287,1.183-0.287c0.533,0,0.984,0.107,1.354,0.324s0.645,0.535,0.827,0.953
		c0.132,0.311,0.198,0.813,0.198,1.504v4.643h-1.921v-4.15c0-0.719-0.066-1.184-0.198-1.395c-0.178-0.273-0.451-0.41-0.82-0.41
		c-0.269,0-0.522,0.082-0.759,0.246s-0.408,0.404-0.513,0.723c-0.105,0.316-0.157,0.816-0.157,1.5v3.486h-1.921v-3.979
		c0-0.707-0.034-1.162-0.103-1.367s-0.174-0.357-0.318-0.459c-0.144-0.1-0.338-0.15-0.584-0.15c-0.296,0-0.563,0.08-0.8,0.24
		s-0.407,0.389-0.509,0.689s-0.154,0.801-0.154,1.498v3.527h-1.921V261.98z"/>
	<path d="M122.138,266.929l1.914,0.32c-0.246,0.703-0.635,1.236-1.166,1.604s-1.195,0.551-1.993,0.551
		c-1.262,0-2.197-0.412-2.803-1.238c-0.479-0.66-0.718-1.494-0.718-2.502c0-1.203,0.314-2.145,0.943-2.826s1.424-1.021,2.386-1.021
		c1.08,0,1.932,0.355,2.557,1.07c0.625,0.713,0.923,1.805,0.896,3.277h-4.813c0.014,0.57,0.168,1.012,0.465,1.33
		c0.296,0.316,0.666,0.475,1.107,0.475c0.301,0,0.554-0.082,0.759-0.246S122.033,267.294,122.138,266.929z M122.248,264.988
		c-0.014-0.557-0.157-0.979-0.431-1.268c-0.273-0.291-0.606-0.436-0.998-0.436c-0.419,0-0.766,0.154-1.039,0.459
		s-0.408,0.721-0.403,1.244H122.248z"/>
	<path d="M132.324,269.24h-1.921v-3.705c0-0.783-0.041-1.291-0.123-1.521s-0.215-0.408-0.4-0.537
		c-0.185-0.127-0.407-0.191-0.667-0.191c-0.333,0-0.631,0.092-0.896,0.273c-0.264,0.184-0.445,0.424-0.543,0.725
		s-0.147,0.857-0.147,1.668v3.289h-1.921v-7.26h1.784v1.066c0.633-0.82,1.431-1.23,2.393-1.23c0.424,0,0.811,0.076,1.162,0.229
		s0.616,0.348,0.796,0.584c0.18,0.238,0.305,0.506,0.376,0.807s0.106,0.732,0.106,1.293V269.24z"/>
	<path d="M137.601,261.98v1.531h-1.313v2.926c0,0.592,0.013,0.938,0.038,1.035s0.082,0.18,0.171,0.242
		c0.089,0.064,0.197,0.096,0.325,0.096c0.178,0,0.435-0.061,0.772-0.184l0.164,1.49c-0.447,0.191-0.953,0.287-1.518,0.287
		c-0.346,0-0.659-0.059-0.937-0.174c-0.278-0.117-0.482-0.268-0.612-0.451c-0.13-0.186-0.22-0.436-0.27-0.75
		c-0.041-0.223-0.062-0.674-0.062-1.354v-3.164h-0.882v-1.531h0.882v-1.443l1.928-1.121v2.564H137.601z"/>
	<path d="M138.49,265.507c0-0.639,0.157-1.256,0.472-1.854c0.314-0.596,0.76-1.053,1.336-1.367s1.22-0.471,1.931-0.471
		c1.098,0,1.999,0.355,2.7,1.07c0.702,0.713,1.053,1.613,1.053,2.703c0,1.098-0.354,2.008-1.063,2.73s-1.601,1.084-2.676,1.084
		c-0.666,0-1.3-0.15-1.904-0.451s-1.063-0.742-1.377-1.322C138.647,267.048,138.49,266.341,138.49,265.507z M140.459,265.609
		c0,0.721,0.171,1.271,0.513,1.654s0.763,0.574,1.265,0.574s0.922-0.191,1.261-0.574s0.509-0.938,0.509-1.668
		c0-0.711-0.17-1.258-0.509-1.641s-0.76-0.574-1.261-0.574s-0.923,0.191-1.265,0.574S140.459,264.89,140.459,265.609z"/>
	<path d="M150.897,266.58l1.859-0.225c0.059,0.475,0.219,0.836,0.479,1.086c0.26,0.252,0.574,0.377,0.943,0.377
		c0.396,0,0.73-0.15,1.002-0.451c0.271-0.301,0.406-0.707,0.406-1.217c0-0.482-0.13-0.865-0.39-1.148s-0.577-0.424-0.95-0.424
		c-0.246,0-0.54,0.047-0.882,0.143l0.212-1.564c0.52,0.014,0.916-0.1,1.189-0.338c0.273-0.24,0.41-0.559,0.41-0.955
		c0-0.336-0.1-0.605-0.301-0.807c-0.201-0.199-0.467-0.301-0.8-0.301c-0.328,0-0.608,0.115-0.841,0.342
		c-0.232,0.229-0.373,0.561-0.424,0.998l-1.771-0.301c0.123-0.605,0.309-1.09,0.558-1.451c0.248-0.363,0.594-0.648,1.039-0.855
		c0.443-0.207,0.941-0.311,1.493-0.311c0.943,0,1.7,0.301,2.27,0.902c0.47,0.492,0.704,1.049,0.704,1.668
		c0,0.879-0.48,1.582-1.442,2.105c0.574,0.123,1.033,0.398,1.378,0.826c0.344,0.43,0.516,0.947,0.516,1.553
		c0,0.879-0.321,1.629-0.964,2.248c-0.643,0.621-1.442,0.93-2.399,0.93c-0.906,0-1.658-0.26-2.256-0.781
		C151.339,268.105,150.993,267.423,150.897,266.58z"/>
</g>
<g>
	<g>
		<path fill="#9A8479" stroke="#231F20" stroke-linecap="round" stroke-linejoin="round" stroke-miterlimit="10" d="
			M291.905,158.601c0,4.361-3.942,8.129-8.305,8.129h-0.201c-4.362,0-7.494-3.768-7.494-8.129V147.4c0-4.363,3.132-7.67,7.494-7.67
			h0.201c4.362,0,8.305,3.307,8.305,7.67V158.601z"/>
		<path fill="#9A8479" stroke="#231F20" stroke-linecap="round" stroke-linejoin="round" stroke-miterlimit="10" d="M37.905,244.601
			c0,4.361-3.942,8.129-8.305,8.129h-0.201c-4.363,0-7.494-3.768-7.494-8.129V233.4c0-4.363,3.131-7.67,7.494-7.67H29.6
			c4.363,0,8.305,3.307,8.305,7.67V244.601z"/>
		<path fill="#9A8479" stroke="#231F20" stroke-linecap="round" stroke-linejoin="round" stroke-miterlimit="10" d="
			M224.905,244.601c0,4.361-3.942,8.129-8.305,8.129h-0.201c-4.362,0-7.494-3.768-7.494-8.129V233.4c0-4.363,3.132-7.67,7.494-7.67
			h0.201c4.362,0,8.305,3.307,8.305,7.67V244.601z"/>
		
			<polygon fill="#9A8479" stroke="#231F20" stroke-width="1.5" stroke-linecap="round" stroke-linejoin="round" stroke-miterlimit="10" points="
			228.111,229.5 295.74,141.67 295.74,132.053 228.111,221.027 		"/>
		
			<polygon fill="#CCC0AB" stroke="#231F20" stroke-width="1.5" stroke-linecap="round" stroke-linejoin="round" stroke-miterlimit="10" points="
			296.648,132.053 86.599,132.053 14.573,221.027 228.111,221.027 		"/>
	</g>
	
		<rect x="14.573" y="221.027" fill="#9A8479" stroke="#231F20" stroke-width="1.5" stroke-linecap="round" stroke-linejoin="round" stroke-miterlimit="10" width="213.538" height="8.473"/>
</g>
<polygon fill="#FFFFFF" stroke="#231F20" stroke-width="1.5" stroke-linecap="round" stroke-linejoin="round" stroke-miterlimit="10" points="
	117.867,17.115 62.458,60.19 62.637,60.372 62.637,196.757 197.369,196.757 197.369,196.642 197.499,196.773 238.889,143.273 
	238.889,17.115 "/>
<rect x="61.405" y="95.23" fill="#8EB2C5" width="135" height="102"/>
<polygon fill="#ACD1E2" points="238.241,44.23 118.139,44.23 61.366,95.23 196.097,95.23 "/>
<polygon fill="#8EB2C5" points="196.405,197.605 238.405,143.07 238.405,43.444 196.405,94.711 "/>
<line fill="none" stroke="#231F20" stroke-width="1.5" stroke-linecap="round" stroke-linejoin="round" stroke-miterlimit="10" x1="196.826" y1="60.449" x2="238.391" y2="17.05"/>
<rect x="61.789" y="60.331" fill="none" stroke="#231F20" stroke-width="1.5" stroke-linecap="round" stroke-linejoin="round" stroke-miterlimit="10" width="134.732" height="136.426"/>
</svg>
