<?xml version="1.0" encoding="utf-8"?>
<!-- Generator: Adobe Illustrator 16.0.0, SVG Export Plug-In . SVG Version: 6.00 Build 0)  -->
<!DOCTYPE svg PUBLIC "-//W3C//DTD SVG 1.1//EN" "http://www.w3.org/Graphics/SVG/1.1/DTD/svg11.dtd">
<svg version="1.1" id="Layer_1" xmlns="http://www.w3.org/2000/svg" xmlns:xlink="http://www.w3.org/1999/xlink" x="0px" y="0px"
	 width="538.58px" height="226.77px" viewBox="0 0 538.58 226.77" enable-background="new 0 0 538.58 226.77" xml:space="preserve">
<g>
	<g>
		<path fill="#A87D50" stroke="#231F20" stroke-linecap="round" stroke-linejoin="round" stroke-miterlimit="10" d="M86.283,71.229"
			/>
		<circle fill="#F6C434" cx="61.126" cy="117.65" r="31.591"/>
		<path fill="#F9BF76" d="M61.125,160.004c-23.354,0-42.355-19-42.355-42.354c0-23.355,19.001-42.355,42.355-42.355
			c23.354,0,42.355,19,42.355,42.355C103.481,141.004,84.479,160.004,61.125,160.004z M61.125,82.431
			c-19.42,0-35.22,15.799-35.22,35.22c0,19.42,15.8,35.219,35.22,35.219s35.22-15.799,35.22-35.219
			C96.345,98.23,80.545,82.431,61.125,82.431z"/>
		<circle fill="#D1323E" cx="60.345" cy="93.862" r="2.564"/>
		<circle fill="#D1323E" cx="45.504" cy="99.148" r="3.368"/>
		<circle fill="#D1323E" cx="53.656" cy="108.423" r="3.368"/>
		<circle fill="#D1323E" cx="79.917" cy="129.389" r="3.368"/>
		<circle fill="#D1323E" cx="36.027" cy="115.03" r="4.17"/>
		<circle fill="#D1323E" cx="71.487" cy="136.541" r="2.417"/>
		<circle fill="#D1323E" cx="82.683" cy="117.823" r="2.161"/>
		<circle fill="#D1323E" cx="49.946" cy="123.737" r="2.553"/>
		<circle fill="#D1323E" cx="68.114" cy="110.719" r="3.476"/>
		<circle fill="#D1323E" cx="73.904" cy="97.338" r="3.475"/>
		<circle fill="#D1323E" cx="82.276" cy="107.829" r="2.972"/>
		<circle fill="#D1323E" cx="41.338" cy="130.901" r="3.222"/>
		<circle fill="#D1323E" cx="57.322" cy="141.557" r="4.59"/>
		<circle fill="#D1323E" cx="64.817" cy="125.441" r="4.59"/>
		<path fill="none" stroke="#231F20" stroke-linecap="round" stroke-linejoin="round" stroke-miterlimit="10" d="M64.817,75.457
			c0,0,34.645,4.608,38.664,37.936c2.498,20.719-9.602,35.818-23.564,42.207c-26.26,12.016-46.548-3.901-51.254-10.78"/>
	</g>
	<g>
		<path fill="#A87D50" stroke="#231F20" stroke-linecap="round" stroke-linejoin="round" stroke-miterlimit="10" d="M197.283,71.229
			"/>
		<circle fill="#F6C434" cx="172.126" cy="117.65" r="31.591"/>
		<path fill="#F9BF76" d="M172.125,160.004c-23.354,0-42.355-19-42.355-42.354c0-23.355,19.001-42.355,42.355-42.355
			c23.354,0,42.355,19,42.355,42.355C214.481,141.004,195.479,160.004,172.125,160.004z M172.125,82.431
			c-19.42,0-35.22,15.799-35.22,35.22c0,19.42,15.8,35.219,35.22,35.219s35.22-15.799,35.22-35.219
			C207.345,98.23,191.545,82.431,172.125,82.431z"/>
		<circle fill="#D1323E" cx="171.345" cy="93.862" r="2.564"/>
		<circle fill="#D1323E" cx="156.504" cy="99.148" r="3.368"/>
		<circle fill="#D1323E" cx="164.656" cy="108.423" r="3.368"/>
		<circle fill="#D1323E" cx="190.917" cy="129.389" r="3.368"/>
		<circle fill="#D1323E" cx="147.027" cy="115.03" r="4.17"/>
		<circle fill="#D1323E" cx="182.487" cy="136.541" r="2.417"/>
		<circle fill="#D1323E" cx="193.683" cy="117.823" r="2.161"/>
		<circle fill="#D1323E" cx="160.946" cy="123.737" r="2.553"/>
		<circle fill="#D1323E" cx="179.114" cy="110.719" r="3.476"/>
		<circle fill="#D1323E" cx="184.904" cy="97.338" r="3.475"/>
		<circle fill="#D1323E" cx="193.276" cy="107.829" r="2.972"/>
		<circle fill="#D1323E" cx="152.338" cy="130.901" r="3.222"/>
		<circle fill="#D1323E" cx="168.322" cy="141.557" r="4.59"/>
		<circle fill="#D1323E" cx="175.817" cy="125.441" r="4.59"/>
		<path fill="none" stroke="#231F20" stroke-linecap="round" stroke-linejoin="round" stroke-miterlimit="10" d="M175.817,75.457
			c0,0,34.645,4.608,38.664,37.936c2.498,20.719-9.602,35.818-23.564,42.207c-26.26,12.016-46.548-3.901-51.254-10.78"/>
	</g>
	<g>
		<path fill="#A87D50" stroke="#231F20" stroke-linecap="round" stroke-linejoin="round" stroke-miterlimit="10" d="M290.283,71.229
			"/>
		<circle fill="#F6C434" cx="265.126" cy="117.65" r="31.591"/>
		<path fill="#F9BF76" d="M265.125,160.004c-23.354,0-42.355-19-42.355-42.354c0-23.355,19.001-42.355,42.355-42.355
			c23.353,0,42.355,19,42.355,42.355C307.48,141.004,288.479,160.004,265.125,160.004z M265.125,82.431
			c-19.42,0-35.22,15.799-35.22,35.22c0,19.42,15.8,35.219,35.22,35.219c19.419,0,35.22-15.799,35.22-35.219
			C300.346,98.23,284.545,82.431,265.125,82.431z"/>
		<circle fill="#D1323E" cx="264.345" cy="93.862" r="2.564"/>
		<circle fill="#D1323E" cx="249.504" cy="99.148" r="3.368"/>
		<circle fill="#D1323E" cx="257.656" cy="108.423" r="3.368"/>
		<circle fill="#D1323E" cx="283.917" cy="129.389" r="3.367"/>
		<circle fill="#D1323E" cx="240.027" cy="115.03" r="4.17"/>
		<circle fill="#D1323E" cx="275.486" cy="136.541" r="2.417"/>
		<circle fill="#D1323E" cx="286.683" cy="117.823" r="2.16"/>
		<circle fill="#D1323E" cx="253.946" cy="123.737" r="2.553"/>
		<circle fill="#D1323E" cx="272.114" cy="110.719" r="3.476"/>
		<circle fill="#D1323E" cx="277.904" cy="97.338" r="3.475"/>
		<circle fill="#D1323E" cx="286.276" cy="107.829" r="2.972"/>
		<circle fill="#D1323E" cx="245.338" cy="130.901" r="3.222"/>
		<circle fill="#D1323E" cx="261.322" cy="141.557" r="4.59"/>
		<circle fill="#D1323E" cx="268.817" cy="125.441" r="4.59"/>
		<path fill="none" stroke="#231F20" stroke-linecap="round" stroke-linejoin="round" stroke-miterlimit="10" d="M268.817,75.457
			c0,0,34.644,4.608,38.664,37.936c2.498,20.719-9.602,35.818-23.564,42.207c-26.259,12.016-46.547-3.901-51.253-10.78"/>
	</g>
	<g>
		<path fill="#A87D50" stroke="#231F20" stroke-linecap="round" stroke-linejoin="round" stroke-miterlimit="10" d="M409.283,17.229
			"/>
		<circle fill="#F6C434" cx="384.126" cy="63.65" r="31.591"/>
		<path fill="#F9BF76" d="M384.125,106.004c-23.354,0-42.355-19-42.355-42.354c0-23.355,19.002-42.355,42.355-42.355
			s42.355,19,42.355,42.355C426.48,87.004,407.479,106.004,384.125,106.004z M384.125,28.431c-19.42,0-35.219,15.799-35.219,35.22
			c0,19.419,15.799,35.219,35.219,35.219s35.221-15.799,35.221-35.219C419.346,44.23,403.545,28.431,384.125,28.431z"/>
		<circle fill="#D1323E" cx="383.345" cy="39.862" r="2.563"/>
		<circle fill="#D1323E" cx="368.504" cy="45.148" r="3.368"/>
		<circle fill="#D1323E" cx="376.656" cy="54.423" r="3.368"/>
		<circle fill="#D1323E" cx="402.917" cy="75.389" r="3.367"/>
		<circle fill="#D1323E" cx="359.027" cy="61.031" r="4.17"/>
		<circle fill="#D1323E" cx="394.486" cy="82.541" r="2.417"/>
		<circle fill="#D1323E" cx="405.683" cy="63.823" r="2.16"/>
		<circle fill="#D1323E" cx="372.946" cy="69.738" r="2.553"/>
		<circle fill="#D1323E" cx="391.114" cy="56.719" r="3.476"/>
		<circle fill="#D1323E" cx="396.904" cy="43.338" r="3.475"/>
		<circle fill="#D1323E" cx="405.276" cy="53.829" r="2.972"/>
		<circle fill="#D1323E" cx="364.339" cy="76.901" r="3.222"/>
		<circle fill="#D1323E" cx="380.321" cy="87.557" r="4.59"/>
		<circle fill="#D1323E" cx="387.817" cy="71.442" r="4.59"/>
		<path fill="none" stroke="#231F20" stroke-linecap="round" stroke-linejoin="round" stroke-miterlimit="10" d="M387.816,21.457
			c0,0,34.645,4.608,38.664,37.936c2.498,20.719-9.602,35.819-23.564,42.208c-26.26,12.015-46.547-3.902-51.254-10.781"/>
	</g>
	<g>
		<path fill="#A87D50" stroke="#231F20" stroke-linecap="round" stroke-linejoin="round" stroke-miterlimit="10" d="M502.283,17.229
			"/>
		<circle fill="#F6C434" cx="477.126" cy="63.65" r="31.591"/>
		<path fill="#F9BF76" d="M477.125,106.004c-23.354,0-42.355-19-42.355-42.354c0-23.355,19.002-42.355,42.355-42.355
			s42.355,19,42.355,42.355C519.48,87.004,500.479,106.004,477.125,106.004z M477.125,28.431c-19.42,0-35.219,15.799-35.219,35.22
			c0,19.419,15.799,35.219,35.219,35.219s35.221-15.799,35.221-35.219C512.346,44.23,496.545,28.431,477.125,28.431z"/>
		<circle fill="#D1323E" cx="476.345" cy="39.862" r="2.563"/>
		<circle fill="#D1323E" cx="461.504" cy="45.148" r="3.368"/>
		<circle fill="#D1323E" cx="469.656" cy="54.423" r="3.368"/>
		<circle fill="#D1323E" cx="495.917" cy="75.389" r="3.367"/>
		<circle fill="#D1323E" cx="452.027" cy="61.031" r="4.17"/>
		<circle fill="#D1323E" cx="487.486" cy="82.541" r="2.417"/>
		<circle fill="#D1323E" cx="498.683" cy="63.823" r="2.16"/>
		<circle fill="#D1323E" cx="465.946" cy="69.738" r="2.553"/>
		<circle fill="#D1323E" cx="484.114" cy="56.719" r="3.476"/>
		<circle fill="#D1323E" cx="489.904" cy="43.338" r="3.475"/>
		<circle fill="#D1323E" cx="498.276" cy="53.829" r="2.972"/>
		<circle fill="#D1323E" cx="457.339" cy="76.901" r="3.222"/>
		<circle fill="#D1323E" cx="473.321" cy="87.557" r="4.59"/>
		<circle fill="#D1323E" cx="480.817" cy="71.442" r="4.59"/>
		<path fill="none" stroke="#231F20" stroke-linecap="round" stroke-linejoin="round" stroke-miterlimit="10" d="M480.816,21.457
			c0,0,34.645,4.608,38.664,37.936c2.498,20.719-9.602,35.819-23.564,42.208c-26.26,12.015-46.547-3.902-51.254-10.781"/>
	</g>
	<g>
		<path fill="#A87D50" stroke="#231F20" stroke-linecap="round" stroke-linejoin="round" stroke-miterlimit="10" d="
			M409.283,111.229"/>
		<circle fill="#F6C434" cx="384.126" cy="157.65" r="31.591"/>
		<path fill="#F9BF76" d="M384.125,200.004c-23.354,0-42.355-19-42.355-42.354c0-23.355,19.002-42.355,42.355-42.355
			s42.355,19,42.355,42.355C426.48,181.004,407.479,200.004,384.125,200.004z M384.125,122.431c-19.42,0-35.219,15.8-35.219,35.22
			s15.799,35.219,35.219,35.219s35.221-15.799,35.221-35.219S403.545,122.431,384.125,122.431z"/>
		<circle fill="#D1323E" cx="383.345" cy="133.862" r="2.563"/>
		<circle fill="#D1323E" cx="368.504" cy="139.148" r="3.368"/>
		<circle fill="#D1323E" cx="376.656" cy="148.423" r="3.368"/>
		<circle fill="#D1323E" cx="402.917" cy="169.389" r="3.367"/>
		<circle fill="#D1323E" cx="359.027" cy="155.03" r="4.17"/>
		<circle fill="#D1323E" cx="394.486" cy="176.541" r="2.417"/>
		<circle fill="#D1323E" cx="405.683" cy="157.823" r="2.16"/>
		<circle fill="#D1323E" cx="372.946" cy="163.737" r="2.553"/>
		<circle fill="#D1323E" cx="391.114" cy="150.719" r="3.476"/>
		<circle fill="#D1323E" cx="396.904" cy="137.338" r="3.475"/>
		<circle fill="#D1323E" cx="405.276" cy="147.829" r="2.972"/>
		<circle fill="#D1323E" cx="364.339" cy="170.901" r="3.222"/>
		<circle fill="#D1323E" cx="380.321" cy="181.557" r="4.59"/>
		<circle fill="#D1323E" cx="387.817" cy="165.441" r="4.59"/>
		<path fill="none" stroke="#231F20" stroke-linecap="round" stroke-linejoin="round" stroke-miterlimit="10" d="M387.816,115.457
			c0,0,34.645,4.607,38.664,37.936c2.498,20.719-9.602,35.818-23.564,42.207c-26.26,12.016-46.547-3.901-51.254-10.78"/>
	</g>
	<g>
		<path fill="#A87D50" stroke="#231F20" stroke-linecap="round" stroke-linejoin="round" stroke-miterlimit="10" d="
			M502.283,111.229"/>
		<circle fill="#F6C434" cx="477.126" cy="157.65" r="31.591"/>
		<path fill="#F9BF76" d="M477.125,200.004c-23.354,0-42.355-19-42.355-42.354c0-23.355,19.002-42.355,42.355-42.355
			s42.355,19,42.355,42.355C519.48,181.004,500.479,200.004,477.125,200.004z M477.125,122.431c-19.42,0-35.219,15.8-35.219,35.22
			s15.799,35.219,35.219,35.219s35.221-15.799,35.221-35.219S496.545,122.431,477.125,122.431z"/>
		<circle fill="#D1323E" cx="476.345" cy="133.862" r="2.563"/>
		<circle fill="#D1323E" cx="461.504" cy="139.148" r="3.368"/>
		<circle fill="#D1323E" cx="469.656" cy="148.423" r="3.368"/>
		<circle fill="#D1323E" cx="495.917" cy="169.389" r="3.367"/>
		<circle fill="#D1323E" cx="452.027" cy="155.03" r="4.17"/>
		<circle fill="#D1323E" cx="487.486" cy="176.541" r="2.417"/>
		<circle fill="#D1323E" cx="498.683" cy="157.823" r="2.16"/>
		<circle fill="#D1323E" cx="465.946" cy="163.737" r="2.553"/>
		<circle fill="#D1323E" cx="484.114" cy="150.719" r="3.476"/>
		<circle fill="#D1323E" cx="489.904" cy="137.338" r="3.475"/>
		<circle fill="#D1323E" cx="498.276" cy="147.829" r="2.972"/>
		<circle fill="#D1323E" cx="457.339" cy="170.901" r="3.222"/>
		<circle fill="#D1323E" cx="473.321" cy="181.557" r="4.59"/>
		<circle fill="#D1323E" cx="480.817" cy="165.441" r="4.59"/>
		<path fill="none" stroke="#231F20" stroke-linecap="round" stroke-linejoin="round" stroke-miterlimit="10" d="M480.816,115.457
			c0,0,34.645,4.607,38.664,37.936c2.498,20.719-9.602,35.818-23.564,42.207c-26.26,12.016-46.547-3.901-51.254-10.78"/>
	</g>
</g>
</svg>
