<?xml version="1.0" encoding="utf-8"?>
<!-- Generator: Adobe Illustrator 16.0.0, SVG Export Plug-In . SVG Version: 6.00 Build 0)  -->
<!DOCTYPE svg PUBLIC "-//W3C//DTD SVG 1.1//EN" "http://www.w3.org/Graphics/SVG/1.1/DTD/svg11.dtd">
<svg version="1.1" id="Layer_1" xmlns="http://www.w3.org/2000/svg" xmlns:xlink="http://www.w3.org/1999/xlink" x="0px" y="0px"
	 width="311.811px" height="240.945px" viewBox="0 0 311.811 240.945" enable-background="new 0 0 311.811 240.945"
	 xml:space="preserve">
<g>
	<g>
		<path fill="#9A8479" stroke="#231F20" stroke-linecap="round" stroke-linejoin="round" stroke-miterlimit="10" d="
			M292.906,133.573c0,4.362-3.537,7.899-7.899,7.899h-0.201c-4.362,0-7.899-3.537-7.899-7.899v-11.201
			c0-4.363,3.537-7.899,7.899-7.899h0.201c4.362,0,7.899,3.537,7.899,7.899V133.573z"/>
		<path fill="#9A8479" stroke="#231F20" stroke-linecap="round" stroke-linejoin="round" stroke-miterlimit="10" d="M37.906,218.573
			c0,4.362-3.537,7.899-7.899,7.899h-0.201c-4.363,0-7.899-3.537-7.899-7.899v-11.201c0-4.362,3.537-7.899,7.899-7.899h0.201
			c4.363,0,7.899,3.537,7.899,7.899V218.573z"/>
		<path fill="#9A8479" stroke="#231F20" stroke-linecap="round" stroke-linejoin="round" stroke-miterlimit="10" d="
			M224.906,218.573c0,4.362-3.537,7.899-7.899,7.899h-0.201c-4.362,0-7.899-3.537-7.899-7.899v-11.201
			c0-4.362,3.537-7.899,7.899-7.899h0.201c4.362,0,7.899,3.537,7.899,7.899V218.573z"/>
		
			<rect x="14.868" y="194.737" fill="#9A8479" stroke="#231F20" stroke-width="1.5" stroke-linecap="round" stroke-linejoin="round" stroke-miterlimit="10" width="213.537" height="8.474"/>
		
			<polygon fill="#9A8479" stroke="#231F20" stroke-width="1.5" stroke-linecap="round" stroke-linejoin="round" stroke-miterlimit="10" points="
			228.406,203.211 296.034,115.382 296.034,105.763 228.406,194.737 		"/>
		
			<polygon fill="#CCC0AB" stroke="#231F20" stroke-width="1.5" stroke-linecap="round" stroke-linejoin="round" stroke-miterlimit="10" points="
			296.943,105.763 86.894,105.763 14.868,194.737 228.406,194.737 		"/>
	</g>
	<path fill="none" stroke="#231F20" stroke-miterlimit="10" d="M196.12,168.758"/>
	<g>
		
			<polygon opacity="0.7" fill="#FFFFFF" stroke="#231F20" stroke-width="1.5" stroke-linecap="round" stroke-linejoin="round" stroke-miterlimit="10" points="
			117.161,14.826 61.752,57.901 61.931,58.083 61.931,194.469 196.663,194.469 196.663,194.353 196.793,194.484 238.185,140.984 
			238.185,14.826 		"/>
		
			<polygon fill="none" stroke="#231F20" stroke-width="1.5" stroke-linecap="round" stroke-linejoin="round" stroke-miterlimit="10" points="
			116.161,14.826 60.752,57.901 60.931,58.083 60.931,194.469 195.663,194.469 195.663,194.353 195.793,194.484 237.185,140.984 
			237.185,14.826 		"/>
		
			<line fill="none" stroke="#231F20" stroke-width="1.5" stroke-linecap="round" stroke-linejoin="round" stroke-miterlimit="10" x1="196.12" y1="58.449" x2="237.685" y2="15.05"/>
		
			<rect x="61.083" y="58.042" fill="none" stroke="#231F20" stroke-width="1.5" stroke-linecap="round" stroke-linejoin="round" stroke-miterlimit="10" width="134.732" height="136.427"/>
	</g>
	<rect x="79.906" y="47.472" fill="#FFFFFF" stroke="#BCBEC0" stroke-miterlimit="10" width="48" height="157"/>
	
		<line fill="none" stroke="#231F20" stroke-width="2" stroke-linecap="round" stroke-linejoin="round" stroke-miterlimit="10" x1="95.294" y1="57.967" x2="95.294" y2="192.914"/>
	
		<line fill="none" stroke="#231F20" stroke-width="2" stroke-linecap="round" stroke-linejoin="round" stroke-miterlimit="10" x1="89.406" y1="57.972" x2="101.406" y2="57.972"/>
	
		<line fill="none" stroke="#231F20" stroke-width="2" stroke-linecap="round" stroke-linejoin="round" stroke-miterlimit="10" x1="89.406" y1="91.972" x2="101.406" y2="91.972"/>
	
		<line fill="none" stroke="#231F20" stroke-width="2" stroke-linecap="round" stroke-linejoin="round" stroke-miterlimit="10" x1="89.406" y1="193.972" x2="101.406" y2="193.972"/>
	<g>
		<path fill="#231F20" d="M118.569,63.634h-1.646v-6.205c-0.602,0.563-1.311,0.979-2.127,1.248v-1.494
			c0.43-0.141,0.896-0.407,1.4-0.8s0.85-0.851,1.037-1.374h1.336V63.634z"/>
	</g>
	<g>
		<path fill="#231F20" d="M117.139,188.008c0.832,0,1.482,0.297,1.951,0.891c0.559,0.703,0.838,1.869,0.838,3.498
			c0,1.625-0.281,2.793-0.844,3.504c-0.465,0.586-1.113,0.879-1.945,0.879c-0.836,0-1.51-0.32-2.021-0.963s-0.768-1.789-0.768-3.438
			c0-1.617,0.281-2.781,0.844-3.492C115.658,188.301,116.307,188.008,117.139,188.008z M117.139,189.373
			c-0.199,0-0.377,0.064-0.533,0.191s-0.277,0.354-0.363,0.682c-0.113,0.426-0.17,1.143-0.17,2.15s0.051,1.701,0.152,2.078
			s0.229,0.627,0.384,0.752s0.331,0.188,0.53,0.188s0.377-0.063,0.533-0.189s0.277-0.355,0.363-0.684
			c0.113-0.422,0.17-1.137,0.17-2.145s-0.051-1.699-0.152-2.076s-0.229-0.629-0.384-0.756S117.338,189.373,117.139,189.373z"/>
	</g>
	<g>
		<path fill="#231F20" d="M118.743,87.483h-1.646v-6.205c-0.602,0.563-1.311,0.979-2.127,1.248v-1.494
			c0.43-0.141,0.896-0.407,1.4-0.8s0.85-0.851,1.037-1.374h1.336V87.483z"/>
		<path fill="#231F20" d="M120.091,104.178v1.529h-5.771c0.063-0.578,0.25-1.126,0.563-1.644s0.93-1.204,1.852-2.06
			c0.742-0.691,1.197-1.16,1.365-1.406c0.227-0.34,0.34-0.676,0.34-1.008c0-0.367-0.099-0.649-0.296-0.847s-0.47-0.296-0.817-0.296
			c-0.344,0-0.617,0.104-0.82,0.311s-0.32,0.551-0.352,1.031l-1.641-0.164c0.098-0.906,0.404-1.557,0.92-1.951
			s1.16-0.592,1.934-0.592c0.848,0,1.514,0.229,1.998,0.686s0.727,1.025,0.727,1.705c0,0.387-0.069,0.755-0.208,1.104
			s-0.358,0.716-0.659,1.099c-0.199,0.254-0.559,0.619-1.078,1.096s-0.849,0.793-0.987,0.949s-0.251,0.309-0.337,0.457H120.091z"/>
	</g>
	<line fill="none" stroke="#231F20" stroke-miterlimit="10" x1="107.818" y1="92.211" x2="126.957" y2="91.779"/>
</g>
</svg>
