<?xml version="1.0" encoding="utf-8"?>
<!-- Generator: Adobe Illustrator 16.0.0, SVG Export Plug-In . SVG Version: 6.00 Build 0)  -->
<!DOCTYPE svg PUBLIC "-//W3C//DTD SVG 1.1//EN" "http://www.w3.org/Graphics/SVG/1.1/DTD/svg11.dtd">
<svg version="1.1" id="Layer_1" xmlns="http://www.w3.org/2000/svg" xmlns:xlink="http://www.w3.org/1999/xlink" x="0px" y="0px"
	 width="226.77px" height="170.08px" viewBox="0 0 226.77 170.08" enable-background="new 0 0 226.77 170.08" xml:space="preserve">
<g>
	<path fill="#736759" stroke="#5A4B43" stroke-width="1.3" stroke-miterlimit="10" d="M206.888,79.195
		c5.217,36.184-33.197,71.667-85.803,79.251c-52.6,7.584-99.475-15.602-104.691-51.786c-1.508-10.454,0.627-20.849,5.693-30.529
		c12.467-23.83,42.699-43.331,80.107-48.723C154.796,19.823,201.671,43.009,206.888,79.195z"/>
	<path fill="#F9BF76" stroke="#F9A149" stroke-miterlimit="10" d="M187.788,79.904l0.02-0.012l-0.049-0.263
		c-0.031-0.253-0.045-0.506-0.082-0.759c-0.174-1.215-0.43-2.404-0.723-3.58l-4.908-26.714L32.081,74.3l3.816,22.755l1.559,9.298
		c3.643,22.873,40.727,41.216,82.34,35.216C160.911,135.641,191.046,108.17,187.788,79.904z"/>
	<path fill="#FFFFFF" stroke="#F9A149" stroke-miterlimit="10" d="M34.896,95.008c-0.266,3.186,2.252,9.499,4.867,11.793
		c6.344,5.566,7.285-1.12,8.594,1.682c1.307,2.803,1.682,4.11,5.23,8.967c3.549,4.857,7.473,7.1,12.516,6.539
		s4.857-5.791,8.406-1.494c3.549,4.296,5.209,7.763,10.912,8.277c7.164,0.646,9.824-2.113,12.439-4.168s2.02-4.18,5.604-0.561
		c3.359,3.393,8.021,5.039,15.693,4.238c6.213-0.647,9.152-4.238,11.395-6.854s2.99-2.802,6.912-1.682
		c3.924,1.121,9.979,0.582,13.451-2.055c5.248-3.986,4.912-6.725,6.006-8.967c1.092-2.242,1.363-3.995,5.762-2.429
		c6.68,2.378,13.637-5.165,12.703-9.495c-0.934-4.329,0.002-8.065,2.242-8.813c2.242-0.747,6.166-1.308,7.66-6.165
		s1.152-11.333,1.152-11.333l-3.389-18.44L49.378,80.5l-16.498,2C32.88,82.5,35.153,91.889,34.896,95.008z"/>
	<path fill="#FFFFFF" stroke="#F9A149" stroke-width="1.5" stroke-miterlimit="10" d="M182.677,51.87
		c4.127,28.627-26.264,56.699-67.881,62.699c-41.613,6-78.697-12.343-82.826-40.97c-1.191-8.27,0.496-16.494,4.504-24.152
		c9.865-18.853,33.783-34.28,63.377-38.547C141.466,4.899,178.55,23.242,182.677,51.87z"/>
	<polyline fill="none" stroke="#F9A149" stroke-width="1.5" stroke-miterlimit="10" points="93.864,11.93 122.378,112.412 
		125.431,140.609 	"/>
	
		<line fill="#FFFFFF" stroke="#F9A149" stroke-width="1.5" stroke-miterlimit="10" x1="32.88" y1="76.427" x2="180.362" y2="42.912"/>
	<polyline fill="none" stroke="#F9A149" stroke-width="1.5" stroke-miterlimit="10" points="158.312,19.971 158.019,20.199 
		52.261,103.023 52.261,127.801 	"/>
	<polyline fill="none" stroke="#F9A149" stroke-width="1.5" stroke-miterlimit="10" points="127.442,10.445 85.421,114.799 
		85.821,141.195 	"/>
	<polyline fill="none" stroke="#F9A149" stroke-width="1.5" stroke-miterlimit="10" points="37.147,49.211 180.626,70.503 
		185.583,97.529 	"/>
	<polyline fill="none" stroke="#F9A149" stroke-width="1.5" stroke-miterlimit="10" points="62.358,23.741 156.921,98.801 
		162.062,125.691 	"/>
	<g>
		
			<ellipse fill="#EC2227" stroke="#231F20" stroke-width="0.75" stroke-miterlimit="10" cx="108.463" cy="59.544" rx="5.831" ry="5.321"/>
		
			<path fill="#EC2227" stroke="#231F20" stroke-width="0.75" stroke-linecap="round" stroke-linejoin="round" stroke-miterlimit="10" d="
			M107.284,56.329c2.154,1.708,3.268,0.669,3.268,0.669"/>
		
			<path fill="none" stroke="#231F20" stroke-width="0.75" stroke-linecap="round" stroke-linejoin="round" stroke-miterlimit="10" d="
			M111.991,51.034c0,0-3.529,3.189-2.826,5.614"/>
	</g>
	<ellipse fill="#A97D51" stroke="#A97D51" stroke-miterlimit="10" cx="50.548" cy="84.98" rx="4.004" ry="3.337"/>
	<ellipse fill="#A97D51" stroke="#A97D51" stroke-miterlimit="10" cx="75.548" cy="100.98" rx="4.004" ry="3.337"/>
	<ellipse fill="#A97D51" stroke="#A97D51" stroke-miterlimit="10" cx="105.548" cy="103.98" rx="4.004" ry="3.337"/>
	<ellipse fill="#A97D51" stroke="#A97D51" stroke-miterlimit="10" cx="134.548" cy="97.98" rx="4.004" ry="3.337"/>
	<ellipse fill="#A97D51" stroke="#A97D51" stroke-miterlimit="10" cx="158.548" cy="81.98" rx="4.004" ry="3.337"/>
	<ellipse fill="#A97D51" stroke="#A97D51" stroke-miterlimit="10" cx="170.548" cy="55.98" rx="4.004" ry="3.337"/>
	<ellipse fill="#A97D51" stroke="#A97D51" stroke-miterlimit="10" cx="158.548" cy="34.98" rx="4.004" ry="3.337"/>
	<ellipse fill="#A97D51" stroke="#A97D51" stroke-miterlimit="10" cx="134.548" cy="21.98" rx="4.004" ry="3.337"/>
	<ellipse fill="#A97D51" stroke="#A97D51" stroke-miterlimit="10" cx="110.548" cy="18.98" rx="4.004" ry="3.337"/>
	<ellipse fill="#A97D51" stroke="#A97D51" stroke-miterlimit="10" cx="83.548" cy="24.98" rx="4.004" ry="3.337"/>
	<ellipse fill="#A97D51" stroke="#A97D51" stroke-miterlimit="10" cx="58.548" cy="37.98" rx="4.004" ry="3.337"/>
	<ellipse fill="#A97D51" stroke="#A97D51" stroke-miterlimit="10" cx="46.548" cy="60.98" rx="4.004" ry="3.337"/>
</g>
</svg>
