<?xml version="1.0" encoding="utf-8"?>
<!-- Generator: Adobe Illustrator 16.0.0, SVG Export Plug-In . SVG Version: 6.00 Build 0)  -->
<!DOCTYPE svg PUBLIC "-//W3C//DTD SVG 1.1//EN" "http://www.w3.org/Graphics/SVG/1.1/DTD/svg11.dtd">
<svg version="1.1" id="Layer_1" xmlns="http://www.w3.org/2000/svg" xmlns:xlink="http://www.w3.org/1999/xlink" x="0px" y="0px"
	 width="538.58px" height="85.04px" viewBox="0 0 538.58 85.04" enable-background="new 0 0 538.58 85.04" xml:space="preserve">
<polygon fill="#00A651" points="231,37.065 237.738,43.965 234.629,49 239.879,49 243.503,45.434 246.663,44.948 249.287,46.539 
	248.879,49 251.879,49 257.279,47.784 259.524,44.559 260.625,41.787 263,38.222 263,33 263,31 265.687,29.713 267.115,27.489 
	266.533,24.283 263.607,22.177 260.281,22.743 258.82,26.066 257.612,28.646 259.143,32.63 259.386,36.098 251.202,37.558 
	237.541,37.33 231,36.438 "/>
<line fill="none" stroke="#231F20" stroke-width="1.5" stroke-linecap="round" stroke-linejoin="round" stroke-miterlimit="10" x1="78.879" y1="63" x2="78.879" y2="54"/>
<line fill="none" stroke="#231F20" stroke-width="1.5" stroke-linecap="round" stroke-linejoin="round" stroke-miterlimit="10" x1="40.879" y1="63" x2="40.879" y2="54"/>
<line fill="none" stroke="#231F20" stroke-width="1.5" stroke-linecap="round" stroke-linejoin="round" stroke-miterlimit="10" x1="97.879" y1="63" x2="97.879" y2="54"/>
<line fill="none" stroke="#231F20" stroke-width="1.5" stroke-linecap="round" stroke-linejoin="round" stroke-miterlimit="10" x1="59.879" y1="63" x2="59.879" y2="54"/>
<line fill="none" stroke="#231F20" stroke-width="1.5" stroke-linecap="round" stroke-linejoin="round" stroke-miterlimit="10" x1="134.879" y1="63" x2="134.879" y2="54"/>
<line fill="none" stroke="#231F20" stroke-width="1.5" stroke-linecap="round" stroke-linejoin="round" stroke-miterlimit="10" x1="115.879" y1="63" x2="115.879" y2="54"/>
<line fill="none" stroke="#231F20" stroke-width="1.5" stroke-linecap="round" stroke-linejoin="round" stroke-miterlimit="10" x1="191.879" y1="63" x2="191.879" y2="54"/>
<line fill="none" stroke="#231F20" stroke-width="1.5" stroke-linecap="round" stroke-linejoin="round" stroke-miterlimit="10" x1="153.879" y1="63" x2="153.879" y2="54"/>
<line fill="none" stroke="#231F20" stroke-width="1.5" stroke-linecap="round" stroke-linejoin="round" stroke-miterlimit="10" x1="172.879" y1="63" x2="172.879" y2="54"/>
<line fill="none" stroke="#231F20" stroke-width="1.5" stroke-linecap="round" stroke-linejoin="round" stroke-miterlimit="10" x1="248.879" y1="63" x2="248.879" y2="54"/>
<line fill="none" stroke="#231F20" stroke-width="1.5" stroke-linecap="round" stroke-linejoin="round" stroke-miterlimit="10" x1="210.879" y1="63" x2="210.879" y2="54"/>
<line fill="none" stroke="#231F20" stroke-width="1.5" stroke-linecap="round" stroke-linejoin="round" stroke-miterlimit="10" x1="266.879" y1="63" x2="266.879" y2="54"/>
<line fill="none" stroke="#231F20" stroke-width="1.5" stroke-linecap="round" stroke-linejoin="round" stroke-miterlimit="10" x1="229.879" y1="63" x2="229.879" y2="54"/>
<line fill="none" stroke="#231F20" stroke-width="1.5" stroke-linecap="round" stroke-linejoin="round" stroke-miterlimit="10" x1="342.879" y1="63" x2="342.879" y2="54"/>
<line fill="none" stroke="#231F20" stroke-width="1.5" stroke-linecap="round" stroke-linejoin="round" stroke-miterlimit="10" x1="304.879" y1="63" x2="304.879" y2="54"/>
<line fill="none" stroke="#231F20" stroke-width="1.5" stroke-linecap="round" stroke-linejoin="round" stroke-miterlimit="10" x1="455.879" y1="63" x2="455.879" y2="54"/>
<line fill="none" stroke="#231F20" stroke-width="1.5" stroke-linecap="round" stroke-linejoin="round" stroke-miterlimit="10" x1="380.879" y1="63" x2="380.879" y2="54"/>
<line fill="none" stroke="#231F20" stroke-width="1.5" stroke-linecap="round" stroke-linejoin="round" stroke-miterlimit="10" x1="417.879" y1="63" x2="417.879" y2="54"/>
<g>
	<path fill="#231F20" d="M20.08,39v-7.158h2.32c0.879,0,1.451,0.036,1.719,0.107c0.41,0.107,0.754,0.341,1.029,0.701
		c0.277,0.359,0.416,0.824,0.416,1.394c0,0.439-0.08,0.809-0.24,1.108c-0.158,0.3-0.361,0.535-0.607,0.705
		c-0.246,0.172-0.496,0.284-0.75,0.34c-0.344,0.068-0.844,0.103-1.498,0.103h-0.943V39H20.08z M21.525,33.053v2.031h0.791
		c0.57,0,0.951-0.037,1.143-0.112c0.193-0.075,0.344-0.192,0.453-0.352c0.107-0.159,0.162-0.345,0.162-0.557
		c0-0.261-0.076-0.476-0.229-0.645c-0.154-0.169-0.348-0.275-0.582-0.317c-0.172-0.032-0.52-0.049-1.039-0.049H21.525z"/>
	<path fill="#231F20" d="M32.463,39h-1.572l-0.625-1.626h-2.861L26.814,39h-1.533l2.787-7.158h1.529L32.463,39z M29.803,36.168
		l-0.986-2.656l-0.967,2.656H29.803z"/>
	<path fill="#231F20" d="M33.234,39v-7.158h3.043c0.764,0,1.32,0.064,1.668,0.193c0.346,0.128,0.623,0.356,0.832,0.686
		c0.207,0.329,0.313,0.705,0.313,1.128c0,0.537-0.158,0.98-0.475,1.331c-0.314,0.35-0.787,0.57-1.416,0.661
		c0.313,0.183,0.57,0.383,0.775,0.601c0.203,0.218,0.477,0.605,0.822,1.162L39.67,39h-1.729l-1.045-1.558
		c-0.371-0.557-0.625-0.907-0.762-1.052c-0.137-0.146-0.281-0.244-0.434-0.299c-0.154-0.053-0.396-0.08-0.729-0.08H34.68V39H33.234z
		 M34.68,34.869h1.07c0.693,0,1.125-0.029,1.299-0.088c0.172-0.059,0.307-0.159,0.404-0.303s0.146-0.322,0.146-0.537
		c0-0.241-0.064-0.436-0.191-0.584c-0.129-0.147-0.311-0.241-0.545-0.28c-0.117-0.017-0.469-0.024-1.055-0.024H34.68V34.869z"/>
	<path fill="#231F20" d="M42.063,39v-5.947h-2.123v-1.211h5.688v1.211h-2.119V39H42.063z"/>
	<path fill="#231F20" d="M46.516,39v-7.158h1.445V39H46.516z"/>
	<path fill="#231F20" d="M49.334,31.842h2.641c0.596,0,1.051,0.046,1.363,0.137c0.42,0.124,0.779,0.344,1.078,0.659
		c0.301,0.315,0.527,0.702,0.684,1.159c0.156,0.458,0.234,1.021,0.234,1.692c0,0.589-0.072,1.097-0.219,1.523
		c-0.18,0.521-0.436,0.942-0.768,1.265c-0.25,0.244-0.588,0.435-1.016,0.571C53.014,38.949,52.588,39,52.053,39h-2.719V31.842z
		 M50.779,33.053v4.741h1.078c0.404,0,0.695-0.022,0.875-0.068c0.234-0.059,0.428-0.158,0.584-0.298
		c0.154-0.14,0.279-0.37,0.377-0.691c0.098-0.32,0.146-0.757,0.146-1.311s-0.049-0.979-0.146-1.274s-0.234-0.527-0.41-0.693
		s-0.398-0.278-0.668-0.337c-0.203-0.046-0.598-0.068-1.188-0.068H50.779z"/>
	<path fill="#231F20" d="M63.016,39h-1.572l-0.625-1.626h-2.861L57.365,39h-1.533l2.789-7.158h1.527L63.016,39z M60.354,36.168
		l-0.986-2.656L58.4,36.168H60.354z"/>
</g>
<line fill="none" stroke="#231F20" stroke-width="1.5" stroke-miterlimit="10" x1="40.879" y1="63" x2="493.879" y2="63"/>
<line fill="none" stroke="#231F20" stroke-width="1.5" stroke-linecap="round" stroke-linejoin="round" stroke-miterlimit="10" x1="361.879" y1="63" x2="361.879" y2="54"/>
<line fill="none" stroke="#231F20" stroke-width="1.5" stroke-linecap="round" stroke-linejoin="round" stroke-miterlimit="10" x1="285.879" y1="63" x2="285.879" y2="54"/>
<line fill="none" stroke="#231F20" stroke-width="1.5" stroke-linecap="round" stroke-linejoin="round" stroke-miterlimit="10" x1="399.879" y1="63" x2="399.879" y2="54"/>
<line fill="none" stroke="#231F20" stroke-width="1.5" stroke-linecap="round" stroke-linejoin="round" stroke-miterlimit="10" x1="323.879" y1="63" x2="323.879" y2="54"/>
<line fill="none" stroke="#231F20" stroke-width="1.5" stroke-linecap="round" stroke-linejoin="round" stroke-miterlimit="10" x1="474.879" y1="63" x2="474.879" y2="54"/>
<line fill="none" stroke="#231F20" stroke-width="1.5" stroke-linecap="round" stroke-linejoin="round" stroke-miterlimit="10" x1="436.879" y1="63" x2="436.879" y2="54"/>
<line fill="none" stroke="#231F20" stroke-width="1.5" stroke-linecap="round" stroke-linejoin="round" stroke-miterlimit="10" x1="493.879" y1="63" x2="493.879" y2="54"/>
<rect x="14.5" y="25.5" fill="none" stroke="#231F20" stroke-miterlimit="10" width="53" height="21"/>
<g>
	<path fill="#231F20" d="M474.831,36.368l1.401,0.444c-0.215,0.781-0.572,1.361-1.072,1.74c-0.499,0.38-1.133,0.569-1.901,0.569
		c-0.95,0-1.731-0.325-2.344-0.974c-0.612-0.65-0.918-1.538-0.918-2.664c0-1.191,0.308-2.117,0.923-2.775
		c0.615-0.66,1.424-0.989,2.427-0.989c0.876,0,1.587,0.259,2.134,0.776c0.325,0.306,0.569,0.745,0.732,1.318l-1.431,0.342
		c-0.085-0.371-0.261-0.664-0.53-0.879c-0.268-0.215-0.595-0.322-0.979-0.322c-0.53,0-0.961,0.19-1.291,0.571
		c-0.331,0.381-0.496,0.998-0.496,1.851c0,0.905,0.163,1.55,0.488,1.934s0.749,0.576,1.27,0.576c0.384,0,0.715-0.122,0.991-0.366
		S474.711,36.893,474.831,36.368z"/>
	<path fill="#231F20" d="M477.478,39v-7.158h1.445v2.817h2.832v-2.817h1.445V39h-1.445v-3.13h-2.832V39H477.478z"/>
	<path fill="#231F20" d="M484.694,39v-7.158h5.308v1.211h-3.862v1.587h3.594v1.206h-3.594v1.948h3.999V39H484.694z"/>
	<path fill="#231F20" d="M494.694,36.368v-1.206h3.115v2.852c-0.303,0.293-0.741,0.551-1.315,0.773
		c-0.575,0.224-1.157,0.335-1.746,0.335c-0.749,0-1.401-0.157-1.958-0.472c-0.557-0.313-0.975-0.763-1.255-1.348
		c-0.28-0.584-0.42-1.22-0.42-1.906c0-0.745,0.156-1.408,0.469-1.987s0.77-1.023,1.372-1.333c0.459-0.237,1.03-0.356,1.714-0.356
		c0.889,0,1.583,0.187,2.082,0.56c0.5,0.372,0.821,0.888,0.965,1.545l-1.436,0.269c-0.101-0.352-0.291-0.629-0.568-0.833
		c-0.279-0.203-0.626-0.305-1.043-0.305c-0.632,0-1.134,0.2-1.506,0.601c-0.373,0.4-0.56,0.994-0.56,1.782
		c0,0.85,0.188,1.486,0.566,1.912c0.378,0.424,0.872,0.637,1.484,0.637c0.303,0,0.606-0.06,0.911-0.178
		c0.304-0.119,0.565-0.264,0.783-0.433v-0.908H494.694z"/>
	<path fill="#231F20" d="M505.598,39h-1.572l-0.625-1.626h-2.861L499.948,39h-1.533l2.788-7.158h1.528L505.598,39z M502.937,36.168
		l-0.986-2.656l-0.967,2.656H502.937z"/>
	<path fill="#231F20" d="M506.359,31.842h2.642c0.596,0,1.05,0.046,1.362,0.137c0.42,0.124,0.779,0.344,1.079,0.659
		s0.527,0.702,0.684,1.159c0.156,0.458,0.234,1.021,0.234,1.692c0,0.589-0.073,1.097-0.22,1.523
		c-0.179,0.521-0.435,0.942-0.767,1.265c-0.251,0.244-0.589,0.435-1.016,0.571c-0.319,0.101-0.745,0.151-1.279,0.151h-2.72V31.842z
		 M507.805,33.053v4.741h1.079c0.403,0,0.695-0.022,0.874-0.068c0.234-0.059,0.429-0.158,0.584-0.298
		c0.154-0.14,0.28-0.37,0.378-0.691c0.098-0.32,0.146-0.757,0.146-1.311s-0.049-0.979-0.146-1.274s-0.234-0.527-0.41-0.693
		s-0.398-0.278-0.669-0.337c-0.202-0.046-0.598-0.068-1.187-0.068H507.805z"/>
	<path fill="#231F20" d="M520.041,39h-1.572l-0.625-1.626h-2.861L514.392,39h-1.533l2.788-7.158h1.528L520.041,39z M517.38,36.168
		l-0.986-2.656l-0.967,2.656H517.38z"/>
</g>
<rect x="463.5" y="25.5" fill="none" stroke="#231F20" stroke-miterlimit="10" width="62" height="21"/>
<polygon fill="#A97C50" points="259.953,36.598 256.813,28.948 249.61,25.604 243.73,25.064 238.471,26.66 234.018,29.969 
	232.804,33.69 230.878,36.007 237.02,38 247.879,38 "/>
<g>
	<g>
		<path stroke="#F1F2F2" stroke-width="0.25" stroke-miterlimit="10" d="M261.121,26.132v-1.593h1.554v1.593H261.121z
			 M250.719,44.45c-0.718,1.033-1.371,2.097-1.842,2.992c-0.76,1.448-0.754,1.886-0.689,2.182l0.089,0.403l0.38,0.159
			c0.549,0.231,1.241,0.347,2.035,0.347c0.998,0,2.153-0.182,3.381-0.54c2.218-0.648,4.263-1.773,5.607-3.086
			c1.618-1.578,2.22-3.414,1.727-5.223c1.539-1.485,2.355-3.252,2.366-5.137l0.027-5.02c2.376-0.381,4.197-2.445,4.197-4.926
			c0-2.751-2.238-4.989-4.989-4.989h-2.097c-1.516,0-2.758,1.216-2.89,2.827c-0.015,0.183-0.016,0.406-0.018,0.667
			c-0.002,0.535-0.008,1.786-0.302,2.118l1.19,1.057c0.693-0.78,0.699-2.16,0.705-3.168c0-0.218,0.001-0.423,0.01-0.543
			c0.056-0.68,0.521-1.366,1.304-1.366h2.097c1.873,0,3.396,1.523,3.396,3.397c0,1.872-1.523,3.397-3.396,3.397h-0.791l-0.037,6.539
			c-0.009,1.591-0.753,3.04-2.211,4.305l-0.426,0.368l0.206,0.524c0.542,1.381,0.145,2.738-1.181,4.031
			c-1.165,1.137-2.967,2.119-4.943,2.697c-1.42,0.416-2.755,0.564-3.687,0.429c0.364-0.823,1.251-2.407,2.56-4.196
			c1.833-2.506,3.597-4.187,4.84-4.613c0.631-0.217,0.921-0.043,1.119,0.155l1.124-1.128c-0.513-0.512-1.655-1.217-3.527-0.189
			C253.95,40.077,251.808,42.882,250.719,44.45L250.719,44.45z M239.944,41.459c-1.887,0.778-3.612,2.875-4.474,4.055
			c-0.514,0.705-2.172,3.082-1.945,4.11l0.118,0.535l0.541,0.081c0.265,0.04,0.575,0.061,0.919,0.061c2.23,0,5.881-0.839,7.854-2.5
			c0.732-0.615,1.191-1.297,1.37-2.033c1.062-0.16,2.876-0.192,3.971,0.508l0.858-1.34c-1.907-1.222-4.789-0.854-5.737-0.61
			l-0.585,0.15l-0.013,0.604c-0.012,0.511-0.311,1.018-0.89,1.505c-1.559,1.312-4.64,2.073-6.574,2.126
			c0.774-1.562,3.084-4.909,5.194-5.779c0.612-0.253,1.331-0.287,1.706-0.082c0.169,0.092,0.262,0.23,0.301,0.448l1.566-0.284
			c-0.125-0.695-0.508-1.235-1.104-1.562C242.052,40.921,240.797,41.107,239.944,41.459L239.944,41.459z M230.01,36.416
			c-0.65-2.009,0.774-2.736,1.46-3.085c0.134-0.069,0.328-0.168,0.411-0.232c1.317-5.151,7.255-8.882,14.154-8.882
			c3.812,0,7.402,1.119,10.114,3.152c2.778,2.085,4.31,4.877,4.31,7.864c0,0.273-0.014,0.552-0.041,0.829l-0.055,0.561l-0.547,0.135
			c-4.136,1.019-8.902,1.557-13.781,1.557c-2.114,0-8.904-0.081-13.98-1.045c0.888,1.782,2.445,3.317,4.807,4.757l-0.828,1.359
			C232.756,41.389,230.842,39.173,230.01,36.416L230.01,36.416z M257.037,35.733c0.621-0.118,1.231-0.247,1.828-0.386
			c0.001-0.038,0.001-0.076,0.001-0.114c0-3.621-2.794-6.771-6.882-8.349v1.377c1.189,0.633,2.375,1.729,3.314,3.08
			C256.268,32.737,256.868,34.265,257.037,35.733L257.037,35.733z M246.832,36.718c2.977-0.036,5.896-0.278,8.633-0.711
			c-0.269-2.816-2.511-5.454-4.304-6.378l-4.329,2.5V36.718L246.832,36.718z M246.035,30.75l4.357-2.516v-1.866
			c-1.361-0.361-2.829-0.56-4.357-0.56c-1.496,0-2.97,0.193-4.357,0.563v1.863L246.035,30.75z M236.118,36.237
			c2.998,0.316,6.308,0.46,9.121,0.482l0.001-4.591l-4.394-2.536C238.938,30.607,236.457,33.513,236.118,36.237L236.118,36.237z
			 M232.193,34.749c-0.553,0.282-0.781,0.416-0.761,0.768c0.933,0.208,1.983,0.386,3.104,0.534c0.411-3.349,3.276-6.626,5.55-7.854
			v-1.309c-0.85,0.328-1.65,0.726-2.389,1.19c-2.243,1.414-3.766,3.357-4.289,5.473C233.246,34.211,232.662,34.51,232.193,34.749
			L232.193,34.749z M232.193,34.749"/>
	</g>
</g>
</svg>
