<?xml version="1.0" encoding="utf-8"?>
<!-- Generator: Adobe Illustrator 16.0.0, SVG Export Plug-In . SVG Version: 6.00 Build 0)  -->
<!DOCTYPE svg PUBLIC "-//W3C//DTD SVG 1.1//EN" "http://www.w3.org/Graphics/SVG/1.1/DTD/svg11.dtd">
<svg version="1.1" id="Layer_1" xmlns="http://www.w3.org/2000/svg" xmlns:xlink="http://www.w3.org/1999/xlink" x="0px" y="0px"
	 width="311.81px" height="283.46px" viewBox="0 0 311.81 283.46" enable-background="new 0 0 311.81 283.46" xml:space="preserve">
<g>
	<path fill="#9A857A" stroke="#231F20" stroke-linecap="round" stroke-linejoin="round" stroke-miterlimit="10" d="M292.5,161.601
		c0,4.362-3.537,7.899-7.899,7.899h-0.201c-4.362,0-7.899-3.537-7.899-7.899v-11.201c0-4.362,3.537-7.899,7.899-7.899h0.201
		c4.362,0,7.899,3.537,7.899,7.899V161.601z"/>
	<path fill="#9A857A" stroke="#231F20" stroke-linecap="round" stroke-linejoin="round" stroke-miterlimit="10" d="M37.5,246.601
		c0,4.362-3.537,7.899-7.899,7.899h-0.201c-4.363,0-7.899-3.537-7.899-7.899v-11.201c0-4.362,3.537-7.899,7.899-7.899h0.201
		c4.363,0,7.899,3.537,7.899,7.899V246.601z"/>
	<path fill="#9A857A" stroke="#231F20" stroke-linecap="round" stroke-linejoin="round" stroke-miterlimit="10" d="M224.5,246.601
		c0,4.362-3.537,7.899-7.899,7.899h-0.201c-4.362,0-7.899-3.537-7.899-7.899v-11.201c0-4.362,3.537-7.899,7.899-7.899h0.201
		c4.362,0,7.899,3.537,7.899,7.899V246.601z"/>
	
		<rect x="14.867" y="223.026" fill="#9A857A" stroke="#231F20" stroke-width="1.5" stroke-linecap="round" stroke-linejoin="round" stroke-miterlimit="10" width="213.538" height="8.474"/>
	
		<polygon fill="#9A857A" stroke="#231F20" stroke-width="1.5" stroke-linecap="round" stroke-linejoin="round" stroke-miterlimit="10" points="
		228.405,231.5 296.034,143.67 296.034,134.052 228.405,223.026 	"/>
	
		<polygon fill="#CCC0AB" stroke="#231F20" stroke-width="1.5" stroke-linecap="round" stroke-linejoin="round" stroke-miterlimit="10" points="
		296.942,134.052 86.894,134.052 14.867,223.026 228.405,223.026 	"/>
	
		<polygon fill="#FFFFFF" stroke="#231F20" stroke-width="1.5" stroke-linecap="round" stroke-linejoin="round" stroke-miterlimit="10" points="
		129.161,17.115 73.752,60.19 73.931,60.372 73.931,196.758 208.663,196.758 208.663,196.643 208.793,196.773 250.185,143.273 
		250.185,17.115 	"/>
	<path fill="none" stroke="#231F20" stroke-miterlimit="10" d="M208.12,196.758"/>
	<rect x="72.5" y="162.5" fill="#FFFFFF" stroke="#08A650" stroke-miterlimit="10" width="135" height="34"/>
	<rect x="72" y="128" fill="#8FB2C5" width="135" height="69"/>
	<polygon fill="#ADD1E2" points="249.535,78 129.434,78 72.66,129 207.392,129 	"/>
	<polygon fill="#8FB2C5" points="207,197.605 249,143.069 249,77.444 207,128.71 	"/>
	
		<line fill="none" stroke="#231F20" stroke-width="1.5" stroke-linecap="round" stroke-linejoin="round" stroke-miterlimit="10" x1="208.12" y1="60.449" x2="249.685" y2="17.05"/>
	
		<rect x="73.083" y="60.331" fill="none" stroke="#231F20" stroke-width="1.5" stroke-linecap="round" stroke-linejoin="round" stroke-miterlimit="10" width="134.732" height="136.427"/>
	<g>
		<path fill="#010101" d="M85.92,266.553v-10.021h3.028l1.818,6.836l1.798-6.836H95.6v10.021h-1.88v-7.889l-1.989,7.889h-1.948
			l-1.982-7.889v7.889H85.92z"/>
		<path fill="#010101" d="M97.151,262.82c0-0.638,0.157-1.255,0.472-1.852c0.314-0.598,0.76-1.053,1.337-1.367
			c0.576-0.314,1.22-0.473,1.931-0.473c1.099,0,1.999,0.357,2.7,1.07s1.053,1.614,1.053,2.703c0,1.099-0.354,2.01-1.063,2.731
			c-0.709,0.722-1.602,1.083-2.677,1.083c-0.665,0-1.3-0.15-1.903-0.451c-0.604-0.301-1.063-0.741-1.378-1.322
			S97.151,263.654,97.151,262.82z M99.12,262.924c0,0.72,0.171,1.271,0.513,1.654s0.763,0.574,1.265,0.574s0.922-0.191,1.262-0.574
			c0.339-0.383,0.509-0.939,0.509-1.668c0-0.711-0.17-1.258-0.509-1.641c-0.34-0.383-0.76-0.574-1.262-0.574
			s-0.923,0.191-1.265,0.574S99.12,262.203,99.12,262.924z"/>
		<path fill="#010101" d="M106.004,259.293h1.771v0.992c0.633-0.771,1.388-1.156,2.263-1.156c0.465,0,0.868,0.096,1.21,0.287
			s0.622,0.481,0.841,0.869c0.319-0.388,0.663-0.678,1.032-0.869s0.764-0.287,1.183-0.287c0.533,0,0.984,0.109,1.354,0.325
			s0.646,0.534,0.827,0.954c0.133,0.31,0.198,0.811,0.198,1.504v4.641h-1.921v-4.148c0-0.721-0.066-1.186-0.198-1.395
			c-0.178-0.273-0.451-0.41-0.82-0.41c-0.269,0-0.522,0.082-0.759,0.246s-0.408,0.404-0.513,0.721s-0.157,0.816-0.157,1.5v3.486
			h-1.921v-3.979c0-0.706-0.034-1.162-0.103-1.367s-0.174-0.357-0.318-0.457c-0.143-0.101-0.338-0.15-0.584-0.15
			c-0.297,0-0.563,0.079-0.8,0.238c-0.237,0.16-0.407,0.391-0.509,0.691c-0.104,0.301-0.154,0.799-0.154,1.496v3.527h-1.921V259.293
			z"/>
		<path fill="#010101" d="M122.8,264.242l1.914,0.322c-0.246,0.701-0.635,1.236-1.166,1.603c-0.53,0.366-1.195,0.55-1.992,0.55
			c-1.262,0-2.197-0.412-2.803-1.236c-0.479-0.661-0.718-1.495-0.718-2.502c0-1.203,0.314-2.146,0.943-2.827
			s1.425-1.022,2.386-1.022c1.08,0,1.932,0.357,2.557,1.07s0.923,1.806,0.896,3.277h-4.813c0.014,0.57,0.169,1.014,0.465,1.33
			s0.665,0.475,1.107,0.475c0.301,0,0.554-0.082,0.759-0.246S122.694,264.607,122.8,264.242z M122.909,262.301
			c-0.014-0.556-0.157-0.979-0.431-1.268s-0.606-0.434-0.998-0.434c-0.419,0-0.766,0.152-1.039,0.457
			c-0.273,0.306-0.407,0.721-0.403,1.244H122.909z"/>
		<path fill="#010101" d="M132.985,266.553h-1.921v-3.705c0-0.783-0.041-1.291-0.123-1.521s-0.216-0.409-0.399-0.536
			c-0.186-0.128-0.407-0.191-0.667-0.191c-0.333,0-0.632,0.091-0.896,0.273c-0.264,0.182-0.445,0.424-0.543,0.725
			c-0.099,0.301-0.147,0.856-0.147,1.668v3.287h-1.921v-7.26h1.784v1.066c0.634-0.82,1.431-1.23,2.393-1.23
			c0.424,0,0.812,0.076,1.162,0.229s0.616,0.348,0.796,0.585c0.181,0.236,0.306,0.506,0.377,0.807
			c0.07,0.301,0.105,0.73,0.105,1.291V266.553z"/>
		<path fill="#010101" d="M138.263,259.293v1.531h-1.313v2.926c0,0.593,0.013,0.938,0.037,1.036
			c0.025,0.099,0.082,0.179,0.172,0.243c0.088,0.063,0.197,0.096,0.324,0.096c0.178,0,0.436-0.063,0.772-0.186l0.164,1.49
			c-0.446,0.191-0.952,0.287-1.518,0.287c-0.347,0-0.659-0.058-0.937-0.174s-0.482-0.267-0.611-0.451
			c-0.131-0.185-0.221-0.434-0.271-0.748c-0.041-0.224-0.062-0.675-0.062-1.354v-3.166h-0.882v-1.531h0.882v-1.441l1.928-1.121
			v2.563H138.263z"/>
		<path fill="#010101" d="M139.151,262.82c0-0.638,0.157-1.255,0.472-1.852c0.314-0.598,0.76-1.053,1.337-1.367
			c0.576-0.314,1.22-0.473,1.931-0.473c1.099,0,1.999,0.357,2.7,1.07s1.053,1.614,1.053,2.703c0,1.099-0.354,2.01-1.063,2.731
			c-0.709,0.722-1.602,1.083-2.677,1.083c-0.665,0-1.3-0.15-1.903-0.451c-0.604-0.301-1.063-0.741-1.378-1.322
			S139.151,263.654,139.151,262.82z M141.12,262.924c0,0.72,0.171,1.271,0.513,1.654s0.763,0.574,1.265,0.574
			s0.922-0.191,1.262-0.574c0.339-0.383,0.509-0.939,0.509-1.668c0-0.711-0.17-1.258-0.509-1.641
			c-0.34-0.383-0.76-0.574-1.262-0.574s-0.923,0.191-1.265,0.574S141.12,262.203,141.12,262.924z"/>
		<path fill="#010101" d="M158.114,264.77v1.783h-6.733c0.073-0.674,0.292-1.313,0.656-1.917s1.085-1.405,2.16-2.403
			c0.866-0.807,1.397-1.354,1.593-1.641c0.264-0.396,0.396-0.788,0.396-1.176c0-0.428-0.115-0.758-0.346-0.987
			c-0.229-0.229-0.547-0.345-0.953-0.345c-0.4,0-0.721,0.12-0.957,0.361c-0.236,0.242-0.373,0.643-0.41,1.203l-1.914-0.191
			c0.113-1.057,0.472-1.815,1.073-2.275c0.602-0.461,1.354-0.691,2.256-0.691c0.989,0,1.767,0.268,2.331,0.801
			s0.848,1.195,0.848,1.988c0,0.451-0.081,0.881-0.242,1.289c-0.162,0.408-0.418,0.835-0.77,1.281
			c-0.232,0.297-0.652,0.723-1.258,1.279c-0.605,0.556-0.99,0.925-1.152,1.107c-0.161,0.182-0.293,0.359-0.393,0.533H158.114z"/>
	</g>
</g>
</svg>
