<?xml version="1.0" encoding="utf-8"?>
<!-- Generator: Adobe Illustrator 16.0.0, SVG Export Plug-In . SVG Version: 6.00 Build 0)  -->
<!DOCTYPE svg PUBLIC "-//W3C//DTD SVG 1.1//EN" "http://www.w3.org/Graphics/SVG/1.1/DTD/svg11.dtd">
<svg version="1.1" id="Layer_1" xmlns="http://www.w3.org/2000/svg" xmlns:xlink="http://www.w3.org/1999/xlink" x="0px" y="0px"
	 width="311.81px" height="283.46px" viewBox="0 0 311.81 283.46" enable-background="new 0 0 311.81 283.46" xml:space="preserve">
<path fill="#9A857A" stroke="#231F20" stroke-linecap="round" stroke-linejoin="round" stroke-miterlimit="10" d="M37.5,246.601
	c0,4.362-3.537,7.899-7.899,7.899h-0.201c-4.363,0-7.899-3.537-7.899-7.899v-11.201c0-4.362,3.537-7.899,7.899-7.899h0.201
	c4.363,0,7.899,3.537,7.899,7.899V246.601z"/>
<path fill="#9A857A" stroke="#231F20" stroke-linecap="round" stroke-linejoin="round" stroke-miterlimit="10" d="M224.5,246.601
	c0,4.362-3.537,7.899-7.899,7.899h-0.201c-4.362,0-7.899-3.537-7.899-7.899v-11.201c0-4.362,3.537-7.899,7.899-7.899h0.201
	c4.362,0,7.899,3.537,7.899,7.899V246.601z"/>
<path fill="#9A857A" stroke="#231F20" stroke-linecap="round" stroke-linejoin="round" stroke-miterlimit="10" d="M291.5,161.601
	c0,4.362-3.537,7.899-7.899,7.899h-0.201c-4.362,0-7.899-3.537-7.899-7.899v-11.201c0-4.362,3.537-7.899,7.899-7.899h0.201
	c4.362,0,7.899,3.537,7.899,7.899V161.601z"/>
<rect x="14.574" y="223.026" fill="#9A857A" stroke="#231F20" stroke-width="1.5" stroke-linecap="round" stroke-linejoin="round" stroke-miterlimit="10" width="213.538" height="8.474"/>
<polygon fill="#9A857A" stroke="#231F20" stroke-width="1.5" stroke-linecap="round" stroke-linejoin="round" stroke-miterlimit="10" points="
	228.111,231.5 295.74,143.67 295.74,134.052 228.111,223.026 "/>
<polygon fill="#CCC0AB" stroke="#231F20" stroke-width="1.5" stroke-linecap="round" stroke-linejoin="round" stroke-miterlimit="10" points="
	296.648,134.052 86.6,134.052 14.574,223.026 228.111,223.026 "/>
<polygon fill="#FFFFFF" stroke="#231F20" stroke-width="1.5" stroke-linecap="round" stroke-linejoin="round" stroke-miterlimit="10" points="
	132.867,17.115 77.458,60.19 77.637,60.372 77.637,196.758 212.369,196.758 212.369,196.643 212.499,196.773 253.891,143.273 
	253.891,17.115 "/>
<path fill="none" stroke="#231F20" stroke-miterlimit="10" d="M196.826,196.758"/>
<rect x="76.5" y="162.5" fill="#FFFFFF" stroke="#08A650" stroke-miterlimit="10" width="135" height="34"/>
<rect x="76" y="163" fill="#8FB2C5" width="135" height="34"/>
<polygon fill="#ADD1E2" points="253.241,112 133.14,112 76.366,163 211.098,163 "/>
<polygon fill="#8FB2C5" points="211,197.605 253,143.069 253,112.444 211,163.711 "/>
<line fill="none" stroke="#231F20" stroke-width="1.5" stroke-linecap="round" stroke-linejoin="round" stroke-miterlimit="10" x1="211.826" y1="60.449" x2="253.391" y2="17.05"/>
<rect x="76.79" y="60.331" fill="none" stroke="#231F20" stroke-width="1.5" stroke-linecap="round" stroke-linejoin="round" stroke-miterlimit="10" width="134.732" height="136.427"/>
<g>
	<path fill="#010101" d="M83.379,266.039v-10.021h3.028l1.818,6.836l1.798-6.836h3.035v10.021h-1.88v-7.889l-1.989,7.889h-1.948
		l-1.982-7.889v7.889H83.379z"/>
	<path fill="#010101" d="M94.61,262.307c0-0.638,0.157-1.255,0.472-1.852c0.314-0.598,0.76-1.053,1.336-1.367
		s1.22-0.473,1.931-0.473c1.098,0,1.999,0.357,2.7,1.07s1.053,1.614,1.053,2.703c0,1.099-0.354,2.01-1.063,2.731
		s-1.601,1.083-2.676,1.083c-0.666,0-1.3-0.15-1.904-0.451s-1.063-0.741-1.377-1.322S94.61,263.141,94.61,262.307z M96.579,262.41
		c0,0.72,0.171,1.271,0.513,1.654s0.763,0.574,1.265,0.574s0.922-0.191,1.261-0.574s0.509-0.939,0.509-1.668
		c0-0.711-0.17-1.258-0.509-1.641s-0.76-0.574-1.261-0.574s-0.923,0.191-1.265,0.574S96.579,261.689,96.579,262.41z"/>
	<path fill="#010101" d="M103.463,258.779h1.771v0.992c0.633-0.771,1.388-1.156,2.263-1.156c0.465,0,0.868,0.096,1.21,0.287
		s0.622,0.481,0.841,0.869c0.319-0.388,0.663-0.678,1.032-0.869s0.763-0.287,1.183-0.287c0.533,0,0.984,0.109,1.354,0.325
		s0.645,0.534,0.827,0.954c0.132,0.31,0.198,0.811,0.198,1.504v4.641h-1.921v-4.148c0-0.721-0.066-1.186-0.198-1.395
		c-0.178-0.273-0.451-0.41-0.82-0.41c-0.269,0-0.522,0.082-0.759,0.246s-0.408,0.404-0.513,0.721s-0.157,0.816-0.157,1.5v3.486
		h-1.921v-3.979c0-0.706-0.034-1.162-0.103-1.367s-0.174-0.357-0.318-0.457c-0.144-0.101-0.338-0.15-0.584-0.15
		c-0.296,0-0.563,0.079-0.8,0.238c-0.237,0.16-0.407,0.391-0.509,0.691s-0.154,0.799-0.154,1.496v3.527h-1.921V258.779z"/>
	<path fill="#010101" d="M120.259,263.729l1.914,0.322c-0.246,0.701-0.635,1.236-1.166,1.603s-1.195,0.55-1.993,0.55
		c-1.262,0-2.197-0.412-2.803-1.236c-0.479-0.661-0.718-1.495-0.718-2.502c0-1.203,0.314-2.146,0.943-2.827s1.424-1.022,2.386-1.022
		c1.08,0,1.932,0.357,2.557,1.07s0.923,1.806,0.896,3.277h-4.813c0.014,0.57,0.168,1.014,0.465,1.33s0.666,0.475,1.107,0.475
		c0.301,0,0.554-0.082,0.759-0.246S120.154,264.094,120.259,263.729z M120.368,261.787c-0.014-0.556-0.157-0.979-0.431-1.268
		s-0.606-0.434-0.998-0.434c-0.419,0-0.766,0.152-1.039,0.457c-0.273,0.306-0.408,0.721-0.403,1.244H120.368z"/>
	<path fill="#010101" d="M130.444,266.039h-1.921v-3.705c0-0.783-0.041-1.291-0.123-1.521s-0.215-0.409-0.4-0.536
		c-0.185-0.128-0.407-0.191-0.667-0.191c-0.333,0-0.631,0.091-0.896,0.273c-0.264,0.182-0.445,0.424-0.543,0.725
		s-0.147,0.856-0.147,1.668v3.287h-1.921v-7.26h1.784v1.066c0.633-0.82,1.431-1.23,2.393-1.23c0.424,0,0.811,0.076,1.162,0.229
		s0.616,0.348,0.796,0.585c0.18,0.236,0.305,0.506,0.376,0.807s0.106,0.73,0.106,1.291V266.039z"/>
	<path fill="#010101" d="M135.722,258.779v1.531h-1.313v2.926c0,0.593,0.013,0.938,0.038,1.036s0.082,0.179,0.171,0.243
		c0.089,0.063,0.197,0.096,0.325,0.096c0.178,0,0.435-0.063,0.772-0.186l0.164,1.49c-0.447,0.191-0.953,0.287-1.518,0.287
		c-0.346,0-0.659-0.058-0.937-0.174s-0.482-0.267-0.612-0.451s-0.22-0.434-0.27-0.748c-0.041-0.224-0.062-0.675-0.062-1.354v-3.166
		H131.6v-1.531h0.882v-1.441l1.928-1.121v2.563H135.722z"/>
	<path fill="#010101" d="M136.61,262.307c0-0.638,0.157-1.255,0.472-1.852c0.314-0.598,0.76-1.053,1.336-1.367
		s1.22-0.473,1.931-0.473c1.098,0,1.999,0.357,2.7,1.07s1.053,1.614,1.053,2.703c0,1.099-0.354,2.01-1.063,2.731
		s-1.601,1.083-2.676,1.083c-0.666,0-1.3-0.15-1.904-0.451s-1.063-0.741-1.377-1.322S136.61,263.141,136.61,262.307z
		 M138.579,262.41c0,0.72,0.171,1.271,0.513,1.654s0.763,0.574,1.265,0.574s0.922-0.191,1.261-0.574s0.509-0.939,0.509-1.668
		c0-0.711-0.17-1.258-0.509-1.641s-0.76-0.574-1.261-0.574s-0.923,0.191-1.265,0.574S138.579,261.689,138.579,262.41z"/>
	<path fill="#010101" d="M154.001,266.039h-1.921v-7.238c-0.702,0.656-1.528,1.141-2.481,1.455v-1.742
		c0.502-0.164,1.046-0.476,1.634-0.934s0.991-0.992,1.21-1.604h1.559V266.039z"/>
</g>
</svg>
