<?xml version="1.0" encoding="utf-8"?>
<!-- Generator: Adobe Illustrator 16.0.0, SVG Export Plug-In . SVG Version: 6.00 Build 0)  -->
<!DOCTYPE svg PUBLIC "-//W3C//DTD SVG 1.1//EN" "http://www.w3.org/Graphics/SVG/1.1/DTD/svg11.dtd">
<svg version="1.1" id="Layer_1" xmlns="http://www.w3.org/2000/svg" xmlns:xlink="http://www.w3.org/1999/xlink" x="0px" y="0px"
	 width="340.16px" height="141.73px" viewBox="0 0 340.16 141.73" enable-background="new 0 0 340.16 141.73" xml:space="preserve">
<g>
	<path fill="#F8BE75" stroke="#221F1F" stroke-width="2" stroke-miterlimit="10" d="M309.921,103.368
		c0,9.153-7.443,16.598-16.598,16.598h-61.365c-9.15,0-16.6-7.444-16.6-16.598V51.797c0-0.02,0-0.039,0-0.058
		c-0.002-0.036-0.004-0.074-0.008-0.111c-0.002-0.031-0.004-0.062-0.01-0.094c-0.004-0.037-0.012-0.074-0.02-0.112
		c-0.004-0.029-0.01-0.062-0.018-0.091c-0.01-0.037-0.02-0.073-0.031-0.109c-0.008-0.029-0.018-0.062-0.027-0.09
		c-0.012-0.034-0.025-0.067-0.039-0.098c-0.016-0.034-0.025-0.066-0.041-0.098c-0.014-0.026-0.029-0.052-0.043-0.079
		c-0.018-0.037-0.035-0.072-0.059-0.108c-0.018-0.031-0.033-0.049-0.045-0.069c-0.025-0.034-0.047-0.069-0.072-0.102
		c-0.025-0.035-0.053-0.064-0.082-0.097c-0.016-0.02-0.033-0.041-0.051-0.062c-0.049-0.051-0.1-0.1-0.152-0.145
		c-4.326-3.708-6.805-9.126-6.805-14.866c0-10.815,8.797-19.613,19.613-19.613h70.342c10.816,0,19.615,8.798,19.615,19.613
		c0,5.74-2.479,11.156-6.801,14.862c-0.107,0.091-0.207,0.196-0.295,0.311c-0.018,0.021-0.029,0.043-0.045,0.065
		c-0.021,0.031-0.043,0.06-0.064,0.092c-0.002,0.004-0.004,0.009-0.008,0.016c-0.016,0.024-0.027,0.052-0.043,0.078
		c-0.02,0.038-0.039,0.071-0.057,0.108c-0.012,0.023-0.02,0.049-0.031,0.073c-0.018,0.041-0.033,0.081-0.049,0.125
		c-0.008,0.021-0.014,0.043-0.021,0.066c-0.014,0.047-0.025,0.089-0.037,0.136c-0.006,0.021-0.01,0.044-0.014,0.068
		c-0.01,0.046-0.018,0.092-0.021,0.137c-0.004,0.024-0.006,0.047-0.008,0.072c-0.004,0.046-0.006,0.091-0.008,0.136
		c0,0.016-0.004,0.029-0.004,0.044V103.368z M309.921,103.368"/>
	<path fill="#FFE065" d="M255.28,126.457l-47.701-47.701c-4.064-4.064-4.064-10.654,0-14.72l47.701-47.702
		c4.064-4.063,10.656-4.063,14.721,0l47.701,47.702c4.064,4.064,4.064,10.655,0,14.72l-47.701,47.701
		C265.937,130.523,259.345,130.523,255.28,126.457L255.28,126.457z M255.28,126.457"/>
	<path fill="#E7958B" d="M209.054,86.035l25.387-62.501c2.164-5.324,8.234-7.887,13.563-5.726l62.5,25.387
		c5.324,2.164,7.889,8.236,5.727,13.561l-25.387,62.501c-2.164,5.324-8.236,7.889-13.561,5.727L214.78,99.596
		C209.454,97.435,206.89,91.361,209.054,86.035L209.054,86.035z M209.054,86.035"/>
	<path fill="#F8BE75" stroke="#221F1F" stroke-width="2" stroke-miterlimit="10" d="M309.921,103.368
		c0,9.153-7.443,16.598-16.598,16.598h-61.365c-9.15,0-16.6-7.444-16.6-16.598V51.797c0-0.02,0-0.039,0-0.058
		c-0.002-0.036-0.004-0.074-0.008-0.111c-0.002-0.031-0.004-0.062-0.01-0.094c-0.004-0.037-0.012-0.074-0.02-0.112
		c-0.004-0.029-0.01-0.062-0.018-0.091c-0.01-0.037-0.02-0.073-0.031-0.109c-0.008-0.029-0.018-0.062-0.027-0.09
		c-0.012-0.034-0.025-0.067-0.039-0.098c-0.016-0.034-0.025-0.066-0.041-0.098c-0.014-0.026-0.029-0.052-0.043-0.079
		c-0.018-0.037-0.035-0.072-0.059-0.108c-0.018-0.031-0.033-0.049-0.045-0.069c-0.025-0.034-0.047-0.069-0.072-0.102
		c-0.025-0.035-0.053-0.064-0.082-0.097c-0.016-0.02-0.033-0.041-0.051-0.062c-0.049-0.051-0.1-0.1-0.152-0.145
		c-4.326-3.708-6.805-9.126-6.805-14.866c0-10.815,8.797-19.613,19.613-19.613h70.342c10.816,0,19.615,8.798,19.615,19.613
		c0,5.74-2.479,11.156-6.801,14.862c-0.107,0.091-0.207,0.196-0.295,0.311c-0.018,0.021-0.029,0.043-0.045,0.065
		c-0.021,0.031-0.043,0.06-0.064,0.092c-0.002,0.004-0.004,0.009-0.008,0.016c-0.016,0.024-0.027,0.052-0.043,0.078
		c-0.02,0.038-0.039,0.071-0.057,0.108c-0.012,0.023-0.02,0.049-0.031,0.073c-0.018,0.041-0.033,0.081-0.049,0.125
		c-0.008,0.021-0.014,0.043-0.021,0.066c-0.014,0.047-0.025,0.089-0.037,0.136c-0.006,0.021-0.01,0.044-0.014,0.068
		c-0.01,0.046-0.018,0.092-0.021,0.137c-0.004,0.024-0.006,0.047-0.008,0.072c-0.004,0.046-0.006,0.091-0.008,0.136
		c0,0.016-0.004,0.029-0.004,0.044V103.368z M309.921,103.368"/>
	
		<rect x="18.53" y="16" fill="#F8BE75" stroke="#221F1F" stroke-width="2" stroke-linecap="round" stroke-linejoin="round" stroke-miterlimit="10" width="104.883" height="104.882"/>
	<rect x="19" y="17" fill="#FFFFFF" width="51" height="51"/>
	<g>
		<line fill="#F8BE75" x1="20" y1="68" x2="122" y2="68"/>
		<g>
			
				<line fill="none" stroke="#221F1F" stroke-width="2" stroke-linecap="round" stroke-linejoin="round" x1="20" y1="68" x2="23" y2="68"/>
			
				<line fill="none" stroke="#221F1F" stroke-width="2" stroke-linecap="round" stroke-linejoin="round" stroke-dasharray="6,4" x1="27" y1="68" x2="117" y2="68"/>
			
				<line fill="none" stroke="#221F1F" stroke-width="2" stroke-linecap="round" stroke-linejoin="round" x1="119" y1="68" x2="122" y2="68"/>
		</g>
	</g>
	
		<line fill="#F8BE75" stroke="#221F1F" stroke-width="4" stroke-linecap="round" stroke-linejoin="round" stroke-miterlimit="10" x1="181" y1="68" x2="151" y2="68"/>
	<g>
		<line fill="#F8BE75" x1="71" y1="120" x2="71" y2="17"/>
		<g>
			
				<line fill="none" stroke="#221F1F" stroke-width="2" stroke-linecap="round" stroke-linejoin="round" x1="71" y1="120" x2="71" y2="117"/>
			
				<line fill="none" stroke="#221F1F" stroke-width="2" stroke-linecap="round" stroke-linejoin="round" stroke-dasharray="6,4" x1="71" y1="113" x2="71" y2="22"/>
			
				<line fill="none" stroke="#221F1F" stroke-width="2" stroke-linecap="round" stroke-linejoin="round" x1="71" y1="20" x2="71" y2="17"/>
		</g>
	</g>
	<path fill="none" stroke="#221F1F" stroke-width="8" stroke-linecap="round" stroke-linejoin="round" stroke-miterlimit="10" d="
		M140.21,68.441"/>
	<path fill="none" stroke="#221F1F" stroke-width="8" stroke-linecap="round" stroke-linejoin="round" stroke-miterlimit="10" d="
		M186.571,72.441"/>
	
		<polyline fill="none" stroke="#221F1F" stroke-width="4" stroke-linecap="round" stroke-linejoin="round" stroke-miterlimit="10" points="
		171.485,77.551 182.585,68.027 171.485,59.72 	"/>
</g>
</svg>
