<?xml version="1.0" encoding="utf-8"?>
<!-- Generator: Adobe Illustrator 16.0.0, SVG Export Plug-In . SVG Version: 6.00 Build 0)  -->
<!DOCTYPE svg PUBLIC "-//W3C//DTD SVG 1.1//EN" "http://www.w3.org/Graphics/SVG/1.1/DTD/svg11.dtd">
<svg version="1.1" id="Layer_1" xmlns="http://www.w3.org/2000/svg" xmlns:xlink="http://www.w3.org/1999/xlink" x="0px" y="0px"
	 width="311.811px" height="240.945px" viewBox="0 0 311.811 240.945" enable-background="new 0 0 311.811 240.945"
	 xml:space="preserve">
<g>
	<g>
		<path fill="#9A8479" stroke="#231F20" stroke-linecap="round" stroke-linejoin="round" stroke-miterlimit="10" d="M292.48,133.284
			c0,4.362-3.536,7.899-7.898,7.899h-0.201c-4.362,0-7.898-3.537-7.898-7.899v-11.201c0-4.362,3.536-7.898,7.898-7.898h0.201
			c4.362,0,7.898,3.537,7.898,7.898V133.284z"/>
		<path fill="#9A8479" stroke="#231F20" stroke-linecap="round" stroke-linejoin="round" stroke-miterlimit="10" d="M37.48,218.284
			c0,4.362-3.536,7.899-7.898,7.899H29.38c-4.363,0-7.898-3.537-7.898-7.899v-11.201c0-4.361,3.536-7.898,7.898-7.898h0.201
			c4.363,0,7.898,3.537,7.898,7.898V218.284z"/>
		<path fill="#9A8479" stroke="#231F20" stroke-linecap="round" stroke-linejoin="round" stroke-miterlimit="10" d="M224.48,218.284
			c0,4.362-3.536,7.899-7.898,7.899h-0.201c-4.362,0-7.898-3.537-7.898-7.899v-11.201c0-4.361,3.536-7.898,7.898-7.898h0.201
			c4.362,0,7.898,3.537,7.898,7.898V218.284z"/>
		
			<rect x="14.868" y="194.737" fill="#9A8479" stroke="#231F20" stroke-width="1.5" stroke-linecap="round" stroke-linejoin="round" stroke-miterlimit="10" width="213.537" height="8.474"/>
		
			<polygon fill="#9A8479" stroke="#231F20" stroke-width="1.5" stroke-linecap="round" stroke-linejoin="round" stroke-miterlimit="10" points="
			228.406,203.21 296.034,115.382 296.034,105.763 228.406,194.737 		"/>
		
			<polygon fill="#CCC0AB" stroke="#231F20" stroke-width="1.5" stroke-linecap="round" stroke-linejoin="round" stroke-miterlimit="10" points="
			296.943,105.763 86.894,105.763 14.868,194.737 228.406,194.737 		"/>
	</g>
	<path fill="none" stroke="#231F20" stroke-miterlimit="10" d="M195.12,168.469"/>
	<g>
		
			<polygon opacity="0.7" fill="#FFFFFF" stroke="#231F20" stroke-width="1.5" stroke-linecap="round" stroke-linejoin="round" stroke-miterlimit="10" enable-background="new    " points="
			116.161,14.826 60.752,57.901 60.931,58.082 60.931,194.469 195.663,194.469 195.663,194.353 195.793,194.484 237.185,140.984 
			237.185,14.826 		"/>
		
			<polygon fill="none" stroke="#231F20" stroke-width="1.5" stroke-linecap="round" stroke-linejoin="round" stroke-miterlimit="10" points="
			115.161,14.826 59.752,57.901 59.931,58.082 59.931,194.469 194.663,194.469 194.663,194.353 194.793,194.484 236.185,140.984 
			236.185,14.826 		"/>
		
			<line fill="none" stroke="#231F20" stroke-width="1.5" stroke-linecap="round" stroke-linejoin="round" stroke-miterlimit="10" x1="195.12" y1="58.16" x2="236.685" y2="14.761"/>
		
			<rect x="60.083" y="58.041" fill="none" stroke="#231F20" stroke-width="1.5" stroke-linecap="round" stroke-linejoin="round" stroke-miterlimit="10" width="134.732" height="136.428"/>
	</g>
	<rect x="79.48" y="45.183" fill="#FFFFFF" stroke="#BCBEC0" stroke-miterlimit="10" width="48" height="158"/>
	
		<line fill="none" stroke="#231F20" stroke-width="2" stroke-linecap="round" stroke-linejoin="round" stroke-miterlimit="10" x1="92.294" y1="58.71" x2="92.294" y2="194.469"/>
	
		<line fill="none" stroke="#231F20" stroke-width="2" stroke-linecap="round" stroke-linejoin="round" stroke-miterlimit="10" x1="85.98" y1="58.683" x2="97.98" y2="58.683"/>
	
		<line fill="none" stroke="#231F20" stroke-width="2" stroke-linecap="round" stroke-linejoin="round" stroke-miterlimit="10" x1="85.98" y1="126.683" x2="97.98" y2="126.683"/>
	
		<line fill="none" stroke="#231F20" stroke-width="2" stroke-linecap="round" stroke-linejoin="round" stroke-miterlimit="10" x1="85.98" y1="160.683" x2="97.98" y2="160.683"/>
	
		<line fill="none" stroke="#231F20" stroke-width="2" stroke-linecap="round" stroke-linejoin="round" stroke-miterlimit="10" x1="85.98" y1="92.683" x2="97.98" y2="92.683"/>
	
		<line fill="none" stroke="#231F20" stroke-width="2" stroke-linecap="round" stroke-linejoin="round" stroke-miterlimit="10" x1="85.98" y1="194.683" x2="97.98" y2="194.683"/>
	<g>
		<path fill="#231F20" d="M116.743,157.482h-1.646v-6.205c-0.602,0.563-1.311,0.979-2.127,1.248v-1.494
			c0.431-0.141,0.896-0.406,1.4-0.799s0.85-0.852,1.037-1.375h1.336V157.482z"/>
		<path fill="#231F20" d="M115.759,175.706v-1.729h-3.516v-1.441l3.727-5.455h1.383v5.449h1.066v1.447h-1.066v1.729H115.759
			L115.759,175.706z M115.759,172.531v-2.936l-1.975,2.936H115.759z"/>
	</g>
	<g>
		<path fill="#231F20" d="M116.569,61.634h-1.646v-6.205c-0.602,0.563-1.311,0.979-2.127,1.248v-1.494
			c0.43-0.142,0.896-0.407,1.4-0.8c0.504-0.394,0.85-0.852,1.037-1.374h1.336V61.634z"/>
	</g>
	<g>
		<path fill="#231F20" d="M115.139,186.008c0.832,0,1.482,0.297,1.951,0.891c0.56,0.703,0.838,1.869,0.838,3.498
			c0,1.625-0.281,2.793-0.844,3.504c-0.465,0.586-1.113,0.879-1.945,0.879c-0.836,0-1.51-0.32-2.021-0.963s-0.769-1.789-0.769-3.438
			c0-1.616,0.281-2.78,0.845-3.491C113.658,186.301,114.307,186.008,115.139,186.008z M115.139,187.372
			c-0.198,0-0.377,0.064-0.532,0.191c-0.156,0.127-0.277,0.354-0.363,0.682c-0.113,0.426-0.17,1.144-0.17,2.15
			s0.051,1.701,0.151,2.078c0.102,0.377,0.229,0.627,0.385,0.752c0.154,0.125,0.331,0.188,0.529,0.188
			c0.199,0,0.377-0.063,0.533-0.188s0.277-0.355,0.363-0.685c0.113-0.422,0.17-1.137,0.17-2.145s-0.051-1.699-0.152-2.076
			c-0.101-0.377-0.229-0.629-0.384-0.756S115.338,187.372,115.139,187.372z"/>
	</g>
	<line fill="none" stroke="#231F20" stroke-miterlimit="10" x1="105.818" y1="162.21" x2="124.957" y2="161.779"/>
	<g>
		<path fill="#231F20" d="M116.743,120.482h-1.646v-6.205c-0.602,0.563-1.311,0.979-2.127,1.248v-1.494
			c0.431-0.141,0.896-0.407,1.4-0.8s0.85-0.851,1.037-1.374h1.336V120.482z"/>
		<path fill="#231F20" d="M118.091,137.177v1.528h-5.771c0.063-0.578,0.25-1.125,0.563-1.643c0.313-0.519,0.93-1.205,1.853-2.062
			c0.741-0.69,1.196-1.159,1.364-1.405c0.228-0.34,0.341-0.677,0.341-1.008c0-0.367-0.1-0.648-0.297-0.847
			c-0.196-0.198-0.47-0.297-0.816-0.297c-0.344,0-0.617,0.104-0.82,0.312s-0.32,0.551-0.352,1.03l-1.642-0.164
			c0.099-0.905,0.404-1.557,0.92-1.95c0.517-0.395,1.16-0.593,1.935-0.593c0.848,0,1.514,0.229,1.998,0.687
			c0.483,0.457,0.727,1.024,0.727,1.705c0,0.387-0.068,0.756-0.208,1.104c-0.139,0.35-0.357,0.715-0.659,1.099
			c-0.198,0.254-0.559,0.618-1.077,1.096c-0.52,0.477-0.85,0.793-0.987,0.949c-0.138,0.155-0.251,0.309-0.337,0.457L118.091,137.177
			L118.091,137.177z"/>
	</g>
	<line fill="none" stroke="#231F20" stroke-miterlimit="10" x1="105.818" y1="125.21" x2="124.957" y2="124.779"/>
	<g>
		<path fill="#231F20" d="M112.472,80.203l1.595-0.192c0.051,0.405,0.188,0.717,0.409,0.932c0.223,0.215,0.492,0.322,0.81,0.322
			c0.34,0,0.626-0.129,0.857-0.388c0.232-0.258,0.35-0.604,0.35-1.043c0-0.414-0.111-0.741-0.334-0.983
			c-0.224-0.242-0.494-0.363-0.814-0.363c-0.211,0-0.463,0.041-0.756,0.123l0.182-1.342c0.445,0.012,0.785-0.085,1.021-0.29
			s0.352-0.479,0.352-0.817c0-0.289-0.086-0.52-0.258-0.69s-0.399-0.259-0.686-0.259c-0.281,0-0.521,0.099-0.722,0.294
			c-0.199,0.194-0.319,0.479-0.362,0.854l-1.519-0.258c0.105-0.521,0.266-0.936,0.479-1.245s0.51-0.555,0.891-0.732
			c0.381-0.177,0.809-0.267,1.28-0.267c0.809,0,1.457,0.258,1.945,0.773c0.401,0.422,0.604,0.897,0.604,1.43
			c0,0.754-0.412,1.354-1.236,1.805c0.492,0.105,0.887,0.342,1.182,0.709s0.441,0.812,0.441,1.33c0,0.754-0.274,1.396-0.826,1.928
			c-0.551,0.532-1.235,0.798-2.057,0.798c-0.777,0-1.422-0.225-1.934-0.672C112.852,81.512,112.554,80.927,112.472,80.203z"/>
		<path fill="#231F20" d="M115.759,100.707v-1.729h-3.516v-1.441l3.727-5.455h1.383v5.449h1.066v1.447h-1.066v1.729H115.759z
			 M115.759,97.531v-2.936l-1.975,2.936H115.759z"/>
	</g>
	<line fill="none" stroke="#231F20" stroke-miterlimit="10" x1="105.818" y1="87.21" x2="124.957" y2="86.779"/>
</g>
</svg>
