<?xml version="1.0" encoding="utf-8"?>
<!-- Generator: Adobe Illustrator 16.0.0, SVG Export Plug-In . SVG Version: 6.00 Build 0)  -->
<!DOCTYPE svg PUBLIC "-//W3C//DTD SVG 1.1//EN" "http://www.w3.org/Graphics/SVG/1.1/DTD/svg11.dtd">
<svg version="1.1" id="Layer_1" xmlns="http://www.w3.org/2000/svg" xmlns:xlink="http://www.w3.org/1999/xlink" x="0px" y="0px"
	 width="481.89px" height="155.91px" viewBox="0 0 481.89 155.91" enable-background="new 0 0 481.89 155.91" xml:space="preserve">
<g>
	<path d="M159.309,102.246c-1.832,13.132-7.717,19.702-16.273,18.508c-7.547-1.053-11.67-8.837-10.007-21.629
		c1.808-12.955,8.388-19.306,16.232-18.211C157.401,82.05,161.024,89.945,159.309,102.246z M138.249,99.913
		c-1.401,10.043,0.893,16.179,5.646,16.842c5.348,0.746,8.774-5.137,10.15-15.001c1.326-9.508-0.24-16.086-5.646-16.841
		C143.823,84.275,139.716,89.396,138.249,99.913z"/>
</g>
<path fill="none" stroke="#A7A9AC" stroke-width="3" stroke-linecap="round" stroke-linejoin="round" stroke-miterlimit="10" d="
	M11.736,19.786c0,0,81.817,51.27,219.193,51.224c145.031-0.047,221.785-48.063,239.784-56.088"/>
<rect x="276.318" y="59" transform="matrix(0.9928 -0.1198 0.1198 0.9928 -9.6565 37.4224)" fill="none" stroke="#D1D3D4" stroke-width="2" stroke-linecap="round" stroke-linejoin="round" stroke-miterlimit="10" width="60.001" height="79.999"/>
<g>
	<path d="M304.055,88.443l-0.119,0.014l-6.292,4.445l-1.494-3.867l7.912-5.549l4.466-0.539l4.674,38.717l-5.063,0.611
		L304.055,88.443z"/>
</g>
<rect x="116.318" y="57" transform="matrix(0.9904 0.1382 -0.1382 0.9904 14.8074 -19.2881)" fill="none" stroke="#D1D3D4" stroke-width="2" stroke-linecap="round" stroke-linejoin="round" stroke-miterlimit="10" width="60" height="80"/>
</svg>
