<?xml version="1.0" encoding="utf-8"?>
<!-- Generator: Adobe Illustrator 16.0.0, SVG Export Plug-In . SVG Version: 6.00 Build 0)  -->
<!DOCTYPE svg PUBLIC "-//W3C//DTD SVG 1.1//EN" "http://www.w3.org/Graphics/SVG/1.1/DTD/svg11.dtd">
<svg version="1.1" id="Layer_1" xmlns="http://www.w3.org/2000/svg" xmlns:xlink="http://www.w3.org/1999/xlink" x="0px" y="0px"
	 width="113.39px" height="141.73px" viewBox="0 0 113.39 141.73" enable-background="new 0 0 113.39 141.73" xml:space="preserve">
<g>
	<path fill="#E6E7E8" stroke="#231F20" stroke-width="2" stroke-miterlimit="10" d="M10.581,19.916c0,0,3.377,80.145,16.102,100.35
		c8.98,14.259,49.988,15.327,59.127,1.069C97.2,103.568,104.698,18.43,104.698,18.43"/>
	<path fill="#F1F2F2" stroke="#231F20" stroke-width="2" stroke-miterlimit="10" d="M10.581,19.183
		c0,5.976,17.014,10.825,46.844,10.825c29.846,0,47.273-4.85,47.273-10.825c0-5.975-17.428-10.824-47.273-10.824
		C27.595,8.358,10.581,13.208,10.581,19.183z"/>
	<path opacity="0.7" fill="#F1F2F2" stroke="#231F20" stroke-width="2" stroke-miterlimit="10" d="M85.948,118.316
		c0,5.454-12.539,12.192-29.203,12.192c-16.67,0-29.203-5.996-29.203-11.45c0-5.455,13.42-9.152,30.09-9.152
		C74.296,109.906,85.948,112.863,85.948,118.316z"/>
</g>
</svg>
