<?xml version="1.0" encoding="utf-8"?>
<!-- Generator: Adobe Illustrator 16.0.0, SVG Export Plug-In . SVG Version: 6.00 Build 0)  -->
<!DOCTYPE svg PUBLIC "-//W3C//DTD SVG 1.1//EN" "http://www.w3.org/Graphics/SVG/1.1/DTD/svg11.dtd">
<svg version="1.1" id="Layer_1" xmlns="http://www.w3.org/2000/svg" xmlns:xlink="http://www.w3.org/1999/xlink" x="0px" y="0px"
	 width="311.811px" height="240.945px" viewBox="0 0 311.811 240.945" enable-background="new 0 0 311.811 240.945"
	 xml:space="preserve">
<g>
	<path fill="#9A8479" stroke="#231F20" stroke-linecap="round" stroke-linejoin="round" stroke-miterlimit="10" d="M291.906,133.573
		c0,4.362-3.537,7.899-7.899,7.899h-0.201c-4.362,0-7.899-3.537-7.899-7.899v-11.201c0-4.363,3.537-7.899,7.899-7.899h0.201
		c4.362,0,7.899,3.537,7.899,7.899V133.573z"/>
	<path fill="#9A8479" stroke="#231F20" stroke-linecap="round" stroke-linejoin="round" stroke-miterlimit="10" d="M36.906,218.573
		c0,4.362-3.537,7.899-7.899,7.899h-0.201c-4.363,0-7.899-3.537-7.899-7.899v-11.201c0-4.362,3.537-7.899,7.899-7.899h0.201
		c4.363,0,7.899,3.537,7.899,7.899V218.573z"/>
	<path fill="#9A8479" stroke="#231F20" stroke-linecap="round" stroke-linejoin="round" stroke-miterlimit="10" d="M223.906,218.573
		c0,4.362-3.537,7.899-7.899,7.899h-0.201c-4.362,0-7.899-3.537-7.899-7.899v-11.201c0-4.362,3.537-7.899,7.899-7.899h0.201
		c4.362,0,7.899,3.537,7.899,7.899V218.573z"/>
	
		<rect x="14.294" y="195.026" fill="#9A8479" stroke="#231F20" stroke-width="1.5" stroke-linecap="round" stroke-linejoin="round" stroke-miterlimit="10" width="213.537" height="8.474"/>
	
		<polygon fill="#9A8479" stroke="#231F20" stroke-width="1.5" stroke-linecap="round" stroke-linejoin="round" stroke-miterlimit="10" points="
		227.831,203.5 295.46,115.67 295.46,106.052 227.831,195.026 	"/>
	
		<polygon fill="#CCC0AB" stroke="#231F20" stroke-width="1.5" stroke-linecap="round" stroke-linejoin="round" stroke-miterlimit="10" points="
		296.368,106.052 86.32,106.052 14.294,195.026 227.831,195.026 	"/>
</g>
<path fill="none" stroke="#231F20" stroke-miterlimit="10" d="M189.546,168.758"/>
<g>
	
		<polygon opacity="0.7" fill="#FFFFFF" stroke="#231F20" stroke-width="1.5" stroke-linecap="round" stroke-linejoin="round" stroke-miterlimit="10" points="
		110.587,15.115 55.178,58.19 55.357,58.372 55.357,194.758 190.089,194.758 190.089,194.642 190.219,194.773 231.611,141.273 
		231.611,15.115 	"/>
	
		<polygon fill="none" stroke="#231F20" stroke-width="1.5" stroke-linecap="round" stroke-linejoin="round" stroke-miterlimit="10" points="
		109.587,15.115 54.178,58.19 54.357,58.372 54.357,194.758 189.089,194.758 189.089,194.642 189.219,194.773 230.611,141.273 
		230.611,15.115 	"/>
	
		<line fill="none" stroke="#231F20" stroke-width="1.5" stroke-linecap="round" stroke-linejoin="round" stroke-miterlimit="10" x1="189.546" y1="58.449" x2="231.111" y2="15.051"/>
	
		<rect x="54.509" y="58.331" fill="none" stroke="#231F20" stroke-width="1.5" stroke-linecap="round" stroke-linejoin="round" stroke-miterlimit="10" width="134.732" height="136.427"/>
</g>
<rect x="72.906" y="46.472" fill="#FFFFFF" stroke="#BCBEC0" stroke-miterlimit="10" width="48" height="157"/>
<line fill="none" stroke="#231F20" stroke-width="2" stroke-linecap="round" stroke-linejoin="round" stroke-miterlimit="10" x1="85.72" y1="59.39" x2="85.72" y2="194.203"/>
<line fill="none" stroke="#231F20" stroke-width="2" stroke-linecap="round" stroke-linejoin="round" stroke-miterlimit="10" x1="79.406" y1="58.972" x2="91.406" y2="58.972"/>
<line fill="none" stroke="#231F20" stroke-width="2" stroke-linecap="round" stroke-linejoin="round" stroke-miterlimit="10" x1="79.406" y1="126.972" x2="91.406" y2="126.972"/>
<line fill="none" stroke="#231F20" stroke-width="2" stroke-linecap="round" stroke-linejoin="round" stroke-miterlimit="10" x1="79.406" y1="194.972" x2="91.406" y2="194.972"/>
<g>
	<path fill="#231F20" d="M110.169,121.771h-1.646v-6.205c-0.602,0.563-1.311,0.979-2.127,1.248v-1.494
		c0.43-0.141,0.896-0.406,1.4-0.799s0.85-0.852,1.037-1.375h1.336V121.771z"/>
	<path fill="#231F20" d="M111.517,138.467v1.529h-5.771c0.063-0.578,0.25-1.125,0.563-1.643s0.93-1.205,1.852-2.061
		c0.742-0.691,1.197-1.16,1.365-1.406c0.227-0.34,0.34-0.676,0.34-1.008c0-0.367-0.099-0.648-0.296-0.846s-0.47-0.297-0.817-0.297
		c-0.344,0-0.617,0.104-0.82,0.311s-0.32,0.551-0.352,1.031l-1.641-0.164c0.098-0.906,0.404-1.557,0.92-1.951
		s1.16-0.592,1.934-0.592c0.848,0,1.514,0.229,1.998,0.686s0.727,1.025,0.727,1.705c0,0.387-0.069,0.756-0.208,1.105
		s-0.358,0.715-0.659,1.098c-0.199,0.254-0.559,0.619-1.078,1.096s-0.849,0.793-0.987,0.949s-0.251,0.309-0.337,0.457H111.517z"/>
</g>
<g>
	<path fill="#231F20" d="M107.994,62.922h-1.646v-6.205c-0.602,0.563-1.311,0.979-2.127,1.248V56.47
		c0.43-0.141,0.896-0.406,1.4-0.799s0.85-0.852,1.037-1.375h1.336V62.922z"/>
</g>
<g>
	<path fill="#231F20" d="M106.565,187.297c0.832,0,1.482,0.297,1.951,0.891c0.559,0.703,0.838,1.869,0.838,3.498
		c0,1.625-0.281,2.793-0.844,3.504c-0.465,0.586-1.113,0.879-1.945,0.879c-0.836,0-1.51-0.32-2.021-0.963s-0.768-1.789-0.768-3.438
		c0-1.617,0.281-2.781,0.844-3.492C105.084,187.59,105.733,187.297,106.565,187.297z M106.565,188.662
		c-0.199,0-0.377,0.064-0.533,0.191s-0.277,0.354-0.363,0.682c-0.113,0.426-0.17,1.143-0.17,2.15s0.051,1.701,0.152,2.078
		s0.229,0.627,0.384,0.752s0.331,0.188,0.53,0.188s0.377-0.063,0.533-0.189s0.277-0.355,0.363-0.684
		c0.113-0.422,0.17-1.137,0.17-2.145s-0.051-1.699-0.152-2.076s-0.229-0.629-0.384-0.756S106.764,188.662,106.565,188.662z"/>
</g>
<line fill="none" stroke="#231F20" stroke-miterlimit="10" x1="99.243" y1="126.5" x2="118.383" y2="126.068"/>
</svg>
