<?xml version="1.0" encoding="utf-8"?>
<!-- Generator: Adobe Illustrator 16.0.0, SVG Export Plug-In . SVG Version: 6.00 Build 0)  -->
<!DOCTYPE svg PUBLIC "-//W3C//DTD SVG 1.1//EN" "http://www.w3.org/Graphics/SVG/1.1/DTD/svg11.dtd">
<svg version="1.1" id="Layer_1" xmlns="http://www.w3.org/2000/svg" xmlns:xlink="http://www.w3.org/1999/xlink" x="0px" y="0px"
	 width="311.811px" height="240.945px" viewBox="0 0 311.811 240.945" enable-background="new 0 0 311.811 240.945"
	 xml:space="preserve">
<g>
	<path fill="#9A8479" stroke="#231F20" stroke-linecap="round" stroke-linejoin="round" stroke-miterlimit="10" d="M291.906,133.573
		c0,4.362-3.537,7.899-7.899,7.899h-0.201c-4.362,0-7.899-3.537-7.899-7.899v-11.201c0-4.363,3.537-7.899,7.899-7.899h0.201
		c4.362,0,7.899,3.537,7.899,7.899V133.573z"/>
	<path fill="#9A8479" stroke="#231F20" stroke-linecap="round" stroke-linejoin="round" stroke-miterlimit="10" d="M36.906,218.573
		c0,4.362-3.537,7.899-7.899,7.899h-0.201c-4.363,0-7.899-3.537-7.899-7.899v-11.201c0-4.362,3.537-7.899,7.899-7.899h0.201
		c4.363,0,7.899,3.537,7.899,7.899V218.573z"/>
	<path fill="#9A8479" stroke="#231F20" stroke-linecap="round" stroke-linejoin="round" stroke-miterlimit="10" d="M223.906,218.573
		c0,4.362-3.537,7.899-7.899,7.899h-0.201c-4.362,0-7.899-3.537-7.899-7.899v-11.201c0-4.362,3.537-7.899,7.899-7.899h0.201
		c4.362,0,7.899,3.537,7.899,7.899V218.573z"/>
	
		<rect x="14.294" y="195.026" fill="#9A8479" stroke="#231F20" stroke-width="1.5" stroke-linecap="round" stroke-linejoin="round" stroke-miterlimit="10" width="213.537" height="8.474"/>
	
		<polygon fill="#9A8479" stroke="#231F20" stroke-width="1.5" stroke-linecap="round" stroke-linejoin="round" stroke-miterlimit="10" points="
		227.831,203.5 295.46,115.67 295.46,106.052 227.831,195.026 	"/>
	
		<polygon fill="#CCC0AB" stroke="#231F20" stroke-width="1.5" stroke-linecap="round" stroke-linejoin="round" stroke-miterlimit="10" points="
		296.368,106.052 86.32,106.052 14.294,195.026 227.831,195.026 	"/>
</g>
<path fill="none" stroke="#231F20" stroke-miterlimit="10" d="M194.546,168.758"/>
<g>
	
		<polygon opacity="0.7" fill="#FFFFFF" stroke="#231F20" stroke-width="1.5" stroke-linecap="round" stroke-linejoin="round" stroke-miterlimit="10" points="
		115.587,15.115 60.178,58.19 60.357,58.372 60.357,194.758 195.089,194.758 195.089,194.642 195.219,194.773 236.611,141.273 
		236.611,15.115 	"/>
	
		<polygon fill="none" stroke="#231F20" stroke-width="1.5" stroke-linecap="round" stroke-linejoin="round" stroke-miterlimit="10" points="
		114.587,15.115 59.178,58.19 59.357,58.372 59.357,194.758 194.089,194.758 194.089,194.642 194.219,194.773 235.611,141.273 
		235.611,15.115 	"/>
	
		<line fill="none" stroke="#231F20" stroke-width="1.5" stroke-linecap="round" stroke-linejoin="round" stroke-miterlimit="10" x1="194.546" y1="58.449" x2="236.111" y2="15.05"/>
	
		<rect x="59.509" y="58.331" fill="none" stroke="#231F20" stroke-width="1.5" stroke-linecap="round" stroke-linejoin="round" stroke-miterlimit="10" width="134.732" height="136.427"/>
</g>
<rect x="76.906" y="45.472" fill="#FFFFFF" stroke="#BCBEC0" stroke-miterlimit="10" width="48" height="158"/>
<line fill="none" stroke="#231F20" stroke-width="2" stroke-linecap="round" stroke-linejoin="round" stroke-miterlimit="10" x1="89.608" y1="59.264" x2="89.833" y2="194.203"/>
<line fill="none" stroke="#231F20" stroke-width="2" stroke-linecap="round" stroke-linejoin="round" stroke-miterlimit="10" x1="83.406" y1="58.972" x2="95.406" y2="58.972"/>
<line fill="none" stroke="#231F20" stroke-width="2" stroke-linecap="round" stroke-linejoin="round" stroke-miterlimit="10" x1="83.406" y1="126.972" x2="95.406" y2="126.972"/>
<line fill="none" stroke="#231F20" stroke-width="2" stroke-linecap="round" stroke-linejoin="round" stroke-miterlimit="10" x1="83.406" y1="160.972" x2="95.406" y2="160.972"/>
<line fill="none" stroke="#231F20" stroke-width="2" stroke-linecap="round" stroke-linejoin="round" stroke-miterlimit="10" x1="83.406" y1="92.972" x2="95.406" y2="92.972"/>
<line fill="none" stroke="#231F20" stroke-width="2" stroke-linecap="round" stroke-linejoin="round" stroke-miterlimit="10" x1="83.406" y1="194.972" x2="95.406" y2="194.972"/>
<g>
	<path fill="#231F20" d="M114.169,157.771h-1.646v-6.205c-0.602,0.563-1.311,0.979-2.127,1.248v-1.494
		c0.43-0.141,0.896-0.406,1.4-0.799s0.85-0.852,1.037-1.375h1.336V157.771z"/>
	<path fill="#231F20" d="M113.185,175.996v-1.729h-3.516v-1.441l3.727-5.455h1.383v5.449h1.066v1.447h-1.066v1.729H113.185z
		 M113.185,172.82v-2.936l-1.975,2.936H113.185z"/>
</g>
<g>
	<path fill="#231F20" d="M113.994,61.922h-1.646v-6.205c-0.602,0.563-1.311,0.979-2.127,1.248v-1.494
		c0.43-0.141,0.896-0.407,1.4-0.8s0.85-0.851,1.037-1.374h1.336V61.922z"/>
</g>
<g>
	<path fill="#231F20" d="M112.565,186.297c0.832,0,1.482,0.297,1.951,0.891c0.559,0.703,0.838,1.869,0.838,3.498
		c0,1.625-0.281,2.793-0.844,3.504c-0.465,0.586-1.113,0.879-1.945,0.879c-0.836,0-1.51-0.32-2.021-0.963s-0.768-1.789-0.768-3.438
		c0-1.617,0.281-2.781,0.844-3.492C111.084,186.59,111.733,186.297,112.565,186.297z M112.565,187.662
		c-0.199,0-0.377,0.064-0.533,0.191s-0.277,0.354-0.363,0.682c-0.113,0.426-0.17,1.143-0.17,2.15s0.051,1.701,0.152,2.078
		s0.229,0.627,0.384,0.752s0.331,0.188,0.53,0.188s0.377-0.063,0.533-0.189s0.277-0.355,0.363-0.684
		c0.113-0.422,0.17-1.137,0.17-2.145s-0.051-1.699-0.152-2.076s-0.229-0.629-0.384-0.756S112.764,187.662,112.565,187.662z"/>
</g>
<line fill="none" stroke="#231F20" stroke-miterlimit="10" x1="103.243" y1="162.5" x2="122.383" y2="162.068"/>
<g>
	<path fill="#231F20" d="M114.169,120.772h-1.646v-6.205c-0.602,0.563-1.311,0.979-2.127,1.248v-1.494
		c0.43-0.141,0.896-0.407,1.4-0.8s0.85-0.851,1.037-1.374h1.336V120.772z"/>
	<path fill="#231F20" d="M109.898,136.717l1.594-0.193c0.051,0.406,0.188,0.717,0.41,0.932s0.492,0.322,0.809,0.322
		c0.34,0,0.626-0.129,0.858-0.387s0.349-0.605,0.349-1.043c0-0.414-0.111-0.742-0.334-0.984S113.089,135,112.769,135
		c-0.211,0-0.463,0.041-0.756,0.123l0.182-1.342c0.445,0.012,0.785-0.084,1.02-0.289s0.352-0.479,0.352-0.818
		c0-0.289-0.086-0.52-0.258-0.691s-0.4-0.258-0.686-0.258c-0.281,0-0.521,0.098-0.721,0.293s-0.32,0.48-0.363,0.855l-1.518-0.258
		c0.105-0.52,0.265-0.934,0.478-1.244s0.51-0.555,0.891-0.732s0.808-0.268,1.28-0.268c0.809,0,1.457,0.258,1.945,0.773
		c0.402,0.422,0.604,0.898,0.604,1.43c0,0.754-0.412,1.355-1.236,1.805c0.492,0.105,0.886,0.342,1.181,0.709s0.442,0.811,0.442,1.33
		c0,0.754-0.275,1.396-0.826,1.928s-1.236,0.797-2.057,0.797c-0.777,0-1.422-0.223-1.934-0.67S109.98,137.439,109.898,136.717z"/>
</g>
<line fill="none" stroke="#231F20" stroke-miterlimit="10" x1="103.243" y1="125.5" x2="122.383" y2="125.068"/>
<g>
	<path fill="#231F20" d="M114.169,82.772h-1.646v-6.205c-0.602,0.563-1.311,0.979-2.127,1.248v-1.494
		c0.43-0.141,0.896-0.407,1.4-0.8s0.85-0.851,1.037-1.374h1.336V82.772z"/>
	<path fill="#231F20" d="M115.517,99.467v1.529h-5.771c0.063-0.578,0.25-1.126,0.563-1.644s0.93-1.204,1.852-2.06
		c0.742-0.691,1.197-1.16,1.365-1.406c0.227-0.34,0.34-0.676,0.34-1.008c0-0.367-0.099-0.649-0.296-0.847s-0.47-0.296-0.817-0.296
		c-0.344,0-0.617,0.104-0.82,0.311s-0.32,0.551-0.352,1.031l-1.641-0.164c0.098-0.906,0.404-1.557,0.92-1.951
		s1.16-0.592,1.934-0.592c0.848,0,1.514,0.229,1.998,0.686s0.727,1.025,0.727,1.705c0,0.387-0.069,0.755-0.208,1.104
		s-0.358,0.716-0.659,1.099c-0.199,0.254-0.559,0.619-1.078,1.096s-0.849,0.793-0.987,0.949s-0.251,0.309-0.337,0.457H115.517z"/>
</g>
<line fill="none" stroke="#231F20" stroke-miterlimit="10" x1="103.243" y1="87.5" x2="122.383" y2="87.068"/>
</svg>
