<?xml version="1.0" encoding="utf-8"?>
<!-- Generator: Adobe Illustrator 16.0.0, SVG Export Plug-In . SVG Version: 6.00 Build 0)  -->
<!DOCTYPE svg PUBLIC "-//W3C//DTD SVG 1.1//EN" "http://www.w3.org/Graphics/SVG/1.1/DTD/svg11.dtd">
<svg version="1.1" id="Layer_1" xmlns="http://www.w3.org/2000/svg" xmlns:xlink="http://www.w3.org/1999/xlink" x="0px" y="0px"
	 width="311.811px" height="283.46px" viewBox="0 0 311.811 283.46" enable-background="new 0 0 311.811 283.46"
	 xml:space="preserve">
<g>
	<g>
		<path fill="#9A8479" stroke="#231F20" stroke-linecap="round" stroke-linejoin="round" stroke-miterlimit="10" d="
			M291.906,158.601c0,4.361-3.942,8.129-8.305,8.129H283.4c-4.362,0-7.494-3.768-7.494-8.129V147.4c0-4.363,3.132-7.67,7.494-7.67
			h0.201c4.362,0,8.305,3.307,8.305,7.67V158.601z"/>
		<path fill="#9A8479" stroke="#231F20" stroke-linecap="round" stroke-linejoin="round" stroke-miterlimit="10" d="M37.906,244.601
			c0,4.361-3.942,8.129-8.305,8.129H29.4c-4.362,0-7.494-3.768-7.494-8.129V233.4c0-4.363,3.132-7.67,7.494-7.67h0.201
			c4.362,0,8.305,3.307,8.305,7.67V244.601z"/>
		<path fill="#9A8479" stroke="#231F20" stroke-linecap="round" stroke-linejoin="round" stroke-miterlimit="10" d="
			M224.906,244.601c0,4.361-3.942,8.129-8.305,8.129H216.4c-4.362,0-7.494-3.768-7.494-8.129V233.4c0-4.363,3.132-7.67,7.494-7.67
			h0.201c4.362,0,8.305,3.307,8.305,7.67V244.601z"/>
		
			<polygon fill="#9A8479" stroke="#231F20" stroke-width="1.5" stroke-linecap="round" stroke-linejoin="round" stroke-miterlimit="10" points="
			228.112,229.5 295.74,141.67 295.74,132.053 228.112,221.027 		"/>
		
			<polygon fill="#CCC0AB" stroke="#231F20" stroke-width="1.5" stroke-linecap="round" stroke-linejoin="round" stroke-miterlimit="10" points="
			296.649,132.053 86.6,132.053 14.574,221.027 228.112,221.027 		"/>
	</g>
	
		<rect x="14.574" y="221.027" fill="#9A8479" stroke="#231F20" stroke-width="1.5" stroke-linecap="round" stroke-linejoin="round" stroke-miterlimit="10" width="213.538" height="8.473"/>
</g>
<polygon fill="#FFFFFF" stroke="#231F20" stroke-width="1.5" stroke-linecap="round" stroke-linejoin="round" stroke-miterlimit="10" points="
	133.867,17.115 78.458,60.19 78.637,60.372 78.637,196.757 213.369,196.757 213.369,196.642 213.499,196.773 254.891,143.273 
	254.891,17.115 "/>
<path fill="none" stroke="#231F20" stroke-miterlimit="10" d="M212.826,196.757"/>
<rect x="77.906" y="162.73" fill="#FFFFFF" stroke="#00A651" stroke-miterlimit="10" width="135" height="34"/>
<rect x="77.406" y="60.23" fill="#8EB2C5" width="135" height="137"/>
<polygon fill="#ACD1E2" points="254.241,18.23 134.14,18.23 77.366,61.23 212.098,61.23 "/>
<polygon fill="#8EB2C5" points="212.406,196.605 254.406,142.069 254.406,18.444 212.406,62.711 "/>
<line fill="none" stroke="#231F20" stroke-width="1.5" stroke-linecap="round" stroke-linejoin="round" stroke-miterlimit="10" x1="212.826" y1="60.449" x2="254.391" y2="17.05"/>
<rect x="77.789" y="60.331" fill="none" stroke="#231F20" stroke-width="1.5" stroke-linecap="round" stroke-linejoin="round" stroke-miterlimit="10" width="134.732" height="136.426"/>
<g>
	<path d="M85.724,269.24v-10.021h3.028l1.818,6.836l1.798-6.836h3.035v10.021h-1.88v-7.889l-1.989,7.889h-1.948l-1.982-7.889v7.889
		H85.724z"/>
	<path d="M96.955,265.507c0-0.639,0.157-1.256,0.472-1.854c0.314-0.596,0.76-1.053,1.337-1.367c0.576-0.314,1.22-0.471,1.931-0.471
		c1.099,0,1.999,0.355,2.7,1.07c0.701,0.713,1.053,1.613,1.053,2.703c0,1.098-0.354,2.008-1.063,2.73
		c-0.709,0.723-1.602,1.084-2.677,1.084c-0.665,0-1.3-0.15-1.903-0.451c-0.604-0.301-1.063-0.742-1.378-1.322
		C97.113,267.048,96.955,266.341,96.955,265.507z M98.924,265.609c0,0.721,0.171,1.271,0.513,1.654s0.763,0.574,1.265,0.574
		s0.922-0.191,1.262-0.574c0.339-0.383,0.509-0.938,0.509-1.668c0-0.711-0.17-1.258-0.509-1.641c-0.34-0.383-0.76-0.574-1.262-0.574
		s-0.923,0.191-1.265,0.574S98.924,264.89,98.924,265.609z"/>
	<path d="M105.808,261.98h1.771v0.99c0.633-0.77,1.388-1.154,2.263-1.154c0.465,0,0.868,0.096,1.21,0.287s0.622,0.48,0.841,0.867
		c0.319-0.387,0.663-0.676,1.032-0.867s0.764-0.287,1.183-0.287c0.533,0,0.984,0.107,1.354,0.324s0.646,0.535,0.827,0.953
		c0.133,0.311,0.198,0.813,0.198,1.504v4.643h-1.921v-4.15c0-0.719-0.066-1.184-0.198-1.395c-0.178-0.273-0.451-0.41-0.82-0.41
		c-0.269,0-0.522,0.082-0.759,0.246s-0.408,0.404-0.513,0.723c-0.104,0.316-0.157,0.816-0.157,1.5v3.486h-1.921v-3.979
		c0-0.707-0.034-1.162-0.103-1.367s-0.174-0.357-0.318-0.459c-0.143-0.1-0.338-0.15-0.584-0.15c-0.297,0-0.563,0.08-0.8,0.24
		s-0.407,0.389-0.509,0.689c-0.104,0.301-0.154,0.801-0.154,1.498v3.527h-1.921V261.98z"/>
	<path d="M122.604,266.929l1.914,0.32c-0.246,0.703-0.635,1.236-1.166,1.604c-0.53,0.367-1.195,0.551-1.992,0.551
		c-1.262,0-2.197-0.412-2.803-1.238c-0.479-0.66-0.718-1.494-0.718-2.502c0-1.203,0.314-2.145,0.943-2.826s1.425-1.021,2.386-1.021
		c1.08,0,1.932,0.355,2.557,1.07c0.625,0.713,0.923,1.805,0.896,3.277h-4.813c0.014,0.57,0.169,1.012,0.465,1.33
		c0.296,0.316,0.665,0.475,1.107,0.475c0.301,0,0.554-0.082,0.759-0.246S122.498,267.294,122.604,266.929z M122.713,264.988
		c-0.014-0.557-0.157-0.979-0.431-1.268c-0.273-0.291-0.606-0.436-0.998-0.436c-0.419,0-0.766,0.154-1.039,0.459
		s-0.407,0.721-0.403,1.244H122.713z"/>
	<path d="M132.789,269.24h-1.921v-3.705c0-0.783-0.041-1.291-0.123-1.521s-0.216-0.408-0.399-0.537
		c-0.186-0.127-0.407-0.191-0.667-0.191c-0.333,0-0.632,0.092-0.896,0.273c-0.264,0.184-0.445,0.424-0.543,0.725
		c-0.099,0.301-0.147,0.857-0.147,1.668v3.289h-1.921v-7.26h1.784v1.066c0.634-0.82,1.431-1.23,2.393-1.23
		c0.424,0,0.812,0.076,1.162,0.229s0.616,0.348,0.796,0.584c0.181,0.238,0.306,0.506,0.377,0.807
		c0.07,0.301,0.105,0.732,0.105,1.293V269.24z"/>
	<path d="M138.067,261.98v1.531h-1.313v2.926c0,0.592,0.013,0.938,0.037,1.035c0.025,0.098,0.082,0.18,0.172,0.242
		c0.088,0.064,0.197,0.096,0.324,0.096c0.178,0,0.436-0.061,0.772-0.184l0.164,1.49c-0.446,0.191-0.952,0.287-1.518,0.287
		c-0.347,0-0.659-0.059-0.937-0.174c-0.277-0.117-0.482-0.268-0.611-0.451c-0.131-0.186-0.221-0.436-0.271-0.75
		c-0.041-0.223-0.062-0.674-0.062-1.354v-3.164h-0.882v-1.531h0.882v-1.443l1.928-1.121v2.564H138.067z"/>
	<path d="M138.955,265.507c0-0.639,0.157-1.256,0.472-1.854c0.314-0.596,0.76-1.053,1.337-1.367c0.576-0.314,1.22-0.471,1.931-0.471
		c1.099,0,1.999,0.355,2.7,1.07c0.701,0.713,1.053,1.613,1.053,2.703c0,1.098-0.354,2.008-1.063,2.73
		c-0.709,0.723-1.602,1.084-2.677,1.084c-0.665,0-1.3-0.15-1.903-0.451c-0.604-0.301-1.063-0.742-1.378-1.322
		C139.113,267.048,138.955,266.341,138.955,265.507z M140.924,265.609c0,0.721,0.171,1.271,0.513,1.654s0.763,0.574,1.265,0.574
		s0.922-0.191,1.262-0.574c0.339-0.383,0.509-0.938,0.509-1.668c0-0.711-0.17-1.258-0.509-1.641c-0.34-0.383-0.76-0.574-1.262-0.574
		s-0.923,0.191-1.265,0.574S140.924,264.89,140.924,265.609z"/>
	<path d="M155.198,269.24v-2.018h-4.102v-1.682l4.348-6.363h1.613v6.357h1.244v1.688h-1.244v2.018H155.198z M155.198,265.535v-3.426
		l-2.304,3.426H155.198z"/>
</g>
</svg>
