<?xml version="1.0" encoding="utf-8"?>
<!-- Generator: Adobe Illustrator 16.0.0, SVG Export Plug-In . SVG Version: 6.00 Build 0)  -->
<!DOCTYPE svg PUBLIC "-//W3C//DTD SVG 1.1//EN" "http://www.w3.org/Graphics/SVG/1.1/DTD/svg11.dtd">
<svg version="1.1" id="Layer_1" xmlns="http://www.w3.org/2000/svg" xmlns:xlink="http://www.w3.org/1999/xlink" x="0px" y="0px"
	 width="127.56px" height="141.73px" viewBox="0 0 127.56 141.73" enable-background="new 0 0 127.56 141.73" xml:space="preserve">
<path fill="#F8E69B" stroke="#EC2227" stroke-width="3" stroke-miterlimit="10" d="M36.003,42.592c2.771-0.62,5.3-0.89,7.604-0.89
	c15.769,0,21.007,12.668,21.007,12.668s5.236-12.668,21.005-12.668c2.308,0,4.837,0.27,7.607,0.89
	c20.873,4.67,22.993,27.217,19.054,47.324c-3.047,15.536-17.069,38.1-33.154,38.1c-4.734,0-9.649-1.956-14.512-6.619
	c-4.863,4.665-9.777,6.619-14.511,6.619c-16.083,0-30.107-22.565-33.152-38.1C13.007,69.809,15.13,47.262,36.003,42.592
	L36.003,42.592z"/>
<path fill="#08A650" d="M84.38,31.657c5.652-5.65,6.546-14.96,6.59-19.862c-4.316,0.04-14.082,0.813-19.86,6.592
	c-5.652,5.653-6.545,14.96-6.589,19.864C68.837,38.211,78.602,37.436,84.38,31.657L84.38,31.657z M84.38,31.657"/>
<path fill="#231F20" d="M58.358,72.775c-1.736,1.279-8.592,17.073-2.986,18.452C61.865,92.825,59.773,74.775,58.358,72.775z
	 M61.031,84.595"/>
<path fill="#231F20" d="M74.807,91.147c5.503-1.745-2.377-17.054-4.194-18.216C69.332,75.021,68.433,93.168,74.807,91.147z
	 M68.723,84.901"/>
<path fill="none" stroke="#231F20" stroke-width="3" stroke-linecap="round" stroke-linejoin="round" stroke-miterlimit="10" d="
	M53.503,22.471c0,0,15.667,9.567,12.249,28.566"/>
</svg>
