<?xml version="1.0" encoding="utf-8"?>
<!-- Generator: Adobe Illustrator 16.0.0, SVG Export Plug-In . SVG Version: 6.00 Build 0)  -->
<!DOCTYPE svg PUBLIC "-//W3C//DTD SVG 1.1//EN" "http://www.w3.org/Graphics/SVG/1.1/DTD/svg11.dtd">
<svg version="1.1" id="Layer_1" xmlns="http://www.w3.org/2000/svg" xmlns:xlink="http://www.w3.org/1999/xlink" x="0px" y="0px"
	 width="255.12px" height="141.73px" viewBox="0 0 255.12 141.73" enable-background="new 0 0 255.12 141.73" xml:space="preserve">
<path fill="#A87C4F" stroke="#231F20" stroke-linecap="round" stroke-linejoin="round" stroke-miterlimit="10" d="M223.334,9.817"/>
<circle fill="#F7C434" cx="191.202" cy="69.107" r="40.349"/>
<g>
	<path fill="#F9BF76" d="M191.201,123.203c-29.826,0-54.096-24.268-54.096-54.096s24.27-54.096,54.096-54.096
		c29.83,0,54.098,24.268,54.098,54.096S221.031,123.203,191.201,123.203z M191.201,24.125c-24.803,0-44.982,20.178-44.982,44.982
		c0,24.803,20.18,44.983,44.982,44.983c24.805,0,44.984-20.18,44.984-44.983C236.186,44.303,216.006,24.125,191.201,24.125z"/>
</g>
<g>
	<circle fill="#D1313D" cx="190.205" cy="38.725" r="3.275"/>
	<path fill="#D1313D" d="M175.482,44.712c0.424,2.337-1.129,4.575-3.467,4.997c-2.338,0.423-4.576-1.13-4.998-3.468
		c-0.42-2.337,1.131-4.575,3.469-4.997C172.822,40.822,175.061,42.375,175.482,44.712z"/>
	<circle fill="#D1313D" cx="181.663" cy="57.322" r="4.302"/>
	<circle fill="#D1313D" cx="215.203" cy="84.099" r="4.301"/>
	<circle fill="#D1313D" cx="159.146" cy="65.761" r="5.325"/>
	<circle fill="#D1313D" cx="204.436" cy="93.235" r="3.087"/>
	<circle fill="#D1313D" cx="218.735" cy="69.328" r="2.76"/>
	<circle fill="#D1313D" cx="176.924" cy="76.881" r="3.261"/>
	<circle fill="#D1313D" cx="200.129" cy="60.254" r="4.439"/>
	<circle fill="#D1313D" cx="207.523" cy="43.164" r="4.439"/>
	<circle fill="#D1313D" cx="218.216" cy="56.563" r="3.795"/>
	<circle fill="#D1313D" cx="165.93" cy="86.031" r="4.116"/>
	<circle fill="#D1313D" cx="186.345" cy="99.641" r="5.862"/>
	<circle fill="#D1313D" cx="195.918" cy="79.058" r="5.863"/>
</g>
<line fill="none" stroke="#FFFFFF" stroke-width="4" stroke-miterlimit="10" x1="219.352" y1="118.554" x2="190.824" y2="69.141"/>
<line fill="none" stroke="#FFFFFF" stroke-width="4" stroke-miterlimit="10" x1="190.939" y1="69.342" x2="219.352" y2="20.126"/>
<line fill="none" stroke="#FFFFFF" stroke-width="4" stroke-miterlimit="10" x1="134" y1="69" x2="191" y2="69"/>
<path fill="none" stroke="#231F20" stroke-linecap="round" stroke-linejoin="round" stroke-miterlimit="10" d="M195.916,15.216
	c0,0,44.25,5.885,49.383,48.453c3.191,26.462-12.262,45.748-30.096,53.907c-33.539,15.346-59.451-4.982-65.463-13.77"/>
<path fill="#F7C434" d="M214.727,51.26"/>
<path fill="#A87C4F" stroke="#231F20" stroke-linecap="round" stroke-linejoin="round" stroke-miterlimit="10" d="M97.334,9.817"/>
<circle fill="#F7C434" cx="65.204" cy="69.107" r="40.349"/>
<g>
	<path fill="#F9BF76" d="M65.203,123.203c-29.828,0-54.096-24.268-54.096-54.096s24.268-54.096,54.096-54.096
		s54.096,24.268,54.096,54.096S95.031,123.203,65.203,123.203z M65.203,24.125c-24.803,0-44.982,20.178-44.982,44.982
		c0,24.803,20.18,44.983,44.982,44.983s44.982-20.18,44.982-44.983C110.186,44.303,90.006,24.125,65.203,24.125z"/>
</g>
<g>
	<circle fill="#D1313D" cx="64.206" cy="38.725" r="3.274"/>
	<circle fill="#D1313D" cx="45.252" cy="45.477" r="4.301"/>
	<circle fill="#D1313D" cx="55.664" cy="57.322" r="4.301"/>
	<circle fill="#D1313D" cx="89.204" cy="84.099" r="4.302"/>
	<circle fill="#D1313D" cx="33.146" cy="65.761" r="5.325"/>
	<circle fill="#D1313D" cx="78.438" cy="93.235" r="3.087"/>
	<circle fill="#D1313D" cx="92.737" cy="69.328" r="2.76"/>
	<circle fill="#D1313D" cx="50.926" cy="76.881" r="3.261"/>
	<circle fill="#D1313D" cx="74.129" cy="60.254" r="4.439"/>
	<circle fill="#D1313D" cx="81.524" cy="43.164" r="4.439"/>
	<circle fill="#D1313D" cx="92.217" cy="56.563" r="3.795"/>
	<circle fill="#D1313D" cx="39.932" cy="86.031" r="4.116"/>
	<circle fill="#D1313D" cx="60.346" cy="99.641" r="5.863"/>
	<circle fill="#D1313D" cx="69.919" cy="79.058" r="5.862"/>
</g>
<line fill="none" stroke="#FFFFFF" stroke-width="4" stroke-miterlimit="10" x1="93.354" y1="118.554" x2="64.824" y2="69.141"/>
<line fill="none" stroke="#FFFFFF" stroke-width="4" stroke-miterlimit="10" x1="64.939" y1="69.342" x2="93.354" y2="20.126"/>
<line fill="none" stroke="#FFFFFF" stroke-width="4" stroke-miterlimit="10" x1="8" y1="69" x2="65" y2="69"/>
<path fill="none" stroke="#231F20" stroke-linecap="round" stroke-linejoin="round" stroke-miterlimit="10" d="M69.918,15.216
	c0,0,44.248,5.885,49.381,48.453c3.191,26.462-12.262,45.748-30.094,53.907c-33.541,15.346-59.453-4.982-65.463-13.77"/>
<path fill="#F7C434" d="M88.729,51.26"/>
</svg>
