<?xml version="1.0" encoding="utf-8"?>
<!-- Generator: Adobe Illustrator 16.0.0, SVG Export Plug-In . SVG Version: 6.00 Build 0)  -->
<!DOCTYPE svg PUBLIC "-//W3C//DTD SVG 1.1//EN" "http://www.w3.org/Graphics/SVG/1.1/DTD/svg11.dtd">
<svg version="1.1" id="Layer_1" xmlns="http://www.w3.org/2000/svg" xmlns:xlink="http://www.w3.org/1999/xlink" x="0px" y="0px"
	 width="325.98px" height="155.91px" viewBox="0 0 325.98 155.91" enable-background="new 0 0 325.98 155.91" xml:space="preserve">
<g>
	<g>
		
			<rect x="13.157" y="30.441" transform="matrix(0.8836 -0.4682 0.4682 0.8836 -9.5247 27.3492)" fill="#231F20" width="74.195" height="4.787"/>
		
			<rect x="13.157" y="65.544" transform="matrix(0.8836 0.4682 -0.4682 0.8836 37.6552 -15.6226)" fill="#231F20" width="74.195" height="4.787"/>
		<rect x="16.354" y="48.105" fill="#231F20" width="3.983" height="4.525"/>
		<circle fill="none" stroke="#231F20" stroke-miterlimit="10" cx="51.099" cy="38.255" r="2.753"/>
		<circle fill="none" stroke="#231F20" stroke-miterlimit="10" cx="51.099" cy="44.255" r="2.753"/>
		<circle fill="none" stroke="#231F20" stroke-miterlimit="10" cx="51.099" cy="50.256" r="2.753"/>
		<circle fill="none" stroke="#231F20" stroke-miterlimit="10" cx="51.099" cy="56.256" r="2.753"/>
		<circle fill="none" stroke="#231F20" stroke-miterlimit="10" cx="51.099" cy="62.256" r="2.753"/>
		<circle fill="none" stroke="#231F20" stroke-miterlimit="10" cx="72.099" cy="44.255" r="2.753"/>
		<circle fill="none" stroke="#231F20" stroke-miterlimit="10" cx="72.099" cy="50.256" r="2.753"/>
		<circle fill="none" stroke="#231F20" stroke-miterlimit="10" cx="72.099" cy="56.256" r="2.753"/>
		<circle fill="none" stroke="#231F20" stroke-miterlimit="10" cx="72.099" cy="26.255" r="2.753"/>
		<circle fill="none" stroke="#231F20" stroke-miterlimit="10" cx="72.099" cy="32.256" r="2.753"/>
		<circle fill="none" stroke="#231F20" stroke-miterlimit="10" cx="72.099" cy="38.256" r="2.753"/>
		<circle fill="none" stroke="#231F20" stroke-miterlimit="10" cx="72.099" cy="62.256" r="2.753"/>
		<circle fill="none" stroke="#231F20" stroke-miterlimit="10" cx="72.099" cy="68.256" r="2.753"/>
		<circle fill="none" stroke="#231F20" stroke-miterlimit="10" cx="72.099" cy="74.256" r="2.753"/>
	</g>
	<g>
		
			<rect x="239.928" y="30.441" transform="matrix(-0.8836 -0.4682 0.4682 -0.8836 506.4415 191.5468)" fill="#231F20" width="74.195" height="4.787"/>
		
			<rect x="239.928" y="65.544" transform="matrix(-0.8836 0.4682 -0.4682 -0.8836 553.6214 -1.7275)" fill="#231F20" width="74.195" height="4.787"/>
		<rect x="306.943" y="48.105" fill="#231F20" width="3.983" height="4.525"/>
		<circle fill="none" stroke="#231F20" stroke-miterlimit="10" cx="276.181" cy="38.255" r="2.753"/>
		<circle fill="none" stroke="#231F20" stroke-miterlimit="10" cx="276.181" cy="44.255" r="2.753"/>
		<circle fill="none" stroke="#231F20" stroke-miterlimit="10" cx="276.181" cy="50.256" r="2.753"/>
		<circle fill="none" stroke="#231F20" stroke-miterlimit="10" cx="276.181" cy="56.256" r="2.753"/>
		<circle fill="none" stroke="#231F20" stroke-miterlimit="10" cx="276.181" cy="62.256" r="2.753"/>
		<circle fill="none" stroke="#231F20" stroke-miterlimit="10" cx="255.181" cy="44.255" r="2.753"/>
		<circle fill="none" stroke="#231F20" stroke-miterlimit="10" cx="255.181" cy="50.256" r="2.753"/>
		<circle fill="none" stroke="#231F20" stroke-miterlimit="10" cx="255.181" cy="56.256" r="2.753"/>
		<circle fill="none" stroke="#231F20" stroke-miterlimit="10" cx="255.181" cy="26.255" r="2.753"/>
		<circle fill="none" stroke="#231F20" stroke-miterlimit="10" cx="255.181" cy="32.256" r="2.753"/>
		<circle fill="none" stroke="#231F20" stroke-miterlimit="10" cx="255.181" cy="38.256" r="2.753"/>
		<circle fill="none" stroke="#231F20" stroke-miterlimit="10" cx="255.181" cy="62.256" r="2.753"/>
		<circle fill="none" stroke="#231F20" stroke-miterlimit="10" cx="255.181" cy="68.256" r="2.753"/>
		<circle fill="none" stroke="#231F20" stroke-miterlimit="10" cx="255.181" cy="74.256" r="2.753"/>
	</g>
	<rect x="134" y="25" fill="#231F20" width="60" height="5"/>
	<rect x="134" y="50" fill="#231F20" width="60" height="5"/>
	<g>
		<path fill="#231F20" d="M20.179,116.889c-0.203-0.125-0.379-0.289-0.527-0.492s-0.26-0.434-0.334-0.691s-0.104-0.531-0.088-0.82
			s0.086-0.582,0.211-0.879c0.063-0.156,0.174-0.266,0.334-0.328s0.314-0.078,0.463-0.047s0.266,0.107,0.352,0.229
			s0.09,0.287,0.012,0.498c-0.133,0.328-0.164,0.607-0.094,0.838s0.203,0.432,0.398,0.604c0.125,0.109,0.184,0.244,0.176,0.404
			s-0.053,0.305-0.135,0.434s-0.193,0.225-0.334,0.287S20.327,116.975,20.179,116.889z M22.042,116.631
			c-0.203-0.125-0.379-0.289-0.527-0.492s-0.26-0.434-0.334-0.691s-0.104-0.531-0.088-0.82s0.086-0.582,0.211-0.879
			c0.063-0.156,0.174-0.266,0.334-0.328s0.314-0.078,0.463-0.047s0.266,0.107,0.352,0.229s0.09,0.287,0.012,0.498
			c-0.133,0.328-0.164,0.607-0.094,0.838s0.203,0.432,0.398,0.604c0.125,0.109,0.184,0.244,0.176,0.404s-0.053,0.305-0.135,0.434
			s-0.193,0.225-0.334,0.287S22.19,116.717,22.042,116.631z"/>
		<path fill="#231F20" d="M23.132,122.713c0.109-0.711,0.189-1.336,0.24-1.875s0.08-1.01,0.088-1.412s0.002-0.742-0.018-1.02
			s-0.045-0.514-0.076-0.709s-0.064-0.354-0.1-0.475s-0.057-0.225-0.064-0.311c-0.016-0.117-0.006-0.221,0.029-0.311
			s0.086-0.166,0.152-0.229s0.143-0.111,0.229-0.146s0.172-0.053,0.258-0.053c0.172,0,0.305,0.027,0.398,0.082
			s0.166,0.135,0.217,0.24s0.086,0.234,0.105,0.387s0.037,0.33,0.053,0.533c0.102-0.172,0.219-0.346,0.352-0.521
			s0.281-0.334,0.445-0.475s0.346-0.256,0.545-0.346s0.416-0.135,0.65-0.135c0.242,0,0.473,0.045,0.691,0.135
			s0.416,0.215,0.592,0.375s0.324,0.348,0.445,0.563s0.213,0.447,0.275,0.697c0.172-0.328,0.361-0.641,0.568-0.938
			s0.486-0.527,0.838-0.691s0.68-0.211,0.984-0.141s0.572,0.213,0.803,0.428s0.412,0.484,0.545,0.809s0.199,0.662,0.199,1.014
			c0,0.406-0.025,0.832-0.076,1.277s-0.096,0.859-0.135,1.242s-0.053,0.703-0.041,0.961s0.08,0.402,0.205,0.434
			c0.211,0.055,0.414-0.008,0.609-0.188s0.373-0.402,0.533-0.668s0.301-0.537,0.422-0.814s0.217-0.494,0.287-0.65
			c0.055-0.133,0.143-0.215,0.264-0.246s0.238-0.023,0.352,0.023s0.207,0.131,0.281,0.252s0.1,0.268,0.076,0.439
			c-0.094,0.383-0.223,0.766-0.387,1.148s-0.369,0.729-0.615,1.037s-0.541,0.559-0.885,0.75s-0.738,0.287-1.184,0.287
			c-0.297,0-0.541-0.08-0.732-0.24s-0.342-0.355-0.451-0.586s-0.184-0.475-0.223-0.732s-0.059-0.484-0.059-0.68
			c0-0.281,0.018-0.551,0.053-0.809s0.076-0.51,0.123-0.756s0.088-0.484,0.123-0.715s0.053-0.455,0.053-0.674
			c0-0.297-0.033-0.531-0.1-0.703s-0.162-0.258-0.287-0.258c-0.242,0-0.471,0.143-0.686,0.428s-0.41,0.652-0.586,1.102
			s-0.332,0.957-0.469,1.523s-0.244,1.131-0.322,1.693c-0.023,0.195-0.109,0.334-0.258,0.416s-0.307,0.113-0.475,0.094
			s-0.32-0.082-0.457-0.188s-0.205-0.248-0.205-0.428c0.016-0.102,0.041-0.287,0.076-0.557s0.066-0.576,0.094-0.92
			s0.043-0.701,0.047-1.072s-0.02-0.713-0.07-1.025s-0.137-0.568-0.258-0.768s-0.291-0.299-0.51-0.299
			c-0.18,0-0.352,0.084-0.516,0.252s-0.322,0.393-0.475,0.674s-0.291,0.605-0.416,0.973s-0.236,0.754-0.334,1.16
			s-0.18,0.816-0.246,1.23s-0.111,0.805-0.135,1.172c-0.023,0.195-0.115,0.332-0.275,0.41s-0.33,0.109-0.51,0.094
			s-0.34-0.074-0.48-0.176S23.116,122.877,23.132,122.713z"/>
		<path fill="#231F20" d="M38.226,117.498c-0.016,0.391-0.086,0.783-0.211,1.178s-0.309,0.75-0.551,1.066s-0.537,0.57-0.885,0.762
			s-0.744,0.271-1.189,0.24c0.008,0.242,0.035,0.477,0.082,0.703s0.123,0.42,0.229,0.58s0.248,0.273,0.428,0.34
			s0.406,0.057,0.68-0.029c0.273-0.078,0.535-0.207,0.785-0.387s0.475-0.387,0.674-0.621s0.367-0.482,0.504-0.744
			s0.236-0.518,0.299-0.768c0.031-0.133,0.105-0.215,0.223-0.246s0.24-0.027,0.369,0.012s0.238,0.107,0.328,0.205
			s0.119,0.209,0.088,0.334c-0.172,0.453-0.342,0.855-0.51,1.207s-0.354,0.662-0.557,0.932s-0.432,0.498-0.686,0.686
			s-0.553,0.344-0.896,0.469c-0.461,0.164-0.887,0.236-1.277,0.217s-0.73-0.123-1.02-0.311s-0.518-0.453-0.686-0.797
			s-0.264-0.762-0.287-1.254c-0.016-0.234-0.021-0.518-0.018-0.85s0.025-0.68,0.064-1.043s0.102-0.732,0.188-1.107
			s0.203-0.725,0.352-1.049s0.334-0.609,0.557-0.855s0.494-0.424,0.814-0.533c0.266-0.094,0.527-0.129,0.785-0.105
			s0.486,0.105,0.686,0.246s0.357,0.338,0.475,0.592S38.233,117.131,38.226,117.498z M36.749,117.193
			c-0.109-0.07-0.217-0.076-0.322-0.018s-0.205,0.156-0.299,0.293s-0.176,0.299-0.246,0.486s-0.129,0.381-0.176,0.58
			s-0.082,0.389-0.105,0.568s-0.027,0.324-0.012,0.434c0.359-0.07,0.645-0.219,0.855-0.445s0.357-0.469,0.439-0.727
			s0.109-0.5,0.082-0.727S36.866,117.264,36.749,117.193z"/>
		<path fill="#231F20" d="M39.011,117.439c0.039-0.258,0.133-0.445,0.281-0.563s0.305-0.17,0.469-0.158s0.311,0.088,0.439,0.229
			s0.197,0.34,0.205,0.598v0.258c0.141-0.188,0.297-0.375,0.469-0.563s0.357-0.354,0.557-0.498s0.42-0.25,0.662-0.316
			s0.504-0.072,0.785-0.018c0.289,0.063,0.521,0.186,0.697,0.369s0.307,0.406,0.393,0.668s0.137,0.549,0.152,0.861
			s0.014,0.627-0.006,0.943s-0.049,0.625-0.088,0.926s-0.072,0.568-0.1,0.803s-0.039,0.424-0.035,0.568s0.041,0.221,0.111,0.229
			c0.117,0.016,0.244-0.016,0.381-0.094s0.275-0.205,0.416-0.381s0.277-0.398,0.41-0.668s0.246-0.588,0.34-0.955
			c0.039-0.164,0.123-0.256,0.252-0.275s0.256,0.004,0.381,0.07s0.23,0.166,0.316,0.299s0.105,0.27,0.059,0.41
			c-0.148,0.445-0.322,0.861-0.521,1.248s-0.42,0.717-0.662,0.99s-0.506,0.479-0.791,0.615s-0.584,0.174-0.896,0.111
			s-0.553-0.182-0.721-0.357s-0.287-0.387-0.357-0.633s-0.102-0.516-0.094-0.809s0.031-0.592,0.07-0.896s0.082-0.602,0.129-0.891
			s0.074-0.551,0.082-0.785s-0.012-0.432-0.059-0.592s-0.148-0.26-0.305-0.299c-0.211-0.055-0.414-0.012-0.609,0.129
			s-0.377,0.346-0.545,0.615s-0.322,0.58-0.463,0.932s-0.262,0.711-0.363,1.078s-0.182,0.725-0.24,1.072s-0.092,0.643-0.1,0.885
			c-0.023,0.109-0.102,0.205-0.234,0.287s-0.277,0.131-0.434,0.146s-0.307-0.016-0.451-0.094s-0.236-0.227-0.275-0.445
			c-0.008-0.141-0.004-0.303,0.012-0.486s0.039-0.453,0.07-0.809s0.064-0.83,0.1-1.424S38.972,118.4,39.011,117.439z"/>
		<path fill="#231F20" d="M49.206,116.045c0.359-0.117,0.674-0.141,0.943-0.07s0.494,0.207,0.674,0.41s0.322,0.455,0.428,0.756
			s0.178,0.619,0.217,0.955c0.016,0.156,0.025,0.328,0.029,0.516s0,0.375-0.012,0.563s-0.027,0.367-0.047,0.539
			s-0.045,0.328-0.076,0.469c0.188-0.008,0.355-0.033,0.504-0.076s0.285-0.094,0.41-0.152s0.244-0.123,0.357-0.193
			s0.229-0.137,0.346-0.199c0.148-0.078,0.271-0.088,0.369-0.029s0.164,0.146,0.199,0.264s0.043,0.244,0.023,0.381
			s-0.072,0.244-0.158,0.322c-0.375,0.344-0.785,0.592-1.23,0.744s-0.898,0.229-1.359,0.229c-0.305,0.539-0.695,0.947-1.172,1.225
			s-0.996,0.42-1.559,0.428c-0.523,0.008-0.965-0.098-1.324-0.316s-0.645-0.504-0.855-0.855s-0.35-0.752-0.416-1.201
			s-0.066-0.902,0-1.359s0.199-0.902,0.398-1.336s0.455-0.811,0.768-1.131s0.682-0.564,1.107-0.732S48.675,115.975,49.206,116.045z
			 M48.362,117.393c-0.25,0.055-0.48,0.193-0.691,0.416s-0.391,0.488-0.539,0.797s-0.254,0.643-0.316,1.002
			s-0.068,0.697-0.018,1.014s0.17,0.592,0.357,0.826s0.457,0.387,0.809,0.457c0.125,0.023,0.266,0.012,0.422-0.035
			s0.309-0.117,0.457-0.211s0.283-0.205,0.404-0.334s0.213-0.26,0.275-0.393c-0.219-0.133-0.404-0.293-0.557-0.48
			s-0.283-0.395-0.393-0.621c-0.172-0.375-0.273-0.775-0.305-1.201S48.269,117.791,48.362,117.393z M49.815,117.451
			c-0.219,0.133-0.342,0.318-0.369,0.557s-0.006,0.48,0.064,0.727s0.168,0.467,0.293,0.662s0.23,0.316,0.316,0.363
			c0.047-0.039,0.084-0.131,0.111-0.275s0.045-0.311,0.053-0.498s0.004-0.383-0.012-0.586s-0.043-0.383-0.082-0.539
			s-0.09-0.275-0.152-0.357S49.901,117.404,49.815,117.451z"/>
		<path fill="#231F20" d="M52.71,123.018c-0.078,0.133-0.189,0.205-0.334,0.217s-0.285-0.012-0.422-0.07s-0.252-0.139-0.346-0.24
			s-0.121-0.199-0.082-0.293c0.055-0.133,0.125-0.305,0.211-0.516s0.191-0.518,0.316-0.92s0.268-0.934,0.428-1.594
			s0.342-1.502,0.545-2.525c0.031-0.25,0.119-0.43,0.264-0.539s0.303-0.156,0.475-0.141c0.102,0.008,0.199,0.033,0.293,0.076
			s0.174,0.105,0.24,0.188s0.115,0.18,0.146,0.293s0.031,0.24,0,0.381c0.141,0.164,0.279,0.303,0.416,0.416s0.281,0.209,0.434,0.287
			s0.316,0.146,0.492,0.205s0.377,0.119,0.604,0.182c0.156,0.102,0.258,0.203,0.305,0.305s0.063,0.209,0.047,0.322
			s-0.051,0.234-0.105,0.363s-0.105,0.268-0.152,0.416c-0.023,0.086-0.051,0.211-0.082,0.375s-0.057,0.346-0.076,0.545
			s-0.033,0.404-0.041,0.615s-0.002,0.404,0.018,0.58s0.057,0.324,0.111,0.445s0.133,0.189,0.234,0.205
			c0.328,0.063,0.637-0.133,0.926-0.586s0.566-1.195,0.832-2.227c0.039-0.188,0.123-0.313,0.252-0.375s0.262-0.082,0.398-0.059
			s0.254,0.082,0.352,0.176s0.131,0.207,0.1,0.34c-0.047,0.289-0.117,0.609-0.211,0.961s-0.217,0.701-0.369,1.049
			s-0.334,0.676-0.545,0.984s-0.457,0.561-0.738,0.756c-0.211,0.148-0.439,0.244-0.686,0.287s-0.486,0.031-0.721-0.035
			s-0.447-0.184-0.639-0.352s-0.33-0.385-0.416-0.65c-0.18-0.539-0.254-1.092-0.223-1.658s0.117-1.131,0.258-1.693
			c-0.18-0.078-0.379-0.162-0.598-0.252s-0.406-0.193-0.563-0.311c-0.273,0.859-0.488,1.543-0.645,2.051s-0.281,0.902-0.375,1.184
			s-0.162,0.477-0.205,0.586S52.749,122.963,52.71,123.018z"/>
		<path fill="#231F20" d="M65.694,116.232c0.219-0.008,0.404,0.027,0.557,0.105s0.279,0.174,0.381,0.287s0.176,0.232,0.223,0.357
			s0.074,0.23,0.082,0.316c-0.023,0.844-0.098,1.68-0.223,2.508s-0.223,1.676-0.293,2.543c0.266,0,0.502-0.076,0.709-0.229
			s0.389-0.357,0.545-0.615s0.295-0.553,0.416-0.885s0.232-0.678,0.334-1.037c0.047-0.141,0.135-0.225,0.264-0.252
			s0.258-0.021,0.387,0.018s0.244,0.102,0.346,0.188s0.148,0.168,0.141,0.246c-0.031,0.391-0.1,0.775-0.205,1.154
			s-0.24,0.727-0.404,1.043s-0.35,0.588-0.557,0.814s-0.428,0.383-0.662,0.469c0.141,0.219,0.252,0.486,0.334,0.803
			s0.127,0.645,0.135,0.984s-0.025,0.678-0.1,1.014s-0.191,0.639-0.352,0.908s-0.369,0.486-0.627,0.65s-0.566,0.246-0.926,0.246
			c-0.25,0-0.451-0.074-0.604-0.223s-0.275-0.328-0.369-0.539s-0.162-0.434-0.205-0.668s-0.072-0.441-0.088-0.621
			c-0.039-0.5-0.049-1.006-0.029-1.518s0.049-1.041,0.088-1.588c-0.164,0.156-0.336,0.297-0.516,0.422s-0.365,0.223-0.557,0.293
			s-0.385,0.104-0.58,0.1s-0.387-0.057-0.574-0.158c-0.281-0.156-0.518-0.332-0.709-0.527s-0.33-0.457-0.416-0.785
			c-0.07-0.25-0.111-0.527-0.123-0.832s0.006-0.617,0.053-0.938s0.127-0.637,0.24-0.949s0.26-0.605,0.439-0.879
			c0.211-0.313,0.449-0.604,0.715-0.873s0.547-0.502,0.844-0.697s0.605-0.352,0.926-0.469S65.374,116.24,65.694,116.232z
			 M63.116,121.799c0.07,0.18,0.191,0.281,0.363,0.305c0.156,0.023,0.332-0.027,0.527-0.152c0.203-0.133,0.385-0.334,0.545-0.604
			s0.299-0.568,0.416-0.896c0.094-0.266,0.174-0.537,0.24-0.814s0.121-0.541,0.164-0.791s0.072-0.475,0.088-0.674
			s0.02-0.357,0.012-0.475c-0.023,0.008-0.047,0.018-0.07,0.029s-0.047,0.018-0.07,0.018c-0.18,0.016-0.365,0.066-0.557,0.152
			s-0.377,0.201-0.557,0.346s-0.35,0.313-0.51,0.504s-0.299,0.4-0.416,0.627c-0.188,0.359-0.307,0.748-0.357,1.166
			S62.944,121.377,63.116,121.799z M66.456,126.416c0.117-0.109,0.209-0.289,0.275-0.539s0.1-0.512,0.1-0.785
			s-0.041-0.525-0.123-0.756s-0.213-0.381-0.393-0.451c-0.016,0.422-0.016,0.844,0,1.266S66.378,125.994,66.456,126.416z"/>
		<path fill="#231F20" d="M69.022,116.549c0.109-0.195,0.24-0.33,0.393-0.404s0.301-0.094,0.445-0.059s0.268,0.121,0.369,0.258
			s0.152,0.318,0.152,0.545c-0.023,0.094-0.066,0.281-0.129,0.563s-0.131,0.605-0.205,0.973s-0.146,0.756-0.217,1.166
			s-0.117,0.787-0.141,1.131s-0.018,0.633,0.018,0.867s0.115,0.363,0.24,0.387c0.227,0.039,0.438-0.047,0.633-0.258
			s0.375-0.49,0.539-0.838s0.313-0.736,0.445-1.166s0.248-0.842,0.346-1.236s0.178-0.744,0.24-1.049s0.109-0.508,0.141-0.609
			c0.055-0.195,0.127-0.355,0.217-0.48s0.229-0.227,0.416-0.305c0.273-0.031,0.486,0.025,0.639,0.17s0.232,0.354,0.24,0.627
			c-0.063,0.305-0.133,0.629-0.211,0.973s-0.152,0.686-0.223,1.025s-0.129,0.668-0.176,0.984s-0.076,0.6-0.088,0.85
			s0,0.461,0.035,0.633s0.107,0.281,0.217,0.328c0.25,0.039,0.475-0.09,0.674-0.387s0.412-0.781,0.639-1.453
			c0.07-0.172,0.176-0.277,0.316-0.316s0.271-0.029,0.393,0.029s0.215,0.162,0.281,0.311s0.064,0.328-0.006,0.539
			c-0.047,0.133-0.105,0.287-0.176,0.463s-0.154,0.357-0.252,0.545s-0.205,0.375-0.322,0.563s-0.242,0.355-0.375,0.504
			c-0.195,0.234-0.414,0.4-0.656,0.498s-0.48,0.131-0.715,0.1s-0.457-0.129-0.668-0.293s-0.383-0.395-0.516-0.691
			c-0.141,0.203-0.283,0.391-0.428,0.563s-0.305,0.32-0.48,0.445s-0.371,0.217-0.586,0.275s-0.467,0.08-0.756,0.064
			c-0.281-0.016-0.514-0.094-0.697-0.234s-0.326-0.32-0.428-0.539s-0.172-0.459-0.211-0.721s-0.059-0.525-0.059-0.791
			s0.01-0.518,0.029-0.756s0.037-0.439,0.053-0.604c0.023-0.211,0.061-0.457,0.111-0.738s0.105-0.568,0.164-0.861
			s0.119-0.578,0.182-0.855S68.983,116.76,69.022,116.549z"/>
		<path fill="#231F20" d="M78.608,117.498c-0.016,0.391-0.086,0.783-0.211,1.178s-0.309,0.75-0.551,1.066s-0.537,0.57-0.885,0.762
			s-0.744,0.271-1.189,0.24c0.008,0.242,0.035,0.477,0.082,0.703s0.123,0.42,0.229,0.58s0.248,0.273,0.428,0.34
			s0.406,0.057,0.68-0.029c0.273-0.078,0.535-0.207,0.785-0.387s0.475-0.387,0.674-0.621s0.367-0.482,0.504-0.744
			s0.236-0.518,0.299-0.768c0.031-0.133,0.105-0.215,0.223-0.246s0.24-0.027,0.369,0.012s0.238,0.107,0.328,0.205
			s0.119,0.209,0.088,0.334c-0.172,0.453-0.342,0.855-0.51,1.207s-0.354,0.662-0.557,0.932s-0.432,0.498-0.686,0.686
			s-0.553,0.344-0.896,0.469c-0.461,0.164-0.887,0.236-1.277,0.217s-0.73-0.123-1.02-0.311s-0.518-0.453-0.686-0.797
			s-0.264-0.762-0.287-1.254c-0.016-0.234-0.021-0.518-0.018-0.85s0.025-0.68,0.064-1.043s0.102-0.732,0.188-1.107
			s0.203-0.725,0.352-1.049s0.334-0.609,0.557-0.855s0.494-0.424,0.814-0.533c0.266-0.094,0.527-0.129,0.785-0.105
			s0.486,0.105,0.686,0.246s0.357,0.338,0.475,0.592S78.616,117.131,78.608,117.498z M77.132,117.193
			c-0.109-0.07-0.217-0.076-0.322-0.018s-0.205,0.156-0.299,0.293s-0.176,0.299-0.246,0.486s-0.129,0.381-0.176,0.58
			s-0.082,0.389-0.105,0.568s-0.027,0.324-0.012,0.434c0.359-0.07,0.645-0.219,0.855-0.445s0.357-0.469,0.439-0.727
			s0.109-0.5,0.082-0.727S77.249,117.264,77.132,117.193z"/>
		<path fill="#231F20" d="M80.261,113.689c0.203,0.125,0.379,0.289,0.527,0.492s0.26,0.434,0.334,0.691s0.104,0.531,0.088,0.82
			s-0.086,0.582-0.211,0.879c-0.063,0.156-0.174,0.266-0.334,0.328s-0.314,0.078-0.463,0.047s-0.268-0.107-0.357-0.229
			s-0.092-0.287-0.006-0.498c0.133-0.328,0.164-0.607,0.094-0.838s-0.203-0.432-0.398-0.604c-0.125-0.109-0.184-0.244-0.176-0.404
			s0.053-0.305,0.135-0.434s0.193-0.225,0.334-0.287S80.112,113.604,80.261,113.689z M82.124,113.432
			c0.203,0.125,0.379,0.289,0.527,0.492s0.26,0.434,0.334,0.691s0.104,0.531,0.088,0.82s-0.086,0.582-0.211,0.879
			c-0.063,0.156-0.174,0.266-0.334,0.328s-0.314,0.078-0.463,0.047s-0.268-0.107-0.357-0.229s-0.092-0.287-0.006-0.498
			c0.133-0.328,0.164-0.607,0.094-0.838s-0.203-0.432-0.398-0.604c-0.125-0.109-0.184-0.244-0.176-0.404s0.053-0.305,0.135-0.434
			s0.193-0.225,0.334-0.287S81.976,113.346,82.124,113.432z"/>
		<path fill="#231F20" d="M33.95,136.498c-0.016,0.391-0.086,0.783-0.211,1.178s-0.309,0.75-0.551,1.066s-0.537,0.57-0.885,0.762
			s-0.744,0.271-1.189,0.24c0.008,0.242,0.035,0.477,0.082,0.703s0.123,0.42,0.229,0.58s0.248,0.273,0.428,0.34
			s0.406,0.057,0.68-0.029c0.273-0.078,0.535-0.207,0.785-0.387s0.475-0.387,0.674-0.621s0.367-0.482,0.504-0.744
			s0.236-0.518,0.299-0.768c0.031-0.133,0.105-0.215,0.223-0.246s0.24-0.027,0.369,0.012s0.238,0.107,0.328,0.205
			s0.119,0.209,0.088,0.334c-0.172,0.453-0.342,0.855-0.51,1.207s-0.354,0.662-0.557,0.932s-0.432,0.498-0.686,0.686
			s-0.553,0.344-0.896,0.469c-0.461,0.164-0.887,0.236-1.277,0.217s-0.73-0.123-1.02-0.311s-0.518-0.453-0.686-0.797
			s-0.264-0.762-0.287-1.254c-0.016-0.234-0.021-0.518-0.018-0.85s0.025-0.68,0.064-1.043s0.102-0.732,0.188-1.107
			s0.203-0.725,0.352-1.049s0.334-0.609,0.557-0.855s0.494-0.424,0.814-0.533c0.266-0.094,0.527-0.129,0.785-0.105
			s0.486,0.105,0.686,0.246s0.357,0.338,0.475,0.592S33.958,136.131,33.95,136.498z M32.474,136.193
			c-0.109-0.07-0.217-0.076-0.322-0.018s-0.205,0.156-0.299,0.293s-0.176,0.299-0.246,0.486s-0.129,0.381-0.176,0.58
			s-0.082,0.389-0.105,0.568s-0.027,0.324-0.012,0.434c0.359-0.07,0.645-0.219,0.855-0.445s0.357-0.469,0.439-0.727
			s0.109-0.5,0.082-0.727S32.591,136.264,32.474,136.193z"/>
		<path fill="#231F20" d="M34.231,135.678c0.008-0.211,0.082-0.365,0.223-0.463s0.291-0.141,0.451-0.129s0.299,0.076,0.416,0.193
			s0.16,0.285,0.129,0.504c-0.016,0.094-0.021,0.223-0.018,0.387s0.018,0.35,0.041,0.557s0.061,0.424,0.111,0.65
			s0.119,0.445,0.205,0.656c0.094,0.242,0.209,0.465,0.346,0.668s0.299,0.363,0.486,0.48l2.402-3.973
			c0.125-0.188,0.275-0.283,0.451-0.287s0.33,0.053,0.463,0.17s0.219,0.273,0.258,0.469s-0.016,0.395-0.164,0.598l-2.461,3.809
			c0.297,0.258,0.594,0.436,0.891,0.533s0.582,0.119,0.855,0.064c0.359-0.063,0.684-0.246,0.973-0.551s0.52-0.727,0.691-1.266
			c0.016-0.125,0.076-0.207,0.182-0.246s0.217-0.039,0.334,0s0.223,0.115,0.316,0.229s0.141,0.264,0.141,0.451
			c-0.234,0.703-0.549,1.268-0.943,1.693s-0.838,0.705-1.33,0.838c-0.422,0.117-0.863,0.129-1.324,0.035s-0.934-0.305-1.418-0.633
			l-0.715,1.242c-0.117,0.195-0.271,0.299-0.463,0.311s-0.369-0.029-0.533-0.123s-0.285-0.219-0.363-0.375s-0.063-0.301,0.047-0.434
			l0.938-1.441c-0.32-0.297-0.58-0.607-0.779-0.932s-0.357-0.654-0.475-0.99c-0.18-0.508-0.289-0.998-0.328-1.471
			S34.216,136.021,34.231,135.678z"/>
		<path fill="#231F20" d="M42.212,140.318c-0.164-0.227-0.217-0.443-0.158-0.65s0.17-0.367,0.334-0.48s0.346-0.16,0.545-0.141
			s0.354,0.143,0.463,0.369c0.117,0.188,0.148,0.377,0.094,0.568s-0.152,0.346-0.293,0.463s-0.305,0.174-0.492,0.17
			S42.353,140.514,42.212,140.318z M42.388,136.768c-0.133-0.133-0.213-0.268-0.24-0.404s-0.016-0.266,0.035-0.387
			s0.129-0.225,0.234-0.311s0.225-0.141,0.357-0.164s0.27-0.01,0.41,0.041s0.27,0.154,0.387,0.311
			c0.094,0.164,0.109,0.33,0.047,0.498s-0.162,0.305-0.299,0.41s-0.293,0.166-0.469,0.182S42.521,136.9,42.388,136.768z"/>
		<path fill="#231F20" d="M51.716,131.963c0.188-0.008,0.326,0.064,0.416,0.217s0.131,0.322,0.123,0.51s-0.07,0.357-0.188,0.51
			s-0.289,0.221-0.516,0.205c-0.188-0.016-0.395-0.027-0.621-0.035s-0.459-0.01-0.697-0.006s-0.471,0.014-0.697,0.029
			s-0.434,0.039-0.621,0.07l-0.07,2.402c0.734-0.148,1.346-0.139,1.834,0.029s0.873,0.43,1.154,0.785s0.473,0.775,0.574,1.26
			s0.137,0.973,0.105,1.465c-0.031,0.43-0.15,0.822-0.357,1.178s-0.465,0.652-0.773,0.891s-0.648,0.412-1.02,0.521
			s-0.734,0.139-1.09,0.088s-0.682-0.193-0.979-0.428s-0.523-0.574-0.68-1.02c-0.063-0.164-0.08-0.311-0.053-0.439
			s0.082-0.238,0.164-0.328s0.18-0.156,0.293-0.199s0.225-0.061,0.334-0.053s0.209,0.043,0.299,0.105s0.15,0.156,0.182,0.281
			c0.117,0.258,0.295,0.43,0.533,0.516s0.482,0.098,0.732,0.035s0.475-0.193,0.674-0.393s0.314-0.459,0.346-0.779
			c0.023-0.227,0.02-0.465-0.012-0.715s-0.111-0.477-0.24-0.68s-0.322-0.369-0.58-0.498s-0.602-0.186-1.031-0.17
			c-0.258,0.102-0.492,0.158-0.703,0.17s-0.393-0.01-0.545-0.064s-0.271-0.137-0.357-0.246s-0.133-0.238-0.141-0.387
			c-0.008-0.117-0.018-0.316-0.029-0.598s-0.021-0.594-0.029-0.938s-0.008-0.699,0-1.066s0.031-0.695,0.07-0.984
			c0.008-0.094,0.027-0.199,0.059-0.316s0.082-0.23,0.152-0.34s0.168-0.211,0.293-0.305s0.285-0.168,0.48-0.223
			c0.242-0.07,0.516-0.113,0.82-0.129s0.607-0.018,0.908-0.006s0.582,0.027,0.844,0.047S51.552,131.963,51.716,131.963z"/>
		<path fill="#231F20" d="M58.356,137.451l1.859,1.818c0.118,0.109,0.166,0.258,0.144,0.445c-0.022,0.187-0.089,0.359-0.198,0.52
			c-0.109,0.159-0.244,0.271-0.403,0.334c-0.159,0.064-0.313,0.027-0.458-0.109l-2.324-2.324c-0.183-0.164-0.299-0.33-0.349-0.498
			c-0.05-0.169-0.06-0.333-0.027-0.492c0.032-0.16,0.101-0.301,0.205-0.424s0.221-0.221,0.349-0.295l2.666-1.709
			c0.173-0.09,0.335-0.088,0.485,0.008s0.267,0.225,0.349,0.389s0.118,0.338,0.109,0.52c-0.009,0.184-0.087,0.311-0.232,0.383
			L58.356,137.451z"/>
		<path fill="#231F20" d="M64.849,132.561c0.039-0.258,0.131-0.438,0.275-0.539s0.297-0.15,0.457-0.146s0.305,0.057,0.434,0.158
			s0.193,0.227,0.193,0.375c0.008,0.117,0.014,0.318,0.018,0.604s0.006,0.627,0.006,1.025s0.002,0.834,0.006,1.307
			s0.006,0.957,0.006,1.453s0,0.984,0,1.465s0.002,0.926,0.006,1.336s0.01,0.768,0.018,1.072s0.016,0.527,0.023,0.668
			c0.008,0.211-0.053,0.383-0.182,0.516s-0.275,0.213-0.439,0.24s-0.322-0.008-0.475-0.105s-0.252-0.271-0.299-0.521
			c-0.016-0.055-0.027-0.207-0.035-0.457s-0.014-0.564-0.018-0.943s-0.008-0.805-0.012-1.277s-0.006-0.961-0.006-1.465
			s0-1.008,0-1.512s0.002-0.971,0.006-1.4s0.008-0.807,0.012-1.131S64.849,132.717,64.849,132.561z"/>
		<path fill="#231F20" d="M69.653,133.592c-0.156,0.047-0.301,0.119-0.434,0.217s-0.26,0.207-0.381,0.328s-0.236,0.254-0.346,0.398
			s-0.215,0.287-0.316,0.428c-0.125,0.164-0.277,0.256-0.457,0.275s-0.346-0.008-0.498-0.082s-0.27-0.182-0.352-0.322
			s-0.092-0.281-0.029-0.422c0.07-0.219,0.211-0.463,0.422-0.732s0.455-0.525,0.732-0.768s0.568-0.451,0.873-0.627
			s0.582-0.283,0.832-0.322c0.336-0.055,0.66-0.039,0.973,0.047s0.592,0.23,0.838,0.434s0.445,0.457,0.598,0.762
			s0.229,0.648,0.229,1.031c0,0.344-0.061,0.705-0.182,1.084s-0.279,0.764-0.475,1.154s-0.418,0.779-0.668,1.166
			s-0.504,0.756-0.762,1.107s-0.508,0.678-0.75,0.979s-0.449,0.561-0.621,0.779l2.918-0.094c0.195,0,0.348,0.066,0.457,0.199
			s0.168,0.287,0.176,0.463s-0.039,0.346-0.141,0.51s-0.262,0.273-0.48,0.328c-0.758,0.031-1.531,0.057-2.32,0.076
			s-1.516,0.041-2.18,0.064c-0.156,0.016-0.277-0.027-0.363-0.129s-0.143-0.23-0.17-0.387s-0.021-0.324,0.018-0.504
			s0.105-0.34,0.199-0.48c0.102-0.156,0.215-0.303,0.34-0.439s0.234-0.264,0.328-0.381c0.133-0.164,0.293-0.365,0.48-0.604
			s0.389-0.5,0.604-0.785s0.43-0.58,0.645-0.885s0.416-0.604,0.604-0.896s0.352-0.574,0.492-0.844s0.242-0.506,0.305-0.709
			s0.082-0.404,0.059-0.604s-0.086-0.369-0.188-0.51s-0.236-0.244-0.404-0.311S69.888,133.521,69.653,133.592z"/>
	</g>
	<g>
		<path fill="#231F20" d="M247.788,116.889c-0.203-0.125-0.379-0.289-0.527-0.492s-0.26-0.434-0.334-0.691s-0.104-0.531-0.088-0.82
			s0.086-0.582,0.211-0.879c0.063-0.156,0.174-0.266,0.334-0.328s0.314-0.078,0.463-0.047s0.266,0.107,0.352,0.229
			s0.09,0.287,0.012,0.498c-0.133,0.328-0.164,0.607-0.094,0.838s0.203,0.432,0.398,0.604c0.125,0.109,0.184,0.244,0.176,0.404
			s-0.053,0.305-0.135,0.434s-0.193,0.225-0.334,0.287S247.937,116.975,247.788,116.889z M249.651,116.631
			c-0.203-0.125-0.379-0.289-0.527-0.492s-0.26-0.434-0.334-0.691s-0.104-0.531-0.088-0.82s0.086-0.582,0.211-0.879
			c0.063-0.156,0.174-0.266,0.334-0.328s0.314-0.078,0.463-0.047s0.266,0.107,0.352,0.229s0.09,0.287,0.012,0.498
			c-0.133,0.328-0.164,0.607-0.094,0.838s0.203,0.432,0.398,0.604c0.125,0.109,0.184,0.244,0.176,0.404s-0.053,0.305-0.135,0.434
			s-0.193,0.225-0.334,0.287S249.8,116.717,249.651,116.631z"/>
		<path fill="#231F20" d="M250.741,122.713c0.109-0.711,0.189-1.336,0.24-1.875s0.08-1.01,0.088-1.412s0.002-0.742-0.018-1.02
			s-0.045-0.514-0.076-0.709s-0.064-0.354-0.1-0.475s-0.057-0.225-0.064-0.311c-0.016-0.117-0.006-0.221,0.029-0.311
			s0.086-0.166,0.152-0.229s0.143-0.111,0.229-0.146s0.172-0.053,0.258-0.053c0.172,0,0.305,0.027,0.398,0.082
			s0.166,0.135,0.217,0.24s0.086,0.234,0.105,0.387s0.037,0.33,0.053,0.533c0.102-0.172,0.219-0.346,0.352-0.521
			s0.281-0.334,0.445-0.475s0.346-0.256,0.545-0.346s0.416-0.135,0.65-0.135c0.242,0,0.473,0.045,0.691,0.135
			s0.416,0.215,0.592,0.375s0.324,0.348,0.445,0.563s0.213,0.447,0.275,0.697c0.172-0.328,0.361-0.641,0.568-0.938
			s0.486-0.527,0.838-0.691s0.68-0.211,0.984-0.141s0.572,0.213,0.803,0.428s0.412,0.484,0.545,0.809s0.199,0.662,0.199,1.014
			c0,0.406-0.025,0.832-0.076,1.277s-0.096,0.859-0.135,1.242s-0.053,0.703-0.041,0.961s0.08,0.402,0.205,0.434
			c0.211,0.055,0.414-0.008,0.609-0.188s0.373-0.402,0.533-0.668s0.301-0.537,0.422-0.814s0.217-0.494,0.287-0.65
			c0.055-0.133,0.143-0.215,0.264-0.246s0.238-0.023,0.352,0.023s0.207,0.131,0.281,0.252s0.1,0.268,0.076,0.439
			c-0.094,0.383-0.223,0.766-0.387,1.148s-0.369,0.729-0.615,1.037s-0.541,0.559-0.885,0.75s-0.738,0.287-1.184,0.287
			c-0.297,0-0.541-0.08-0.732-0.24s-0.342-0.355-0.451-0.586s-0.184-0.475-0.223-0.732s-0.059-0.484-0.059-0.68
			c0-0.281,0.018-0.551,0.053-0.809s0.076-0.51,0.123-0.756s0.088-0.484,0.123-0.715s0.053-0.455,0.053-0.674
			c0-0.297-0.033-0.531-0.1-0.703s-0.162-0.258-0.287-0.258c-0.242,0-0.471,0.143-0.686,0.428s-0.41,0.652-0.586,1.102
			s-0.332,0.957-0.469,1.523s-0.244,1.131-0.322,1.693c-0.023,0.195-0.109,0.334-0.258,0.416s-0.307,0.113-0.475,0.094
			s-0.32-0.082-0.457-0.188s-0.205-0.248-0.205-0.428c0.016-0.102,0.041-0.287,0.076-0.557s0.066-0.576,0.094-0.92
			s0.043-0.701,0.047-1.072s-0.02-0.713-0.07-1.025s-0.137-0.568-0.258-0.768s-0.291-0.299-0.51-0.299
			c-0.18,0-0.352,0.084-0.516,0.252s-0.322,0.393-0.475,0.674s-0.291,0.605-0.416,0.973s-0.236,0.754-0.334,1.16
			s-0.18,0.816-0.246,1.23s-0.111,0.805-0.135,1.172c-0.023,0.195-0.115,0.332-0.275,0.41s-0.33,0.109-0.51,0.094
			s-0.34-0.074-0.48-0.176S250.726,122.877,250.741,122.713z"/>
		<path fill="#231F20" d="M263.655,122.912c-0.477,0-0.854-0.133-1.131-0.398s-0.471-0.607-0.58-1.025s-0.143-0.881-0.1-1.389
			s0.15-1.006,0.322-1.494s0.396-0.939,0.674-1.354s0.596-0.73,0.955-0.949s0.752-0.313,1.178-0.281s0.869,0.246,1.33,0.645
			c0.047-0.141,0.148-0.225,0.305-0.252s0.311-0.012,0.463,0.047s0.279,0.156,0.381,0.293s0.121,0.303,0.059,0.498
			c-0.055,0.219-0.125,0.486-0.211,0.803s-0.17,0.646-0.252,0.99s-0.152,0.689-0.211,1.037s-0.086,0.66-0.082,0.938
			s0.045,0.508,0.123,0.691s0.215,0.283,0.41,0.299c0.234,0.016,0.455-0.064,0.662-0.24s0.391-0.396,0.551-0.662
			s0.295-0.547,0.404-0.844s0.18-0.555,0.211-0.773c0.055-0.203,0.146-0.322,0.275-0.357s0.254-0.021,0.375,0.041
			s0.219,0.158,0.293,0.287s0.084,0.252,0.029,0.369c-0.055,0.313-0.164,0.67-0.328,1.072s-0.373,0.785-0.627,1.148
			s-0.541,0.67-0.861,0.92s-0.664,0.375-1.031,0.375c-0.164,0-0.334-0.029-0.51-0.088s-0.344-0.15-0.504-0.275
			s-0.303-0.285-0.428-0.48s-0.215-0.434-0.27-0.715c-0.07,0.086-0.168,0.193-0.293,0.322s-0.27,0.252-0.434,0.369
			s-0.344,0.219-0.539,0.305S263.866,122.912,263.655,122.912z M263.644,121.447c0.25,0.023,0.471-0.035,0.662-0.176
			s0.361-0.33,0.51-0.568s0.273-0.506,0.375-0.803s0.186-0.584,0.252-0.861s0.119-0.531,0.158-0.762s0.066-0.396,0.082-0.498
			c-0.25-0.211-0.484-0.32-0.703-0.328s-0.42,0.053-0.604,0.182s-0.346,0.311-0.486,0.545s-0.26,0.49-0.357,0.768
			s-0.17,0.561-0.217,0.85s-0.068,0.555-0.064,0.797s0.039,0.441,0.105,0.598S263.519,121.432,263.644,121.447z"/>
		<path fill="#231F20" d="M269.562,116.736c0.156-0.156,0.316-0.244,0.48-0.264s0.309,0.008,0.434,0.082s0.217,0.184,0.275,0.328
			s0.064,0.303,0.018,0.475c-0.078,0.164-0.152,0.379-0.223,0.645s-0.133,0.547-0.188,0.844s-0.098,0.602-0.129,0.914
			s-0.045,0.598-0.041,0.855s0.029,0.48,0.076,0.668s0.121,0.305,0.223,0.352s0.209,0.057,0.322,0.029s0.234-0.111,0.363-0.252
			s0.268-0.352,0.416-0.633s0.305-0.66,0.469-1.137c0.063-0.117,0.15-0.189,0.264-0.217s0.223-0.021,0.328,0.018
			s0.188,0.107,0.246,0.205s0.068,0.213,0.029,0.346c-0.07,0.273-0.186,0.602-0.346,0.984s-0.361,0.742-0.604,1.078
			s-0.52,0.604-0.832,0.803s-0.652,0.248-1.02,0.146c-0.328-0.094-0.586-0.283-0.773-0.568s-0.32-0.623-0.398-1.014
			s-0.109-0.814-0.094-1.271s0.057-0.9,0.123-1.33s0.152-0.83,0.258-1.201S269.452,116.955,269.562,116.736z M269.901,115.67
			c-0.156-0.211-0.217-0.414-0.182-0.609s0.121-0.346,0.258-0.451s0.301-0.15,0.492-0.135s0.369,0.133,0.533,0.352
			c0.109,0.18,0.139,0.357,0.088,0.533s-0.141,0.316-0.27,0.422s-0.281,0.158-0.457,0.158S270.034,115.85,269.901,115.67z"/>
		<path fill="#231F20" d="M275.597,116.045c0.359-0.117,0.674-0.141,0.943-0.07s0.494,0.207,0.674,0.41s0.322,0.455,0.428,0.756
			s0.178,0.619,0.217,0.955c0.016,0.156,0.025,0.328,0.029,0.516s0,0.375-0.012,0.563s-0.027,0.367-0.047,0.539
			s-0.045,0.328-0.076,0.469c0.188-0.008,0.355-0.033,0.504-0.076s0.285-0.094,0.41-0.152s0.244-0.123,0.357-0.193
			s0.229-0.137,0.346-0.199c0.148-0.078,0.271-0.088,0.369-0.029s0.164,0.146,0.199,0.264s0.043,0.244,0.023,0.381
			s-0.072,0.244-0.158,0.322c-0.375,0.344-0.785,0.592-1.23,0.744s-0.898,0.229-1.359,0.229c-0.305,0.539-0.695,0.947-1.172,1.225
			s-0.996,0.42-1.559,0.428c-0.523,0.008-0.965-0.098-1.324-0.316s-0.645-0.504-0.855-0.855s-0.35-0.752-0.416-1.201
			s-0.066-0.902,0-1.359s0.199-0.902,0.398-1.336s0.455-0.811,0.768-1.131s0.682-0.564,1.107-0.732S275.065,115.975,275.597,116.045
			z M274.753,117.393c-0.25,0.055-0.48,0.193-0.691,0.416s-0.391,0.488-0.539,0.797s-0.254,0.643-0.316,1.002
			s-0.068,0.697-0.018,1.014s0.17,0.592,0.357,0.826s0.457,0.387,0.809,0.457c0.125,0.023,0.266,0.012,0.422-0.035
			s0.309-0.117,0.457-0.211s0.283-0.205,0.404-0.334s0.213-0.26,0.275-0.393c-0.219-0.133-0.404-0.293-0.557-0.48
			s-0.283-0.395-0.393-0.621c-0.172-0.375-0.273-0.775-0.305-1.201S274.659,117.791,274.753,117.393z M276.206,117.451
			c-0.219,0.133-0.342,0.318-0.369,0.557s-0.006,0.48,0.064,0.727s0.168,0.467,0.293,0.662s0.23,0.316,0.316,0.363
			c0.047-0.039,0.084-0.131,0.111-0.275s0.045-0.311,0.053-0.498s0.004-0.383-0.012-0.586s-0.043-0.383-0.082-0.539
			s-0.09-0.275-0.152-0.357S276.292,117.404,276.206,117.451z"/>
		<path fill="#231F20" d="M279.101,123.018c-0.078,0.133-0.189,0.205-0.334,0.217s-0.285-0.012-0.422-0.07s-0.252-0.139-0.346-0.24
			s-0.121-0.199-0.082-0.293c0.055-0.133,0.125-0.305,0.211-0.516s0.191-0.518,0.316-0.92s0.268-0.934,0.428-1.594
			s0.342-1.502,0.545-2.525c0.031-0.25,0.119-0.43,0.264-0.539s0.303-0.156,0.475-0.141c0.102,0.008,0.199,0.033,0.293,0.076
			s0.174,0.105,0.24,0.188s0.115,0.18,0.146,0.293s0.031,0.24,0,0.381c0.141,0.164,0.279,0.303,0.416,0.416s0.281,0.209,0.434,0.287
			s0.316,0.146,0.492,0.205s0.377,0.119,0.604,0.182c0.156,0.102,0.258,0.203,0.305,0.305s0.063,0.209,0.047,0.322
			s-0.051,0.234-0.105,0.363s-0.105,0.268-0.152,0.416c-0.023,0.086-0.051,0.211-0.082,0.375s-0.057,0.346-0.076,0.545
			s-0.033,0.404-0.041,0.615s-0.002,0.404,0.018,0.58s0.057,0.324,0.111,0.445s0.133,0.189,0.234,0.205
			c0.328,0.063,0.637-0.133,0.926-0.586s0.566-1.195,0.832-2.227c0.039-0.188,0.123-0.313,0.252-0.375s0.262-0.082,0.398-0.059
			s0.254,0.082,0.352,0.176s0.131,0.207,0.1,0.34c-0.047,0.289-0.117,0.609-0.211,0.961s-0.217,0.701-0.369,1.049
			s-0.334,0.676-0.545,0.984s-0.457,0.561-0.738,0.756c-0.211,0.148-0.439,0.244-0.686,0.287s-0.486,0.031-0.721-0.035
			s-0.447-0.184-0.639-0.352s-0.33-0.385-0.416-0.65c-0.18-0.539-0.254-1.092-0.223-1.658s0.117-1.131,0.258-1.693
			c-0.18-0.078-0.379-0.162-0.598-0.252s-0.406-0.193-0.563-0.311c-0.273,0.859-0.488,1.543-0.645,2.051s-0.281,0.902-0.375,1.184
			s-0.162,0.477-0.205,0.586S279.14,122.963,279.101,123.018z"/>
		<path fill="#231F20" d="M292.085,116.232c0.219-0.008,0.404,0.027,0.557,0.105s0.279,0.174,0.381,0.287s0.176,0.232,0.223,0.357
			s0.074,0.23,0.082,0.316c-0.023,0.844-0.098,1.68-0.223,2.508s-0.223,1.676-0.293,2.543c0.266,0,0.502-0.076,0.709-0.229
			s0.389-0.357,0.545-0.615s0.295-0.553,0.416-0.885s0.232-0.678,0.334-1.037c0.047-0.141,0.135-0.225,0.264-0.252
			s0.258-0.021,0.387,0.018s0.244,0.102,0.346,0.188s0.148,0.168,0.141,0.246c-0.031,0.391-0.1,0.775-0.205,1.154
			s-0.24,0.727-0.404,1.043s-0.35,0.588-0.557,0.814s-0.428,0.383-0.662,0.469c0.141,0.219,0.252,0.486,0.334,0.803
			s0.127,0.645,0.135,0.984s-0.025,0.678-0.1,1.014s-0.191,0.639-0.352,0.908s-0.369,0.486-0.627,0.65s-0.566,0.246-0.926,0.246
			c-0.25,0-0.451-0.074-0.604-0.223s-0.275-0.328-0.369-0.539s-0.162-0.434-0.205-0.668s-0.072-0.441-0.088-0.621
			c-0.039-0.5-0.049-1.006-0.029-1.518s0.049-1.041,0.088-1.588c-0.164,0.156-0.336,0.297-0.516,0.422s-0.365,0.223-0.557,0.293
			s-0.385,0.104-0.58,0.1s-0.387-0.057-0.574-0.158c-0.281-0.156-0.518-0.332-0.709-0.527s-0.33-0.457-0.416-0.785
			c-0.07-0.25-0.111-0.527-0.123-0.832s0.006-0.617,0.053-0.938s0.127-0.637,0.24-0.949s0.26-0.605,0.439-0.879
			c0.211-0.313,0.449-0.604,0.715-0.873s0.547-0.502,0.844-0.697s0.605-0.352,0.926-0.469S291.765,116.24,292.085,116.232z
			 M289.507,121.799c0.07,0.18,0.191,0.281,0.363,0.305c0.156,0.023,0.332-0.027,0.527-0.152c0.203-0.133,0.385-0.334,0.545-0.604
			s0.299-0.568,0.416-0.896c0.094-0.266,0.174-0.537,0.24-0.814s0.121-0.541,0.164-0.791s0.072-0.475,0.088-0.674
			s0.02-0.357,0.012-0.475c-0.023,0.008-0.047,0.018-0.07,0.029s-0.047,0.018-0.07,0.018c-0.18,0.016-0.365,0.066-0.557,0.152
			s-0.377,0.201-0.557,0.346s-0.35,0.313-0.51,0.504s-0.299,0.4-0.416,0.627c-0.188,0.359-0.307,0.748-0.357,1.166
			S289.335,121.377,289.507,121.799z M292.847,126.416c0.117-0.109,0.209-0.289,0.275-0.539s0.1-0.512,0.1-0.785
			s-0.041-0.525-0.123-0.756s-0.213-0.381-0.393-0.451c-0.016,0.422-0.016,0.844,0,1.266S292.769,125.994,292.847,126.416z"/>
		<path fill="#231F20" d="M295.413,116.549c0.109-0.195,0.24-0.33,0.393-0.404s0.301-0.094,0.445-0.059s0.268,0.121,0.369,0.258
			s0.152,0.318,0.152,0.545c-0.023,0.094-0.066,0.281-0.129,0.563s-0.131,0.605-0.205,0.973s-0.146,0.756-0.217,1.166
			s-0.117,0.787-0.141,1.131s-0.018,0.633,0.018,0.867s0.115,0.363,0.24,0.387c0.227,0.039,0.438-0.047,0.633-0.258
			s0.375-0.49,0.539-0.838s0.313-0.736,0.445-1.166s0.248-0.842,0.346-1.236s0.178-0.744,0.24-1.049s0.109-0.508,0.141-0.609
			c0.055-0.195,0.127-0.355,0.217-0.48s0.229-0.227,0.416-0.305c0.273-0.031,0.486,0.025,0.639,0.17s0.232,0.354,0.24,0.627
			c-0.063,0.305-0.133,0.629-0.211,0.973s-0.152,0.686-0.223,1.025s-0.129,0.668-0.176,0.984s-0.076,0.6-0.088,0.85
			s0,0.461,0.035,0.633s0.107,0.281,0.217,0.328c0.25,0.039,0.475-0.09,0.674-0.387s0.412-0.781,0.639-1.453
			c0.07-0.172,0.176-0.277,0.316-0.316s0.271-0.029,0.393,0.029s0.215,0.162,0.281,0.311s0.064,0.328-0.006,0.539
			c-0.047,0.133-0.105,0.287-0.176,0.463s-0.154,0.357-0.252,0.545s-0.205,0.375-0.322,0.563s-0.242,0.355-0.375,0.504
			c-0.195,0.234-0.414,0.4-0.656,0.498s-0.48,0.131-0.715,0.1s-0.457-0.129-0.668-0.293s-0.383-0.395-0.516-0.691
			c-0.141,0.203-0.283,0.391-0.428,0.563s-0.305,0.32-0.48,0.445s-0.371,0.217-0.586,0.275s-0.467,0.08-0.756,0.064
			c-0.281-0.016-0.514-0.094-0.697-0.234s-0.326-0.32-0.428-0.539s-0.172-0.459-0.211-0.721s-0.059-0.525-0.059-0.791
			s0.01-0.518,0.029-0.756s0.037-0.439,0.053-0.604c0.023-0.211,0.061-0.457,0.111-0.738s0.105-0.568,0.164-0.861
			s0.119-0.578,0.182-0.855S295.374,116.76,295.413,116.549z"/>
		<path fill="#231F20" d="M304.999,117.498c-0.016,0.391-0.086,0.783-0.211,1.178s-0.309,0.75-0.551,1.066s-0.537,0.57-0.885,0.762
			s-0.744,0.271-1.189,0.24c0.008,0.242,0.035,0.477,0.082,0.703s0.123,0.42,0.229,0.58s0.248,0.273,0.428,0.34
			s0.406,0.057,0.68-0.029c0.273-0.078,0.535-0.207,0.785-0.387s0.475-0.387,0.674-0.621s0.367-0.482,0.504-0.744
			s0.236-0.518,0.299-0.768c0.031-0.133,0.105-0.215,0.223-0.246s0.24-0.027,0.369,0.012s0.238,0.107,0.328,0.205
			s0.119,0.209,0.088,0.334c-0.172,0.453-0.342,0.855-0.51,1.207s-0.354,0.662-0.557,0.932s-0.432,0.498-0.686,0.686
			s-0.553,0.344-0.896,0.469c-0.461,0.164-0.887,0.236-1.277,0.217s-0.73-0.123-1.02-0.311s-0.518-0.453-0.686-0.797
			s-0.264-0.762-0.287-1.254c-0.016-0.234-0.021-0.518-0.018-0.85s0.025-0.68,0.064-1.043s0.102-0.732,0.188-1.107
			s0.203-0.725,0.352-1.049s0.334-0.609,0.557-0.855s0.494-0.424,0.814-0.533c0.266-0.094,0.527-0.129,0.785-0.105
			s0.486,0.105,0.686,0.246s0.357,0.338,0.475,0.592S305.007,117.131,304.999,117.498z M303.522,117.193
			c-0.109-0.07-0.217-0.076-0.322-0.018s-0.205,0.156-0.299,0.293s-0.176,0.299-0.246,0.486s-0.129,0.381-0.176,0.58
			s-0.082,0.389-0.105,0.568s-0.027,0.324-0.012,0.434c0.359-0.07,0.645-0.219,0.855-0.445s0.357-0.469,0.439-0.727
			s0.109-0.5,0.082-0.727S303.64,117.264,303.522,117.193z"/>
		<path fill="#231F20" d="M306.651,113.689c0.203,0.125,0.379,0.289,0.527,0.492s0.26,0.434,0.334,0.691s0.104,0.531,0.088,0.82
			s-0.086,0.582-0.211,0.879c-0.063,0.156-0.174,0.266-0.334,0.328s-0.314,0.078-0.463,0.047s-0.268-0.107-0.357-0.229
			s-0.092-0.287-0.006-0.498c0.133-0.328,0.164-0.607,0.094-0.838s-0.203-0.432-0.398-0.604c-0.125-0.109-0.184-0.244-0.176-0.404
			s0.053-0.305,0.135-0.434s0.193-0.225,0.334-0.287S306.503,113.604,306.651,113.689z M308.515,113.432
			c0.203,0.125,0.379,0.289,0.527,0.492s0.26,0.434,0.334,0.691s0.104,0.531,0.088,0.82s-0.086,0.582-0.211,0.879
			c-0.063,0.156-0.174,0.266-0.334,0.328s-0.314,0.078-0.463,0.047s-0.268-0.107-0.357-0.229s-0.092-0.287-0.006-0.498
			c0.133-0.328,0.164-0.607,0.094-0.838s-0.203-0.432-0.398-0.604c-0.125-0.109-0.184-0.244-0.176-0.404s0.053-0.305,0.135-0.434
			s0.193-0.225,0.334-0.287S308.366,113.346,308.515,113.432z"/>
		<path fill="#231F20" d="M260.997,136.498c-0.016,0.391-0.086,0.783-0.211,1.178s-0.309,0.75-0.551,1.066s-0.537,0.57-0.885,0.762
			s-0.744,0.271-1.189,0.24c0.008,0.242,0.035,0.477,0.082,0.703s0.123,0.42,0.229,0.58s0.248,0.273,0.428,0.34
			s0.406,0.057,0.68-0.029c0.273-0.078,0.535-0.207,0.785-0.387s0.475-0.387,0.674-0.621s0.367-0.482,0.504-0.744
			s0.236-0.518,0.299-0.768c0.031-0.133,0.105-0.215,0.223-0.246s0.24-0.027,0.369,0.012s0.238,0.107,0.328,0.205
			s0.119,0.209,0.088,0.334c-0.172,0.453-0.342,0.855-0.51,1.207s-0.354,0.662-0.557,0.932s-0.432,0.498-0.686,0.686
			s-0.553,0.344-0.896,0.469c-0.461,0.164-0.887,0.236-1.277,0.217s-0.73-0.123-1.02-0.311s-0.518-0.453-0.686-0.797
			s-0.264-0.762-0.287-1.254c-0.016-0.234-0.021-0.518-0.018-0.85s0.025-0.68,0.064-1.043s0.102-0.732,0.188-1.107
			s0.203-0.725,0.352-1.049s0.334-0.609,0.557-0.855s0.494-0.424,0.814-0.533c0.266-0.094,0.527-0.129,0.785-0.105
			s0.486,0.105,0.686,0.246s0.357,0.338,0.475,0.592S261.005,136.131,260.997,136.498z M259.521,136.193
			c-0.109-0.07-0.217-0.076-0.322-0.018s-0.205,0.156-0.299,0.293s-0.176,0.299-0.246,0.486s-0.129,0.381-0.176,0.58
			s-0.082,0.389-0.105,0.568s-0.027,0.324-0.012,0.434c0.359-0.07,0.645-0.219,0.855-0.445s0.357-0.469,0.439-0.727
			s0.109-0.5,0.082-0.727S259.638,136.264,259.521,136.193z"/>
		<path fill="#231F20" d="M261.278,135.678c0.008-0.211,0.082-0.365,0.223-0.463s0.291-0.141,0.451-0.129s0.299,0.076,0.416,0.193
			s0.16,0.285,0.129,0.504c-0.016,0.094-0.021,0.223-0.018,0.387s0.018,0.35,0.041,0.557s0.061,0.424,0.111,0.65
			s0.119,0.445,0.205,0.656c0.094,0.242,0.209,0.465,0.346,0.668s0.299,0.363,0.486,0.48l2.402-3.973
			c0.125-0.188,0.275-0.283,0.451-0.287s0.33,0.053,0.463,0.17s0.219,0.273,0.258,0.469s-0.016,0.395-0.164,0.598l-2.461,3.809
			c0.297,0.258,0.594,0.436,0.891,0.533s0.582,0.119,0.855,0.064c0.359-0.063,0.684-0.246,0.973-0.551s0.52-0.727,0.691-1.266
			c0.016-0.125,0.076-0.207,0.182-0.246s0.217-0.039,0.334,0s0.223,0.115,0.316,0.229s0.141,0.264,0.141,0.451
			c-0.234,0.703-0.549,1.268-0.943,1.693s-0.838,0.705-1.33,0.838c-0.422,0.117-0.863,0.129-1.324,0.035s-0.934-0.305-1.418-0.633
			l-0.715,1.242c-0.117,0.195-0.271,0.299-0.463,0.311s-0.369-0.029-0.533-0.123s-0.285-0.219-0.363-0.375s-0.063-0.301,0.047-0.434
			l0.938-1.441c-0.32-0.297-0.58-0.607-0.779-0.932s-0.357-0.654-0.475-0.99c-0.18-0.508-0.289-0.998-0.328-1.471
			S261.263,136.021,261.278,135.678z"/>
		<path fill="#231F20" d="M269.259,140.318c-0.164-0.227-0.217-0.443-0.158-0.65s0.17-0.367,0.334-0.48s0.346-0.16,0.545-0.141
			s0.354,0.143,0.463,0.369c0.117,0.188,0.148,0.377,0.094,0.568s-0.152,0.346-0.293,0.463s-0.305,0.174-0.492,0.17
			S269.399,140.514,269.259,140.318z M269.435,136.768c-0.133-0.133-0.213-0.268-0.24-0.404s-0.016-0.266,0.035-0.387
			s0.129-0.225,0.234-0.311s0.225-0.141,0.357-0.164s0.27-0.01,0.41,0.041s0.27,0.154,0.387,0.311
			c0.094,0.164,0.109,0.33,0.047,0.498s-0.162,0.305-0.299,0.41s-0.293,0.166-0.469,0.182S269.567,136.9,269.435,136.768z"/>
		<path fill="#231F20" d="M274.649,132.561c0.039-0.258,0.131-0.438,0.275-0.539s0.297-0.15,0.457-0.146s0.305,0.057,0.434,0.158
			s0.193,0.227,0.193,0.375c0.008,0.117,0.014,0.318,0.018,0.604s0.006,0.627,0.006,1.025s0.002,0.834,0.006,1.307
			s0.006,0.957,0.006,1.453s0,0.984,0,1.465s0.002,0.926,0.006,1.336s0.01,0.768,0.018,1.072s0.016,0.527,0.023,0.668
			c0.008,0.211-0.053,0.383-0.182,0.516s-0.275,0.213-0.439,0.24s-0.322-0.008-0.475-0.105s-0.252-0.271-0.299-0.521
			c-0.016-0.055-0.027-0.207-0.035-0.457s-0.014-0.564-0.018-0.943s-0.008-0.805-0.012-1.277s-0.006-0.961-0.006-1.465
			s0-1.008,0-1.512s0.002-0.971,0.006-1.4s0.008-0.807,0.012-1.131S274.649,132.717,274.649,132.561z"/>
		<path fill="#231F20" d="M279.454,133.592c-0.156,0.047-0.301,0.119-0.434,0.217s-0.26,0.207-0.381,0.328s-0.236,0.254-0.346,0.398
			s-0.215,0.287-0.316,0.428c-0.125,0.164-0.277,0.256-0.457,0.275s-0.346-0.008-0.498-0.082s-0.27-0.182-0.352-0.322
			s-0.092-0.281-0.029-0.422c0.07-0.219,0.211-0.463,0.422-0.732s0.455-0.525,0.732-0.768s0.568-0.451,0.873-0.627
			s0.582-0.283,0.832-0.322c0.336-0.055,0.66-0.039,0.973,0.047s0.592,0.23,0.838,0.434s0.445,0.457,0.598,0.762
			s0.229,0.648,0.229,1.031c0,0.344-0.061,0.705-0.182,1.084s-0.279,0.764-0.475,1.154s-0.418,0.779-0.668,1.166
			s-0.504,0.756-0.762,1.107s-0.508,0.678-0.75,0.979s-0.449,0.561-0.621,0.779l2.918-0.094c0.195,0,0.348,0.066,0.457,0.199
			s0.168,0.287,0.176,0.463s-0.039,0.346-0.141,0.51s-0.262,0.273-0.48,0.328c-0.758,0.031-1.531,0.057-2.32,0.076
			s-1.516,0.041-2.18,0.064c-0.156,0.016-0.277-0.027-0.363-0.129s-0.143-0.23-0.17-0.387s-0.021-0.324,0.018-0.504
			s0.105-0.34,0.199-0.48c0.102-0.156,0.215-0.303,0.34-0.439s0.234-0.264,0.328-0.381c0.133-0.164,0.293-0.365,0.48-0.604
			s0.389-0.5,0.604-0.785s0.43-0.58,0.645-0.885s0.416-0.604,0.604-0.896s0.352-0.574,0.492-0.844s0.242-0.506,0.305-0.709
			s0.082-0.404,0.059-0.604s-0.086-0.369-0.188-0.51s-0.236-0.244-0.404-0.311S279.688,133.521,279.454,133.592z"/>
		<path fill="#231F20" d="M287.958,137.451l1.859,1.818c0.118,0.109,0.166,0.258,0.144,0.445c-0.022,0.187-0.089,0.359-0.198,0.52
			c-0.109,0.159-0.244,0.271-0.403,0.334c-0.159,0.064-0.313,0.027-0.458-0.109l-2.324-2.324c-0.183-0.164-0.299-0.33-0.349-0.498
			c-0.05-0.169-0.06-0.333-0.027-0.492c0.032-0.16,0.101-0.301,0.205-0.424s0.221-0.221,0.349-0.295l2.666-1.709
			c0.173-0.09,0.335-0.088,0.485,0.008s0.267,0.225,0.349,0.389s0.118,0.338,0.109,0.52c-0.009,0.184-0.087,0.311-0.232,0.383
			L287.958,137.451z"/>
		<path fill="#231F20" d="M296.196,132.15c0.156-0.156,0.324-0.234,0.504-0.234s0.334,0.047,0.463,0.141s0.213,0.219,0.252,0.375
			s-0.004,0.313-0.129,0.469c-0.195,0.242-0.393,0.527-0.592,0.855s-0.379,0.666-0.539,1.014s-0.295,0.689-0.404,1.025
			s-0.168,0.633-0.176,0.891c0.148-0.125,0.295-0.225,0.439-0.299s0.295-0.123,0.451-0.146c0.445-0.063,0.844-0.033,1.195,0.088
			s0.652,0.305,0.902,0.551s0.447,0.535,0.592,0.867s0.234,0.682,0.27,1.049s0.014,0.732-0.064,1.096s-0.217,0.695-0.416,0.996
			s-0.459,0.555-0.779,0.762s-0.707,0.338-1.16,0.393c-0.438,0.055-0.822-0.012-1.154-0.199s-0.615-0.439-0.85-0.756
			s-0.418-0.672-0.551-1.066s-0.219-0.775-0.258-1.143c-0.063-0.555-0.059-1.152,0.012-1.793s0.195-1.268,0.375-1.881
			s0.406-1.188,0.68-1.723S295.845,132.502,296.196,132.15z M296.524,137.576c-0.227,0.055-0.404,0.176-0.533,0.363
			s-0.217,0.404-0.264,0.65s-0.055,0.504-0.023,0.773s0.1,0.514,0.205,0.732s0.244,0.396,0.416,0.533s0.371,0.193,0.598,0.17
			c0.305-0.023,0.557-0.133,0.756-0.328s0.344-0.428,0.434-0.697s0.125-0.553,0.105-0.85s-0.094-0.561-0.223-0.791
			s-0.316-0.404-0.563-0.521S296.884,137.482,296.524,137.576z"/>
	</g>
	<g>
		<path fill="#231F20" d="M143.681,116.889c-0.203-0.125-0.379-0.289-0.527-0.492s-0.26-0.434-0.334-0.691s-0.104-0.531-0.088-0.82
			s0.086-0.582,0.211-0.879c0.063-0.156,0.174-0.266,0.334-0.328s0.314-0.078,0.463-0.047s0.266,0.107,0.352,0.229
			s0.09,0.287,0.012,0.498c-0.133,0.328-0.164,0.607-0.094,0.838s0.203,0.432,0.398,0.604c0.125,0.109,0.184,0.244,0.176,0.404
			s-0.053,0.305-0.135,0.434s-0.193,0.225-0.334,0.287S143.829,116.975,143.681,116.889z M145.544,116.631
			c-0.203-0.125-0.379-0.289-0.527-0.492s-0.26-0.434-0.334-0.691s-0.104-0.531-0.088-0.82s0.086-0.582,0.211-0.879
			c0.063-0.156,0.174-0.266,0.334-0.328s0.314-0.078,0.463-0.047s0.266,0.107,0.352,0.229s0.09,0.287,0.012,0.498
			c-0.133,0.328-0.164,0.607-0.094,0.838s0.203,0.432,0.398,0.604c0.125,0.109,0.184,0.244,0.176,0.404s-0.053,0.305-0.135,0.434
			s-0.193,0.225-0.334,0.287S145.692,116.717,145.544,116.631z"/>
		<path fill="#231F20" d="M147.407,116.736c0.156-0.156,0.316-0.244,0.48-0.264s0.309,0.008,0.434,0.082s0.217,0.184,0.275,0.328
			s0.064,0.303,0.018,0.475c-0.078,0.164-0.152,0.379-0.223,0.645s-0.133,0.547-0.188,0.844s-0.098,0.602-0.129,0.914
			s-0.045,0.598-0.041,0.855s0.029,0.48,0.076,0.668s0.121,0.305,0.223,0.352s0.209,0.057,0.322,0.029s0.234-0.111,0.363-0.252
			s0.268-0.352,0.416-0.633s0.305-0.66,0.469-1.137c0.063-0.117,0.15-0.189,0.264-0.217s0.223-0.021,0.328,0.018
			s0.188,0.107,0.246,0.205s0.068,0.213,0.029,0.346c-0.07,0.273-0.186,0.602-0.346,0.984s-0.361,0.742-0.604,1.078
			s-0.52,0.604-0.832,0.803s-0.652,0.248-1.02,0.146c-0.328-0.094-0.586-0.283-0.773-0.568s-0.32-0.623-0.398-1.014
			s-0.109-0.814-0.094-1.271s0.057-0.9,0.123-1.33s0.152-0.83,0.258-1.201S147.298,116.955,147.407,116.736z M147.747,115.67
			c-0.156-0.211-0.217-0.414-0.182-0.609s0.121-0.346,0.258-0.451s0.301-0.15,0.492-0.135s0.369,0.133,0.533,0.352
			c0.109,0.18,0.139,0.357,0.088,0.533s-0.141,0.316-0.27,0.422s-0.281,0.158-0.457,0.158S147.88,115.85,147.747,115.67z"/>
		<path fill="#231F20" d="M153.513,116.549c0.031-0.102,0.109-0.186,0.234-0.252s0.256-0.086,0.393-0.059s0.26,0.113,0.369,0.258
			s0.164,0.369,0.164,0.674c-0.008,0.117-0.021,0.318-0.041,0.604s-0.041,0.605-0.064,0.961s-0.049,0.729-0.076,1.119
			s-0.053,0.744-0.076,1.061s-0.043,0.578-0.059,0.785s-0.02,0.311-0.012,0.311c0.086-0.031,0.193-0.082,0.322-0.152
			s0.273-0.186,0.434-0.346s0.334-0.369,0.521-0.627s0.383-0.59,0.586-0.996c0.07-0.094,0.166-0.135,0.287-0.123
			s0.234,0.055,0.34,0.129s0.186,0.174,0.24,0.299s0.055,0.254,0,0.387c-0.328,0.703-0.725,1.279-1.189,1.729
			s-0.979,0.822-1.541,1.119c0.008,0.297-0.006,0.639-0.041,1.025s-0.094,0.783-0.176,1.189s-0.189,0.801-0.322,1.184
			s-0.299,0.717-0.498,1.002s-0.432,0.504-0.697,0.656s-0.57,0.197-0.914,0.135c-0.398-0.07-0.699-0.236-0.902-0.498
			s-0.324-0.578-0.363-0.949s0-0.773,0.117-1.207s0.297-0.854,0.539-1.26s0.535-0.777,0.879-1.113s0.73-0.598,1.16-0.785v-0.281
			c-0.195,0.156-0.422,0.289-0.68,0.398s-0.521,0.176-0.791,0.199s-0.529-0.004-0.779-0.082s-0.461-0.227-0.633-0.445
			c-0.289-0.367-0.477-0.828-0.563-1.383s-0.082-1.117,0.012-1.688c0.086-0.531,0.252-1.01,0.498-1.436s0.543-0.777,0.891-1.055
			s0.73-0.463,1.148-0.557S153.075,116.408,153.513,116.549z M151.485,121.775c0.242,0.023,0.453-0.031,0.633-0.164
			s0.332-0.316,0.457-0.551s0.229-0.502,0.311-0.803s0.145-0.607,0.188-0.92s0.07-0.613,0.082-0.902s0.014-0.543,0.006-0.762
			c-0.539,0.063-0.992,0.275-1.359,0.639s-0.605,0.826-0.715,1.389c-0.016,0.094-0.033,0.25-0.053,0.469s-0.02,0.445,0,0.68
			s0.063,0.443,0.129,0.627S151.337,121.76,151.485,121.775z M151.884,127.377c0.133,0.023,0.258-0.027,0.375-0.152
			s0.225-0.291,0.322-0.498s0.184-0.441,0.258-0.703s0.137-0.518,0.188-0.768s0.09-0.482,0.117-0.697s0.045-0.381,0.053-0.498
			c-0.164,0.086-0.328,0.227-0.492,0.422s-0.316,0.414-0.457,0.656s-0.264,0.49-0.369,0.744s-0.178,0.488-0.217,0.703
			s-0.045,0.396-0.018,0.545S151.751,127.361,151.884,127.377z"/>
		<path fill="#231F20" d="M156.735,116.549c0.109-0.195,0.24-0.33,0.393-0.404s0.301-0.094,0.445-0.059s0.268,0.121,0.369,0.258
			s0.152,0.318,0.152,0.545c-0.023,0.094-0.066,0.281-0.129,0.563s-0.131,0.605-0.205,0.973s-0.146,0.756-0.217,1.166
			s-0.117,0.787-0.141,1.131s-0.018,0.633,0.018,0.867s0.115,0.363,0.24,0.387c0.227,0.039,0.438-0.047,0.633-0.258
			s0.375-0.49,0.539-0.838s0.313-0.736,0.445-1.166s0.248-0.842,0.346-1.236s0.178-0.744,0.24-1.049s0.109-0.508,0.141-0.609
			c0.055-0.195,0.127-0.355,0.217-0.48s0.229-0.227,0.416-0.305c0.273-0.031,0.486,0.025,0.639,0.17s0.232,0.354,0.24,0.627
			c-0.063,0.305-0.133,0.629-0.211,0.973s-0.152,0.686-0.223,1.025s-0.129,0.668-0.176,0.984s-0.076,0.6-0.088,0.85
			s0,0.461,0.035,0.633s0.107,0.281,0.217,0.328c0.25,0.039,0.475-0.09,0.674-0.387s0.412-0.781,0.639-1.453
			c0.07-0.172,0.176-0.277,0.316-0.316s0.271-0.029,0.393,0.029s0.215,0.162,0.281,0.311s0.064,0.328-0.006,0.539
			c-0.047,0.133-0.105,0.287-0.176,0.463s-0.154,0.357-0.252,0.545s-0.205,0.375-0.322,0.563s-0.242,0.355-0.375,0.504
			c-0.195,0.234-0.414,0.4-0.656,0.498s-0.48,0.131-0.715,0.1s-0.457-0.129-0.668-0.293s-0.383-0.395-0.516-0.691
			c-0.141,0.203-0.283,0.391-0.428,0.563s-0.305,0.32-0.48,0.445s-0.371,0.217-0.586,0.275s-0.467,0.08-0.756,0.064
			c-0.281-0.016-0.514-0.094-0.697-0.234s-0.326-0.32-0.428-0.539s-0.172-0.459-0.211-0.721s-0.059-0.525-0.059-0.791
			s0.01-0.518,0.029-0.756s0.037-0.439,0.053-0.604c0.023-0.211,0.061-0.457,0.111-0.738s0.105-0.568,0.164-0.861
			s0.119-0.578,0.182-0.855S156.696,116.76,156.735,116.549z"/>
		<path fill="#231F20" d="M164.142,122.912c-0.477,0-0.854-0.133-1.131-0.398s-0.471-0.607-0.58-1.025s-0.143-0.881-0.1-1.389
			s0.15-1.006,0.322-1.494s0.396-0.939,0.674-1.354s0.596-0.73,0.955-0.949s0.752-0.313,1.178-0.281s0.869,0.246,1.33,0.645
			c0.047-0.141,0.148-0.225,0.305-0.252s0.311-0.012,0.463,0.047s0.279,0.156,0.381,0.293s0.121,0.303,0.059,0.498
			c-0.055,0.219-0.125,0.486-0.211,0.803s-0.17,0.646-0.252,0.99s-0.152,0.689-0.211,1.037s-0.086,0.66-0.082,0.938
			s0.045,0.508,0.123,0.691s0.215,0.283,0.41,0.299c0.234,0.016,0.455-0.064,0.662-0.24s0.391-0.396,0.551-0.662
			s0.295-0.547,0.404-0.844s0.18-0.555,0.211-0.773c0.055-0.203,0.146-0.322,0.275-0.357s0.254-0.021,0.375,0.041
			s0.219,0.158,0.293,0.287s0.084,0.252,0.029,0.369c-0.055,0.313-0.164,0.67-0.328,1.072s-0.373,0.785-0.627,1.148
			s-0.541,0.67-0.861,0.92s-0.664,0.375-1.031,0.375c-0.164,0-0.334-0.029-0.51-0.088s-0.344-0.15-0.504-0.275
			s-0.303-0.285-0.428-0.48s-0.215-0.434-0.27-0.715c-0.07,0.086-0.168,0.193-0.293,0.322s-0.27,0.252-0.434,0.369
			s-0.344,0.219-0.539,0.305S164.353,122.912,164.142,122.912z M164.13,121.447c0.25,0.023,0.471-0.035,0.662-0.176
			s0.361-0.33,0.51-0.568s0.273-0.506,0.375-0.803s0.186-0.584,0.252-0.861s0.119-0.531,0.158-0.762s0.066-0.396,0.082-0.498
			c-0.25-0.211-0.484-0.32-0.703-0.328s-0.42,0.053-0.604,0.182s-0.346,0.311-0.486,0.545s-0.26,0.49-0.357,0.768
			s-0.17,0.561-0.217,0.85s-0.068,0.555-0.064,0.797s0.039,0.441,0.105,0.598S164.005,121.432,164.13,121.447z"/>
		<path fill="#231F20" d="M172.907,112.963c0.313,0.078,0.527,0.268,0.645,0.568s0.16,0.672,0.129,1.113s-0.129,0.932-0.293,1.471
			s-0.377,1.092-0.639,1.658s-0.561,1.125-0.896,1.676s-0.688,1.057-1.055,1.518c0.063,0.289,0.16,0.498,0.293,0.627
			s0.287,0.199,0.463,0.211s0.361-0.025,0.557-0.111s0.391-0.207,0.586-0.363c0.25-0.203,0.482-0.439,0.697-0.709
			s0.381-0.537,0.498-0.803c0.023-0.086,0.096-0.145,0.217-0.176s0.248-0.033,0.381-0.006s0.25,0.086,0.352,0.176
			s0.145,0.213,0.129,0.369c-0.172,0.422-0.381,0.807-0.627,1.154s-0.518,0.646-0.814,0.896c-0.461,0.398-0.93,0.66-1.406,0.785
			c-0.469,0.125-0.883,0.121-1.242-0.012s-0.66-0.355-0.902-0.668s-0.426-0.697-0.551-1.154s-0.188-0.951-0.188-1.482
			c0-0.32,0.01-0.658,0.029-1.014s0.053-0.715,0.1-1.078s0.105-0.725,0.176-1.084s0.16-0.707,0.27-1.043
			c0.133-0.422,0.293-0.811,0.48-1.166s0.408-0.65,0.662-0.885s0.543-0.396,0.867-0.486S172.509,112.861,172.907,112.963z
			 M172.146,114.311c-0.094-0.008-0.191,0.043-0.293,0.152s-0.201,0.258-0.299,0.445s-0.193,0.408-0.287,0.662
			s-0.18,0.518-0.258,0.791c-0.086,0.281-0.162,0.566-0.229,0.855s-0.125,0.559-0.176,0.809s-0.09,0.475-0.117,0.674
			s-0.041,0.35-0.041,0.451c0.109-0.148,0.225-0.324,0.346-0.527s0.242-0.42,0.363-0.65s0.238-0.471,0.352-0.721
			s0.217-0.496,0.311-0.738c0.117-0.289,0.217-0.564,0.299-0.826s0.141-0.492,0.176-0.691s0.043-0.361,0.023-0.486
			S172.239,114.318,172.146,114.311z"/>
		<path fill="#231F20" d="M174.759,113.689c0.203,0.125,0.379,0.289,0.527,0.492s0.26,0.434,0.334,0.691s0.104,0.531,0.088,0.82
			s-0.086,0.582-0.211,0.879c-0.063,0.156-0.174,0.266-0.334,0.328s-0.314,0.078-0.463,0.047s-0.268-0.107-0.357-0.229
			s-0.092-0.287-0.006-0.498c0.133-0.328,0.164-0.607,0.094-0.838s-0.203-0.432-0.398-0.604c-0.125-0.109-0.184-0.244-0.176-0.404
			s0.053-0.305,0.135-0.434s0.193-0.225,0.334-0.287S174.61,113.604,174.759,113.689z M176.622,113.432
			c0.203,0.125,0.379,0.289,0.527,0.492s0.26,0.434,0.334,0.691s0.104,0.531,0.088,0.82s-0.086,0.582-0.211,0.879
			c-0.063,0.156-0.174,0.266-0.334,0.328s-0.314,0.078-0.463,0.047s-0.268-0.107-0.357-0.229s-0.092-0.287-0.006-0.498
			c0.133-0.328,0.164-0.607,0.094-0.838s-0.203-0.432-0.398-0.604c-0.125-0.109-0.184-0.244-0.176-0.404s0.053-0.305,0.135-0.434
			s0.193-0.225,0.334-0.287S176.474,113.346,176.622,113.432z"/>
		<path fill="#231F20" d="M143.054,136.498c-0.016,0.391-0.086,0.783-0.211,1.178s-0.309,0.75-0.551,1.066s-0.537,0.57-0.885,0.762
			s-0.744,0.271-1.189,0.24c0.008,0.242,0.035,0.477,0.082,0.703s0.123,0.42,0.229,0.58s0.248,0.273,0.428,0.34
			s0.406,0.057,0.68-0.029c0.273-0.078,0.535-0.207,0.785-0.387s0.475-0.387,0.674-0.621s0.367-0.482,0.504-0.744
			s0.236-0.518,0.299-0.768c0.031-0.133,0.105-0.215,0.223-0.246s0.24-0.027,0.369,0.012s0.238,0.107,0.328,0.205
			s0.119,0.209,0.088,0.334c-0.172,0.453-0.342,0.855-0.51,1.207s-0.354,0.662-0.557,0.932s-0.432,0.498-0.686,0.686
			s-0.553,0.344-0.896,0.469c-0.461,0.164-0.887,0.236-1.277,0.217s-0.73-0.123-1.02-0.311s-0.518-0.453-0.686-0.797
			s-0.264-0.762-0.287-1.254c-0.016-0.234-0.021-0.518-0.018-0.85s0.025-0.68,0.064-1.043s0.102-0.732,0.188-1.107
			s0.203-0.725,0.352-1.049s0.334-0.609,0.557-0.855s0.494-0.424,0.814-0.533c0.266-0.094,0.527-0.129,0.785-0.105
			s0.486,0.105,0.686,0.246s0.357,0.338,0.475,0.592S143.062,136.131,143.054,136.498z M141.577,136.193
			c-0.109-0.07-0.217-0.076-0.322-0.018s-0.205,0.156-0.299,0.293s-0.176,0.299-0.246,0.486s-0.129,0.381-0.176,0.58
			s-0.082,0.389-0.105,0.568s-0.027,0.324-0.012,0.434c0.359-0.07,0.645-0.219,0.855-0.445s0.357-0.469,0.439-0.727
			s0.109-0.5,0.082-0.727S141.694,136.264,141.577,136.193z"/>
		<path fill="#231F20" d="M143.335,135.678c0.008-0.211,0.082-0.365,0.223-0.463s0.291-0.141,0.451-0.129s0.299,0.076,0.416,0.193
			s0.16,0.285,0.129,0.504c-0.016,0.094-0.021,0.223-0.018,0.387s0.018,0.35,0.041,0.557s0.061,0.424,0.111,0.65
			s0.119,0.445,0.205,0.656c0.094,0.242,0.209,0.465,0.346,0.668s0.299,0.363,0.486,0.48l2.402-3.973
			c0.125-0.188,0.275-0.283,0.451-0.287s0.33,0.053,0.463,0.17s0.219,0.273,0.258,0.469s-0.016,0.395-0.164,0.598l-2.461,3.809
			c0.297,0.258,0.594,0.436,0.891,0.533s0.582,0.119,0.855,0.064c0.359-0.063,0.684-0.246,0.973-0.551s0.52-0.727,0.691-1.266
			c0.016-0.125,0.076-0.207,0.182-0.246s0.217-0.039,0.334,0s0.223,0.115,0.316,0.229s0.141,0.264,0.141,0.451
			c-0.234,0.703-0.549,1.268-0.943,1.693s-0.838,0.705-1.33,0.838c-0.422,0.117-0.863,0.129-1.324,0.035s-0.934-0.305-1.418-0.633
			l-0.715,1.242c-0.117,0.195-0.271,0.299-0.463,0.311s-0.369-0.029-0.533-0.123s-0.285-0.219-0.363-0.375s-0.063-0.301,0.047-0.434
			l0.938-1.441c-0.32-0.297-0.58-0.607-0.779-0.932s-0.357-0.654-0.475-0.99c-0.18-0.508-0.289-0.998-0.328-1.471
			S143.319,136.021,143.335,135.678z"/>
		<path fill="#231F20" d="M151.315,140.318c-0.164-0.227-0.217-0.443-0.158-0.65s0.17-0.367,0.334-0.48s0.346-0.16,0.545-0.141
			s0.354,0.143,0.463,0.369c0.117,0.188,0.148,0.377,0.094,0.568s-0.152,0.346-0.293,0.463s-0.305,0.174-0.492,0.17
			S151.456,140.514,151.315,140.318z M151.491,136.768c-0.133-0.133-0.213-0.268-0.24-0.404s-0.016-0.266,0.035-0.387
			s0.129-0.225,0.234-0.311s0.225-0.141,0.357-0.164s0.27-0.01,0.41,0.041s0.27,0.154,0.387,0.311
			c0.094,0.164,0.109,0.33,0.047,0.498s-0.162,0.305-0.299,0.41s-0.293,0.166-0.469,0.182S151.624,136.9,151.491,136.768z"/>
		<path fill="#231F20" d="M158.452,132.15c0.156-0.156,0.324-0.234,0.504-0.234s0.334,0.047,0.463,0.141s0.213,0.219,0.252,0.375
			s-0.004,0.313-0.129,0.469c-0.195,0.242-0.393,0.527-0.592,0.855s-0.379,0.666-0.539,1.014s-0.295,0.689-0.404,1.025
			s-0.168,0.633-0.176,0.891c0.148-0.125,0.295-0.225,0.439-0.299s0.295-0.123,0.451-0.146c0.445-0.063,0.844-0.033,1.195,0.088
			s0.652,0.305,0.902,0.551s0.447,0.535,0.592,0.867s0.234,0.682,0.27,1.049s0.014,0.732-0.064,1.096s-0.217,0.695-0.416,0.996
			s-0.459,0.555-0.779,0.762s-0.707,0.338-1.16,0.393c-0.438,0.055-0.822-0.012-1.154-0.199s-0.615-0.439-0.85-0.756
			s-0.418-0.672-0.551-1.066s-0.219-0.775-0.258-1.143c-0.063-0.555-0.059-1.152,0.012-1.793s0.195-1.268,0.375-1.881
			s0.406-1.188,0.68-1.723S158.101,132.502,158.452,132.15z M158.78,137.576c-0.227,0.055-0.404,0.176-0.533,0.363
			s-0.217,0.404-0.264,0.65s-0.055,0.504-0.023,0.773s0.1,0.514,0.205,0.732s0.244,0.396,0.416,0.533s0.371,0.193,0.598,0.17
			c0.305-0.023,0.557-0.133,0.756-0.328s0.344-0.428,0.434-0.697s0.125-0.553,0.105-0.85s-0.094-0.561-0.223-0.791
			s-0.316-0.404-0.563-0.521S159.14,137.482,158.78,137.576z"/>
		<path fill="#231F20" d="M167.312,139.709c-0.141,0-0.25-0.07-0.328-0.211s-0.121-0.297-0.129-0.469s0.025-0.328,0.1-0.469
			s0.197-0.211,0.369-0.211h4.371c0.109,0,0.203,0.033,0.281,0.1s0.141,0.148,0.188,0.246s0.074,0.205,0.082,0.322
			s-0.008,0.227-0.047,0.328s-0.102,0.188-0.188,0.258s-0.195,0.105-0.328,0.105H167.312z M167.335,137.682
			c-0.141,0-0.25-0.07-0.328-0.211s-0.121-0.297-0.129-0.469s0.025-0.328,0.1-0.469s0.197-0.211,0.369-0.211h4.371
			c0.109,0,0.203,0.033,0.281,0.1s0.141,0.148,0.188,0.246s0.074,0.205,0.082,0.322s-0.008,0.227-0.047,0.328
			s-0.102,0.188-0.188,0.258s-0.195,0.105-0.328,0.105H167.335z"/>
		<path fill="#231F20" d="M178.14,132.15c0.156-0.156,0.324-0.234,0.504-0.234s0.334,0.047,0.463,0.141s0.213,0.219,0.252,0.375
			s-0.004,0.313-0.129,0.469c-0.195,0.242-0.393,0.527-0.592,0.855s-0.379,0.666-0.539,1.014s-0.295,0.689-0.404,1.025
			s-0.168,0.633-0.176,0.891c0.148-0.125,0.295-0.225,0.439-0.299s0.295-0.123,0.451-0.146c0.445-0.063,0.844-0.033,1.195,0.088
			s0.652,0.305,0.902,0.551s0.447,0.535,0.592,0.867s0.234,0.682,0.27,1.049s0.014,0.732-0.064,1.096s-0.217,0.695-0.416,0.996
			s-0.459,0.555-0.779,0.762s-0.707,0.338-1.16,0.393c-0.438,0.055-0.822-0.012-1.154-0.199s-0.615-0.439-0.85-0.756
			s-0.418-0.672-0.551-1.066s-0.219-0.775-0.258-1.143c-0.063-0.555-0.059-1.152,0.012-1.793s0.195-1.268,0.375-1.881
			s0.406-1.188,0.68-1.723S177.788,132.502,178.14,132.15z M178.468,137.576c-0.227,0.055-0.404,0.176-0.533,0.363
			s-0.217,0.404-0.264,0.65s-0.055,0.504-0.023,0.773s0.1,0.514,0.205,0.732s0.244,0.396,0.416,0.533s0.371,0.193,0.598,0.17
			c0.305-0.023,0.557-0.133,0.756-0.328s0.344-0.428,0.434-0.697s0.125-0.553,0.105-0.85s-0.094-0.561-0.223-0.791
			s-0.316-0.404-0.563-0.521S178.827,137.482,178.468,137.576z"/>
	</g>
</g>
</svg>
