<?xml version="1.0" encoding="utf-8"?>
<!-- Generator: Adobe Illustrator 16.0.0, SVG Export Plug-In . SVG Version: 6.00 Build 0)  -->
<!DOCTYPE svg PUBLIC "-//W3C//DTD SVG 1.1//EN" "http://www.w3.org/Graphics/SVG/1.1/DTD/svg11.dtd">
<svg version="1.1" id="Layer_1" xmlns="http://www.w3.org/2000/svg" xmlns:xlink="http://www.w3.org/1999/xlink" x="0px" y="0px"
	 width="325.984px" height="340.158px" viewBox="0 0 325.984 340.158" enable-background="new 0 0 325.984 340.158"
	 xml:space="preserve">
<polyline fill="none" stroke="#231F20" stroke-linecap="round" stroke-linejoin="round" stroke-miterlimit="10" points="
	178.248,19.092 180.221,21.438 188.198,15.88 191.304,19.852 196.871,17.01 "/>
<polyline fill="#E3D8AD" points="1.295,276.712 210.925,277.111 246.022,277.269 325.984,274.563 325.984,340.158 1.295,340.158 "/>
<path fill="none" stroke="#231F20" stroke-width="1.5" stroke-linecap="round" stroke-linejoin="round" stroke-miterlimit="10" d="
	M1.295,276.441h45.896H74.29h133.652h29.673c0,0,77.163,0.365,86.184-1.731"/>
<path fill="#A87D50" stroke="#231F20" stroke-width="1.5" stroke-miterlimit="10" d="M72.593,187.063c0,0-4.32,18.035-5.232,18.639
	c-0.889,0.588-3.105,3.291-4.71,5.28c-2.582,3.196-2.081,5.71-0.71,5.792c1.588,0.094,5.033-5.483,5.033-5.483
	s-2.356,4.583-2.503,6.021c-0.149,1.501,1.512,2.753,3,1.884c0.871-0.51,2.047-7.5,2.047-7.5s-0.669,6.857,0.24,7.654
	c1.322,1.157,2.175,0.598,2.699-1.088c0.479-1.542-0.393-4.105-0.415-5.59c-0.019-1.482,0.508-1.914,1.331-1.217
	c0.821,0.696,2.484,2.217,3.083,2.506c0.601,0.291,1.746-0.603,1.388-2.102c-0.257-1.08-6.661-5.834-6.661-5.834l4.317-17.771
	L72.593,187.063z"/>
<polyline fill="#8EB1C4" stroke="#231F20" stroke-width="1.5" stroke-linecap="round" stroke-linejoin="round" stroke-miterlimit="10" points="
	234.826,227.739 225.631,261.629 250.127,263.038 249.307,226.676 "/>
<path fill="#F8BE75" stroke="#231F20" stroke-width="1.5" stroke-linecap="round" stroke-linejoin="round" stroke-miterlimit="10" d="
	M245.123,263.038c0,0,3.084,43.914,4.004,45.342c1.264,1.965-4.004,1.113-4.004,1.113s-6.418-32.348-4.9-46.611L245.123,263.038z"/>
<path fill="#F8BE75" stroke="#231F20" stroke-width="1.5" stroke-linecap="round" stroke-linejoin="round" stroke-miterlimit="10" d="
	M234.506,262.149c0,0-2.48,45.02-0.684,46.512c1.797,1.494-4.096,0.697-4.096,0.697s-3.018-33.404-0.041-47.438L234.506,262.149z"/>
<path fill="#FFFFFF" stroke="#231F20" stroke-width="0.75" stroke-miterlimit="10" d="M174.613,12.54
	c43.869,0,79.432,23.203,79.432,51.824c0,23.686-24.361,43.645-57.621,49.831c-2.564,7.912-14.078,22.954-10.203,11.62
	c1.341-3.922,2.313-7.447,3.033-10.52c-4.748,0.577-9.637,0.894-14.641,0.894c-43.869,0-79.431-23.202-79.431-51.825
	C95.183,35.743,130.744,12.54,174.613,12.54z"/>
<path fill="#684D3B" stroke="#231F20" stroke-width="1.5" stroke-miterlimit="10" d="M137.247,181.224c0,0-5.565,9.834,0.26,16.677
	c3.193,3.751,13.53,14.157,16.146,13.812c0,0,4.929-2.67,8.853-1.887c3.923,0.785,5.107,2.74,3.948,4.727
	c-0.721,1.237,0.8,0.482,0.759,2.335c-0.041,1.854-1.32,2.596-1.804,2.856c-0.516,0.28,1.642,1.139-0.351,2.717
	c-2.772,2.197-9.293-0.297-10.733-6.062c-0.444-1.782-6.664-4.091-13.078-9.604c-6.16-5.297-10.698-14.424-8.938-19.715
	C133.717,182.846,137.247,181.224,137.247,181.224z"/>
<ellipse fill="#684D3B" stroke="#231F20" stroke-width="1.5" stroke-miterlimit="10" cx="132.12" cy="152.936" rx="6.384" ry="5.795"/>
<ellipse fill="#684D3B" stroke="#231F20" stroke-width="1.5" stroke-miterlimit="10" cx="156.404" cy="150.283" rx="21.509" ry="23.767"/>
<path fill="#625476" stroke="#231F20" stroke-width="1.5" stroke-linecap="round" stroke-linejoin="round" stroke-miterlimit="10" d="
	M145.4,173.054l-5.047,19.751l-3.322-0.593l-2.137,21.674c0,0-10.661,1.06-12.982-1.125c-2.199-2.068,3.823-22.561,3.823-22.561
	l-2.624-1.307l16.693-20.758L145.4,173.054z"/>
<path fill="none" stroke="#231F20" stroke-width="2" stroke-linecap="round" stroke-linejoin="round" stroke-miterlimit="10" d="
	M162.053,209.353"/>
<path fill="#684D3B" stroke="#231F20" stroke-width="1.5" stroke-miterlimit="10" d="M128.259,191.443c0,0-0.974,4.016-0.908,4.597
	c0.08,0.714,6.27,0.402,11.543-3.165c6.914-4.678,9.772-11.338,9.758-12.109c-0.014-0.771-9.523-11.969-7.358-15.223
	c2.164-3.252,3.682-3.065,4.551-1.196c0.87,1.869,0.526,9.972,2.991,11.378c2.468,1.408,4.78,0.78,5.256-0.96
	c0.474-1.741,4.676-3.735,4.432,0.071c-0.238,3.715-6.355,5.86-6.355,5.86s-4.606,10.922-10.256,14.808
	c-6.456,4.439-16.365,6.742-17.734,2.684c-1.042-3.09,0.743-8.393,0.743-8.393L128.259,191.443z"/>
<path fill="none" stroke="#231F20" stroke-width="2" stroke-linecap="round" stroke-linejoin="round" stroke-miterlimit="10" d="
	M162.042,212.308c0,0-3.342,2.063-1.119,3.758c0.561,0.43,3.685,0.705,5.352-0.887"/>
<path fill="#684D3B" stroke="#231F20" stroke-width="1.5" stroke-miterlimit="10" d="M161.283,216.88c0,0-2.404,1.828-0.805,3.041
	c0.563,0.428,3.2,0.817,5.036-0.172"/>
<ellipse transform="matrix(0.6909 0.723 -0.723 0.6909 200.9192 -49.4766)" fill="#684D3B" stroke="#231F20" stroke-width="1.5" stroke-miterlimit="10" cx="158.314" cy="210.204" rx="3.114" ry="3.29"/>
<path fill="#231F20" d="M170.064,143.948c0,1.622,0.776,2.943,1.738,2.943s1.739-1.321,1.739-2.943c0-1.626-0.777-2.94-1.739-2.94
	S170.064,142.322,170.064,143.948z"/>
<path fill="#231F20" d="M156.248,143.948c0,1.622,0.777,2.943,1.738,2.943c0.963,0,1.739-1.321,1.739-2.943
	c0-1.626-0.776-2.94-1.739-2.94C157.025,141.007,156.248,142.322,156.248,143.948z"/>
<line fill="none" stroke="#231F20" stroke-width="1.5" stroke-linecap="round" stroke-linejoin="round" stroke-miterlimit="10" x1="160.215" y1="137.908" x2="153.073" y2="137.652"/>
<line fill="none" stroke="#231F20" stroke-width="1.5" stroke-linecap="round" stroke-linejoin="round" stroke-miterlimit="10" x1="176.462" y1="137.406" x2="169.354" y2="138.154"/>
<path fill="none" stroke="#231F20" stroke-width="1.5" stroke-linecap="round" stroke-linejoin="round" stroke-miterlimit="10" d="
	M164.358,168.139c-9.154,3.862-19.883-2.753-20.169-7.865"/>
<polyline fill="none" stroke="#231F20" stroke-width="2" stroke-linecap="round" stroke-linejoin="round" stroke-miterlimit="10" points="
	168.913,125.687 166.754,128.255 158.024,122.172 154.626,126.519 148.534,123.409 "/>
<polyline fill="none" stroke="#231F20" stroke-width="2" stroke-linecap="round" stroke-linejoin="round" stroke-miterlimit="10" points="
	143.827,124.914 143.827,129.279 136.87,130.206 138.112,133.914 131.137,142.236 "/>
<ellipse fill="#684D3B" cx="176.614" cy="156.053" rx="6.326" ry="4.958"/>
<path fill="none" stroke="#231F20" stroke-width="1.5" stroke-linecap="round" stroke-linejoin="round" stroke-miterlimit="10" d="
	M170.288,150.72c0,0,12.619-2.643,12.652,5.525c0.029,7.308-11.531,4.746-12.652,4.746"/>
<polyline fill="none" stroke="#231F20" stroke-width="1.5" stroke-linecap="round" stroke-linejoin="round" stroke-miterlimit="10" points="
	139.935,174.862 130.446,192.523 125.546,190.105 "/>
<path fill="#F8BE75" stroke="#231F20" stroke-width="1.5" stroke-linecap="round" stroke-linejoin="round" stroke-miterlimit="10" d="
	M246.038,198.85c0,0-22.16,11.998-22.406,13.246c-0.233,1.216-2.154,4.796-3.577,7.4c-2.284,4.191-5.205,4.77-5.903,3.333
	c-0.805-1.661,3.652-7.837,3.652-7.837s-3.873,4.564-5.354,5.359c-1.545,0.826-3.624-0.399-3.353-2.385
	c0.159-1.162,7.141-5.527,7.141-5.527s-7.062,3.764-8.322,3.141c-1.828-0.904-1.606-2.069-0.028-3.379
	c1.439-1.202,4.58-1.404,6.182-2.037c1.602-0.637,1.831-1.396,0.718-1.969s-3.484-1.686-4.062-2.199
	c-0.578-0.515-0.125-2.142,1.643-2.422c1.274-0.203,9.221,4.56,9.221,4.56l22.596-16.536L246.038,198.85z"/>
<path fill="#F8BE75" stroke="#231F20" stroke-width="1.5" stroke-linecap="round" stroke-linejoin="round" stroke-miterlimit="10" d="
	M260.576,197.451c0,0-2.204,33.419-1.31,34.324c0.873,0.878,2.751,4.479,4.104,7.123c2.178,4.247,1.014,6.984-0.567,6.755
	c-1.827-0.271-4.423-7.43-4.423-7.43s1.595,5.771,1.417,7.441c-0.187,1.741-2.37,2.771-3.856,1.43
	c-0.871-0.785-0.551-9.014-0.551-9.014s-0.863,7.955-2.088,8.647c-1.776,1.001-2.614,0.163-2.809-1.879
	c-0.185-1.866,1.417-4.576,1.795-6.259c0.375-1.68-0.124-2.297-1.223-1.699c-1.102,0.597-3.355,1.932-4.104,2.119
	c-0.753,0.189-1.841-1.101-1.079-2.721c0.55-1.168,8.959-5.057,8.959-5.057l-0.952-27.982L260.576,197.451z"/>
<polygon fill="#E5625C" stroke="#231F20" stroke-width="1.5" stroke-linecap="round" stroke-linejoin="round" stroke-miterlimit="10" points="
	231.446,200.159 239.422,203.915 242.661,193.711 239.718,181.54 "/>
<path fill="#F8BE75" stroke="#231F20" stroke-width="1.5" stroke-linecap="round" stroke-linejoin="round" stroke-miterlimit="10" d="
	M251.502,171.203c-5.973,9.362-30.573,17.692-39.456-1.101c-0.834-1.764-6.302-2.498-6.359-4.272
	c-0.162-5.015,4.105-3.73,4.105-7.171c0-6.419,2.259-15.091,4.374-19.099c4.177-7.915,18.343-7.776,24.25-5.792
	c4.251,1.428,11.393,13.858,11.393,13.858s5.813-5.735,10.714-0.886c4.866,4.816,1.605,10.452-3.063,11.638
	c-2.902,0.738-4.99-1.332-4.99-1.332S255.097,165.569,251.502,171.203z"/>
<path fill="none" stroke="#231F20" stroke-width="2" stroke-linecap="round" stroke-linejoin="round" stroke-miterlimit="10" d="
	M214.166,139.56"/>
<path fill="none" stroke="#231F20" stroke-width="2" stroke-linecap="round" stroke-linejoin="round" stroke-miterlimit="10" d="
	M209.18,159.083"/>
<path fill="none" stroke="#231F20" stroke-width="1.5" stroke-linecap="round" stroke-linejoin="round" stroke-miterlimit="10" d="
	M251.502,171.203c-4.84,9.993-30.95,17.152-39.833-1.641"/>
<path fill="#231F20" d="M213.814,148.075c-0.805,0.837-1.188,2.636-0.859,4.023c0.333,1.384,1.254,1.826,2.06,0.991
	c0.803-0.836,1.187-2.635,0.854-4.018C215.539,147.684,214.618,147.241,213.814,148.075z"/>
<path fill="#231F20" d="M221.874,149.227c-0.805,0.837-1.188,2.636-0.859,4.022c0.333,1.384,1.254,1.826,2.059,0.992
	c0.803-0.836,1.188-2.635,0.854-4.018C223.599,148.835,222.678,148.392,221.874,149.227z"/>
<path fill="none" stroke="#231F20" stroke-width="2" stroke-linecap="round" stroke-linejoin="round" stroke-miterlimit="10" d="
	M240.479,134.834c8.669,6.461,9.329,12.792,9.329,12.792s1.607-1.923,3.777-2.734c0.725-0.27,1.509-0.417,2.318-0.33
	c3.235,0.354,5.494,1.926,6.487,6.2c1.001,4.299-3.968,8.031-7.47,7.578c-2.236-0.289-2.452-1.294-2.452-1.294
	s2.397,3.531,0.692,11.232"/>
<path fill="none" stroke="#231F20" stroke-width="1.5" stroke-linecap="round" stroke-linejoin="round" stroke-miterlimit="10" d="
	M258.656,151.61c0,0-3.599-5.054-6.942-0.951"/>
<path fill="none" stroke="#231F20" stroke-width="1.5" stroke-linecap="round" stroke-linejoin="round" stroke-miterlimit="10" d="
	M255.097,152.874c1.231-1.743,0.886-3.509,0.886-3.509"/>
<path fill="none" stroke="#231F20" stroke-width="1.5" stroke-linecap="round" stroke-linejoin="round" stroke-miterlimit="10" d="
	M212.412,158.75c-12.589,5.701-5.813,11.65,3.576,8.771"/>
<path fill="#231F20" d="M219.893,170.787c0.892-1.421,5.844,1.448,8.439-0.579c2.597-2.028,4.991-5.034,7.414-4.251
	c2.23,0.721,2.682,3.23,1.058,5.41C229.193,181.598,217.861,174.027,219.893,170.787z"/>
<path fill="#E5625C" stroke="#231F20" stroke-width="1.5" stroke-linecap="round" stroke-linejoin="round" stroke-miterlimit="10" d="
	M252.47,227.268l-20.796,1.281c0,0,9.259-32.109,6.518-46.613l10.355-6.38l15.93,21.341l-11.298,7.573l-6.636-20.771l5.771,19.907
	L252.47,227.268z"/>
<path fill="#F6B24D" d="M222.404,125.961c1.994-1.393,6.86-2.72,9.286-2.912c4.166-0.331,12.978,1.893,16.022,4.757
	c6.297,5.913,17.604,18.409,17.668,26.359c0.234,1.272,0.373,2.601,0.373,3.976c0,8.792-5.109,15.92-11.41,15.92
	s-11.409-7.127-11.409-15.92c0-5.852-2.206-23.043-5.874-23.265c-2.907-0.176-7.819,7.184-7.819,7.184s-16.429,0.993-18.227-3.371
	C209.389,134.741,218.902,128.404,222.404,125.961z"/>
<g>
	<path fill="none" stroke="#231F20" stroke-width="2" stroke-linecap="round" stroke-linejoin="round" stroke-miterlimit="10" d="
		M225.136,125.722c-9.777,2.982-15.244,15.399-15.344,16.098"/>
	<path fill="none" stroke="#231F20" stroke-width="2" stroke-linecap="round" stroke-linejoin="round" stroke-miterlimit="10" d="
		M225.136,125.722c-9.777,2.982-15.244,15.399-15.344,16.098"/>
	<path fill="none" stroke="#231F20" stroke-width="2" stroke-linecap="round" stroke-linejoin="round" stroke-miterlimit="10" d="
		M232.061,125.722c-9.778,2.982-15.245,15.399-15.344,16.098"/>
	<path fill="none" stroke="#231F20" stroke-width="2" stroke-linecap="round" stroke-linejoin="round" stroke-miterlimit="10" d="
		M234.656,128.971c-7.598,4.385-11.795,13.968-11.882,14.578"/>
	<path fill="none" stroke="#231F20" stroke-width="2" stroke-linecap="round" stroke-linejoin="round" stroke-miterlimit="10" d="
		M238.416,131.615c-6.691,4.676-10.368,13.095-10.448,13.666"/>
	<path fill="none" stroke="#231F20" stroke-width="2" stroke-linecap="round" stroke-linejoin="round" stroke-miterlimit="10" d="
		M228.714,123.21c14.337-2.348,19.197,3.433,28.551,14.809"/>
</g>
<path fill="none" stroke="#231F20" stroke-width="2" stroke-linecap="round" stroke-linejoin="round" stroke-miterlimit="10" d="
	M261.276,143.662c0,0,14.587,22.28-5.25,30.399"/>
<path fill="#A87D50" d="M119.354,169.561c-1.021,1.857-2.369,3.797-5.906,6.083c-5.676,3.666-22.108,0.819-25.72-9.839
	c-2.343-6.911-0.729-17.275,5.894-24.005c9.388-9.538,23.415-2.029,26.541,3.904C120.708,146.739,127.405,154.886,119.354,169.561z"
	/>
<path fill="none" stroke="#231F20" stroke-width="1.5" stroke-linecap="round" stroke-linejoin="round" stroke-miterlimit="10" d="
	M120.162,144.776c-1.347-6.571-17.153-13.44-26.541-3.902c-6.623,6.729-8.236,17.093-5.894,24.005
	c3.611,10.658,20.044,13.504,25.72,9.839c3.537-2.286,5.906-6.083,5.906-6.083"/>
<path fill="#231F20" d="M108.978,152.12c0.183,1.511,1.022,2.368,1.877,1.92c0.854-0.445,1.398-2.027,1.217-3.537
	c-0.182-1.507-1.023-2.363-1.877-1.916C109.34,149.033,108.795,150.614,108.978,152.12z"/>
<path fill="#231F20" d="M118.188,152.12c0.182,1.511,1.022,2.368,1.877,1.92c0.854-0.445,1.398-2.027,1.216-3.537
	c-0.181-1.507-1.022-2.363-1.876-1.916C118.551,149.033,118.005,150.614,118.188,152.12z"/>
<ellipse transform="matrix(0.9797 -0.2007 0.2007 0.9797 -28.997 20.1919)" fill="#A87D50" stroke="#231F20" stroke-width="1.5" stroke-miterlimit="10" cx="85.086" cy="153.107" rx="4.63" ry="4.733"/>
<path fill="none" stroke="#231F20" stroke-width="1.5" stroke-linecap="round" stroke-linejoin="round" stroke-miterlimit="10" d="
	M99.451,165.591c0.832,3.99,6.654,6.798,12.164,5.076"/>
<path fill="#A87D50" stroke="#231F20" stroke-width="1.5" stroke-miterlimit="10" d="M99.179,196.625
	c-0.799,1.48-4.115,6.199-5.173,8.539c-1.142,2.525-2.601,4.038-2.288,4.898c0.312,0.861,1.58,3.01,1.648,5.573
	c0.091,3.357,0.09,5.939-2.848,6.897c-1.27,0.416-2.579-0.564-2.252-1.786c0.328-1.223,1.513-3.155,2.279-4.537
	c0.638-1.15-0.121-4.489-1.464-4.755c-1.342-0.268-2.996,2.845-4.484,1.896c-1.485-0.95-1.128-2.404-0.439-2.993
	c0.688-0.586,2.294-1.384,3.537-1.453c1.244-0.071,1.133-0.842,1.375-1.395c1.65-3.747,6.332-9.377,5.834-10.996l4.547-5.637
	C99.451,190.876,100.269,194.611,99.179,196.625z"/>
<ellipse transform="matrix(0.9797 -0.2006 0.2006 0.9797 -30.5265 27.4386)" fill="#A87D50" cx="120.12" cy="164.339" rx="6.293" ry="4.191"/>
<path fill="none" stroke="#231F20" stroke-width="1.5" stroke-linecap="round" stroke-linejoin="round" stroke-miterlimit="10" d="
	M117.941,158.426c0,0,8.756,0.725,8.694,4.786c-0.09,5.948-9.371,5.497-10.857,4.813"/>
<path fill="none" stroke="#231F20" stroke-width="2" stroke-linecap="round" stroke-linejoin="round" stroke-miterlimit="10" d="
	M74.165,165.571"/>
<ellipse transform="matrix(0.9356 -0.3529 0.3529 0.9356 -41.7648 43.8488)" fill="#231F20" stroke="#231F20" stroke-width="2" stroke-linecap="round" stroke-linejoin="round" stroke-miterlimit="10" cx="99.362" cy="136.454" rx="9.83" ry="4.402"/>
<ellipse transform="matrix(0.9867 -0.1625 0.1625 0.9867 -20.5036 19.8098)" fill="#231F20" stroke="#231F20" stroke-width="2" stroke-linecap="round" stroke-linejoin="round" stroke-miterlimit="10" cx="110.824" cy="135.221" rx="6.051" ry="2.969"/>
<ellipse transform="matrix(0.9923 0.1238 -0.1238 0.9923 18.0469 -13.3037)" fill="#231F20" stroke="#231F20" stroke-width="2" stroke-linecap="round" stroke-linejoin="round" stroke-miterlimit="10" cx="116.061" cy="138.548" rx="4.577" ry="1.718"/>
<ellipse transform="matrix(0.9923 0.1237 -0.1237 0.9923 18.4129 -10.2919)" fill="#231F20" stroke="#231F20" stroke-width="2" stroke-linecap="round" stroke-linejoin="round" stroke-miterlimit="10" cx="92.057" cy="143.079" rx="3.739" ry="1.72"/>
<path fill="none" stroke="#231F20" stroke-width="1.4" stroke-linecap="round" stroke-linejoin="round" stroke-miterlimit="10" d="
	M222.472,144.682c3.46-1.069,7.6,2.414,8.544,5.098"/>
<path fill="none" stroke="#231F20" stroke-width="1.4" stroke-linecap="round" stroke-linejoin="round" stroke-miterlimit="10" d="
	M211.575,143.792c1.78-0.667,3.14-0.704,5.28,0.028"/>
<path fill="none" stroke="#231F20" stroke-width="1.4" stroke-linecap="round" stroke-linejoin="round" stroke-miterlimit="10" d="
	M112.819,144.686c-2.889-0.222-7.393,0.759-8.555,2.638"/>
<path fill="none" stroke="#231F20" stroke-width="1.4" stroke-linecap="round" stroke-linejoin="round" stroke-miterlimit="10" d="
	M122.267,145.48c-1.265-0.481-3.049-0.503-4.574,0.037"/>
<path fill="#231F20" d="M88.935,207.607c0,0,2.135,34.837,2.098,46.626c-0.02,6.755-0.906,32.717-0.906,32.717h-7.02
	c0,0,0.794-43.082,0-46.841c-0.751-3.55-1.531-18.22-2.818-20.819c-1.786-3.599,0.059-2.007,0.301,0.504
	c0.102,1.055,0.932,14.173,0.599,19.206c-0.333,5.034-2.119,25.3-3.178,32.982c-0.112,0.812-1.13,16.292-1.13,16.292
	s-6.193,1.045-7.152,0.662c-0.958-0.383,2.119-25.166,2.649-31.393c0.53-6.225-2.517-46.891-2.517-46.891l0.265-4.77L88.935,207.607
	z"/>
<path fill="#414141" stroke="#231F20" stroke-width="2" stroke-linecap="round" stroke-linejoin="round" stroke-miterlimit="10" d="
	M81.956,284.522c0,0-6.209,10.154-3.776,13.617c1.929,2.748,5.955,3.287,11.911,3.287c5.958,0,7.213-0.012,10.852,0.021
	c3.093,0.027,9.563-4.817-1.945-11.194c-5.514-3.055-10.543-5.731-10.543-5.731H81.956z"/>
<path fill="#414141" stroke="#231F20" stroke-width="2" stroke-linecap="round" stroke-linejoin="round" stroke-miterlimit="10" d="
	M68.945,287.157c0,0-6.209,10.154-3.777,13.617c1.93,2.748,5.956,3.286,11.912,3.286c5.957,0,7.213-0.011,10.852,0.022
	c3.093,0.027,9.563-4.818-1.945-11.194c-5.514-3.055-10.543-5.731-10.543-5.731H68.945z"/>
<path fill="none" stroke="#231F20" stroke-width="2" stroke-linecap="round" stroke-linejoin="round" stroke-miterlimit="10" d="
	M243.072,276.862"/>
<linearGradient id="SVGID_1_" gradientUnits="userSpaceOnUse" x1="247.4023" y1="268.8813" x2="247.4023" y2="268.8813">
	<stop  offset="0" style="stop-color:#FFFFFF"/>
	<stop  offset="1" style="stop-color:#000000"/>
</linearGradient>
<path fill="none" stroke="url(#SVGID_1_)" stroke-width="2" stroke-linecap="round" stroke-linejoin="round" stroke-miterlimit="10" d="
	M247.402,268.881"/>
<path fill="#231F20" stroke="#231F20" stroke-width="2" stroke-linecap="round" stroke-linejoin="round" stroke-miterlimit="10" d="
	M234.242,300.446c0,0,6.006,9.582,3.428,12.85c-2.045,2.594-6.314,3.102-12.629,3.102c-6.316,0-7.646-0.01-11.504,0.021
	c-3.279,0.025-9.99-3.57,2.063-10.564c5.598-3.246,10.523-5.408,10.523-5.408H234.242z"/>
<path fill="#231F20" stroke="#231F20" stroke-width="2" stroke-linecap="round" stroke-linejoin="round" stroke-miterlimit="10" d="
	M249.242,300.446c0,0,6.006,9.582,3.428,12.85c-2.045,2.594-6.314,3.102-12.629,3.102c-6.316,0-7.646-0.01-11.504,0.021
	c-3.279,0.025-9.99-3.57,2.063-10.564c5.598-3.246,10.523-5.408,10.523-5.408H249.242z"/>
<path fill="#684D3B" stroke="#231F20" stroke-width="1.5" stroke-miterlimit="10" d="M119.296,247.614
	c0,0-3.084,43.914-4.004,45.342c-1.264,1.965,4.004,1.113,4.004,1.113s4.65-31.789,4.9-46.611L119.296,247.614z"/>
<path fill="#684D3B" stroke="#231F20" stroke-width="1.5" stroke-miterlimit="10" d="M126.913,246.725c0,0,2.48,45.02,0.684,46.512
	c-1.797,1.494,4.096,0.697,4.096,0.697s0.7-32.496,0.041-47.438L126.913,246.725z"/>
<path fill="#684D3B" stroke="#231F20" stroke-width="1.5" stroke-miterlimit="10" d="M121.347,261.438"/>
<path fill="#231F20" stroke="#231F20" stroke-width="2" stroke-linecap="round" stroke-linejoin="round" stroke-miterlimit="10" d="
	M127.177,291.022c0,0-6.006,9.582-3.428,12.85c2.045,2.594,6.314,3.102,12.629,3.102c6.316,0,7.646-0.01,11.504,0.021
	c3.279,0.025,9.99-3.57-2.063-10.564c-5.598-3.246-10.523-5.408-10.523-5.408H127.177z"/>
<path fill="#231F20" stroke="#231F20" stroke-width="2" stroke-linecap="round" stroke-linejoin="round" stroke-miterlimit="10" d="
	M115.177,291.022c0,0-6.006,9.582-3.428,12.85c2.045,2.594,6.314,3.102,12.629,3.102c6.316,0,7.646-0.01,11.504,0.021
	c3.279,0.025,9.99-3.57-2.063-10.564c-5.598-3.246-10.523-5.408-10.523-5.408H115.177z"/>
<path fill="#8EB1C4" stroke="#231F20" stroke-width="1.5" stroke-linecap="round" stroke-linejoin="round" stroke-miterlimit="10" d="
	M94.732,174.13c0.199-1.636-3.795-4.089-5.753-2.465l-5.71,0.609l-14.492,16.111l6.78,4.453c-3.125,5.62-5.601,10.713-5.779,12.832
	c-0.17,2.008,22.172,4.69,22.172,4.69l-0.102-21.757c0,0,0.271,8.387,0.697,8.505c1.636,0.452,8.434-8.083,8.434-8.083
	S94.032,179.912,94.732,174.13z"/>
<line fill="#8EB1C4" stroke="#231F20" stroke-width="1.5" stroke-linecap="round" stroke-linejoin="round" stroke-miterlimit="10" x1="81.636" y1="182.566" x2="75.558" y2="192.839"/>
<polygon fill="#A6A8AB" stroke="#231F20" stroke-width="1.5" stroke-miterlimit="10" points="121.595,212.696 118.153,247.801 
	127.267,247.801 128.636,224.676 127.767,246.858 133.504,246.301 134.895,213.774 "/>
<path fill="#FCDAC6" d="M170.672,50.615l0.001,0.017L170.672,50.615z M170.672,50.599v0.015V50.599z M170.671,50.585v0.008V50.585z"
	/>
<path fill="#F7992B" d="M164.884,79.624h0.002H164.884z M164.863,79.621l0.003,0.001L164.863,79.621z M164.845,79.618
	L164.845,79.618L164.845,79.618z M164.824,79.615l0.004,0L164.824,79.615z M164.805,79.612h0.003H164.805z M164.786,79.609
	l0.002,0.001L164.786,79.609z M164.769,79.606L164.769,79.606L164.769,79.606z"/>
<path fill="#ED8122" d="M161.842,85.491h0.008H161.842z M161.834,85.491h0.006H161.834z M161.828,85.49l0.002,0.001L161.828,85.49z
	 M162.859,85.206c-0.213,0.14-0.436,0.223-0.653,0.26c-0.12,0.021-0.239,0.028-0.356,0.025c0.117,0.003,0.236-0.004,0.356-0.025
	C162.424,85.428,162.646,85.345,162.859,85.206z M163.577,84.768c-0.152,0.026-0.313,0.125-0.504,0.278
	c0.19-0.151,0.35-0.25,0.501-0.275c0.137-0.024,0.268,0.011,0.405,0.117l-0.008-0.009C163.837,84.776,163.711,84.744,163.577,84.768
	z"/>
<path fill="#ED8122" d="M159.128,84.091c-0.064,0.011-0.131,0.027-0.2,0.049C158.996,84.118,159.063,84.102,159.128,84.091
	c0.389-0.069,0.7,0.039,0.952,0.24l-0.008-0.008C159.822,84.126,159.513,84.023,159.128,84.091z M158.01,84.055L158.01,84.055
	L158.01,84.055z M157.735,83.796c0.09,0.094,0.176,0.185,0.271,0.256c-0.096-0.072-0.181-0.162-0.27-0.256H157.735z"/>
<path fill="#F0B79A" d="M168.016,67.457L168.016,67.457l0.052,0.025c0.263,0.244,0.546,0.693,0.622,1.125
	c-0.076-0.432-0.359-0.881-0.622-1.125L168.016,67.457z"/>
<path fill="#ED8122" d="M168.942,85.686c0.243,0.166,0.605,0.308,1.066,0.228c0.146-0.025,0.301-0.073,0.466-0.15
	c-0.164,0.077-0.319,0.125-0.466,0.15C169.548,85.994,169.186,85.852,168.942,85.686z"/>
<path fill="#ED8122" d="M165.341,85.728h0.006H165.341z M165.334,85.728L165.334,85.728L165.334,85.728z M168.048,85.144
	c-0.044,0.008-0.088,0.021-0.134,0.041c0.044-0.019,0.09-0.032,0.133-0.039c0.152-0.027,0.296,0.013,0.414,0.091l-0.003-0.003
	C168.34,85.157,168.199,85.117,168.048,85.144z"/>
<path fill="#ED8122" d="M156.409,83.616L156.409,83.616L156.409,83.616z M156.155,83.613L156.155,83.613L156.155,83.613z
	 M156.714,83.502l-0.011,0.007L156.714,83.502z M156.106,83.604l0.002,0L156.106,83.604z M156.729,83.493l-0.009,0.006
	L156.729,83.493z M156.1,83.603L156.1,83.603L156.1,83.603z M156.784,83.482c-0.036,0.005-0.056,0.011-0.056,0.011
	s0.018-0.005,0.047-0.01c0.136-0.023,0.532-0.067,0.813,0.172c-0.009-0.009-0.018-0.018-0.025-0.027
	C157.29,83.418,156.923,83.457,156.784,83.482z M156.091,83.601L156.091,83.601L156.091,83.601z M156.069,83.595L156.069,83.595
	L156.069,83.595z M156.061,83.593h0.003H156.061z M156.052,83.591l0.004,0L156.052,83.591z M156.044,83.588l0.004,0.001
	L156.044,83.588z M156.036,83.586l0.004,0.001L156.036,83.586z M156.024,83.582l0.002,0.001L156.024,83.582z M156.016,83.579
	l0.004,0.002L156.016,83.579z M156.008,83.577l0.003,0.001L156.008,83.577z M156,83.574l0.003,0.001L156,83.574z M155.99,83.571
	l0.005,0.001L155.99,83.571z M155.979,83.567l0.009,0.003L155.979,83.567z M155.971,83.564l0.005,0.001L155.971,83.564z
	 M155.964,83.561l0.003,0.002L155.964,83.561z M155.954,83.557l0.006,0.002L155.954,83.557z M155.946,83.554l0.005,0.003
	L155.946,83.554z M155.937,83.55l0.007,0.002L155.937,83.55z M155.927,83.546l0.008,0.003L155.927,83.546z M155.92,83.542
	l0.005,0.002L155.92,83.542z M155.911,83.539l0.006,0.003L155.911,83.539z M155.903,83.535l0.006,0.003L155.903,83.535z
	 M155.886,83.526l0.016,0.008L155.886,83.526z M155.878,83.522l0.008,0.004L155.878,83.522z M155.87,83.518l0.006,0.003
	L155.87,83.518z M155.86,83.514l0.008,0.003L155.86,83.514z M155.836,83.5c0.009,0.004,0.016,0.009,0.024,0.013
	C155.852,83.509,155.845,83.504,155.836,83.5z M155.829,83.496l0.006,0.003L155.829,83.496z M155.821,83.492l0.006,0.003
	L155.821,83.492z M155.814,83.487l0.006,0.003L155.814,83.487z M155.798,83.476l0.015,0.01L155.798,83.476z M155.792,83.472
	l0.004,0.003L155.792,83.472z M155.782,83.467l0.007,0.003L155.782,83.467z M155.776,83.463l0.005,0.002L155.776,83.463z
	 M155.771,83.458l0.003,0.003L155.771,83.458z M155.76,83.451l0.007,0.004L155.76,83.451z M155.754,83.446l0.003,0.002
	L155.754,83.446z M155.747,83.441l0.003,0.002L155.747,83.441z M155.741,83.437l0.003,0.001L155.741,83.437z M155.734,83.432
	l0.002,0.001L155.734,83.432z"/>
<path fill="#EF4D3E" d="M163.979,84.887c0.166,0.19,0.283,0.337,0.413,0.44c-0.072-0.081-0.149-0.176-0.246-0.284
	C164.089,84.979,164.034,84.93,163.979,84.887z"/>
<path fill="#EF4D3E" d="M168.461,85.237c0.044,0.055,0.111,0.123,0.197,0.191l-0.017-0.021
	C168.592,85.34,168.53,85.282,168.461,85.237z"/>
<path fill="#EF4D3E" d="M160.08,84.331c0.079,0.09,0.152,0.188,0.217,0.292c0.061,0.099,0.151,0.196,0.267,0.286
	c-0.023-0.029-0.046-0.057-0.063-0.087C160.383,84.633,160.243,84.462,160.08,84.331z"/>
<path fill="#FFFFFF" stroke="#231F20" stroke-miterlimit="10" d="M207.186,72.844c0,0,5.086,8.988-0.237,15.24
	c-2.918,3.429-12.364,12.938-14.755,12.623c0,0-4.384-1.59-8.091-1.724c-3.652-0.132-4.768,3.836-2.771,4.491
	c1.123,0.368-1.568,0.269-1.53,1.962c0.037,1.694,1.397,2.395,2.713,2.545c0.532,0.061-1.985,0.584-0.744,2.548
	c1.453,2.3,8.492-0.272,9.809-5.54c0.406-1.629,6.09-3.738,11.951-8.778c5.63-4.839,9.777-13.18,8.168-18.016
	C210.412,74.327,207.186,72.844,207.186,72.844z"/>
<ellipse fill="#FFFFFF" stroke="#231F20" stroke-miterlimit="10" cx="209.872" cy="46.993" rx="5.834" ry="5.296"/>
<ellipse fill="#FFFFFF" stroke="#231F20" stroke-miterlimit="10" cx="189.68" cy="44.569" rx="19.656" ry="21.719"/>
<path fill="#FFFFFF" stroke="#231F20" stroke-linecap="round" stroke-linejoin="round" stroke-miterlimit="10" d="M199.735,65.379
	l4.611,18.049l3.036-0.542l1.953,19.806c0,0,9.742,0.969,11.864-1.027c2.01-1.891-3.494-20.618-3.494-20.618l2.397-1.194
	l-15.255-18.969L199.735,65.379z"/>
<path fill="#231F20" d="M177.195,38.779c0,1.482-0.709,2.69-1.588,2.69c-0.88,0-1.59-1.208-1.59-2.69c0-1.486,0.71-2.687,1.59-2.687
	C176.486,36.092,177.195,37.293,177.195,38.779z"/>
<path fill="#231F20" d="M189.821,38.779c0,1.482-0.71,2.69-1.588,2.69c-0.88,0-1.59-1.208-1.59-2.69c0-1.486,0.71-2.687,1.59-2.687
	C189.111,36.092,189.821,37.293,189.821,38.779z"/>
<line fill="none" stroke="#231F20" stroke-linecap="round" stroke-linejoin="round" stroke-miterlimit="10" x1="186.196" y1="33.26" x2="192.723" y2="33.026"/>
<line fill="none" stroke="#231F20" stroke-linecap="round" stroke-linejoin="round" stroke-miterlimit="10" x1="171.349" y1="32.801" x2="177.845" y2="33.484"/>
<polyline fill="none" stroke="#231F20" stroke-linecap="round" stroke-linejoin="round" stroke-miterlimit="10" points="
	200.327,20.914 200.327,25.375 207.107,26.221 206.185,29.61 212.241,36.979 "/>
<ellipse fill="#FFFFFF" cx="171.21" cy="49.842" rx="5.781" ry="4.531"/>
<path fill="none" stroke="#231F20" stroke-linecap="round" stroke-linejoin="round" stroke-miterlimit="10" d="M176.991,44.968
	c0,0-11.532-2.415-11.563,5.049c-0.026,6.679,10.538,4.337,11.563,4.337"/>
<polyline fill="none" stroke="#231F20" stroke-linecap="round" stroke-linejoin="round" stroke-miterlimit="10" points="
	204.729,67.03 213.401,83.17 217.879,80.96 "/>
<ellipse transform="matrix(0.9981 -0.0617 0.0617 0.9981 -5.4909 9.636)" fill="none" stroke="#A6A8AB" stroke-linecap="round" stroke-linejoin="round" stroke-miterlimit="10" cx="153.209" cy="93.686" rx="33.057" ry="9.242"/>
<path fill="#FFCE53" stroke="#F05A28" stroke-miterlimit="10" d="M178.481,71.803l-51.7,2.758l0.973,17.94
	c0.009,0.05,0.024,0.099,0.036,0.148l0.039,0.153l0.003-0.001c1.188,3.744,11.647,6.213,24.312,5.595
	c12.992-0.634,25.043-3.67,25.578-7.637l0,0L178.481,71.803z"/>
<path fill="#FCDDA4" d="M177.523,81.505L177.523,81.505l-0.329,3.342l0.013-0.04l0.088-0.988L177.523,81.505z M131.354,86.596
	l0.05,0.277l0.008,0.015l0.001,0.003l0.009,0.014l0.001,0.003l0.002,0.002L131.354,86.596z"/>
<path fill="#F3BD64" d="M143.675,98.632c0.019,0,0.036-0.002,0.054-0.003C143.711,98.629,143.693,98.631,143.675,98.632z
	 M141.594,98.737c0.694-0.025,1.383-0.06,2.063-0.104C142.977,98.677,142.288,98.712,141.594,98.737z M166.28,90.799l-0.001,0.014
	L166.28,90.799z"/>
<path fill="#F37D21" stroke="#F05A28" stroke-miterlimit="10" d="M152.476,62.987c-14.049,0.516-25.378,4.642-25.871,9.322
	c-0.002,0.006-0.338,7.363,0.377,9.677c0.571,1.848,3.053,4.861,6.406,4.342c1.511-0.234,2.146-0.899,2.645-1.54
	c0.604-0.782,1.004-1.527,2.531-1.409c2.78,0.215,2.056,3.294,5.224,3.722c1.729,0.233,2.423-0.668,3.201-1.584
	c0.647-0.762,1.354-1.535,2.766-1.674c3.109-0.305,3.038,4.488,9.236,3.75c6.198-0.737,4.606-5.791,9.109-6.974
	c4.502-1.182,3.999,2.352,6.923,2.189c2.87-0.16,4.417-4.814,3.982-11.746c-0.007-0.083,0.004-0.167,0.002-0.25
	C178.827,65.96,166.949,62.456,152.476,62.987z"/>
<path fill="#F7992B" d="M154.487,78.856c0.006-0.001,0.012-0.002,0.018-0.003C154.499,78.854,154.493,78.855,154.487,78.856z
	 M154.469,78.859l0.007-0.001L154.469,78.859z M154.45,78.862h0.005H154.45z M154.433,78.864l0.004-0.001L154.433,78.864z
	 M154.414,78.867l0.003-0.001L154.414,78.867z M154.397,78.869L154.397,78.869L154.397,78.869z M160.345,76.026
	c0.614,0.188,1.009,0.56,1.344,0.996l-0.007-0.009C161.349,76.581,160.955,76.214,160.345,76.026z M160.335,76.023l0.008,0.002
	L160.335,76.023z M160.325,76.021l0.003,0.001L160.325,76.021z"/>
<path fill="#F37422" d="M177.166,84.815c-1.16,3.829-11.586,7.249-24.359,7.831c-12.336,0.562-22.631-1.717-24.555-5.218
	c0,0-0.479,0.589-0.337,1.384s0.981,0.908,1.395,0.646c0,0,0.389-0.068,0.396,0.259c0.008,0.326,0.217,0.805,0.504,1.012
	c0.286,0.208,0.785,0.189,1.081,0.021c0.295-0.169,0.656-0.116,0.806,0.303c0.148,0.42,0.824,0.693,1.319,0.378
	c0,0,0.6-0.152,0.959,0.183c0.36,0.335,0.571,0.682,1.38,0.438c0.81-0.243,1.329,0.14,1.672,0.667
	c0.343,0.526,1.639,1.048,2.696,0.229c0.49-0.379,0.793-0.476,1.192-0.051c0.438,0.467,0.524,0.68,1.272,0.671
	c0.25-0.002,0.482-0.161,0.694-0.316c0.278-0.204,0.523-0.4,0.737-0.239c0.376,0.285,0.765,0.358,1.142,0.081
	c0.378-0.278,0.755-0.132,0.947,0.115c0.193,0.246,0.955,0.862,2.102,0.263c0,0,0.578-0.348,0.804-0.352
	c0.225-0.005,0.596-0.035,1.3,0.334s1.978,0.988,3.665-0.117c0.677-0.443,1.058-0.268,1.406-0.085
	c0.373,0.194,0.708,0.395,1.333-0.15c0.659-0.577,1.169-0.102,1.823,0.148c0.742,0.284,1.513,0.249,2.261-0.04
	c0.791-0.307,1.521-1.273,2.387-0.719c1.341,0.858,2.705,0.975,3.447-0.71c0.387-0.876,0.744-0.746,1.466-0.354
	c0.8,0.437,1.878,0.344,2.525-0.341c0.404-0.429,0.418-1.604,1.164-1.056c0.891,0.651,2.119,0.081,2.345-0.926
	c0.125-0.563,0.417-0.43,0.889-0.403c0.409,0.025,0.845-0.099,1.093-0.427c0.28-0.371,0.015-0.811,0.252-1.16
	c0.163-0.24,0.468-0.281,0.77-0.322c0.25-0.035,0.499-0.068,0.667-0.215c0.5-0.438,0.056-1.278-0.339-1.623L177.166,84.815z"/>
<path fill="#ED8122" d="M152.859,81.478c0,0,0.077-0.011,0.159,0.005v-0.001C152.936,81.464,152.859,81.478,152.859,81.478z
	 M152.859,81.478l-0.008,0.005L152.859,81.478z"/>
<path fill="#ED8122" d="M154.935,82.711c-0.069,0.012-0.139,0.04-0.204,0.079c0.063-0.039,0.131-0.064,0.199-0.077
	c0.098-0.017,0.198-0.005,0.287,0.041l-0.004-0.006C155.126,82.705,155.03,82.694,154.935,82.711z M153.698,82.742l0.019,0.015
	L153.698,82.742z"/>
<path fill="#F69022" d="M152.142,63.349c-13.093,0.613-23.687,4.322-24.609,8.459c-0.001,0.002-0.004,10.662-0.004,10.662
	s2.941,3.343,5.621,2.357c2.436-0.896,1.666-2.625,4.614-2.862c0,0,1.765-0.063,3.652,2.17c1.89,2.232,3.221,1.596,4.076,0.692
	c0.856-0.903-2.552,0.711-3.524-2.948c-0.723-2.717,3.332-2.522,5.049-2.491c1.888,0.056,3.855,0.041,5.874-0.053
	c13.834-0.648,25.575-4.455,25.37-8.87C178.054,66.052,165.976,62.701,152.142,63.349z"/>
<path fill="#F58B29" d="M154.268,77.353l-0.013,0.005L154.268,77.353z M154.277,77.35l-0.01,0.003L154.277,77.35z M150.503,74.885
	L150.503,74.885L150.503,74.885z M150.503,74.885L150.503,74.885L150.503,74.885z M148.653,64.318l-0.004,0.017
	c-0.001,0.001-0.4,1.068-0.107,2.745c-0.293-1.677,0.106-2.744,0.107-2.745L148.653,64.318z M148.661,64.281
	c-0.003,0.011-0.004,0.022-0.007,0.033C148.657,64.303,148.658,64.292,148.661,64.281z M148.666,64.262l-0.003,0.016L148.666,64.262
	z M148.671,64.245l-0.005,0.017L148.671,64.245z M148.676,64.227l-0.005,0.015L148.676,64.227z M148.681,64.208l-0.005,0.017
	L148.681,64.208z M148.685,64.191l-0.003,0.013L148.685,64.191z M148.69,64.173l-0.005,0.016L148.69,64.173z M148.694,64.156
	l-0.003,0.012L148.694,64.156z M148.701,64.137l-0.005,0.014L148.701,64.137z M148.705,64.122l-0.003,0.009L148.705,64.122z
	 M148.711,64.102l-0.003,0.012L148.711,64.102z M148.717,64.086l-0.003,0.007L148.717,64.086z M148.72,64.075l-0.001,0.003
	L148.72,64.075z M148.728,64.051l-0.001,0.005L148.728,64.051z M148.739,64.017L148.739,64.017L148.739,64.017z"/>
<path fill="#FAAA3A" d="M130.935,68.998c0,0-2.857,1.915-1.346,4.877c1.28,2.507,7.401,3.586,8.034,3.475
	c0.115-0.02,0.049-0.079-0.258-0.176C135.362,76.542,128.516,73.735,130.935,68.998z"/>
<path fill="#F69022" d="M155.224,85.328c0,0,2.009,1.405,4.548,0.354c2.539-1.051,2.216-1.997,1.548-1.425
	c-0.67,0.573-4.263,1.591-5.768,0.279C154.05,83.223,153.744,84.383,155.224,85.328z"/>
<polyline fill="none" stroke="#FFFFFF" stroke-width="1.5" stroke-linecap="round" stroke-linejoin="round" stroke-miterlimit="10" points="
	149.25,62.934 151.702,69.174 133.845,75.699 133.412,96.748 "/>
<line fill="none" stroke="#FFFFFF" stroke-width="1.5" stroke-linecap="round" stroke-linejoin="round" stroke-miterlimit="10" x1="179.501" y1="72.259" x2="152.631" y2="69.344"/>
<path fill="#FFFFFF" stroke="#231F20" stroke-miterlimit="10" d="M215.301,82.783c0,0,0.797,4.105,1.152,4.548
	c0.438,0.542-4.393,4.041-10.811,4.729c-8.415,0.903-15.188-2.003-15.715-2.547c-0.529-0.544-1.248-14.021-5.13-14.979
	c-3.881-0.958-4.882,0.082-4.227,1.901c0.654,1.818,6.562,7.235,5.703,9.69c-0.856,2.458-3.019,3.41-4.586,2.488
	c-1.566-0.924-6.091,0.213-3.253,2.709c2.768,2.435,8.822,0.252,8.822,0.252s11.048,4.815,17.968,4.121
	c7.908-0.793,16.037-4.828,15.09-8.78c-0.655-2.734-1.148-6.066-1.148-6.066L215.301,82.783z"/>
<line fill="none" stroke="#231F20" stroke-linecap="round" stroke-linejoin="round" stroke-miterlimit="10" x1="209.336" y1="102.692" x2="209.956" y2="109.493"/>
<path fill="#231F20" d="M179.169,57.663c0.755-1.124,5.752,1.647,8.108,0.145c2.356-1.504,4.445-3.842,6.845-3.007
	c2.208,0.77,2.83,2.904,1.424,4.608C188.958,67.406,177.448,60.224,179.169,57.663z"/>
<polyline fill="none" stroke="#231F20" stroke-linecap="round" stroke-linejoin="round" stroke-miterlimit="10" points="
	179.421,21.178 181.394,23.525 189.371,17.966 192.477,21.939 198.044,19.096 "/>
</svg>
