<?xml version="1.0" encoding="utf-8"?>
<!-- Generator: Adobe Illustrator 16.0.0, SVG Export Plug-In . SVG Version: 6.00 Build 0)  -->
<!DOCTYPE svg PUBLIC "-//W3C//DTD SVG 1.1//EN" "http://www.w3.org/Graphics/SVG/1.1/DTD/svg11.dtd">
<svg version="1.1" id="Layer_1" xmlns="http://www.w3.org/2000/svg" xmlns:xlink="http://www.w3.org/1999/xlink" x="0px" y="0px"
	 width="198.43px" height="141.73px" viewBox="0 0 198.43 141.73" enable-background="new 0 0 198.43 141.73" xml:space="preserve">
<path fill="none" stroke="#929497" stroke-linecap="round" stroke-linejoin="round" stroke-miterlimit="10" d="M195.066,93.755
	c0.648,15.562-40.795,33.338-92.698,35.492c-51.902,2.157-94.608-12.128-95.253-27.686C6.469,86,48.02,71.634,99.92,69.481
	C151.823,67.324,194.419,78.194,195.066,93.755z"/>
<path fill="#FFCE53" stroke="#F05A28" stroke-miterlimit="10" d="M173.492,37.879L29.247,45.575l2.712,50.055
	c0.025,0.138,0.07,0.274,0.104,0.415l0.108,0.426l0.006-0.003c3.314,10.443,32.499,17.336,67.833,15.61
	c36.246-1.772,69.871-10.24,71.362-21.309l0,0L173.492,37.879z"/>
<path fill="#FCDDA4" d="M170.819,64.949L170.819,64.949l-0.918,9.324l0.036-0.112l0.244-2.754L170.819,64.949z M42.006,79.151
	l0.14,0.774l0.021,0.044l0.002,0.006l0.025,0.042l0.002,0.007l0.006,0.006L42.006,79.151z"/>
<path fill="#F37D21" stroke="#F05A28" stroke-miterlimit="10" d="M100.936,13.28c-34.672,1.272-70.824,13.118-72.182,26.01
	c-0.006,0.017-0.942,20.545,1.05,27c1.595,5.156,8.519,13.563,17.875,12.117c4.214-0.654,5.987-2.515,7.378-4.297
	c1.688-2.185,2.802-4.259,7.063-3.933c7.757,0.6,5.735,9.191,14.574,10.387c4.825,0.648,6.759-1.867,8.931-4.422
	c1.807-2.128,3.776-4.284,7.717-4.672c8.676-0.853,8.476,12.523,25.77,10.463c17.294-2.056,12.852-16.153,25.415-19.457
	c12.562-3.296,11.157,6.563,19.315,6.11c8.008-0.446,12.324-13.433,11.111-32.772c-0.019-0.234,0.012-0.467,0.006-0.697
	C174.457,21.575,141.318,11.798,100.936,13.28z"/>
<path fill="#F7992B" d="M106.548,57.557c0.017,0,0.032-0.005,0.049-0.005C106.58,57.552,106.564,57.557,106.548,57.557z
	 M106.495,57.568l0.02-0.007L106.495,57.568z M106.443,57.573h0.014H106.443z M106.395,57.578h0.012H106.395z M106.344,57.587
	l0.008-0.002L106.344,57.587z M106.297,57.593h0.002H106.297z M122.89,49.661c1.714,0.528,2.815,1.563,3.749,2.778l-0.018-0.021
	C125.691,51.209,124.592,50.185,122.89,49.661z M122.863,49.655l0.021,0.006L122.863,49.655z M122.835,49.645l0.009,0.005
	L122.835,49.645z"/>
<path fill="#F37422" d="M169.822,74.183c-3.237,10.68-32.324,20.222-67.964,21.849c-34.417,1.567-63.141-4.793-68.51-14.558
	c0,0-1.336,1.64-0.938,3.86c0.396,2.222,2.737,2.531,3.891,1.802c0,0,1.084-0.191,1.104,0.726c0.021,0.909,0.604,2.245,1.406,2.823
	c0.799,0.577,2.189,0.527,3.016,0.059c0.822-0.474,1.83-0.327,2.248,0.845c0.414,1.172,2.3,1.935,3.681,1.055
	c0,0,1.673-0.422,2.675,0.51c1.007,0.938,1.596,1.904,3.852,1.223c2.259-0.678,3.707,0.39,4.664,1.86
	c0.956,1.467,4.572,2.921,7.522,0.638c1.368-1.056,2.212-1.326,3.326-0.141c1.222,1.302,1.464,1.896,3.551,1.875
	c0.698-0.008,1.347-0.454,1.938-0.883c0.777-0.571,1.461-1.117,2.058-0.672c1.048,0.796,2.133,1.004,3.185,0.226
	c1.055-0.774,2.106-0.367,2.644,0.323c0.539,0.686,2.664,2.404,5.862,0.731c0,0,1.613-0.968,2.244-0.979
	c0.625-0.014,1.661-0.1,3.625,0.933c1.965,1.028,5.518,2.757,10.226-0.328c1.889-1.236,2.952-0.747,3.925-0.233
	c1.039,0.539,1.975,1.101,3.719-0.421c1.839-1.612,3.261-0.285,5.088,0.415c2.07,0.789,4.22,0.692,6.306-0.115
	c2.208-0.855,4.244-3.552,6.66-2.004c3.739,2.395,7.547,2.72,9.617-1.981c1.079-2.444,2.077-2.08,4.09-0.987
	c2.23,1.218,5.239,0.962,7.046-0.951c1.129-1.198,1.167-4.473,3.248-2.947c2.483,1.817,5.913,0.226,6.542-2.582
	c0.35-1.573,1.163-1.2,2.479-1.126c1.142,0.067,2.356-0.275,3.049-1.191c0.783-1.035,0.04-2.26,0.704-3.237
	c0.455-0.67,1.305-0.784,2.146-0.897c0.698-0.1,1.393-0.192,1.862-0.601c1.394-1.223,0.154-3.568-0.946-4.527L169.822,74.183z"/>
<path fill="#ED8122" d="M102.005,64.87c0,0,0.216-0.03,0.445,0.017v-0.006C102.218,64.834,102.005,64.87,102.005,64.87z
	 M102.005,64.87l-0.021,0.017L102.005,64.87z"/>
<path fill="#ED8122" d="M107.795,68.313c-0.192,0.033-0.388,0.109-0.568,0.221c0.176-0.108,0.364-0.179,0.556-0.213
	c0.272-0.05,0.552-0.016,0.801,0.113l-0.01-0.017C108.33,68.296,108.063,68.266,107.795,68.313z M104.346,68.4l0.053,0.041
	L104.346,68.4z"/>
<path fill="#F69022" d="M100.002,14.288c-36.529,1.711-66.086,12.061-68.66,23.604c-0.003,0.006-0.012,29.749-0.012,29.749
	s8.208,9.326,15.685,6.573c6.794-2.502,4.647-7.324,12.874-7.982c0,0,4.923-0.176,10.189,6.055
	c5.271,6.229,8.985,4.451,11.374,1.932c2.389-2.521-7.12,1.982-9.835-8.226c-2.016-7.58,9.296-7.035,14.087-6.947
	c5.267,0.154,10.757,0.113,16.389-0.15c38.598-1.811,71.357-12.431,70.784-24.749C172.3,21.83,138.601,12.485,100.002,14.288z"/>
<path fill="#F58B29" d="M105.935,53.364l-0.034,0.013L105.935,53.364z M105.963,53.355l-0.028,0.009L105.963,53.355z M95.433,46.479
	L95.433,46.479L95.433,46.479z M95.433,46.479L95.433,46.479L95.433,46.479z M90.271,16.994l-0.011,0.047
	c-0.002,0.007-1.117,2.981-0.299,7.659c-0.818-4.678,0.297-7.652,0.299-7.659L90.271,16.994z M90.293,16.895
	c-0.009,0.029-0.012,0.059-0.02,0.091C90.281,16.953,90.284,16.924,90.293,16.895z M90.306,16.84l-0.008,0.042L90.306,16.84z
	 M90.32,16.79l-0.015,0.046L90.32,16.79z M90.334,16.741l-0.014,0.04L90.334,16.741z M90.348,16.689l-0.014,0.046L90.348,16.689z
	 M90.357,16.644l-0.007,0.035L90.357,16.644z M90.374,16.592l-0.014,0.043L90.374,16.592z M90.385,16.545l-0.008,0.033
	L90.385,16.545z M90.405,16.491l-0.016,0.037L90.405,16.491z M90.414,16.447l-0.008,0.027L90.414,16.447z M90.431,16.393
	l-0.008,0.032L90.431,16.393z M90.447,16.349l-0.008,0.021L90.447,16.349z M90.456,16.315l-0.004,0.013L90.456,16.315z
	 M90.478,16.251l-0.002,0.014L90.478,16.251z M90.51,16.152L90.51,16.152L90.51,16.152z"/>
<path fill="#FAAA3A" d="M38.9,30.054c0,0-7.972,5.34-3.755,13.606c3.572,6.994,20.65,10.006,22.416,9.695
	c0.321-0.057,0.137-0.22-0.721-0.491C51.253,51.099,32.151,43.268,38.9,30.054z"/>
<path fill="#F69022" d="M108.603,75.613c0,0,5.604,3.92,12.688,0.985c7.084-2.931,6.183-5.571,4.318-3.974
	c-1.87,1.595-11.894,4.438-16.092,0.778C105.326,69.742,104.475,72.978,108.603,75.613z"/>
<line fill="none" stroke="#FFD984" stroke-width="1.5" stroke-linecap="round" stroke-linejoin="round" stroke-miterlimit="10" x1="97.036" y1="30.054" x2="41.628" y2="26.438"/>
<polyline fill="none" stroke="#FFD984" stroke-width="1.5" stroke-linecap="round" stroke-linejoin="round" stroke-miterlimit="10" points="
	70.123,16.577 99.191,29.606 35.604,42.439 35.501,101.04 "/>
<line fill="#F69022" x1="100.466" y1="32.551" x2="73.352" y2="57.593"/>
<polyline fill="none" stroke="#FFD984" stroke-width="1.5" stroke-miterlimit="10" points="100.466,30.545 119.328,57.466 
	119.233,109.788 "/>
<polyline fill="none" stroke="#FFD984" stroke-width="1.5" stroke-miterlimit="10" points="100.466,30.545 151.43,50.707 
	151.662,103.029 "/>
<line fill="none" stroke="#FFD984" stroke-width="1.5" stroke-linecap="round" stroke-linejoin="round" stroke-miterlimit="10" x1="100.273" y1="30.054" x2="147.252" y2="17.08"/>
<line fill="none" stroke="#FFD984" stroke-width="1.5" stroke-linecap="round" stroke-linejoin="round" stroke-miterlimit="10" x1="100.466" y1="30.545" x2="170.177" y2="26.317"/>
<line fill="none" stroke="#FFD984" stroke-width="1.5" stroke-linecap="round" stroke-linejoin="round" stroke-miterlimit="10" x1="100.466" y1="30.545" x2="116.42" y2="13.265"/>
<polyline fill="none" stroke="#FFD984" stroke-width="1.5" stroke-miterlimit="10" points="100.466,30.545 85.535,59.155 
	84.078,111.478 "/>
<polyline fill="none" stroke="#FFFFFF" stroke-width="2" stroke-linecap="round" stroke-linejoin="round" stroke-miterlimit="10" points="
	93.626,13.133 100.466,30.545 55.713,50.437 54.505,109.166 "/>
<polyline fill="none" stroke="#FFFFFF" stroke-width="2" stroke-linecap="round" stroke-linejoin="round" stroke-miterlimit="10" points="
	101.369,31.018 170.819,39.755 168.887,97.283 "/>
</svg>
