<?xml version="1.0" encoding="utf-8"?>
<!-- Generator: Adobe Illustrator 16.0.0, SVG Export Plug-In . SVG Version: 6.00 Build 0)  -->
<!DOCTYPE svg PUBLIC "-//W3C//DTD SVG 1.1//EN" "http://www.w3.org/Graphics/SVG/1.1/DTD/svg11.dtd">
<svg version="1.1" id="Layer_1" xmlns="http://www.w3.org/2000/svg" xmlns:xlink="http://www.w3.org/1999/xlink" x="0px" y="0px"
	 width="467.717px" height="240.945px" viewBox="0 0 467.717 240.945" enable-background="new 0 0 467.717 240.945"
	 xml:space="preserve">
<g>
	<path fill="none" stroke="#231F20" stroke-width="1.5" stroke-linecap="round" stroke-linejoin="round" stroke-miterlimit="10" d="
		M8.304,174.392h63.335h37.396h184.431h40.949c0,0,106.48,2.446,118.93-0.118"/>
	<path fill="#A87C4F" stroke="#231F20" stroke-linecap="round" stroke-linejoin="round" stroke-miterlimit="10" d="M150.025,139.072
		"/>
	<path fill="#DD9F5B" d="M357.812,90.901c1.578,1.859,3.547,3.734,8.063,5.493c7.244,2.822,25.105-4.18,26.719-17.027
		c1.045-8.331-3.166-19.641-12.186-25.695c-12.783-8.583-26.859,3.116-29.018,10.526C351.017,65.49,345.349,76.221,357.812,90.901z"
		/>
	<path fill="none" stroke="#231F20" stroke-width="1.5" stroke-linecap="round" stroke-linejoin="round" stroke-miterlimit="10" d="
		M351.392,64.198c0-7.717,16.23-19.109,29.018-10.526c9.02,6.055,13.229,17.364,12.186,25.695
		c-1.609,12.848-19.475,19.851-26.719,17.027c-4.518-1.759-8.063-5.493-8.063-5.493"/>
	<path fill="#231F20" d="M353.558,72.418c0.254,1.799-0.33,3.364-1.309,3.503c-0.979,0.138-1.977-1.202-2.229-3.001
		c-0.254-1.795,0.33-3.361,1.309-3.5C352.306,69.281,353.3,70.621,353.558,72.418z"/>
	<path fill="#231F20" d="M362.558,70.418c0.254,1.799-0.33,3.364-1.309,3.503c-0.979,0.138-1.977-1.202-2.229-3.001
		c-0.254-1.795,0.33-3.361,1.309-3.5C361.306,67.281,362.3,68.621,362.558,70.418z"/>
	<path fill="#DD9F5B" d="M384.872,65.891c0,3.008,2.385,5.447,5.324,5.447s5.324-2.439,5.324-5.447s-2.385-5.449-5.324-5.449
		C387.206,60.442,384.872,61.464,384.872,65.891z"/>
	<path fill="#DD9F5B" stroke="#231F20" stroke-width="1.5" stroke-miterlimit="10" d="M379.198,71.338"/>
	
		<path fill="#DD9F5B" stroke="#231F20" stroke-width="1.5" stroke-linecap="round" stroke-linejoin="round" stroke-miterlimit="10" d="
		M390.198,71.338c2.939,0,5.324-2.439,5.324-5.447s-2.385-5.449-5.324-5.449"/>
	<path fill="none" stroke="#231F20" stroke-width="1.5" stroke-linecap="round" stroke-linejoin="round" stroke-miterlimit="10" d="
		M369.55,91.96c8.855-4.464,10.439-11.979,10.363-14.957"/>
	<path fill="none" stroke="#231F20" stroke-width="2" stroke-linecap="round" stroke-linejoin="round" stroke-miterlimit="10" d="
		M384.097,54.691c-6.352-3.234-5.947-3.045-10.719-4.865c-11.678-4.458-21.945,3.605-21.945,3.605s19.832-4.341,19.832,4.191"/>
	<path fill="none" stroke="#231F20" stroke-width="2" stroke-linecap="round" stroke-linejoin="round" stroke-miterlimit="10" d="
		M387.198,60.999c-2.639-6.441-4.107-8.773-8.471-11.204c-11.02-6.146-21.559-4.137-21.559-4.137s6.533,1.813,11.279,4.799"/>
	
		<path fill="#414042" stroke="#231F20" stroke-width="1.5" stroke-linecap="round" stroke-linejoin="round" stroke-miterlimit="10" d="
		M414.208,127.598c0,0-12.008-0.978-19.363,1.625c-4.768,1.686-4.59,5.485-4.443,9.442c0.193,5.376-0.818,29.265-0.818,29.265
		l7.115,0.023l4.084-27.773c0,0,6.473,0.626,11.293-1.394c3.197-1.341,4.889,20.745,4.889,20.745s0.281,8.988,7.318,8.423
		c7.033-0.564,19.549-3.739,19.549-3.739v-6.042l-17.158,0.049c0,0,2.426-11.223,2.236-16.213
		c-0.666-17.5-4.447-20.348-4.447-20.348L414.208,127.598z"/>
	
		<path fill="#231F20" stroke="#231F20" stroke-width="1.5" stroke-linecap="round" stroke-linejoin="round" stroke-miterlimit="10" d="
		M397.415,169.028c0,0,5.313,6.547,2.586,10.166c-2.162,2.873-3.604,4.422-10.281,4.422c-6.68,0-7.928-0.891-12.008-0.854
		c-3.467,0.026-11.27-5.441,2.318-11.592c5.984-2.71,9.549-3.238,9.549-3.238L397.415,169.028z"/>
	
		<path fill="#231F20" stroke="#231F20" stroke-width="1.5" stroke-linecap="round" stroke-linejoin="round" stroke-miterlimit="10" d="
		M447.792,176.609c0.533,1.427,4.457,7.312,7.848,5.172c3.389-2.143,3.922-12.572,3.742-16.141
		c-0.178-3.565-0.354-10.253-4.725-10.965c-4.369-0.716-8.619,0.654-9.363,2.141C442.532,162.343,447.792,176.609,447.792,176.609z"
		/>
	<ellipse fill="#DD9F5B" cx="355.956" cy="86.237" rx="7.24" ry="4.822"/>
	<path fill="none" stroke="#231F20" stroke-width="1.5" stroke-linecap="round" stroke-linejoin="round" stroke-miterlimit="10" d="
		M357.046,79.07c0,0-9.699,2.839-8.693,7.402c1.479,6.682,11.832,4.032,13.354,2.917"/>
	<path fill="none" stroke="#231F20" stroke-width="1.5" stroke-linecap="round" stroke-linejoin="round" stroke-miterlimit="10" d="
		M363.73,129.373c0,0-13.902-1.755-10.008,8.414"/>
	
		<path fill="#FFFFFF" stroke="#231F20" stroke-width="1.5" stroke-linecap="round" stroke-linejoin="round" stroke-miterlimit="10" d="
		M376.689,188.697c-27.838,18.992-91.111,17.276-121.813,0.25c-8.563-4.75-3.639-28.104-3.639-28.104h125
		C376.238,160.844,384.657,183.26,376.689,188.697z"/>
	
		<path fill="#FFFFFF" stroke="#231F20" stroke-width="1.5" stroke-linecap="round" stroke-linejoin="round" stroke-miterlimit="10" d="
		M397.716,160.711c0,9.503-37.244,17.207-83.189,17.207c-45.943,0-83.192-7.704-83.192-17.207c0-1.188-0.201-5.759,0.904-6.879
		c7.756-7.841,42.084-10.329,82.288-10.329c39.281,0,73.252,3.567,81.979,11.142C397.98,155.928,397.716,159.333,397.716,160.711z"
		/>
	
		<path fill="#FFFFFF" stroke="#231F20" stroke-width="1.5" stroke-linecap="round" stroke-linejoin="round" stroke-miterlimit="10" d="
		M397.716,152.711c0,9.503-37.244,17.207-83.189,17.207c-45.943,0-83.192-7.704-83.192-17.207c0-9.504,31.913-17.208,83.192-17.208
		C360.472,135.503,397.716,143.207,397.716,152.711z"/>
	<polygon fill="#8B5E3C" stroke="#231F20" stroke-linecap="round" stroke-linejoin="round" stroke-miterlimit="10" points="
		298.046,152.558 309.126,152.817 318.745,143.235 318.909,138.857 297.962,147.616 	"/>
	<polygon fill="#8B5E3C" stroke="#231F20" stroke-linecap="round" stroke-linejoin="round" stroke-miterlimit="10" points="
		308.966,147.665 297.962,147.616 309.29,138.872 318.909,138.857 	"/>
	
		<line fill="none" stroke="#231F20" stroke-linecap="round" stroke-linejoin="round" stroke-miterlimit="10" x1="308.738" y1="147.844" x2="308.738" y2="152.844"/>
	<polygon fill="#8B5E3C" stroke="#231F20" stroke-linecap="round" stroke-linejoin="round" stroke-miterlimit="10" points="
		311.249,152.558 326.532,152.817 335.55,143.235 335.714,138.857 311.167,147.616 	"/>
	<polygon fill="#8B5E3C" stroke="#231F20" stroke-linecap="round" stroke-linejoin="round" stroke-miterlimit="10" points="
		326.374,147.665 311.167,147.616 321.595,138.872 335.714,138.857 	"/>
	
		<line fill="none" stroke="#231F20" stroke-linecap="round" stroke-linejoin="round" stroke-miterlimit="10" x1="325.738" y1="147.844" x2="325.738" y2="152.844"/>
	<polygon fill="#8B5E3C" stroke="#231F20" stroke-linecap="round" stroke-linejoin="round" stroke-miterlimit="10" points="
		329.855,152.558 349.339,152.817 358.357,143.235 358.521,138.857 329.771,147.616 	"/>
	<polygon fill="#8B5E3C" stroke="#231F20" stroke-linecap="round" stroke-linejoin="round" stroke-miterlimit="10" points="
		348.882,147.665 329.771,147.616 340.2,138.872 358.222,138.857 	"/>
	
		<line fill="none" stroke="#231F20" stroke-linecap="round" stroke-linejoin="round" stroke-miterlimit="10" x1="348.738" y1="147.844" x2="348.738" y2="152.844"/>
	<path fill="#DD9F5B" stroke="#231F20" stroke-width="1.5" stroke-miterlimit="10" d="M385.501,109.202
		c0,0-7.279,11.61-10.031,14.473c-2.973,3.09-4.52,6.208-5.738,6.114c-1.227-0.095-4.424-1.129-7.811,0
		c-4.432,1.477-7.818,2.729-8.195,7.997c-0.162,2.282,1.52,3.95,3.021,2.822s3.686-4.004,5.27-5.927
		c1.314-1.602,5.926-1.977,6.68,0.095c0.756,2.066-2.836,6.278-1.141,8.254c1.691,1.975,3.49,0.684,4.059-0.729
		c0.563-1.411,1.129-4.426,0.848-6.492c-0.281-2.069-0.561-2.346,0.094-3.011c4.422-4.517,18.861-19.474,19.521-20.791
		L385.501,109.202z"/>
	
		<polygon fill="#8EB2C5" stroke="#231F20" stroke-width="1.5" stroke-linecap="round" stroke-linejoin="round" stroke-miterlimit="10" points="
		386.771,93.799 382.245,109.94 390.872,116.549 393.847,109.171 	"/>
	<path fill="#DD9F5B" stroke="#231F20" stroke-width="1.5" stroke-miterlimit="10" d="M378.642,108.989
		c0,0,2.422-8.529,1.531-10.417c-1.174-2.493-2.855-2.089-3.48-0.84c-0.623,1.249-0.564,3.233-0.918,5.217
		c-0.355,1.985-2.816,2.866-3.689,1.529c-0.871-1.337-3.465-4.817-3.998-5.62s-3.125-3.214-4.016-1.252
		c-0.895,1.962,0.711,7.042,0.711,7.042c0.443,0.178-1.783,1.235,0.529,3.833c2.318,2.597,6.76,4.547,10.521,2.676
		c1.691-0.843,4.082,9.438,10.125,11.02c6.354,1.665,10.404-1.426,12.1-4.458c1.693-3.032,1.432-8.025,1.432-8.025h-6.74
		c0,0,2.771,4.996-1,6.561C384.49,119.261,378.642,108.989,378.642,108.989z"/>
	
		<path fill="#8EB2C5" stroke="#231F20" stroke-width="1.5" stroke-linecap="round" stroke-linejoin="round" stroke-miterlimit="10" d="
		M386.013,92.761c2.121,6.354,5.256,20.124,5.256,20.124l7.801-1.873l-2.105-8.718c0,0,2.459,9.074,2.219,11.157
		c-2.27,19.684,11.816,15.807,11.816,15.807s13.463-5.276,13.463-7.597c0-10.35-29.127-32.976-31.711-34.355
		C390.163,85.927,385.411,90.961,386.013,92.761z"/>
	<path fill="none" stroke="#231F20" stroke-width="1.5" stroke-linecap="round" stroke-linejoin="round" stroke-miterlimit="10" d="
		M363.741,99.327c0,0-0.52,5.305,6.666,9.519"/>
	
		<path fill="#414042" stroke="#231F20" stroke-width="2" stroke-linecap="round" stroke-linejoin="round" stroke-miterlimit="10" d="
		M140.144,178.969c0,20.497-19.454,40.918-42.909,36.575c-19.938-3.691-30.523-16.078-30.523-36.575
		c0-20.496,16.438-37.111,36.717-37.111C123.705,141.857,140.144,158.472,140.144,178.969z"/>
	<polygon fill="#D1313D" points="85.311,171.286 85.311,170.806 108.012,157.553 126.51,163.915 117.66,171.286 	"/>
	<g>
		<path fill="#231F20" d="M108.094,158.375l16.913,5.816l-7.618,6.346H87.26L108.094,158.375 M107.931,156.734L84.56,170.377v1.661
			h33.371l10.082-8.397L107.931,156.734L107.931,156.734z"/>
	</g>
	
		<path fill="#D1313D" stroke="#231F20" stroke-width="1.5" stroke-linecap="round" stroke-linejoin="round" stroke-miterlimit="10" d="
		M91.369,96.421c-9.572,1.241-18.438,9.328-18.973,12.854c-0.519,3.438-5.134,45.598-1.338,49.629
		c3.261,3.461,4.075,4.494,10.382,5.121c6.304,0.626,16.293-8.49,18.971-10.992c2.681-2.505,2.149-30.794,1.613-38.573
		C101.488,106.683,98.528,95.488,91.369,96.421z"/>
	<path fill="none" stroke="#231F20" stroke-width="2" stroke-linecap="round" stroke-linejoin="round" stroke-miterlimit="10" d="
		M97.48,99.45c-6.56,1.867-16.292,7.186-18.419,12.162c-1.431,3.347-2.306,27.792-1.95,32.766
		c0.354,4.979,0.354,15.155,2.482,16.593"/>
	
		<path fill="#615375" stroke="#231F20" stroke-width="1.5" stroke-linecap="round" stroke-linejoin="round" stroke-miterlimit="10" d="
		M107.964,98.288c0,0-10.638,10.969-12.506,14.277c-1.87,3.31-5.932,12.515-5.41,13.236c0.521,0.72,1.236,1.272,1.236,1.272
		s-6.903,17.717-6.761,19.444c0.146,1.727,15.771,8.131,16.302,7.662c0.256-0.226-0.706-11.479,2.26-22.336
		c3.218-11.791,12.424-25.108,11.566-25.821C109.917,102.079,107.964,98.288,107.964,98.288z"/>
	<path fill="none" stroke="#231F20" stroke-width="1.5" stroke-linecap="round" stroke-linejoin="round" stroke-miterlimit="10" d="
		M108.982,107.53c-8.156,7.05-10.135,21.003-10.175,21.724c-0.041,0.719-8.761-3.452-8.761-3.452"/>
	<path fill="#684D3A" d="M99.971,71.671c2.063,0,3.866,1.234,4.851,3.074c1.079-7.861,3.479-15.392,6.816-18.174
		c2.312-1.929,6.871-6.032,12.994-6.721c5.14-0.578,11.994,0,18.146,5.485c2.081,1.854,10.157,11.892,6.453,26.425
		c0,0-1.279,2.132-0.703,2.219c4.303,0.66,5.415,5.247,4.724,7.307c-1.938,5.749-8.271,5.196-8.271,5.196
		c-3.993,9.394-26.157,21.909-38.801-1.137c-1.512-2.759-2.117-7.729-1.969-13.247c-1.036,1.312-2.552,2.143-4.241,2.143
		c-3.122,0-5.651-2.813-5.651-6.286C94.319,74.486,96.849,71.671,99.971,71.671z"/>
	<ellipse fill="#3C2415" cx="99.333" cy="56.338" rx="6.807" ry="7.927"/>
	<ellipse fill="#3C2415" cx="137.807" cy="46.855" rx="9.583" ry="7.681"/>
	<ellipse fill="#3C2415" cx="143.575" cy="54.593" rx="7.656" ry="6.779"/>
	<ellipse fill="#3C2415" cx="98.643" cy="86.955" rx="6.702" ry="7.681"/>
	<ellipse fill="#3C2415" cx="95.762" cy="80.233" rx="9.583" ry="7.681"/>
	<ellipse fill="#3C2415" cx="122.169" cy="46.365" rx="11.862" ry="11.754"/>
	<ellipse fill="#3C2415" cx="109.061" cy="48.616" rx="11.188" ry="10.444"/>
	<ellipse fill="#3C2415" cx="109.86" cy="56.338" rx="9.28" ry="7.801"/>
	<ellipse fill="#3C2415" cx="100.259" cy="69.086" rx="12.4" ry="8.854"/>
	<path fill="#231F20" d="M135.618,70.552c0.873,1.296,1.063,3.764,0.419,5.512c-0.642,1.749-1.867,2.109-2.737,0.815
		c-0.875-1.301-1.063-3.768-0.418-5.51C133.52,69.616,134.75,69.256,135.618,70.552z"/>
	<path fill="#231F20" d="M146.099,69.37c0.873,1.297,1.063,3.765,0.419,5.514c-0.642,1.749-1.869,2.108-2.739,0.814
		c-0.875-1.3-1.062-3.767-0.418-5.51C144.002,68.436,145.23,68.073,146.099,69.37z"/>
	<path fill="none" stroke="#231F20" stroke-width="1.5" stroke-linecap="round" stroke-linejoin="round" stroke-miterlimit="10" d="
		M142.779,82.99c19.096,0.766,8.994,19.088-1.998,11.077"/>
	<path fill="none" stroke="#231F20" stroke-width="1.5" stroke-linecap="round" stroke-linejoin="round" stroke-miterlimit="10" d="
		M144.246,97.615c-3.991,9.394-25.423,20.778-38.063-2.268c-4.271-7.779-1.336-33.11,5.458-38.775
		c2.312-1.929,6.871-6.032,12.994-6.721c5.14-0.578,11.994,0,18.146,5.485c2.081,1.854,10.157,11.892,6.453,26.425"/>
	<path fill="none" stroke="#231F20" stroke-width="1.5" stroke-linecap="round" stroke-linejoin="round" stroke-miterlimit="10" d="
		M116.855,96.718c9.089,9.325,17.179,4.27,17.179,4.27"/>
	<path fill="none" stroke="#231F20" stroke-width="1.5" stroke-linecap="round" stroke-linejoin="round" stroke-miterlimit="10" d="
		M110.755,36.277c14.723-3.104,19.652,14.134,12.739,12.753c-6.348-1.271,1.224-8.222,5.675-7.35
		c9.017,1.767,10.224,11.87,10.224,11.87"/>
	<path fill="none" stroke="#231F20" stroke-width="1.5" stroke-linecap="round" stroke-linejoin="round" stroke-miterlimit="10" d="
		M93.109,66.916c2.563-8.964,14.987-2.157,10.104,0.726c-3.649,2.155-5.229-6.462-1.571-9.148c1.852-1.361,3.757-2.009,5.57-2.217"
		/>
	<path fill="none" stroke="#231F20" stroke-width="1.5" stroke-linecap="round" stroke-linejoin="round" stroke-miterlimit="10" d="
		M145.21,51.27c8.926-2.683,9.907,11.454,4.844,8.897c-3.783-1.907,2.618-7.889,6.854-6.265c2.146,0.826,3.724,2.077,4.873,3.494"/>
	<ellipse fill="#3C2415" cx="113.571" cy="47.634" rx="6.809" ry="7.928"/>
	<path fill="none" stroke="#231F20" stroke-width="1.5" stroke-linecap="round" stroke-linejoin="round" stroke-miterlimit="10" d="
		M99.332,54.371c-2.313,9.027-14.924,2.567-10.117-0.448c3.588-2.255,5.397,6.317,1.818,9.104c-1.813,1.41-3.696,2.112-5.508,2.369"
		/>
	<path fill="none" stroke="#231F20" stroke-width="1.5" stroke-linecap="round" stroke-linejoin="round" stroke-miterlimit="10" d="
		M103.26,42.65c7.882-4.58,17.366,1.276,12.78,4.619c-5.231,3.813-5.227-6.464-1.57-9.15c1.852-1.359,3.755-2.007,5.569-2.216"/>
	<path fill="none" stroke="#231F20" stroke-width="1.5" stroke-linecap="round" stroke-linejoin="round" stroke-miterlimit="10" d="
		M141.021,54.699c-0.284-8.544,8.763-13.775,9.488-8.505c0.827,6.011-7.658,1.444-8.255-2.765c-0.305-2.136,0.008-3.995,0.645-5.587
		"/>
	<path fill="none" stroke="#231F20" stroke-width="1.5" stroke-linecap="round" stroke-linejoin="round" stroke-miterlimit="10" d="
		M138.56,43.96c-3.316-3.709-2.799-9.161,0.441-7.863c4.466,1.79-2.009,5.842-5.143,4.601c-1.588-0.629-2.75-1.571-3.595-2.635"/>
	<path fill="none" stroke="#231F20" stroke-width="1.5" stroke-linecap="round" stroke-linejoin="round" stroke-miterlimit="10" d="
		M103.233,29.435c4.023,2.925,4.665,8.364,1.229,7.778c-4.743-0.809,0.729-6.132,4.056-5.58c1.685,0.279,3.018,0.957,4.067,1.815"/>
	<path fill="none" stroke="#231F20" stroke-width="1.5" stroke-linecap="round" stroke-linejoin="round" stroke-miterlimit="10" d="
		M101.173,46.157c-4.647,1.771-9.556-0.665-7.185-3.225c3.27-3.529,4.735,3.965,2.455,6.446c-1.152,1.258-2.45,2.005-3.745,2.414"/>
	<path fill="none" stroke="#231F20" stroke-width="1.5" stroke-linecap="round" stroke-linejoin="round" stroke-miterlimit="10" d="
		M101.222,98.893c-6.193-5.378,3.858-12.758,4.341-7.788c0.358,3.711-7.1,1.759-7.882-2.153c-0.396-1.981-0.205-3.744,0.306-5.266"
		/>
	<path fill="none" stroke="#231F20" stroke-width="1.5" stroke-linecap="round" stroke-linejoin="round" stroke-miterlimit="10" d="
		M98.024,71.312c6.338,5.209-3.51,12.858-4.125,7.904c-0.461-3.701,7.049-1.954,7.938,1.936c0.447,1.972,0.309,3.736-0.163,5.276"/>
	<path fill="none" stroke="#231F20" stroke-width="1.5" stroke-linecap="round" stroke-linejoin="round" stroke-miterlimit="10" d="
		M85.649,81.762c-0.718-7.991,7.484-13.373,8.441-8.473c1.093,5.59-7.103,1.759-7.883-2.153c-0.396-1.982-0.203-3.744,0.308-5.269"
		/>
	<path fill="none" stroke="#231F20" stroke-width="1.5" stroke-linecap="round" stroke-linejoin="round" stroke-miterlimit="10" d="
		M92.585,91.846c-6.193-5.376,3.857-12.755,4.341-7.785c0.357,3.713-7.103,1.761-7.881-2.153c-0.396-1.983-0.205-3.744,0.307-5.268"
		/>
	<path fill="none" stroke="#231F20" stroke-width="1.5" stroke-linecap="round" stroke-linejoin="round" stroke-miterlimit="10" d="
		M136.032,34.252c-7.083,6.057-13.688-6.478-8.021-6.185c4.229,0.219,0.787,8.275-3.742,8.496c-2.295,0.112-4.241-0.396-5.867-1.227
		"/>
	<ellipse fill="#3C2415" cx="107.212" cy="53.55" rx="6.805" ry="7.929"/>
	<path fill="none" stroke="#231F20" stroke-width="1.5" stroke-linecap="round" stroke-linejoin="round" stroke-miterlimit="10" d="
		M119.965,50.365c-2.313,9.029-14.924,2.569-10.119-0.446c3.589-2.255,5.398,6.316,1.821,9.104c-1.813,1.41-3.698,2.113-5.509,2.368
		"/>
	<path fill="none" stroke="#231F20" stroke-width="1.5" stroke-linecap="round" stroke-linejoin="round" stroke-miterlimit="10" d="
		M96.21,54.636c2.562-8.963,14.985-2.157,10.104,0.726c-3.65,2.155-5.227-6.462-1.571-9.147c1.854-1.362,3.757-2.012,5.568-2.219"/>
	<ellipse fill="#684D3A" cx="138.863" cy="63.125" rx="7.441" ry="6.601"/>
	<ellipse fill="#684D3A" cx="127.861" cy="60.276" rx="9.639" ry="7.806"/>
	<ellipse fill="#684D3A" cx="118.749" cy="62.733" rx="6.765" ry="5.48"/>
	<path fill="#684D3A" d="M121.438,71.612c0-3.026-2.593-5.479-5.79-5.479s-5.788,2.453-5.788,5.479c0,3.023,2.591,5.479,5.788,5.479
		S121.438,74.635,121.438,71.612z"/>
	<path fill="none" stroke="#231F20" stroke-width="1.5" stroke-linecap="round" stroke-linejoin="round" stroke-miterlimit="10" d="
		M122.802,54.699c11.761-7.546,15.677,4.852,11.779,4.426c-2.91-0.317-0.219-5.738,2.917-5.713c1.586,0.014,2.906,0.442,3.995,1.079
		"/>
	<path fill="none" stroke="#231F20" stroke-width="1.5" stroke-linecap="round" stroke-linejoin="round" stroke-miterlimit="10" d="
		M110.576,77.206c-3.863-13.173,6.948-11.947,6.447-9.482c-0.819,4.034-5.282,0.216-5.267-2.667
		c0.025-5.845,6.192-7.804,6.192-7.804"/>
	<ellipse fill="#684D3A" cx="99.992" cy="78.585" rx="6.263" ry="6.906"/>
	<path fill="none" stroke="#231F20" stroke-width="1.5" stroke-linecap="round" stroke-linejoin="round" stroke-miterlimit="10" d="
		M104.661,73.776c0,0-2.516-2.81-5.707-2.029c-8.239,2.017-4.104,14.081,1.404,13.737c2.276-0.141,2.916-1.424,2.916-1.424"/>
	
		<path fill="#D1313D" stroke="#231F20" stroke-width="1.5" stroke-linecap="round" stroke-linejoin="round" stroke-miterlimit="10" d="
		M131.589,164.094c0.849,1.316,0.467,3.071-0.854,3.92l-12.432,8.004c-1.316,0.849-3.071,0.47-3.921-0.85l0,0
		c-0.851-1.316-0.469-3.071,0.851-3.922l12.433-8.004C128.983,162.394,130.739,162.777,131.589,164.094L131.589,164.094z"/>
	
		<path fill="#D1313D" stroke="#231F20" stroke-width="1.5" stroke-linecap="round" stroke-linejoin="round" stroke-miterlimit="10" d="
		M118.047,173.926c0,1.79-1.405,3.236-3.142,3.236H86.743c-1.731,0-3.139-1.446-3.139-3.236l0,0c0-1.788,1.404-3.237,3.139-3.237
		h28.162C116.64,170.687,118.047,172.136,118.047,173.926L118.047,173.926z"/>
	<path fill="#231F20" stroke="#231F20" stroke-linecap="round" stroke-linejoin="round" stroke-miterlimit="10" d="M85.297,148.339
		c-0.916,2.015,1.316,14.468,4.751,17.604c3.843,3.51,13.349,4.566,20.254,3.416s13.354-4.135,14.075-2.695
		c0.719,1.438,2.589,15.824,2.589,15.824s2.448,17.464,3.021,18.127c1.108,1.285,5.183,1.439,6.042,0
		c0.862-1.438,0.146-12.804-0.721-17.121c-0.862-4.314-2.013-13.811-2.589-15.537c-0.576-1.726-1.875-9.263-3.888-9.836
		c-2.014-0.576-27.599-8.83-27.599-8.83l-0.41,4.893L85.297,148.339z"/>
	<path fill="#231F20" stroke="#231F20" stroke-linecap="round" stroke-linejoin="round" stroke-miterlimit="10" d="M138.213,164.111
		c1.438,3.371,6.086,19.758,6.273,21.483c0.19,1.729,1.227,8.621,0.771,9.763c-0.53,1.324-1.809,2.332-2.965,2.132
		c-1.609-0.278-3.681-1.294-4.079-4.93c-0.4-3.635-9.511-33.938-9.511-33.938S137.63,162.745,138.213,164.111z"/>
	<path fill="#684D3A" d="M129.943,155.06c-5.366,0-8.488-1.57-9.296-2.036l-0.235,0.001c-2.813,0-12.461-0.196-18.319-2.715
		c-13.68-5.875-12.282-15.757-11.61-20.506c0.13-0.926,0.293-2.076,0.166-2.345c-0.289-0.468-0.339-0.887-0.144-1.238
		c0.104-0.184,0.356-0.49,0.93-0.49c1.232,0,4.521,1.768,5.504,2.31l0.468,0.26l-0.093,0.526c-0.013,0.075-1.256,7.507,2.57,12.478
		c2.012,2.612,5.096,4.116,9.167,4.467c4.038,0.348,8.802,0.729,10.135,0.833c0.719-0.762,2.847-2.935,5.204-4.52
		c2.382-1.6,5.18-2.329,6.77-2.329c0.48,0,0.823,0.067,1.075,0.212c0.514,0.294,0.837,0.752,0.938,1.324
		c0.138,0.811-0.217,1.75-0.666,2.566c0.438-0.095,0.899-0.157,1.353-0.157c1.551,0,2.262,0.737,2.584,1.357
		c0.522,1-0.239,2.312-1.198,3.424c1.546,0.007,2.512,0.324,2.941,0.972c0.199,0.297,0.376,0.797,0.09,1.491
		c-1.688,4.098-6.633,4.108-8.257,4.112h-0.069v0.003H129.943L129.943,155.06z"/>
	<g>
		<path fill="#231F20" d="M91.431,126.482c1.137,0,5.142,2.216,5.142,2.216s-2.906,16.501,12.411,17.82
			c4.749,0.408,10.502,0.863,10.502,0.863s2.521-2.793,5.318-4.673c2.365-1.588,5.043-2.2,6.352-2.2c0.332,0,0.575,0.04,0.703,0.111
			c1.856,1.062-1.279,4.67-1.279,4.67s1.757-0.837,3.272-0.837c0.806,0,1.544,0.234,1.92,0.955c0.611,1.17-2.161,3.687-2.479,3.97
			c-0.104,0.019-0.146,0.03-0.102,0.03c0.016,0,0.037-0.001,0.068-0.004c0,0,0.011-0.01,0.029-0.026
			c0.287-0.05,1.069-0.144,1.896-0.144c1.375,0,2.869,0.262,2.389,1.427c-1.505,3.648-5.978,3.646-7.585,3.648
			c-0.017,0-0.029,0-0.047,0c-6.012,0-9.088-2.037-9.088-2.037s-0.156,0.002-0.442,0.002c-2.21,0-12.186-0.145-18.023-2.653
			c-16.945-7.277-9.881-20.572-11.103-22.548C91.024,126.649,91.119,126.483,91.431,126.482 M91.431,124.982L91.431,124.982
			c-0.988,0-1.438,0.611-1.584,0.875c-0.223,0.396-0.378,1.038,0.09,1.878c0.029,0.339-0.098,1.235-0.2,1.965
			c-0.695,4.935-2.146,15.2,12.061,21.301c5.99,2.575,15.767,2.775,18.615,2.775c0.018,0,0.03,0,0.048,0
			c1.104,0.597,4.313,2.034,9.482,2.034h0.002h0.049c1.771-0.004,7.089-0.018,8.971-4.576c0.435-1.054,0.086-1.827-0.16-2.195
			c-0.421-0.629-1.119-1.021-2.153-1.195c0.66-1.06,0.959-2.158,0.451-3.13c-0.343-0.656-1.222-1.76-3.249-1.76
			c-0.045,0-0.09,0-0.134,0.001c0.191-0.595,0.285-1.208,0.188-1.786c-0.135-0.79-0.598-1.447-1.303-1.851
			c-0.369-0.211-0.829-0.312-1.446-0.312c-1.697,0-4.674,0.771-7.188,2.456c-2.188,1.469-4.175,3.425-5.082,4.365
			c-1.69-0.135-6.063-0.486-9.773-0.805c-3.85-0.332-6.753-1.735-8.631-4.172c-3.624-4.698-2.439-11.825-2.431-11.896l0.183-1.051
			l-0.935-0.521C95.676,126.488,92.758,124.982,91.431,124.982L91.431,124.982z"/>
	</g>
	<path fill="#404041" stroke="#231F20" stroke-linecap="round" stroke-linejoin="round" stroke-miterlimit="10" d="M136.89,194.444
		c0,0-2.539,8.517,1.729,10.628c4.271,2.108,10.014,2.514,14.492,2.318c4.574-0.199,7.424-1.168,8.383-1.554
		c0.959-0.383,3.164-3.021,2.397-4.394c-0.768-1.375-6.487-5.171-9.322-6.452c-2.935-1.326-8.604-2.198-8.604-2.198
		S137.344,192.433,136.89,194.444z"/>
	
		<path fill="#6D6E70" stroke="#231F20" stroke-width="2" stroke-linecap="round" stroke-linejoin="round" stroke-miterlimit="10" d="
		M120.977,189.008c0,20.496-19.454,40.918-42.91,36.575c-19.938-3.69-30.523-16.079-30.523-36.575s16.438-37.111,36.718-37.111
		C104.538,151.896,120.977,168.511,120.977,189.008z"/>
	<path fill="none" stroke="#231F20" stroke-linecap="round" stroke-linejoin="round" stroke-miterlimit="10" d="M131.624,144.594
		c-0.41,1.052-3.312,2.815-4.791,2.815"/>
	<path fill="none" stroke="#231F20" stroke-linecap="round" stroke-linejoin="round" stroke-miterlimit="10" d="M134.306,149.029
		c-2.188,1.114-3.996,2.076-5.396,1.588"/>
	
		<line fill="none" stroke="#231F20" stroke-width="1.5" stroke-linecap="round" stroke-linejoin="round" stroke-miterlimit="10" x1="117.768" y1="94.636" x2="115.396" y2="98.053"/>
	<path fill="none" stroke="#231F20" stroke-width="1.2" stroke-linecap="round" stroke-linejoin="round" stroke-miterlimit="10" d="
		M387.892,64.258c2.982-2.019,5.234,1.683,4.686,3.247"/>
	<path fill="#404041" stroke="#231F20" stroke-linecap="round" stroke-linejoin="round" stroke-miterlimit="10" d="M128.585,201.777
		c0,0-2.539,8.519,1.729,10.628c4.27,2.11,10.011,2.514,14.49,2.318c4.575-0.199,7.426-1.166,8.384-1.552
		c0.959-0.385,3.164-3.021,2.397-4.396c-0.77-1.375-6.489-5.17-9.322-6.452c-2.937-1.326-8.604-2.198-8.604-2.198
		S129.036,199.767,128.585,201.777z"/>
	<g>
		<path fill="#A87C4F" stroke="#231F20" stroke-width="1.5" stroke-miterlimit="10" d="M199.603,158.947
			c0,0,6.444,44.396,4.675,45.865c-1.771,1.476,9.039-0.313,9.039-0.313s3.959-30.229,3.054-45.777L199.603,158.947z"/>
		<path fill="#A87C4F" stroke="#231F20" stroke-width="1.5" stroke-miterlimit="10" d="M187.135,159.823
			c0,0-3.042,43.305-3.947,44.713c-1.246,1.938,7.947,1.099,7.947,1.099s12.342-31.897,10.847-45.966L187.135,159.823z"/>
		
			<path fill="#231F20" stroke="#231F20" stroke-width="2" stroke-linecap="round" stroke-linejoin="round" stroke-miterlimit="10" d="
			M203.864,202.629c0,0-5.923,9.45-3.38,12.672c2.02,2.56,6.229,3.06,12.453,3.06c6.229,0,7.539-0.01,11.344,0.021
			c3.232,0.024,9.854-3.521-2.031-10.419c-5.521-3.199-10.38-5.333-10.38-5.333L203.864,202.629L203.864,202.629z"/>
		
			<path fill="#231F20" stroke="#231F20" stroke-width="2" stroke-linecap="round" stroke-linejoin="round" stroke-miterlimit="10" d="
			M182.342,205.711c0,0-7.082,10.188-4.468,13.662c2.075,2.759,6.409,3.298,12.821,3.298c6.414,0,7.766-0.009,11.683,0.023
			c3.328,0.025,10.144-3.797-2.099-11.232c-5.683-3.45-10.683-5.751-10.683-5.751H182.342L182.342,205.711z"/>
		<path fill="#A87C4F" stroke="#231F20" stroke-width="1.5" stroke-miterlimit="10" d="M200.149,100.046
			c0,0,16.812,25.294,16.602,26.667c-0.204,1.338,0.462,5.73,0.974,8.938c0.815,5.156,3.626,6.835,4.879,5.617
			c1.446-1.409-0.888-9.412-0.888-9.412s2.32,6.132,3.563,7.496c1.294,1.425,3.897,0.937,4.352-1.205
			c0.823-3.907-3.246-5.68-5.354-8.334c0,0,5.92,6.491,7.453,6.319c2.227-0.254,2.428-1.531,1.276-3.465
			c-1.049-1.771-4.224-3.146-5.646-4.391c-1.421-1.247-1.381-2.113-0.018-2.289c1.361-0.177,4.229-0.438,5.016-0.752
			c0.787-0.315,0.92-2.155-0.807-3.102c-1.245-0.682-11.228,1.266-11.228,1.266l-12.461-26.337L200.149,100.046z"/>
		
			<polygon fill="#D1313D" stroke="#231F20" stroke-width="1.5" stroke-linecap="round" stroke-linejoin="round" stroke-miterlimit="10" points="
			214.265,101.938 198.178,107.218 194.488,95.593 201.842,82.723 		"/>
		<path fill="#603813" d="M172.21,57.167c0,0.135-6.774,5.77-6.774,5.77l-12.902,6.092c0,0,9.131,18.322,19.328,12.513
			c3.308-1.883,4.404-22.75,4.404-22.75"/>
		<path fill="#A87C4F" d="M184.416,69.948c6.806,10.665,34.834,20.157,44.951-1.254c0.951-2.011,5.769-3.212,6.291-5.166
			c1.018-3.804-3.72-4.217-3.72-7.873c0-7.313-2.573-17.193-4.985-21.76c-4.757-9.018-20.896-8.858-27.628-6.597
			c-4.842,1.627-12.979,15.788-12.979,15.788s-6.624-6.533-12.207-1.01c-5.545,5.487-1.83,11.909,3.489,13.261
			c3.306,0.84,5.687-1.52,5.687-1.52S180.32,63.528,184.416,69.948z"/>
		<path fill="#603813" d="M177.71,38.442c0,0,3.403-11.456,10.601-18.212c3.472-3.261,13.511-5.797,18.257-5.42
			c2.767,0.219,8.311,1.73,10.58,3.318c3.989,2.782,14.827,10.002,12.978,14.501c-2.05,4.971-20.769,3.841-20.769,3.841
			s-5.596-8.386-8.907-8.187c-5.111,0.311-13.937,8.847-13.937,13.956"/>
		
			<path fill="none" stroke="#231F20" stroke-width="1.5" stroke-linecap="round" stroke-linejoin="round" stroke-miterlimit="10" d="
			M232.635,56.139c0.546-9.007-2.625-16.881-5.686-22.245"/>
		
			<path fill="none" stroke="#231F20" stroke-width="1.5" stroke-linecap="round" stroke-linejoin="round" stroke-miterlimit="10" d="
			M184.416,69.948c5.515,11.386,35.264,19.542,45.384-1.87"/>
		<path fill="none" stroke="#231F20" stroke-width="2" stroke-linecap="round" stroke-linejoin="round" stroke-miterlimit="10" d="
			M185.886,159.669"/>
		
			<path fill="#8EB2C5" stroke="#231F20" stroke-width="1.5" stroke-linecap="round" stroke-linejoin="round" stroke-miterlimit="10" d="
			M216.988,125.258l2.616,41.165c0,0-9.33,1.938-18.582,1.938c-4.46,0-17.824-0.229-17.824-0.229l2.705-44.163"/>
		<path fill="#231F20" d="M215.058,44.082c1.129,0.106,1.87,1.942,1.659,4.096c-0.211,2.156-1.297,3.812-2.425,3.704
			c-1.128-0.113-1.868-1.949-1.656-4.104C212.846,45.624,213.932,43.969,215.058,44.082z"/>
		<path fill="#231F20" d="M227.058,42.082c1.129,0.106,1.87,1.942,1.659,4.096c-0.211,2.156-1.297,3.812-2.425,3.704
			c-1.128-0.113-1.868-1.949-1.656-4.104C224.846,43.624,225.932,41.969,227.058,42.082z"/>
		<path fill="none" stroke="#231F20" stroke-width="2" stroke-linecap="round" stroke-linejoin="round" stroke-miterlimit="10" d="
			M214.455,18.128c11.143,3.396,17.368,17.546,17.482,18.342"/>
		<path fill="none" stroke="#231F20" stroke-width="2" stroke-linecap="round" stroke-linejoin="round" stroke-miterlimit="10" d="
			M214.455,18.128c11.143,3.396,17.368,17.546,17.482,18.342"/>
		<path fill="none" stroke="#231F20" stroke-width="2" stroke-linecap="round" stroke-linejoin="round" stroke-miterlimit="10" d="
			M206.565,18.128c11.143,3.396,17.368,17.546,17.481,18.342"/>
		<path fill="none" stroke="#231F20" stroke-width="2" stroke-linecap="round" stroke-linejoin="round" stroke-miterlimit="10" d="
			M203.607,21.829c8.656,4.996,13.438,15.915,13.538,16.611"/>
		<path fill="none" stroke="#231F20" stroke-width="2" stroke-linecap="round" stroke-linejoin="round" stroke-miterlimit="10" d="
			M199.324,24.843c7.623,5.327,11.813,14.92,11.904,15.572"/>
		<path fill="none" stroke="#231F20" stroke-width="2" stroke-linecap="round" stroke-linejoin="round" stroke-miterlimit="10" d="
			M196.972,28.511c-9.877,7.36-10.628,14.574-10.628,14.574s-3.258-3.894-6.944-3.49c-3.688,0.403-6.26,2.194-7.394,7.063
			c-1.143,4.899,4.521,9.15,8.512,8.636c2.549-0.33,2.795-1.477,2.795-1.477s-2.729,4.023-0.789,12.798"/>
		
			<path fill="none" stroke="#231F20" stroke-width="1.5" stroke-linecap="round" stroke-linejoin="round" stroke-miterlimit="10" d="
			M176.263,47.625c0,0,4.101-5.76,7.909-1.084"/>
		
			<path fill="none" stroke="#231F20" stroke-width="1.5" stroke-linecap="round" stroke-linejoin="round" stroke-miterlimit="10" d="
			M180.32,49.064c-1.401-1.986-1.011-3.997-1.011-3.997"/>
		<path fill="none" stroke="#231F20" stroke-width="2" stroke-linecap="round" stroke-linejoin="round" stroke-miterlimit="10" d="
			M203.607,17.502c-15.24,4.327-21.323,18.968-21.323,18.968"/>
		<path fill="none" stroke="#231F20" stroke-width="2" stroke-linecap="round" stroke-linejoin="round" stroke-miterlimit="10" d="
			M210.379,15.268c-16.335-2.675-28.852,6.563-32.67,21.964"/>
		<path fill="none" stroke="#231F20" stroke-width="2" stroke-linecap="round" stroke-linejoin="round" stroke-miterlimit="10" d="
			M173.464,55.655c-7.129,8.397-15.561,11.944-22.313,13.374"/>
		<path fill="none" stroke="#231F20" stroke-width="2" stroke-linecap="round" stroke-linejoin="round" stroke-miterlimit="10" d="
			M171.928,57.841c-4.291,10.108-11.191,15.957-17.129,19.292"/>
		<path fill="none" stroke="#231F20" stroke-width="2" stroke-linecap="round" stroke-linejoin="round" stroke-miterlimit="10" d="
			M174.88,57.325c-1.435,12.667-7.123,21.41-12.573,27.038"/>
		<path fill="#231F20" d="M179.141,58.494c-0.54,1.016-2.09,1.244-3.465,0.516l-3.47-1.844c-1.375-0.73-2.056-2.146-1.516-3.159l0,0
			c0.539-1.014,2.089-1.244,3.465-0.516l3.471,1.844C179.004,56.067,179.68,57.483,179.141,58.494L179.141,58.494z"/>
		
			<path fill="none" stroke="#231F20" stroke-width="1.5" stroke-linecap="round" stroke-linejoin="round" stroke-miterlimit="10" d="
			M224.927,51.974c19.873,10.662,8.646,17.059-2.051,13.778"/>
		<polyline fill="#FFFFFF" points="183.312,125.302 182.093,142.958 186.851,142.196 186.453,126.507 183.199,124.938 		"/>
		<path fill="#A87C4F" stroke="#231F20" stroke-width="1.5" stroke-miterlimit="10" d="M172.34,103.391
			c0,0,5.399,28.679,4.344,29.811c-1.032,1.102-3.08,5.46-4.552,8.655c-2.367,5.136-0.584,8.21,1.428,7.793
			c2.325-0.482,4.931-9.041,4.931-9.041s-1.457,6.853-1.059,8.774c0.42,2.006,3.341,2.998,5.117,1.302
			c1.041-0.992-0.224-10.521-0.224-10.521s1.937,9.161,3.581,9.851c2.396,1,3.389-0.056,3.431-2.44
			c0.039-2.188-2.303-5.186-2.96-7.104c-0.655-1.917-0.079-2.682,1.397-2.088c1.479,0.592,4.52,1.933,5.504,2.079
			c0.985,0.15,2.262-1.446,1.108-3.259c-0.828-1.307-12.063-5.038-12.063-5.038l0.703-25.629L172.34,103.391z"/>
		<path fill="none" stroke="#231F20" stroke-width="2" stroke-linecap="round" stroke-linejoin="round" stroke-miterlimit="10" d="
			M176.263,58.79c1.561,10.904-3.21,19.565-6.618,25.573"/>
		<path fill="#231F20" d="M200.727,66.499c1.609-1.059,5.405,4.3,9.084,3.423c3.675-0.876,7.608-2.867,9.763-0.895
			c1.982,1.817,1.259,4.65-1.479,6.15C205.268,82.218,197.061,68.906,200.727,66.499z"/>
		
			<path fill="#D1313D" stroke="#231F20" stroke-width="1.5" stroke-linecap="round" stroke-linejoin="round" stroke-miterlimit="10" d="
			M182.526,133.445c0,0,8.089,5.896,18.077,6.313c10.401,0.434,19.844-3.505,19.844-3.505S212.6,87.069,202.58,83.147l-14.799-6.269
			l-18.899,29.187l13.626,3.757l7.561-23.666l-6.574,22.682L182.526,133.445z"/>
	</g>
	<path fill="none" stroke="#231F20" stroke-width="2" stroke-linecap="round" stroke-linejoin="round" stroke-miterlimit="10" d="
		M251.238,114.844"/>
	<path fill="none" stroke="#231F20" stroke-width="1.4" stroke-linecap="round" stroke-linejoin="round" stroke-miterlimit="10" d="
		M215.355,39.274c-2.811-0.082-6.842,1.931-7.455,5.076"/>
	<path fill="none" stroke="#231F20" stroke-width="1.4" stroke-linecap="round" stroke-linejoin="round" stroke-miterlimit="10" d="
		M229.355,36.274c-1.652-0.048-3.727,0.628-5.279,1.832"/>
	<path fill="none" stroke="#231F20" stroke-width="1.4" stroke-linecap="round" stroke-linejoin="round" stroke-miterlimit="10" d="
		M134.355,64.274c-2.811-0.082-6.842,1.931-7.455,5.076"/>
	<path fill="none" stroke="#231F20" stroke-width="1.4" stroke-linecap="round" stroke-linejoin="round" stroke-miterlimit="10" d="
		M148.355,61.274c-1.652-0.048-3.727,0.628-5.279,1.832"/>
	<path fill="none" stroke="#231F20" stroke-width="1.4" stroke-linecap="round" stroke-linejoin="round" stroke-miterlimit="10" d="
		M358.4,62.181c2.656-0.819,7.076-0.546,8.564,1.426"/>
	<path fill="none" stroke="#231F20" stroke-width="1.4" stroke-linecap="round" stroke-linejoin="round" stroke-miterlimit="10" d="
		M347.198,63.964c1.547-0.58,3.727-0.611,5.586,0.023"/>
</g>
</svg>
