<?xml version="1.0" encoding="utf-8"?>
<!-- Generator: Adobe Illustrator 16.0.0, SVG Export Plug-In . SVG Version: 6.00 Build 0)  -->
<!DOCTYPE svg PUBLIC "-//W3C//DTD SVG 1.1//EN" "http://www.w3.org/Graphics/SVG/1.1/DTD/svg11.dtd">
<svg version="1.1" id="Layer_1" xmlns="http://www.w3.org/2000/svg" xmlns:xlink="http://www.w3.org/1999/xlink" x="0px" y="0px"
	 width="510.236px" height="141.732px" viewBox="0 0 510.236 141.732" enable-background="new 0 0 510.236 141.732"
	 xml:space="preserve">
<g>
	<g>
		<path fill="#F7C434" d="M275.626,73.574l18.002-34.611c11.201,6.959,18.662,19.369,18.662,33.526
			c0,14.989-8.361,28.026-20.676,34.7L275.626,73.574z"/>
	</g>
	<g>
		<path fill="#F9BF76" d="M293.555,111.269c13.834-7.418,23.266-22.017,23.266-38.78c0-15.875-8.457-29.813-21.104-37.545
			l4.115-7.913c15.492,9.232,25.896,26.149,25.896,45.458c0,20.308-11.514,37.969-28.35,46.828L293.555,111.269z"/>
	</g>
	<g>
		<path fill="#F7C434" d="M258.884,63.046l15.705-33.015c-4.646-1.923-9.734-2.99-15.076-2.99c-6.2,0-12.062,1.435-17.284,3.983
			L258.884,63.046z"/>
	</g>
	<path fill="#F9BF76" d="M30.564,64.294C31.175,41.576,49.087,23.109,71.58,21.62v-8.934c-27.407,1.506-49.309,23.976-49.925,51.607
		H30.564z"/>
	<path fill="#F7C434" d="M71.58,64.294V26.161c-20.022,1.474-35.879,17.881-36.483,38.133H71.58z"/>
	<circle fill="#D1313D" cx="55.007" cy="42.385" r="4.205"/>
	<circle fill="#D1313D" cx="65.186" cy="53.967" r="4.205"/>
	<circle fill="#D1313D" cx="45.173" cy="58.217" r="5.207"/>
	<line fill="none" x1="71.58" y1="125.294" x2="75.58" y2="125.294"/>
	<circle fill="#D1313D" cx="298.977" cy="88.147" r="4.205"/>
	<circle fill="#D1313D" cx="302.43" cy="73.705" r="2.698"/>
	<circle fill="#D1313D" cx="301.925" cy="61.226" r="3.71"/>
	<circle fill="#D1313D" cx="258.538" cy="36.785" r="3.202"/>
	<g>
		<path fill="#F9BF76" d="M240.144,27.018c5.85-2.882,12.42-4.508,19.369-4.508c6.031,0,11.781,1.223,17.021,3.43l3.828-8.048
			c-6.4-2.758-13.447-4.291-20.85-4.291c-8.429,0-16.397,1.991-23.478,5.515L240.144,27.018z"/>
	</g>
	<g>
		<path fill="#F7C434" d="M258.884,81.599l15.705,33.017c-4.646,1.923-9.734,2.989-15.076,2.989c-6.2,0-12.062-1.435-17.284-3.982
			L258.884,81.599z"/>
	</g>
	<circle fill="#D1313D" cx="251.194" cy="110.206" r="5.078"/>
	<g>
		<path fill="#F9BF76" d="M240.144,117.629c5.85,2.881,12.42,4.507,19.369,4.507c6.031,0,11.781-1.222,17.021-3.429l3.828,8.048
			c-6.4,2.757-13.447,4.291-20.85,4.291c-8.429,0-16.397-1.992-23.478-5.516L240.144,117.629z"/>
	</g>
	<g>
		<path fill="#F7C434" d="M245.73,73.574l-18.003-34.611c-11.201,6.959-18.662,19.369-18.662,33.526
			c0,14.989,8.361,28.026,20.677,34.7L245.73,73.574z"/>
	</g>
	<g>
		<path fill="#F9BF76" d="M227.8,111.269c-13.834-7.418-23.266-22.017-23.266-38.78c0-15.875,8.458-29.813,21.104-37.545
			l-4.115-7.913c-15.491,9.232-25.896,26.149-25.896,45.458c0,20.308,11.514,37.969,28.349,46.828L227.8,111.269z"/>
	</g>
	<g>
		<g>
			<path fill="#F7C434" d="M435.428,74.294l-25.893,26.869c6.938,6.081,16.023,9.772,25.977,9.772
				c20.844,0,37.898-16.166,39.338-36.643L435.428,74.294L435.428,74.294z"/>
		</g>
		<g>
			<path fill="#F9BF76" d="M479.391,74.294c-1.451,22.945-20.572,41.173-43.879,41.173c-11.156,0-21.35-4.183-29.109-11.053
				l-6.188,6.42c9.369,8.413,21.744,13.543,35.297,13.543c28.221,0,51.35-22.22,52.813-50.083H479.391z"/>
			<path fill="#F9BF76" d="M398.057,108.79c0.236,0.235,0.482,0.463,0.723,0.695L398.057,108.79z"/>
		</g>
		<circle fill="#D1313D" cx="458.977" cy="86.147" r="4.205"/>
		<circle fill="#D1313D" cx="448.452" cy="95.078" r="3.018"/>
		<circle fill="#D1313D" cx="430.762" cy="101.34" r="5.73"/>
		<circle fill="#D1313D" cx="440.124" cy="81.218" r="5.731"/>
	</g>
	<g>
		<g>
			<path fill="#F7C434" d="M384.177,73.294c0.652,9.285,4.514,17.68,10.486,24.086l23.211-24.086H384.177z"/>
		</g>
		<g>
			<path fill="#F9BF76" d="M391.532,100.629c-6.828-7.241-11.23-16.787-11.898-27.335H370.7
				c0.688,13.063,6.145,24.877,14.646,33.752L391.532,100.629z"/>
		</g>
		<circle fill="#D1313D" cx="408.553" cy="78.089" r="3.188"/>
		<circle fill="#D1313D" cx="398.805" cy="87.034" r="4.024"/>
	</g>
	<line fill="none" x1="435.581" y1="70.294" x2="431.581" y2="70.294"/>
	<path fill="#D1313D" d="M71.58,33.586c-0.201-0.002-0.405,0.011-0.61,0.048c-1.74,0.314-2.896,1.98-2.581,3.722
		c0.281,1.563,1.654,2.644,3.191,2.623V33.586z"/>
	<path fill="#D1313D" d="M261.221,86.944c-0.256,0.127-0.504,0.273-0.736,0.452c-1.994,1.518-2.377,4.36-0.861,6.354
		c1.361,1.79,3.787,2.269,5.711,1.254L261.221,86.944z"/>
	<path fill="#F9BF76" d="M125.67,64.294c-0.611-22.718-18.09-41.185-41.09-42.674v-8.934c27,1.506,49.382,23.976,50,51.607H125.67z"
		/>
	<path fill="#F7C434" d="M84.58,64.294V26.161c20,1.474,35.955,17.881,36.559,38.133H84.58z"/>
	<circle fill="#D1313D" cx="101.227" cy="42.385" r="4.205"/>
	<circle fill="#D1313D" cx="92.048" cy="56.967" r="4.205"/>
	<circle fill="#D1313D" cx="110.557" cy="55.458" r="2.715"/>
	<path fill="#D1313D" d="M84.656,33.586c0.199-0.002,0.403,0.011,0.608,0.048c1.74,0.314,2.896,1.98,2.581,3.722
		c-0.281,1.563-1.654,2.644-3.189,2.623V33.586z"/>
	<path fill="#F9BF76" d="M384.565,62.294c0.609-22.718,18.521-41.185,41.016-42.674v-8.934
		c-27.408,1.506-49.309,23.976-49.926,51.607H384.565z"/>
	<path fill="#F7C434" d="M425.581,62.294V24.161c-20.021,1.474-35.881,17.881-36.484,38.133H425.581z"/>
	<circle fill="#D1313D" cx="409.007" cy="40.385" r="4.205"/>
	<circle fill="#D1313D" cx="419.186" cy="51.967" r="4.205"/>
	<circle fill="#D1313D" cx="399.173" cy="56.217" r="5.207"/>
	<path fill="#D1313D" d="M425.581,31.586c-0.201-0.002-0.406,0.011-0.611,0.048c-1.738,0.314-2.895,1.98-2.58,3.722
		c0.281,1.563,1.654,2.644,3.191,2.623V31.586L425.581,31.586z"/>
	<path fill="#F9BF76" d="M479.671,62.294c-0.611-22.718-18.09-41.185-41.09-42.674v-8.934c27,1.506,49.381,23.976,50,51.607H479.671
		z"/>
	<path fill="#F7C434" d="M438.581,62.294V24.161c20,1.474,35.953,17.881,36.559,38.133H438.581z"/>
	<circle fill="#D1313D" cx="455.227" cy="40.385" r="4.205"/>
	<circle fill="#D1313D" cx="446.048" cy="54.967" r="4.205"/>
	<circle fill="#D1313D" cx="464.557" cy="53.458" r="2.715"/>
	<path fill="#D1313D" d="M438.655,31.586c0.201-0.002,0.404,0.011,0.609,0.048c1.74,0.314,2.896,1.98,2.58,3.722
		c-0.279,1.563-1.652,2.644-3.189,2.623V31.586L438.655,31.586z"/>
	<path fill="#F9BF76" d="M30.564,76.294c0.611,23,18.523,41.577,41.017,43.066v8.934c-27.407-1.506-49.309-24-49.925-52H30.564z"/>
	<path fill="#F7C434" d="M71.58,76.294v38.525c-20.022-1.475-35.879-17.525-36.483-38.525H71.58z"/>
	<circle fill="#D1313D" cx="52.007" cy="94.593" r="4.205"/>
	<circle fill="#D1313D" cx="58.448" cy="82.272" r="3.465"/>
	<path fill="#D1313D" d="M71.607,106.726c-0.366,0.004-0.74-0.02-1.115-0.086c-3.185-0.576-5.297-3.623-4.723-6.807
		c0.516-2.857,3.026-4.836,5.837-4.796L71.607,106.726L71.607,106.726z"/>
	<path fill="#F9BF76" d="M125.67,76.294c-0.611,23-18.09,41.577-41.09,43.066v8.934c27-1.506,49.382-24,50-52H125.67z"/>
	<path fill="#F7C434" d="M84.58,76.294v38.525c20-1.475,35.955-17.525,36.559-38.525H84.58z"/>
	<circle fill="#D1313D" cx="99.656" cy="96.368" r="2.808"/>
	<circle fill="#D1313D" cx="107.769" cy="87.461" r="3.985"/>
	<path fill="#D1313D" d="M84.809,79.586c0.45-0.004,0.906,0.024,1.364,0.105c3.89,0.703,6.472,4.428,5.769,8.315
		c-0.628,3.493-3.695,5.909-7.132,5.861L84.809,79.586L84.809,79.586z"/>
	<circle fill="#D1313D" cx="228.007" cy="50.385" r="4.205"/>
	<circle fill="#D1313D" cx="216.173" cy="70.217" r="5.207"/>
	<circle fill="#D1313D" cx="233.553" cy="81.089" r="3.188"/>
	<circle fill="#D1313D" cx="222.805" cy="90.034" r="4.024"/>
	<path fill="#D1313D" d="M237.201,57.771c-0.251-0.001,0.495,0.013,0.236,0.06c-2.283,0.413-3.803,2.6-3.391,4.885
		c0.414,2.286,2.601,3.805,4.886,3.392c0.996-0.181,1.831-0.709,2.439-1.424L237.201,57.771z"/>
	<path fill="#D1313D" d="M284.155,57.771c0.25-0.001-0.496,0.013-0.238,0.06c2.285,0.413,3.803,2.6,3.391,4.885
		c-0.414,2.286-2.6,3.805-4.885,3.392c-0.996-0.181-1.83-0.709-2.439-1.424L284.155,57.771z"/>
	<path fill="#D1313D" d="M291.155,43.771c0.25-0.001-0.496,0.013-0.238,0.06c2.285,0.413,3.803,2.6,3.391,4.885
		c-0.414,2.286-2.6,3.805-4.885,3.392c-0.996-0.181-1.83-0.709-2.439-1.424L291.155,43.771z"/>
	<path fill="#D1313D" d="M281.112,84.088c0.258-0.12,0.51-0.261,0.748-0.434c2.033-1.464,2.49-4.298,1.027-6.327
		c-1.313-1.825-3.729-2.368-5.676-1.403L281.112,84.088z"/>
</g>
</svg>
