<?xml version="1.0" encoding="utf-8"?>
<!-- Generator: Adobe Illustrator 16.0.0, SVG Export Plug-In . SVG Version: 6.00 Build 0)  -->
<!DOCTYPE svg PUBLIC "-//W3C//DTD SVG 1.1//EN" "http://www.w3.org/Graphics/SVG/1.1/DTD/svg11.dtd">
<svg version="1.1" id="Layer_1" xmlns="http://www.w3.org/2000/svg" xmlns:xlink="http://www.w3.org/1999/xlink" x="0px" y="0px"
	 width="198.425px" height="141.732px" viewBox="0 0 198.425 141.732" enable-background="new 0 0 198.425 141.732"
	 xml:space="preserve">
<g>
	<path fill="none" stroke="#9B8579" stroke-width="2.6" stroke-linecap="round" stroke-linejoin="round" stroke-miterlimit="10" d="
		M188.212,17.076H23.875c0,0-13.996-1.325-14.06,5.704c-0.06,6.618,13.713,5.211,13.713,5.211l164.684,0.979"/>
	<path fill="none" stroke="#9B8579" stroke-width="2.6" stroke-linecap="round" stroke-linejoin="round" stroke-miterlimit="10" d="
		M14.46,66.719h163.974c0,0,12.284-1.323,12.348,5.704c0.059,6.618-12.003,5.211-12.003,5.211l-164.5,0.769
		c0,0-7.191-0.195-7.191,6.677c0,5.736,8.916,4.752,8.916,4.752H183.08c0,0,7.569-0.45,8.229,5.85
		c0.613,5.863-8.406,6.989-8.406,6.989H17.028"/>
	<text transform="matrix(1 0 0 1 69.8145 48.783)" fill="#231F20" font-family="'JandaCapslock'" font-size="14">1</text>
	
		<text transform="matrix(1 0 0 1 72.6855 48.783)" fill="#231F20" font-family="'JandaCapslock'" font-size="14" letter-spacing="-2"> </text>
	<text transform="matrix(1 0 0 1 75.4849 44.1208)" fill="#231F20" font-family="'JandaCapslock'" font-size="8.162">a</text>
	<text transform="matrix(1 0 0 1 80.707 48.783)" fill="#231F20" font-family="'JandaCapslock'" font-size="14"> dobra</text>
	<text transform="matrix(1 0 0 1 67.626 120.6814)" fill="#231F20" font-family="'JandaCapslock'" font-size="14">2</text>
	<text transform="matrix(1 0 0 1 77.6748 116.0183)" fill="#231F20" font-family="'JandaCapslock'" font-size="8.162">a</text>
	<text transform="matrix(1 0 0 1 82.8955 120.6814)" fill="#231F20" font-family="'JandaCapslock'" font-size="14"> dobra</text>
</g>
</svg>
