<?xml version="1.0" encoding="utf-8"?>
<!-- Generator: Adobe Illustrator 16.0.0, SVG Export Plug-In . SVG Version: 6.00 Build 0)  -->
<!DOCTYPE svg PUBLIC "-//W3C//DTD SVG 1.1//EN" "http://www.w3.org/Graphics/SVG/1.1/DTD/svg11.dtd">
<svg version="1.1" id="Layer_1" xmlns="http://www.w3.org/2000/svg" xmlns:xlink="http://www.w3.org/1999/xlink" x="0px" y="0px"
	 width="396.85px" height="226.771px" viewBox="0 0 396.85 226.771" enable-background="new 0 0 396.85 226.771"
	 xml:space="preserve">
<g>
	<path fill="none" stroke="#231F20" stroke-width="1.5" stroke-linecap="round" stroke-linejoin="round" stroke-miterlimit="10" d="
		M17.511,181.632h52.472h30.98h152.798h33.926c0,0,88.218,2.445,98.528-0.119"/>
	
		<rect x="132.724" y="128.495" fill="#FFFFFF" stroke="#231F20" stroke-width="2" stroke-linecap="round" stroke-linejoin="round" stroke-miterlimit="10" width="160" height="68"/>
	
		<rect x="120.724" y="120.495" fill="#FFFFFF" stroke="#231F20" stroke-width="2" stroke-linecap="round" stroke-linejoin="round" stroke-miterlimit="10" width="183" height="10"/>
	
		<polyline fill="none" stroke="#231F20" stroke-width="2" stroke-linecap="round" stroke-linejoin="round" stroke-miterlimit="10" points="
		120.724,120.495 148.724,83.508 284.724,83.718 303.724,120.495 	"/>
	<polygon fill="#615375" points="184.385,97.89 187.142,101.437 193.306,102.006 188.845,104.768 189.898,108.668 184.385,106.827 
		178.872,108.668 179.925,104.768 175.465,102.006 181.63,101.437 	"/>
	<polygon fill="#615375" points="208.385,97.89 211.142,101.437 217.306,102.006 212.845,104.768 213.898,108.668 208.385,106.827 
		202.872,108.668 203.925,104.768 199.465,102.006 205.63,101.437 	"/>
	<polygon fill="#615375" points="231.385,97.89 234.142,101.437 240.306,102.006 235.845,104.768 236.898,108.668 231.385,106.827 
		225.872,108.668 226.925,104.768 222.465,102.006 228.63,101.437 	"/>
	<g>
		<g>
			<path fill="#A87C4F" stroke="#231F20" stroke-width="1.5" stroke-miterlimit="10" d="M59.09,153.601
				c0,0,6.443,44.395,4.675,45.865c-1.771,1.477,9.039-0.313,9.039-0.313s3.959-30.229,3.054-45.777L59.09,153.601z"/>
			<path fill="#A87C4F" stroke="#231F20" stroke-width="1.5" stroke-miterlimit="10" d="M46.621,154.478
				c0,0-3.042,43.305-3.947,44.713c-1.246,1.938,7.947,1.098,7.947,1.098s12.343-31.898,10.847-45.965L46.621,154.478z"/>
			
				<path fill="#231F20" stroke="#231F20" stroke-width="2" stroke-linecap="round" stroke-linejoin="round" stroke-miterlimit="10" d="
				M63.351,197.282c0,0-5.923,9.449-3.38,12.67c2.018,2.561,6.227,3.061,12.453,3.061c6.229,0,7.54-0.01,11.344,0.02
				c3.232,0.025,9.854-3.52-2.032-10.418c-5.521-3.199-10.379-5.332-10.379-5.332H63.351L63.351,197.282z"/>
			
				<path fill="#231F20" stroke="#231F20" stroke-width="2" stroke-linecap="round" stroke-linejoin="round" stroke-miterlimit="10" d="
				M41.826,200.365c0,0-7.081,10.188-4.468,13.662c2.077,2.758,6.411,3.297,12.823,3.297c6.414,0,7.764-0.01,11.681,0.023
				c3.328,0.025,10.145-3.797-2.097-11.232c-5.683-3.451-10.683-5.75-10.683-5.75H41.826L41.826,200.365z"/>
			<path fill="#A87C4F" stroke="#231F20" stroke-width="1.5" stroke-miterlimit="10" d="M59.636,94.698
				c0,0,16.81,25.295,16.601,26.668c-0.205,1.336,0.461,5.729,0.974,8.936c0.816,5.156,3.626,6.836,4.88,5.619
				c1.443-1.41-0.891-9.412-0.891-9.412s2.322,6.131,3.563,7.496c1.294,1.424,3.896,0.936,4.35-1.205
				c0.825-3.908-3.246-5.682-5.352-8.334c0,0,5.92,6.49,7.454,6.318c2.227-0.254,2.427-1.531,1.274-3.465
				c-1.048-1.77-4.223-3.145-5.646-4.391c-1.422-1.248-1.381-2.113-0.02-2.289c1.364-0.176,4.229-0.439,5.018-0.752
				c0.789-0.314,0.92-2.156-0.809-3.102c-1.243-0.682-11.226,1.266-11.226,1.266L67.345,91.714L59.636,94.698z"/>
			
				<polygon fill="#D1313D" stroke="#231F20" stroke-width="1.5" stroke-linecap="round" stroke-linejoin="round" stroke-miterlimit="10" points="
				73.752,96.59 57.665,101.87 53.975,90.245 61.326,77.375 			"/>
			<path fill="#603813" d="M31.694,51.819c0,0.135-6.773,5.77-6.773,5.77l-12.902,6.093c0,0,9.131,18.321,19.328,12.512
				c3.305-1.882,4.404-22.75,4.404-22.75"/>
			<path fill="#A87C4F" d="M43.9,64.6c6.807,10.665,34.834,20.156,44.953-1.255c0.951-2.011,5.77-3.212,6.291-5.165
				c1.018-3.805-3.722-4.218-3.722-7.873c0-7.313-2.573-17.194-4.985-21.761c-4.757-9.018-20.896-8.857-27.628-6.597
				C53.967,23.577,45.83,37.738,45.83,37.738s-6.624-6.533-12.207-1.009c-5.545,5.486-1.83,11.909,3.488,13.26
				c3.307,0.84,5.688-1.52,5.688-1.52S39.807,58.18,43.9,64.6z"/>
			<path fill="#603813" d="M37.195,33.094c0,0,3.405-11.455,10.603-18.212c3.471-3.261,13.51-5.797,18.256-5.42
				c2.766,0.22,8.309,1.731,10.58,3.318c3.989,2.783,14.827,10.002,12.976,14.501c-2.048,4.971-20.767,3.841-20.767,3.841
				s-5.596-8.386-8.907-8.186c-5.113,0.31-13.937,8.846-13.937,13.956"/>
			
				<path fill="none" stroke="#231F20" stroke-width="1.5" stroke-linecap="round" stroke-linejoin="round" stroke-miterlimit="10" d="
				M92.121,50.791c0.546-9.007-2.625-16.881-5.685-22.245"/>
			
				<path fill="none" stroke="#231F20" stroke-width="1.5" stroke-linecap="round" stroke-linejoin="round" stroke-miterlimit="10" d="
				M43.9,64.6c5.516,11.385,35.265,19.542,45.384-1.87"/>
			<path fill="none" stroke="#231F20" stroke-width="2" stroke-linecap="round" stroke-linejoin="round" stroke-miterlimit="10" d="
				M45.373,154.322"/>
			
				<path fill="#8EB2C5" stroke="#231F20" stroke-width="1.5" stroke-linecap="round" stroke-linejoin="round" stroke-miterlimit="10" d="
				M76.476,119.909l2.615,41.166c0,0-9.33,1.939-18.582,1.939c-4.46,0-17.823-0.23-17.823-0.23l2.705-44.164"/>
			<path fill="#231F20" d="M74.545,38.734c1.129,0.106,1.87,1.942,1.659,4.096c-0.212,2.156-1.298,3.813-2.425,3.704
				c-1.129-0.113-1.868-1.949-1.655-4.104C72.333,40.276,73.419,38.621,74.545,38.734z"/>
			<path fill="#231F20" d="M86.545,36.734c1.129,0.106,1.87,1.942,1.659,4.096c-0.212,2.156-1.298,3.813-2.425,3.704
				c-1.129-0.113-1.868-1.949-1.655-4.104C84.333,38.276,85.419,36.621,86.545,36.734z"/>
			<path fill="none" stroke="#231F20" stroke-width="2" stroke-linecap="round" stroke-linejoin="round" stroke-miterlimit="10" d="
				M73.941,12.78c11.142,3.396,17.368,17.546,17.482,18.342"/>
			<path fill="none" stroke="#231F20" stroke-width="2" stroke-linecap="round" stroke-linejoin="round" stroke-miterlimit="10" d="
				M73.941,12.78c11.142,3.396,17.368,17.546,17.482,18.342"/>
			<path fill="none" stroke="#231F20" stroke-width="2" stroke-linecap="round" stroke-linejoin="round" stroke-miterlimit="10" d="
				M66.052,12.78c11.142,3.396,17.369,17.546,17.48,18.342"/>
			<path fill="none" stroke="#231F20" stroke-width="2" stroke-linecap="round" stroke-linejoin="round" stroke-miterlimit="10" d="
				M63.094,16.482c8.656,4.996,13.438,15.915,13.538,16.61"/>
			<path fill="none" stroke="#231F20" stroke-width="2" stroke-linecap="round" stroke-linejoin="round" stroke-miterlimit="10" d="
				M58.811,19.495c7.623,5.327,11.813,14.92,11.904,15.572"/>
			<path fill="none" stroke="#231F20" stroke-width="2" stroke-linecap="round" stroke-linejoin="round" stroke-miterlimit="10" d="
				M56.459,23.163c-9.877,7.361-10.628,14.574-10.628,14.574s-3.259-3.894-6.944-3.49c-3.688,0.403-6.26,2.194-7.395,7.063
				c-1.141,4.898,4.521,9.149,8.514,8.635c2.548-0.33,2.794-1.477,2.794-1.477s-2.73,4.023-0.789,12.799"/>
			
				<path fill="none" stroke="#231F20" stroke-width="1.5" stroke-linecap="round" stroke-linejoin="round" stroke-miterlimit="10" d="
				M35.75,42.277c0,0,4.101-5.759,7.908-1.084"/>
			
				<path fill="none" stroke="#231F20" stroke-width="1.5" stroke-linecap="round" stroke-linejoin="round" stroke-miterlimit="10" d="
				M39.807,43.716c-1.403-1.985-1.01-3.997-1.01-3.997"/>
			<path fill="none" stroke="#231F20" stroke-width="2" stroke-linecap="round" stroke-linejoin="round" stroke-miterlimit="10" d="
				M63.094,12.154c-15.24,4.328-21.323,18.968-21.323,18.968"/>
			<path fill="none" stroke="#231F20" stroke-width="2" stroke-linecap="round" stroke-linejoin="round" stroke-miterlimit="10" d="
				M69.864,9.92c-16.335-2.675-28.85,6.563-32.669,21.964"/>
			<path fill="none" stroke="#231F20" stroke-width="2" stroke-linecap="round" stroke-linejoin="round" stroke-miterlimit="10" d="
				M32.948,50.307C25.82,58.704,17.39,62.251,10.635,63.681"/>
			<path fill="none" stroke="#231F20" stroke-width="2" stroke-linecap="round" stroke-linejoin="round" stroke-miterlimit="10" d="
				M31.415,52.493C27.124,62.602,20.224,68.45,14.286,71.785"/>
			<path fill="none" stroke="#231F20" stroke-width="2" stroke-linecap="round" stroke-linejoin="round" stroke-miterlimit="10" d="
				M34.365,51.978c-1.433,12.667-7.123,21.409-12.572,27.038"/>
			<path fill="#231F20" d="M38.628,53.147c-0.539,1.015-2.09,1.244-3.465,0.515l-3.47-1.844c-1.375-0.73-2.055-2.146-1.515-3.159
				l0,0c0.539-1.013,2.089-1.244,3.465-0.515l3.469,1.843C38.489,50.719,39.167,52.135,38.628,53.147L38.628,53.147z"/>
			
				<path fill="none" stroke="#231F20" stroke-width="1.5" stroke-linecap="round" stroke-linejoin="round" stroke-miterlimit="10" d="
				M84.414,46.626c19.873,10.662,8.646,17.06-2.052,13.778"/>
			<polyline fill="#FFFFFF" points="42.799,119.954 41.579,137.611 46.338,136.849 45.94,121.159 42.686,119.591 			"/>
			<path fill="#A87C4F" stroke="#231F20" stroke-width="1.5" stroke-miterlimit="10" d="M31.824,98.043
				c0,0,5.401,28.679,4.345,29.812c-1.032,1.102-3.08,5.459-4.553,8.654c-2.366,5.137-0.584,8.211,1.43,7.793
				c2.324-0.48,4.93-9.041,4.93-9.041s-1.457,6.854-1.059,8.775c0.421,2.006,3.341,2.998,5.116,1.303
				c1.041-0.994-0.222-10.523-0.222-10.523s1.936,9.162,3.581,9.852c2.396,1,3.387-0.055,3.429-2.441
				c0.04-2.188-2.301-5.186-2.959-7.104c-0.655-1.918-0.08-2.682,1.398-2.088c1.479,0.592,4.519,1.934,5.504,2.08
				c0.985,0.148,2.26-1.447,1.108-3.26c-0.827-1.307-12.063-5.039-12.063-5.039l0.703-25.628L31.824,98.043z"/>
			<path fill="none" stroke="#231F20" stroke-width="2" stroke-linecap="round" stroke-linejoin="round" stroke-miterlimit="10" d="
				M35.75,53.442c1.561,10.905-3.21,19.565-6.618,25.574"/>
			<path fill="#231F20" d="M60.214,61.151c1.608-1.059,5.405,4.3,9.084,3.423c3.675-0.876,7.607-2.867,9.763-0.895
				c1.982,1.817,1.258,4.65-1.479,6.15C64.755,76.87,56.548,63.559,60.214,61.151z"/>
			
				<path fill="#D1313D" stroke="#231F20" stroke-width="1.5" stroke-linecap="round" stroke-linejoin="round" stroke-miterlimit="10" d="
				M42.013,128.099c0,0,8.09,5.896,18.077,6.313c10.399,0.434,19.844-3.504,19.844-3.504S72.086,81.72,62.067,77.799L47.268,71.53
				l-18.901,29.187l13.626,3.758l7.562-23.666l-6.574,22.681L42.013,128.099z"/>
		</g>
		<path fill="none" stroke="#231F20" stroke-width="2" stroke-linecap="round" stroke-linejoin="round" stroke-miterlimit="10" d="
			M110.724,109.496"/>
		
			<path fill="none" stroke="#231F20" stroke-width="1.4" stroke-linecap="round" stroke-linejoin="round" stroke-miterlimit="10" d="
			M74.841,33.926c-2.812-0.082-6.841,1.932-7.454,5.076"/>
		
			<path fill="none" stroke="#231F20" stroke-width="1.4" stroke-linecap="round" stroke-linejoin="round" stroke-miterlimit="10" d="
			M88.841,30.926c-1.651-0.048-3.727,0.628-5.278,1.832"/>
	</g>
	<path fill="none" stroke="#9B8579" stroke-width="2" stroke-linecap="round" stroke-linejoin="round" stroke-miterlimit="10" d="
		M64.08,156.331c19.329-20.889,17.505-31.273,27.22-33.453c4.206-0.943,16.981-2.383,16.063,18.078"/>
	<polygon fill="#615375" points="107.385,136.7 110.142,142.286 116.306,143.183 111.845,147.529 112.898,153.667 107.385,150.769 
		101.872,153.667 102.925,147.529 98.465,143.183 104.63,142.286 	"/>
</g>
</svg>
