<?xml version="1.0" encoding="utf-8"?>
<!-- Generator: Adobe Illustrator 16.0.0, SVG Export Plug-In . SVG Version: 6.00 Build 0)  -->
<!DOCTYPE svg PUBLIC "-//W3C//DTD SVG 1.1//EN" "http://www.w3.org/Graphics/SVG/1.1/DTD/svg11.dtd">
<svg version="1.1" id="Layer_1" xmlns="http://www.w3.org/2000/svg" xmlns:xlink="http://www.w3.org/1999/xlink" x="0px" y="0px"
	 width="425.197px" height="255.118px" viewBox="0 0 425.197 255.118" enable-background="new 0 0 425.197 255.118"
	 xml:space="preserve">
<g>
	<path fill="none" stroke="#231F20" stroke-width="1.5" stroke-linecap="round" stroke-linejoin="round" stroke-miterlimit="10" d="
		M17.246,200.281h55.604h32.829h161.917h35.949c0,0,93.479,2.594,104.404-0.125"/>
	<g>
		<path fill="#F7C434" stroke="#231F20" stroke-width="1.5" stroke-miterlimit="10" d="M115.446,157.763
			c-1.277-3.125-7.277-12.801-3.916-13.176c3.36-0.373,8.597,5.299,8.721,5.67c0.125,0.375,0.914-9.799,3.778-9.459
			c2.688,0.322,4.39,8.199,4.018,9.07c-0.374,0.873,2.679-4.322,4.459-2.439c1.011,1.064-0.219,3.93-1.559,5.68
			c-1.491,1.943-4.162,4.564-5.479,6.658c-0.392,0.617-1.057,2.729-1.057,2.729s10.123,8.676,13.073,14.318
			c2.038,3.898,9.818,23.615-5.003,28.152c-4.976,1.523-13.364,2.451-22.128,1.605c-5.815-0.563-13.161-2.521-16.948-6.102
			c-2.269-2.143-5.604-10.086-0.87-19.549c4.729-9.463,13.303-13.857,14.194-14.32c4.728-2.438,7.652-4.273,7.652-4.273
			S115.889,158.847,115.446,157.763z"/>
		<path fill="#231F20" d="M114.645,156.791c-0.654,0.09-1.658,4.811-0.812,5.848c0.853,1.035,4.182,1.527,5.759,1.535
			c1.579,0.006,5.396,0.564,6.126-1.15c0.729-1.715,0.188-2.822-1.601-2.627C120.785,160.759,117.008,156.468,114.645,156.791z"/>
		<g>
			<path fill="#FFFFFF" d="M110.656,200.14l0.463-3.383c-1.938-0.299-3.862-1.176-4.92-2.174l0.883-3.346
				c1.096,0.969,2.977,3.055,4.853,3.313c2.375,0.326,4.171-0.826,4.434-2.734c0.253-1.842-0.896-3.156-3.236-4.502
				c-3.23-1.807-5.13-3.633-4.729-6.547c0.381-2.775,2.645-4.615,5.794-4.695l0.461-3.383l2.075,0.285l-0.444,3.246
				c2,0.344,3.301,1.066,4.19,1.77l-1.14,2.094c-0.648-0.498-1.921-1.422-4.063-1.715c-2.576-0.354-3.758,1.053-3.942,2.395
				c-0.236,1.738,0.883,2.777,3.63,4.383c3.255,1.879,4.759,3.857,4.352,6.836c-0.363,2.646-2.544,4.871-6.068,4.969l-0.478,3.48
				L110.656,200.14z"/>
		</g>
	</g>
	<g>
		<path fill="#F7C434" stroke="#231F20" stroke-width="1.5" stroke-miterlimit="10" d="M144.057,176.835
			c-1.276-3.125-7.277-12.799-3.916-13.174c3.359-0.373,5.418,2.119,5.541,2.492c0.126,0.375,4.095-6.621,6.958-6.279
			c2.688,0.32,2.271,6.078,1.896,6.951c-0.374,0.871,4.798-2.205,6.579-0.322c1.01,1.066-0.219,3.93-1.56,5.68
			c-1.49,1.945-4.161,4.566-5.479,6.658c-0.393,0.619-1.057,2.729-1.057,2.729s11.206,10.336,13.072,14.32
			c1.866,3.982,5.479,10.209,4.108,15.439c-1.37,5.229-2.842,9.4-7.697,11.268c-4.854,1.869-14.777,3.896-23.543,3.053
			c-5.813-0.563-13.161-2.523-16.947-6.104c-2.269-2.143-5.604-10.086-0.869-19.549c4.729-9.463,13.303-13.857,14.192-14.32
			c4.729-2.438,9.773-4.273,9.773-4.273S144.499,177.919,144.057,176.835z"/>
		<path fill="#231F20" d="M143.256,179.044c-0.654,0.09-1.658,1.631-0.811,2.666c0.852,1.037,4.18,1.529,5.758,1.537
			c1.579,0.006,5.396,0.563,6.125-1.15c0.729-1.715,0.188-2.82-1.6-2.627C149.398,179.833,145.618,178.722,143.256,179.044z"/>
		<g>
			<path fill="#FFFFFF" d="M139.267,219.212l0.462-3.381c-1.938-0.299-3.862-1.178-4.919-2.174l0.883-3.346
				c1.096,0.969,2.976,3.057,4.851,3.313c2.377,0.326,4.173-0.826,4.436-2.734c0.253-1.842-0.896-3.156-3.236-4.5
				c-3.229-1.807-5.129-3.635-4.729-6.549c0.381-2.775,2.646-4.615,5.795-4.695l0.461-3.381l2.076,0.283l-0.445,3.248
				c2,0.344,3.3,1.066,4.19,1.77l-1.141,2.094c-0.647-0.498-1.919-1.422-4.063-1.715c-2.577-0.355-3.76,1.053-3.941,2.393
				c-0.238,1.74,0.881,2.779,3.629,4.385c3.254,1.879,4.757,3.857,4.352,6.836c-0.363,2.646-2.544,4.871-6.068,4.969l-0.479,3.479
				L139.267,219.212z"/>
		</g>
	</g>
	<g>
		<path fill="#F7C434" stroke="#231F20" stroke-width="1.5" stroke-miterlimit="10" d="M67.388,179.548
			c1.98-2.73,10.107-10.707,6.934-11.867c-3.178-1.16-5.768,0.771-5.978,1.104c-0.21,0.334-2.401-7.402-5.269-7.752
			c-2.688-0.328-5.769,6.426-5.61,7.361c0.155,0.936-2.019-4.34-4.193-2.936c-1.233,0.795-0.723,3.867,0.163,5.887
			c0.987,2.244,2.959,5.426,3.741,7.771c0.232,0.693,0.379,2.9,0.379,2.9s-8.979,6.824-12.921,10.807
			c-3.016,3.045-8.808,8.617-8.719,14.02c0.09,5.406,0.528,11.928,4.803,14.895c4.273,2.969,11.313,5.174,20.024,6.434
			c5.782,0.836,13.386,0.676,17.913-1.9c2.711-1.543,7.837-8.467,5.485-18.783c-2.35-10.316-9.632-16.621-10.391-17.281
			c-4.013-3.49-8.479-6.473-8.479-6.473S66.699,180.496,67.388,179.548z"/>
		<path fill="#231F20" d="M67.641,181.884c0.614,0.242,1.225,1.979,0.15,2.783c-1.069,0.805-4.422,0.492-5.957,0.125
			c-1.534-0.369-5.375-0.732-5.677-2.572c-0.3-1.838,0.487-2.785,2.177-2.174C61.488,181.193,65.422,181.009,67.641,181.884z"/>
		<path fill="#FFFFFF" d="M62.358,222.003l-0.144-3.41c-1.96,0.049-4.011-0.475-5.227-1.27l0.276-3.447
			c1.247,0.76,3.468,2.479,5.355,2.4c2.396-0.1,3.961-1.551,3.88-3.477c-0.075-1.855-1.438-2.947-3.979-3.857
			c-3.5-1.205-5.691-2.67-5.813-5.607c-0.115-2.801,1.785-5.012,4.873-5.645l-0.146-3.41l2.096-0.088l0.136,3.271
			c2.028-0.016,3.438,0.467,4.438,1l-0.752,2.264c-0.729-0.375-2.143-1.063-4.302-0.971c-2.602,0.109-3.515,1.701-3.459,3.053
			c0.072,1.756,1.357,2.58,4.35,3.676c3.534,1.271,5.362,2.955,5.488,5.957c0.107,2.668-1.644,5.244-5.096,5.963l0.146,3.512
			L62.358,222.003z"/>
	</g>
	<g>
		<path fill="#F7C434" stroke="#231F20" stroke-width="1.5" stroke-miterlimit="10" d="M99.629,188.492
			c1.276-3.125,7.277-12.799,3.916-13.174c-3.36-0.373-5.417,2.119-5.542,2.492c-0.125,0.375-4.094-6.621-6.957-6.279
			c-2.688,0.32-2.271,6.078-1.896,6.951c0.374,0.869-4.799-2.203-6.578-0.322c-1.012,1.064,0.217,3.928,1.558,5.678
			c1.49,1.945,4.161,4.568,5.479,6.66c0.392,0.619,1.056,2.729,1.056,2.729s-11.206,10.334-13.072,14.318
			s-5.479,10.211-4.107,15.441c1.369,5.229,2.842,9.398,7.696,11.268s14.777,3.896,23.543,3.051
			c5.813-0.561,13.162-2.521,16.947-6.102c2.269-2.145,5.604-10.084,0.869-19.549c-4.729-9.463-13.302-13.857-14.192-14.32
			c-4.729-2.438-9.772-4.273-9.772-4.273S99.187,189.576,99.629,188.492z"/>
		<path fill="#231F20" d="M100.43,190.701c0.653,0.09,1.658,1.631,0.811,2.666c-0.852,1.037-4.181,1.527-5.759,1.537
			c-1.578,0.006-5.396,0.563-6.125-1.152s-0.188-2.82,1.6-2.627C94.287,191.49,98.067,190.378,100.43,190.701z"/>
		<path fill="#FFFFFF" d="M104.824,230.927l-0.948-3.279c-1.892,0.514-4.008,0.492-5.378,0.008l-0.55-3.414
			c1.395,0.439,3.958,1.586,5.775,1.059c2.305-0.664,3.479-2.445,2.941-4.297c-0.516-1.783-2.1-2.521-4.783-2.803
			c-3.687-0.34-6.161-1.242-6.979-4.066c-0.778-2.691,0.544-5.293,3.393-6.643l-0.948-3.277l2.015-0.582l0.907,3.148
			c1.969-0.498,3.447-0.365,4.551-0.084l-0.193,2.377c-0.795-0.193-2.331-0.523-4.406,0.078c-2.5,0.723-3.011,2.486-2.638,3.785
			c0.488,1.688,1.936,2.184,5.098,2.537c3.735,0.396,5.911,1.598,6.748,4.484c0.738,2.566-0.352,5.482-3.534,7.002l0.978,3.375
			L104.824,230.927z"/>
	</g>
	
		<path fill="#F7C434" stroke="#231F20" stroke-width="1.5" stroke-linecap="round" stroke-linejoin="round" stroke-miterlimit="10" d="
		M278.055,210.044c0,0-1.545,1.463-1.441,3.881c0.105,2.418,2.189,4.574,3.246,4.586c1.854,0.02,5.963-1.402,5.549-4.305
		c-0.412-2.9-3.152-5.725-3.469-8.465c-0.311-2.74-1.479-11.291,1.316-11.291c2.797,0,32.293-1.059,32.293-1.059
		s3.729,2.096,3.109,7.092c-0.623,4.996-2.488,7.896-2.902,9.672c-0.414,1.77-0.299,6.086,1.563,6.408
		c1.865,0.32,4.336-0.484,5.273-2.357c0.691-1.389,0.758-2.832-0.486-4.926c-1.24-2.098-1.143-1.287-0.209-4.51
		c0.936-3.225,4.965-5.336,5.898-8.881c0.932-3.545-4.787-5.836-5.615-6.803c-0.83-0.969-1.035-1.684-1.035-1.684h-44.141
		c0,0-2.283,4.309-2.904,6.404s0.799,7.039,1.453,8.521C275.991,203.326,278.055,210.044,278.055,210.044z"/>
	
		<path fill="#F7C434" stroke="#231F20" stroke-width="1.5" stroke-linecap="round" stroke-linejoin="round" stroke-miterlimit="10" d="
		M266.6,154.123c0,0-7.25-107.346-7.377-112.813c-0.121-5.192,5.879-9.409,13.498-11.075c8.703-1.904,56.998-2.761,65.605,4.207
		c8.605,6.969,7.379,12.297,7.379,16.396c0,4.098-10.658,110.253-13.117,113.532c-2.459,3.281,9.271,7.846,10.246,10.248
		c1.969,4.844-0.143,9.35-4.648,11.811c-4.51,2.459-48.91,0.021-59.348,1.205c-11.832,1.342-13.174,0.514-17.039-1.301
		c-3.469-1.629-4.869-7.322-3.154-11.832C260.36,169.992,266.6,154.123,266.6,154.123z"/>
	<path fill="#D1313D" stroke="#231F20" stroke-miterlimit="10" d="M332.593,164.369c-2.459,3.279,9.27,7.846,10.246,10.248
		c1.969,4.844-0.145,9.35-4.648,11.811c-4.51,2.459-48.91,0.021-59.348,1.205c-11.832,1.342-13.176,0.514-17.039-1.301
		c-3.471-1.629-4.869-7.322-3.154-11.832c1.715-4.508,7.955-8.719,7.955-8.719"/>
	
		<path fill="#F7C434" stroke="#231F20" stroke-width="1.5" stroke-linecap="round" stroke-linejoin="round" stroke-miterlimit="10" d="
		M264.007,210.427c0,0-2.914,0.939-2.738,3.59c0.178,2.648,2.916,7.113,5.52,7.094c1.572-0.014,6.201-0.693,5.494-3.871
		c-0.703-3.18-3.52-6.881-4.049-9.885c-0.529-3.002-2.291-12.711,2.48-12.711c4.77,0,57.932-1.059,57.932-1.059
		s6.359,2.295,5.301,7.771c-1.061,5.475-4.238,8.654-4.943,10.598c-0.707,1.941-1.354,6.705,1.766,7.418
		c5.479,1.252,9.15-5.195,6.359-7.771c-2.297-2.119-3.002-1.941-1.412-5.475c1.588-3.533,3.885-3.709,5.473-7.596
		c1.59-3.885,0.18-8.414-1.232-9.473c-1.414-1.061-1.77-1.652-1.77-1.652H262.95c0,0-3.002,5.121-4.061,7.416
		c-1.063,2.297,0.717,7.412,1.588,8.654C261.721,205.261,264.007,210.427,264.007,210.427z"/>
	<path fill="#D1313D" stroke="#231F20" stroke-miterlimit="10" d="M273.315,167.722c0,0-5.084-79.119-5.41-87.216
		c-0.311-7.742-2.125-30.662-1.77-33.74c0.246-2.17-0.801-9.039,15.621-9.569c19.068-0.615,29.074-0.611,38.938,1.326
		c9.449,1.854,15.189,2.295,15.633,10.332c0.354,6.397-3.711,63.314-4.236,64.904c-0.531,1.589-4.4,41.592-4.189,45.83
		c0.213,4.24,1.502,10.934-2.789,11.73c-4.289,0.793-45.479-0.219-47.717-0.021C273.807,171.615,273.315,167.722,273.315,167.722z"
		/>
	<path fill="#F9BF76" d="M274.77,93.093c1.908-3.104,4.902-4.898,6.674-5.748l-1.467-10.391c0,0,15.688-11.141,20.145-8.76
		c4.455,2.381,8.023,13.887,8.023,13.887s2.771-5.704,6.744-4.762c5.373,1.274,5.748,9.543,4.176,10.814
		c-2.881,2.326-6.953,1.486-8.539,0.691c-1.586-0.793,6.85,27.361,6.85,27.361s-6.52,4.065-13.16,5.395
		c-12.074,2.416-21.734-1.328-21.734-1.328l1.863-12.383l-0.166-1.172c-0.504,0.775-1.045,1.645-1.633,2.644
		c-1.977,3.353-9.246,4.209-10.727-0.735C270.344,103.66,272.663,96.527,274.77,93.093z"/>
	<path fill="none" stroke="#231F20" stroke-width="1.5" stroke-linecap="round" stroke-linejoin="round" stroke-miterlimit="10" d="
		M300.122,68.197c4.453,2.379,8.023,13.885,8.023,13.885s2.771-5.703,6.744-4.76c5.373,1.273,5.748,9.543,4.174,10.813
		c-2.881,2.326-6.951,1.485-8.537,0.692c-1.588-0.795,6.852,26.301,6.852,26.301s-6.521,5.125-13.162,6.453
		c-12.074,2.416-21.734-1.328-21.734-1.328l1.863-12.383l-0.166-1.172c-0.506,0.775-1.045,1.645-1.633,2.644
		c-1.977,3.353-9.246,4.209-10.729-0.735c-1.477-4.947,0.846-12.082,2.953-15.513c1.908-3.104,4.902-4.899,6.674-5.748"/>
	<ellipse fill="#231F20" cx="291.885" cy="81.438" rx="1.746" ry="3.444"/>
	<ellipse fill="#231F20" cx="281.288" cy="82.499" rx="1.744" ry="3.444"/>
	<path fill="none" stroke="#ED1C24" stroke-miterlimit="10" d="M277.764,167.701"/>
	<path fill="none" stroke="#231F20" stroke-width="1.5" stroke-linecap="round" stroke-linejoin="round" stroke-miterlimit="10" d="
		M304.55,100.768c0,0-7.26,8.826-17.359,5.524"/>
	<line fill="none" x1="299.108" y1="170.845" x2="301.108" y2="170.845"/>
	<polygon fill="#414042" stroke="#231F20" stroke-width="1.5" stroke-miterlimit="10" points="274.827,161.917 277.073,170.24 
		276.944,175.865 305.178,173.978 325.938,175.865 324.405,166.228 325.145,160.808 	"/>
	<path fill="#F7C434" stroke="#231F20" stroke-linecap="round" stroke-linejoin="round" stroke-miterlimit="10" d="M309.682,55.756
		l-3.307,10.405c-5.211-2.346-9.305-3.668-15.346-3.354c-3.492,0.184-10.537,4.115-12.465,5.396
		c-1.383,0.921-3.852-11.037-3.852-11.037l11.15,2.262l6.395-9.415l5.346,9.241L309.682,55.756z"/>
	<path fill="none" stroke="#231F20" stroke-width="2" stroke-linecap="round" stroke-linejoin="round" stroke-miterlimit="10" d="
		M190.499,171.888"/>
	
		<polyline fill="none" stroke="#231F20" stroke-width="2" stroke-linecap="round" stroke-linejoin="round" stroke-miterlimit="10" points="
		199.657,76.429 191.536,102.869 181.521,99.337 197.866,67.193 	"/>
	
		<polyline fill="none" stroke="#231F20" stroke-width="2" stroke-linecap="round" stroke-linejoin="round" stroke-miterlimit="10" points="
		200.94,102.869 206.016,101.982 206.016,74.609 	"/>
	<path fill="#FFFFFF" d="M192.038,150.193c1.662,1.375-0.195,2.986-3.217,2.807c-3.021-0.178-7.72-3.453-7.72-3.453
		c0.127-2.15,0.535-3.139,3.557-2.961S191.559,149.792,192.038,150.193z"/>
	
		<ellipse transform="matrix(-0.7778 0.6285 -0.6285 -0.7778 423.2204 167.4397)" fill="#FFFFFF" cx="182.015" cy="158.525" rx="3.903" ry="5.477"/>
	<path fill="#231F20" d="M202.377,139.496c0,0,2.136,34.836,2.099,46.625c-0.021,6.756-0.905,32.717-0.905,32.717h-7.021
		c0,0,0.794-43.082,0-46.84c-0.751-3.551-1.53-18.219-2.817-20.818c-1.785-3.6,0.06-2.008,0.302,0.502
		c0.104,1.057,0.933,14.174,0.6,19.207s-2.118,25.301-3.179,32.982c-0.11,0.811-1.13,16.291-1.13,16.291s-6.192,1.045-7.151,0.662
		c-0.958-0.383,2.118-25.166,2.648-31.393c0.529-6.227-2.518-46.893-2.518-46.893l0.266-4.77L202.377,139.496z"/>
	<path fill="#231F20" d="M294.122,207.277c-4.223-3.443-3.693-5.736-3.693-5.736l-2.488-0.021c-0.01-0.021-0.031-0.063-0.031-0.063
		l-3.293,0.033l-3.707-0.033c0,0-0.02,0.041-0.033,0.07l-1.426,0.014c0,0-0.533,2.293-4.756,5.736
		c-9.092,7.418-3.885,10.207-1.557,11.043c3.143,1.127,17.713,2.553,22.543,0C297.864,217.162,303.216,214.695,294.122,207.277z"/>
	<path fill="#231F20" d="M326.971,207.277c-4.221-3.443-3.697-5.736-3.697-5.736l-2.484-0.021c-0.014-0.021-0.031-0.063-0.031-0.063
		l-3.293,0.033l-3.705-0.033c0,0-0.023,0.041-0.037,0.07l-1.424,0.014c0,0-0.535,2.293-4.758,5.736
		c-9.094,7.418-3.887,10.207-1.557,11.043c3.146,1.127,17.713,2.553,22.541,0C330.718,217.162,336.063,214.695,326.971,207.277z"/>
	
		<path fill="#404041" stroke="#231F20" stroke-width="2" stroke-linecap="round" stroke-linejoin="round" stroke-miterlimit="10" d="
		M197.099,215.417c0,0-6.209,10.154-3.775,13.617c1.93,2.748,5.955,3.287,11.911,3.287c5.958,0,7.213-0.012,10.854,0.02
		c3.092,0.027,9.563-4.816-1.945-11.193c-5.515-3.057-10.543-5.73-10.543-5.73H197.099L197.099,215.417z"/>
	
		<path fill="#DD9F5B" stroke="#231F20" stroke-width="1.5" stroke-linecap="round" stroke-linejoin="round" stroke-miterlimit="10" d="
		M188.944,101.955c-6.141,13.125-9.722,41.748-9.722,41.748s10.411,4.969,11.077,6.432c0.927,2.027-0.452,3.615-1.386,3.369
		c-0.931-0.246-3.716-1.938-5.075-2.701s-1.987,0-1.548,2.098c0.443,2.102,2.751,5.506,2.496,7.832
		c-0.273,2.533-2.229,3.266-3.885,2.285c-1.888-1.121-2.469-10.799-2.469-10.799s0.272,10.25-0.82,11.217
		c-1.872,1.646-4.575,0.332-4.782-1.84c-0.192-2.082,1.877-9.242,1.877-9.242s-3.338,8.875-5.617,9.182
		c-1.971,0.264-3.379-3.166-0.604-8.42c1.728-3.271,5.246-8.834,6.344-9.916c1.129-1.109,4.981-31.131,9.289-42.938L188.944,101.955
		z"/>
	
		<path fill="#DD9F5B" stroke="#231F20" stroke-width="1.5" stroke-linecap="round" stroke-linejoin="round" stroke-miterlimit="10" d="
		M198.91,91.658c7.46,12.422,29.206,31.375,29.206,31.375s9.939-5.863,11.521-5.601c2.199,0.365,2.746,2.396,2.021,3.031
		c-0.727,0.635-3.686,2-5.076,2.702c-1.395,0.703-1.109,1.65,0.877,2.455s6.102,0.791,7.889,2.303
		c1.949,1.643,1.465,3.674-0.27,4.498c-1.984,0.941-10.336-3.98-10.336-3.98s8.652,5.494,8.846,6.943
		c0.318,2.471-2.281,3.98-4.197,2.939c-1.836-1.002-6.619-6.719-6.619-6.719s5.498,7.725,4.48,9.787
		c-0.881,1.781-4.516,1.037-7.32-4.201c-1.75-3.258-4.4-9.283-4.686-10.798c-0.287-1.555-23.045-21.516-30.436-31.683L198.91,91.658
		z"/>
	
		<polyline fill="#615375" stroke="#231F20" stroke-width="1.5" stroke-linecap="round" stroke-linejoin="round" stroke-miterlimit="10" points="
		211.315,101.982 207.031,102.869 203.014,146.138 182.881,137.13 189.74,102.869 189.416,102.869 181.521,99.337 197.338,68.232 
		200.94,71.167 206.016,73.976 212.373,101.982 	"/>
	
		<line fill="none" stroke="#231F20" stroke-width="1.5" stroke-linecap="round" stroke-linejoin="round" stroke-miterlimit="10" x1="204.057" y1="85.105" x2="206.394" y2="102.797"/>
	
		<line fill="none" stroke="#231F20" stroke-width="1.5" stroke-linecap="round" stroke-linejoin="round" stroke-miterlimit="10" x1="197.962" y1="79.826" x2="189.485" y2="103.49"/>
	<path fill="#DD9F5B" d="M220.042,63.838c-1.055,2.228-2.443,4.555-6.1,7.298c-5.859,4.398-22.824,0.984-26.554-11.805
		c-2.418-8.291-0.754-20.727,6.086-28.799c9.69-11.442,24.173-2.435,27.4,4.685C221.44,36.458,228.354,46.234,220.042,63.838z"/>
	<path fill="none" stroke="#231F20" stroke-width="1.5" stroke-linecap="round" stroke-linejoin="round" stroke-miterlimit="10" d="
		M220.876,34.103c-1.391-7.883-17.708-16.125-27.4-4.683c-6.839,8.073-8.504,20.507-6.086,28.799
		c3.729,12.786,20.693,16.202,26.554,11.806c3.652-2.744,6.102-7.299,6.102-7.299"/>
	<path fill="#231F20" d="M221.079,43.434c0.031,1.753,0.709,3.151,1.508,3.132c0.797-0.021,1.414-1.455,1.383-3.207
		c-0.035-1.754-0.711-3.154-1.508-3.131C221.663,40.251,221.046,41.683,221.079,43.434z"/>
	<path fill="#231F20" d="M212.601,43.434c0.033,1.753,0.708,3.151,1.505,3.132c0.797-0.021,1.416-1.455,1.383-3.207
		c-0.033-1.754-0.711-3.154-1.508-3.131S212.567,41.683,212.601,43.434z"/>
	<path fill="none" stroke="#231F20" stroke-width="1.5" stroke-linecap="round" stroke-linejoin="round" stroke-miterlimit="10" d="
		M197.274,58.908c3.688,5.019,11.438,6.289,15.961,3.94"/>
	<path fill="#DD9F5B" d="M227.198,56.057c0.48,2.72-1.979,5.604-5.498,6.44c-3.516,0.838-6.752-0.689-7.229-3.411
		c-0.48-2.72,1.979-5.604,5.496-6.438C223.479,51.809,226.719,53.338,227.198,56.057z"/>
	<path fill="none" stroke="#231F20" stroke-width="1.5" stroke-linecap="round" stroke-linejoin="round" stroke-miterlimit="10" d="
		M218.587,50.48c0,0,9.037,0.869,8.977,5.74c-0.094,7.137-9.676,6.596-11.211,5.773"/>
	
		<path fill="#3C2415" stroke="#231F20" stroke-width="1.5" stroke-linecap="round" stroke-linejoin="round" stroke-miterlimit="10" d="
		M199.127,21.412c0.614-0.209,1.072-0.18,1.423,0.009c0.546-1.667,1.888-3.038,4.279-3.524
		c14.011-2.852,22.916,16.979,23.238,19.119c0.322,2.137-11.885-4.92-15.826-4.215c-3.941,0.708-5.926-1.711-7.723-2.589
		c-1.115-0.546-2.048-1.41-2.765-2.425c-0.333,1.404-2.363,3.002-5.07,3.843c-3.193,0.995-10.382,10.209-10.764,8.671
		C185.538,38.76,187.811,25.283,199.127,21.412z"/>
	<path fill="#DD9F5B" stroke="#231F20" stroke-width="1.5" stroke-miterlimit="10" d="M189.347,42.984
		c0.541,3.071-1.116,6.063-3.702,6.678c-2.586,0.617-5.122-1.377-5.664-4.448c-0.542-3.074,1.116-6.067,3.703-6.683
		C186.268,37.916,188.805,39.91,189.347,42.984z"/>
	<path fill="#D1D3D4" stroke="#231F20" stroke-width="1.3" stroke-miterlimit="10" d="M274.458,73.648
		c0.959,0.604,2.164,0.481,3.025-0.199c0.064,0.047,0.135,0.09,0.203,0.131c-0.475,1.189-0.082,2.563,1.008,3.246
		c1.209,0.761,2.814,0.379,3.625-0.84c1.135,0.437,2.461,0.015,3.182-1.06c1.154,0.444,2.521,0.001,3.229-1.122
		c0.176-0.281,0.287-0.582,0.354-0.887c0.977,0.199,2.016-0.182,2.664-1.024c0.188,0.271,0.43,0.509,0.727,0.694
		c1.229,0.773,2.873,0.369,3.672-0.902c0.238-0.377,0.361-0.789,0.404-1.199c0.283-0.104,0.547-0.221,0.797-0.353
		c0.127,0.124,0.27,0.237,0.426,0.335c0.754,0.475,1.662,0.501,2.438,0.161c0.039,0.755,0.471,1.397,1.082,1.678
		c-0.02,0.109-0.029,0.22-0.029,0.335c0,1.07,0.801,1.938,1.787,1.938c0.119,0,0.234-0.014,0.352-0.038
		c-0.008,0.073-0.02,0.146-0.02,0.22c0,0.967,0.65,1.76,1.508,1.907c-0.275,0.34-0.449,0.782-0.449,1.272
		c0,1.069,0.801,1.937,1.789,1.937c0.986,0,1.787-0.867,1.787-1.937c0-0.076-0.014-0.147-0.021-0.222
		c0.115,0.024,0.232,0.039,0.355,0.039c0.984,0,1.787-0.867,1.787-1.938c0-0.914-0.588-1.676-1.375-1.879
		c0.18-0.371,0.287-0.807,0.287-1.277c0-0.963-0.439-1.786-1.066-2.17c0.229-0.435,0.365-0.944,0.365-1.494
		c0-1.57-1.07-2.842-2.391-2.842c-0.313,0-0.604,0.074-0.881,0.203c-0.217-0.133-0.455-0.234-0.711-0.297
		c0.055-0.182,0.094-0.369,0.094-0.563c0-1.306-1.27-2.361-2.838-2.361c-0.42,0-0.813,0.08-1.174,0.216
		c0.012-0.072,0.025-0.143,0.025-0.217c0-1-0.895-1.811-1.992-1.811c-0.414,0-0.799,0.113-1.115,0.31
		c-0.459-0.828-1.35-1.397-2.387-1.397c-1.148,0-2.127,0.691-2.523,1.666c-0.469-0.373-1.063-0.605-1.715-0.605
		c-1.146,0-2.127,0.691-2.52,1.666c-0.471-0.374-1.064-0.605-1.719-0.605c-0.598,0-1.145,0.19-1.59,0.504
		c-0.447-0.313-0.992-0.504-1.59-0.504c-1.338,0-2.443,0.937-2.67,2.168c-0.166-0.031-0.334-0.049-0.51-0.049
		c-1.336,0-2.443,0.938-2.67,2.168c-0.166-0.029-0.334-0.049-0.51-0.049c-1.5,0-2.719,1.178-2.719,2.629
		c0,0.026,0.01,0.049,0.01,0.075c-0.219,0.183-0.418,0.392-0.576,0.646C272.88,71.219,273.225,72.876,274.458,73.648z"/>
	<path fill="#F9BF76" stroke="#231F20" stroke-width="1.5" stroke-miterlimit="10" d="M284.184,117.599
		c-5.738,9.43-23.258,23.338-23.258,23.338s-8.676-5.07-10.004-4.938c-1.844,0.186-2.213,1.758-1.57,2.291
		c0.645,0.533,3.209,1.744,4.418,2.361c1.211,0.615,1.018,1.348-0.627,1.889c-1.646,0.543-5.127,0.342-6.566,1.449
		c-1.57,1.203-1.066,2.824,0.439,3.551c1.721,0.832,8.559-2.656,8.559-2.656s-7.066,3.926-7.16,5.057
		c-0.156,1.93,2.111,3.234,3.686,2.506c1.506-0.703,5.291-4.98,5.291-4.98s-4.295,5.824-3.34,7.494c0.828,1.443,3.865,1.023,6-2.969
		c1.33-2.482,3.295-7.102,3.465-8.279c0.174-1.211,18.646-13.365,24.43-21.021L284.184,117.599z"/>
	<path fill="#F9BF76" stroke="#231F20" stroke-width="1.5" stroke-miterlimit="10" d="M325.202,126.238
		c-1.328,10.957,3.824,32.725,3.824,32.725s9.951,1.387,10.912,2.314c1.332,1.285,0.65,2.75-0.184,2.77
		c-0.834,0.021-3.602-0.615-4.934-0.879c-1.33-0.266-1.631,0.432-0.676,1.873c0.957,1.443,3.813,3.439,4.264,5.203
		c0.49,1.916-0.908,2.879-2.541,2.52c-1.867-0.412-5.08-7.385-5.08-7.385s3.123,7.457,2.498,8.404
		c-1.072,1.611-3.664,1.234-4.445-0.314c-0.75-1.482-1.074-7.186-1.074-7.186s-0.229,7.232-2.016,7.953
		c-1.543,0.621-3.67-1.59-2.875-6.045c0.49-2.771,1.807-7.617,2.4-8.646c0.613-1.059-6.377-22.039-6.18-31.633L325.202,126.238z"/>
	
		<path fill="#8EB2C5" stroke="#231F20" stroke-width="1.5" stroke-linecap="round" stroke-linejoin="round" stroke-miterlimit="10" d="
		M282.018,115.613c0,0-14.102,40.055-10.922,43.232c0.232,0.232,2.211,2.273,2.629,2.518c5.277,3.063,22.316,5.625,33.41,5.379
		c11.971-0.266,18.4-6.266,18.4-6.266l-8.311-44.461c0,0-12.357,6.895-16.391,6.379
		C295.803,121.748,282.018,115.613,282.018,115.613z"/>
	
		<polygon fill="#8EB2C5" stroke="#231F20" stroke-width="1.5" stroke-linecap="round" stroke-linejoin="round" stroke-miterlimit="10" points="
		280.958,117.488 270.177,127.764 275.645,141.994 280.815,129.74 	"/>
	
		<polygon fill="#8EB2C5" stroke="#231F20" stroke-width="1.5" stroke-linecap="round" stroke-linejoin="round" stroke-miterlimit="10" points="
		316.802,118.548 327.583,128.824 322.108,143.054 316.938,130.8 	"/>
	<path fill="#D1313D" stroke="#231F20" stroke-miterlimit="10" d="M324.405,162.591c0,7.365,1.652,13.334,8.92,13.334
		c7.27,0,14.746-7.117,14.746-14.48c0-7.365-4.563-10.773-11.834-10.773C328.971,150.669,324.405,155.228,324.405,162.591z"/>
	
		<ellipse transform="matrix(0.3483 -0.9374 0.9374 0.3483 64.5072 423.5149)" fill="#F7C434" stroke="#231F20" stroke-linecap="round" stroke-linejoin="round" stroke-miterlimit="10" cx="336.846" cy="165.364" rx="3.404" ry="3.096"/>
	<path fill="#D1313D" stroke="#231F20" stroke-miterlimit="10" d="M276.012,164.71c0,7.365-1.65,13.334-8.918,13.334
		c-7.266,0-14.746-7.117-14.746-14.482c0-7.363,4.566-10.771,11.832-10.771C271.448,152.789,276.012,157.347,276.012,164.71z"/>
	
		<ellipse transform="matrix(0.3485 0.9373 -0.9373 0.3485 328.7347 -138.01)" fill="#F7C434" stroke="#231F20" stroke-linecap="round" stroke-linejoin="round" stroke-miterlimit="10" cx="263.642" cy="167.464" rx="3.405" ry="3.095"/>
	<g>
		<path fill="#F7C434" stroke="#231F20" stroke-width="1.5" stroke-miterlimit="10" d="M233.067,121.734
			c-1.275-3.125-7.275-12.8-3.916-13.175c3.361-0.372,5.418,2.12,5.541,2.492c0.125,0.375,4.096-6.621,6.957-6.28
			c2.689,0.32,2.271,6.078,1.898,6.95c-0.375,0.872,4.797-2.203,6.578-0.321c1.01,1.065-0.219,3.928-1.561,5.678
			c-1.488,1.945-4.162,4.568-5.479,6.66c-0.395,0.619-1.059,2.728-1.059,2.728s11.205,10.333,13.072,14.319
			c1.869,3.984,5.48,10.209,4.109,15.439c-1.369,5.229-2.842,9.4-7.697,11.27c-4.854,1.869-14.779,3.895-23.541,3.051
			c-5.814-0.563-13.162-2.521-16.948-6.102c-2.27-2.145-5.604-10.086-0.871-19.551c4.729-9.463,13.303-13.857,14.194-14.318
			c4.729-2.438,9.773-4.275,9.773-4.275S233.512,122.82,233.067,121.734z"/>
		<path fill="#231F20" d="M232.266,123.943c-0.654,0.09-1.658,1.631-0.809,2.666c0.85,1.037,4.18,1.527,5.758,1.535
			s5.395,0.564,6.125-1.15c0.727-1.713,0.188-2.821-1.602-2.627C238.409,124.73,234.634,123.619,232.266,123.943z"/>
		<g>
			<path fill="#FFFFFF" d="M228.276,164.113l0.465-3.383c-1.938-0.299-3.861-1.178-4.922-2.174l0.885-3.346
				c1.098,0.969,2.979,3.055,4.854,3.313c2.375,0.326,4.17-0.826,4.432-2.734c0.256-1.842-0.895-3.158-3.234-4.502
				c-3.232-1.807-5.129-3.635-4.73-6.547c0.381-2.777,2.646-4.617,5.795-4.695l0.461-3.383l2.076,0.285l-0.445,3.246
				c2,0.344,3.303,1.064,4.191,1.77l-1.139,2.096c-0.65-0.498-1.92-1.424-4.064-1.717c-2.576-0.354-3.758,1.053-3.941,2.395
				c-0.236,1.738,0.885,2.777,3.631,4.383c3.256,1.879,4.758,3.857,4.352,6.836c-0.365,2.646-2.545,4.871-6.068,4.967l-0.479,3.482
				L228.276,164.113z"/>
		</g>
	</g>
	
		<path fill="#414042" stroke="#231F20" stroke-width="1.5" stroke-linecap="round" stroke-linejoin="round" stroke-miterlimit="10" d="
		M274.827,206.48c0,0,1.141-30.762,2.564-34.121c2.307-5.424,7.844-5.4,12.814-4.682c4.043,0.586,9.793,2.912,8.768,7.012
		c-3.568,14.271-3.275,31.791-3.275,31.791H274.827z"/>
	
		<path fill="#414042" stroke="#231F20" stroke-width="1.5" stroke-linecap="round" stroke-linejoin="round" stroke-miterlimit="10" d="
		M326.645,206.48c0,0-1.139-30.762-2.564-34.121c-2.309-5.424-7.846-5.4-12.813-4.682c-4.043,0.586-9.793,2.912-8.77,7.012
		c3.566,14.271,3.273,31.791,3.273,31.791H326.645z"/>
	
		<path fill="#404041" stroke="#231F20" stroke-width="2" stroke-linecap="round" stroke-linejoin="round" stroke-miterlimit="10" d="
		M184.088,218.052c0,0-6.209,10.154-3.776,13.615c1.931,2.75,5.956,3.287,11.912,3.287c5.957,0,7.213-0.01,10.853,0.023
		c3.093,0.025,9.563-4.818-1.944-11.195c-5.515-3.055-10.543-5.73-10.543-5.73H184.088L184.088,218.052z"/>
	<path fill="none" stroke="#231F20" stroke-width="1.4" stroke-linecap="round" stroke-linejoin="round" stroke-miterlimit="10" d="
		M213.009,35.98c-2.266,0.112-5.368,1.963-5.65,4.493"/>
	<path fill="none" stroke="#231F20" stroke-width="1.4" stroke-linecap="round" stroke-linejoin="round" stroke-miterlimit="10" d="
		M224.257,38.021c-1.303-1.021-3.369-1.709-5.334-1.662"/>
</g>
</svg>
