<?xml version="1.0" encoding="utf-8"?>
<!-- Generator: Adobe Illustrator 16.0.0, SVG Export Plug-In . SVG Version: 6.00 Build 0)  -->
<!DOCTYPE svg PUBLIC "-//W3C//DTD SVG 1.1//EN" "http://www.w3.org/Graphics/SVG/1.1/DTD/svg11.dtd">
<svg version="1.1" id="Layer_1" xmlns="http://www.w3.org/2000/svg" xmlns:xlink="http://www.w3.org/1999/xlink" x="0px" y="0px"
	 width="340.158px" height="198.425px" viewBox="0 0 340.158 198.425" enable-background="new 0 0 340.158 198.425"
	 xml:space="preserve">
<g>
	<g>
		<path fill="none" stroke="#231F20" stroke-width="1.5" stroke-miterlimit="10" d="M38.285,106.443
			c-1.602,8.656-0.021,29.18,0.465,31.123c0.771,3.076,6.94,8.957,10.523,9.18c3.582,0.225,38.512,0,38.512,0
			s11.196-1.789,12.539-10.746c1.345-8.957,0-32.467,0-32.467s-2.238-9.629-11.644-11.42c-9.406-1.793-26.036-0.36-34.706,0
			C43.227,92.56,39.21,101.449,38.285,106.443z"/>
		<path fill="none" stroke="#231F20" stroke-width="1.5" stroke-miterlimit="10" d="M31.434,102.021
			c-1.778,9.604,0.003,32.365,0.514,34.527c1.313,5.545,7.701,9.938,11.676,10.188c3.978,0.246,42.729,0,42.729,0
			s12.422-1.986,13.912-11.924c1.489-9.938,0-36.021,0-36.021S97.78,88.109,87.346,86.122c-10.436-1.987-28.888-0.399-38.505,0
			C36.911,86.619,32.454,96.482,31.434,102.021z"/>
		
			<rect x="47.239" y="147.484" fill="none" stroke="#231F20" stroke-width="1.5" stroke-miterlimit="10" width="5.583" height="18.611"/>
		
			<rect x="80.74" y="147.484" fill="none" stroke="#231F20" stroke-width="1.5" stroke-miterlimit="10" width="5.584" height="18.611"/>
		<line fill="none" stroke="#231F20" stroke-width="1.5" stroke-miterlimit="10" x1="36.916" y1="91.228" x2="42.562" y2="97.443"/>
	</g>
	<g>
		<path fill="none" stroke="#231F20" stroke-width="1.5" stroke-miterlimit="10" d="M269.3,106.443
			c1.602,8.656,0.021,29.18-0.465,31.123c-0.771,3.076-6.939,8.957-10.523,9.18c-3.582,0.225-38.512,0-38.512,0
			S208.604,144.957,207.26,136c-1.346-8.957,0-32.467,0-32.467s2.238-9.629,11.645-11.42c9.406-1.793,26.035-0.36,34.705,0
			C264.358,92.56,268.374,101.449,269.3,106.443z"/>
		<path fill="none" stroke="#231F20" stroke-width="1.5" stroke-miterlimit="10" d="M276.151,102.021
			c1.777,9.604-0.002,32.365-0.514,34.527c-1.313,5.545-7.701,9.938-11.676,10.188c-3.977,0.246-42.729,0-42.729,0
			s-12.422-1.986-13.91-11.924c-1.492-9.938,0-36.021,0-36.021s2.482-10.682,12.918-12.669c10.434-1.987,28.887-0.399,38.504,0
			C270.673,86.619,275.13,96.482,276.151,102.021z"/>
		
			<rect x="254.762" y="147.484" fill="none" stroke="#231F20" stroke-width="1.5" stroke-miterlimit="10" width="5.584" height="18.611"/>
		
			<rect x="221.26" y="147.484" fill="none" stroke="#231F20" stroke-width="1.5" stroke-miterlimit="10" width="5.584" height="18.611"/>
		
			<line fill="none" stroke="#231F20" stroke-width="1.5" stroke-miterlimit="10" x1="270.669" y1="91.228" x2="265.022" y2="97.443"/>
	</g>
	<g>
		
			<path fill="#F9BF76" stroke="#231F20" stroke-width="1.5" stroke-linecap="round" stroke-linejoin="round" stroke-miterlimit="10" d="
			M194.171,119.603c0,0,1.516-11.377,0.023-13.631c-1.971-2.975-4.051-2.145-4.617-0.426c-0.564,1.717-0.115,4.246-0.205,6.854
			c-0.086,2.609-3.076,4.197-4.441,2.646c-1.361-1.553-5.332-5.523-6.166-6.455c-0.836-0.928-4.604-3.533-5.379-0.854
			c-0.777,2.682,2.225,8.889,2.225,8.889c0.605,0.145-2.059,1.918,1.396,4.809c3.453,2.896,9.502,4.568,13.977,1.467
			c2.014-1.395,7.414,11.232,14.566,11.176c8.504-0.07,12.123-1.635,13.729-5.834c1.605-4.195,3.26-11.906,3.26-11.906l-5.811,0.453
			c0,0,0.98,7.52-2.896,11.113c-3.877,3.6-10.695,2.465-12.377,0.496C199.772,126.427,194.171,119.603,194.171,119.603z"/>
		
			<polygon fill="#615375" stroke="#231F20" stroke-width="1.5" stroke-linecap="round" stroke-linejoin="round" stroke-miterlimit="10" points="
			212.628,115.425 223.309,120.455 227.647,106.791 223.706,90.488 		"/>
		<path fill="#F7B24C" d="M249.194,38.189c5.055,19.438,22.873,29.549,24.328,35.732c1.551,6.585-15.113,21.538-27.102,14.708
			c-3.887-2.214-5.18-26.743-5.18-26.743"/>
		<path fill="#F9BF76" d="M239.489,76.646c-7.998,12.535-40.945,23.693-52.844-1.476c-1.119-2.364-6.779-3.778-7.395-6.073
			c-1.195-4.471,4.373-4.957,4.373-9.252c0-8.6,3.023-20.214,5.859-25.582c5.592-10.6,24.563-10.412,32.479-7.754
			c5.689,1.912,15.256,18.561,15.256,18.561s7.789-7.682,14.354-1.188c6.518,6.449,2.148,13.997-4.104,15.588
			c-3.885,0.986-6.684-1.787-6.684-1.787S244.303,69.097,239.489,76.646z"/>
		<path fill="#F7B24C" d="M247.372,39.611c0,0-4.004-13.469-12.461-21.41c-4.082-3.832-15.881-6.814-21.461-6.369
			c-3.25,0.258-9.766,2.034-12.438,3.898c-4.688,3.272-17.43,11.76-15.252,17.047c2.406,5.844,24.41,4.515,24.41,4.515
			s6.576-9.856,10.473-9.621c6.012,0.363,16.383,10.396,16.383,16.404"/>
		
			<path fill="none" stroke="#231F20" stroke-width="1.5" stroke-linecap="round" stroke-linejoin="round" stroke-miterlimit="10" d="
			M182.805,60.412c-0.641-10.588,3.088-19.844,6.682-26.148"/>
		
			<path fill="none" stroke="#231F20" stroke-width="1.5" stroke-linecap="round" stroke-linejoin="round" stroke-miterlimit="10" d="
			M239.489,76.646c-6.48,13.383-41.451,22.971-53.348-2.201"/>
		<path fill="#231F20" d="M188.032,44.939c-1.291,1.154-1.979,3.75-1.537,5.791c0.445,2.043,1.854,2.765,3.143,1.602
			c1.295-1.15,1.98-3.746,1.535-5.786C190.729,44.5,189.323,43.782,188.032,44.939z"/>
		<path fill="#231F20" d="M200.21,46.939c-1.291,1.154-1.977,3.75-1.535,5.791c0.443,2.043,1.852,2.765,3.143,1.602
			c1.293-1.15,1.979-3.746,1.535-5.786C202.909,46.5,201.503,45.782,200.21,46.939z"/>
		<path fill="none" stroke="#231F20" stroke-width="2" stroke-linecap="round" stroke-linejoin="round" stroke-miterlimit="10" d="
			M204.177,15.73c-13.096,3.994-20.414,20.627-20.551,21.562"/>
		<path fill="none" stroke="#231F20" stroke-width="2" stroke-linecap="round" stroke-linejoin="round" stroke-miterlimit="10" d="
			M204.177,15.73c-13.096,3.994-20.414,20.627-20.551,21.562"/>
		<path fill="none" stroke="#231F20" stroke-width="2" stroke-linecap="round" stroke-linejoin="round" stroke-miterlimit="10" d="
			M213.452,15.73c-13.098,3.994-20.418,20.627-20.553,21.562"/>
		<path fill="none" stroke="#231F20" stroke-width="2" stroke-linecap="round" stroke-linejoin="round" stroke-miterlimit="10" d="
			M216.928,20.083c-10.178,5.872-15.799,18.707-15.916,19.526"/>
		<path fill="none" stroke="#231F20" stroke-width="2" stroke-linecap="round" stroke-linejoin="round" stroke-miterlimit="10" d="
			M221.964,23.622c-8.963,6.265-13.887,17.54-13.994,18.306"/>
		
			<path fill="none" stroke="#231F20" stroke-width="1.5" stroke-linecap="round" stroke-linejoin="round" stroke-miterlimit="10" d="
			M224.727,27.937c11.609,8.65,12.49,17.133,12.49,17.133s3.832-4.577,8.166-4.104c4.332,0.473,7.355,2.577,8.689,8.303
			c1.338,5.758-5.314,10.756-10.008,10.149c-2.994-0.389-3.283-1.735-3.283-1.735s3.211,4.729,0.93,15.045"/>
		
			<path fill="none" stroke="#231F20" stroke-width="1.5" stroke-linecap="round" stroke-linejoin="round" stroke-miterlimit="10" d="
			M249.073,50.404c0,0-4.818-6.768-9.299-1.272"/>
		
			<path fill="none" stroke="#231F20" stroke-width="1.5" stroke-linecap="round" stroke-linejoin="round" stroke-miterlimit="10" d="
			M244.303,52.097c1.648-2.334,1.188-4.701,1.188-4.701"/>
		<path fill="none" stroke="#231F20" stroke-width="2" stroke-linecap="round" stroke-linejoin="round" stroke-miterlimit="10" d="
			M216.928,14.994c17.914,5.089,25.066,22.297,25.066,22.297"/>
		<path fill="none" stroke="#231F20" stroke-width="2" stroke-linecap="round" stroke-linejoin="round" stroke-miterlimit="10" d="
			M208.969,12.368c19.201-3.146,33.912,7.715,38.402,25.819"/>
		<path fill="none" stroke="#231F20" stroke-width="2" stroke-linecap="round" stroke-linejoin="round" stroke-miterlimit="10" d="
			M254.249,53.634c6.771,15.221,18.205,17.314,17.369,26.338"/>
		<path fill="none" stroke="#231F20" stroke-width="2" stroke-linecap="round" stroke-linejoin="round" stroke-miterlimit="10" d="
			M250.288,62.241c1.684,14.892,2.311,21.417,8.717,28.032"/>
		
			<path fill="none" stroke="#231F20" stroke-width="1.5" stroke-linecap="round" stroke-linejoin="round" stroke-miterlimit="10" d="
			M191.868,55.515c-23.362,12.533-10.166,20.057,2.408,16.197"/>
		
			<path fill="#F9BF76" stroke="#231F20" stroke-width="1.5" stroke-linecap="round" stroke-linejoin="round" stroke-miterlimit="10" d="
			M248.981,120.66c0,0-1.646,32.686-0.402,34.162c1.215,1.436,3.621,7.117,5.352,11.283c2.781,6.695,0.688,10.703-1.678,10.16
			c-2.732-0.629-5.797-11.785-5.797-11.785s1.715,8.934,1.244,11.439c-0.494,2.613-3.928,3.908-6.018,1.695
			c-1.225-1.295,0.26-13.719,0.26-13.719s-2.271,11.943-4.209,12.846c-2.813,1.303-3.979-0.07-4.029-3.184
			c-0.047-2.854,2.705-6.76,3.479-9.262c0.771-2.5,0.094-3.496-1.646-2.725c-1.736,0.771-5.313,2.52-6.471,2.711
			c-1.16,0.195-2.654-1.887-1.305-4.248c0.973-1.701,14.18-6.568,14.18-6.568l1.521-32.238L248.981,120.66z"/>
		
			<path fill="#615375" stroke="#231F20" stroke-width="1.5" stroke-linecap="round" stroke-linejoin="round" stroke-miterlimit="10" d="
			M240.786,151.734l-20.145,1.717c0,0,4.691-43.006,1.021-62.432l13.869-8.543L250.7,120.31l-8.967,0.891l-8.885-27.82l7.729,26.664
			L240.786,151.734z"/>
		<path fill="none" stroke="#231F20" stroke-width="2" stroke-linecap="round" stroke-linejoin="round" stroke-miterlimit="10" d="
			M243.887,64.945c-1.412,14.92-1.426,19.98,3.482,27.771"/>
		
			<path fill="none" stroke="#231F20" stroke-width="1.5" stroke-linecap="round" stroke-linejoin="round" stroke-miterlimit="10" d="
			M197.895,78.3c12.93,4.008,21.607-1.873,24.357-4.871"/>
		
			<path fill="none" stroke="#231F20" stroke-width="1.5" stroke-linecap="round" stroke-linejoin="round" stroke-miterlimit="10" d="
			M220.62,70.446c0,0,3.016,4.563,6.014,5.325"/>
	</g>
	<g>
		
			<rect x="112.237" y="114.675" transform="matrix(-0.9221 0.3869 -0.3869 -0.9221 280.7903 197.1456)" fill="#C66500" width="16.634" height="24.314"/>
		<path fill="#53180F" d="M123.291,111.818l-15.933,6.686l9.9,23.602l15.933-6.684L123.291,111.818z M111.761,125.677l-2.728-6.49
			l6.491-2.723l2.724,6.49L111.761,125.677z M119.43,122.46l-2.727-6.49l5.901-2.477l2.723,6.488L119.43,122.46z M114.729,132.757
			l-2.478-5.9l6.489-2.723l2.477,5.898L114.729,132.757z M122.4,129.539l-2.477-5.898l5.899-2.477l2.477,5.9L122.4,129.539z
			 M117.947,140.429l-2.723-6.49l6.489-2.725l2.724,6.49L117.947,140.429z M125.616,137.212l-2.723-6.492l5.898-2.475l2.725,6.488
			L125.616,137.212z"/>
	</g>
	<g>
		
			<rect x="169.236" y="99.953" transform="matrix(-0.8671 -0.4981 0.4981 -0.8671 275.6686 297.765)" fill="#C66500" width="16.637" height="24.313"/>
		<path fill="#53180F" d="M191.141,105.167l-14.979-8.605l-12.75,22.193l14.98,8.604L191.141,105.167z M173.128,104.412l3.506-6.104
			l6.104,3.506l-3.508,6.105L173.128,104.412z M180.341,108.556l3.506-6.105l5.549,3.189l-3.506,6.102L180.341,108.556z
			 M169.303,111.07l3.188-5.549l6.104,3.506l-3.188,5.549L169.303,111.07z M176.516,115.214l3.188-5.551l5.549,3.189l-3.188,5.547
			L176.516,115.214z M165.159,118.283l3.506-6.104l6.105,3.506l-3.508,6.104L165.159,118.283z M172.37,122.427l3.508-6.105
			l5.549,3.189l-3.506,6.102L172.37,122.427z"/>
	</g>
	<path fill="#684D3A" d="M120.022,58.48c-4.653-8.836-25.546-20.017-39.523-5.812c-3.862,3.927-6.566,8.685-8.234,13.638
		c-1.451-0.928-3.231-1.318-5.031-0.949c-3.729,0.764-6.122,4.478-5.34,8.293c0.78,3.813,4.438,6.287,8.17,5.522
		c0.058-0.012,0.11-0.03,0.168-0.043c0.05,3.331,0.546,6.5,1.49,9.288c5.379,15.871,29.853,20.111,38.304,14.652
		c5.271-3.403,7.276-6.293,8.798-9.059C130.81,72.158,120.835,60.023,120.022,58.48z"/>
	<path fill="none" stroke="#231F20" stroke-width="1.5" stroke-linecap="round" stroke-linejoin="round" stroke-miterlimit="10" d="
		M108.076,95.632c-12.261,3.801-20.49-1.775-23.098-4.619"/>
	
		<ellipse transform="matrix(0.2006 0.9797 -0.9797 0.2006 180.7645 -48.2721)" fill="#684D3A" cx="119.96" cy="86.625" rx="6.242" ry="9.373"/>
	<path fill="none" stroke="#231F20" stroke-width="1.5" stroke-linecap="round" stroke-linejoin="round" stroke-miterlimit="10" d="
		M116.717,77.808c0,0,13.038,1.08,12.946,7.129c-0.135,8.856-13.955,8.187-16.17,7.166"/>
	
		<line fill="none" stroke="#231F20" stroke-width="2" stroke-linecap="round" stroke-linejoin="round" stroke-miterlimit="10" x1="78.287" y1="40.923" x2="82.95" y2="48.328"/>
	
		<line fill="none" stroke="#231F20" stroke-width="2" stroke-linecap="round" stroke-linejoin="round" stroke-miterlimit="10" x1="89.108" y1="35.958" x2="91.278" y2="44.435"/>
	
		<line fill="none" stroke="#231F20" stroke-width="2" stroke-linecap="round" stroke-linejoin="round" stroke-miterlimit="10" x1="83.259" y1="38.273" x2="87.127" y2="46.121"/>
	
		<line fill="none" stroke="#231F20" stroke-width="2" stroke-linecap="round" stroke-linejoin="round" stroke-miterlimit="10" x1="112.743" y1="38.273" x2="108.872" y2="46.12"/>
	
		<line fill="none" stroke="#231F20" stroke-width="2" stroke-linecap="round" stroke-linejoin="round" stroke-miterlimit="10" x1="117.743" y1="41.273" x2="113.872" y2="49.12"/>
	
		<line fill="none" stroke="#231F20" stroke-width="2" stroke-linecap="round" stroke-linejoin="round" stroke-miterlimit="10" x1="106.115" y1="36.021" x2="103.501" y2="44.372"/>
	
		<line fill="none" stroke="#231F20" stroke-width="2" stroke-linecap="round" stroke-linejoin="round" stroke-miterlimit="10" x1="101.015" y1="35.177" x2="99.456" y2="43.787"/>
	
		<line fill="none" stroke="#231F20" stroke-width="2" stroke-linecap="round" stroke-linejoin="round" stroke-miterlimit="10" x1="95.353" y1="35.109" x2="95.117" y2="43.855"/>
	
		<line fill="none" stroke="#231F20" stroke-width="2" stroke-linecap="round" stroke-linejoin="round" stroke-miterlimit="10" x1="95.353" y1="35.109" x2="95.117" y2="43.855"/>
	<path fill="#684D3A" stroke="#231F20" stroke-width="1.5" stroke-miterlimit="10" d="M81.687,114.337
		c0,0,8.444,15.598,11.765,19.521c3.583,4.236,5.321,8.395,6.909,8.375c1.587-0.021,5.808-1.096,10.085,0.645
		c5.604,2.271,9.878,4.168,9.931,11.008c0.021,2.959-2.283,4.977-4.139,3.393c-1.851-1.58-4.43-5.473-6.313-8.088
		c-1.571-2.176-7.492-3.041-8.639-0.43c-1.146,2.607,3.144,8.346,0.79,10.758c-2.349,2.408-4.565,0.592-5.181-1.277
		c-0.613-1.865-1.092-5.809-0.557-8.453c0.533-2.65,0.911-2.984,0.125-3.896c-5.337-6.195-21.146-27.604-21.887-29.355
		L81.687,114.337z"/>
	<path fill="#684D3A" stroke="#231F20" stroke-width="1.5" stroke-miterlimit="10" d="M99.939,131.042c0,0,0.73-11.453,2.633-13.371
		c2.513-2.535,4.392-1.314,4.612,0.48c0.221,1.793-0.714,4.188-1.137,6.762c-0.425,2.576,2.199,4.717,3.843,3.463
		c1.639-1.256,6.308-4.379,7.307-5.129c1-0.746,5.203-2.568,5.442,0.211c0.237,2.779-3.915,8.281-3.915,8.281
		c-0.623,0.023,1.645,2.283-2.31,4.445c-3.95,2.166-10.209,2.627-13.992-1.285c-1.7-1.762-9.462,9.57-16.469,8.119
		c-8.323-1.729-11.567-3.967-12.326-8.396c-0.755-4.432-0.876-12.316-0.876-12.316l5.61,1.578c0,0-2.43,7.186,0.673,11.467
		c3.104,4.285,10.013,4.502,12.043,2.898C93.113,136.644,99.939,131.042,99.939,131.042z"/>
	
		<path fill="#8EB2C5" stroke="#231F20" stroke-width="1.5" stroke-linecap="round" stroke-linejoin="round" stroke-miterlimit="10" d="
		M82.152,101.197c-1.045,8.609,9.303,22.186,9.303,22.186s-7.704,6.738-10.141,6.064c-0.635-0.176-3.668-5.766-3.668-5.766
		s-6.233,2.223-8.333,4.236c-4.722,4.521-7.055,25.189-7.055,25.189s-17.521-1.951-17.271-4.939
		c0.71-8.404,25.676-48.223,28.596-50.643C76.501,95.107,82.447,98.759,82.152,101.197z"/>
	
		<polygon fill="#231F20" stroke="#231F20" stroke-width="2" stroke-linecap="round" stroke-linejoin="round" stroke-miterlimit="10" points="
		44.988,148.169 42.562,164.248 60.804,166.097 62.261,153.111 	"/>
	
		<polygon fill="#231F20" stroke="#231F20" stroke-width="2" stroke-linecap="round" stroke-linejoin="round" stroke-miterlimit="10" points="
		239.835,151.169 242.26,165.248 224.018,167.097 222.561,154.111 	"/>
	<rect x="15.078" y="157.638" fill="#FFFFFF" width="293" height="40.787"/>
	
		<line fill="none" stroke="#231F20" stroke-width="1.5" stroke-linecap="round" stroke-linejoin="round" stroke-miterlimit="10" x1="15.078" y1="157.638" x2="325.079" y2="157.638"/>
	<path fill="none" stroke="#231F20" stroke-width="1.5" stroke-linecap="round" stroke-linejoin="round" stroke-miterlimit="10" d="
		M119.973,129.447c0,0-1.944,4.691-9.917,4.98"/>
	<path fill="none" stroke="#231F20" stroke-width="1.5" stroke-linecap="round" stroke-linejoin="round" stroke-miterlimit="10" d="
		M122.136,124.367c0,0-0.97,4.984-8.726,6.859"/>
	<path fill="none" stroke="#231F20" stroke-width="1.5" stroke-miterlimit="10" d="M160.816,182.38c0,0,122.486-1.168,127.265,0"/>
	
		<ellipse fill="none" stroke="#231F20" stroke-width="1.3" stroke-miterlimit="10" cx="224.477" cy="166.874" rx="28.848" ry="7.132"/>
	
		<ellipse fill="none" stroke="#231F20" stroke-width="1.3" stroke-miterlimit="10" cx="103.478" cy="166.874" rx="28.846" ry="7.132"/>
	<g>
		<ellipse opacity="0.7" fill="#FFFFFF" enable-background="new    " cx="158.731" cy="157.794" rx="9.058" ry="2.037"/>
		<path fill="none" stroke="#231F20" stroke-width="1.2" stroke-miterlimit="10" d="M148.243,138.298c0,0,0.771,21.777,3.661,27.352
			c2.042,3.936,11.366,4.23,13.444,0.295c2.59-4.898,4.295-28.389,4.295-28.389"/>
		<path fill="none" stroke="#231F20" stroke-width="1.2" stroke-miterlimit="10" d="M148.243,137.763
			c0,1.648,3.868,2.986,10.651,2.986c6.786,0,10.749-1.338,10.749-2.986s-3.963-2.986-10.749-2.986
			C152.112,134.777,148.243,136.115,148.243,137.763z"/>
		<path fill="none" stroke="#231F20" stroke-width="1.2" stroke-miterlimit="10" d="M149.876,150.398
			c0,1.414,3.315,2.563,9.131,2.563c5.816,0,9.214-1.146,9.214-2.563c0-1.412-3.396-2.561-9.214-2.561
			C153.193,147.839,149.876,148.986,149.876,150.398z"/>
	</g>
	<path fill="none" stroke="#231F20" stroke-width="1.3" stroke-miterlimit="10" d="M115.014,168.271"/>
	<path fill="none" stroke="#231F20" stroke-width="1.3" stroke-linecap="round" stroke-linejoin="round" stroke-miterlimit="10" d="
		M120.303,167.271c0,1.201-8.575,2.752-18.164,2.752c-9.591,0-17.183-1.646-16.563-2.752"/>
	<path fill="none" stroke="#231F20" stroke-width="1.3" stroke-linecap="round" stroke-linejoin="round" stroke-miterlimit="10" d="
		M242.303,167.271c0,1.201-8.574,2.752-18.164,2.752s-17.182-1.646-16.561-2.752"/>
	<path fill="none" stroke="#231F20" stroke-width="1.5" stroke-miterlimit="10" d="M42.562,183.38c0,0,96.744-1.168,100.52,0"/>
	<path fill="none" stroke="#231F20" stroke-width="1.5" stroke-linecap="round" stroke-linejoin="round" stroke-miterlimit="10" d="
		M70.06,78.173c-3.731,0.766-7.391-1.71-8.17-5.521c-0.782-3.816,1.607-7.53,5.34-8.295c1.396-0.286,2.787-0.117,4.019,0.408"/>
	<path fill="none" stroke="#231F20" stroke-width="1.5" stroke-linecap="round" stroke-linejoin="round" stroke-miterlimit="10" d="
		M70.235,78.982c0.117,3.021,0.62,5.887,1.482,8.438c5.38,15.873,29.854,20.111,38.305,14.652c5.271-3.403,8.798-9.059,8.798-9.059"
		/>
	<path fill="none" stroke="#231F20" stroke-width="1.5" stroke-linecap="round" stroke-linejoin="round" stroke-miterlimit="10" d="
		M120.022,57.48c-2.005-9.784-25.546-20.017-39.523-5.812c-3.862,3.925-6.583,8.681-8.252,13.634"/>
	<path fill="#231F20" d="M101.037,70.283c0.373,2.213,1.729,3.439,3.033,2.748c1.303-0.684,2.059-3.029,1.686-5.244
		c-0.37-2.205-1.728-3.432-3.029-2.741C101.426,65.732,100.667,68.077,101.037,70.283z"/>
	<path fill="#231F20" d="M116.037,70.283c0.373,2.213,1.729,3.439,3.033,2.748c1.303-0.684,2.059-3.029,1.686-5.244
		c-0.37-2.205-1.728-3.432-3.029-2.741C116.426,65.732,115.667,68.077,116.037,70.283z"/>
	<path fill="none" stroke="#231F20" stroke-width="2" stroke-linecap="round" stroke-linejoin="round" stroke-miterlimit="10" d="
		M90.519,51.923c0,0,12.146-7.835,23.354-1"/>
	<path fill="none" stroke="#231F20" stroke-width="2" stroke-linecap="round" stroke-linejoin="round" stroke-miterlimit="10" d="
		M79.361,52.888c0,0,12.094-14.08,31.513-4.965"/>
	<path fill="none" stroke="#231F20" stroke-width="1.5" stroke-linecap="round" stroke-linejoin="round" stroke-miterlimit="10" d="
		M96.725,63.474c0,0,2.977-4.703,6.854-5.106"/>
	<path fill="none" stroke="#231F20" stroke-width="1.5" stroke-linecap="round" stroke-linejoin="round" stroke-miterlimit="10" d="
		M116.659,58.355c0,0,3.188-0.258,4.773,2.367"/>
</g>
</svg>
