<?xml version="1.0" encoding="utf-8"?>
<!-- Generator: Adobe Illustrator 16.0.0, SVG Export Plug-In . SVG Version: 6.00 Build 0)  -->
<!DOCTYPE svg PUBLIC "-//W3C//DTD SVG 1.1//EN" "http://www.w3.org/Graphics/SVG/1.1/DTD/svg11.dtd">
<svg version="1.1" id="Layer_1" xmlns="http://www.w3.org/2000/svg" xmlns:xlink="http://www.w3.org/1999/xlink" x="0px" y="0px"
	 width="340.158px" height="141.732px" viewBox="0 0 340.158 141.732" enable-background="new 0 0 340.158 141.732"
	 xml:space="preserve">
<g>
	<rect x="15.079" y="84.733" fill="#FFFFFF" width="293" height="51.002"/>
	
		<line fill="none" stroke="#231F20" stroke-width="1.5" stroke-linecap="round" stroke-linejoin="round" stroke-miterlimit="10" x1="15.079" y1="84.733" x2="325.079" y2="84.733"/>
	<path fill="none" stroke="#231F20" stroke-width="1.5" stroke-miterlimit="10" d="M160.815,126.475c0,0,122.485-1.166,127.267,0"/>
	<path fill="none" stroke="#231F20" stroke-width="1.3" stroke-miterlimit="10" d="M115.012,95.37"/>
	<path fill="none" stroke="#231F20" stroke-width="1.5" stroke-miterlimit="10" d="M42.561,127.475c0,0,108.044-1.166,112.26,0"/>
	<path fill="#FFFFFF" stroke="#231F20" stroke-width="1.5" stroke-miterlimit="10" d="M100.079,18.736h-48v76.07
		c0,0.223,0.062,0.447,0.062,0.678c0,3.395,10.938,7.445,24.297,7.445c13.361,0,23.988-4.053,23.988-7.445
		C100.426,95.26,100.079,18.736,100.079,18.736z"/>
	<path fill="#F7B24C" d="M98.079,93.981V27.734h-43v66.234c0,0.189,0.133,0.381,0.133,0.578c0,2.887,9.58,6.336,21.239,6.336
		c11.655,0,21.431-3.449,21.431-6.336C97.882,94.352,98.079,94.167,98.079,93.981z"/>
	<ellipse fill="#F7B24C" stroke="#FFFFFF" stroke-miterlimit="10" cx="76.791" cy="28.492" rx="21.19" ry="6.415"/>
	<ellipse fill="#FFFFFF" stroke="#231F20" stroke-width="1.5" stroke-miterlimit="10" cx="76.079" cy="18.143" rx="24" ry="6.146"/>
	<path fill="#FFFFFF" stroke="#231F20" stroke-width="1.5" stroke-miterlimit="10" d="M166.079,18.736h-48v76.07
		c0,0.223,0.062,0.447,0.062,0.678c0,3.395,10.938,7.445,24.297,7.445c13.361,0,23.988-4.053,23.988-7.445
		C166.426,95.26,166.079,18.736,166.079,18.736z"/>
	
		<ellipse fill="#FFFFFF" stroke="#231F20" stroke-width="1.5" stroke-miterlimit="10" cx="142.079" cy="18.143" rx="24" ry="6.146"/>
	<path fill="#F7B24C" d="M164.079,93.981V74.733h-43v19.234c0,0.189,0.133,0.381,0.133,0.576c0,2.889,9.58,6.338,21.239,6.338
		c11.655,0,21.431-3.449,21.431-6.338C163.882,94.352,164.079,94.167,164.079,93.981z"/>
	<ellipse fill="#F7B24C" stroke="#FFFFFF" stroke-miterlimit="10" cx="142.791" cy="74.491" rx="21.19" ry="6.414"/>
	<path fill="#FFFFFF" stroke="#231F20" stroke-width="1.5" stroke-miterlimit="10" d="M226.079,18.736h-48v76.07
		c0,0.223,0.062,0.447,0.062,0.678c0,3.395,10.938,7.445,24.297,7.445c13.36,0,23.987-4.053,23.987-7.445
		C226.425,95.26,226.079,18.736,226.079,18.736z"/>
	
		<ellipse fill="#FFFFFF" stroke="#231F20" stroke-width="1.5" stroke-miterlimit="10" cx="202.079" cy="18.143" rx="24" ry="6.146"/>
	<path fill="#F7B24C" d="M224.079,93.981V74.733h-43v19.234c0,0.189,0.133,0.381,0.133,0.576c0,2.889,9.58,6.338,21.239,6.338
		c11.657,0,21.43-3.449,21.43-6.338C223.881,94.352,224.079,94.167,224.079,93.981z"/>
	<ellipse fill="#F7B24C" stroke="#FFFFFF" stroke-miterlimit="10" cx="202.791" cy="74.491" rx="21.192" ry="6.414"/>
	<path fill="#FFFFFF" stroke="#231F20" stroke-width="1.5" stroke-miterlimit="10" d="M290.079,18.736h-48v76.07
		c0,0.223,0.062,0.447,0.062,0.678c0,3.395,10.938,7.445,24.297,7.445c13.36,0,23.987-4.053,23.987-7.445
		C290.425,95.26,290.079,18.736,290.079,18.736z"/>
	
		<ellipse fill="#FFFFFF" stroke="#231F20" stroke-width="1.5" stroke-miterlimit="10" cx="266.079" cy="18.143" rx="24" ry="6.146"/>
	<path fill="#F7B24C" d="M288.079,93.981V74.733h-43v19.234c0,0.189,0.133,0.381,0.133,0.576c0,2.889,9.58,6.338,21.239,6.338
		c11.657,0,21.43-3.449,21.43-6.338C287.881,94.352,288.079,94.167,288.079,93.981z"/>
	<ellipse fill="#F7B24C" stroke="#FFFFFF" stroke-miterlimit="10" cx="266.791" cy="74.491" rx="21.192" ry="6.414"/>
</g>
</svg>
