<?xml version="1.0" encoding="utf-8"?>
<!-- Generator: Adobe Illustrator 16.0.0, SVG Export Plug-In . SVG Version: 6.00 Build 0)  -->
<!DOCTYPE svg PUBLIC "-//W3C//DTD SVG 1.1//EN" "http://www.w3.org/Graphics/SVG/1.1/DTD/svg11.dtd">
<svg version="1.1" id="Layer_1" xmlns="http://www.w3.org/2000/svg" xmlns:xlink="http://www.w3.org/1999/xlink" x="0px" y="0px"
	 width="396.85px" height="283.464px" viewBox="0 0 396.85 283.464" enable-background="new 0 0 396.85 283.464"
	 xml:space="preserve">
<g>
	<polygon fill="#231F20" stroke="#231F20" stroke-width="1.5" stroke-miterlimit="10" points="330.583,132.855 329.694,144.378 
		353.421,142.888 350.205,132.746 	"/>
	<path fill="none" stroke="#231F20" stroke-width="2" stroke-linecap="round" stroke-linejoin="round" stroke-miterlimit="10" d="
		M298.039,55.023c12.764-12.117,24.28-0.961,24.28-0.961s2.141-5.096,5.088-6.121"/>
	<path fill="none" stroke="#231F20" stroke-width="2" stroke-linecap="round" stroke-linejoin="round" stroke-miterlimit="10" d="
		M293.537,53.369c14.447-9.795,28.782,0.693,28.782,0.693c2.771-2.279,5.08-1.535,6.871,0.092"/>
	<path fill="none" stroke="#231F20" stroke-width="1.5" stroke-linecap="round" stroke-linejoin="round" stroke-miterlimit="10" d="
		M29.931,98.732h204.074c0,0,67.276,0.295,88.721,0c21.441-0.293,48.841,0,48.841,0"/>
	<path fill="none" stroke="#231F20" stroke-width="1.5" stroke-linecap="round" stroke-linejoin="round" stroke-miterlimit="10" d="
		M371.142,106.732H167.489c0,0-67.274,0.295-88.719,0c-21.441-0.293-49.052,0-49.052,0"/>
	
		<line fill="none" stroke="#231F20" stroke-width="1.5" stroke-linecap="round" stroke-linejoin="round" stroke-miterlimit="10" x1="157.72" y1="11.732" x2="157.72" y2="98.732"/>
	
		<line fill="none" stroke="#231F20" stroke-width="1.5" stroke-linecap="round" stroke-linejoin="round" stroke-miterlimit="10" x1="290.72" y1="11.732" x2="290.72" y2="98.732"/>
	
		<line fill="none" stroke="#231F20" stroke-width="1.5" stroke-linecap="round" stroke-linejoin="round" stroke-miterlimit="10" x1="221.72" y1="11.732" x2="221.72" y2="98.732"/>
	
		<line fill="none" stroke="#231F20" stroke-width="1.5" stroke-linecap="round" stroke-linejoin="round" stroke-miterlimit="10" x1="226.72" y1="11.732" x2="226.72" y2="98.732"/>
	<rect x="209.72" y="40.732" fill="#231F20" width="3" height="19"/>
	<rect x="233.72" y="40.732" fill="#231F20" width="3" height="19"/>
	
		<path fill="#F9BF76" stroke="#231F20" stroke-width="1.5" stroke-linecap="round" stroke-linejoin="round" stroke-miterlimit="10" d="
		M327.114,106.859c0,0-1.188,12.756-2.278,16.305c-1.181,3.828-1.156,7.084-2.219,7.521c-1.059,0.436-4.162,0.92-6.514,3.287
		c-3.078,3.098-5.379,5.569-3.478,10.125c0.824,1.975,2.931,2.66,3.713,1.084c0.777-1.574,1.388-4.896,1.898-7.162
		c0.427-1.894,4.115-4.146,5.613-2.734c1.501,1.408,0.278,6.434,2.522,7.367c2.247,0.934,3.205-0.902,3.082-2.314
		c-0.123-1.418-0.924-4.168-2.027-5.773c-1.106-1.608-1.452-1.725-1.188-2.553c1.789-5.633,6.219-24.332,6.215-25.707
		L327.114,106.859z"/>
	<path fill="none" stroke="#231F20" stroke-width="2" stroke-linecap="round" stroke-linejoin="round" stroke-miterlimit="10" d="
		M330.419,100.845"/>
	
		<ellipse transform="matrix(0.2006 -0.9797 0.9797 0.2006 194.5479 383.6281)" fill="#F9BF76" stroke="#231F20" stroke-width="1.5" stroke-linecap="round" stroke-linejoin="round" stroke-miterlimit="10" cx="332.356" cy="72.598" rx="5.093" ry="4.98"/>
	<path fill="#F9BF76" d="M297.881,86.505c1.099,1.996,2.55,4.084,6.354,6.543c6.104,3.941,23.779,0.881,27.665-10.584
		c2.521-7.434,0.783-18.58-6.342-25.818c-10.096-10.258-25.185-2.184-28.544,4.199C296.426,61.958,289.222,70.722,297.881,86.505z"
		/>
	<path fill="#231F20" d="M307.816,70.062c0.072,1.918-0.619,3.494-1.54,3.527c-0.919,0.035-1.724-1.486-1.795-3.406
		c-0.069-1.912,0.619-3.485,1.541-3.521C306.941,66.628,307.745,68.15,307.816,70.062z"/>
	<path fill="#231F20" d="M298.816,70.062c0.072,1.918-0.619,3.494-1.54,3.527c-0.919,0.035-1.724-1.486-1.795-3.406
		c-0.069-1.912,0.619-3.485,1.541-3.521C297.941,66.628,298.745,68.15,298.816,70.062z"/>
	<path fill="none" stroke="#231F20" stroke-width="1.5" stroke-linecap="round" stroke-linejoin="round" stroke-miterlimit="10" d="
		M305.641,88.398c8.854,2.744,14.798-1.282,16.681-3.336"/>
	
		<ellipse transform="matrix(0.2006 -0.9797 0.9797 0.2006 157.7946 357.5968)" fill="#F9BF76" cx="298.01" cy="82.112" rx="4.509" ry="5.768"/>
	<path fill="none" stroke="#231F20" stroke-width="1.5" stroke-linecap="round" stroke-linejoin="round" stroke-miterlimit="10" d="
		M300.233,75.697c0,0-8.104,1.049-8.174,5.389c-0.104,6.355,8.479,5.584,9.87,4.807"/>
	<path fill="none" stroke="#231F20" stroke-width="2" stroke-linecap="round" stroke-linejoin="round" stroke-miterlimit="10" d="
		M304.207,57.814c10.896-10.521,24.408-1.039,24.408-1.039"/>
	<path fill="none" stroke="#231F20" stroke-width="1.5" stroke-linecap="round" stroke-linejoin="round" stroke-miterlimit="10" d="
		M321.202,83.017c0,0,2.063,3.127,4.116,3.648"/>
	<path fill="none" stroke="#231F20" stroke-width="1.5" stroke-linecap="round" stroke-linejoin="round" stroke-miterlimit="10" d="
		M297.818,60.845c1.447-7.068,18.449-14.457,28.544-4.199c7.125,7.238,8.86,18.388,6.344,25.818
		c-3.888,11.465-21.562,14.525-27.665,10.584c-3.806-2.459-6.354-6.543-6.354-6.543"/>
	
		<path fill="#FFFFFF" stroke="#231F20" stroke-width="1.5" stroke-linecap="round" stroke-linejoin="round" stroke-miterlimit="10" d="
		M324.363,92.417c0.752,6.219-5.72,20.021-5.72,20.021s6.719,3.074,8.479,2.586c0.458-0.125,3.332-5.23,3.332-5.23
		s1.188,1.223,2.7,2.676c3.41,3.268-1.571,20.385-1.571,20.385s19.622,2.06,19.622-0.106c0.001-24.563-18.547-41.229-20.652-42.979
		C328.445,88.019,324.15,90.656,324.363,92.417z"/>
	<rect x="207.72" y="221.732" fill="#231F20" width="3" height="19"/>
	
		<line fill="none" stroke="#231F20" stroke-width="1.5" stroke-linecap="round" stroke-linejoin="round" stroke-miterlimit="10" x1="83.72" y1="11.732" x2="83.72" y2="98.732"/>
	
		<line fill="none" stroke="#231F20" stroke-width="1.5" stroke-linecap="round" stroke-linejoin="round" stroke-miterlimit="10" x1="88.72" y1="11.732" x2="88.72" y2="98.732"/>
	<rect x="71.72" y="40.732" fill="#231F20" width="3" height="19"/>
	<rect x="95.72" y="40.732" fill="#231F20" width="3" height="19"/>
	<g>
		<path fill="#8B5E3C" stroke="#231F20" stroke-width="1.5" stroke-miterlimit="10" d="M64.862,119.472
			c0,0-1.59,10.438,5.649,13.354c3.969,1.603,16.113,5.442,17.987,4.123c0,0,2.718-4.039,6.052-5.019
			c3.336-0.977,5.034,0.051,4.941,2.047c-0.058,1.242,0.811,0.049,1.524,1.492c0.714,1.441,0.026,2.527-0.237,2.924
			c-0.284,0.424,1.722,0.213,0.823,2.23c-1.249,2.809-6.494,3.215-9.925-0.641c-1.062-1.191-11.892-1.049-14.709-1.822
			c-6.806-1.863-14.042-6.789-14.818-11.57C61.531,122.771,64.862,119.472,64.862,119.472z"/>
		
			<ellipse fill="#8B5E3C" stroke="#231F20" stroke-width="1.5" stroke-miterlimit="10" cx="56.886" cy="91.216" rx="5.545" ry="5.033"/>
		
			<ellipse fill="#8B5E3C" stroke="#231F20" stroke-width="1.5" stroke-miterlimit="10" cx="77.979" cy="88.914" rx="18.683" ry="20.643"/>
		
			<path fill="#615375" stroke="#231F20" stroke-width="1.5" stroke-linecap="round" stroke-linejoin="round" stroke-miterlimit="10" d="
			M68.421,108.691l-1.386,17.154l-3.887-0.516l-0.854,18.824c0,0-12.262,0.922-14.276-0.979c-1.91-1.797,3.321-19.596,3.321-19.596
			l-2.279-1.135l14.499-18.029L68.421,108.691z"/>
		<path fill="none" stroke="#231F20" stroke-width="2" stroke-linecap="round" stroke-linejoin="round" stroke-miterlimit="10" d="
			M93.121,126.904"/>
		
			<path fill="none" stroke="#231F20" stroke-width="1.5" stroke-linecap="round" stroke-linejoin="round" stroke-miterlimit="10" d="
			M95.196,134.031c0,0-1.741,2.934,0.651,3.344c0.604,0.105,3.119-0.941,3.76-2.84"/>
		<path fill="#8B5E3C" stroke="#231F20" stroke-width="1.5" stroke-miterlimit="10" d="M96.453,137.855c0,0-1.111,2.375,0.605,2.664
			c0.604,0.104,2.791-0.66,3.807-2.16"/>
		
			<ellipse transform="matrix(-0.3198 0.9475 -0.9475 -0.3198 242.9276 91.4319)" fill="#8B5E3C" stroke="#231F20" stroke-width="1.5" stroke-miterlimit="10" cx="88.645" cy="132.914" rx="2.858" ry="2.705"/>
		<path fill="#231F20" d="M89.843,83.41c0,1.41,0.675,2.559,1.51,2.559c0.836,0,1.512-1.148,1.512-2.559
			c0-1.412-0.676-2.553-1.512-2.553C90.518,80.857,89.843,81.998,89.843,83.41z"/>
		<path fill="#231F20" d="M77.843,83.41c0,1.41,0.675,2.559,1.51,2.559c0.836,0,1.512-1.148,1.512-2.559
			c0-1.412-0.676-2.553-1.512-2.553C78.518,80.857,77.843,81.998,77.843,83.41z"/>
		
			<line fill="none" stroke="#231F20" stroke-width="2" stroke-linecap="round" stroke-linejoin="round" stroke-miterlimit="10" x1="81.287" y1="78.164" x2="75.085" y2="77.943"/>
		
			<line fill="none" stroke="#231F20" stroke-width="2" stroke-linecap="round" stroke-linejoin="round" stroke-miterlimit="10" x1="95.399" y1="77.728" x2="89.227" y2="78.378"/>
		
			<path fill="none" stroke="#231F20" stroke-width="1.5" stroke-linecap="round" stroke-linejoin="round" stroke-miterlimit="10" d="
			M84.887,104.421c-6.59,3.354-14.313-2.393-14.521-6.83"/>
		
			<polyline fill="none" stroke="#231F20" stroke-width="2" stroke-linecap="round" stroke-linejoin="round" stroke-miterlimit="10" points="
			88.843,67.55 86.968,69.781 79.386,64.498 76.434,68.273 71.143,65.572 		"/>
		
			<polyline fill="none" stroke="#231F20" stroke-width="2" stroke-linecap="round" stroke-linejoin="round" stroke-miterlimit="10" points="
			67.72,66.732 67.72,70.671 61.345,71.474 62.256,74.695 56.448,81.851 		"/>
		<ellipse fill="#8B5E3C" cx="95.531" cy="93.924" rx="5.494" ry="4.306"/>
		
			<path fill="none" stroke="#231F20" stroke-width="1.5" stroke-linecap="round" stroke-linejoin="round" stroke-miterlimit="10" d="
			M90.036,89.292c0,0,10.96-2.295,10.988,4.799c0.025,6.348-10.016,4.123-10.988,4.123"/>
		
			<polyline fill="none" stroke="#231F20" stroke-width="1.5" stroke-linecap="round" stroke-linejoin="round" stroke-miterlimit="10" points="
			63.673,110.261 57.433,125.601 51.176,123.5 		"/>
	</g>
	<path fill="none" stroke="#231F20" stroke-width="1.5" stroke-linecap="round" stroke-linejoin="round" stroke-miterlimit="10" d="
		M388.72,180.732H174.576c0,0-70.585,0.295-93.082,0c-22.494-0.293-51.228,0-51.228,0"/>
	<rect x="255.72" y="198.732" fill="#231F20" width="19" height="3"/>
	<rect x="255.72" y="228.732" fill="#231F20" width="19" height="3"/>
	<rect x="255.72" y="257.732" fill="#231F20" width="19" height="3"/>
	<rect x="320.72" y="221.732" fill="#231F20" width="3" height="19"/>
	
		<polygon fill="none" stroke="#231F20" stroke-width="1.5" stroke-linecap="round" stroke-linejoin="round" stroke-miterlimit="10" points="
		231.017,190.029 230.346,211.732 301.72,211.732 301.72,189.732 	"/>
	
		<polygon fill="none" stroke="#231F20" stroke-width="1.5" stroke-linecap="round" stroke-linejoin="round" stroke-miterlimit="10" points="
		315.017,189.958 314.346,271.732 385.72,271.732 385.72,189.732 	"/>
	
		<polygon fill="none" stroke="#231F20" stroke-width="1.5" stroke-linecap="round" stroke-linejoin="round" stroke-miterlimit="10" points="
		147.017,189.958 146.346,271.732 217.72,271.732 217.72,189.732 	"/>
	<rect x="75.72" y="221.732" fill="#231F20" width="3" height="19"/>
	<rect x="50.72" y="221.732" fill="#231F20" width="3" height="19"/>
	
		<polygon fill="none" stroke="#231F20" stroke-width="1.5" stroke-linecap="round" stroke-linejoin="round" stroke-miterlimit="10" points="
		139.048,189.958 139.719,271.732 68.345,271.732 68.345,189.732 	"/>
	
		<polyline fill="none" stroke="#231F20" stroke-width="1.5" stroke-linecap="round" stroke-linejoin="round" stroke-miterlimit="10" points="
		29.411,271.732 60.72,271.732 60.72,189.732 29.18,189.958 	"/>
	<path fill="none" stroke="#231F20" stroke-width="1.5" stroke-linecap="round" stroke-linejoin="round" stroke-miterlimit="10" d="
		M65.346,271.732"/>
	
		<polygon fill="none" stroke="#231F20" stroke-width="1.5" stroke-linecap="round" stroke-linejoin="round" stroke-miterlimit="10" points="
		231.017,248.029 230.346,269.732 301.72,269.732 301.72,247.732 	"/>
	
		<polygon fill="none" stroke="#231F20" stroke-width="1.5" stroke-linecap="round" stroke-linejoin="round" stroke-miterlimit="10" points="
		231.017,220.029 230.346,241.732 301.72,241.732 301.72,219.732 	"/>
	<rect x="23.72" y="136.732" fill="#FFFFFF" width="365" height="39"/>
	<path fill="none" stroke="#231F20" stroke-width="1.5" stroke-linecap="round" stroke-linejoin="round" stroke-miterlimit="10" d="
		M370.551,136.732H167.503c0,0-67.132,0.295-88.524,0c-21.396-0.293-49.024,0-49.024,0"/>
	<path fill="none" stroke="#231F20" stroke-width="1.5" stroke-linecap="round" stroke-linejoin="round" stroke-miterlimit="10" d="
		M388.72,175.732H174.576c0,0-70.585,0.295-93.082,0c-22.494-0.293-51.228,0-51.228,0"/>
	<g>
		<ellipse opacity="0.7" fill="#FFFFFF" enable-background="new    " cx="177.46" cy="136.99" rx="6.494" ry="1.461"/>
		<path fill="none" stroke="#231F20" stroke-width="1.2" stroke-miterlimit="10" d="M169.939,123.009c0,0,0.552,15.615,2.625,19.613
			c1.466,2.82,8.15,3.031,9.642,0.211c1.856-3.514,3.08-20.357,3.08-20.357"/>
		<path fill="none" stroke="#231F20" stroke-width="1.2" stroke-miterlimit="10" d="M169.939,122.626
			c0,1.184,2.773,2.143,7.639,2.143c4.866,0,7.708-0.959,7.708-2.143c0-1.182-2.842-2.143-7.708-2.143
			C172.713,120.484,169.939,121.445,169.939,122.626z"/>
		<path fill="none" stroke="#231F20" stroke-width="1.2" stroke-miterlimit="10" d="M171.109,131.685
			c0,1.017,2.379,1.836,6.548,1.836c4.171,0,6.605-0.819,6.605-1.836c0-1.012-2.438-1.834-6.605-1.834
			S171.109,130.673,171.109,131.685z"/>
	</g>
	
		<ellipse fill="none" stroke="#231F20" stroke-width="1.3" stroke-miterlimit="10" cx="248.45" cy="147.405" rx="50.181" ry="14.565"/>
	<path fill="#F9BF76" stroke="#231F20" stroke-miterlimit="10" d="M284.051,128.357c-24.162-7.815-70.324-1.737-71.895,0.144
		c-3.477,4.177-4.555,14.199-1.816,17.341c0.381,0.438,5.1,7.26,37.796,7.455c20.752,0.121,35.716-3.279,37.239-7.445
		c0.043-0.037,0.093-0.076,0.13-0.115C288.458,142.785,288.077,129.66,284.051,128.357z"/>
	
		<ellipse fill="#FFFFFF" stroke="#231F20" stroke-width="1.3" stroke-miterlimit="10" cx="248.135" cy="129.202" rx="36.127" ry="7.821"/>
	<path fill="#DD9F5B" stroke="#231F20" stroke-width="1.5" stroke-miterlimit="10" d="M8.13,122.962"/>
	<g>
		<path fill="#58595B" stroke="#231F20" stroke-miterlimit="10" d="M71.217,100.371c1.014,2.418-0.245,3.625-2.664,4.641
			l-0.46,0.191c-2.42,1.014-5.086,1.451-6.102-0.969L54.843,87.17c-1.016-2.418,1.555-3.092,3.973-4.104l0.463-0.192
			c2.42-1.015,3.775-1.985,4.79,0.435L71.217,100.371z"/>
		
			<ellipse transform="matrix(0.3863 0.9224 -0.9224 0.3863 118.0254 -2.0451)" fill="#231F20" cx="60.55" cy="87.674" rx="1.119" ry="1.106"/>
	</g>
	<path fill="#8B5E3C" stroke="#231F20" stroke-width="1.5" stroke-miterlimit="10" d="M72.94,100.576
		c-0.512-3.271-3.697-0.787-3.771,0.777c-0.072,1.563-1.915,2.533-4.272,1.807c-2.354-0.727-3.595-7.66-4.685-9.082
		c-1.092-1.42-2.412-1.293-3.635,1.875c-1.222,3.166,7.955,10.863,8.112,11.516c0.158,0.65-5.264,9.92-8.394,16.461
		c-1.124,2.35-1.192,2.207-1.698,0.58l-4.735-1.547c-0.375,0.217,0.438,0.488,0.742,0.826c2.237,2.488,2.771,10.068,7.405,5.086
		c4.056-4.361,10.646-22.129,10.646-22.129S73.439,103.771,72.94,100.576z"/>
	<g>
		<path fill="#BCBEC0" stroke="#939598" stroke-linecap="round" stroke-linejoin="round" stroke-miterlimit="10" d="
			M257.192,152.238l41.358-13.911l-7.494-2.765c0,0-16.363,4.228-25.68,8.338C256.175,147.962,257.192,152.238,257.192,152.238z"/>
		<path fill="#8B5E3C" stroke="#754C29" stroke-linecap="round" stroke-linejoin="round" stroke-miterlimit="10" d="
			M300.339,137.275l13.534-5.645c0,0-2.993-3.303-3.516-3.059c-0.521,0.244-0.781,1.195-3.254,2.676
			c-2.472,1.48-2.731,2.115-6.768,2.748c-4.033,0.635-7.025,1.059-7.025,1.059L300.339,137.275z"/>
	</g>
	<g>
		
			<path fill="#F9BF76" stroke="#231F20" stroke-width="1.5" stroke-linecap="round" stroke-linejoin="round" stroke-miterlimit="10" d="
			M306.49,131.794c0,0-7.563-3.395-9.428-2.828c-2.465,0.75-2.32,2.359-1.248,3.107c1.07,0.744,2.914,0.957,4.701,1.557
			c1.788,0.598,2.271,2.994,0.916,3.619c-1.355,0.623-4.926,2.553-5.739,2.938c-0.813,0.388-3.396,2.455-1.7,3.547
			c1.693,1.09,6.61,0.293,6.61,0.293c0.225-0.389,0.898,1.82,3.615,0.024c2.716-1.793,5.119-5.635,3.896-9.368
			c-0.551-1.683,8.126-1.943,11.144-6.601c3.339-5.151,7.375-13.008,7.375-13.008l-5.82-1.712c0,0-5.021,14.443-6.731,15.203
			C312.37,129.322,306.49,131.794,306.49,131.794z"/>
		
			<path fill="none" stroke="#231F20" stroke-width="1.5" stroke-linecap="round" stroke-linejoin="round" stroke-miterlimit="10" d="
			M295.539,144.271c0,0,4.837,1.199,9.706-4.879"/>
	</g>
	<path fill="none" stroke="#FFDFB0" stroke-width="2" stroke-linecap="round" stroke-linejoin="round" stroke-miterlimit="10" d="
		M239.347,148.173c22.902,3.184,47.845-9.365,47.845-9.365"/>
	<path fill="#F9BF76" d="M254.011,146.904c1.284-2.863,15.101-7.188,15.101-7.188l14.453-3.629l3.139-0.756
		c0,0,0.862,2.205,0.488,2.813C284.945,141.789,253.441,148.173,254.011,146.904z"/>
	<path fill="#8B5E3C" d="M210.388,128.396c-1.419,1.506-1.953,6.039-2.333,8.121c-0.116,0.637,0.741,4.236,2.333,0.926
		c1.783-3.707,2.73-4.129,4-3.93c2.094,0.326,0.556,9.672,2.833,10.141c3.227,0.666,2.678-3.305,5.345-5.206
		c2.667-1.9,8.529-1.39,8.822,3.821c0.175,3.115,0.507,4.109,2.084,4.717c2.727,1.053,3.583-3.16,3.916-4.543
		c0.333-1.385,0.771-3.327,2.833-1.901c1.17,0.81,0.334,1.209,1.334,2.938c1,1.73,2.241,1.574,3.333,0.521
		c1.207-1.168,0.707-2.528,2.5-2.422c2.521,0.151,1.063,5.718,4.333,5.718c5.243,0,6.334-5.893,7.334-6.064
		c1-0.174,0.166,1.386,3.166,3.633c3,2.25,1.749,6.154,5.5,5.363c3.397-0.715,1.67-7.791,1.999-11.426
		c0.375-4.146,4.437-3.144,5.335,0.903c1.04,4.685,8.478,5.979,7.5-1.261c-0.301-2.217-0.917-4.481,1.708-2.926
		c2.625,1.557,1.896,4.285,3.178,4.187c3.013-0.231,0-11.929-3.943-13.731c-2.96-1.354-13.938-5.414-33.773-5.697
		C234.252,120.054,215.804,122.65,210.388,128.396z"/>
	<g>
		
			<ellipse fill="#ED1C24" stroke="#231F20" stroke-width="0.75" stroke-miterlimit="10" cx="248.705" cy="120.366" rx="4.051" ry="3.696"/>
		
			<path fill="#ED1C24" stroke="#231F20" stroke-width="0.75" stroke-linecap="round" stroke-linejoin="round" stroke-miterlimit="10" d="
			M247.886,118.13c1.496,1.188,2.271,0.465,2.271,0.465"/>
		
			<path fill="none" stroke="#231F20" stroke-width="0.75" stroke-linecap="round" stroke-linejoin="round" stroke-miterlimit="10" d="
			M251.155,114.453c0,0-2.45,2.215-1.964,3.898"/>
	</g>
</g>
</svg>
