<?xml version="1.0" encoding="utf-8"?>
<!-- Generator: Adobe Illustrator 16.0.0, SVG Export Plug-In . SVG Version: 6.00 Build 0)  -->
<!DOCTYPE svg PUBLIC "-//W3C//DTD SVG 1.1//EN" "http://www.w3.org/Graphics/SVG/1.1/DTD/svg11.dtd">
<svg version="1.1" id="Layer_1" xmlns="http://www.w3.org/2000/svg" xmlns:xlink="http://www.w3.org/1999/xlink" x="0px" y="0px"
	 width="481.891px" height="311.811px" viewBox="0 0 481.891 311.811" enable-background="new 0 0 481.891 311.811"
	 xml:space="preserve">
<g>
	<path fill="none" stroke="#231F20" stroke-width="1.5" stroke-linecap="round" stroke-linejoin="round" stroke-miterlimit="10" d="
		M383.355,246.354H330.58h-31.156h-153.68h-34.121c0,0-88.726,2.461-99.096-0.121"/>
	<path fill="none" stroke="#231F20" stroke-width="2" stroke-linecap="round" stroke-linejoin="round" stroke-miterlimit="10" d="
		M393.183,190.934"/>
	
		<polyline fill="none" stroke="#231F20" stroke-width="2" stroke-linecap="round" stroke-linejoin="round" stroke-miterlimit="10" points="
		398.054,109.033 407.201,138.818 418.486,134.839 400.072,98.632 	"/>
	
		<polyline fill="none" stroke="#231F20" stroke-width="2" stroke-linecap="round" stroke-linejoin="round" stroke-miterlimit="10" points="
		396.613,138.818 390.894,137.818 390.894,106.985 	"/>
	<path fill="#FFFFFF" d="M391.449,166.495c-1.871,1.549,0.223,3.361,3.623,3.16c3.404-0.2,8.695-3.89,8.695-3.89
		c-0.146-2.425-0.604-3.536-4.006-3.336C396.359,162.631,391.992,166.045,391.449,166.495z"/>
	
		<ellipse transform="matrix(-0.778 -0.6283 0.6283 -0.778 605.6965 565.7642)" fill="#FFFFFF" cx="402.811" cy="175.864" rx="4.397" ry="6.171"/>
	<path fill="#231F20" d="M395.172,172.697c0,0-2.404,39.237-2.363,52.521c0.021,7.604,1.021,36.852,1.021,36.852h7.906
		c0,0-0.895-48.524,0-52.76c0.846-4,1.727-20.521,3.174-23.451c2.014-4.054-0.064-2.261-0.338,0.565
		c-0.115,1.188-1.049,15.966-0.676,21.636c0.377,5.67,2.389,28.496,3.58,37.152c0.127,0.912,1.27,18.35,1.27,18.35
		s6.979,1.178,8.059,0.746c1.078-0.432-2.387-28.348-2.982-35.361c-0.6-7.012,2.834-52.814,2.834-52.814l-0.299-5.374
		L395.172,172.697z"/>
	
		<path fill="#DD9F5B" stroke="#231F20" stroke-width="1.5" stroke-linecap="round" stroke-linejoin="round" stroke-miterlimit="10" d="
		M410.123,137.786c6.914,14.785,10.949,47.024,10.949,47.024s-11.729,5.599-12.479,7.244c-1.043,2.283,0.512,4.072,1.561,3.795
		s4.188-2.184,5.719-3.043s2.238,0,1.742,2.361c-0.5,2.367-3.1,6.201-2.813,8.819c0.311,2.855,2.514,3.681,4.375,2.574
		c2.125-1.262,2.777-12.162,2.777-12.162s-0.309,11.543,0.928,12.636c2.105,1.852,5.15,0.37,5.389-2.074
		c0.219-2.344-2.115-10.412-2.115-10.412s3.762,9.998,6.328,10.342c2.219,0.301,3.809-3.563,0.682-9.481
		c-1.943-3.685-5.908-9.95-7.146-11.168c-1.27-1.25-5.611-35.065-10.463-48.365L410.123,137.786z"/>
	
		<path fill="#DD9F5B" stroke="#231F20" stroke-width="1.5" stroke-linecap="round" stroke-linejoin="round" stroke-miterlimit="10" d="
		M396.547,127.925c-13.352,9.39-44.395,18.987-44.395,18.987s-7.561-10.572-9.313-11.022c-2.432-0.628-3.92,1.212-3.465,2.197
		c0.457,0.984,2.883,3.74,3.992,5.1c1.115,1.358,0.395,2.206-2.021,2.129c-2.414-0.08-6.646-1.97-9.174-1.229
		c-2.758,0.803-3.186,3.115-1.771,4.756c1.615,1.874,12.463,0.614,12.463,0.614s-11.422,1.712-12.277,3.116
		c-1.455,2.398,0.531,5.14,2.98,4.941c2.348-0.193,9.881-3.898,9.881-3.898s-9.188,5.446-9.076,8.038
		c0.094,2.233,4.174,3.125,9.457-0.986c3.287-2.559,8.77-7.555,9.75-8.984c1.008-1.469,33.551-11.646,45.801-18.742L396.547,127.925
		z"/>
	
		<polyline fill="#FFFFFF" stroke="#231F20" stroke-width="1.5" stroke-linecap="round" stroke-linejoin="round" stroke-miterlimit="10" points="
		384.926,137.818 389.748,138.818 394.275,187.554 416.951,177.409 409.226,138.818 409.59,138.818 418.486,134.839 400.668,99.802 
		396.613,103.107 390.894,106.273 383.732,137.818 	"/>
	
		<line fill="none" stroke="#231F20" stroke-width="1.5" stroke-linecap="round" stroke-linejoin="round" stroke-miterlimit="10" x1="393.099" y1="118.807" x2="390.469" y2="138.736"/>
	
		<line fill="none" stroke="#231F20" stroke-width="1.5" stroke-linecap="round" stroke-linejoin="round" stroke-miterlimit="10" x1="399.965" y1="112.862" x2="409.513" y2="139.516"/>
	<path fill="#DD9F5B" d="M375.094,94.851c1.188,2.51,2.756,5.131,6.871,8.22c6.6,4.955,25.709,1.109,29.908-13.296
		c2.727-9.339,0.85-23.345-6.854-32.438c-10.918-12.89-27.23-2.742-30.865,5.275C373.519,64.013,365.73,75.023,375.094,94.851z"/>
	<path fill="none" stroke="#231F20" stroke-width="1.5" stroke-linecap="round" stroke-linejoin="round" stroke-miterlimit="10" d="
		M374.156,61.361c1.563-8.879,19.947-18.163,30.865-5.273c7.701,9.095,9.578,23.1,6.854,32.438
		c-4.201,14.402-23.313,18.25-29.91,13.297c-4.115-3.09-6.871-8.221-6.871-8.221"/>
	<path fill="#231F20" d="M373.927,71.87c-0.037,1.974-0.799,3.551-1.695,3.527c-0.896-0.024-1.596-1.639-1.559-3.613
		c0.041-1.976,0.801-3.552,1.697-3.525C373.271,68.283,373.967,69.899,373.927,71.87z"/>
	<path fill="#231F20" d="M383.478,71.87c-0.039,1.974-0.801,3.551-1.697,3.527c-0.896-0.024-1.596-1.639-1.559-3.613
		c0.039-1.976,0.801-3.552,1.697-3.525C382.818,68.283,383.515,69.899,383.478,71.87z"/>
	<path fill="none" stroke="#231F20" stroke-width="1.5" stroke-linecap="round" stroke-linejoin="round" stroke-miterlimit="10" d="
		M400.74,89.3c-4.15,5.651-12.885,7.083-17.979,4.438"/>
	<path fill="#DD9F5B" d="M367.888,91.598c1.762,2.563,6.016,2.942,9.502,0.843s4.887-5.88,3.125-8.448
		c-1.758-2.565-6.012-2.944-9.498-0.844C367.529,85.249,366.129,89.032,367.888,91.598z"/>
	<path fill="none" stroke="#231F20" stroke-width="1.5" stroke-linecap="round" stroke-linejoin="round" stroke-miterlimit="10" d="
		M376.738,79.805c0,0-10.184,3.827-10.111,9.313c0.104,8.039,10.898,4.582,12.629,3.657"/>
	
		<path fill="#231F20" stroke="#231F20" stroke-width="1.5" stroke-linecap="round" stroke-linejoin="round" stroke-miterlimit="10" d="
		M398.654,47.066c-0.691-0.237-1.209-0.204-1.604,0.009c-0.613-1.878-2.125-3.422-4.82-3.97
		c-15.781-3.212-33.063,12.557-26.176,21.536c1.479,1.931,18.799-1.764,26.521-7.665c1.113-0.85,4.449-1.389,5.256-2.532
		c0.379,1.583,1.523,2.715,2.646,5.705c2.303,6.123,12.615,9.925,13.047,8.191C413.957,66.606,411.4,51.425,398.654,47.066z"/>
	<path fill="#DD9F5B" stroke="#231F20" stroke-width="1.5" stroke-miterlimit="10" d="M409.672,71.362
		c-0.609,3.461,1.256,6.829,4.17,7.523c2.912,0.692,5.77-1.553,6.379-5.013c0.609-3.463-1.258-6.833-4.172-7.525
		C413.138,65.654,410.281,67.9,409.672,71.362z"/>
	<path fill="#FFFFFF" stroke="#231F20" stroke-width="1.5" stroke-miterlimit="10" d="M412.347,61.045c0,0-7.326-4.958-13.301-7.547
		c-10.035-4.348-17.373-5.078-17.373-5.078l4.193-12.053l28.377,12.339l4.367,1.582L412.347,61.045z"/>
	<path fill="#FFFFFF" stroke="#231F20" stroke-width="1.5" stroke-miterlimit="10" d="M394.461,14.761c2.6,0,5,0.615,6.984,1.484
		c3.818-1.141,8.689-1.09,13.566,0.444c8.729,2.746,14.275,9.208,12.9,14.756c7.572,3.382,13.721,10.75,12.605,16.468
		c-1.449,7.445-10.529,8.1-22.092,6.218c-7.438-1.21-13.477-4.773-16.455-9.143c-1.084,0.119-2.195,0.184-3.326,0.184
		c-11.725,0-21.229-6.624-21.229-14.795C377.422,22.205,382.738,14.761,394.461,14.761z"/>
	<path fill="none" stroke="#231F20" stroke-width="2" stroke-linecap="round" stroke-linejoin="round" stroke-miterlimit="10" d="
		M155.033,132.921"/>
	<path fill="#FFFFFF" stroke="#231F20" stroke-width="0.75" stroke-miterlimit="10" d="M206.286,45.031
		c-21.55,0-43.445,14.844-42.813,44.252c0.551,25.692,14.138,34.851,28.716,41.263c-0.926,2.219-2.547,5.028-5.384,8.066
		c-5.764,6.172,8.96-2.096,11.422-6.021l-0.003-0.008c2.603,0.621,5.3,0.952,8.063,0.952c21.551,0,46.479-9.566,46.614-44.252
		C253.027,56.871,227.836,45.031,206.286,45.031z"/>
	<text transform="matrix(1 0 0 1 185.4329 72.9592)" fill="#231F20" font-family="'JandaCapslock'" font-size="10.4404">Bom dia! </text>
	<text transform="matrix(1 0 0 1 185.9993 86.2463)" fill="#231F20" font-family="'JandaCapslock'" font-size="10.4404">Metade </text>
	<text transform="matrix(1 0 0 1 173.1951 99.5354)" fill="#231F20" font-family="'JandaCapslock'" font-size="10.4404">desta pizza, </text>
	<text transform="matrix(1 0 0 1 180.55 112.8215)" fill="#231F20" font-family="'JandaCapslock'" font-size="10.4404">por favor.</text>
	<path fill="#FFFFFF" stroke="#231F20" stroke-width="0.75" stroke-miterlimit="10" d="M313.381,29.674
		c24.996,0,45.26,17.133,45.26,38.269c0,16.257-11.994,30.138-28.902,35.684c1.072,1.918,2.953,4.349,6.242,6.977
		c6.684,5.337-10.393-1.813-13.248-5.208l0.004-0.005c-3.02,0.537-6.146,0.823-9.354,0.823c-24.998,0-45.264-17.134-45.264-38.271
		C268.117,46.806,288.383,29.674,313.381,29.674z"/>
	<text transform="matrix(1 0 0 1 286.5779 59.1467)" fill="#231F20" font-family="'JandaCapslock'" font-size="10.4404">É pra já, </text>
	<text transform="matrix(1 0 0 1 283.1873 72.4338)" fill="#231F20" font-family="'JandaCapslock'" font-size="10.4404">vou cortar </text>
	<text transform="matrix(1 0 0 1 286.9031 85.7229)" fill="#231F20" font-family="'JandaCapslock'" font-size="10.4404">para você!</text>
	<polygon fill="#FFFFFF" points="227.816,162.236 215.927,197.713 212.033,250.388 451.238,297.05 469.34,176.014 364.486,160.206 
		243.972,143.678 	"/>
	
		<polyline fill="none" stroke="#231F20" stroke-width="1.5" stroke-linecap="round" stroke-linejoin="round" stroke-miterlimit="10" points="
		235.062,148.491 182.281,169.437 469.363,215.1 	"/>
	
		<polyline fill="none" stroke="#231F20" stroke-width="2" stroke-linecap="round" stroke-linejoin="round" stroke-miterlimit="10" points="
		181.927,169.388 181.927,181.577 445.783,226.261 	"/>
	
		<polyline fill="none" stroke="#231F20" stroke-width="2" stroke-linecap="round" stroke-linejoin="round" stroke-miterlimit="10" points="
		209.93,186.723 214.031,256.927 411.056,297.05 	"/>
	<ellipse fill="#FFFFFF" cx="304.529" cy="152.557" rx="33.916" ry="16.682"/>
	<g>
		<path fill="none" stroke="#231F20" stroke-width="3" stroke-miterlimit="10" d="M248.277,151.932
			c0-10.229,21.012-18.55,46.834-18.55c25.824,0,46.834,8.321,46.834,18.55s-21.01,18.55-46.834,18.55
			C269.289,170.482,248.277,162.16,248.277,151.932z"/>
		<ellipse fill="#F7C434" cx="295.113" cy="151.932" rx="34.932" ry="13.835"/>
		<path fill="#F9BF76" d="M248.277,151.932c0-10.229,21.012-18.55,46.834-18.55c25.824,0,46.834,8.321,46.834,18.55
			s-21.01,18.55-46.834,18.55C269.289,170.482,248.277,162.16,248.277,151.932z M256.17,151.932
			c0,8.505,17.469,15.425,38.941,15.425c21.475,0,38.941-6.92,38.941-15.425s-17.469-15.424-38.941-15.424
			C273.638,136.509,256.17,143.428,256.17,151.932z"/>
		<path fill="#D1313D" d="M298.765,141.714c0.279-0.61-0.744-1.193-2.285-1.305c-1.539-0.109-3.016,0.295-3.293,0.905
			c-0.279,0.611,0.742,1.194,2.285,1.305C297.013,142.73,298.488,142.324,298.765,141.714z"/>
		<path fill="#D1313D" d="M308.722,143.568c-0.367,0.802,0.979,1.569,3.002,1.714c2.021,0.146,3.961-0.387,4.326-1.188
			c0.361-0.803-0.98-1.568-3.004-1.713C311.025,142.236,309.086,142.765,308.722,143.568z"/>
		<path fill="#D1313D" d="M299.705,147.629c-0.363,0.802,0.98,1.568,3.004,1.714c2.021,0.146,3.961-0.388,4.326-1.188
			c0.363-0.802-0.979-1.568-3.004-1.714C302.01,146.296,300.072,146.826,299.705,147.629z"/>
		<path fill="#D1313D" d="M270.67,156.812c-0.365,0.802,0.979,1.568,3.002,1.713c2.021,0.146,3.961-0.389,4.324-1.188
			c0.367-0.803-0.977-1.568-3.002-1.714C272.972,155.479,271.035,156.01,270.67,156.812z"/>
		<path fill="#D1313D" d="M327.402,151.11c0.455-0.991-1.211-1.941-3.715-2.121c-2.508-0.18-4.906,0.48-5.359,1.474
			c-0.451,0.992,1.213,1.941,3.721,2.12C324.552,152.763,326.949,152.103,327.402,151.11z"/>
		<path fill="#D1313D" d="M283.179,161.247c1.455,0.104,2.846-0.277,3.104-0.854c0.266-0.576-0.701-1.127-2.152-1.229
			c-1.451-0.104-2.844,0.276-3.105,0.854C280.763,160.594,281.728,161.144,283.179,161.247z"/>
		<path fill="#D1313D" d="M268.926,151.84c-0.234,0.515,0.627,1.006,1.926,1.101c1.299,0.092,2.541-0.249,2.775-0.764
			c0.232-0.515-0.631-1.006-1.928-1.101C270.404,150.985,269.158,151.325,268.926,151.84z"/>
		<path fill="#D1313D" d="M307.976,153.497c-1.535-0.109-3.004,0.294-3.279,0.901c-0.275,0.608,0.742,1.19,2.275,1.3
			c1.533,0.11,3.002-0.294,3.279-0.9C310.529,154.19,309.51,153.608,307.976,153.497z"/>
		<path fill="#D1313D" d="M288.068,147.4c-2.088-0.149-4.088,0.399-4.465,1.229c-0.377,0.825,1.012,1.617,3.1,1.768
			c2.09,0.149,4.086-0.399,4.467-1.228C291.543,148.341,290.156,147.55,288.068,147.4z"/>
		<path fill="#D1313D" d="M281.664,141.538c-2.088-0.148-4.086,0.401-4.465,1.229c-0.377,0.826,1.012,1.619,3.102,1.767
			c2.088,0.149,4.086-0.397,4.465-1.227C285.142,142.48,283.754,141.69,281.664,141.538z"/>
		<path fill="#D1313D" d="M272.31,146.351c-1.785-0.128-3.494,0.341-3.818,1.049c-0.318,0.707,0.863,1.385,2.65,1.512
			c1.785,0.128,3.494-0.343,3.816-1.049S274.095,146.479,272.31,146.351z"/>
		<path fill="#D1313D" d="M320.496,157.988c0.352-0.768-0.936-1.502-2.873-1.64c-1.936-0.14-3.789,0.371-4.141,1.138
			c-0.35,0.766,0.939,1.5,2.873,1.641C318.293,159.264,320.148,158.754,320.496,157.988z"/>
		<path fill="#D1313D" d="M304.314,162.76c0.498-1.092-1.334-2.138-4.094-2.335c-2.758-0.198-5.398,0.526-5.896,1.62
			c-0.498,1.093,1.334,2.139,4.094,2.335C301.176,164.575,303.816,163.853,304.314,162.76z"/>
		<path fill="#D1313D" d="M296.025,155.7c0.5-1.093-1.334-2.138-4.092-2.335c-2.758-0.196-5.398,0.528-5.896,1.621
			c-0.498,1.092,1.334,2.138,4.094,2.335C292.886,157.522,295.527,156.795,296.025,155.7z"/>
	</g>
	<g>
		<path fill="#A87C4F" stroke="#231F20" stroke-width="1.5" stroke-miterlimit="10" d="M125.291,216.493
			c0,0,6.445,44.396,4.678,45.864c-1.772,1.478,9.036-0.313,9.036-0.313s3.959-30.229,3.057-45.777L125.291,216.493z"/>
		<path fill="#A87C4F" stroke="#231F20" stroke-width="1.5" stroke-miterlimit="10" d="M112.823,217.368
			c0,0-3.042,43.307-3.948,44.715c-1.246,1.938,7.948,1.098,7.948,1.098s12.342-31.898,10.846-45.965L112.823,217.368z"/>
		
			<path fill="#231F20" stroke="#231F20" stroke-width="2" stroke-linecap="round" stroke-linejoin="round" stroke-miterlimit="10" d="
			M129.554,260.175c0,0-5.926,9.449-3.383,12.67c2.02,2.559,6.229,3.059,12.453,3.059c6.229,0,7.54-0.008,11.347,0.021
			c3.23,0.025,9.853-3.521-2.033-10.418c-5.521-3.199-10.378-5.332-10.378-5.332H129.554L129.554,260.175z"/>
		
			<path fill="#231F20" stroke="#231F20" stroke-width="2" stroke-linecap="round" stroke-linejoin="round" stroke-miterlimit="10" d="
			M108.031,263.257c0,0-7.082,10.188-4.467,13.662c2.077,2.758,6.411,3.297,12.823,3.297c6.414,0,7.763-0.008,11.68,0.022
			c3.329,0.025,10.143-3.797-2.096-11.231c-5.685-3.451-10.685-5.75-10.685-5.75H108.031z"/>
		<path fill="#A87C4F" stroke="#231F20" stroke-width="1.5" stroke-miterlimit="10" d="M125.809,164.603
			c0,0,28.639,10.11,29.297,11.333c0.64,1.19,3.813,4.303,6.146,6.558c3.755,3.63,7.01,3.28,7.276,1.558
			c0.308-1.996-6.368-6.987-6.368-6.987s5.543,3.504,7.354,3.85c1.891,0.357,3.678-1.598,2.751-3.577
			c-1.688-3.62-6.011-2.589-9.286-3.444c0,0,8.633,1.628,9.756,0.569c1.627-1.542,1.019-2.684-1.063-3.535
			c-1.898-0.786-5.265,0.024-7.149-0.116c-1.885-0.14-2.374-0.858-1.392-1.817c0.983-0.962,3.114-2.894,3.558-3.616
			c0.438-0.727-0.563-2.275-2.509-1.993c-1.403,0.204-8.209,7.758-8.209,7.758l-25.791-13.556L125.809,164.603z"/>
		
			<polygon fill="#D1313D" stroke="#231F20" stroke-width="1.5" stroke-linecap="round" stroke-linejoin="round" stroke-miterlimit="10" points="
			139.954,159.482 123.867,164.763 120.178,153.138 127.531,140.267 		"/>
		<path fill="#603813" d="M97.898,114.712c0,0.135-6.774,5.77-6.774,5.77l-12.9,6.092c0,0,9.131,18.322,19.325,12.513
			c3.308-1.883,4.405-22.75,4.405-22.75"/>
		<path fill="#A87C4F" d="M110.105,127.491c6.805,10.665,34.834,20.157,44.953-1.254c0.949-2.011,5.768-3.212,6.291-5.166
			c1.016-3.804-3.725-4.217-3.725-7.873c0-7.313-2.57-17.193-4.982-21.76c-4.757-9.018-20.897-8.858-27.628-6.597
			c-4.845,1.627-12.979,15.788-12.979,15.788s-6.624-6.533-12.207-1.01c-5.545,5.487-1.83,11.909,3.489,13.261
			c3.306,0.84,5.686-1.52,5.686-1.52S106.01,121.073,110.105,127.491z"/>
		<path fill="#603813" d="M103.399,95.987c0,0,3.406-11.456,10.601-18.212c3.474-3.261,13.513-5.797,18.256-5.42
			c2.768,0.219,8.311,1.73,10.58,3.318c3.99,2.782,14.828,10.002,12.979,14.501c-2.048,4.971-20.77,3.841-20.77,3.841
			s-5.595-8.386-8.904-8.187c-5.114,0.311-13.938,8.847-13.938,13.956"/>
		
			<path fill="none" stroke="#231F20" stroke-width="1.5" stroke-linecap="round" stroke-linejoin="round" stroke-miterlimit="10" d="
			M158.323,113.683c0.546-9.007-2.625-16.881-5.683-22.245"/>
		
			<path fill="none" stroke="#231F20" stroke-width="1.5" stroke-linecap="round" stroke-linejoin="round" stroke-miterlimit="10" d="
			M110.105,127.491c5.514,11.386,35.263,19.542,45.383-1.87"/>
		<path fill="none" stroke="#231F20" stroke-width="2" stroke-linecap="round" stroke-linejoin="round" stroke-miterlimit="10" d="
			M111.575,217.216"/>
		
			<path fill="#8EB2C5" stroke="#231F20" stroke-width="1.5" stroke-linecap="round" stroke-linejoin="round" stroke-miterlimit="10" d="
			M142.679,182.802l2.612,41.166c0,0-9.33,1.938-18.582,1.938c-4.46,0-17.82-0.229-17.82-0.229l2.705-44.164"/>
		<path fill="#231F20" d="M140.746,101.627c1.128,0.106,1.87,1.942,1.659,4.096c-0.211,2.156-1.297,3.812-2.424,3.704
			c-1.128-0.113-1.869-1.949-1.656-4.104C138.535,103.169,139.62,101.513,140.746,101.627z"/>
		<path fill="#231F20" d="M152.746,99.627c1.128,0.106,1.87,1.942,1.659,4.096c-0.211,2.156-1.297,3.812-2.424,3.704
			c-1.128-0.113-1.869-1.949-1.656-4.104C150.535,101.169,151.62,99.513,152.746,99.627z"/>
		<path fill="none" stroke="#231F20" stroke-width="2" stroke-linecap="round" stroke-linejoin="round" stroke-miterlimit="10" d="
			M140.145,75.673c11.14,3.396,17.368,17.546,17.479,18.342"/>
		<path fill="none" stroke="#231F20" stroke-width="2" stroke-linecap="round" stroke-linejoin="round" stroke-miterlimit="10" d="
			M140.145,75.673c11.14,3.396,17.368,17.546,17.479,18.342"/>
		<path fill="none" stroke="#231F20" stroke-width="2" stroke-linecap="round" stroke-linejoin="round" stroke-miterlimit="10" d="
			M132.253,75.673c11.144,3.396,17.369,17.546,17.482,18.342"/>
		<path fill="none" stroke="#231F20" stroke-width="2" stroke-linecap="round" stroke-linejoin="round" stroke-miterlimit="10" d="
			M129.295,79.374c8.657,4.996,13.438,15.915,13.538,16.611"/>
		<path fill="none" stroke="#231F20" stroke-width="2" stroke-linecap="round" stroke-linejoin="round" stroke-miterlimit="10" d="
			M125.014,82.388c7.623,5.327,11.813,14.92,11.901,15.571"/>
		<path fill="none" stroke="#231F20" stroke-width="2" stroke-linecap="round" stroke-linejoin="round" stroke-miterlimit="10" d="
			M122.661,86.055c-9.877,7.36-10.628,14.574-10.628,14.574s-3.258-3.894-6.945-3.49c-3.687,0.403-6.259,2.193-7.393,7.063
			c-1.14,4.899,4.521,9.15,8.512,8.636c2.548-0.33,2.794-1.477,2.794-1.477s-2.729,4.023-0.789,12.798"/>
		
			<path fill="none" stroke="#231F20" stroke-width="1.5" stroke-linecap="round" stroke-linejoin="round" stroke-miterlimit="10" d="
			M101.952,105.17c0,0,4.103-5.76,7.909-1.084"/>
		
			<path fill="none" stroke="#231F20" stroke-width="1.5" stroke-linecap="round" stroke-linejoin="round" stroke-miterlimit="10" d="
			M106.01,106.609c-1.404-1.986-1.013-3.997-1.013-3.997"/>
		<path fill="none" stroke="#231F20" stroke-width="2" stroke-linecap="round" stroke-linejoin="round" stroke-miterlimit="10" d="
			M129.295,75.047c-15.237,4.327-21.32,18.968-21.32,18.968"/>
		<path fill="none" stroke="#231F20" stroke-width="2" stroke-linecap="round" stroke-linejoin="round" stroke-miterlimit="10" d="
			M136.068,72.813c-16.335-2.675-28.849,6.563-32.669,21.964"/>
		<path fill="none" stroke="#231F20" stroke-width="2" stroke-linecap="round" stroke-linejoin="round" stroke-miterlimit="10" d="
			M99.153,113.199c-7.129,8.397-15.558,11.944-22.314,13.374"/>
		<path fill="none" stroke="#231F20" stroke-width="2" stroke-linecap="round" stroke-linejoin="round" stroke-miterlimit="10" d="
			M97.617,115.386c-4.291,10.108-11.189,15.957-17.129,19.292"/>
		<path fill="none" stroke="#231F20" stroke-width="2" stroke-linecap="round" stroke-linejoin="round" stroke-miterlimit="10" d="
			M100.569,114.87c-1.432,12.667-7.123,21.41-12.573,27.038"/>
		<path fill="#231F20" d="M104.829,116.039c-0.54,1.016-2.09,1.244-3.465,0.516l-3.469-1.844c-1.375-0.73-2.056-2.145-1.516-3.159
			l0,0c0.538-1.014,2.091-1.244,3.467-0.516l3.468,1.844C104.693,113.612,105.369,115.028,104.829,116.039L104.829,116.039z"/>
		
			<path fill="none" stroke="#231F20" stroke-width="1.5" stroke-linecap="round" stroke-linejoin="round" stroke-miterlimit="10" d="
			M150.616,109.519c19.873,10.662,8.646,17.059-2.051,13.778"/>
		<polyline fill="#FFFFFF" points="109,182.846 107.781,200.504 112.539,199.74 112.143,184.052 108.889,182.483 		"/>
		<path fill="#A87C4F" stroke="#231F20" stroke-width="1.5" stroke-miterlimit="10" d="M98.029,160.935
			c0,0,5.402,28.679,4.344,29.813c-1.033,1.102-3.081,5.461-4.552,8.652c-2.367,5.14-0.584,8.209,1.428,7.793
			c2.325-0.479,4.933-9.041,4.933-9.041s-1.457,6.855-1.061,8.775c0.42,2.006,3.34,2.998,5.117,1.303
			c1.041-0.994-0.221-10.521-0.221-10.521s1.934,9.163,3.581,9.853c2.394,0.998,3.386-0.055,3.428-2.44
			c0.04-2.188-2.3-5.187-2.959-7.104c-0.656-1.918-0.08-2.682,1.396-2.09c1.479,0.593,4.521,1.935,5.507,2.08
			c0.983,0.146,2.26-1.446,1.106-3.258c-0.828-1.311-12.063-5.039-12.063-5.039l0.701-25.631L98.029,160.935z"/>
		<path fill="none" stroke="#231F20" stroke-width="2" stroke-linecap="round" stroke-linejoin="round" stroke-miterlimit="10" d="
			M101.952,116.335c1.563,10.904-3.21,19.565-6.619,25.573"/>
		<path fill="#231F20" d="M126.415,124.044c1.61-1.059,5.406,4.3,9.084,3.423c3.676-0.876,7.609-2.867,9.766-0.895
			c1.98,1.817,1.257,4.65-1.479,6.15C130.956,139.763,122.749,126.45,126.415,124.044z"/>
		
			<path fill="#D1313D" stroke="#231F20" stroke-width="1.5" stroke-linecap="round" stroke-linejoin="round" stroke-miterlimit="10" d="
			M108.214,190.989c0,0,8.093,5.898,18.077,6.314c10.401,0.434,19.847-3.504,19.847-3.504s-7.85-49.187-17.867-53.109l-14.799-6.269
			L94.57,163.609l13.626,3.756l7.56-23.666l-6.571,22.682L108.214,190.989z"/>
	</g>
	<path fill="none" stroke="#231F20" stroke-width="2" stroke-linecap="round" stroke-linejoin="round" stroke-miterlimit="10" d="
		M176.927,172.388"/>
	<path fill="none" stroke="#231F20" stroke-width="1.4" stroke-linecap="round" stroke-linejoin="round" stroke-miterlimit="10" d="
		M141.042,96.819c-2.81-0.082-6.84,1.931-7.454,5.076"/>
	<path fill="none" stroke="#231F20" stroke-width="1.4" stroke-linecap="round" stroke-linejoin="round" stroke-miterlimit="10" d="
		M155.042,93.819c-1.648-0.048-3.725,0.628-5.275,1.832"/>
	<path fill="none" stroke="#231F20" stroke-width="1.4" stroke-linecap="round" stroke-linejoin="round" stroke-miterlimit="10" d="
		M381.017,64.082c2.65-0.938,7.104-0.256,8.65,2.551"/>
	<path fill="none" stroke="#231F20" stroke-width="1.4" stroke-linecap="round" stroke-linejoin="round" stroke-miterlimit="10" d="
		M369.592,64.819c1.648-0.048,3.725,0.628,5.275,1.832"/>
</g>
</svg>
