<?xml version="1.0" encoding="utf-8"?>
<!-- Generator: Adobe Illustrator 16.0.0, SVG Export Plug-In . SVG Version: 6.00 Build 0)  -->
<!DOCTYPE svg PUBLIC "-//W3C//DTD SVG 1.1//EN" "http://www.w3.org/Graphics/SVG/1.1/DTD/svg11.dtd">
<svg version="1.1" id="Layer_1" xmlns="http://www.w3.org/2000/svg" xmlns:xlink="http://www.w3.org/1999/xlink" x="0px" y="0px"
	 width="354.33px" height="325.984px" viewBox="0 0 354.33 325.984" enable-background="new 0 0 354.33 325.984"
	 xml:space="preserve">
<g>
	<rect x="133.062" y="262.179" fill="#231F20" width="3" height="19"/>
	<g>
		
			<path fill="none" stroke="#231F20" stroke-width="1.5" stroke-linecap="round" stroke-linejoin="round" stroke-miterlimit="10" d="
			M18.062,139.179h125.001c0,0,41.209,0.294,54.344,0s29.916,0,29.916,0"/>
		
			<path fill="none" stroke="#231F20" stroke-width="1.5" stroke-linecap="round" stroke-linejoin="round" stroke-miterlimit="10" d="
			M227.064,147.179H102.323c0,0-41.21,0.294-54.345,0c-13.134-0.294-30.045,0-30.045,0"/>
		
			<line fill="none" stroke="#231F20" stroke-width="1.5" stroke-linecap="round" stroke-linejoin="round" stroke-miterlimit="10" x1="83.062" y1="52.179" x2="83.062" y2="139.179"/>
		
			<line fill="none" stroke="#231F20" stroke-width="1.5" stroke-linecap="round" stroke-linejoin="round" stroke-miterlimit="10" x1="147.062" y1="52.179" x2="147.062" y2="139.179"/>
		
			<line fill="none" stroke="#231F20" stroke-width="1.5" stroke-linecap="round" stroke-linejoin="round" stroke-miterlimit="10" x1="152.062" y1="52.179" x2="152.062" y2="139.179"/>
		<rect x="135.062" y="81.179" fill="#231F20" width="3" height="19"/>
		<rect x="159.062" y="81.179" fill="#231F20" width="3" height="19"/>
	</g>
	<g>
		<path fill="#8B5E3C" stroke="#231F20" stroke-width="1.5" stroke-miterlimit="10" d="M48.918,165.047
			c0,0,1.835,10.396,9.628,10.846c4.271,0.246,17.01,0,18.361-1.852c0,0,1.279-4.697,4.128-6.689
			c2.847-1.992,4.784-1.563,5.337,0.355c0.345,1.193,0.781-0.215,1.922,0.926c1.14,1.139,0.837,2.387,0.711,2.846
			c-0.134,0.492,1.699-0.348,1.495,1.852c-0.283,3.061-5.124,5.125-9.606,2.57c-1.387-0.791-11.602,2.813-14.52,2.98
			c-7.044,0.412-15.479-1.939-17.742-6.219C46.816,169.236,48.918,165.047,48.918,165.047z"/>
		
			<ellipse fill="#8B5E3C" stroke="#231F20" stroke-width="1.5" stroke-miterlimit="10" cx="41.228" cy="131.663" rx="5.545" ry="5.033"/>
		
			<ellipse fill="#8B5E3C" stroke="#231F20" stroke-width="1.5" stroke-miterlimit="10" cx="62.323" cy="129.36" rx="18.682" ry="20.643"/>
		
			<path fill="#615375" stroke="#231F20" stroke-width="1.5" stroke-linecap="round" stroke-linejoin="round" stroke-miterlimit="10" d="
			M52.763,149.138l-1.385,17.155l-3.886-0.518l-0.854,18.824c0,0-12.261,0.922-14.274-0.977c-1.91-1.797,3.319-19.596,3.319-19.596
			l-2.277-1.135l14.498-18.028L52.763,149.138z"/>
		<path fill="none" stroke="#231F20" stroke-width="2" stroke-linecap="round" stroke-linejoin="round" stroke-miterlimit="10" d="
			M77.466,167.349"/>
		
			<path fill="none" stroke="#231F20" stroke-width="1.5" stroke-linecap="round" stroke-linejoin="round" stroke-miterlimit="10" d="
			M82.314,169.131c0,0-0.711,3.338,1.688,2.959c0.604-0.098,2.653-1.893,2.653-3.895"/>
		<path fill="#8B5E3C" stroke="#231F20" stroke-width="1.5" stroke-miterlimit="10" d="M84.729,172.349c0,0-0.294,2.607,1.43,2.332
			c0.604-0.1,2.435-1.521,2.914-3.268"/>
		
			<ellipse fill="#8B5E3C" stroke="#231F20" stroke-width="1.5" stroke-miterlimit="10" cx="75.758" cy="170.208" rx="2.705" ry="2.856"/>
		<path fill="#231F20" d="M74.185,123.856c0,1.409,0.676,2.558,1.511,2.558c0.837,0,1.512-1.147,1.512-2.558
			c0-1.411-0.675-2.554-1.512-2.554C74.861,121.303,74.185,122.446,74.185,123.856z"/>
		<path fill="#231F20" d="M62.185,123.856c0,1.409,0.676,2.558,1.511,2.558c0.837,0,1.512-1.147,1.512-2.558
			c0-1.411-0.675-2.554-1.512-2.554C62.861,121.303,62.185,122.446,62.185,123.856z"/>
		
			<line fill="none" stroke="#231F20" stroke-width="2" stroke-linecap="round" stroke-linejoin="round" stroke-miterlimit="10" x1="65.632" y1="118.612" x2="59.427" y2="118.389"/>
		
			<line fill="none" stroke="#231F20" stroke-width="2" stroke-linecap="round" stroke-linejoin="round" stroke-miterlimit="10" x1="79.744" y1="118.175" x2="73.57" y2="118.825"/>
		
			<path fill="none" stroke="#231F20" stroke-width="1.5" stroke-linecap="round" stroke-linejoin="round" stroke-miterlimit="10" d="
			M69.229,144.868c-6.59,3.354-14.313-2.393-14.52-6.831"/>
		
			<polyline fill="none" stroke="#231F20" stroke-width="2" stroke-linecap="round" stroke-linejoin="round" stroke-miterlimit="10" points="
			73.185,107.995 71.31,110.226 63.728,104.945 60.776,108.719 55.486,106.017 		"/>
		
			<polyline fill="none" stroke="#231F20" stroke-width="2" stroke-linecap="round" stroke-linejoin="round" stroke-miterlimit="10" points="
			52.062,107.179 52.062,111.117 45.687,111.921 46.598,115.141 40.792,122.297 		"/>
		
			<path fill="#D1313D" stroke="#231F20" stroke-width="1.5" stroke-linecap="round" stroke-linejoin="round" stroke-miterlimit="10" d="
			M81.462,164.845c0,0-2.521-10.44-6.295-9.709c-2.271,0.439-1.821,5.486-1.279,6.369c1.279,2.086,3.333,2.573,4.869,3.34
			c1.537,0.77,5.263,13.021,5.247,13.242c-0.017,0.219,3.17,3.186,3.17,0C87.174,174.9,81.462,164.845,81.462,164.845z"/>
		
			<path fill="none" stroke="#231F20" stroke-width="1.4" stroke-linecap="round" stroke-linejoin="round" stroke-miterlimit="10" d="
			M75.167,156.236c0,0,0.887,7.334,5.04,6.479"/>
		<ellipse fill="#8B5E3C" cx="79.876" cy="134.37" rx="5.495" ry="4.306"/>
		
			<path fill="none" stroke="#231F20" stroke-width="1.5" stroke-linecap="round" stroke-linejoin="round" stroke-miterlimit="10" d="
			M74.381,129.74c0,0,10.96-2.295,10.989,4.799c0.023,6.348-10.018,4.122-10.989,4.122"/>
		
			<polyline fill="none" stroke="#231F20" stroke-width="1.5" stroke-linecap="round" stroke-linejoin="round" stroke-miterlimit="10" points="
			48.015,150.706 41.775,166.047 35.518,163.947 		"/>
	</g>
	<g>
		<path fill="none" stroke="#231F20" stroke-width="2" stroke-linecap="round" stroke-linejoin="round" stroke-miterlimit="10" d="
			M226.761,141.29"/>
		
			<ellipse transform="matrix(0.2006 -0.9797 0.9797 0.2006 72.0855 314.452)" fill="#F9BF76" stroke="#231F20" stroke-width="1.5" stroke-linecap="round" stroke-linejoin="round" stroke-miterlimit="10" cx="228.724" cy="113.055" rx="5.092" ry="4.979"/>
		<path fill="#F9BF76" d="M194.224,126.951c1.1,1.998,2.551,4.085,6.354,6.543c6.104,3.942,23.779,0.882,27.665-10.583
			c2.52-7.434,0.783-18.581-6.342-25.818c-10.097-10.259-25.186-2.185-28.544,4.198C192.77,102.406,185.565,111.169,194.224,126.951
			z"/>
		<path fill="#231F20" d="M204.159,110.509c0.072,1.918-0.618,3.494-1.54,3.527c-0.919,0.035-1.724-1.486-1.795-3.406
			c-0.069-1.912,0.619-3.486,1.541-3.521C203.284,107.075,204.089,108.596,204.159,110.509z"/>
		<path fill="#231F20" d="M195.159,110.509c0.072,1.918-0.618,3.494-1.54,3.527c-0.919,0.035-1.724-1.486-1.795-3.406
			c-0.069-1.912,0.619-3.486,1.541-3.521C194.284,107.075,195.089,108.596,195.159,110.509z"/>
		
			<path fill="none" stroke="#231F20" stroke-width="1.5" stroke-linecap="round" stroke-linejoin="round" stroke-miterlimit="10" d="
			M201.985,128.844c8.854,2.745,14.798-1.283,16.682-3.336"/>
		
			<path fill="#F9BF76" stroke="#231F20" stroke-width="1.5" stroke-linecap="round" stroke-linejoin="round" stroke-miterlimit="10" d="
			M216.366,147.932c0,0-5.647,11.5-7.93,14.429c-2.466,3.159-3.603,6.208-4.746,6.241c-1.146,0.029-4.222-0.623-7.26,0.754
			c-3.979,1.801-7.008,3.295-6.852,8.229c0.07,2.139,1.793,3.527,3.085,2.332c1.289-1.193,3.037-4.078,4.324-6.02
			c1.07-1.615,5.318-2.408,6.219-0.559c0.901,1.85-2.026,6.111-0.262,7.785c1.768,1.672,3.313,0.297,3.704-1.068
			c0.388-1.367,0.62-4.225,0.155-6.119c-0.462-1.896-0.742-2.129-0.201-2.809c3.675-4.627,14.465-20.528,14.948-21.816
			L216.366,147.932z"/>
		<path fill="none" stroke="#231F20" stroke-width="2" stroke-linecap="round" stroke-linejoin="round" stroke-miterlimit="10" d="
			M194.383,95.469c12.765-12.116,24.281-0.96,24.281-0.96s2.14-5.096,5.089-6.121"/>
		
			<path fill="#F9BF76" stroke="#231F20" stroke-width="1.5" stroke-linecap="round" stroke-linejoin="round" stroke-miterlimit="10" d="
			M209.908,147.424c0,0,3.816-7.357,3.356-9.252c-0.605-2.504-2.226-2.45-3.029-1.423c-0.807,1.025-1.12,2.854-1.819,4.604
			c-0.698,1.751-3.119,2.098-3.666,0.708c-0.546-1.388-2.27-5.061-2.604-5.896c-0.342-0.836-2.261-3.529-3.444-1.899
			c-1.185,1.63-0.669,6.583-0.669,6.583c0.376,0.247-1.866,0.796-0.229,3.609c1.638,2.813,5.335,5.432,9.133,4.424
			c1.71-0.454,2.282,10.448,7.156,12.162c5.793,2.037,8.636,0.862,10.755-1.596c2.12-2.457,5.138-7.288,5.138-7.288l-4.061-1.119
			c0,0-1.179,5.351-4.691,6.842c-3.517,1.493-7.868-0.95-8.528-2.7C212.039,153.433,209.908,147.424,209.908,147.424z"/>
		
			<ellipse transform="matrix(0.2006 -0.9797 0.9797 0.2006 35.3296 288.3937)" fill="#F9BF76" cx="194.378" cy="122.549" rx="4.508" ry="5.769"/>
		
			<path fill="none" stroke="#231F20" stroke-width="1.5" stroke-linecap="round" stroke-linejoin="round" stroke-miterlimit="10" d="
			M196.577,116.142c0,0-8.104,1.049-8.174,5.39c-0.104,6.354,8.479,5.584,9.87,4.807"/>
		
			<path fill="#FFFFFF" stroke="#231F20" stroke-width="1.5" stroke-linecap="round" stroke-linejoin="round" stroke-miterlimit="10" d="
			M220.707,132.865c0.753,6.219-6.72,16.021-6.72,16.021s2.719,5.074,4.479,4.586c0.458-0.125,3.332-3.229,3.332-3.229
			s6.188,1.222,7.702,2.675c3.409,3.269-1.573,20.386-1.573,20.386s19.622,2.059,19.622-0.107
			c0.001-24.565-18.545-41.23-20.651-42.98C224.789,128.464,220.494,131.102,220.707,132.865z"/>
		
			<path fill="none" stroke="#231F20" stroke-width="1.5" stroke-linecap="round" stroke-linejoin="round" stroke-miterlimit="10" d="
			M198.074,135.781c0,0-1.473,4.761,4.319,9.968"/>
		<path fill="none" stroke="#231F20" stroke-width="2" stroke-linecap="round" stroke-linejoin="round" stroke-miterlimit="10" d="
			M189.881,93.814c14.448-9.795,28.783,0.694,28.783,0.694c2.771-2.279,5.08-1.536,6.871,0.092"/>
		<path fill="none" stroke="#231F20" stroke-width="2" stroke-linecap="round" stroke-linejoin="round" stroke-miterlimit="10" d="
			M200.55,98.26c10.896-10.521,24.41-1.038,24.41-1.038"/>
		
			<path fill="none" stroke="#231F20" stroke-width="1.5" stroke-linecap="round" stroke-linejoin="round" stroke-miterlimit="10" d="
			M217.547,123.464c0,0,2.063,3.126,4.116,3.648"/>
		
			<path fill="none" stroke="#231F20" stroke-width="1.5" stroke-linecap="round" stroke-linejoin="round" stroke-miterlimit="10" d="
			M194.162,101.29c1.447-7.067,18.449-14.457,28.545-4.198c7.125,7.237,8.859,18.386,6.342,25.818
			c-3.887,11.465-21.561,14.525-27.665,10.583c-3.805-2.458-6.353-6.543-6.353-6.543"/>
	</g>
	<polygon fill="#231F20" stroke="#231F20" stroke-width="1.5" stroke-miterlimit="10" points="226.926,173.302 226.038,184.824 
		249.764,183.336 246.549,173.191 	"/>
	<g>
		
			<path fill="none" stroke="#231F20" stroke-width="1.5" stroke-linecap="round" stroke-linejoin="round" stroke-miterlimit="10" d="
			M314.064,221.179H137.268c0,0-58.272,0.295-76.849,0c-18.571-0.293-42.292,0-42.292,0"/>
		<rect x="181.063" y="239.179" fill="#231F20" width="19.001" height="3"/>
		<rect x="181.063" y="269.179" fill="#231F20" width="19.001" height="3"/>
		<rect x="181.063" y="298.179" fill="#231F20" width="19.001" height="3"/>
		<rect x="246.064" y="262.179" fill="#231F20" width="3" height="19"/>
		
			<polygon fill="none" stroke="#231F20" stroke-width="1.5" stroke-linecap="round" stroke-linejoin="round" stroke-miterlimit="10" points="
			156.359,230.474 155.688,252.179 227.064,252.179 227.064,230.179 		"/>
		
			<polygon fill="none" stroke="#231F20" stroke-width="1.5" stroke-linecap="round" stroke-linejoin="round" stroke-miterlimit="10" points="
			240.361,230.404 239.69,312.179 311.064,312.179 311.064,230.179 		"/>
		
			<polygon fill="none" stroke="#231F20" stroke-width="1.5" stroke-linecap="round" stroke-linejoin="round" stroke-miterlimit="10" points="
			72.359,230.404 71.688,312.179 143.062,312.179 143.062,230.179 		"/>
		
			<polyline fill="none" stroke="#231F20" stroke-width="1.5" stroke-linecap="round" stroke-linejoin="round" stroke-miterlimit="10" points="
			17.688,312.179 62.062,312.179 62.062,230.179 17.359,230.404 		"/>
		
			<path fill="none" stroke="#231F20" stroke-width="1.5" stroke-linecap="round" stroke-linejoin="round" stroke-miterlimit="10" d="
			M-9.312,312.179"/>
		
			<polygon fill="none" stroke="#231F20" stroke-width="1.5" stroke-linecap="round" stroke-linejoin="round" stroke-miterlimit="10" points="
			156.359,288.474 155.688,310.179 227.064,310.179 227.064,288.179 		"/>
		
			<polygon fill="none" stroke="#231F20" stroke-width="1.5" stroke-linecap="round" stroke-linejoin="round" stroke-miterlimit="10" points="
			156.359,260.474 155.688,282.179 227.064,282.179 227.064,260.179 		"/>
		<rect x="25.062" y="177.179" fill="#FFFFFF" width="289.001" height="39"/>
		
			<path fill="none" stroke="#231F20" stroke-width="1.5" stroke-linecap="round" stroke-linejoin="round" stroke-miterlimit="10" d="
			M299.064,177.179H131.427c0,0-55.424,0.295-73.086,0c-17.664-0.293-40.476,0-40.476,0"/>
		
			<path fill="none" stroke="#231F20" stroke-width="1.5" stroke-linecap="round" stroke-linejoin="round" stroke-miterlimit="10" d="
			M314.064,216.179H137.268c0,0-58.272,0.295-76.849,0c-18.571-0.293-42.292,0-42.292,0"/>
	</g>
	<path fill="#8B5E3C" stroke="#231F20" stroke-width="1.5" stroke-miterlimit="10" d="M39.037,165.426
		c0.373-2.82-1.628,11.885,9.396,12.916c7.22,0.674,12.748-2.551,13.149-3.086c0.4-0.537-0.136-13.287,3.086-14.36
		c3.221-1.071,4.159-0.134,3.758,1.61c-0.402,1.746-4.965,7.111-4.025,9.392c0.938,2.283,2.858,3.088,4.112,2.148
		c1.254-0.941,5.198-0.064,2.999,2.416c-2.146,2.418-7.482,0.621-7.482,0.621s-8.985,5.021-14.933,4.67
		c-6.793-0.406-11.032-5.109-12.203-8.244c-0.991-2.652-1.01-9.111-1.01-9.111L39.037,165.426z"/>
	<g>
		<ellipse opacity="0.7" fill="#FFFFFF" enable-background="new    " cx="106.802" cy="177.435" rx="6.494" ry="1.461"/>
		<path fill="none" stroke="#231F20" stroke-width="1.2" stroke-miterlimit="10" d="M99.283,163.455c0,0,0.551,15.615,2.625,19.613
			c1.465,2.82,8.148,3.031,9.641,0.211c1.857-3.514,3.08-20.356,3.08-20.356"/>
		<path fill="none" stroke="#231F20" stroke-width="1.2" stroke-miterlimit="10" d="M99.283,163.073
			c0,1.182,2.771,2.141,7.638,2.141s7.708-0.959,7.708-2.141c0-1.183-2.842-2.142-7.708-2.142
			C102.054,160.931,99.283,161.89,99.283,163.073z"/>
		<path fill="none" stroke="#231F20" stroke-width="1.2" stroke-miterlimit="10" d="M100.454,172.133
			c0,1.016,2.378,1.838,6.547,1.838c4.171,0,6.604-0.822,6.604-1.838c0-1.012-2.437-1.834-6.604-1.834
			C102.831,170.297,100.454,171.117,100.454,172.133z"/>
	</g>
	<g>
		
			<ellipse fill="none" stroke="#231F20" stroke-width="1.3" stroke-miterlimit="10" cx="165.796" cy="187.849" rx="50.179" ry="14.566"/>
		<path fill="#F9BF76" stroke="#231F20" stroke-miterlimit="10" d="M201.395,168.804c-24.163-7.817-70.325-1.74-71.894,0.143
			c-3.479,4.174-4.556,14.199-1.818,17.338c0.381,0.438,5.102,7.262,37.796,7.455c20.752,0.125,35.717-3.277,37.24-7.443
			c0.043-0.039,0.094-0.078,0.13-0.115C205.801,183.23,205.422,170.105,201.395,168.804z"/>
		
			<ellipse fill="#FFFFFF" stroke="#231F20" stroke-width="1.3" stroke-miterlimit="10" cx="165.477" cy="169.648" rx="36.128" ry="7.822"/>
		<path fill="#8B5E3C" d="M127.73,168.844c-1.419,1.506-1.952,6.039-2.333,8.121c-0.114,0.637,0.741,4.232,2.333,0.926
			c1.783-3.707,2.732-4.127,4-3.93c2.096,0.324,0.558,9.672,2.833,10.141c3.229,0.666,2.68-3.303,5.347-5.207
			c2.667-1.902,8.527-1.389,8.82,3.824c0.177,3.113,0.508,4.105,2.084,4.715c2.729,1.053,3.583-3.16,3.916-4.543
			s0.771-3.328,2.833-1.902c1.17,0.809,0.334,1.209,1.334,2.941c1,1.729,2.242,1.574,3.333,0.518c1.207-1.166,0.707-2.529,2.5-2.422
			c2.521,0.154,1.063,5.715,4.333,5.715c5.244,0,6.334-5.887,7.334-6.061c1-0.172,0.166,1.385,3.166,3.633
			c3,2.25,1.749,6.154,5.5,5.363c3.397-0.717,1.671-7.791,1.999-11.426c0.375-4.146,4.438-3.143,5.336,0.902
			c1.04,4.686,8.479,5.98,7.5-1.26c-0.302-2.217-0.917-4.482,1.708-2.924c2.625,1.557,1.896,4.283,3.178,4.184
			c3.012-0.23,0-11.928-3.944-13.73c-2.96-1.354-13.938-5.415-33.774-5.699C151.594,160.502,133.146,163.096,127.73,168.844z"/>
		<g>
			
				<ellipse fill="#ED1C24" stroke="#231F20" stroke-width="0.75" stroke-miterlimit="10" cx="166.049" cy="161.811" rx="4.052" ry="3.697"/>
			
				<path fill="#ED1C24" stroke="#231F20" stroke-width="0.75" stroke-linecap="round" stroke-linejoin="round" stroke-miterlimit="10" d="
				M165.228,159.577c1.496,1.187,2.271,0.464,2.271,0.464"/>
			
				<path fill="none" stroke="#231F20" stroke-width="0.75" stroke-linecap="round" stroke-linejoin="round" stroke-miterlimit="10" d="
				M168.5,155.898c0,0-2.452,2.216-1.964,3.9"/>
		</g>
	</g>
	<path fill="#FFFFFF" stroke="#231F20" stroke-width="0.75" stroke-miterlimit="10" d="M125.282,14.012
		c-33.84,0-73.019,17.688-72.026,52.729c0.866,30.613,26.942,41.525,49.859,49.166c-1.455,2.644-4.006,5.993-8.465,9.612
		c-9.057,7.354,14.087-2.497,17.956-7.175l-0.005-0.009c4.092,0.74,8.332,1.135,12.681,1.135c33.881,0,80.932-11.399,81.141-52.729
		C206.62,28.121,178.396,14.011,125.282,14.012z"/>
	<text transform="matrix(1 0 0 1 85.6223 41.3757)" fill="#231F20" font-family="'JandaCapslock'" font-size="10.4404">Terminamos! Mas </text>
	<text transform="matrix(1 0 0 1 73.2693 54.6648)" fill="#231F20" font-family="'JandaCapslock'" font-size="10.4404">agora preciso ir que </text>
	<text transform="matrix(1 0 0 1 78.2546 67.9519)" fill="#231F20" font-family="'JandaCapslock'" font-size="10.4404">minha mãe está me </text>
	<text transform="matrix(1 0 0 1 65.1946 81.24)" fill="#231F20" font-family="'JandaCapslock'" font-size="10.4404">esperando. Vou avisá-la </text>
	<text transform="matrix(1 0 0 1 82.8943 94.5271)" fill="#231F20" font-family="'JandaCapslock'" font-size="10.4404">que já estou indo.</text>
	<path fill="#FFFFFF" stroke="#231F20" stroke-width="0.75" stroke-miterlimit="10" d="M279.275,13.805
		c-28.797,0-62.143,15.24-61.3,45.434c0.737,26.378,22.932,35.779,42.435,42.362c-1.237,2.278-3.406,5.164-7.201,8.283
		c-7.708,6.336,11.987-2.151,15.28-6.182l-0.004-0.008c3.48,0.637,7.091,0.978,10.79,0.978c28.834,0,68.877-9.823,69.055-45.434
		C348.497,25.964,324.479,13.805,279.275,13.805z"/>
	<text transform="matrix(1 0 0 1 236.05 44.0417)" fill="#231F20" font-family="'JandaCapslock'" font-size="10.4404">Certo, vou dividir </text>
	<text transform="matrix(1 0 0 1 234.1047 57.3308)" fill="#231F20" font-family="'JandaCapslock'" font-size="10.4404">meio a meio para </text>
	<text transform="matrix(1 0 0 1 233.6692 70.6189)" fill="#231F20" font-family="'JandaCapslock'" font-size="10.4404">você levar a sua </text>
	<text transform="matrix(1 0 0 1 236.4036 83.905)" fill="#231F20" font-family="'JandaCapslock'" font-size="10.4404">metade com você.</text>
</g>
</svg>
