<?xml version="1.0" encoding="utf-8"?>
<!-- Generator: Adobe Illustrator 16.0.0, SVG Export Plug-In . SVG Version: 6.00 Build 0)  -->
<!DOCTYPE svg PUBLIC "-//W3C//DTD SVG 1.1//EN" "http://www.w3.org/Graphics/SVG/1.1/DTD/svg11.dtd">
<svg version="1.1" id="Layer_1" xmlns="http://www.w3.org/2000/svg" xmlns:xlink="http://www.w3.org/1999/xlink" x="0px" y="0px"
	 width="368.504px" height="311.813px" viewBox="0 0 368.504 311.813" enable-background="new 0 0 368.504 311.813"
	 xml:space="preserve">
<g>
	<path fill="none" stroke="#231F20" stroke-width="1.5" stroke-linecap="round" stroke-linejoin="round" stroke-miterlimit="10" d="
		M267.017,244.356h-34.74h-20.514H110.595H88.132c0,0-58.409,2.461-65.235-0.121"/>
	<path fill="none" stroke="#231F20" stroke-width="2" stroke-linecap="round" stroke-linejoin="round" stroke-miterlimit="10" d="
		M227.847,186.936"/>
	
		<polyline fill="none" stroke="#231F20" stroke-width="2" stroke-linecap="round" stroke-linejoin="round" stroke-miterlimit="10" points="
		232.717,105.035 241.865,134.819 253.148,130.842 234.734,94.635 	"/>
	
		<polyline fill="none" stroke="#231F20" stroke-width="2" stroke-linecap="round" stroke-linejoin="round" stroke-miterlimit="10" points="
		231.273,134.819 225.556,133.819 225.556,102.985 	"/>
	<path fill="#FFFFFF" d="M226.113,162.496c-1.873,1.549,0.221,3.361,3.623,3.16s8.695-3.889,8.695-3.889
		c-0.146-2.427-0.605-3.537-4.008-3.336C231.023,158.631,226.654,162.045,226.113,162.496z"/>
	
		<ellipse transform="matrix(-0.7778 -0.6285 0.6285 -0.7778 314.0689 454.7623)" fill="#FFFFFF" cx="237.414" cy="171.869" rx="4.397" ry="6.17"/>
	<path fill="#231F20" d="M229.832,168.698c0,0-2.402,39.238-2.361,52.52c0.021,7.609,1.021,36.854,1.021,36.854h7.906
		c0,0-0.896-48.524,0-52.761c0.846-4,1.725-20.521,3.174-23.451c2.014-4.053-0.064-2.26-0.338,0.565
		c-0.115,1.188-1.049,15.966-0.676,21.636c0.377,5.67,2.389,28.496,3.58,37.151c0.127,0.912,1.271,18.351,1.271,18.351
		s6.979,1.179,8.059,0.746c1.076-0.433-2.389-28.349-2.984-35.36c-0.598-7.013,2.836-52.813,2.836-52.813l-0.299-5.375
		L229.832,168.698z"/>
	
		<path fill="#404041" stroke="#231F20" stroke-width="2" stroke-linecap="round" stroke-linejoin="round" stroke-miterlimit="10" d="
		M235.812,258.067c0,0,6.992,11.438,4.254,15.338c-2.174,3.098-6.709,3.703-13.418,3.703c-6.711,0-8.125-0.013-12.223,0.024
		c-3.484,0.028-10.771-5.427,2.189-12.608c6.209-3.439,11.875-6.457,11.875-6.457H235.812L235.812,258.067z"/>
	
		<path fill="#DD9F5B" stroke="#231F20" stroke-width="1.5" stroke-linecap="round" stroke-linejoin="round" stroke-miterlimit="10" d="
		M244.787,133.787c6.914,14.785,10.947,47.025,10.947,47.025s-11.729,5.598-12.479,7.244c-1.043,2.282,0.51,4.071,1.561,3.795
		c1.047-0.277,4.186-2.186,5.717-3.043c1.533-0.859,2.24,0,1.742,2.36c-0.498,2.366-3.098,6.2-2.813,8.819
		c0.313,2.854,2.516,3.681,4.377,2.573c2.125-1.263,2.777-12.161,2.777-12.161s-0.309,11.543,0.926,12.633
		c2.107,1.854,5.154,0.373,5.389-2.071c0.219-2.347-2.115-10.412-2.115-10.412s3.76,9.998,6.328,10.343
		c2.219,0.301,3.807-3.563,0.682-9.482c-1.943-3.684-5.91-9.951-7.145-11.168c-1.271-1.25-5.613-35.065-10.465-48.365
		L244.787,133.787z"/>
	
		<polyline fill="#FFFFFF" stroke="#231F20" stroke-width="1.5" stroke-linecap="round" stroke-linejoin="round" stroke-miterlimit="10" points="
		219.588,133.819 224.412,134.819 228.937,183.555 251.615,173.41 243.888,134.819 244.252,134.819 253.148,130.842 235.328,95.802 
		231.273,99.107 225.556,102.273 218.394,133.819 	"/>
	
		<line fill="none" stroke="#231F20" stroke-width="1.5" stroke-linecap="round" stroke-linejoin="round" stroke-miterlimit="10" x1="227.763" y1="114.808" x2="225.131" y2="134.737"/>
	
		<line fill="none" stroke="#231F20" stroke-width="1.5" stroke-linecap="round" stroke-linejoin="round" stroke-miterlimit="10" x1="234.627" y1="108.862" x2="244.176" y2="135.517"/>
	<path fill="#DD9F5B" d="M209.756,90.851c1.189,2.51,2.758,5.131,6.869,8.221c6.602,4.955,25.709,1.109,29.91-13.295
		c2.727-9.34,0.852-23.346-6.854-32.438c-10.918-12.89-27.23-2.742-30.865,5.274C208.181,60.013,200.392,71.023,209.756,90.851z"/>
	<path fill="none" stroke="#231F20" stroke-width="1.5" stroke-linecap="round" stroke-linejoin="round" stroke-miterlimit="10" d="
		M208.818,57.362c1.563-8.881,19.947-18.164,30.863-5.272c7.703,9.094,9.58,23.1,6.854,32.438
		c-4.201,14.402-23.311,18.25-29.91,13.297c-4.111-3.09-6.869-8.221-6.869-8.221"/>
	<path fill="#231F20" d="M208.59,67.871c-0.037,1.974-0.799,3.552-1.695,3.527c-0.896-0.023-1.596-1.639-1.559-3.613
		c0.039-1.977,0.803-3.551,1.697-3.524C207.933,64.285,208.627,65.898,208.59,67.871z"/>
	<path fill="#231F20" d="M218.14,67.871c-0.039,1.974-0.801,3.552-1.697,3.527s-1.596-1.639-1.559-3.613
		c0.039-1.977,0.801-3.551,1.697-3.524C217.48,64.285,218.177,65.898,218.14,67.871z"/>
	<path fill="none" stroke="#231F20" stroke-width="1.5" stroke-linecap="round" stroke-linejoin="round" stroke-miterlimit="10" d="
		M234.304,82.703c-2.268,6.638-10.168,10.621-15.818,9.627"/>
	<path fill="#DD9F5B" d="M202.551,87.599c1.762,2.563,6.016,2.94,9.502,0.842s4.887-5.879,3.127-8.445
		c-1.762-2.565-6.016-2.944-9.5-0.846C202.191,81.25,200.791,85.033,202.551,87.599z"/>
	<path fill="none" stroke="#231F20" stroke-width="1.5" stroke-linecap="round" stroke-linejoin="round" stroke-miterlimit="10" d="
		M211.398,75.806c0,0-10.184,3.826-10.111,9.313c0.105,8.039,10.898,4.58,12.629,3.656"/>
	
		<path fill="#231F20" stroke="#231F20" stroke-width="1.5" stroke-linecap="round" stroke-linejoin="round" stroke-miterlimit="10" d="
		M233.314,43.066c-0.691-0.236-1.207-0.205-1.604,0.01c-0.611-1.879-2.125-3.422-4.82-3.971
		c-15.781-3.213-33.063,12.559-26.176,21.535c1.48,1.932,18.801-1.765,26.521-7.664c1.113-0.851,4.451-1.39,5.258-2.531
		c0.377,1.582,1.521,2.717,2.646,5.703c2.301,6.123,12.615,9.926,13.045,8.191C248.621,62.605,246.062,47.427,233.314,43.066z"/>
	<path fill="#DD9F5B" stroke="#231F20" stroke-width="1.5" stroke-miterlimit="10" d="M244.332,67.362
		c-0.607,3.461,1.258,6.83,4.172,7.523c2.912,0.692,5.77-1.552,6.379-5.013c0.609-3.463-1.258-6.832-4.172-7.524
		C247.801,61.655,244.943,63.901,244.332,67.362z"/>
	
		<path fill="#404041" stroke="#231F20" stroke-width="2" stroke-linecap="round" stroke-linejoin="round" stroke-miterlimit="10" d="
		M250.435,257.182c0,0,6.994,11.438,4.254,15.338c-2.174,3.094-6.709,3.7-13.418,3.7s-8.125-0.013-12.223,0.024
		c-3.484,0.028-10.771-5.429,2.188-12.608c6.211-3.438,11.877-6.454,11.877-6.454H250.435z"/>
	<path fill="#FFFFFF" stroke="#231F20" stroke-width="1.5" stroke-miterlimit="10" d="M247.01,57.047c0,0-7.326-4.96-13.303-7.548
		c-10.033-4.348-17.373-5.077-17.373-5.077l4.195-12.054l28.377,12.34l4.367,1.58L247.01,57.047z"/>
	<path fill="#FFFFFF" stroke="#231F20" stroke-width="1.5" stroke-miterlimit="10" d="M229.123,10.761c2.6,0,5,0.614,6.984,1.485
		c3.818-1.143,8.689-1.092,13.566,0.443c8.73,2.744,14.277,9.207,12.902,14.756c7.57,3.381,13.717,10.75,12.604,16.469
		c-1.449,7.443-10.527,8.099-22.09,6.218c-7.438-1.211-13.477-4.773-16.453-9.144c-1.086,0.119-2.197,0.185-3.328,0.185
		c-11.727,0-21.229-6.625-21.229-14.796C212.082,18.207,217.4,10.761,229.123,10.761z"/>
	<polygon fill="#FFFFFF" points="111.478,161.811 99.589,200.293 99.589,253.832 334.9,301.051 357.002,157.756 248.146,142.608 
		127.635,141.678 	"/>
	
		<polyline fill="none" stroke="#231F20" stroke-width="1.5" stroke-linecap="round" stroke-linejoin="round" stroke-miterlimit="10" points="
		118.724,146.492 65.943,167.438 353.025,213.102 	"/>
	
		<polyline fill="none" stroke="#231F20" stroke-width="2" stroke-linecap="round" stroke-linejoin="round" stroke-miterlimit="10" points="
		65.589,167.389 65.589,179.578 329.447,224.261 	"/>
	
		<polyline fill="none" stroke="#231F20" stroke-width="2" stroke-linecap="round" stroke-linejoin="round" stroke-miterlimit="10" points="
		93.592,184.725 97.693,254.927 294.717,295.051 	"/>
	<g>
		<g>
			<g>
				<g>
					<defs>
						<path id="SVGID_1_" d="M290.607,166.903c0-5.166-5.969-14.004-23.545-17.979c-5.992-1.355-13.91-2.742-20.91-2.928
							c-4.469-0.115-5.971-0.531-10.586-0.127c-6.535,0.574-10.92,5.188-10.76,10.466c0.27,8.899,31.066,4.301,33.184,12.95
							c2.158,8.822-24.1,18.248-24.1,18.248s22.688,0.31,37.02-4.063c6.641-2.023,14.02-6.7,14.02-6.7
							C288.482,174.055,290.607,170.629,290.607,166.903z"/>
					</defs>
					<clipPath id="SVGID_2_">
						<use xlink:href="#SVGID_1_"  overflow="visible"/>
					</clipPath>
					<g clip-path="url(#SVGID_2_)">
						<path fill="none" stroke="#231F20" stroke-width="3" stroke-miterlimit="10" d="M194.785,166.735
							c0-10.229,21.012-18.551,46.834-18.551c25.824,0,46.834,8.321,46.834,18.551c0,10.229-21.012,18.549-46.834,18.549
							C215.797,185.283,194.785,176.961,194.785,166.735z"/>
						<ellipse fill="#F7C434" cx="241.619" cy="166.734" rx="34.93" ry="13.835"/>
						<path fill="#F9BF76" d="M194.785,166.735c0-10.229,21.012-18.551,46.834-18.551c25.824,0,46.834,8.321,46.834,18.551
							c0,10.229-21.012,18.549-46.834,18.549C215.797,185.283,194.785,176.961,194.785,166.735z M202.676,166.735
							c0,8.504,17.471,15.424,38.941,15.424c21.475,0,38.945-6.92,38.945-15.424c0-8.506-17.473-15.424-38.945-15.424
							C220.146,151.311,202.676,158.229,202.676,166.735z"/>
						<path fill="#D1313D" d="M245.271,156.516c0.279-0.611-0.744-1.193-2.285-1.305c-1.539-0.109-3.014,0.295-3.293,0.902
							c-0.277,0.61,0.744,1.194,2.285,1.308C243.521,157.532,244.994,157.127,245.271,156.516z"/>
						<path fill="#D1313D" d="M255.23,158.369c-0.367,0.801,0.979,1.568,3.002,1.713c2.021,0.146,3.959-0.387,4.326-1.188
							c0.363-0.804-0.98-1.568-3.004-1.713C257.529,157.036,255.594,157.567,255.23,158.369z"/>
						<path fill="#D1313D" d="M246.213,162.43c-0.363,0.803,0.98,1.569,3.004,1.715c2.021,0.146,3.959-0.388,4.326-1.188
							c0.363-0.803-0.979-1.57-3.004-1.715C248.515,161.097,246.578,161.629,246.213,162.43z"/>
						<path fill="#D1313D" d="M217.177,171.614c-0.365,0.803,0.979,1.568,3.002,1.713c2.021,0.146,3.961-0.389,4.326-1.188
							c0.365-0.804-0.979-1.568-3.004-1.714C219.48,170.28,217.543,170.811,217.177,171.614z"/>
						<path fill="#D1313D" d="M273.908,165.91c0.455-0.99-1.211-1.941-3.715-2.121c-2.508-0.18-4.906,0.48-5.359,1.473
							c-0.451,0.994,1.215,1.943,3.723,2.121C271.058,167.565,273.457,166.905,273.908,165.91z"/>
						<path fill="#D1313D" d="M229.687,176.049c1.455,0.104,2.844-0.276,3.104-0.854c0.266-0.576-0.701-1.127-2.152-1.23
							c-1.451-0.103-2.844,0.279-3.105,0.854C227.271,175.395,228.234,175.946,229.687,176.049z"/>
						<path fill="#D1313D" d="M215.433,166.641c-0.234,0.516,0.627,1.006,1.926,1.102c1.299,0.092,2.541-0.248,2.775-0.764
							c0.23-0.515-0.629-1.006-1.928-1.101C216.908,165.785,215.666,166.127,215.433,166.641z"/>
						<path fill="#D1313D" d="M254.482,168.299c-1.535-0.108-3.002,0.295-3.279,0.9c-0.273,0.609,0.742,1.191,2.275,1.301
							c1.535,0.11,3.002-0.293,3.279-0.899C257.035,168.991,256.017,168.41,254.482,168.299z"/>
						<path fill="#D1313D" d="M234.574,162.201c-2.088-0.148-4.088,0.398-4.465,1.229c-0.377,0.825,1.012,1.618,3.102,1.769
							c2.088,0.15,4.086-0.397,4.465-1.228C238.051,163.143,236.662,162.352,234.574,162.201z"/>
						<path fill="#D1313D" d="M228.172,156.34c-2.088-0.146-4.086,0.4-4.465,1.229c-0.377,0.825,1.01,1.618,3.102,1.769
							c2.088,0.147,4.086-0.397,4.465-1.228C231.648,157.282,230.261,156.491,228.172,156.34z"/>
						<path fill="#D1313D" d="M218.816,161.153c-1.785-0.127-3.494,0.342-3.816,1.051c-0.32,0.705,0.861,1.385,2.648,1.512
							c1.785,0.127,3.494-0.344,3.816-1.049C221.787,161.957,220.603,161.28,218.816,161.153z"/>
						<path fill="#D1313D" d="M267.006,172.789c0.352-0.77-0.938-1.502-2.873-1.641c-1.938-0.14-3.791,0.371-4.143,1.139
							c-0.348,0.766,0.939,1.5,2.875,1.639C264.801,174.065,266.654,173.555,267.006,172.789z"/>
						<path fill="#D1313D" d="M250.82,177.561c0.498-1.093-1.334-2.138-4.092-2.334c-2.76-0.199-5.398,0.526-5.896,1.618
							c-0.498,1.095,1.334,2.14,4.092,2.337C247.683,179.379,250.322,178.655,250.82,177.561z"/>
						<path fill="#D1313D" d="M242.531,170.504c0.5-1.094-1.334-2.139-4.092-2.336s-5.396,0.527-5.896,1.621
							c-0.496,1.092,1.334,2.139,4.094,2.336C239.394,172.323,242.033,171.595,242.531,170.504z"/>
					</g>
				</g>
			</g>
		</g>
	</g>
	<path fill="none" stroke="#231F20" stroke-width="2" stroke-linecap="round" stroke-linejoin="round" stroke-miterlimit="10" d="
		M116.697,130.924"/>
	
		<path fill="#DD9F5B" stroke="#231F20" stroke-width="1.5" stroke-linecap="round" stroke-linejoin="round" stroke-miterlimit="10" d="
		M219.588,133.819c-13.352,9.391-24.771,16.096-24.771,16.096s-7.559-10.571-9.311-11.022c-2.433-0.627-3.922,1.213-3.466,2.197
		c0.457,0.983,2.884,3.741,3.994,5.1c1.113,1.359,0.395,2.207-2.021,2.13c-2.415-0.08-6.646-1.97-9.177-1.229
		c-2.755,0.803-3.184,3.116-1.771,4.756c1.614,1.875,12.462,0.614,12.462,0.614s-11.421,1.712-12.279,3.117
		c-1.455,2.396,0.532,5.139,2.981,4.939c2.348-0.193,9.881-3.896,9.881-3.896s-9.187,5.445-9.077,8.035
		c0.095,2.234,4.174,3.125,9.458-0.986c3.287-2.559,8.77-7.555,9.75-8.983c1.008-1.469,18.941-12.328,28.891-19.946L219.588,133.819
		z"/>
	<g>
		<g>
			<g>
				<g>
					<defs>
						<path id="SVGID_3_" d="M214.992,157.287c-2.115-8.649-33.986-4.082-33.186-12.95c0.646-7.13,7-8.271,5.739-9.283
							c0,0-0.439,0.086-1.428-0.008c-2.588-0.246-4.247-0.168-10.482,1.139c-5.237,1.098-11.947,3.938-11.947,3.938
							c-9.1,3.918-19.41,12.521-11.289,21.229c2.789,2.989,6.726,6.006,15.992,9.901c9.311,3.912,20.148,5.34,24.753,3.31
							C202.496,170.434,216.437,163.2,214.992,157.287z"/>
					</defs>
					<clipPath id="SVGID_4_">
						<use xlink:href="#SVGID_3_"  overflow="visible"/>
					</clipPath>
					<g clip-path="url(#SVGID_4_)">
						<path fill="none" stroke="#231F20" stroke-width="3" stroke-miterlimit="10" d="M151.784,154.735
							c0-10.229,21.013-18.551,46.834-18.551c25.822,0,46.834,8.323,46.834,18.551s-21.012,18.549-46.834,18.549
							C172.796,173.283,151.784,164.961,151.784,154.735z"/>
						<ellipse fill="#F7C434" cx="198.619" cy="154.734" rx="34.934" ry="13.835"/>
						<path fill="#F9BF76" d="M151.784,154.735c0-10.229,21.013-18.551,46.834-18.551c25.822,0,46.834,8.323,46.834,18.551
							s-21.012,18.549-46.834,18.549C172.796,173.283,151.784,164.961,151.784,154.735z M159.676,154.735
							c0,8.504,17.471,15.424,38.941,15.424c21.475,0,38.943-6.92,38.943-15.424c0-8.506-17.471-15.424-38.943-15.424
							C177.146,139.31,159.676,146.229,159.676,154.735z"/>
						<path fill="#D1313D" d="M202.271,144.516c0.279-0.611-0.744-1.193-2.285-1.305c-1.539-0.109-3.014,0.295-3.293,0.902
							c-0.277,0.61,0.744,1.194,2.285,1.309C200.521,145.532,201.994,145.127,202.271,144.516z"/>
						<path fill="#D1313D" d="M212.23,146.369c-0.367,0.802,0.979,1.568,3.002,1.713c2.021,0.146,3.959-0.387,4.326-1.188
							c0.363-0.803-0.98-1.568-3.004-1.713C214.529,145.036,212.594,145.567,212.23,146.369z"/>
						<path fill="#D1313D" d="M203.213,150.43c-0.363,0.803,0.98,1.569,3.004,1.715c2.021,0.146,3.959-0.387,4.326-1.188
							c0.363-0.803-0.979-1.569-3.004-1.715C205.515,149.097,203.578,149.63,203.213,150.43z"/>
						<path fill="#D1313D" d="M174.177,159.614c-0.364,0.803,0.979,1.568,3.001,1.713c2.022,0.146,3.961-0.389,4.327-1.188
							c0.365-0.804-0.979-1.568-3.004-1.714C176.48,158.28,174.542,158.811,174.177,159.614z"/>
						<path fill="#D1313D" d="M230.908,153.91c0.455-0.989-1.211-1.94-3.715-2.121c-2.508-0.18-4.904,0.48-5.357,1.474
							c-0.453,0.994,1.213,1.942,3.721,2.121C228.06,155.565,230.457,154.905,230.908,153.91z"/>
						<path fill="#D1313D" d="M186.687,164.049c1.455,0.104,2.844-0.276,3.104-0.854c0.266-0.576-0.701-1.127-2.152-1.23
							c-1.451-0.103-2.844,0.279-3.106,0.854C184.271,163.395,185.234,163.946,186.687,164.049z"/>
						<path fill="#D1313D" d="M172.432,154.641c-0.233,0.516,0.628,1.006,1.927,1.102c1.299,0.092,2.541-0.248,2.775-0.764
							c0.231-0.514-0.629-1.006-1.928-1.1C173.908,153.785,172.665,154.127,172.432,154.641z"/>
						<path fill="#D1313D" d="M211.482,156.299c-1.535-0.108-3.002,0.295-3.279,0.9c-0.273,0.609,0.742,1.191,2.275,1.301
							c1.535,0.11,3.002-0.293,3.279-0.899C214.035,156.991,213.017,156.41,211.482,156.299z"/>
						<path fill="#D1313D" d="M191.574,150.201c-2.088-0.147-4.088,0.398-4.465,1.229c-0.377,0.826,1.012,1.619,3.102,1.769
							c2.088,0.15,4.086-0.396,4.465-1.228C195.051,151.143,193.662,150.352,191.574,150.201z"/>
						<path fill="#D1313D" d="M185.172,144.341c-2.088-0.147-4.086,0.399-4.465,1.229c-0.377,0.825,1.011,1.618,3.102,1.77
							c2.088,0.146,4.086-0.398,4.465-1.229C188.648,145.282,187.261,144.491,185.172,144.341z"/>
						<path fill="#D1313D" d="M175.817,149.153c-1.786-0.127-3.494,0.342-3.817,1.051c-0.32,0.705,0.862,1.386,2.649,1.513
							c1.784,0.127,3.493-0.345,3.815-1.05C178.785,149.957,177.602,149.28,175.817,149.153z"/>
						<path fill="#D1313D" d="M224.006,160.789c0.35-0.77-0.938-1.502-2.873-1.641c-1.938-0.14-3.791,0.371-4.143,1.139
							c-0.35,0.766,0.938,1.5,2.873,1.639C221.801,162.065,223.654,161.555,224.006,160.789z"/>
						<path fill="#D1313D" d="M207.82,165.561c0.498-1.093-1.334-2.138-4.092-2.334c-2.76-0.199-5.398,0.526-5.896,1.618
							c-0.498,1.095,1.334,2.14,4.092,2.337C204.683,167.379,207.322,166.655,207.82,165.561z"/>
						<path fill="#D1313D" d="M199.531,158.504c0.5-1.094-1.334-2.139-4.092-2.336c-2.758-0.196-5.396,0.527-5.896,1.621
							c-0.496,1.092,1.334,2.139,4.094,2.336C196.394,160.323,199.033,159.595,199.531,158.504z"/>
					</g>
				</g>
			</g>
		</g>
	</g>
	<g>
		<g>
			<path fill="#A87C4F" stroke="#231F20" stroke-width="1.5" stroke-miterlimit="10" d="M59.954,204.494
				c0,0,6.444,44.396,4.676,45.865c-1.771,1.475,9.038-0.313,9.038-0.313s3.96-30.229,3.055-45.776L59.954,204.494z"/>
			<path fill="#A87C4F" stroke="#231F20" stroke-width="1.5" stroke-miterlimit="10" d="M47.487,205.369
				c0,0-3.042,43.305-3.947,44.713c-1.246,1.938,7.947,1.099,7.947,1.099s12.343-31.897,10.847-45.966L47.487,205.369z"/>
			
				<path fill="#231F20" stroke="#231F20" stroke-width="2" stroke-linecap="round" stroke-linejoin="round" stroke-miterlimit="10" d="
				M64.216,248.176c0,0-5.924,9.449-3.381,12.67c2.018,2.561,6.228,3.061,12.453,3.061c6.229,0,7.54-0.009,11.345,0.021
				c3.231,0.025,9.854-3.521-2.033-10.418c-5.521-3.198-10.378-5.332-10.378-5.332L64.216,248.176L64.216,248.176z"/>
			
				<path fill="#231F20" stroke="#231F20" stroke-width="2" stroke-linecap="round" stroke-linejoin="round" stroke-miterlimit="10" d="
				M42.693,251.258c0,0-7.082,10.188-4.468,13.662c2.077,2.758,6.411,3.297,12.823,3.297c6.414,0,7.763-0.008,11.681,0.023
				c3.328,0.025,10.144-3.797-2.097-11.232c-5.684-3.45-10.684-5.75-10.684-5.75H42.693z"/>
			<path fill="#A87C4F" stroke="#231F20" stroke-width="1.5" stroke-miterlimit="10" d="M67.313,156.007
				c0,0,29.297,12.155,30.004,13.53c0.688,1.338,4.002,4.887,6.439,7.459c3.919,4.144,7.193,3.869,7.408,1.971
				c0.242-2.196-6.677-7.942-6.677-7.942s5.725,4.063,7.564,4.507c1.923,0.461,3.663-1.642,2.659-3.86
				c-1.83-4.063-6.163-3.067-9.507-4.125c0,0,8.782,2.095,9.884,0.961c1.592-1.647,0.938-2.935-1.194-3.944
				c-1.947-0.936-5.32-0.152-7.232-0.371c-1.911-0.221-2.43-1.031-1.468-2.06c0.963-1.028,3.052-3.093,3.473-3.88
				c0.422-0.786-0.646-2.533-2.604-2.287c-1.411,0.178-8.034,8.301-8.034,8.301l-26.537-15.873L67.313,156.007z"/>
			
				<polygon fill="#D1313D" stroke="#231F20" stroke-width="1.5" stroke-linecap="round" stroke-linejoin="round" stroke-miterlimit="10" points="
				74.617,147.483 58.531,152.764 54.84,141.139 62.193,128.267 			"/>
			<path fill="#603813" d="M32.56,102.713c0,0.137-6.773,5.77-6.773,5.77l-12.901,6.094c0,0,9.131,18.322,19.327,12.513
				c3.306-1.882,4.404-22.75,4.404-22.75"/>
			<path fill="#A87C4F" d="M44.767,115.494c6.806,10.664,34.834,20.156,44.953-1.256c0.951-2.012,5.769-3.213,6.291-5.166
				c1.017-3.803-3.723-4.217-3.723-7.873c0-7.313-2.572-17.19-4.984-21.76c-4.757-9.018-20.896-8.855-27.628-6.598
				c-4.843,1.629-12.979,15.789-12.979,15.789s-6.624-6.533-12.207-1.011c-5.545,5.486-1.83,11.908,3.489,13.261
				c3.306,0.84,5.687-1.521,5.687-1.521S40.672,109.073,44.767,115.494z"/>
			<path fill="#603813" d="M38.061,83.987c0,0,3.406-11.455,10.603-18.211c3.472-3.262,13.511-5.799,18.256-5.42
				c2.766,0.221,8.309,1.729,10.58,3.318c3.989,2.782,14.827,10.002,12.977,14.5c-2.048,4.971-20.768,3.842-20.768,3.842
				s-5.596-8.387-8.906-8.187c-5.113,0.31-13.938,8.847-13.938,13.955"/>
			
				<path fill="none" stroke="#231F20" stroke-width="1.5" stroke-linecap="round" stroke-linejoin="round" stroke-miterlimit="10" d="
				M92.987,101.683c0.546-9.006-2.625-16.881-5.684-22.244"/>
			
				<path fill="none" stroke="#231F20" stroke-width="1.5" stroke-linecap="round" stroke-linejoin="round" stroke-miterlimit="10" d="
				M44.767,115.494c5.515,11.386,35.264,19.541,45.384-1.871"/>
			<path fill="none" stroke="#231F20" stroke-width="2" stroke-linecap="round" stroke-linejoin="round" stroke-miterlimit="10" d="
				M46.239,205.215"/>
			
				<path fill="#8EB2C5" stroke="#231F20" stroke-width="1.5" stroke-linecap="round" stroke-linejoin="round" stroke-miterlimit="10" d="
				M77.341,170.802l2.614,41.166c0,0-9.33,1.938-18.582,1.938c-4.46,0-17.822-0.229-17.822-0.229l2.705-44.164"/>
			<path fill="#231F20" d="M75.409,89.629c1.129,0.104,1.87,1.942,1.659,4.096c-0.211,2.156-1.297,3.813-2.425,3.705
				c-1.128-0.113-1.868-1.949-1.655-4.105C73.198,91.169,74.283,89.513,75.409,89.629z"/>
			<path fill="#231F20" d="M87.409,87.629c1.129,0.104,1.87,1.942,1.659,4.096c-0.211,2.156-1.297,3.813-2.425,3.705
				c-1.128-0.113-1.868-1.949-1.655-4.105C85.198,89.169,86.283,87.513,87.409,87.629z"/>
			<path fill="none" stroke="#231F20" stroke-width="2" stroke-linecap="round" stroke-linejoin="round" stroke-miterlimit="10" d="
				M74.807,63.676c11.141,3.396,17.368,17.545,17.481,18.342"/>
			<path fill="none" stroke="#231F20" stroke-width="2" stroke-linecap="round" stroke-linejoin="round" stroke-miterlimit="10" d="
				M74.807,63.676c11.141,3.396,17.368,17.545,17.481,18.342"/>
			<path fill="none" stroke="#231F20" stroke-width="2" stroke-linecap="round" stroke-linejoin="round" stroke-miterlimit="10" d="
				M66.916,63.676c11.142,3.396,17.368,17.545,17.481,18.342"/>
			<path fill="none" stroke="#231F20" stroke-width="2" stroke-linecap="round" stroke-linejoin="round" stroke-miterlimit="10" d="
				M63.958,67.375c8.656,4.996,13.438,15.914,13.538,16.611"/>
			<path fill="none" stroke="#231F20" stroke-width="2" stroke-linecap="round" stroke-linejoin="round" stroke-miterlimit="10" d="
				M59.676,70.388C67.299,75.717,71.49,85.31,71.579,85.96"/>
			<path fill="none" stroke="#231F20" stroke-width="2" stroke-linecap="round" stroke-linejoin="round" stroke-miterlimit="10" d="
				M57.324,74.056c-9.877,7.36-10.628,14.574-10.628,14.574s-3.258-3.894-6.944-3.49c-3.688,0.401-6.26,2.192-7.394,7.063
				c-1.141,4.898,4.521,9.148,8.513,8.636c2.548-0.33,2.794-1.478,2.794-1.478s-2.73,4.023-0.789,12.799"/>
			
				<path fill="none" stroke="#231F20" stroke-width="1.5" stroke-linecap="round" stroke-linejoin="round" stroke-miterlimit="10" d="
				M36.615,93.172c0,0,4.102-5.759,7.909-1.084"/>
			
				<path fill="none" stroke="#231F20" stroke-width="1.5" stroke-linecap="round" stroke-linejoin="round" stroke-miterlimit="10" d="
				M40.672,94.61c-1.404-1.984-1.012-3.998-1.012-3.998"/>
			<path fill="none" stroke="#231F20" stroke-width="2" stroke-linecap="round" stroke-linejoin="round" stroke-miterlimit="10" d="
				M63.958,63.049c-15.239,4.327-21.322,18.968-21.322,18.968"/>
			<path fill="none" stroke="#231F20" stroke-width="2" stroke-linecap="round" stroke-linejoin="round" stroke-miterlimit="10" d="
				M70.73,60.812c-16.336-2.674-28.85,6.563-32.67,21.965"/>
			<path fill="none" stroke="#231F20" stroke-width="2" stroke-linecap="round" stroke-linejoin="round" stroke-miterlimit="10" d="
				M33.815,101.2c-7.13,8.398-15.559,11.945-22.313,13.375"/>
			<path fill="none" stroke="#231F20" stroke-width="2" stroke-linecap="round" stroke-linejoin="round" stroke-miterlimit="10" d="
				M32.281,103.388c-4.291,10.106-11.19,15.955-17.129,19.291"/>
			<path fill="none" stroke="#231F20" stroke-width="2" stroke-linecap="round" stroke-linejoin="round" stroke-miterlimit="10" d="
				M35.231,102.871c-1.433,12.668-7.123,21.41-12.573,27.039"/>
			<path fill="#231F20" d="M39.492,104.041c-0.539,1.015-2.09,1.244-3.465,0.515l-3.47-1.844c-1.375-0.73-2.054-2.146-1.514-3.158
				l0,0c0.538-1.015,2.089-1.244,3.465-0.515l3.468,1.843C39.355,101.612,40.032,103.028,39.492,104.041L39.492,104.041z"/>
			
				<path fill="none" stroke="#231F20" stroke-width="1.5" stroke-linecap="round" stroke-linejoin="round" stroke-miterlimit="10" d="
				M85.28,97.519c19.873,10.662,8.646,17.061-2.052,13.777"/>
			<path fill="none" stroke="#231F20" stroke-width="2" stroke-linecap="round" stroke-linejoin="round" stroke-miterlimit="10" d="
				M36.615,104.338c1.562,10.903-3.21,19.563-6.618,25.571"/>
			<path fill="#231F20" d="M61.078,112.047c1.608-1.06,5.405,4.299,9.084,3.422c3.676-0.875,7.607-2.865,9.764-0.896
				c1.981,1.818,1.257,4.65-1.479,6.15C65.62,127.763,57.412,114.453,61.078,112.047z"/>
			
				<path fill="#D1313D" stroke="#231F20" stroke-width="1.5" stroke-linecap="round" stroke-linejoin="round" stroke-miterlimit="10" d="
				M42.877,178.991c0,0,8.091,5.898,18.077,6.313c10.4,0.435,19.845-3.504,19.845-3.504s-7.849-49.187-17.867-53.109l-14.799-6.268
				L29.231,151.61l13.626,3.758l7.561-23.666l-6.573,22.683L42.877,178.991z"/>
			<path fill="#A87C4F" stroke="#231F20" stroke-width="1.5" stroke-miterlimit="10" d="M31.41,152.211
				c-5.655,14.629,16.3,29.242,15.861,30.729c-0.43,1.446-0.302,6.265-0.181,9.776c0.189,5.652,3.165,7.599,4.773,6.322
				c1.86-1.477,0.347-10.291,0.347-10.291s1.773,6.775,2.995,8.314c1.274,1.604,4.33,1.18,5.156-1.136
				c0.482-1.354-4.923-9.304-4.923-9.304s5.842,7.315,7.622,7.19c2.588-0.183,3.002-1.567,1.967-3.722
				c-0.945-1.971-4.384-3.6-5.834-5.018c-1.446-1.418-1.273-2.359,0.313-2.494c1.587-0.137,4.903-0.303,5.853-0.615
				c0.948-0.309,1.368-2.307-0.473-3.407c-1.327-0.796-13.041-0.087-13.041-0.087s-15.516-15.575-10.882-23.214
				C42.269,153.119,32.43,149.578,31.41,152.211z"/>
		</g>
		<path fill="none" stroke="#231F20" stroke-width="2" stroke-linecap="round" stroke-linejoin="round" stroke-miterlimit="10" d="
			M111.589,160.389"/>
		
			<path fill="none" stroke="#231F20" stroke-width="1.4" stroke-linecap="round" stroke-linejoin="round" stroke-miterlimit="10" d="
			M75.705,84.819c-2.812-0.082-6.841,1.932-7.454,5.076"/>
		
			<path fill="none" stroke="#231F20" stroke-width="1.4" stroke-linecap="round" stroke-linejoin="round" stroke-miterlimit="10" d="
			M89.705,81.819c-1.65-0.047-3.726,0.629-5.277,1.832"/>
	</g>
	<path fill="none" stroke="#231F20" stroke-width="1.4" stroke-linecap="round" stroke-linejoin="round" stroke-miterlimit="10" d="
		M216.125,59.31c2.779-0.42,7.023,1.09,8.016,4.137"/>
	<path fill="none" stroke="#231F20" stroke-width="1.4" stroke-linecap="round" stroke-linejoin="round" stroke-miterlimit="10" d="
		M202.578,60.919c1.574-0.497,3.754-0.418,5.578,0.313"/>
</g>
</svg>
