<?xml version="1.0" encoding="utf-8"?>
<!-- Generator: Adobe Illustrator 16.0.0, SVG Export Plug-In . SVG Version: 6.00 Build 0)  -->
<!DOCTYPE svg PUBLIC "-//W3C//DTD SVG 1.1//EN" "http://www.w3.org/Graphics/SVG/1.1/DTD/svg11.dtd">
<svg version="1.1" id="Layer_1" xmlns="http://www.w3.org/2000/svg" xmlns:xlink="http://www.w3.org/1999/xlink" x="0px" y="0px"
	 width="595.28px" height="841.89px" viewBox="0 0 595.28 841.89" enable-background="new 0 0 595.28 841.89" xml:space="preserve">
<g>
	<path fill="#F7C434" d="M317.045,101.28l18.003-34.611c11.201,6.959,18.662,19.369,18.662,33.526
		c0,14.99-8.361,28.027-20.675,34.702L317.045,101.28z"/>
</g>
<g>
	<path fill="#F9BF76" d="M334.976,138.977c13.834-7.418,23.266-22.017,23.266-38.781c0-15.876-8.458-29.813-21.104-37.546
		l4.115-7.913c15.493,9.233,25.898,26.15,25.898,45.458c0,20.308-11.514,37.969-28.349,46.828L334.976,138.977z"/>
</g>
<g>
	<path fill="#F7C434" d="M300.305,90.752l15.704-33.015c-4.646-1.923-9.735-2.99-15.075-2.99c-6.2,0-12.064,1.434-17.284,3.983
		L300.305,90.752z"/>
</g>
<path fill="#F9BF76" d="M71.985,92C72.596,69.282,90.508,50.815,113,49.326v-8.934C85.593,41.898,63.693,64.368,63.075,92H71.985z"
	/>
<path fill="#F7C434" d="M113,92V53.867C92.978,55.341,77.121,71.748,76.517,92H113z"/>
<circle fill="#D1313D" cx="96.427" cy="70.092" r="4.205"/>
<circle fill="#D1313D" cx="106.607" cy="81.674" r="4.205"/>
<circle fill="#D1313D" cx="86.593" cy="85.924" r="5.207"/>
<line fill="#FFFFFF" x1="113" y1="153" x2="117" y2="153"/>
<circle fill="#D1313D" cx="340.398" cy="115.853" r="4.205"/>
<circle fill="#D1313D" cx="343.852" cy="101.411" r="2.698"/>
<circle fill="#D1313D" cx="343.344" cy="88.932" r="3.71"/>
<circle fill="#D1313D" cx="299.958" cy="64.491" r="3.202"/>
<g>
	<path fill="#F9BF76" d="M281.565,54.724c5.848-2.881,12.42-4.507,19.368-4.507c6.031,0,11.782,1.222,17.021,3.429l3.829-8.048
		c-6.402-2.757-13.449-4.291-20.85-4.291c-8.429,0-16.398,1.992-23.478,5.515L281.565,54.724z"/>
</g>
<g>
	<path fill="#F7C434" d="M300.305,109.307l15.704,33.015c-4.646,1.923-9.735,2.99-15.075,2.99c-6.2,0-12.064-1.434-17.284-3.983
		L300.305,109.307z"/>
</g>
<circle fill="#D1313D" cx="292.615" cy="137.912" r="5.078"/>
<g>
	<path fill="#F9BF76" d="M281.565,145.335c5.848,2.881,12.42,4.507,19.368,4.507c6.031,0,11.782-1.222,17.021-3.429l3.829,8.048
		c-6.402,2.757-13.449,4.291-20.85,4.291c-8.429,0-16.398-1.992-23.478-5.515L281.565,145.335z"/>
</g>
<g>
	<path fill="#F7C434" d="M287.151,101.28l-18.003-34.611c-11.201,6.959-18.662,19.369-18.662,33.526
		c0,14.99,8.361,28.027,20.675,34.702L287.151,101.28z"/>
</g>
<g>
	<path fill="#F9BF76" d="M269.221,138.977c-13.834-7.418-23.266-22.017-23.266-38.781c0-15.876,8.458-29.813,21.104-37.546
		l-4.115-7.913c-15.493,9.233-25.898,26.15-25.898,45.458c0,20.308,11.514,37.969,28.349,46.828L269.221,138.977z"/>
</g>
<g>
	<g>
		<path fill="#F7C434" d="M476.85,102l-25.893,26.869c6.939,6.081,16.024,9.774,25.977,9.774c20.843,0,37.898-16.167,39.338-36.643
			H476.85z"/>
	</g>
	<g>
		<path fill="#F9BF76" d="M520.813,102c-1.453,22.946-20.573,41.173-43.88,41.173c-11.156,0-21.349-4.183-29.11-11.053l-6.187,6.42
			c9.369,8.413,21.744,13.543,35.297,13.543c28.221,0,51.35-22.22,52.813-50.083H520.813z"/>
		<path fill="#F9BF76" d="M439.479,136.496c0.235,0.236,0.481,0.463,0.721,0.695L439.479,136.496z"/>
	</g>
	<circle fill="#D1313D" cx="500.398" cy="113.853" r="4.205"/>
	<circle fill="#D1313D" cx="489.872" cy="122.785" r="3.018"/>
	<circle fill="#D1313D" cx="472.184" cy="129.047" r="5.731"/>
	<circle fill="#D1313D" cx="481.543" cy="108.924" r="5.731"/>
</g>
<g>
	<g>
		<path fill="#F7C434" d="M425.597,101c0.653,9.285,4.513,17.68,10.487,24.086L459.295,101H425.597z"/>
	</g>
	<g>
		<path fill="#F9BF76" d="M432.952,128.335c-6.828-7.241-11.23-16.787-11.898-27.335h-8.934
			c0.687,13.064,6.145,24.877,14.648,33.752L432.952,128.335z"/>
	</g>
	<circle fill="#D1313D" cx="449.974" cy="105.796" r="3.188"/>
	<circle fill="#D1313D" cx="440.226" cy="114.742" r="4.024"/>
</g>
<line fill="#FFFFFF" x1="477" y1="98" x2="473" y2="98"/>
<path fill="#D1313D" d="M113,61.292c-0.201-0.002-0.405,0.011-0.61,0.048c-1.74,0.314-2.896,1.98-2.581,3.721
	c0.281,1.563,1.654,2.644,3.191,2.623V61.292z"/>
<path fill="#D1313D" d="M302.642,114.651c-0.255,0.126-0.503,0.274-0.737,0.452c-1.994,1.517-2.377,4.361-0.862,6.353
	c1.362,1.79,3.788,2.269,5.712,1.254L302.642,114.651z"/>
<path fill="#F9BF76" d="M167.09,92C166.479,69.282,149,50.815,126,49.326v-8.934c27,1.506,49.382,23.976,50,51.608H167.09z"/>
<path fill="#F7C434" d="M126,92V53.867c20,1.474,35.955,17.881,36.559,38.133H126z"/>
<circle fill="#D1313D" cx="142.648" cy="70.092" r="4.205"/>
<circle fill="#D1313D" cx="133.468" cy="84.674" r="4.205"/>
<circle fill="#D1313D" cx="151.978" cy="83.164" r="2.715"/>
<path fill="#D1313D" d="M126.075,61.292c0.201-0.002,0.405,0.011,0.61,0.048c1.74,0.314,2.896,1.98,2.581,3.721
	c-0.281,1.563-1.654,2.644-3.191,2.623V61.292z"/>
<path fill="#F9BF76" d="M425.985,90c0.61-22.718,18.522-41.185,41.015-42.674v-8.934C439.593,39.898,417.693,62.368,417.075,90
	H425.985z"/>
<path fill="#F7C434" d="M467,90V51.867C446.979,53.341,431.121,69.748,430.517,90H467z"/>
<circle fill="#D1313D" cx="450.427" cy="68.092" r="4.205"/>
<circle fill="#D1313D" cx="460.607" cy="79.674" r="4.205"/>
<circle fill="#D1313D" cx="440.593" cy="83.924" r="5.207"/>
<path fill="#D1313D" d="M467,59.292c-0.201-0.002-0.405,0.011-0.61,0.048c-1.74,0.314-2.896,1.98-2.581,3.721
	c0.281,1.563,1.654,2.644,3.191,2.623V59.292z"/>
<path fill="#F9BF76" d="M521.09,90C520.479,67.282,503,48.815,480,47.326v-8.934c27,1.506,49.382,23.976,50,51.608H521.09z"/>
<path fill="#F7C434" d="M480,90V51.867c20,1.474,35.955,17.881,36.559,38.133H480z"/>
<circle fill="#D1313D" cx="496.648" cy="68.092" r="4.205"/>
<circle fill="#D1313D" cx="487.468" cy="82.674" r="4.205"/>
<circle fill="#D1313D" cx="505.979" cy="81.164" r="2.715"/>
<path fill="#D1313D" d="M480.075,59.292c0.201-0.002,0.405,0.011,0.61,0.048c1.74,0.314,2.896,1.98,2.581,3.721
	c-0.281,1.563-1.654,2.644-3.191,2.623V59.292z"/>
<path fill="#F9BF76" d="M71.985,104c0.611,23,18.523,41.577,41.015,43.067V156c-27.407-1.506-49.307-24-49.925-52H71.985z"/>
<path fill="#F7C434" d="M113,104v38.525C92.978,141.052,77.121,125,76.517,104H113z"/>
<circle fill="#D1313D" cx="93.427" cy="122.3" r="4.205"/>
<circle fill="#D1313D" cx="99.867" cy="109.979" r="3.465"/>
<path fill="#D1313D" d="M113.028,134.434c-0.368,0.004-0.742-0.02-1.117-0.087c-3.183-0.575-5.296-3.623-4.721-6.806
	c0.514-2.858,3.026-4.836,5.837-4.796V134.434z"/>
<path fill="#F9BF76" d="M167.09,104c-0.611,23-18.09,41.577-41.09,43.067V156c27-1.506,49.382-24,50-52H167.09z"/>
<path fill="#F7C434" d="M126,104v38.525C146,141.052,161.955,125,162.559,104H126z"/>
<circle fill="#D1313D" cx="141.075" cy="124.076" r="2.808"/>
<circle fill="#D1313D" cx="149.19" cy="115.167" r="3.986"/>
<path fill="#D1313D" d="M126.23,107.292c0.45-0.004,0.906,0.024,1.364,0.107c3.89,0.703,6.472,4.426,5.769,8.315
	c-0.628,3.493-3.697,5.909-7.132,5.861V107.292z"/>
<circle fill="#D1313D" cx="269.427" cy="78.092" r="4.205"/>
<circle fill="#D1313D" cx="257.593" cy="97.924" r="5.207"/>
<circle fill="#D1313D" cx="274.974" cy="108.796" r="3.188"/>
<circle fill="#D1313D" cx="264.226" cy="117.742" r="4.024"/>
<path fill="#D1313D" d="M278.621,85.477c-0.251-0.001,0.495,0.013,0.238,0.06c-2.285,0.413-3.803,2.6-3.391,4.885
	c0.414,2.286,2.601,3.804,4.886,3.391c0.996-0.18,1.831-0.709,2.439-1.424L278.621,85.477z"/>
<path fill="#D1313D" d="M325.575,85.477c0.251-0.001-0.495,0.013-0.238,0.06c2.285,0.413,3.803,2.6,3.391,4.885
	c-0.414,2.286-2.601,3.804-4.886,3.391c-0.996-0.18-1.83-0.709-2.439-1.424L325.575,85.477z"/>
<path fill="#D1313D" d="M332.575,71.477c0.251-0.001-0.495,0.013-0.238,0.06c2.285,0.413,3.803,2.6,3.391,4.885
	c-0.414,2.286-2.601,3.804-4.886,3.391c-0.996-0.18-1.83-0.709-2.439-1.424L332.575,71.477z"/>
<path fill="#D1313D" d="M322.532,111.795c0.258-0.12,0.51-0.261,0.749-0.433c2.033-1.464,2.49-4.297,1.028-6.328
	c-1.314-1.825-3.728-2.368-5.677-1.403L322.532,111.795z"/>
</svg>
