<?xml version="1.0" encoding="utf-8"?>
<!-- Generator: Adobe Illustrator 16.0.0, SVG Export Plug-In . SVG Version: 6.00 Build 0)  -->
<!DOCTYPE svg PUBLIC "-//W3C//DTD SVG 1.1//EN" "http://www.w3.org/Graphics/SVG/1.1/DTD/svg11.dtd">
<svg version="1.1" id="Layer_1" xmlns="http://www.w3.org/2000/svg" xmlns:xlink="http://www.w3.org/1999/xlink" x="0px" y="0px"
	 width="595.279px" height="841.89px" viewBox="0 0 595.279 841.89" enable-background="new 0 0 595.279 841.89"
	 xml:space="preserve">
<path fill="none" stroke="#231F20" stroke-width="1.5" stroke-linecap="round" stroke-linejoin="round" stroke-miterlimit="10" d="
	M56.067,192.549h63.335h37.396H341.23h40.949c0,0,106.48,2.447,118.928-0.119"/>
<path fill="#A87C4F" stroke="#231F20" stroke-linecap="round" stroke-linejoin="round" stroke-miterlimit="10" d="M197.788,157.229"
	/>
<path fill="#DD9F5B" d="M405.573,109.057c1.578,1.859,3.547,3.734,8.063,5.493c7.243,2.822,25.106-4.18,26.718-17.027
	c1.045-8.331-3.166-19.641-12.186-25.696c-12.782-8.583-26.859,3.117-29.016,10.527C398.778,83.647,393.111,94.377,405.573,109.057z
	"/>
<path fill="none" stroke="#231F20" stroke-width="1.5" stroke-linecap="round" stroke-linejoin="round" stroke-miterlimit="10" d="
	M399.154,82.354c0-7.717,16.231-19.11,29.016-10.527c9.02,6.055,13.229,17.365,12.186,25.696
	c-1.609,12.847-19.475,19.85-26.718,17.027c-4.517-1.759-8.063-5.493-8.063-5.493"/>
<path fill="#231F20" d="M401.319,90.574c0.255,1.799-0.33,3.365-1.306,3.503c-0.978,0.138-1.976-1.202-2.229-3.001
	c-0.254-1.795,0.331-3.361,1.309-3.5C400.067,87.437,401.064,88.778,401.319,90.574z"/>
<path fill="#231F20" d="M410.319,88.574c0.255,1.799-0.33,3.365-1.306,3.503c-0.978,0.138-1.976-1.202-2.229-3.001
	c-0.254-1.795,0.331-3.361,1.309-3.5C409.067,85.437,410.064,86.778,410.319,88.574z"/>
<path fill="#DD9F5B" d="M432.635,84.047c0,3.008,2.385,5.447,5.325,5.447s5.325-2.439,5.325-5.447c0-3.008-2.385-5.449-5.325-5.449
	C434.969,78.598,432.635,79.62,432.635,84.047z"/>
<path fill="#DD9F5B" stroke="#231F20" stroke-width="1.5" stroke-miterlimit="10" d="M426.961,89.494"/>
<path fill="#DD9F5B" stroke="#231F20" stroke-width="1.5" stroke-linecap="round" stroke-linejoin="round" stroke-miterlimit="10" d="
	M437.961,89.494c2.94,0,5.325-2.439,5.325-5.447c0-3.008-2.385-5.449-5.325-5.449"/>
<path fill="none" stroke="#231F20" stroke-width="1.5" stroke-linecap="round" stroke-linejoin="round" stroke-miterlimit="10" d="
	M417.313,110.116c8.854-4.463,10.439-11.979,10.363-14.957"/>
<path fill="none" stroke="#231F20" stroke-width="2" stroke-linecap="round" stroke-linejoin="round" stroke-miterlimit="10" d="
	M431.859,72.847c-6.351-3.235-5.947-3.045-10.718-4.865c-11.678-4.458-21.947,3.605-21.947,3.605s19.833-4.341,19.833,4.191"/>
<path fill="none" stroke="#231F20" stroke-width="2" stroke-linecap="round" stroke-linejoin="round" stroke-miterlimit="10" d="
	M434.962,79.155c-2.638-6.441-4.108-8.773-8.47-11.204c-11.021-6.145-21.56-4.136-21.56-4.136s6.533,1.812,11.28,4.798"/>
<path fill="#414042" stroke="#231F20" stroke-width="1.5" stroke-linecap="round" stroke-linejoin="round" stroke-miterlimit="10" d="
	M461.971,145.755c0,0-12.007-0.977-19.365,1.625c-4.766,1.685-4.588,5.486-4.443,9.443c0.194,5.376-0.818,29.264-0.818,29.264
	l7.114,0.024l4.085-27.774c0,0,6.472,0.626,11.293-1.393c3.197-1.341,4.889,20.745,4.889,20.745s0.28,8.989,7.317,8.423
	c7.034-0.565,19.55-3.74,19.55-3.74v-6.042l-17.158,0.049c0,0,2.426-11.222,2.235-16.213c-0.666-17.5-4.446-20.347-4.446-20.347
	L461.971,145.755z"/>
<path fill="#231F20" stroke="#231F20" stroke-width="1.5" stroke-linecap="round" stroke-linejoin="round" stroke-miterlimit="10" d="
	M445.179,187.185c0,0,5.31,6.547,2.585,10.166c-2.162,2.873-3.604,4.422-10.282,4.422s-7.926-0.89-12.007-0.855
	c-3.467,0.027-11.271-5.442,2.318-11.591c5.986-2.71,9.549-3.239,9.549-3.239L445.179,187.185z"/>
<path fill="#231F20" stroke="#231F20" stroke-width="1.5" stroke-linecap="round" stroke-linejoin="round" stroke-miterlimit="10" d="
	M495.556,194.765c0.533,1.427,4.457,7.312,7.845,5.172c3.389-2.142,3.923-12.572,3.745-16.14
	c-0.179-3.566-0.356-10.253-4.725-10.965c-4.37-0.715-8.62,0.655-9.363,2.14C490.295,180.499,495.556,194.765,495.556,194.765z"/>
<ellipse fill="#DD9F5B" cx="403.719" cy="104.393" rx="7.24" ry="4.822"/>
<path fill="none" stroke="#231F20" stroke-width="1.5" stroke-linecap="round" stroke-linejoin="round" stroke-miterlimit="10" d="
	M404.81,97.226c0,0-9.702,2.839-8.695,7.402c1.477,6.682,11.832,4.032,13.352,2.917"/>
<path fill="none" stroke="#231F20" stroke-width="1.5" stroke-linecap="round" stroke-linejoin="round" stroke-miterlimit="10" d="
	M411.493,147.53c0,0-13.903-1.755-10.007,8.414"/>
<path fill="#FFFFFF" stroke="#231F20" stroke-width="1.5" stroke-linecap="round" stroke-linejoin="round" stroke-miterlimit="10" d="
	M424.452,206.854c-27.838,18.992-91.111,17.277-121.812,0.25c-8.562-4.75-3.64-28.104-3.64-28.104h125
	C424.001,179,432.421,201.417,424.452,206.854z"/>
<path fill="#FFFFFF" stroke="#231F20" stroke-width="1.5" stroke-linecap="round" stroke-linejoin="round" stroke-miterlimit="10" d="
	M445.48,178.868c0,9.503-37.247,17.207-83.192,17.207c-45.944,0-83.191-7.704-83.191-17.207c0-1.188-0.202-5.759,0.905-6.879
	c7.757-7.841,42.085-10.329,82.286-10.329c39.282,0,73.252,3.567,81.978,11.141C445.742,174.085,445.48,177.49,445.48,178.868z"/>
<path fill="#FFFFFF" stroke="#231F20" stroke-width="1.5" stroke-linecap="round" stroke-linejoin="round" stroke-miterlimit="10" d="
	M445.48,170.868c0,9.503-37.247,17.207-83.192,17.207c-45.944,0-83.191-7.704-83.191-17.207c0-9.504,31.912-17.208,83.191-17.208
	C408.233,153.66,445.48,161.364,445.48,170.868z"/>
<g>
	<polygon fill="#8B5E3C" stroke="#231F20" stroke-linecap="round" stroke-linejoin="round" stroke-miterlimit="10" points="
		345.809,170.715 356.889,170.973 366.509,161.392 366.673,157.013 345.726,165.773 	"/>
	<polygon fill="#8B5E3C" stroke="#231F20" stroke-linecap="round" stroke-linejoin="round" stroke-miterlimit="10" points="
		356.73,165.822 345.726,165.773 357.054,157.029 366.673,157.013 	"/>
	
		<line fill="none" stroke="#231F20" stroke-linecap="round" stroke-linejoin="round" stroke-miterlimit="10" x1="356.501" y1="166" x2="356.501" y2="171"/>
	<polygon fill="#8B5E3C" stroke="#231F20" stroke-linecap="round" stroke-linejoin="round" stroke-miterlimit="10" points="
		359.012,170.715 374.296,170.973 383.314,161.392 383.477,157.013 358.93,165.773 	"/>
	<polygon fill="#8B5E3C" stroke="#231F20" stroke-linecap="round" stroke-linejoin="round" stroke-miterlimit="10" points="
		374.137,165.822 358.93,165.773 369.357,157.029 383.477,157.013 	"/>
	
		<line fill="none" stroke="#231F20" stroke-linecap="round" stroke-linejoin="round" stroke-miterlimit="10" x1="373.501" y1="166" x2="373.501" y2="171"/>
	<polygon fill="#8B5E3C" stroke="#231F20" stroke-linecap="round" stroke-linejoin="round" stroke-miterlimit="10" points="
		377.617,170.715 397.102,170.973 406.12,161.392 406.283,157.013 377.535,165.773 	"/>
	<polygon fill="#8B5E3C" stroke="#231F20" stroke-linecap="round" stroke-linejoin="round" stroke-miterlimit="10" points="
		396.645,165.822 377.535,165.773 387.964,157.029 405.984,157.013 	"/>
	
		<line fill="none" stroke="#231F20" stroke-linecap="round" stroke-linejoin="round" stroke-miterlimit="10" x1="396.501" y1="166" x2="396.501" y2="171"/>
</g>
<path fill="#DD9F5B" stroke="#231F20" stroke-width="1.5" stroke-miterlimit="10" d="M433.264,127.359c0,0-7.28,11.61-10.032,14.473
	c-2.971,3.09-4.518,6.208-5.739,6.115c-1.224-0.095-4.423-1.129-7.808,0c-4.433,1.476-7.82,2.729-8.197,7.997
	c-0.163,2.282,1.519,3.95,3.022,2.822s3.684-4.004,5.268-5.926c1.317-1.601,5.927-1.976,6.68,0.094
	c0.755,2.067-2.835,6.279-1.141,8.254c1.693,1.975,3.492,0.684,4.059-0.728c0.563-1.411,1.129-4.425,0.847-6.492
	c-0.281-2.07-0.56-2.345,0.095-3.01c4.421-4.517,18.861-19.475,19.521-20.792L433.264,127.359z"/>
<polygon fill="#8EB2C5" stroke="#231F20" stroke-width="1.5" stroke-linecap="round" stroke-linejoin="round" stroke-miterlimit="10" points="
	434.532,111.955 430.009,128.096 438.635,134.705 441.608,127.327 "/>
<path fill="#DD9F5B" stroke="#231F20" stroke-width="1.5" stroke-miterlimit="10" d="M426.404,127.145c0,0,2.421-8.53,1.532-10.417
	c-1.174-2.493-2.857-2.089-3.482-0.84c-0.623,1.249-0.562,3.233-0.918,5.217c-0.354,1.985-2.817,2.866-3.688,1.529
	c-0.87-1.337-3.464-4.817-3.998-5.62c-0.535-0.803-3.124-3.214-4.016-1.252c-0.894,1.962,0.711,7.042,0.711,7.042
	c0.445,0.178-1.783,1.235,0.531,3.833c2.318,2.597,6.758,4.547,10.521,2.676c1.691-0.843,4.081,9.437,10.125,11.02
	c6.354,1.665,10.403-1.427,12.099-4.458c1.693-3.032,1.432-8.025,1.432-8.025h-6.741c0,0,2.772,4.996-1,6.56
	C432.252,137.417,426.404,127.145,426.404,127.145z"/>
<path fill="#8EB2C5" stroke="#231F20" stroke-width="1.5" stroke-linecap="round" stroke-linejoin="round" stroke-miterlimit="10" d="
	M433.774,110.917c2.123,6.354,5.257,20.124,5.257,20.124l7.8-1.873l-2.105-8.718c0,0,2.459,9.075,2.219,11.158
	c-2.271,19.684,11.816,15.807,11.816,15.807s13.462-5.277,13.462-7.596c0-10.35-29.126-32.976-31.711-34.356
	C437.927,104.083,433.174,109.117,433.774,110.917z"/>
<path fill="none" stroke="#231F20" stroke-width="1.5" stroke-linecap="round" stroke-linejoin="round" stroke-miterlimit="10" d="
	M411.504,117.484c0,0-0.521,5.304,6.666,9.518"/>
<path fill="#414042" stroke="#231F20" stroke-width="2" stroke-linecap="round" stroke-linejoin="round" stroke-miterlimit="10" d="
	M187.907,197.125c0,20.497-19.454,40.918-42.909,36.576c-19.939-3.692-30.525-16.079-30.525-36.576
	c0-20.496,16.438-37.112,36.717-37.112C171.468,160.013,187.907,176.629,187.907,197.125z"/>
<g>
	<polygon fill="#D1313D" points="133.074,189.443 133.074,188.963 155.775,175.71 174.273,182.072 165.423,189.443 	"/>
	<g>
		<path fill="#231F20" d="M155.857,176.532l16.913,5.816l-7.618,6.346h-30.129L155.857,176.532 M155.694,174.89l-23.371,13.643
			v1.661h33.371l10.082-8.398L155.694,174.89L155.694,174.89z"/>
	</g>
</g>
<path fill="#D1313D" stroke="#231F20" stroke-width="1.5" stroke-linecap="round" stroke-linejoin="round" stroke-miterlimit="10" d="
	M139.132,114.577c-9.574,1.242-18.44,9.328-18.973,12.855c-0.519,3.438-5.134,45.599-1.338,49.63
	c3.261,3.461,4.075,4.494,10.382,5.121c6.304,0.626,16.293-8.49,18.971-10.992c2.679-2.505,2.149-30.794,1.613-38.574
	C149.251,124.839,146.291,113.644,139.132,114.577z"/>
<path fill="none" stroke="#231F20" stroke-width="2" stroke-linecap="round" stroke-linejoin="round" stroke-miterlimit="10" d="
	M145.243,117.607c-6.56,1.867-16.292,7.185-18.419,12.162c-1.431,3.346-2.306,27.791-1.95,32.767
	c0.354,4.978,0.354,15.155,2.482,16.592"/>
<path fill="#615375" stroke="#231F20" stroke-width="1.5" stroke-linecap="round" stroke-linejoin="round" stroke-miterlimit="10" d="
	M155.726,116.445c0,0-10.636,10.968-12.505,14.277c-1.871,3.309-5.931,12.516-5.411,13.236c0.521,0.72,1.238,1.273,1.238,1.273
	s-6.905,17.717-6.761,19.445c0.144,1.726,15.771,8.13,16.302,7.662c0.255-0.225-0.706-11.478,2.258-22.336
	c3.218-11.791,12.424-25.108,11.568-25.821C157.679,120.236,155.726,116.445,155.726,116.445z"/>
<path fill="none" stroke="#231F20" stroke-width="1.5" stroke-linecap="round" stroke-linejoin="round" stroke-miterlimit="10" d="
	M156.745,125.686c-8.156,7.05-10.135,21.004-10.175,21.725c-0.041,0.718-8.761-3.453-8.761-3.453"/>
<path fill="#684D3A" d="M147.734,89.827c2.063,0,3.866,1.235,4.851,3.075c1.079-7.862,3.479-15.392,6.816-18.174
	c2.312-1.929,6.871-6.033,12.994-6.721c5.14-0.578,11.994,0,18.148,5.485c2.081,1.855,10.157,11.892,6.453,26.425
	c0,0-1.279,2.132-0.703,2.219c4.302,0.66,5.415,5.247,4.722,7.307c-1.936,5.749-8.271,5.196-8.271,5.196
	c-3.993,9.393-26.157,21.909-38.801-1.137c-1.512-2.759-2.117-7.729-1.969-13.247c-1.036,1.312-2.55,2.143-4.241,2.143
	c-3.122,0-5.651-2.813-5.651-6.286C142.082,92.642,144.612,89.827,147.734,89.827z"/>
<ellipse fill="#3C2415" cx="147.095" cy="74.494" rx="6.806" ry="7.927"/>
<ellipse fill="#3C2415" cx="185.57" cy="65.011" rx="9.583" ry="7.681"/>
<ellipse fill="#3C2415" cx="191.338" cy="72.749" rx="7.656" ry="6.779"/>
<ellipse fill="#3C2415" cx="146.406" cy="105.111" rx="6.702" ry="7.681"/>
<ellipse fill="#3C2415" cx="143.525" cy="98.389" rx="9.583" ry="7.681"/>
<ellipse fill="#3C2415" cx="169.931" cy="64.521" rx="11.864" ry="11.754"/>
<ellipse fill="#3C2415" cx="156.824" cy="66.772" rx="11.188" ry="10.444"/>
<ellipse fill="#3C2415" cx="157.623" cy="74.494" rx="9.28" ry="7.801"/>
<ellipse fill="#3C2415" cx="148.021" cy="87.242" rx="12.402" ry="8.854"/>
<path fill="#231F20" d="M183.381,88.708c0.873,1.296,1.062,3.764,0.419,5.512c-0.642,1.749-1.869,2.109-2.739,0.815
	c-0.875-1.3-1.062-3.767-0.418-5.509C181.283,87.773,182.512,87.412,183.381,88.708z"/>
<path fill="#231F20" d="M193.862,87.527c0.873,1.296,1.063,3.764,0.419,5.513c-0.642,1.749-1.869,2.109-2.739,0.815
	c-0.875-1.3-1.062-3.767-0.418-5.51C191.764,86.592,192.993,86.23,193.862,87.527z"/>
<path fill="none" stroke="#231F20" stroke-width="1.5" stroke-linecap="round" stroke-linejoin="round" stroke-miterlimit="10" d="
	M190.542,101.146c19.095,0.765,8.994,19.088-1.998,11.077"/>
<path fill="none" stroke="#231F20" stroke-width="1.5" stroke-linecap="round" stroke-linejoin="round" stroke-miterlimit="10" d="
	M192.009,115.771c-3.993,9.393-25.423,20.778-38.064-2.268c-4.269-7.779-1.336-33.11,5.458-38.775
	c2.312-1.929,6.871-6.033,12.994-6.721c5.14-0.578,11.994,0,18.148,5.485c2.081,1.855,10.157,11.892,6.453,26.425"/>
<path fill="none" stroke="#231F20" stroke-width="1.5" stroke-linecap="round" stroke-linejoin="round" stroke-miterlimit="10" d="
	M164.618,114.874c9.089,9.325,17.179,4.27,17.179,4.27"/>
<path fill="none" stroke="#231F20" stroke-width="1.5" stroke-linecap="round" stroke-linejoin="round" stroke-miterlimit="10" d="
	M158.517,54.433c14.723-3.104,19.654,14.134,12.741,12.753c-6.348-1.271,1.222-8.222,5.673-7.35
	c9.017,1.767,10.224,11.87,10.224,11.87"/>
<path fill="none" stroke="#231F20" stroke-width="1.5" stroke-linecap="round" stroke-linejoin="round" stroke-miterlimit="10" d="
	M140.872,85.072c2.562-8.963,14.987-2.157,10.104,0.726c-3.649,2.155-5.227-6.462-1.571-9.148c1.852-1.362,3.757-2.009,5.57-2.217"
	/>
<path fill="none" stroke="#231F20" stroke-width="1.5" stroke-linecap="round" stroke-linejoin="round" stroke-miterlimit="10" d="
	M192.971,69.426c8.926-2.683,9.909,11.454,4.844,8.897c-3.783-1.907,2.618-7.888,6.854-6.264c2.146,0.826,3.722,2.077,4.873,3.494"
	/>
<ellipse fill="#3C2415" cx="161.334" cy="65.79" rx="6.807" ry="7.928"/>
<path fill="none" stroke="#231F20" stroke-width="1.5" stroke-linecap="round" stroke-linejoin="round" stroke-miterlimit="10" d="
	M147.094,72.528c-2.313,9.027-14.923,2.567-10.118-0.449c3.588-2.255,5.399,6.318,1.82,9.104c-1.813,1.41-3.698,2.112-5.508,2.369"
	/>
<path fill="none" stroke="#231F20" stroke-width="1.5" stroke-linecap="round" stroke-linejoin="round" stroke-miterlimit="10" d="
	M151.023,60.806c7.882-4.58,17.366,1.276,12.781,4.619c-5.232,3.813-5.226-6.464-1.571-9.15c1.852-1.36,3.755-2.007,5.57-2.216"/>
<path fill="none" stroke="#231F20" stroke-width="1.5" stroke-linecap="round" stroke-linejoin="round" stroke-miterlimit="10" d="
	M188.784,72.856c-0.284-8.544,8.763-13.776,9.488-8.505c0.827,6.011-7.658,1.444-8.255-2.765c-0.303-2.136,0.008-3.995,0.645-5.587"
	/>
<path fill="none" stroke="#231F20" stroke-width="1.5" stroke-linecap="round" stroke-linejoin="round" stroke-miterlimit="10" d="
	M186.323,62.116c-3.316-3.709-2.799-9.161,0.441-7.863c4.466,1.79-2.007,5.842-5.141,4.601c-1.588-0.629-2.75-1.572-3.595-2.635"/>
<path fill="none" stroke="#231F20" stroke-width="1.5" stroke-linecap="round" stroke-linejoin="round" stroke-miterlimit="10" d="
	M150.996,47.591c4.023,2.925,4.665,8.364,1.227,7.778c-4.743-0.808,0.73-6.132,4.056-5.58c1.685,0.28,3.018,0.957,4.067,1.816"/>
<path fill="none" stroke="#231F20" stroke-width="1.5" stroke-linecap="round" stroke-linejoin="round" stroke-miterlimit="10" d="
	M148.935,64.314c-4.647,1.771-9.554-0.665-7.183-3.225c3.268-3.529,4.735,3.965,2.455,6.446c-1.153,1.258-2.45,2.005-3.745,2.414"/>
<path fill="none" stroke="#231F20" stroke-width="1.5" stroke-linecap="round" stroke-linejoin="round" stroke-miterlimit="10" d="
	M148.985,117.049c-6.193-5.378,3.859-12.758,4.341-7.788c0.358,3.711-7.1,1.759-7.882-2.153c-0.396-1.982-0.205-3.745,0.306-5.266"
	/>
<path fill="none" stroke="#231F20" stroke-width="1.5" stroke-linecap="round" stroke-linejoin="round" stroke-miterlimit="10" d="
	M145.787,89.468c6.338,5.209-3.51,12.858-4.125,7.904c-0.461-3.701,7.049-1.954,7.938,1.936c0.449,1.971,0.309,3.736-0.163,5.276"/>
<path fill="none" stroke="#231F20" stroke-width="1.5" stroke-linecap="round" stroke-linejoin="round" stroke-miterlimit="10" d="
	M133.412,99.918c-0.718-7.991,7.484-13.373,8.441-8.473c1.093,5.59-7.101,1.759-7.882-2.153c-0.396-1.982-0.204-3.744,0.307-5.268"
	/>
<path fill="none" stroke="#231F20" stroke-width="1.5" stroke-linecap="round" stroke-linejoin="round" stroke-miterlimit="10" d="
	M140.346,110.002c-6.193-5.376,3.859-12.755,4.341-7.785c0.359,3.713-7.101,1.761-7.881-2.153c-0.396-1.984-0.205-3.744,0.307-5.268
	"/>
<path fill="none" stroke="#231F20" stroke-width="1.5" stroke-linecap="round" stroke-linejoin="round" stroke-miterlimit="10" d="
	M183.795,52.408c-7.083,6.057-13.688-6.477-8.021-6.184c4.231,0.219,0.787,8.275-3.742,8.496c-2.295,0.112-4.241-0.396-5.867-1.227"
	/>
<ellipse fill="#3C2415" cx="154.974" cy="71.706" rx="6.805" ry="7.929"/>
<path fill="none" stroke="#231F20" stroke-width="1.5" stroke-linecap="round" stroke-linejoin="round" stroke-miterlimit="10" d="
	M167.727,68.522c-2.313,9.029-14.923,2.569-10.119-0.447c3.589-2.255,5.4,6.317,1.822,9.104c-1.813,1.41-3.699,2.113-5.508,2.368"/>
<path fill="none" stroke="#231F20" stroke-width="1.5" stroke-linecap="round" stroke-linejoin="round" stroke-miterlimit="10" d="
	M143.972,72.792c2.562-8.963,14.987-2.157,10.104,0.726c-3.65,2.155-5.227-6.462-1.571-9.148c1.853-1.362,3.756-2.011,5.568-2.218"
	/>
<ellipse fill="#684D3A" cx="186.626" cy="81.281" rx="7.441" ry="6.601"/>
<ellipse fill="#684D3A" cx="175.624" cy="78.432" rx="9.638" ry="7.806"/>
<ellipse fill="#684D3A" cx="166.511" cy="80.889" rx="6.764" ry="5.48"/>
<path fill="#684D3A" d="M169.201,89.768c0-3.027-2.593-5.479-5.79-5.479s-5.788,2.453-5.788,5.479c0,3.023,2.591,5.478,5.788,5.478
	S169.201,92.791,169.201,89.768z"/>
<path fill="none" stroke="#231F20" stroke-width="1.5" stroke-linecap="round" stroke-linejoin="round" stroke-miterlimit="10" d="
	M170.565,72.856c11.761-7.546,15.677,4.851,11.78,4.425c-2.911-0.317-0.218-5.738,2.917-5.712c1.585,0.013,2.907,0.442,3.996,1.079"
	/>
<path fill="none" stroke="#231F20" stroke-width="1.5" stroke-linecap="round" stroke-linejoin="round" stroke-miterlimit="10" d="
	M158.339,95.362c-3.865-13.172,6.948-11.947,6.447-9.482c-0.819,4.034-5.282,0.216-5.267-2.667c0.027-5.845,6.194-7.804,6.194-7.804
	"/>
<ellipse fill="#684D3A" cx="147.755" cy="96.741" rx="6.261" ry="6.906"/>
<path fill="none" stroke="#231F20" stroke-width="1.5" stroke-linecap="round" stroke-linejoin="round" stroke-miterlimit="10" d="
	M152.424,91.932c0,0-2.516-2.81-5.707-2.029c-8.241,2.016-4.104,14.081,1.404,13.737c2.276-0.141,2.916-1.424,2.916-1.424"/>
<path fill="#D1313D" stroke="#231F20" stroke-width="1.5" stroke-linecap="round" stroke-linejoin="round" stroke-miterlimit="10" d="
	M179.351,182.25c0.849,1.317,0.467,3.072-0.852,3.92l-12.432,8.004c-1.316,0.848-3.071,0.469-3.921-0.849l0,0
	c-0.849-1.317-0.468-3.072,0.851-3.922l12.432-8.004C176.746,180.551,178.502,180.933,179.351,182.25L179.351,182.25z"/>
<path fill="#D1313D" stroke="#231F20" stroke-width="1.5" stroke-linecap="round" stroke-linejoin="round" stroke-miterlimit="10" d="
	M165.809,192.082c0,1.79-1.405,3.237-3.14,3.237h-28.162c-1.733,0-3.139-1.447-3.139-3.237l0,0c0-1.788,1.404-3.237,3.139-3.237
	h28.162C164.403,188.844,165.809,190.293,165.809,192.082L165.809,192.082z"/>
<path fill="#231F20" stroke="#231F20" stroke-linecap="round" stroke-linejoin="round" stroke-miterlimit="10" d="M133.059,166.496
	c-0.916,2.014,1.318,14.467,4.751,17.602c3.843,3.51,13.349,4.567,20.254,3.416c6.906-1.15,13.354-4.134,14.075-2.695
	c0.719,1.438,2.589,15.824,2.589,15.824s2.449,17.464,3.021,18.127c1.108,1.285,5.181,1.44,6.042,0
	c0.862-1.438,0.145-12.803-0.721-17.121c-0.862-4.315-2.013-13.81-2.589-15.537c-0.576-1.726-1.875-9.263-3.887-9.836
	c-2.013-0.576-27.598-8.83-27.598-8.83l-0.41,4.892L133.059,166.496z"/>
<path fill="#231F20" stroke="#231F20" stroke-linecap="round" stroke-linejoin="round" stroke-miterlimit="10" d="M185.975,182.268
	c1.438,3.371,6.086,19.758,6.275,21.484c0.19,1.728,1.225,8.621,0.769,9.762c-0.53,1.325-1.807,2.332-2.964,2.132
	c-1.61-0.278-3.68-1.294-4.08-4.929c-0.4-3.635-9.509-33.938-9.509-33.938S185.392,180.902,185.975,182.268z"/>
<g>
	<path fill="#684D3A" d="M177.706,173.217c-5.366,0-8.488-1.571-9.296-2.037l-0.235,0.001c-2.815,0-12.461-0.196-18.321-2.714
		c-13.678-5.875-12.282-15.757-11.61-20.506c0.13-0.925,0.293-2.076,0.166-2.344c-0.289-0.468-0.339-0.887-0.144-1.239
		c0.104-0.183,0.358-0.491,0.93-0.491c1.233,0,4.523,1.768,5.504,2.31l0.468,0.259l-0.093,0.527
		c-0.013,0.075-1.256,7.507,2.57,12.477c2.012,2.613,5.096,4.117,9.167,4.467c4.038,0.347,8.802,0.729,10.135,0.833
		c0.719-0.762,2.847-2.934,5.204-4.519c2.382-1.6,5.18-2.329,6.77-2.329c0.48,0,0.823,0.067,1.075,0.211
		c0.514,0.294,0.837,0.752,0.936,1.325c0.138,0.81-0.215,1.75-0.666,2.566c0.438-0.094,0.901-0.157,1.353-0.157
		c1.551,0,2.262,0.738,2.584,1.358c0.522,1-0.239,2.311-1.198,3.423c1.546,0.007,2.51,0.325,2.941,0.972
		c0.199,0.297,0.376,0.797,0.09,1.491c-1.689,4.098-6.633,4.109-8.257,4.113h-0.069v0.003H177.706z"/>
	<g>
		<path fill="#231F20" d="M139.194,144.638c1.137,0,5.142,2.216,5.142,2.216s-2.907,16.501,12.411,17.821
			c4.749,0.408,10.502,0.863,10.502,0.863s2.521-2.792,5.318-4.672c2.365-1.588,5.043-2.201,6.352-2.201
			c0.332,0,0.575,0.04,0.703,0.112c1.856,1.061-1.279,4.67-1.279,4.67s1.755-0.837,3.272-0.837c0.806,0,1.544,0.235,1.92,0.955
			c0.611,1.17-2.161,3.686-2.479,3.97c-0.104,0.018-0.145,0.03-0.1,0.03c0.015,0,0.037-0.001,0.068-0.004
			c0,0,0.011-0.009,0.03-0.026c0.288-0.05,1.07-0.144,1.896-0.144c1.375,0,2.869,0.262,2.389,1.427
			c-1.505,3.649-5.978,3.645-7.585,3.649c-0.017,0-0.031,0-0.047,0c-6.012,0-9.088-2.038-9.088-2.038s-0.156,0.002-0.442,0.002
			c-2.21,0-12.186-0.144-18.025-2.653c-16.945-7.278-9.881-20.573-11.101-22.548C138.787,144.805,138.882,144.639,139.194,144.638
			 M139.194,143.138L139.194,143.138c-0.988,0-1.438,0.612-1.584,0.875c-0.222,0.397-0.378,1.039,0.09,1.878
			c0.029,0.339-0.098,1.236-0.2,1.965c-0.696,4.934-2.146,15.2,12.059,21.301c5.992,2.575,15.767,2.775,18.617,2.775
			c0.016,0,0.03,0,0.046,0c1.106,0.597,4.313,2.035,9.484,2.035h0.002h0.049c1.769-0.004,7.088-0.017,8.969-4.577
			c0.435-1.053,0.086-1.827-0.16-2.195c-0.421-0.629-1.119-1.021-2.153-1.196c0.66-1.059,0.959-2.158,0.451-3.129
			c-0.343-0.657-1.222-1.76-3.249-1.76c-0.045,0-0.09,0-0.134,0.001c0.193-0.595,0.285-1.208,0.188-1.786
			c-0.135-0.79-0.598-1.448-1.303-1.851c-0.369-0.211-0.829-0.31-1.446-0.31c-1.699,0-4.674,0.769-7.188,2.456
			c-2.187,1.468-4.175,3.424-5.082,4.365c-1.69-0.135-6.063-0.486-9.773-0.805c-3.85-0.332-6.753-1.735-8.631-4.171
			c-3.624-4.699-2.441-11.826-2.431-11.897l0.183-1.051l-0.935-0.519C143.438,144.645,140.52,143.138,139.194,143.138
			L139.194,143.138z"/>
	</g>
</g>
<path fill="#404041" stroke="#231F20" stroke-linecap="round" stroke-linejoin="round" stroke-miterlimit="10" d="M184.653,212.601
	c0,0-2.539,8.517,1.729,10.628c4.269,2.109,10.012,2.514,14.492,2.319c4.574-0.2,7.424-1.168,8.383-1.553
	c0.959-0.383,3.164-3.021,2.397-4.394c-0.767-1.375-6.487-5.171-9.322-6.452c-2.935-1.326-8.604-2.198-8.604-2.198
	S185.106,210.59,184.653,212.601z"/>
<path fill="#6D6E70" stroke="#231F20" stroke-width="2" stroke-linecap="round" stroke-linejoin="round" stroke-miterlimit="10" d="
	M168.74,207.164c0,20.497-19.454,40.918-42.91,36.576c-19.939-3.691-30.525-16.079-30.525-36.576
	c0-20.496,16.438-37.111,36.718-37.111C152.301,170.053,168.74,186.668,168.74,207.164z"/>
<path fill="none" stroke="#231F20" stroke-linecap="round" stroke-linejoin="round" stroke-miterlimit="10" d="M179.386,162.75
	c-0.411,1.052-3.311,2.816-4.791,2.816"/>
<path fill="none" stroke="#231F20" stroke-linecap="round" stroke-linejoin="round" stroke-miterlimit="10" d="M182.069,167.186
	c-2.188,1.115-3.996,2.076-5.395,1.588"/>
<line fill="none" stroke="#231F20" stroke-width="1.5" stroke-linecap="round" stroke-linejoin="round" stroke-miterlimit="10" x1="165.531" y1="112.792" x2="163.159" y2="116.209"/>
<path fill="none" stroke="#231F20" stroke-width="1.2" stroke-linecap="round" stroke-linejoin="round" stroke-miterlimit="10" d="
	M435.654,82.414c2.983-2.018,5.236,1.683,4.684,3.247"/>
<path fill="#404041" stroke="#231F20" stroke-linecap="round" stroke-linejoin="round" stroke-miterlimit="10" d="M176.347,219.933
	c0,0-2.539,8.519,1.729,10.628c4.269,2.111,10.011,2.514,14.49,2.319c4.575-0.2,7.426-1.166,8.384-1.551
	c0.959-0.385,3.164-3.023,2.397-4.396c-0.768-1.375-6.489-5.17-9.322-6.452c-2.935-1.326-8.604-2.198-8.604-2.198
	S176.799,217.924,176.347,219.933z"/>
<g>
	<g>
		<path fill="#A87C4F" stroke="#231F20" stroke-width="1.5" stroke-miterlimit="10" d="M247.366,177.104
			c0,0,6.444,44.396,4.675,45.866c-1.771,1.475,9.039-0.312,9.039-0.312s3.959-30.229,3.054-45.778L247.366,177.104z"/>
		<path fill="#A87C4F" stroke="#231F20" stroke-width="1.5" stroke-miterlimit="10" d="M234.897,177.98
			c0,0-3.042,43.305-3.947,44.713c-1.246,1.938,7.947,1.098,7.947,1.098s12.342-31.898,10.847-45.965L234.897,177.98z"/>
		
			<path fill="#231F20" stroke="#231F20" stroke-width="2" stroke-linecap="round" stroke-linejoin="round" stroke-miterlimit="10" d="
			M251.627,220.786c0,0-5.923,9.45-3.38,12.671c2.018,2.559,6.227,3.059,12.453,3.059c6.229,0,7.539-0.009,11.344,0.021
			c3.232,0.025,9.854-3.521-2.032-10.418c-5.521-3.2-10.379-5.333-10.379-5.333H251.627z"/>
		
			<path fill="#231F20" stroke="#231F20" stroke-width="2" stroke-linecap="round" stroke-linejoin="round" stroke-miterlimit="10" d="
			M230.104,223.868c0,0-7.082,10.188-4.467,13.662c2.076,2.759,6.41,3.298,12.822,3.298c6.414,0,7.764-0.009,11.681,0.023
			c3.329,0.026,10.144-3.797-2.097-11.232c-5.683-3.451-10.683-5.751-10.683-5.751H230.104L230.104,223.868z"/>
		<path fill="#A87C4F" stroke="#231F20" stroke-width="1.5" stroke-miterlimit="10" d="M247.912,118.202
			c0,0,16.81,25.295,16.601,26.668c-0.205,1.337,0.461,5.73,0.973,8.936c0.816,5.157,3.626,6.835,4.879,5.618
			c1.446-1.41-0.888-9.412-0.888-9.412s2.322,6.131,3.563,7.496c1.294,1.424,3.897,0.936,4.35-1.205
			c0.825-3.908-3.246-5.68-5.352-8.334c0,0,5.92,6.491,7.453,6.319c2.227-0.253,2.428-1.531,1.276-3.464
			c-1.048-1.771-4.222-3.146-5.646-4.391c-1.421-1.247-1.381-2.113-0.018-2.289c1.363-0.176,4.229-0.438,5.016-0.752
			c0.787-0.315,0.92-2.155-0.807-3.101c-1.245-0.681-11.226,1.265-11.226,1.265l-12.461-26.337L247.912,118.202z"/>
		
			<polygon fill="#D1313D" stroke="#231F20" stroke-width="1.5" stroke-linecap="round" stroke-linejoin="round" stroke-miterlimit="10" points="
			262.028,120.094 245.941,125.374 242.251,113.749 249.604,100.879 		"/>
		<path fill="#603813" d="M219.971,75.323c0,0.135-6.774,5.77-6.774,5.77l-12.902,6.092c0,0,9.131,18.322,19.328,12.512
			c3.306-1.882,4.404-22.75,4.404-22.75"/>
		<path fill="#A87C4F" d="M232.178,88.104c6.805,10.665,34.834,20.157,44.952-1.254c0.951-2.011,5.769-3.212,6.291-5.166
			c1.017-3.804-3.722-4.217-3.722-7.873c0-7.313-2.573-17.194-4.985-21.76c-4.757-9.018-20.896-8.858-27.628-6.597
			c-4.842,1.627-12.979,15.788-12.979,15.788s-6.624-6.533-12.207-1.009c-5.545,5.487-1.83,11.909,3.489,13.26
			c3.306,0.84,5.687-1.519,5.687-1.519S228.083,81.684,232.178,88.104z"/>
		<path fill="#603813" d="M225.472,56.598c0,0,3.405-11.456,10.601-18.212c3.472-3.261,13.511-5.797,18.257-5.42
			c2.766,0.219,8.309,1.731,10.58,3.318c3.989,2.783,14.827,10.002,12.977,14.501c-2.049,4.971-20.768,3.841-20.768,3.841
			s-5.596-8.386-8.907-8.186c-5.113,0.31-13.937,8.846-13.937,13.956"/>
		
			<path fill="none" stroke="#231F20" stroke-width="1.5" stroke-linecap="round" stroke-linejoin="round" stroke-miterlimit="10" d="
			M280.397,74.295c0.546-9.007-2.625-16.881-5.684-22.245"/>
		
			<path fill="none" stroke="#231F20" stroke-width="1.5" stroke-linecap="round" stroke-linejoin="round" stroke-miterlimit="10" d="
			M232.178,88.104c5.514,11.385,35.263,19.542,45.383-1.87"/>
		<path fill="none" stroke="#231F20" stroke-width="2" stroke-linecap="round" stroke-linejoin="round" stroke-miterlimit="10" d="
			M233.649,177.826"/>
		
			<path fill="#8EB2C5" stroke="#231F20" stroke-width="1.5" stroke-linecap="round" stroke-linejoin="round" stroke-miterlimit="10" d="
			M264.751,143.414l2.616,41.166c0,0-9.33,1.938-18.582,1.938c-4.46,0-17.824-0.229-17.824-0.229l2.705-44.164"/>
		<path fill="#231F20" d="M262.821,62.238c1.129,0.107,1.87,1.943,1.659,4.096c-0.211,2.156-1.297,3.812-2.424,3.704
			c-1.128-0.113-1.869-1.949-1.657-4.104C260.609,63.78,261.695,62.125,262.821,62.238z"/>
		<path fill="#231F20" d="M274.821,60.238c1.129,0.107,1.87,1.943,1.659,4.096c-0.211,2.156-1.297,3.812-2.424,3.704
			c-1.128-0.113-1.869-1.949-1.657-4.104C272.609,61.78,273.695,60.125,274.821,60.238z"/>
		<path fill="none" stroke="#231F20" stroke-width="2" stroke-linecap="round" stroke-linejoin="round" stroke-miterlimit="10" d="
			M262.218,36.284c11.141,3.397,17.368,17.546,17.482,18.342"/>
		<path fill="none" stroke="#231F20" stroke-width="2" stroke-linecap="round" stroke-linejoin="round" stroke-miterlimit="10" d="
			M262.218,36.284c11.141,3.397,17.368,17.546,17.482,18.342"/>
		<path fill="none" stroke="#231F20" stroke-width="2" stroke-linecap="round" stroke-linejoin="round" stroke-miterlimit="10" d="
			M254.328,36.284c11.142,3.397,17.368,17.546,17.481,18.342"/>
		<path fill="none" stroke="#231F20" stroke-width="2" stroke-linecap="round" stroke-linejoin="round" stroke-miterlimit="10" d="
			M251.37,39.986c8.656,4.996,13.438,15.915,13.538,16.611"/>
		<path fill="none" stroke="#231F20" stroke-width="2" stroke-linecap="round" stroke-linejoin="round" stroke-miterlimit="10" d="
			M247.087,42.999c7.623,5.327,11.813,14.92,11.904,15.572"/>
		<path fill="none" stroke="#231F20" stroke-width="2" stroke-linecap="round" stroke-linejoin="round" stroke-miterlimit="10" d="
			M244.735,46.667c-9.877,7.361-10.628,14.574-10.628,14.574s-3.258-3.893-6.944-3.49c-3.688,0.403-6.26,2.194-7.394,7.063
			c-1.141,4.899,4.521,9.15,8.512,8.635c2.549-0.33,2.795-1.476,2.795-1.476s-2.73,4.023-0.789,12.798"/>
		
			<path fill="none" stroke="#231F20" stroke-width="1.5" stroke-linecap="round" stroke-linejoin="round" stroke-miterlimit="10" d="
			M224.026,65.781c0,0,4.101-5.759,7.909-1.084"/>
		
			<path fill="none" stroke="#231F20" stroke-width="1.5" stroke-linecap="round" stroke-linejoin="round" stroke-miterlimit="10" d="
			M228.083,67.22c-1.403-1.986-1.011-3.997-1.011-3.997"/>
		<path fill="none" stroke="#231F20" stroke-width="2" stroke-linecap="round" stroke-linejoin="round" stroke-miterlimit="10" d="
			M251.37,35.658c-15.24,4.328-21.323,18.968-21.323,18.968"/>
		<path fill="none" stroke="#231F20" stroke-width="2" stroke-linecap="round" stroke-linejoin="round" stroke-miterlimit="10" d="
			M258.141,33.424c-16.335-2.675-28.85,6.563-32.669,21.964"/>
		<path fill="none" stroke="#231F20" stroke-width="2" stroke-linecap="round" stroke-linejoin="round" stroke-miterlimit="10" d="
			M221.226,73.811c-7.129,8.397-15.559,11.944-22.313,13.374"/>
		<path fill="none" stroke="#231F20" stroke-width="2" stroke-linecap="round" stroke-linejoin="round" stroke-miterlimit="10" d="
			M219.691,75.997C215.4,86.106,208.5,91.954,202.562,95.289"/>
		<path fill="none" stroke="#231F20" stroke-width="2" stroke-linecap="round" stroke-linejoin="round" stroke-miterlimit="10" d="
			M222.642,75.482c-1.433,12.667-7.123,21.41-12.573,27.038"/>
		<path fill="#231F20" d="M226.904,76.651c-0.54,1.015-2.09,1.244-3.465,0.515l-3.469-1.844c-1.375-0.73-2.055-2.146-1.515-3.159
			l0,0c0.539-1.013,2.089-1.244,3.465-0.515l3.469,1.843C226.766,74.223,227.443,75.639,226.904,76.651L226.904,76.651z"/>
		
			<path fill="none" stroke="#231F20" stroke-width="1.5" stroke-linecap="round" stroke-linejoin="round" stroke-miterlimit="10" d="
			M272.69,70.13c19.873,10.662,8.646,17.059-2.051,13.778"/>
		<polyline fill="#FFFFFF" points="231.075,143.459 229.855,161.115 234.614,160.353 234.216,144.663 230.962,143.095 		"/>
		<path fill="#A87C4F" stroke="#231F20" stroke-width="1.5" stroke-miterlimit="10" d="M220.102,121.547
			c0,0,5.401,28.679,4.344,29.811c-1.032,1.101-3.08,5.46-4.552,8.655c-2.367,5.136-0.584,8.21,1.428,7.793
			c2.325-0.482,4.931-9.041,4.931-9.041s-1.457,6.853-1.059,8.775c0.42,2.006,3.341,2.998,5.117,1.302
			c1.041-0.993-0.222-10.522-0.222-10.522s1.935,9.161,3.581,9.85c2.395,1,3.387-0.055,3.429-2.441
			c0.04-2.187-2.301-5.185-2.959-7.104c-0.656-1.917-0.08-2.681,1.398-2.088c1.479,0.592,4.519,1.933,5.504,2.08
			c0.985,0.15,2.261-1.447,1.108-3.259c-0.828-1.306-12.063-5.038-12.063-5.038l0.703-25.63L220.102,121.547z"/>
		<path fill="none" stroke="#231F20" stroke-width="2" stroke-linecap="round" stroke-linejoin="round" stroke-miterlimit="10" d="
			M224.026,76.946c1.561,10.905-3.21,19.566-6.618,25.574"/>
		<path fill="#231F20" d="M248.49,84.655c1.609-1.058,5.405,4.3,9.084,3.423c3.675-0.876,7.608-2.867,9.763-0.894
			c1.982,1.817,1.258,4.65-1.479,6.15C253.031,100.374,244.824,87.063,248.49,84.655z"/>
		
			<path fill="#D1313D" stroke="#231F20" stroke-width="1.5" stroke-linecap="round" stroke-linejoin="round" stroke-miterlimit="10" d="
			M230.289,151.602c0,0,8.089,5.897,18.077,6.313c10.401,0.433,19.844-3.504,19.844-3.504s-7.847-49.186-17.867-53.108
			l-14.799-6.269l-18.901,29.187l13.626,3.757l7.561-23.666l-6.574,22.681L230.289,151.602z"/>
	</g>
	<path fill="none" stroke="#231F20" stroke-width="2" stroke-linecap="round" stroke-linejoin="round" stroke-miterlimit="10" d="
		M299.001,133"/>
	<path fill="none" stroke="#231F20" stroke-width="1.4" stroke-linecap="round" stroke-linejoin="round" stroke-miterlimit="10" d="
		M263.118,57.43c-2.811-0.082-6.842,1.931-7.455,5.076"/>
	<path fill="none" stroke="#231F20" stroke-width="1.4" stroke-linecap="round" stroke-linejoin="round" stroke-miterlimit="10" d="
		M277.118,54.43c-1.652-0.048-3.727,0.628-5.279,1.832"/>
</g>
<path fill="none" stroke="#231F20" stroke-width="1.4" stroke-linecap="round" stroke-linejoin="round" stroke-miterlimit="10" d="
	M182.118,82.43c-2.811-0.082-6.842,1.931-7.455,5.076"/>
<path fill="none" stroke="#231F20" stroke-width="1.4" stroke-linecap="round" stroke-linejoin="round" stroke-miterlimit="10" d="
	M196.118,79.43c-1.652-0.048-3.727,0.628-5.279,1.832"/>
<path fill="none" stroke="#231F20" stroke-width="1.4" stroke-linecap="round" stroke-linejoin="round" stroke-miterlimit="10" d="
	M406.164,80.337c2.655-0.819,7.075-0.546,8.563,1.426"/>
<path fill="none" stroke="#231F20" stroke-width="1.4" stroke-linecap="round" stroke-linejoin="round" stroke-miterlimit="10" d="
	M394.961,82.12c1.547-0.58,3.728-0.611,5.587,0.024"/>
</svg>
