<?xml version="1.0" encoding="utf-8"?>
<!-- Generator: Adobe Illustrator 16.0.0, SVG Export Plug-In . SVG Version: 6.00 Build 0)  -->
<!DOCTYPE svg PUBLIC "-//W3C//DTD SVG 1.1//EN" "http://www.w3.org/Graphics/SVG/1.1/DTD/svg11.dtd">
<svg version="1.1" id="Layer_1" xmlns="http://www.w3.org/2000/svg" xmlns:xlink="http://www.w3.org/1999/xlink" x="0px" y="0px"
	 width="595.279px" height="841.89px" viewBox="0 0 595.279 841.89" enable-background="new 0 0 595.279 841.89"
	 xml:space="preserve">
<g>
	<g>
		<path fill="#A87C4F" stroke="#231F20" stroke-width="1.5" stroke-miterlimit="10" d="M86.005,134.454
			c0,0,4.968,34.221,3.604,35.354c-1.366,1.141,6.968-0.238,6.968-0.238s3.053-23.303,2.354-35.287L86.005,134.454z"/>
		<path fill="#A87C4F" stroke="#231F20" stroke-width="1.5" stroke-miterlimit="10" d="M76.393,135.127
			c0,0-2.345,33.383-3.044,34.467c-0.961,1.494,6.127,0.848,6.127,0.848s9.514-24.59,8.36-35.432L76.393,135.127z"/>
		
			<path fill="#231F20" stroke="#231F20" stroke-width="2" stroke-linecap="round" stroke-linejoin="round" stroke-miterlimit="10" d="
			M89.288,168.125c0,0-4.564,7.283-2.604,9.766c1.556,1.975,4.8,2.357,9.6,2.357c4.801,0,5.813-0.006,8.745,0.018
			c2.491,0.021,7.594-2.715-1.566-8.027c-4.257-2.471-8-4.111-8-4.111h-6.174V168.125z"/>
		
			<path fill="#231F20" stroke="#231F20" stroke-width="2" stroke-linecap="round" stroke-linejoin="round" stroke-miterlimit="10" d="
			M72.698,170.5c0,0-5.458,7.854-3.442,10.531c1.602,2.127,4.941,2.543,9.884,2.543c4.943,0,5.982-0.008,9.003,0.018
			c2.565,0.021,7.819-2.928-1.614-8.658c-4.379-2.658-8.233-4.434-8.233-4.434H72.698L72.698,170.5z"/>
		<path fill="#A87C4F" stroke="#231F20" stroke-width="1.5" stroke-miterlimit="10" d="M86.426,89.049
			c0,0,12.956,19.5,12.795,20.557c-0.158,1.031,0.354,4.418,0.75,6.891c0.63,3.975,2.795,5.27,3.762,4.33
			c1.113-1.086-0.687-7.256-0.687-7.256s1.791,4.727,2.746,5.777c0.998,1.1,3.007,0.723,3.353-0.928
			c0.639-3.014-2.502-4.381-4.124-6.424c0,0,4.563,5.002,5.746,4.869c1.717-0.193,1.871-1.182,0.983-2.668
			c-0.807-1.367-3.254-2.428-4.352-3.391c-1.097-0.959-1.064-1.629-0.015-1.764c1.052-0.135,3.259-0.338,3.865-0.58
			c0.608-0.242,0.709-1.66-0.621-2.391c-0.958-0.523-8.652,0.977-8.652,0.977l-9.604-20.303L86.426,89.049z"/>
		
			<polygon fill="#D1313D" stroke="#231F20" stroke-width="1.5" stroke-linecap="round" stroke-linejoin="round" stroke-miterlimit="10" points="
			97.306,90.506 84.906,94.579 82.061,85.618 87.729,75.696 		"/>
		<path fill="#603813" d="M64.887,55.997c0,0.104-5.222,4.445-5.222,4.445l-9.945,4.697c0,0,7.038,14.123,14.897,9.645
			c2.547-1.449,3.396-17.535,3.396-17.535"/>
		<path fill="#A87C4F" d="M74.297,65.848c5.245,8.223,26.853,15.537,34.65-0.967c0.733-1.551,4.445-2.477,4.85-3.98
			c0.782-2.934-2.868-3.252-2.868-6.068c0-5.637-1.983-13.254-3.843-16.773c-3.667-6.949-16.108-6.828-21.298-5.086
			c-3.73,1.256-10.005,12.17-10.005,12.17s-5.104-5.033-9.409-0.773c-4.273,4.229-1.41,9.178,2.69,10.221
			c2.548,0.646,4.382-1.172,4.382-1.172S71.14,60.901,74.297,65.848z"/>
		<path fill="#603813" d="M69.128,41.563c0,0,2.626-8.83,8.172-14.039c2.676-2.514,10.414-4.469,14.071-4.178
			c2.132,0.17,6.403,1.334,8.156,2.559c3.075,2.146,11.43,7.711,10.001,11.18c-1.578,3.832-16.008,2.959-16.008,2.959
			s-4.313-6.465-6.865-6.309c-3.94,0.238-10.741,6.816-10.741,10.756"/>
		
			<path fill="none" stroke="#231F20" stroke-width="1.5" stroke-linecap="round" stroke-linejoin="round" stroke-miterlimit="10" d="
			M111.467,55.206c0.421-6.943-2.022-13.014-4.38-17.148"/>
		
			<path fill="none" stroke="#231F20" stroke-width="1.5" stroke-linecap="round" stroke-linejoin="round" stroke-miterlimit="10" d="
			M74.297,65.848c4.25,8.775,27.182,15.064,34.982-1.439"/>
		<path fill="none" stroke="#231F20" stroke-width="2" stroke-linecap="round" stroke-linejoin="round" stroke-miterlimit="10" d="
			M75.431,135.01"/>
		
			<path fill="#8EB2C5" stroke="#231F20" stroke-width="1.5" stroke-linecap="round" stroke-linejoin="round" stroke-miterlimit="10" d="
			M99.406,108.483l2.017,31.732c0,0-7.192,1.494-14.324,1.494c-3.438,0-13.738-0.176-13.738-0.176l2.085-34.043"/>
		<path fill="#231F20" d="M97.917,45.911c0.87,0.082,1.442,1.498,1.279,3.156c-0.162,1.662-0.999,2.938-1.868,2.855
			c-0.869-0.088-1.439-1.504-1.276-3.164C96.213,47.1,97.051,45.823,97.917,45.911z"/>
		<path fill="#231F20" d="M107.169,44.37c0.868,0.08,1.44,1.496,1.278,3.154c-0.163,1.664-1,2.939-1.869,2.857
			c-0.87-0.088-1.44-1.502-1.276-3.164C105.464,45.557,106.301,44.282,107.169,44.37z"/>
		<path fill="none" stroke="#231F20" stroke-width="2" stroke-linecap="round" stroke-linejoin="round" stroke-miterlimit="10" d="
			M97.452,25.905c8.586,2.619,13.389,13.523,13.477,14.139"/>
		<path fill="none" stroke="#231F20" stroke-width="2" stroke-linecap="round" stroke-linejoin="round" stroke-miterlimit="10" d="
			M97.452,25.905c8.586,2.619,13.389,13.523,13.477,14.139"/>
		<path fill="none" stroke="#231F20" stroke-width="2" stroke-linecap="round" stroke-linejoin="round" stroke-miterlimit="10" d="
			M91.371,25.905c8.587,2.619,13.39,13.523,13.477,14.139"/>
		<path fill="none" stroke="#231F20" stroke-width="2" stroke-linecap="round" stroke-linejoin="round" stroke-miterlimit="10" d="
			M89.092,28.758c6.673,3.852,10.358,12.268,10.437,12.805"/>
		<path fill="none" stroke="#231F20" stroke-width="2" stroke-linecap="round" stroke-linejoin="round" stroke-miterlimit="10" d="
			M85.788,31.081c5.877,4.105,9.105,11.5,9.178,12.004"/>
		<path fill="none" stroke="#231F20" stroke-width="2" stroke-linecap="round" stroke-linejoin="round" stroke-miterlimit="10" d="
			M83.976,33.909c-7.612,5.674-8.192,11.232-8.192,11.232s-2.51-3-5.354-2.688c-2.842,0.309-4.824,1.688-5.697,5.439
			c-0.88,3.777,3.484,7.059,6.562,6.656c1.964-0.254,2.152-1.137,2.152-1.137s-2.104,3.102-0.607,9.865"/>
		
			<path fill="none" stroke="#231F20" stroke-width="1.5" stroke-linecap="round" stroke-linejoin="round" stroke-miterlimit="10" d="
			M68.013,48.641c0,0,3.161-4.438,6.098-0.834"/>
		
			<path fill="none" stroke="#231F20" stroke-width="1.5" stroke-linecap="round" stroke-linejoin="round" stroke-miterlimit="10" d="
			M71.14,49.75c-1.083-1.531-0.777-3.08-0.777-3.08"/>
		<path fill="none" stroke="#231F20" stroke-width="2" stroke-linecap="round" stroke-linejoin="round" stroke-miterlimit="10" d="
			M89.092,25.422c-11.748,3.336-16.438,14.621-16.438,14.621"/>
		<path fill="none" stroke="#231F20" stroke-width="2" stroke-linecap="round" stroke-linejoin="round" stroke-miterlimit="10" d="
			M94.309,23.7c-12.591-2.063-22.236,5.059-25.183,16.932"/>
		<path fill="none" stroke="#231F20" stroke-width="2" stroke-linecap="round" stroke-linejoin="round" stroke-miterlimit="10" d="
			M65.854,54.833c-5.495,6.473-11.991,9.205-17.2,10.309"/>
		<path fill="none" stroke="#231F20" stroke-width="2" stroke-linecap="round" stroke-linejoin="round" stroke-miterlimit="10" d="
			M64.673,56.518c-3.309,7.789-8.627,12.297-13.204,14.869"/>
		<path fill="none" stroke="#231F20" stroke-width="2" stroke-linecap="round" stroke-linejoin="round" stroke-miterlimit="10" d="
			M66.946,56.12c-1.104,9.764-5.49,16.504-9.691,20.842"/>
		<path fill="#231F20" d="M70.231,57.02c-0.416,0.783-1.61,0.961-2.671,0.396l-2.674-1.42c-1.061-0.564-1.583-1.652-1.167-2.438l0,0
			c0.416-0.779,1.609-0.959,2.671-0.395l2.673,1.422C70.125,55.149,70.647,56.241,70.231,57.02L70.231,57.02z"/>
		
			<path fill="none" stroke="#231F20" stroke-width="1.5" stroke-linecap="round" stroke-linejoin="round" stroke-miterlimit="10" d="
			M105.525,51.995c15.318,8.219,6.665,13.148-1.581,10.619"/>
		<polyline fill="#FFFFFF" points="73.447,108.518 72.507,122.127 76.176,121.54 75.867,109.448 73.359,108.237 		"/>
		<path fill="#A87C4F" stroke="#231F20" stroke-width="1.5" stroke-miterlimit="10" d="M64.988,91.627
			c0,0,4.165,22.105,3.349,22.979c-0.797,0.852-2.375,4.209-3.509,6.674c-1.824,3.959-0.45,6.326,1.101,6.01
			c1.792-0.373,3.8-6.975,3.8-6.975s-1.124,5.283-0.814,6.77c0.323,1.547,2.574,2.311,3.944,1.004
			c0.803-0.768-0.171-8.111-0.171-8.111s1.491,7.063,2.761,7.594c1.846,0.77,2.609-0.043,2.644-1.883
			c0.03-1.686-1.771-3.996-2.281-5.477c-0.506-1.48-0.063-2.066,1.079-1.609c1.141,0.457,3.481,1.49,4.242,1.604
			c0.761,0.117,1.742-1.117,0.854-2.512c-0.64-1.008-9.299-3.885-9.299-3.885l0.542-19.756L64.988,91.627z"/>
		<path fill="none" stroke="#231F20" stroke-width="2" stroke-linecap="round" stroke-linejoin="round" stroke-miterlimit="10" d="
			M68.013,57.249c1.202,8.406-2.475,15.082-5.103,19.713"/>
		<path fill="#231F20" d="M86.87,63.192c1.242-0.816,4.168,3.314,7.002,2.639c2.833-0.674,5.866-2.211,7.524-0.689
			c1.529,1.4,0.971,3.584-1.138,4.742C90.371,75.307,84.046,65.045,86.87,63.192z"/>
		
			<path fill="#D1313D" stroke="#231F20" stroke-width="1.5" stroke-linecap="round" stroke-linejoin="round" stroke-miterlimit="10" d="
			M72.842,114.795c0,0,6.235,4.547,13.936,4.867c8.019,0.332,15.296-2.701,15.296-2.701s-6.049-37.914-13.772-40.939l-11.407-4.83
			L62.324,93.688l10.503,2.896l5.827-18.242l-5.065,17.482L72.842,114.795z"/>
	</g>
	<path fill="none" stroke="#231F20" stroke-width="2" stroke-linecap="round" stroke-linejoin="round" stroke-miterlimit="10" d="
		M125.805,100.456"/>
	<path fill="none" stroke="#231F20" stroke-width="1.4" stroke-linecap="round" stroke-linejoin="round" stroke-miterlimit="10" d="
		M98.146,42.206c-2.166-0.064-5.272,1.486-5.745,3.912"/>
	<path fill="none" stroke="#231F20" stroke-width="1.4" stroke-linecap="round" stroke-linejoin="round" stroke-miterlimit="10" d="
		M108.937,39.891c-1.271-0.035-2.87,0.486-4.068,1.414"/>
</g>
<g>
	<path fill="#DD9F5B" d="M121.218,80.391c0.973,1.596,2.238,3.248,5.444,5.115c5.146,2.998,19.495-0.176,22.241-9.705
		c1.78-6.178-0.06-15.236-6.163-20.891c-8.648-8.018-20.692-0.838-23.204,4.514C119.097,60.358,113.533,67.801,121.218,80.391z"/>
	<path fill="none" stroke="#231F20" stroke-width="1.5" stroke-linecap="round" stroke-linejoin="round" stroke-miterlimit="10" d="
		M119.536,59.424c0.918-5.84,14.556-12.529,23.204-4.514c6.104,5.652,7.943,14.713,6.163,20.891
		c-2.746,9.529-17.098,12.703-22.241,9.705c-3.206-1.867-5.444-5.115-5.444-5.115"/>
	
		<ellipse transform="matrix(-0.9999 0.0167 -0.0167 -0.9999 240.0724 128.7094)" fill="#231F20" cx="119.498" cy="65.359" rx="1.226" ry="2.435"/>
	
		<ellipse transform="matrix(-0.9998 0.0175 -0.0175 -0.9998 254.1262 128.4895)" fill="#231F20" cx="126.5" cy="65.358" rx="1.226" ry="2.436"/>
	
		<ellipse transform="matrix(0.9879 0.1554 -0.1554 0.9879 12.1168 -23.0038)" fill="#DD9F5B" stroke="#231F20" stroke-width="1.5" stroke-miterlimit="10" cx="153.221" cy="66.013" rx="4.079" ry="4.173"/>
	<path fill="none" stroke="#231F20" stroke-width="1.5" stroke-linecap="round" stroke-linejoin="round" stroke-miterlimit="10" d="
		M129.971,82.588c7.229-2.322,9.324-7.82,9.621-10.082"/>
	<path fill="none" stroke="#231F20" stroke-width="2" stroke-linecap="round" stroke-linejoin="round" stroke-miterlimit="10" d="
		M145.412,56.122c-4.42-3.203-4.137-3.012-7.529-4.957c-8.307-4.762-17.035,0.117-17.035,0.117s15.521-0.924,14.508,5.531"/>
	<path fill="none" stroke="#231F20" stroke-width="2" stroke-linecap="round" stroke-linejoin="round" stroke-miterlimit="10" d="
		M147.932,62.598c-1.229-5.186-2.988-8.461-5.998-10.818c-7.606-5.961-15.819-5.693-15.819-5.693s4.729,2.146,7.964,4.971"/>
	
		<ellipse transform="matrix(0.9879 0.1552 -0.1552 0.9879 13.3478 -17.7423)" fill="#DD9F5B" cx="120.325" cy="76.63" rx="5.545" ry="3.694"/>
	<path fill="none" stroke="#231F20" stroke-width="1.5" stroke-linecap="round" stroke-linejoin="round" stroke-miterlimit="10" d="
		M122.047,71.348c0,0-7.68,0.994-7.46,4.566c0.319,5.229,8.473,4.459,9.753,3.795"/>
	<path fill="none" stroke="#231F20" stroke-width="1.5" stroke-linecap="round" stroke-linejoin="round" stroke-miterlimit="10" d="
		M121.119,110.206c0,0-10.313-2.982-8.572,5.176"/>
	<path fill="#DD9F5B" stroke="#231F20" stroke-width="1.5" stroke-miterlimit="10" d="M139.989,97.534c0,0-6.892,7.918-9.313,9.758
		c-2.615,1.982-4.156,4.158-5.068,3.943c-0.915-0.219-3.214-1.381-5.908-0.93c-3.528,0.59-6.241,1.135-7.152,5.074
		c-0.396,1.707,0.678,3.17,1.95,2.496c1.271-0.674,3.265-2.592,4.689-3.857c1.188-1.055,4.72-0.789,5.043,0.865
		c0.324,1.654-2.892,4.414-1.846,6.109c1.046,1.693,2.563,0.934,3.156-0.066c0.595-1,1.381-3.215,1.412-4.813
		c0.034-1.602-0.144-1.844,0.431-2.27c3.883-2.891,16.588-12.492,17.241-13.408L139.989,97.534z"/>
	
		<polygon fill="#8EB2C5" stroke="#231F20" stroke-width="1.5" stroke-linecap="round" stroke-linejoin="round" stroke-miterlimit="10" points="
		142.782,86.03 137.438,97.704 143.179,103.729 146.306,98.5 	"/>
	<path fill="#DD9F5B" stroke="#231F20" stroke-width="1.5" stroke-miterlimit="10" d="M134.825,96.555c0,0,2.847-6.166,2.396-7.699
		c-0.591-2.025-1.913-1.92-2.534-1.051c-0.619,0.871-0.81,2.381-1.314,3.84c-0.504,1.459-2.474,1.832-2.974,0.719
		c-0.5-1.115-2.049-4.059-2.355-4.729c-0.312-0.672-1.981-2.805-2.891-1.426s-0.301,5.412-0.301,5.412
		c0.317,0.188-1.495,0.725-0.053,2.963c1.444,2.242,4.569,4.246,7.644,3.275c1.381-0.436,1.965,7.625,6.351,9.545
		c4.608,2.016,8.041,0.154,9.684-1.936c1.644-2.094,2.037-5.902,2.037-5.902l-5.102-0.803c0,0,1.506,4.111-1.536,4.848
		C138.026,105.022,134.825,96.555,134.825,96.555z"/>
	
		<path fill="#8EB2C5" stroke="#231F20" stroke-width="1.5" stroke-linecap="round" stroke-linejoin="round" stroke-miterlimit="10" d="
		M142.332,85.153c0.852,5.061,1.583,15.852,1.583,15.852l6.124-0.488l-0.559-6.848c0,0,0.781,7.16,0.353,8.707
		c-4.063,14.623,7.062,13.365,7.062,13.365s10.813-2.393,11.09-4.146c1.23-7.83-18.114-28.414-19.906-29.766
		C146.287,80.477,142.092,83.719,142.332,85.153z"/>
	<path fill="none" stroke="#231F20" stroke-width="1.5" stroke-linecap="round" stroke-linejoin="round" stroke-miterlimit="10" d="
		M124.7,87.473c0,0-1.024,3.951,3.911,7.994"/>
</g>
<g>
	<path fill="#8B5E3C" d="M474.292,81.03c-0.889,1.613-2.06,3.299-5.131,5.283c-4.931,3.184-19.202,0.711-22.341-8.547
		c-2.032-6.002-0.634-15.004,5.12-20.85c8.152-8.283,20.337-1.764,23.053,3.391C475.468,61.208,481.285,68.284,474.292,81.03z"/>
	<path fill="none" stroke="#231F20" stroke-width="1.5" stroke-linecap="round" stroke-linejoin="round" stroke-miterlimit="10" d="
		M474.993,60.307c-1.171-5.707-14.898-11.674-23.053-3.389c-5.754,5.844-7.152,14.846-5.12,20.85
		c3.139,9.256,17.41,11.729,22.341,8.545c3.071-1.984,5.131-5.281,5.131-5.281"/>
	<path fill="#231F20" d="M465.383,67.124c0.228,1.439,0.993,2.207,1.718,1.725c0.719-0.479,1.123-2.035,0.897-3.475
		c-0.227-1.434-0.99-2.201-1.714-1.719C465.562,64.137,465.159,65.69,465.383,67.124z"/>
	<path fill="#231F20" d="M473.383,67.124c0.228,1.439,0.993,2.207,1.718,1.725c0.719-0.479,1.123-2.035,0.897-3.475
		c-0.227-1.434-0.99-2.201-1.714-1.719C473.562,64.137,473.159,65.69,473.383,67.124z"/>
	
		<ellipse transform="matrix(-0.9796 0.2008 -0.2008 -0.9796 888.8197 46.4934)" fill="#8B5E3C" stroke="#231F20" stroke-width="1.5" stroke-miterlimit="10" cx="442.052" cy="68.332" rx="4.021" ry="4.11"/>
	<path fill="none" stroke="#231F20" stroke-width="1.5" stroke-linecap="round" stroke-linejoin="round" stroke-miterlimit="10" d="
		M468.024,82.559c-7.148,2.215-11.949-1.037-13.471-2.693"/>
	<path fill="#8B5E3C" stroke="#231F20" stroke-width="1.5" stroke-miterlimit="10" d="M452.635,93.467c0,0,4.926,9.098,6.861,11.387
		c2.09,2.471,3.104,4.895,4.027,4.885c0.928-0.014,3.389-0.641,5.882,0.375c3.271,1.324,5.763,2.432,5.791,6.42
		c0.015,1.727-1.332,2.9-2.411,1.979s-2.583-3.189-3.685-4.719c-0.917-1.27-4.37-1.773-5.037-0.25
		c-0.668,1.521,1.832,4.867,0.461,6.273c-1.37,1.404-2.664,0.346-3.021-0.744c-0.357-1.09-0.637-3.389-0.324-4.932
		c0.313-1.547,0.532-1.74,0.073-2.271c-3.112-3.615-12.332-16.102-12.766-17.121L452.635,93.467z"/>
	<path fill="#8B5E3C" stroke="#231F20" stroke-width="1.5" stroke-miterlimit="10" d="M463.278,103.209c0,0,0.43-6.68,1.536-7.799
		c1.465-1.479,2.563-0.766,2.689,0.281s-0.416,2.441-0.662,3.943c-0.247,1.502,1.283,2.75,2.24,2.02
		c0.956-0.732,3.679-2.555,4.262-2.99c0.583-0.438,3.034-1.498,3.174,0.123c0.142,1.621-2.283,4.83-2.283,4.83
		c-0.361,0.014,0.959,1.33-1.346,2.592c-2.305,1.264-5.954,1.533-8.161-0.75c-0.992-1.025-5.518,5.582-9.604,4.736
		c-4.855-1.01-6.748-2.314-7.189-4.898c-0.438-2.584-0.511-7.182-0.511-7.182l3.271,0.92c0,0-1.417,4.189,0.395,6.688
		c1.809,2.498,5.838,2.625,7.021,1.689C459.3,106.477,463.278,103.209,463.278,103.209z"/>
	
		<ellipse transform="matrix(-0.9797 0.2005 -0.2005 -0.9797 955.7949 57.9184)" fill="#8B5E3C" cx="474.965" cy="77.35" rx="5.466" ry="3.64"/>
	<path fill="none" stroke="#231F20" stroke-width="1.5" stroke-linecap="round" stroke-linejoin="round" stroke-miterlimit="10" d="
		M473.064,72.163c0,0,7.604,0.631,7.551,4.158c-0.076,5.166-8.139,4.773-9.43,4.18"/>
	<path fill="#5D5D5D" stroke="#231F20" stroke-width="1.5" stroke-miterlimit="10" d="M452.905,85.803
		c-0.607,5.021,5.427,12.939,5.427,12.939s-4.493,3.93-5.914,3.537c-0.37-0.105-2.141-3.363-2.141-3.363s-3.636,1.297-4.858,2.471
		c-2.753,2.639-4.113,14.693-4.113,14.693s-10.22-1.139-10.073-2.883c0.414-4.9,14.977-28.123,16.679-29.535
		C449.609,82.252,453.079,84.381,452.905,85.803z"/>
	<path fill="none" stroke="#231F20" stroke-width="1.5" stroke-linecap="round" stroke-linejoin="round" stroke-miterlimit="10" d="
		M474.964,102.28c0,0-1.134,2.734-5.783,2.904"/>
	<path fill="none" stroke="#231F20" stroke-width="1.5" stroke-linecap="round" stroke-linejoin="round" stroke-miterlimit="10" d="
		M476.224,99.317c0,0-0.563,2.906-5.087,4"/>
	
		<line fill="none" stroke="#231F20" stroke-width="2" stroke-linecap="round" stroke-linejoin="round" stroke-miterlimit="10" x1="451.235" y1="50.069" x2="453.956" y2="54.387"/>
	
		<line fill="none" stroke="#231F20" stroke-width="2" stroke-linecap="round" stroke-linejoin="round" stroke-miterlimit="10" x1="456.964" y1="47.756" x2="458.228" y2="52.7"/>
	
		<line fill="none" stroke="#231F20" stroke-width="2" stroke-linecap="round" stroke-linejoin="round" stroke-miterlimit="10" x1="468.999" y1="47.94" x2="466.739" y2="52.516"/>
	
		<line fill="none" stroke="#231F20" stroke-width="2" stroke-linecap="round" stroke-linejoin="round" stroke-miterlimit="10" x1="463.322" y1="46.717" x2="462.416" y2="51.739"/>
</g>
<g>
	<path fill="#DD9F5B" d="M417.185,67.991c4.885,7.654,25.006,14.471,32.271-0.9c0.682-1.443,7.171-2.547,6.828-3.955
		c-1.229-5.057-4.984-2.781-4.984-5.404c0-5.25-1.848-12.344-3.578-15.621c-3.415-6.475-15.002-6.357-19.834-4.732
		c-3.477,1.168-9.317,11.332-9.317,11.332s-4.756-4.689-8.764-0.727c-3.979,3.939-1.313,8.551,2.505,9.521
		c2.373,0.604,4.083-1.09,4.083-1.09S414.247,63.381,417.185,67.991z"/>
	
		<path fill="none" stroke="#231F20" stroke-width="1.55" stroke-linecap="round" stroke-linejoin="round" stroke-miterlimit="10" d="
		M451.802,58.079c0.081-1.336,0.049-2.639-0.074-3.896"/>
	<path fill="none" stroke="#231F20" stroke-width="1.5" stroke-linecap="round" stroke-linejoin="round" stroke-miterlimit="10" d="
		M417.185,67.991c3.958,8.174,25.313,14.029,32.579-1.344"/>
	<path fill="#231F20" d="M439.036,50.905c0.018,1.23-0.488,2.236-1.131,2.244c-0.64,0.012-1.173-0.98-1.188-2.213
		c-0.021-1.23,0.486-2.234,1.127-2.246C438.483,48.682,439.018,49.674,439.036,50.905z"/>
	<path fill="#231F20" d="M448.036,49.905c0.018,1.23-0.488,2.236-1.131,2.244c-0.64,0.012-1.173-0.98-1.188-2.213
		c-0.021-1.23,0.486-2.234,1.127-2.246C447.483,47.682,448.018,48.674,448.036,49.905z"/>
	<path fill="none" stroke="#231F20" stroke-width="2" stroke-linecap="round" stroke-linejoin="round" stroke-miterlimit="10" d="
		M426.2,38.245c-7.091,5.285-7.63,10.463-7.63,10.463s-2.338-2.795-4.983-2.506c-2.646,0.289-4.493,1.576-5.309,5.07
		c-0.817,3.518,3.245,6.568,6.109,6.197c1.829-0.236,2.007-1.059,2.007-1.059s-1.962,2.889-0.565,9.188"/>
	<path fill="none" stroke="#231F20" stroke-width="1.5" stroke-linecap="round" stroke-linejoin="round" stroke-miterlimit="10" d="
		M411.335,51.967c0,0,2.94-4.137,5.678-0.779"/>
	<path fill="none" stroke="#231F20" stroke-width="1.5" stroke-linecap="round" stroke-linejoin="round" stroke-miterlimit="10" d="
		M414.247,52.999c-1.011-1.426-0.728-2.869-0.728-2.869"/>
	<path fill="none" stroke="#231F20" stroke-width="1.5" stroke-linecap="round" stroke-linejoin="round" stroke-miterlimit="10" d="
		M448.513,56.459c14.266,6.656,6.207,10.646-1.472,8.602"/>
	<path fill="#DD9F5B" stroke="#231F20" stroke-width="1.5" stroke-miterlimit="10" d="M411.388,94.872
		c0,0,1.007,19.961,0.245,20.861c-0.741,0.877-2.21,4.348-3.27,6.893c-1.696,4.09-0.418,6.535,1.025,6.205
		c1.669-0.385,3.54-7.199,3.54-7.199s-1.047,5.455-0.76,6.986c0.303,1.598,2.396,2.389,3.674,1.037
		c0.747-0.791-0.159-8.377-0.159-8.377s1.391,7.295,2.571,7.844c1.718,0.795,2.431-0.043,2.461-1.943
		c0.028-1.744-1.65-4.129-2.124-5.658c-0.472-1.523-0.058-2.133,1.004-1.66c1.063,0.473,3.243,1.537,3.951,1.654
		c0.709,0.119,1.622-1.15,0.796-2.596c-0.594-1.039-8.659-4.01-8.659-4.01l-0.931-19.689L411.388,94.872z"/>
	<path fill="#DD9F5B" stroke="#231F20" stroke-width="1.5" stroke-miterlimit="10" d="M430.446,88.245c0,0,20.659,6.607,21.16,7.471
		c0.485,0.838,2.824,2.996,4.546,4.561c2.768,2.52,5.075,2.195,5.226,0.953c0.171-1.436-4.713-4.861-4.713-4.861
		s4.038,2.389,5.338,2.594c1.354,0.215,2.581-1.225,1.869-2.623c-0.415-0.82-6.703-2.26-6.703-2.26s6.19,0.975,6.966,0.188
		c1.122-1.139,0.659-1.941-0.843-2.51c-1.376-0.52-3.752,0.135-5.102,0.076c-1.349-0.063-1.714-0.564-1.035-1.273
		s2.146-2.139,2.441-2.666c0.296-0.527-0.455-1.619-1.836-1.375c-0.996,0.18-5.656,5.74-5.656,5.74l-20.965-6.449L430.446,88.245z"
		/>
	<path fill="#231F20" d="M439.43,68.737c2.868,0.926,3.378,1.432,4.582,0.92c2.394-1.02,0.637-1.975,0.002-2.529
		c-0.634-0.561-2.985-1.479-5.017-1.031c-1.371,0.301-2.638,0.77-4.08,1.789c-1.445,1.025-2.389,3.273-2.195,3.578
		c0.667,1.066,1.306-0.225,1.933-0.742C435.519,70.004,438.124,68.315,439.43,68.737z"/>
	<path fill="#231F20" d="M415.012,35.454c-17.348,24.721-9.858,35.984,2.041,35.604c2.782-0.088,4.046-0.355,5.096-1.457
		c0.608-0.639,2.695-2.508-0.146-2.188c-0.521,0.059-1.112,0.063-1.759-0.096c-2.144-0.521-3.097-2.445-0.313-4.742
		s6.935-10.816,7.028-14.557c0.092-3.623-0.661-10.021-5.137-12.039C417.349,33.961,415.012,35.454,415.012,35.454z"/>
	
		<line fill="none" stroke="#231F20" stroke-width="1.5" stroke-linecap="round" stroke-linejoin="round" stroke-miterlimit="10" x1="425.684" y1="51.446" x2="432.029" y2="51.684"/>
	<path fill="none" stroke="#231F20" stroke-width="1.5" stroke-linecap="round" stroke-linejoin="round" stroke-miterlimit="10" d="
		M442.253,48.749c0,3.531,2.417,6.637,5.376,6.938c2.96,0.303,5.337-2.303,5.337-5.807s-2.377-6.607-5.337-6.934
		C444.67,42.62,442.253,45.217,442.253,48.749z"/>
	<path fill="none" stroke="#231F20" stroke-width="1.5" stroke-linecap="round" stroke-linejoin="round" stroke-miterlimit="10" d="
		M431.595,49.872c0,3.529,2.416,6.637,5.376,6.936c2.959,0.301,5.336-2.301,5.336-5.807c0-3.504-2.377-6.605-5.336-6.934
		C434.011,43.743,431.595,46.34,431.595,49.872z"/>
	<path fill="#231F20" d="M455.016,43.952c-11.297,3.82-26.085,1.574-31.066-0.566c-5.726-2.463-6.765-7.201-6.765-9.063
		c0-4.449,4.903-4.471,10.647-5.652c8.815-1.816,18.521,2.684,20.911,7.184c1.533,2.889,4.82,4.955,6.979,6.064
		C456.927,42.538,455.965,43.631,455.016,43.952z"/>
	
		<polygon fill="#E5625C" stroke="#231F20" stroke-width="1.5" stroke-linecap="round" stroke-linejoin="round" stroke-miterlimit="10" points="
		437.921,86.354 434.898,92.563 427.911,87.928 423.726,79.055 	"/>
	
		<path fill="#E5625C" stroke="#231F20" stroke-width="1.5" stroke-linecap="round" stroke-linejoin="round" stroke-miterlimit="10" d="
		M416.395,113.848l12.3,1.047c0,0-2.13-14.328,1.784-24.477c1.142-2.953-0.837-6.961-1.88-10.182
		c-0.433-1.338-0.704-2.535-0.527-3.471l-8.47-5.219l-9.263,23.107l5.475,0.543l5.427-16.99l-4.719,16.283L416.395,113.848z"/>
</g>
<g>
	<path fill="#DD9F5B" stroke="#231F20" stroke-width="1.5" stroke-miterlimit="10" d="M520.89,82.229c0,0-0.91,18.047-0.224,18.861
		c0.671,0.793,1.999,3.93,2.954,6.23c1.534,3.693,0.379,5.906-0.928,5.605c-1.509-0.348-3.198-6.508-3.198-6.508
		s0.943,4.934,0.687,6.318c-0.271,1.441-2.168,2.156-3.321,0.938c-0.675-0.717,0.146-7.574,0.146-7.574s-1.255,6.598-2.325,7.09
		c-1.553,0.723-2.197-0.035-2.225-1.758c-0.025-1.57,1.491-3.729,1.922-5.109c0.425-1.381,0.051-1.932-0.909-1.506
		c-0.96,0.43-2.932,1.395-3.571,1.498c-0.641,0.107-1.467-1.043-0.72-2.348c0.536-0.938,7.828-3.625,7.828-3.625l0.842-17.799
		L520.89,82.229z"/>
	<path fill="#DD9F5B" d="M483.513,59.848c0.994,1.811,2.309,3.699,5.755,5.926c5.53,3.572,21.54,0.801,25.062-9.586
		c2.28-6.732,0.711-16.832-5.743-23.389c-9.146-9.293-22.813-1.979-25.858,3.803C482.192,37.612,475.67,45.549,483.513,59.848z"/>
	<path fill="none" stroke="#231F20" stroke-width="1.5" stroke-linecap="round" stroke-linejoin="round" stroke-miterlimit="10" d="
		M482.726,35.7c1.313-6.402,16.712-13.098,25.858-3.805c6.454,6.559,8.023,16.654,5.743,23.391
		c-3.521,10.383-19.529,13.156-25.062,9.586c-3.446-2.229-5.755-5.928-5.755-5.928"/>
	
		<ellipse transform="matrix(-0.9998 -0.0222 0.0222 -0.9998 961.168 97.2319)" fill="#231F20" cx="481.124" cy="43.275" rx="1.362" ry="2.574"/>
	
		<ellipse transform="matrix(-0.9998 -0.0222 0.0222 -0.9998 977.1649 97.4019)" fill="#231F20" cx="489.123" cy="43.275" rx="1.363" ry="2.574"/>
	
		<ellipse transform="matrix(0.9796 0.2009 -0.2009 0.9796 19.3434 -102.979)" fill="#DD9F5B" stroke="#231F20" stroke-width="1.5" stroke-miterlimit="10" cx="516.921" cy="43.792" rx="4.51" ry="4.612"/>
	<path fill="none" stroke="#231F20" stroke-width="1.5" stroke-linecap="round" stroke-linejoin="round" stroke-miterlimit="10" d="
		M490.542,60.659c3.542-4.033,10.875-4.979,15.109-3.021"/>
	<path fill="#DD9F5B" stroke="#231F20" stroke-width="1.5" stroke-miterlimit="10" d="M507.806,72.897
		c0,0-5.525,10.205-7.696,12.773c-2.345,2.77-3.48,5.49-4.521,5.479c-1.039-0.016-3.8-0.717-6.601,0.42
		c-3.667,1.488-6.462,2.729-6.493,7.201c-0.018,1.938,1.492,3.258,2.706,2.223c1.21-1.035,2.896-3.582,4.132-5.293
		c1.025-1.424,4.9-1.99,5.648-0.281c0.748,1.707-2.056,5.461-0.518,7.039c1.537,1.576,2.988,0.387,3.391-0.836
		c0.399-1.223,0.713-3.801,0.362-5.531c-0.35-1.734-0.597-1.953-0.082-2.549c3.492-4.055,13.833-18.063,14.319-19.207
		L507.806,72.897z"/>
	
		<ellipse transform="matrix(0.9797 0.2005 -0.2005 0.9797 20.7818 -95.6933)" fill="#DD9F5B" cx="482.721" cy="54.73" rx="6.131" ry="4.084"/>
	<path fill="none" stroke="#231F20" stroke-width="1.5" stroke-linecap="round" stroke-linejoin="round" stroke-miterlimit="10" d="
		M484.889,48.999c0,0-8.531,0.707-8.472,4.662c0.088,5.797,9.131,5.355,10.579,4.689"/>
	
		<path fill="#D1313D" stroke="#231F20" stroke-width="1.5" stroke-linecap="round" stroke-linejoin="round" stroke-miterlimit="10" d="
		M507.504,64.299c0.683,5.633-6.087,14.514-6.087,14.514s5.502,4.951,7.096,4.512c0.415-0.115,1.801-4.92,1.801-4.92
		s4.216,2.061,5.59,3.377c3.091,2.961,4.613,16.48,4.613,16.48s11.466-1.273,11.301-3.23c-0.464-5.498-16.798-31.549-18.708-33.133
		C511.2,60.315,507.308,62.706,507.504,64.299z"/>
	
		<path fill="#3C2415" stroke="#231F20" stroke-width="1.5" stroke-linecap="round" stroke-linejoin="round" stroke-miterlimit="10" d="
		M503.252,25.393c-0.58-0.172-1.015-0.146-1.343,0.006c-0.516-1.354-1.78-2.467-4.039-2.861
		c-13.224-2.316-21.625,13.791-21.932,15.527c-0.304,1.734,11.216-3.996,14.937-3.424c3.721,0.574,5.593-1.391,7.287-2.104
		c1.054-0.443,1.933-1.146,2.606-1.973c0.314,1.145,2.231,2.439,4.785,3.121c3.015,0.813,9.797,8.293,10.157,7.043
		C516.075,39.481,513.93,28.536,503.252,25.393z"/>
	
		<polygon fill="#231F20" stroke="#231F20" stroke-width="1.5" stroke-linecap="round" stroke-linejoin="round" stroke-miterlimit="10" points="
		531.817,97.055 534.51,106.754 521.417,107.883 520.515,98.262 	"/>
</g>
<path fill="#A87C4F" stroke="#231F20" stroke-linecap="round" stroke-linejoin="round" stroke-miterlimit="10" d="M147.673,123.487"
	/>
<polyline fill="#8EB2C5" stroke="#231F20" stroke-width="1.5" stroke-linecap="round" stroke-linejoin="round" stroke-miterlimit="10" points="
	200.096,111.213 208.19,138.12 188.743,139.237 190.188,110.372 "/>
<polyline fill="#FFFFFF" points="188.834,111.446 187.852,125.659 191.683,125.045 191.363,112.415 188.743,111.153 "/>
<path fill="none" stroke="#231F20" stroke-width="1.5" stroke-linecap="round" stroke-linejoin="round" stroke-miterlimit="10" d="
	M248.958,110.379c0,0-10.019-3.404-8.676,4.707"/>
<path fill="none" stroke="#231F20" stroke-width="2" stroke-linecap="round" stroke-linejoin="round" stroke-miterlimit="10" d="
	M139.171,97.075"/>
<g>
	<path fill="none" stroke="#231F20" stroke-width="2" stroke-linecap="round" stroke-linejoin="round" stroke-miterlimit="10" d="
		M189.023,78.37"/>
	<g>
		
			<ellipse transform="matrix(0.9797 0.2006 -0.2006 0.9797 13.9322 -37.2949)" fill="#F9BF76" stroke="#231F20" stroke-width="1.5" stroke-linecap="round" stroke-linejoin="round" stroke-miterlimit="10" cx="190.956" cy="50.085" rx="4.979" ry="5.093"/>
		<path fill="#F9BF76" d="M156.486,64.03c1.099,1.996,2.549,4.084,6.354,6.543c6.104,3.941,23.778,0.881,27.665-10.584
			c2.52-7.434,0.782-18.58-6.343-25.818c-10.095-10.258-25.185-2.184-28.544,4.199C155.03,39.483,147.826,48.247,156.486,64.03z"/>
		<path fill="#231F20" d="M166.421,47.586c0.071,1.918-0.619,3.494-1.54,3.527c-0.919,0.035-1.725-1.486-1.795-3.406
			c-0.07-1.912,0.618-3.486,1.541-3.521C165.546,44.153,166.349,45.674,166.421,47.586z"/>
		<path fill="#231F20" d="M157.421,47.586c0.071,1.918-0.619,3.494-1.54,3.527c-0.919,0.035-1.725-1.486-1.795-3.406
			c-0.07-1.912,0.618-3.486,1.541-3.521C156.546,44.153,157.349,45.674,157.421,47.586z"/>
		
			<path fill="none" stroke="#231F20" stroke-width="1.5" stroke-linecap="round" stroke-linejoin="round" stroke-miterlimit="10" d="
			M164.245,65.922c8.854,2.744,14.799-1.283,16.682-3.336"/>
		
			<path fill="#F9BF76" stroke="#231F20" stroke-width="1.5" stroke-linecap="round" stroke-linejoin="round" stroke-miterlimit="10" d="
			M184.87,78.573c0,0-9.176,8.939-12.306,10.936c-3.382,2.15-5.475,4.646-6.563,4.289c-1.09-0.354-3.769-2-7.093-1.721
			c-4.353,0.361-7.706,0.754-9.211,5.455c-0.649,2.039,0.507,3.924,2.124,3.23c1.614-0.691,4.229-2.824,6.092-4.221
			c1.551-1.164,5.819-0.488,6.048,1.557s-3.959,5.08-2.854,7.248c1.104,2.166,3.022,1.391,3.848,0.234
			c0.823-1.158,1.999-3.771,2.198-5.713c0.2-1.941,0.013-2.256,0.75-2.715c5.013-3.129,20.509-14.492,21.396-15.545L184.87,78.573z"
			/>
		<path fill="none" stroke="#231F20" stroke-width="2" stroke-linecap="round" stroke-linejoin="round" stroke-miterlimit="10" d="
			M156.643,32.547c12.764-12.117,24.282-0.961,24.282-0.961s2.139-5.096,5.088-6.121"/>
		
			<path fill="#F9BF76" stroke="#231F20" stroke-width="1.5" stroke-linecap="round" stroke-linejoin="round" stroke-miterlimit="10" d="
			M172.17,84.502c0,0,3.817-7.357,3.357-9.252c-0.606-2.504-2.226-2.451-3.031-1.424c-0.805,1.025-1.119,2.855-1.819,4.605
			c-0.698,1.75-3.119,2.098-3.666,0.707c-0.545-1.387-2.27-5.061-2.605-5.895c-0.341-0.836-2.26-3.529-3.443-1.9
			c-1.185,1.631-0.67,6.584-0.67,6.584c0.377,0.246-1.866,0.795-0.229,3.609c1.637,2.813,5.335,5.432,9.134,4.424
			c1.709-0.455,2.281,9.447,7.155,11.162c5.793,2.037,8.637,1.859,10.755-0.598c2.12-2.457,5.137-7.289,5.137-7.289l-4.06-1.117
			c0,0-1.178,5.352-4.692,6.842c-3.516,1.494-7.868-0.949-8.527-2.699C174.303,90.512,172.17,84.502,172.17,84.502z"/>
		
			<ellipse transform="matrix(0.9797 0.2006 -0.2006 0.9797 15.1351 -30.2015)" fill="#F9BF76" cx="156.601" cy="59.585" rx="5.769" ry="4.509"/>
		
			<path fill="none" stroke="#231F20" stroke-width="1.5" stroke-linecap="round" stroke-linejoin="round" stroke-miterlimit="10" d="
			M158.839,53.221c0,0-8.104,1.049-8.175,5.389c-0.104,6.355,8.479,5.584,9.87,4.807"/>
		
			<path fill="#FFFFFF" stroke="#231F20" stroke-width="1.5" stroke-linecap="round" stroke-linejoin="round" stroke-miterlimit="10" d="
			M182.969,69.942c0.752,6.219-6.721,16.021-6.721,16.021s2.72,5.074,4.479,4.586c0.458-0.125,3.332-3.23,3.332-3.23
			s6.188,1.223,7.702,2.676c3.41,3.268-1.573,20.385-1.573,20.385s19.622,2.059,19.622-0.107
			c0.001-24.563-18.545-41.229-20.652-42.979C187.052,65.543,182.756,68.18,182.969,69.942z"/>
		
			<path fill="none" stroke="#231F20" stroke-width="1.5" stroke-linecap="round" stroke-linejoin="round" stroke-miterlimit="10" d="
			M160.336,72.858c0,0-1.474,4.762,4.318,9.969"/>
		<path fill="none" stroke="#231F20" stroke-width="2" stroke-linecap="round" stroke-linejoin="round" stroke-miterlimit="10" d="
			M152.141,30.893c14.449-9.795,28.784,0.693,28.784,0.693c2.771-2.279,5.08-1.535,6.871,0.092"/>
		<path fill="none" stroke="#231F20" stroke-width="2" stroke-linecap="round" stroke-linejoin="round" stroke-miterlimit="10" d="
			M162.811,35.338c10.896-10.521,24.41-1.039,24.41-1.039"/>
		
			<path fill="none" stroke="#231F20" stroke-width="1.5" stroke-linecap="round" stroke-linejoin="round" stroke-miterlimit="10" d="
			M179.807,60.542c0,0,2.063,3.127,4.117,3.648"/>
	</g>
	<path fill="none" stroke="#231F20" stroke-width="1.5" stroke-linecap="round" stroke-linejoin="round" stroke-miterlimit="10" d="
		M156.424,38.37c1.446-7.068,18.448-14.457,28.544-4.199c7.125,7.238,8.859,18.387,6.342,25.818
		c-3.886,11.465-21.561,14.525-27.665,10.584c-3.804-2.459-6.353-6.543-6.353-6.543"/>
</g>
<g>
	<path fill="#684D3A" stroke="#231F20" stroke-width="1.5" stroke-miterlimit="10" d="M344.802,100.125
		c0,0-2.835,9.395-10.628,9.844c-4.271,0.246-17.009,0-18.361-1.85c0,0-1.281-4.697-4.128-6.691
		c-2.847-1.992-4.785-1.563-5.337,0.357c-0.344,1.193-0.782-0.213-1.922,0.924c-1.139,1.139-0.837,2.387-0.711,2.848
		c0.134,0.492-1.699-0.348-1.495,1.854c0.284,3.059,5.124,5.123,9.607,2.566c1.386-0.791,11.601,2.814,14.519,2.98
		c7.044,0.412,15.477-1.938,17.742-6.217C345.901,103.315,344.802,100.125,344.802,100.125z"/>
	
		<ellipse fill="#F9BF76" stroke="#231F20" stroke-width="1.5" stroke-miterlimit="10" cx="348.489" cy="65.741" rx="5.547" ry="5.033"/>
	
		<ellipse fill="#684D3A" stroke="#231F20" stroke-width="1.5" stroke-miterlimit="10" cx="327.397" cy="63.438" rx="18.684" ry="20.643"/>
	
		<path fill="#615375" stroke="#231F20" stroke-width="1.5" stroke-linecap="round" stroke-linejoin="round" stroke-miterlimit="10" d="
		M336.956,83.215l4.384,17.154l2.886-0.518l1.855,18.824c0,0,9.26,0.922,11.274-0.977c1.91-1.797-3.319-19.596-3.319-19.596
		l2.277-1.135L341.814,78.94L336.956,83.215z"/>
	<path fill="none" stroke="#231F20" stroke-width="2" stroke-linecap="round" stroke-linejoin="round" stroke-miterlimit="10" d="
		M312.255,101.428"/>
	<path fill="#684D3A" stroke="#231F20" stroke-width="1.5" stroke-miterlimit="10" d="M350.683,99.504c0,0,1.638,12.17-9.396,12.914
		c-7.234,0.486-12.748-2.551-13.15-3.086c-0.402-0.537,0.135-13.285-3.086-14.359c-3.22-1.068-4.159-0.133-3.757,1.611
		c0.4,1.744,4.964,7.111,4.023,9.393c-0.938,2.281-2.856,3.086-4.11,2.146s-5.199-0.063-2.999,2.416
		c2.146,2.418,7.481,0.621,7.481,0.621s8.986,5.023,14.934,4.67c6.793-0.406,11.596-6.518,12.203-8.244
		c0.938-2.67,1.01-9.109,1.01-9.109L350.683,99.504z"/>
	<path fill="none" stroke="#231F20" stroke-width="2" stroke-linecap="round" stroke-linejoin="round" stroke-miterlimit="10" d="
		M310.403,103.209c0,0,0.711,3.336-1.688,2.957c-0.605-0.094-2.653-1.891-2.653-3.893"/>
	<path fill="#684D3A" stroke="#231F20" stroke-width="1.5" stroke-miterlimit="10" d="M307.988,106.428c0,0,0.296,2.607-1.428,2.332
		c-0.604-0.098-2.434-1.52-2.914-3.266"/>
	
		<ellipse fill="#684D3A" stroke="#231F20" stroke-width="1.5" stroke-miterlimit="10" cx="313.963" cy="104.287" rx="2.705" ry="2.856"/>
	<path fill="#231F20" d="M315.534,57.934c0,1.41-0.677,2.559-1.512,2.559c-0.836,0-1.511-1.148-1.511-2.559
		c0-1.412,0.675-2.553,1.511-2.553C314.857,55.381,315.534,56.522,315.534,57.934z"/>
	<path fill="#231F20" d="M327.534,57.934c0,1.41-0.677,2.559-1.512,2.559c-0.836,0-1.511-1.148-1.511-2.559
		c0-1.412,0.675-2.553,1.511-2.553C326.857,55.381,327.534,56.522,327.534,57.934z"/>
	
		<line fill="none" stroke="#231F20" stroke-width="1.5" stroke-linecap="round" stroke-linejoin="round" stroke-miterlimit="10" x1="324.089" y1="52.688" x2="330.292" y2="52.467"/>
	
		<line fill="none" stroke="#231F20" stroke-width="1.5" stroke-linecap="round" stroke-linejoin="round" stroke-miterlimit="10" x1="309.976" y1="52.252" x2="316.148" y2="52.903"/>
	<path fill="none" stroke="#231F20" stroke-width="1.5" stroke-linecap="round" stroke-linejoin="round" stroke-miterlimit="10" d="
		M320.488,78.946c7.951,3.354,17.271-2.393,17.52-6.83"/>
	
		<polyline fill="none" stroke="#231F20" stroke-width="2" stroke-linecap="round" stroke-linejoin="round" stroke-miterlimit="10" points="
		316.534,42.075 318.409,44.305 325.989,39.022 328.941,42.797 334.232,40.096 	"/>
	
		<polyline fill="none" stroke="#231F20" stroke-width="2" stroke-linecap="round" stroke-linejoin="round" stroke-miterlimit="10" points="
		337.325,41.256 337.325,45.196 343.864,45.999 343.038,49.219 348.72,56.375 	"/>
	
		<path fill="#D1313D" stroke="#231F20" stroke-width="1.5" stroke-linecap="round" stroke-linejoin="round" stroke-miterlimit="10" d="
		M311.259,98.924c0,0,2.519-10.441,6.295-9.711c2.269,0.439,1.822,5.486,1.28,6.369c-1.28,2.088-3.333,2.572-4.87,3.342
		c-1.537,0.768-5.262,13.021-5.247,13.24c0.016,0.221-3.17,3.186-3.17,0C305.547,108.977,311.259,98.924,311.259,98.924z"/>
	<path fill="none" stroke="#231F20" stroke-width="1.4" stroke-linecap="round" stroke-linejoin="round" stroke-miterlimit="10" d="
		M317.553,90.313c0,0-0.886,7.334-5.04,6.479"/>
	<ellipse fill="#684D3A" cx="309.844" cy="68.449" rx="5.495" ry="4.306"/>
	<path fill="none" stroke="#231F20" stroke-width="1.5" stroke-linecap="round" stroke-linejoin="round" stroke-miterlimit="10" d="
		M315.34,63.817c0,0-10.96-2.295-10.989,4.799c-0.023,6.348,10.016,4.123,10.989,4.123"/>
	
		<polyline fill="none" stroke="#231F20" stroke-width="1.5" stroke-linecap="round" stroke-linejoin="round" stroke-miterlimit="10" points="
		341.704,84.786 349.942,100.125 354.201,98.024 	"/>
</g>
<g>
	
		<path fill="#F9BF76" stroke="#231F20" stroke-width="1.5" stroke-linecap="round" stroke-linejoin="round" stroke-miterlimit="10" d="
		M372.219,95.295c0,0-19.248,10.422-19.461,11.504c-0.203,1.057-1.871,4.166-3.107,6.43c-1.982,3.643-4.521,4.145-5.127,2.896
		c-0.697-1.443,3.172-6.807,3.172-6.807s-3.362,3.965-4.647,4.652c-1.342,0.717-3.148-0.348-2.912-2.068
		c0.138-1.012,6.202-4.805,6.202-4.805s-6.134,3.271-7.229,2.73c-1.588-0.787-1.396-1.799-0.022-2.938
		c1.25-1.043,3.978-1.219,5.369-1.77c1.391-0.553,1.59-1.211,0.623-1.709c-0.969-0.498-3.026-1.463-3.527-1.91
		c-0.502-0.447-0.108-1.859,1.427-2.105c1.106-0.176,8.009,3.963,8.009,3.963l19.625-14.363L372.219,95.295z"/>
	
		<path fill="#F9BF76" stroke="#231F20" stroke-width="1.5" stroke-linecap="round" stroke-linejoin="round" stroke-miterlimit="10" d="
		M384.845,94.081c0,0-1.914,29.025-1.138,29.813c0.759,0.766,2.39,3.893,3.563,6.189c1.894,3.688,0.88,6.063-0.493,5.867
		c-1.587-0.236-3.841-6.453-3.841-6.453s1.385,5.012,1.23,6.463c-0.162,1.512-2.061,2.406-3.352,1.242
		c-0.757-0.686-0.479-7.83-0.479-7.83s-0.75,6.91-1.813,7.512c-1.543,0.869-2.271,0.141-2.438-1.633
		c-0.16-1.621,1.229-3.977,1.559-5.438c0.326-1.459-0.105-1.992-1.062-1.477c-0.957,0.518-2.914,1.678-3.564,1.84
		c-0.653,0.164-1.599-0.955-0.937-2.363c0.478-1.014,7.779-4.391,7.779-4.391l-0.825-24.305L384.845,94.081z"/>
	
		<polygon fill="#E5625C" stroke="#231F20" stroke-width="1.5" stroke-linecap="round" stroke-linejoin="round" stroke-miterlimit="10" points="
		359.545,96.432 366.47,99.696 369.285,90.833 366.727,80.26 	"/>
	
		<path fill="#F9BF76" stroke="#231F20" stroke-width="1.5" stroke-linecap="round" stroke-linejoin="round" stroke-miterlimit="10" d="
		M376.964,71.282c-5.188,8.131-26.555,15.367-34.271-0.955c-0.725-1.533-5.474-2.17-5.521-3.711c-0.143-4.355,3.563-3.24,3.563-6.23
		c0-5.574,1.962-13.104,3.802-16.588c3.627-6.875,15.932-6.754,21.063-5.029c3.691,1.24,9.896,12.035,9.896,12.035
		s5.049-4.979,9.306-0.77c4.227,4.184,1.395,9.078-2.66,10.107c-2.521,0.643-4.334-1.156-4.334-1.156S380.086,66.389,376.964,71.282
		z"/>
	<path fill="none" stroke="#231F20" stroke-width="2" stroke-linecap="round" stroke-linejoin="round" stroke-miterlimit="10" d="
		M344.536,43.799"/>
	<path fill="none" stroke="#231F20" stroke-width="2" stroke-linecap="round" stroke-linejoin="round" stroke-miterlimit="10" d="
		M340.205,60.756"/>
	<path fill="none" stroke="#231F20" stroke-width="1.5" stroke-linecap="round" stroke-linejoin="round" stroke-miterlimit="10" d="
		M376.964,71.282c-4.203,8.68-26.882,14.896-34.598-1.426"/>
	<path fill="#231F20" d="M344.229,51.196c-0.699,0.727-1.032,2.289-0.746,3.492c0.289,1.203,1.089,1.586,1.788,0.861
		c0.697-0.727,1.031-2.289,0.742-3.49C345.727,50.854,344.928,50.469,344.229,51.196z"/>
	<path fill="#231F20" d="M351.229,52.196c-0.699,0.727-1.032,2.289-0.746,3.492c0.289,1.203,1.089,1.586,1.788,0.861
		c0.697-0.727,1.031-2.289,0.742-3.49C352.727,51.854,351.928,51.469,351.229,52.196z"/>
	<path fill="none" stroke="#231F20" stroke-width="2" stroke-linecap="round" stroke-linejoin="round" stroke-miterlimit="10" d="
		M367.389,39.696c7.529,5.609,8.104,11.109,8.104,11.109s1.396-1.67,3.279-2.375c0.629-0.234,1.313-0.363,2.016-0.287
		c2.81,0.309,4.771,1.674,5.635,5.387c0.869,3.732-3.446,6.975-6.488,6.58c-1.94-0.25-2.13-1.123-2.13-1.123
		s2.082,3.066,0.602,9.756"/>
	<path fill="none" stroke="#231F20" stroke-width="1.5" stroke-linecap="round" stroke-linejoin="round" stroke-miterlimit="10" d="
		M383.177,54.264c0,0-3.125-4.389-6.029-0.826"/>
	<path fill="none" stroke="#231F20" stroke-width="1.5" stroke-linecap="round" stroke-linejoin="round" stroke-miterlimit="10" d="
		M380.086,55.362c1.068-1.514,0.77-3.049,0.77-3.049"/>
	<path fill="none" stroke="#231F20" stroke-width="1.5" stroke-linecap="round" stroke-linejoin="round" stroke-miterlimit="10" d="
		M343.012,60.465c-10.935,4.951-5.05,10.119,3.105,7.619"/>
	<path fill="#231F20" d="M349.51,70.92c0.774-1.234,5.075,1.258,7.33-0.502c2.255-1.762,4.335-4.373,6.438-3.693
		c1.938,0.627,2.329,2.809,0.919,4.699C357.588,80.311,347.745,73.735,349.51,70.92z"/>
	
		<path fill="#E5625C" stroke="#231F20" stroke-width="1.5" stroke-linecap="round" stroke-linejoin="round" stroke-miterlimit="10" d="
		M377.803,119.979l-18.063,1.111c0,0,8.041-27.889,5.659-40.486l8.994-5.541L388.23,93.6l-9.813,6.576l-5.766-18.041l5.014,17.291
		L377.803,119.979z"/>
	<path fill="#F7B24C" d="M351.689,31.889c1.731-1.209,5.958-2.361,8.065-2.527c3.618-0.287,11.271,1.645,13.916,4.131
		c5.47,5.137,15.29,15.988,15.346,22.895c0.204,1.105,0.324,2.26,0.324,3.453c0,7.637-4.438,13.828-9.91,13.828
		s-9.91-6.191-9.91-13.828c0-5.082-1.916-20.014-5.102-20.207c-2.525-0.152-6.791,6.24-6.791,6.24s-14.271,0.861-15.831-2.928
		C340.386,39.516,348.647,34.012,351.689,31.889z"/>
	<g>
		<path fill="none" stroke="#231F20" stroke-width="2" stroke-linecap="round" stroke-linejoin="round" stroke-miterlimit="10" d="
			M354.062,31.78c-8.492,2.59-13.24,13.375-13.327,13.98"/>
		<path fill="none" stroke="#231F20" stroke-width="2" stroke-linecap="round" stroke-linejoin="round" stroke-miterlimit="10" d="
			M354.062,31.78c-8.492,2.59-13.24,13.375-13.327,13.98"/>
		<path fill="none" stroke="#231F20" stroke-width="2" stroke-linecap="round" stroke-linejoin="round" stroke-miterlimit="10" d="
			M360.078,31.78c-8.493,2.59-13.241,13.375-13.327,13.98"/>
		<path fill="none" stroke="#231F20" stroke-width="2" stroke-linecap="round" stroke-linejoin="round" stroke-miterlimit="10" d="
			M362.333,34.602c-6.602,3.809-10.245,12.131-10.32,12.662"/>
		<path fill="none" stroke="#231F20" stroke-width="2" stroke-linecap="round" stroke-linejoin="round" stroke-miterlimit="10" d="
			M365.597,36.897c-5.813,4.063-9.006,11.375-9.075,11.871"/>
		<path fill="none" stroke="#231F20" stroke-width="2" stroke-linecap="round" stroke-linejoin="round" stroke-miterlimit="10" d="
			M357.172,29.598c12.452-2.039,16.674,2.98,24.798,12.861"/>
	</g>
	<path fill="none" stroke="#231F20" stroke-width="2" stroke-linecap="round" stroke-linejoin="round" stroke-miterlimit="10" d="
		M385.454,47.264c0,0,12.669,19.352-4.563,26.402"/>
</g>
<g>
	
		<path fill="#DD9F5B" stroke="#231F20" stroke-width="1.5" stroke-linecap="round" stroke-linejoin="round" stroke-miterlimit="10" d="
		M299.228,55.883c0,0,5.854,2.869,4.481,4.826c-4.28,6.102-12.58,5.508-18.703,0.432c-2.116-1.756-3.62-2.5-6.552-2.242
		c-2.931,0.26-6.809,2.588-6.979,5.432s1.379,8.016,7.412,9.566s8.722,0.885,9.652,2.873c0.717,1.525,0.524,3.641-1.859,3.727
		s-3.141-1.342-5.121-2.635c-1.981-1.291-5.43-3.533-8.964-2.586s-7.671,4.482-7.671,4.482l-3.793-1.551
		c0,0,6.751-8.713,3.965-19.396c-0.229-0.881-1.896,1.641-3.619-0.346c-1.725-1.98-1.982-9.395,1.552-9.395
		c3.533,0,6.206,1.811,6.206,2.414s3.896-15.371,3.896-15.371l16.41-3.908c0,0,6.993,11.4,7.359,14.445
		c0.167,1.387,6.044-3.006,9.152,0.609c3.107,3.615-2.337,7.754-6.481,8.619"/>
	<path fill="#FFFFFF" stroke="#231F20" stroke-width="1.5" stroke-miterlimit="10" d="M274.868,90.545
		c-3.812-2.17-8.229-7.094-10.118-9.316c0.104-0.896,0.176-1.471,0.176-1.471s-2.797-1.789-3.793-1.551
		c-5.159,1.23-14.68,17.18-14.68,17.18l4.203,2.148c0,0-5.438,11.445-4.395,14.918c0.114,0.387,9.687-0.17,9.687-0.17
		s1.044-7.514,5.63-11.242c5.604-4.559,2.154-7.945,2.422-11.973l6.438,6.318C270.439,95.387,275.385,90.84,274.868,90.545z"/>
	
		<ellipse transform="matrix(-0.9983 0.0585 -0.0585 -0.9983 574.4316 77.1837)" fill="#231F20" cx="286.086" cy="47.002" rx="1.669" ry="2.858"/>
	
		<ellipse transform="matrix(-0.9983 0.0579 -0.0579 -0.9983 590.1113 66.9001)" fill="#231F20" cx="294.086" cy="42.001" rx="1.669" ry="2.857"/>
	<path fill="#754C29" d="M293.032,32.209c1.879-5.053-13.996-9.385-23.195-1.762c-1.385,1.145-2.98,1.947-4.044,3.17
		c-10.496,12.041-5.973,27.498-6.824,34.99c-0.697,6.121-6.643,9.057-11.069,8.051c-4.429-1.006,2.416,3.623,5.837,2.816
		c3.422-0.805-1.408,2.215-3.02,2.617c-1.61,0.402,10.977,2.748,14.327-7.227c1.826-5.439,3.115-22.996,7.208-28.213
		C275.471,42.549,292.121,34.659,293.032,32.209z"/>
	<path fill="#DD9F5B" stroke="#231F20" stroke-width="1.5" stroke-miterlimit="10" d="M247.173,96.157
		c0,0-3.776,10.957-3.771,14.076c0.002,1.604-0.005,4.5-0.005,4.5l3.642-0.512c0,0-1.544-8.42,3.62-16.688
		C250.999,96.987,247.173,96.157,247.173,96.157z"/>
	<path fill="#DD9F5B" stroke="#231F20" stroke-width="1.5" stroke-miterlimit="10" d="M271.336,94.549c0,0,9.361,3.938,19.087,1.607
		c3.426-0.82,1.669,0.506,1.887,1.668c0.219,1.164-0.651,3.629,1.888,3.988c2.539,0.363,2.299-0.52,3.05-0.359
		c2.104,0.441,3.408-1.232,3.117-2.178c-0.285-0.934-0.578-0.898-0.578-0.898s3.408-0.551,3.266-2.584
		c-0.146-2.031-2.032-3.555-2.977-3.555c-0.943,0,3.049-1.6,2.25-2.979c-0.8-1.379-4.137-1.307-5.516,0s-1.96,2.322-4.281,3.41
		s-8.084,1.908-10.521,1.596c-5.142-0.652-8.415-1.848-8.415-1.848L271.336,94.549z"/>
	<polyline fill="none" stroke="#231F20" stroke-width="1.5" stroke-miterlimit="10" points="259.436,86.346 253.189,98.604 
		250.144,97.274 	"/>
	
		<ellipse fill="#DD9F5B" stroke="#231F20" stroke-width="1.5" stroke-miterlimit="10" cx="297.569" cy="98.63" rx="3.067" ry="2.464"/>
	
		<ellipse fill="#DD9F5B" stroke="#231F20" stroke-width="1.5" stroke-miterlimit="10" cx="299.75" cy="95.468" rx="3.303" ry="3.019"/>
	<path fill="none" stroke="#231F20" stroke-width="1.5" stroke-linecap="round" stroke-linejoin="round" stroke-miterlimit="10" d="
		M294.504,32.209c0,0-4.449-10.354-19.481-4.678c-12.393,4.678-13.604,14.117-15.25,19.406c-1.646,5.289,5.153,32.818-12.734,29.582
		"/>
	<path fill="none" stroke="#231F20" stroke-width="1.5" stroke-linecap="round" stroke-linejoin="round" stroke-miterlimit="10" d="
		M269.818,32.209c14.212-7.453,22.217,1.906,21.961,3.781"/>
	<path fill="none" stroke="#231F20" stroke-miterlimit="10" d="M243.469,29.461"/>
	<path fill="none" stroke="#231F20" stroke-width="1.5" stroke-linecap="round" stroke-linejoin="round" stroke-miterlimit="10" d="
		M270.526,34.135c7.448-2.1,15.874,3.201,15.617,5.074"/>
	<path fill="none" stroke="#231F20" stroke-width="1.5" stroke-linecap="round" stroke-linejoin="round" stroke-miterlimit="10" d="
		M266.931,35.188c7.461-2.508,14.896,5.914,14.139,7.65"/>
</g>
<g>
	<path fill="#A87C4F" stroke="#231F20" stroke-width="1.5" stroke-miterlimit="10" d="M228.865,89.711
		c0,0,0.813,16.086,0.199,16.813c-0.599,0.707-1.782,3.504-2.634,5.555c-1.37,3.297-0.338,5.268,0.825,5
		c1.345-0.313,2.854-5.803,2.854-5.803s-0.844,4.396-0.612,5.633c0.243,1.285,1.934,1.924,2.961,0.836
		c0.603-0.641-0.129-6.75-0.129-6.75s1.119,5.877,2.073,6.316c1.384,0.645,1.958-0.035,1.981-1.564
		c0.021-1.402-1.331-3.324-1.713-4.561c-0.38-1.229-0.046-1.719,0.812-1.34c0.855,0.381,2.612,1.24,3.184,1.336
		c0.572,0.096,1.309-0.93,0.643-2.092c-0.479-0.838-6.979-3.232-6.979-3.232l-0.75-15.863L228.865,89.711z"/>
	<path fill="#A87C4F" d="M262.184,69.758c-0.886,1.613-2.059,3.299-5.13,5.283c-4.931,3.186-19.202,0.713-22.339-8.545
		c-2.035-6.004-0.635-15.006,5.118-20.854c8.153-8.281,20.338-1.762,23.053,3.395C263.361,49.936,269.178,57.012,262.184,69.758z"/>
	<path fill="none" stroke="#231F20" stroke-width="1.5" stroke-linecap="round" stroke-linejoin="round" stroke-miterlimit="10" d="
		M262.887,48.231c-1.169-5.707-14.897-11.674-23.052-3.389c-5.754,5.844-7.154,14.846-5.119,20.85
		c3.137,9.258,17.408,11.729,22.339,8.547c3.072-1.986,5.13-5.283,5.13-5.283"/>
	<path fill="#231F20" d="M253.174,54.612c0.157,1.313,0.888,2.057,1.63,1.668c0.741-0.389,1.215-1.762,1.058-3.072
		s-0.89-2.053-1.631-1.664C253.487,51.928,253.013,53.301,253.174,54.612z"/>
	<path fill="#231F20" d="M261.174,54.612c0.157,1.313,0.888,2.057,1.63,1.668c0.741-0.389,1.215-1.762,1.058-3.072
		s-0.89-2.053-1.631-1.664C261.487,51.928,261.013,53.301,261.174,54.612z"/>
	
		<ellipse transform="matrix(-0.9797 0.2006 -0.2006 -0.9797 471.2409 63.1375)" fill="#A87C4F" stroke="#231F20" stroke-width="1.5" stroke-miterlimit="10" cx="232.422" cy="55.444" rx="4.021" ry="4.111"/>
	<path fill="none" stroke="#231F20" stroke-width="1.5" stroke-linecap="round" stroke-linejoin="round" stroke-miterlimit="10" d="
		M244.898,66.311c0.723,3.467,5.778,5.904,10.564,4.408"/>
	<path fill="#A87C4F" stroke="#231F20" stroke-width="1.5" stroke-miterlimit="10" d="M240.529,81.391c0,0,4.925,9.098,6.859,11.387
		c2.09,2.471,3.104,4.895,4.03,4.885c0.926-0.014,3.387-0.641,5.882,0.375c3.27,1.326,5.761,2.432,5.79,6.42
		c0.014,1.727-1.332,2.9-2.412,1.979c-1.079-0.922-2.583-3.189-3.685-4.719c-0.916-1.268-4.37-1.771-5.037-0.25
		s1.833,4.867,0.463,6.273c-1.37,1.404-2.664,0.346-3.021-0.744c-0.355-1.09-0.637-3.389-0.323-4.932
		c0.312-1.547-0.468-1.74-0.927-2.271c-3.113-3.615-13.332-9.102-13.766-10.121L240.529,81.391z"/>
	
		<ellipse transform="matrix(-0.9797 0.2006 -0.2006 -0.9797 533.4246 76.415)" fill="#A87C4F" cx="262.84" cy="65.238" rx="5.466" ry="3.639"/>
	<path fill="none" stroke="#231F20" stroke-width="1.5" stroke-linecap="round" stroke-linejoin="round" stroke-miterlimit="10" d="
		M260.958,60.086c0,0,7.604,0.631,7.553,4.158c-0.078,5.166-8.141,4.773-9.432,4.18"/>
	
		<path fill="#8EB2C5" stroke="#231F20" stroke-width="1.5" stroke-linecap="round" stroke-linejoin="round" stroke-miterlimit="10" d="
		M240.801,73.727c-0.607,5.021,5.426,12.939,5.426,12.939s-5.903,7.412-7.324,7.02c-0.37-0.102-0.604-7.387-0.604-7.387
		l0.089,18.896c0,0-19.405-2.33-19.258-4.074c0.412-4.9,14.974-28.121,16.677-29.535C237.505,70.176,240.972,72.307,240.801,73.727z
		"/>
	<path fill="none" stroke="#231F20" stroke-width="2" stroke-linecap="round" stroke-linejoin="round" stroke-miterlimit="10" d="
		M222.935,66.293"/>
	
		<ellipse transform="matrix(-0.9357 0.3529 -0.3529 -0.9357 488.4178 -6.983)" fill="#231F20" stroke="#231F20" stroke-width="2" stroke-linecap="round" stroke-linejoin="round" stroke-miterlimit="10" cx="244.845" cy="41.032" rx="8.54" ry="3.824"/>
	
		<ellipse transform="matrix(-0.9867 0.1624 -0.1624 -0.9867 512.6505 38.0032)" fill="#231F20" stroke="#231F20" stroke-width="2" stroke-linecap="round" stroke-linejoin="round" stroke-miterlimit="10" cx="254.772" cy="39.952" rx="5.256" ry="2.579"/>
	
		<ellipse transform="matrix(-0.9923 -0.1238 0.1238 -0.9923 511.3513 117.4029)" fill="#231F20" stroke="#231F20" stroke-width="2" stroke-linecap="round" stroke-linejoin="round" stroke-miterlimit="10" cx="259.324" cy="42.811" rx="3.975" ry="1.492"/>
	
		<polygon fill="#231F20" stroke="#231F20" stroke-width="1.5" stroke-linecap="round" stroke-linejoin="round" stroke-miterlimit="10" points="
		219.124,102.926 216.724,111.573 238.396,112.581 236.719,105.495 	"/>
	
		<ellipse transform="matrix(-0.9923 -0.1236 0.1236 -0.9923 469.272 122.708)" fill="#231F20" stroke="#231F20" stroke-width="2" stroke-linecap="round" stroke-linejoin="round" stroke-miterlimit="10" cx="238.443" cy="46.794" rx="3.247" ry="1.495"/>
</g>
<g>
	
		<path fill="#D1313D" stroke="#231F20" stroke-width="1.5" stroke-linecap="round" stroke-linejoin="round" stroke-miterlimit="10" d="
		M42.675,80.786c-6.78,0.986-13.059,7.414-13.436,10.217c-0.367,2.732-3.636,36.24-0.945,39.443c2.308,2.75,2.886,3.57,7.351,4.068
		s11.537-6.746,13.434-8.734c1.896-1.992,1.521-24.475,1.144-30.656C49.841,88.942,47.744,80.045,42.675,80.786z"/>
	<path fill="none" stroke="#231F20" stroke-linecap="round" stroke-linejoin="round" stroke-miterlimit="10" d="M47.003,83.196
		c-4.646,1.48-11.536,5.709-13.044,9.664c-1.013,2.658-1.632,22.086-1.381,26.041s0.252,12.045,1.76,13.188"/>
	
		<path fill="#615375" stroke="#231F20" stroke-width="1.5" stroke-linecap="round" stroke-linejoin="round" stroke-miterlimit="10" d="
		M54.426,82.27c0,0-7.531,8.719-8.854,11.348c-1.326,2.631-4.2,9.947-3.832,10.52c0.368,0.574,0.877,1.014,0.877,1.014
		s-4.892,14.078-4.788,15.451c0.104,1.371,13.167,6.465,13.543,6.094c0.182-0.184-0.499-9.123,1.6-17.756
		c2.277-9.367,6.799-19.951,6.191-20.52C55.806,85.286,54.426,82.27,54.426,82.27z"/>
	<path fill="none" stroke="#231F20" stroke-width="1.5" stroke-linecap="round" stroke-linejoin="round" stroke-miterlimit="10" d="
		M55.145,89.616c-5.774,5.602-7.176,16.691-7.203,17.264c-0.028,0.574-6.203-2.742-6.203-2.742"/>
	<g>
		<path fill="#684D3A" d="M48.764,61.118c1.462,0,2.738,0.98,3.436,2.441c0.765-6.248,2.464-12.23,4.827-14.443
			c1.636-1.531,4.864-4.793,9.2-5.342c3.641-0.457,8.492,0,12.852,4.359c1.476,1.477,7.191,9.451,4.57,21.002
			c0,0-0.905,1.695-0.498,1.764c3.046,0.523,3.834,4.17,3.343,5.809c-1.369,4.568-5.856,4.129-5.856,4.129
			c-2.827,7.467-18.521,17.412-27.474-0.902c-1.071-2.191-1.5-6.145-1.396-10.525c-0.732,1.043-1.805,1.701-3.003,1.701
			c-2.21,0-4.001-2.234-4.001-4.994C44.763,63.352,46.554,61.118,48.764,61.118z"/>
		<ellipse fill="#3B2314" cx="48.313" cy="48.93" rx="4.82" ry="6.301"/>
		<ellipse fill="#3B2314" cx="75.557" cy="41.395" rx="6.785" ry="6.104"/>
		<ellipse fill="#3B2314" cx="79.641" cy="47.543" rx="5.422" ry="5.389"/>
		<ellipse fill="#3B2314" cx="47.824" cy="73.264" rx="4.746" ry="6.104"/>
		<ellipse fill="#3C2415" cx="45.785" cy="67.92" rx="6.785" ry="6.104"/>
		<ellipse fill="#3B2314" cx="64.483" cy="41.004" rx="8.401" ry="9.342"/>
		<ellipse fill="#3B2314" cx="55.201" cy="42.793" rx="7.922" ry="8.301"/>
		<ellipse fill="#3B2314" cx="55.767" cy="48.931" rx="6.572" ry="6.2"/>
		<ellipse fill="#3B2314" cx="48.969" cy="59.061" rx="8.783" ry="7.037"/>
		<path fill="#231F20" d="M73.61,60.473c0.643,0.992,0.775,2.883,0.301,4.229c-0.477,1.342-1.379,1.625-2.021,0.635
			c-0.644-0.994-0.775-2.887-0.302-4.227C72.063,59.762,72.971,59.481,73.61,60.473z"/>
		<path fill="#231F20" d="M81.61,60.473c0.643,0.992,0.775,2.883,0.301,4.229c-0.477,1.342-1.379,1.625-2.021,0.635
			c-0.644-0.994-0.775-2.887-0.302-4.227C80.063,59.762,80.971,59.481,81.61,60.473z"/>
		
			<path fill="none" stroke="#231F20" stroke-width="1.5" stroke-linecap="round" stroke-linejoin="round" stroke-miterlimit="10" d="
			M79.078,70.112c13.521,0.607,6.369,15.172-1.415,8.805"/>
		
			<path fill="none" stroke="#231F20" stroke-width="1.5" stroke-linecap="round" stroke-linejoin="round" stroke-miterlimit="10" d="
			M80.115,81.737c-2.827,7.463-18,16.512-26.952-1.805c-3.021-6.182-0.946-26.313,3.863-30.816c1.636-1.531,4.864-4.793,9.2-5.342
			c3.641-0.457,8.492,0,12.852,4.359c1.476,1.477,7.191,9.451,4.57,21.002"/>
		
			<path fill="none" stroke="#231F20" stroke-width="1.5" stroke-linecap="round" stroke-linejoin="round" stroke-miterlimit="10" d="
			M60.074,81.022c6.437,7.412,18.092,0.869,12.24,3.234"/>
		
			<path fill="none" stroke="#231F20" stroke-width="1.5" stroke-linecap="round" stroke-linejoin="round" stroke-miterlimit="10" d="
			M56.4,32.987c10.426-2.467,13.918,11.232,9.021,10.135c-4.494-1.008,0.864-6.533,4.018-5.84c6.385,1.402,7.239,9.434,7.239,9.434"
			/>
		
			<path fill="none" stroke="#231F20" stroke-width="1.5" stroke-linecap="round" stroke-linejoin="round" stroke-miterlimit="10" d="
			M43.906,57.338c1.813-7.123,10.612-1.715,7.153,0.576c-2.585,1.713-3.699-5.137-1.112-7.271c1.313-1.082,2.66-1.596,3.944-1.762"
			/>
		
			<path fill="none" stroke="#231F20" stroke-width="1.5" stroke-linecap="round" stroke-linejoin="round" stroke-miterlimit="10" d="
			M80.799,44.903c6.318-2.133,7.018,9.104,3.431,7.07c-2.679-1.516,1.854-6.268,4.854-4.979c1.519,0.654,2.635,1.648,3.449,2.773"/>
		<ellipse fill="#3B2314" cx="58.395" cy="42.013" rx="4.819" ry="6.3"/>
		
			<path fill="none" stroke="#231F20" stroke-width="1.5" stroke-linecap="round" stroke-linejoin="round" stroke-miterlimit="10" d="
			M48.311,47.368c-1.637,7.176-10.565,2.041-7.165-0.355c2.541-1.793,3.824,5.021,1.29,7.234c-1.282,1.121-2.617,1.68-3.899,1.883"
			/>
		
			<path fill="none" stroke="#231F20" stroke-width="1.5" stroke-linecap="round" stroke-linejoin="round" stroke-miterlimit="10" d="
			M51.094,38.051c5.582-3.639,12.297,1.016,9.051,3.672c-3.704,3.029-3.699-5.137-1.111-7.271c1.312-1.08,2.658-1.596,3.943-1.762"
			/>
		
			<path fill="none" stroke="#231F20" stroke-width="1.5" stroke-linecap="round" stroke-linejoin="round" stroke-miterlimit="10" d="
			M77.832,47.629c-0.199-6.791,6.206-10.949,6.721-6.76c0.585,4.777-5.423,1.146-5.847-2.197c-0.213-1.697,0.007-3.174,0.456-4.439"
			/>
		
			<path fill="none" stroke="#231F20" stroke-width="1.5" stroke-linecap="round" stroke-linejoin="round" stroke-miterlimit="10" d="
			M76.091,39.094c-2.349-2.949-1.979-7.281,0.313-6.25c3.163,1.422-1.42,4.643-3.641,3.656c-1.124-0.5-1.946-1.25-2.544-2.094"/>
		
			<path fill="none" stroke="#231F20" stroke-width="1.5" stroke-linecap="round" stroke-linejoin="round" stroke-miterlimit="10" d="
			M51.075,27.549c2.851,2.326,3.305,6.648,0.868,6.182c-3.359-0.641,0.519-4.873,2.871-4.434c1.192,0.223,2.138,0.76,2.881,1.443"/>
		
			<path fill="none" stroke="#231F20" stroke-width="1.5" stroke-linecap="round" stroke-linejoin="round" stroke-miterlimit="10" d="
			M49.615,40.84c-3.291,1.408-6.765-0.527-5.086-2.563c2.313-2.807,3.354,3.148,1.737,5.121c-0.816,1-1.734,1.596-2.65,1.922"/>
		
			<path fill="none" stroke="#231F20" stroke-width="1.5" stroke-linecap="round" stroke-linejoin="round" stroke-miterlimit="10" d="
			M49.651,82.752c-4.387-4.275,2.731-10.141,3.072-6.191c0.255,2.949-5.025,1.398-5.581-1.711c-0.277-1.576-0.146-2.977,0.218-4.186
			"/>
		
			<path fill="none" stroke="#231F20" stroke-width="1.5" stroke-linecap="round" stroke-linejoin="round" stroke-miterlimit="10" d="
			M47.386,60.831c4.488,4.141-2.482,10.221-2.921,6.283c-0.326-2.941,4.991-1.555,5.622,1.537c0.316,1.566,0.217,2.971-0.116,4.193"
			/>
		
			<path fill="none" stroke="#231F20" stroke-width="1.5" stroke-linecap="round" stroke-linejoin="round" stroke-miterlimit="10" d="
			M38.624,69.135c-0.507-6.35,5.301-10.627,5.979-6.73c0.773,4.439-5.026,1.396-5.58-1.715c-0.279-1.572-0.146-2.975,0.218-4.186"/>
		
			<path fill="none" stroke="#231F20" stroke-width="1.5" stroke-linecap="round" stroke-linejoin="round" stroke-miterlimit="10" d="
			M43.533,77.151c-4.385-4.271,2.732-10.137,3.074-6.188c0.255,2.951-5.027,1.4-5.58-1.711c-0.281-1.576-0.146-2.979,0.217-4.189"/>
		
			<path fill="none" stroke="#231F20" stroke-width="1.5" stroke-linecap="round" stroke-linejoin="round" stroke-miterlimit="10" d="
			M74.302,31.377c-5.016,4.814-9.692-5.146-5.681-4.914c2.996,0.174,0.558,6.576-2.649,6.752c-1.625,0.088-3.004-0.313-4.153-0.975"
			/>
		<ellipse fill="#3B2314" cx="53.892" cy="46.715" rx="4.819" ry="6.303"/>
		
			<path fill="none" stroke="#231F20" stroke-width="1.5" stroke-linecap="round" stroke-linejoin="round" stroke-miterlimit="10" d="
			M62.924,44.186c-1.64,7.176-10.568,2.041-7.166-0.355c2.542-1.793,3.824,5.021,1.29,7.234c-1.284,1.121-2.619,1.68-3.898,1.883"/>
		
			<path fill="none" stroke="#231F20" stroke-width="1.5" stroke-linecap="round" stroke-linejoin="round" stroke-miterlimit="10" d="
			M46.101,47.579c1.813-7.123,10.613-1.715,7.153,0.576c-2.584,1.713-3.7-5.137-1.112-7.271c1.313-1.082,2.66-1.6,3.943-1.762"/>
		<ellipse fill="#684D3A" cx="76.304" cy="54.325" rx="5.271" ry="5.246"/>
		<ellipse fill="#684D3A" cx="68.514" cy="52.06" rx="6.824" ry="6.204"/>
		<ellipse fill="#684D3A" cx="62.062" cy="54.013" rx="4.791" ry="4.354"/>
		<ellipse fill="#684D3A" cx="59.867" cy="61.07" rx="4.101" ry="4.354"/>
		
			<path fill="none" stroke="#231F20" stroke-width="1.5" stroke-linecap="round" stroke-linejoin="round" stroke-miterlimit="10" d="
			M64.932,47.629c8.326-5.998,11.102,3.854,8.342,3.516c-2.063-0.252-0.152-4.561,2.065-4.539c1.121,0.014,2.06,0.354,2.83,0.857"/>
		
			<path fill="none" stroke="#231F20" stroke-width="1.5" stroke-linecap="round" stroke-linejoin="round" stroke-miterlimit="10" d="
			M56.274,65.514c-2.737-10.467,4.921-9.494,4.564-7.535c-0.58,3.207-3.74,0.174-3.729-2.117c0.021-4.646,4.387-6.203,4.387-6.203"
			/>
		<ellipse fill="#684D3A" cx="48.78" cy="66.611" rx="4.434" ry="5.489"/>
		
			<path fill="none" stroke="#231F20" stroke-width="1.5" stroke-linecap="round" stroke-linejoin="round" stroke-miterlimit="10" d="
			M52.087,62.79c0,0-1.781-2.232-4.04-1.611c-5.838,1.605-2.907,11.189,0.992,10.916c1.613-0.111,2.063-1.131,2.063-1.131"/>
	</g>
	<g>
		<path fill="#F9BF76" d="M76.935,130.999c-4.861,0-7.667-3.604-7.693-3.639c-0.144-0.188-0.363-0.297-0.599-0.297
			c-0.004,0-0.392,0.002-0.392,0.002c-1.721,0-10.556-0.109-15.604-2.279c-11.071-4.754-9.985-12.455-9.402-16.592
			c0.128-0.904,0.229-1.615,0.188-2.172c0.763,0.289,1.917,0.842,2.974,1.406c-0.213,1.764-0.586,7.404,2.609,11.563
			c2.024,2.637,5.083,4.148,9.088,4.492c4.192,0.359,9.271,0.764,9.271,0.764c0.021,0,0.039,0.002,0.06,0.002
			c0.308,0,0.585-0.189,0.698-0.479c0.013-0.031,1.287-3.238,3.525-4.742c1.224-0.82,2.903-1.313,4.499-1.313
			c0.994,0,1.521,0.205,1.619,0.305c0.236,0.281,0.335,0.621,0.296,1.037c-0.084,0.893-0.743,1.76-1.004,1.971
			c-0.281,0.229-0.358,0.623-0.188,0.941c0.135,0.246,0.391,0.393,0.658,0.393c0.077,0,0.156-0.014,0.231-0.037
			c0.333-0.109,1.102-0.293,1.869-0.293c0.545,0,1.242,0.094,1.462,0.531c0.274,0.553-0.656,2.268-1.031,2.555
			c-0.28,0.215-0.382,0.602-0.231,0.92c0.127,0.27,0.39,0.438,0.675,0.438c0.055,0,0.107-0.006,0.163-0.02
			c0.172-0.039,0.582-0.105,1.029-0.105c0.562,0,1.229,0.096,1.229,0.525c0,2.566-4.745,4.119-5.984,4.121h-0.016L76.935,130.999
			L76.935,130.999z"/>
		<g>
			<path fill="#231F20" d="M44.141,107.137c0.449,0.207,0.955,0.453,1.47,0.719c-0.204,2.271-0.274,7.574,2.813,11.594
				c2.158,2.811,5.396,4.42,9.619,4.783c4.192,0.359,9.273,0.762,9.273,0.762c0.038,0.004,0.078,0.006,0.117,0.006
				c0.612,0,1.17-0.377,1.396-0.953c0.013-0.031,1.209-3.025,3.246-4.395c1.301-0.873,2.961-1.186,4.081-1.186
				c0.582,0,0.946,0.08,1.107,0.133c0.241,0.486-0.277,1.395-0.569,1.742c-0.96,0.49-0.914,1.338-0.87,1.609
				c0.115,0.729,0.771,1.27,1.507,1.27c0.291,0,0.576-0.078,0.851-0.234c0.333-0.09,0.899-0.203,1.46-0.203
				c0.426,0,0.664,0.068,0.753,0.102c-0.033,0.381-0.42,1.18-0.715,1.553c-0.905,0.459-0.833,1.393-0.819,1.512
				c0.086,0.758,0.755,1.338,1.52,1.338c0.216,0,0.425-0.043,0.626-0.127c0.173-0.027,0.43-0.059,0.703-0.059
				c0.194,0,0.345,0.018,0.452,0.033c-0.344,1.799-4.168,3.111-5.228,3.113c-4.469,0-6.993-3.209-7.096-3.34
				c-0.283-0.375-0.728-0.596-1.196-0.596c-0.008,0-0.016,0-0.021,0c-0.005,0-0.137,0.002-0.368,0.002
				c-1.693,0-10.395-0.105-15.308-2.219c-10.545-4.527-9.551-11.584-8.955-15.799C44.051,107.875,44.103,107.491,44.141,107.137
				 M42.689,105.063c-0.274,0-0.359,0.148-0.129,0.523c1.076,1.742-5.154,13.469,9.792,19.889c5.15,2.213,13.947,2.34,15.897,2.34
				c0.255,0,0.393-0.002,0.393-0.002s2.974,3.936,8.292,3.936c0.007,0,0.013,0,0.019,0c1.419-0.002,6.732-1.648,6.732-4.871
				c0-1.033-1.054-1.275-1.979-1.275c-0.501,0-0.963,0.072-1.196,0.125c-0.053,0.037-0.098,0.061-0.132,0.061
				c-0.066,0-0.01-0.025,0.132-0.061c0.521-0.373,1.777-2.465,1.266-3.496c-0.366-0.729-1.248-0.943-2.134-0.943
				c-0.852,0-1.701,0.197-2.103,0.328c-0.088,0.068-0.16,0.107-0.208,0.107c-0.072,0,0.015-0.047,0.208-0.107
				c0.624-0.506,2.029-2.635,0.808-4.076c-0.3-0.355-1.132-0.568-2.188-0.568c-1.478,0-3.395,0.416-4.917,1.439
				c-2.471,1.658-3.808,5.092-3.808,5.092s-5.074-0.4-9.265-0.76c-13.513-1.164-10.947-15.723-10.947-15.723
				S43.691,105.063,42.689,105.063L42.689,105.063z"/>
		</g>
	</g>
</g>
<g>
	<g>
		
			<path fill="#F9BF76" stroke="#231F20" stroke-width="1.5" stroke-linecap="round" stroke-linejoin="round" stroke-miterlimit="10" d="
			M550.313,84.817c0,0-17.311,12.969-17.5,13.941c-0.185,0.951-1.684,3.748-2.796,5.783c-1.785,3.27-4.063,3.725-4.61,2.602
			c-0.629-1.297,2.854-6.121,2.854-6.121s-3.025,3.568-4.181,4.188c-1.208,0.645-2.833-0.314-2.62-1.861
			c0.124-0.908,5.578-4.316,5.578-4.316s-5.518,2.939-6.501,2.451c-1.429-0.705-1.256-1.613-0.021-2.639
			c1.124-0.938,3.576-1.098,4.829-1.592c1.25-0.498,1.43-1.092,0.561-1.537c-0.868-0.449-2.722-1.314-3.173-1.717
			c-0.449-0.404-0.098-1.674,1.283-1.895c0.995-0.156,7.202,3.563,7.202,3.563l17.648-12.916L550.313,84.817z"/>
		
			<polygon fill="#615375" stroke="#231F20" stroke-width="1.5" stroke-linecap="round" stroke-linejoin="round" stroke-miterlimit="10" points="
			538.916,89.436 545.144,92.37 547.677,84.401 545.378,74.891 		"/>
		<path fill="#F7B24C" d="M560.241,44.391c2.947,11.336,13.342,17.232,14.188,20.84c0.904,3.842-8.814,12.563-15.805,8.578
			c-2.269-1.291-3.021-15.598-3.021-15.598"/>
		<path fill="#F9BF76" d="M554.582,66.821c-4.665,7.311-23.881,13.816-30.818-0.861c-0.652-1.379-3.954-2.203-4.313-3.541
			c-0.697-2.607,2.551-2.891,2.551-5.396c0-5.016,1.765-11.789,3.418-14.92c3.261-6.182,14.326-6.068,18.939-4.52
			c3.318,1.115,8.897,10.824,8.897,10.824s4.542-4.48,8.37-0.691c3.801,3.762,1.254,8.164-2.395,9.09
			c-2.267,0.576-3.896-1.041-3.896-1.041S557.388,62.417,554.582,66.821z"/>
		<path fill="#F7B24C" d="M559.178,45.219c0,0-2.335-7.854-7.268-12.486c-2.382-2.234-9.264-3.975-12.518-3.715
			c-1.896,0.15-5.693,1.188-7.254,2.275c-2.734,1.908-10.165,6.854-8.896,9.938c1.403,3.408,14.236,2.637,14.236,2.637
			s3.835-5.75,6.106-5.611c3.506,0.211,9.555,6.063,9.555,9.566"/>
		
			<path fill="none" stroke="#231F20" stroke-width="1.5" stroke-linecap="round" stroke-linejoin="round" stroke-miterlimit="10" d="
			M521.522,57.352c-0.374-6.176,1.8-11.572,3.896-15.25"/>
		
			<path fill="none" stroke="#231F20" stroke-width="1.5" stroke-linecap="round" stroke-linejoin="round" stroke-miterlimit="10" d="
			M554.582,66.821c-3.78,7.805-24.175,13.395-31.112-1.283"/>
		<path fill="#231F20" d="M525.052,47.69c-0.775,0.648-1.234,2.154-1.033,3.359c0.205,1.207,0.998,1.658,1.771,1.006
			c0.771-0.645,1.233-2.148,1.028-3.354C526.616,47.493,525.822,47.042,525.052,47.69z"/>
		<path fill="#231F20" d="M532.052,48.69c-0.775,0.648-1.234,2.154-1.033,3.359c0.205,1.207,0.998,1.658,1.771,1.006
			c0.771-0.645,1.233-2.148,1.028-3.354C533.616,48.493,532.822,48.042,532.052,48.69z"/>
		<path fill="none" stroke="#231F20" stroke-width="2" stroke-linecap="round" stroke-linejoin="round" stroke-miterlimit="10" d="
			M533.985,31.293c-7.637,2.328-11.904,12.029-11.983,12.574"/>
		<path fill="none" stroke="#231F20" stroke-width="2" stroke-linecap="round" stroke-linejoin="round" stroke-miterlimit="10" d="
			M533.985,31.293c-7.637,2.328-11.904,12.029-11.983,12.574"/>
		<path fill="none" stroke="#231F20" stroke-width="2" stroke-linecap="round" stroke-linejoin="round" stroke-miterlimit="10" d="
			M539.395,31.293c-7.638,2.328-11.908,12.029-11.983,12.574"/>
		<path fill="none" stroke="#231F20" stroke-width="2" stroke-linecap="round" stroke-linejoin="round" stroke-miterlimit="10" d="
			M541.425,33.831c-5.938,3.426-9.214,10.91-9.282,11.389"/>
		<path fill="none" stroke="#231F20" stroke-width="2" stroke-linecap="round" stroke-linejoin="round" stroke-miterlimit="10" d="
			M544.359,35.895c-5.228,3.654-8.099,10.23-8.162,10.678"/>
		
			<path fill="none" stroke="#231F20" stroke-width="1.5" stroke-linecap="round" stroke-linejoin="round" stroke-miterlimit="10" d="
			M545.972,38.413c6.771,5.045,7.285,9.99,7.285,9.99s2.232-2.67,4.762-2.393c2.527,0.275,4.291,1.502,5.068,4.842
			c0.781,3.357-3.102,6.273-5.836,5.92c-1.746-0.227-1.915-1.014-1.915-1.014s1.873,2.76,0.541,8.775"/>
		
			<path fill="none" stroke="#231F20" stroke-width="1.5" stroke-linecap="round" stroke-linejoin="round" stroke-miterlimit="10" d="
			M560.171,51.514c0,0-2.813-3.947-5.422-0.742"/>
		
			<path fill="none" stroke="#231F20" stroke-width="1.5" stroke-linecap="round" stroke-linejoin="round" stroke-miterlimit="10" d="
			M557.388,52.502c0.962-1.361,0.692-2.742,0.692-2.742"/>
		<path fill="none" stroke="#231F20" stroke-width="2" stroke-linecap="round" stroke-linejoin="round" stroke-miterlimit="10" d="
			M541.425,30.864c10.448,2.967,14.619,13.004,14.619,13.004"/>
		<path fill="none" stroke="#231F20" stroke-width="2" stroke-linecap="round" stroke-linejoin="round" stroke-miterlimit="10" d="
			M536.78,29.333c11.199-1.834,19.778,4.498,22.397,15.059"/>
		<path fill="none" stroke="#231F20" stroke-width="2" stroke-linecap="round" stroke-linejoin="round" stroke-miterlimit="10" d="
			M563.189,53.399c3.95,8.877,10.618,10.1,10.13,15.359"/>
		<path fill="none" stroke="#231F20" stroke-width="2" stroke-linecap="round" stroke-linejoin="round" stroke-miterlimit="10" d="
			M560.881,58.418c0.979,8.684,1.347,12.49,5.083,16.348"/>
		
			<path fill="none" stroke="#231F20" stroke-width="1.5" stroke-linecap="round" stroke-linejoin="round" stroke-miterlimit="10" d="
			M526.807,54.497c-13.625,7.309-5.929,11.695,1.405,9.445"/>
		
			<path fill="#F9BF76" stroke="#231F20" stroke-width="1.5" stroke-linecap="round" stroke-linejoin="round" stroke-miterlimit="10" d="
			M560.119,92.489c0,0-0.962,19.063-0.236,19.924c0.709,0.838,2.112,4.15,3.121,6.582c1.622,3.904,0.398,6.242-0.979,5.926
			c-1.595-0.367-3.38-6.875-3.38-6.875s0.999,5.211,0.727,6.672c-0.287,1.525-2.29,2.281-3.51,0.99c-0.714-0.754,0.151-8,0.151-8
			s-1.326,6.965-2.455,7.49c-1.641,0.76-2.321-0.041-2.351-1.855c-0.027-1.664,1.575-3.943,2.027-5.402
			c0.45-1.455,0.057-2.035-0.959-1.588c-1.014,0.449-3.098,1.473-3.771,1.582c-0.678,0.113-1.55-1.102-0.763-2.479
			c0.567-0.992,8.271-3.832,8.271-3.832l0.889-18.801L560.119,92.489z"/>
		
			<path fill="#615375" stroke="#231F20" stroke-width="1.5" stroke-linecap="round" stroke-linejoin="round" stroke-miterlimit="10" d="
			M555.338,110.612l-11.747,1c0,0,2.736-25.08,0.595-36.41l8.089-4.982l8.848,22.066l-5.229,0.518l-5.182-16.225l4.506,15.551
			L555.338,110.612z"/>
		<path fill="none" stroke="#231F20" stroke-width="2" stroke-linecap="round" stroke-linejoin="round" stroke-miterlimit="10" d="
			M557.146,59.995c-0.823,8.701-0.831,11.652,2.032,16.197"/>
	</g>
	<path fill="none" stroke="#231F20" stroke-width="1.5" stroke-linecap="round" stroke-linejoin="round" stroke-miterlimit="10" d="
		M530.325,67.784c7.538,2.338,12.602-1.094,14.203-2.842"/>
	<path fill="none" stroke="#231F20" stroke-width="1.5" stroke-linecap="round" stroke-linejoin="round" stroke-miterlimit="10" d="
		M543.577,63.204c0,0,1.758,2.662,3.507,3.105"/>
</g>
<rect x="15.324" y="108.256" fill="#FFFFFF" width="557.001" height="82"/>
<line fill="none" stroke="#231F20" stroke-width="2" stroke-linecap="round" stroke-linejoin="round" stroke-miterlimit="10" x1="50.324" y1="108.256" x2="539.325" y2="108.256"/>
<path fill="none" stroke="#231F20" stroke-width="2" stroke-linecap="round" stroke-linejoin="round" stroke-miterlimit="10" d="
	M75.81,145.45c0,0,12.651,10.652,38.839,13.807c20.763,2.5,42.193,1,62.343-9.277c11.052-5.639,10.86-20.123-20.673-27.438"/>
<path fill="none" stroke="#231F20" stroke-width="2" stroke-linecap="round" stroke-linejoin="round" stroke-miterlimit="10" d="
	M253.81,145.45c0,0,12.651,10.652,38.839,13.807c20.764,2.5,42.193,1,62.342-9.277c11.053-5.639,10.861-20.123-20.673-27.438"/>
<path fill="none" stroke="#231F20" stroke-width="2" stroke-linecap="round" stroke-linejoin="round" stroke-miterlimit="10" d="
	M425.81,145.45c0,0,12.651,10.652,38.838,13.807c20.765,2.5,42.194,1,62.343-9.277c11.053-5.639,10.861-20.123-20.673-27.438"/>
<g>
	<ellipse fill="#F7C434" cx="129.058" cy="138.898" rx="40.718" ry="14.946"/>
	<g>
		<path fill="#F9BF76" d="M129.057,158.934c-30.102,0-54.59-8.986-54.59-20.037c0-11.049,24.488-20.039,54.59-20.039
			s54.592,8.99,54.592,20.039S159.158,158.934,129.057,158.934z M129.057,122.235c-25.029,0-45.395,7.475-45.395,16.662
			s20.363,16.662,45.395,16.662s45.395-7.475,45.395-16.662S154.089,122.235,129.057,122.235z"/>
	</g>
	<g>
		<path fill="#D1313D" d="M124.801,127.86c-0.324-0.66,0.868-1.291,2.664-1.41s3.515,0.318,3.84,0.979
			c0.324,0.658-0.869,1.289-2.666,1.408C126.843,128.956,125.124,128.518,124.801,127.86z"/>
		<path fill="#D1313D" d="M113.195,129.862c0.426,0.865-1.143,1.693-3.5,1.852c-2.357,0.156-4.617-0.42-5.043-1.285
			c-0.427-0.865,1.142-1.691,3.5-1.852C110.511,128.42,112.767,128.995,113.195,129.862z"/>
		<path fill="#D1313D" d="M123.701,134.249c0.428,0.865-1.142,1.693-3.499,1.852c-2.357,0.156-4.614-0.418-5.043-1.285
			c-0.425-0.863,1.143-1.691,3.5-1.852C121.018,132.807,123.275,133.383,123.701,134.249z"/>
		<path fill="#D1313D" d="M157.55,144.168c0.426,0.863-1.142,1.693-3.499,1.85c-2.358,0.158-4.617-0.418-5.044-1.283
			s1.142-1.693,3.5-1.852S157.121,143.301,157.55,144.168z"/>
		<path fill="#D1313D" d="M91.421,138.008c-0.528-1.072,1.411-2.1,4.332-2.293s5.717,0.52,6.245,1.592
			c0.527,1.072-1.414,2.1-4.336,2.291C94.741,139.793,91.946,139.081,91.421,138.008z"/>
		<path fill="#D1313D" d="M142.966,148.959c-1.691,0.113-3.313-0.299-3.619-0.922c-0.307-0.621,0.818-1.215,2.514-1.328
			c1.691-0.111,3.313,0.301,3.618,0.922C145.784,148.252,144.658,148.848,142.966,148.959z"/>
		<path fill="#D1313D" d="M159.583,138.797c0.271,0.555-0.731,1.086-2.245,1.189c-1.515,0.102-2.963-0.27-3.234-0.824
			c-0.273-0.559,0.731-1.086,2.245-1.189C157.86,137.874,159.308,138.243,159.583,138.797z"/>
		<path fill="#D1313D" d="M114.064,140.588c1.788-0.119,3.5,0.318,3.821,0.973c0.321,0.658-0.864,1.285-2.651,1.404
			c-1.789,0.119-3.5-0.318-3.824-0.973C111.09,141.334,112.275,140.708,114.064,140.588z"/>
		<path fill="#D1313D" d="M137.268,133.999c2.437-0.16,4.767,0.434,5.205,1.328c0.439,0.893-1.177,1.748-3.611,1.91
			c-2.436,0.16-4.765-0.434-5.204-1.326C133.218,135.016,134.834,134.163,137.268,133.999z"/>
		<path fill="#D1313D" d="M144.732,127.668c2.434-0.16,4.763,0.434,5.202,1.326s-1.177,1.75-3.61,1.91
			c-2.437,0.16-4.766-0.434-5.205-1.324C140.678,128.686,142.297,127.831,144.732,127.668z"/>
		<path fill="#D1313D" d="M155.637,132.868c2.081-0.139,4.074,0.369,4.45,1.133c0.375,0.764-1.008,1.496-3.089,1.633
			c-2.08,0.139-4.072-0.369-4.448-1.131C152.174,133.737,153.555,133.004,155.637,132.868z"/>
		<path fill="#D1313D" d="M99.468,145.436c-0.406-0.826,1.093-1.621,3.351-1.77c2.258-0.15,4.419,0.398,4.825,1.229
			c0.407,0.83-1.092,1.621-3.35,1.771C102.035,146.815,99.875,146.266,99.468,145.436z"/>
		<path fill="#D1313D" d="M118.334,150.594c-0.581-1.182,1.556-2.311,4.771-2.523c3.216-0.213,6.293,0.57,6.873,1.752
			c0.58,1.18-1.556,2.309-4.771,2.521C121.991,152.557,118.914,151.774,118.334,150.594z"/>
		<path fill="#D1313D" d="M127.994,142.969c-0.581-1.18,1.556-2.309,4.771-2.521c3.215-0.215,6.293,0.57,6.873,1.75
			c0.582,1.18-1.553,2.311-4.771,2.521C131.651,144.934,128.574,144.149,127.994,142.969z"/>
	</g>
	
		<line fill="none" stroke="#FFFFFF" stroke-width="3" stroke-miterlimit="10" x1="127.824" y1="118.256" x2="127.824" y2="159.256"/>
	<line fill="none" stroke="#FFFFFF" stroke-width="3" stroke-miterlimit="10" x1="71.324" y1="139.756" x2="185.324" y2="139.756"/>
</g>
<g>
	<ellipse fill="#F7C434" cx="308.098" cy="139.019" rx="40.717" ry="14.946"/>
	<g>
		<path fill="#F9BF76" d="M308.097,159.057c-30.101,0-54.59-8.99-54.59-20.039s24.489-20.039,54.59-20.039
			s54.591,8.99,54.591,20.039S338.197,159.057,308.097,159.057z M308.097,122.356c-25.029,0-45.395,7.475-45.395,16.662
			c0,9.189,20.363,16.662,45.395,16.662s45.396-7.475,45.396-16.662C353.49,129.831,333.129,122.356,308.097,122.356z"/>
	</g>
	<g>
		<path fill="#D1313D" d="M303.841,127.979c-0.324-0.658,0.868-1.289,2.664-1.408c1.795-0.119,3.515,0.318,3.84,0.979
			c0.324,0.66-0.869,1.289-2.666,1.41C305.883,129.077,304.165,128.639,303.841,127.979z"/>
		<path fill="#D1313D" d="M292.235,129.981c0.426,0.867-1.143,1.695-3.5,1.854c-2.357,0.156-4.617-0.42-5.043-1.285
			c-0.427-0.865,1.141-1.695,3.499-1.85C289.552,128.542,291.808,129.116,292.235,129.981z"/>
		<path fill="#D1313D" d="M302.743,134.37c0.427,0.867-1.144,1.693-3.499,1.852c-2.359,0.156-4.616-0.418-5.045-1.285
			c-0.425-0.863,1.142-1.691,3.501-1.852C300.058,132.928,302.315,133.504,302.743,134.37z"/>
		<path fill="#D1313D" d="M336.589,144.288c0.427,0.867-1.142,1.695-3.498,1.852c-2.359,0.158-4.616-0.418-5.043-1.283
			c-0.427-0.863,1.14-1.693,3.499-1.852C333.903,142.848,336.163,143.422,336.589,144.288z"/>
		<path fill="#D1313D" d="M270.46,138.129c-0.527-1.072,1.411-2.098,4.333-2.293c2.921-0.193,5.717,0.52,6.244,1.592
			c0.528,1.072-1.413,2.1-4.334,2.291C273.781,139.915,270.986,139.202,270.46,138.129z"/>
		<path fill="#D1313D" d="M322.006,149.081c-1.692,0.113-3.313-0.299-3.619-0.922c-0.306-0.621,0.819-1.217,2.513-1.328
			c1.691-0.111,3.313,0.301,3.619,0.922C324.825,148.374,323.7,148.969,322.006,149.081z"/>
		<path fill="#D1313D" d="M338.624,138.918c0.271,0.557-0.732,1.086-2.245,1.188c-1.517,0.104-2.963-0.27-3.235-0.82
			c-0.271-0.559,0.731-1.088,2.245-1.189C336.899,137.995,338.349,138.364,338.624,138.918z"/>
		<path fill="#D1313D" d="M293.103,140.709c1.79-0.117,3.501,0.318,3.824,0.975c0.321,0.656-0.865,1.285-2.653,1.402
			c-1.787,0.119-3.499-0.316-3.823-0.973C290.129,141.458,291.315,140.829,293.103,140.709z"/>
		<path fill="#D1313D" d="M316.308,134.122c2.438-0.162,4.768,0.432,5.205,1.326c0.439,0.895-1.177,1.748-3.612,1.908
			c-2.435,0.162-4.764-0.432-5.204-1.324C312.259,135.139,313.875,134.282,316.308,134.122z"/>
		<path fill="#D1313D" d="M323.771,127.79c2.437-0.16,4.766,0.432,5.204,1.326c0.44,0.895-1.177,1.75-3.611,1.912
			c-2.435,0.158-4.765-0.434-5.203-1.326C319.72,128.807,321.337,127.952,323.771,127.79z"/>
		<path fill="#D1313D" d="M334.678,132.989c2.081-0.139,4.072,0.369,4.45,1.135c0.374,0.762-1.008,1.494-3.089,1.633
			c-2.082,0.137-4.073-0.371-4.449-1.135S332.595,133.125,334.678,132.989z"/>
		<path fill="#D1313D" d="M278.508,145.559c-0.407-0.828,1.093-1.623,3.351-1.77c2.257-0.15,4.419,0.396,4.824,1.229
			c0.408,0.828-1.092,1.621-3.348,1.771C281.075,146.938,278.915,146.387,278.508,145.559z"/>
		<path fill="#D1313D" d="M297.375,150.715c-0.582-1.182,1.554-2.309,4.769-2.521c3.216-0.215,6.293,0.57,6.874,1.75
			s-1.556,2.311-4.77,2.521C301.031,152.678,297.955,151.895,297.375,150.715z"/>
		<path fill="#D1313D" d="M307.035,143.09c-0.581-1.182,1.555-2.309,4.771-2.523c3.214-0.213,6.292,0.57,6.872,1.754
			c0.581,1.18-1.554,2.309-4.771,2.521C310.691,145.055,307.613,144.272,307.035,143.09z"/>
	</g>
	
		<line fill="none" stroke="#FFFFFF" stroke-width="3" stroke-miterlimit="10" x1="280.699" y1="120.479" x2="340.205" y2="163.756"/>
	
		<line fill="none" stroke="#FFFFFF" stroke-width="3" stroke-miterlimit="10" x1="275.748" y1="163.756" x2="332.256" y2="120.334"/>
</g>
<g>
	<ellipse fill="#F7C434" cx="478.41" cy="139.079" rx="40.717" ry="14.947"/>
	<g>
		<path fill="#F9BF76" d="M478.409,159.116c-30.102,0-54.592-8.988-54.592-20.037s24.49-20.039,54.592-20.039
			S533,128.03,533,139.079S508.51,159.116,478.409,159.116z M478.409,122.417c-25.029,0-45.395,7.475-45.395,16.662
			s20.363,16.662,45.395,16.662c25.03,0,45.395-7.477,45.395-16.662C523.803,129.891,503.439,122.417,478.409,122.417z"/>
	</g>
	<g>
		<path fill="#D1313D" d="M474.15,128.042c-0.322-0.66,0.868-1.291,2.664-1.412c1.796-0.119,3.517,0.32,3.84,0.979
			c0.324,0.66-0.867,1.291-2.666,1.41C476.193,129.137,474.474,128.7,474.15,128.042z"/>
		<path fill="#D1313D" d="M462.548,130.042c0.426,0.867-1.144,1.695-3.5,1.852c-2.358,0.158-4.617-0.418-5.043-1.285
			c-0.426-0.861,1.141-1.691,3.5-1.85C459.861,128.602,462.12,129.176,462.548,130.042z"/>
		<path fill="#D1313D" d="M473.053,134.43c0.427,0.865-1.142,1.695-3.5,1.852s-4.615-0.418-5.043-1.283
			c-0.425-0.867,1.142-1.695,3.5-1.854C470.371,132.989,472.628,133.565,473.053,134.43z"/>
		<path fill="#D1313D" d="M506.899,144.35c0.428,0.863-1.142,1.693-3.499,1.852c-2.357,0.154-4.615-0.418-5.044-1.285
			c-0.426-0.865,1.143-1.695,3.5-1.852C504.217,142.909,506.473,143.483,506.899,144.35z"/>
		<path fill="#D1313D" d="M440.771,138.19c-0.527-1.07,1.412-2.1,4.332-2.293c2.921-0.191,5.717,0.52,6.245,1.592
			s-1.413,2.1-4.335,2.293C444.094,139.975,441.299,139.262,440.771,138.19z"/>
		<path fill="#D1313D" d="M492.315,149.141c-1.69,0.113-3.313-0.299-3.619-0.922c-0.306-0.619,0.819-1.215,2.515-1.328
			c1.69-0.111,3.313,0.303,3.619,0.922C495.135,148.434,494.011,149.03,492.315,149.141z"/>
		<path fill="#D1313D" d="M508.933,138.979c0.273,0.557-0.729,1.086-2.245,1.189c-1.514,0.1-2.962-0.271-3.232-0.824
			c-0.274-0.557,0.729-1.088,2.245-1.188C507.213,138.055,508.661,138.424,508.933,138.979z"/>
		<path fill="#D1313D" d="M463.417,140.77c1.788-0.119,3.5,0.318,3.82,0.975c0.322,0.658-0.862,1.287-2.65,1.402
			c-1.789,0.119-3.5-0.316-3.824-0.973C460.439,141.518,461.628,140.889,463.417,140.77z"/>
		<path fill="#D1313D" d="M486.621,134.18c2.436-0.16,4.766,0.436,5.204,1.328s-1.178,1.748-3.612,1.91
			c-2.436,0.162-4.765-0.436-5.203-1.326C482.567,135.2,484.185,134.344,486.621,134.18z"/>
		<path fill="#D1313D" d="M494.085,127.852c2.434-0.162,4.763,0.432,5.203,1.324c0.438,0.895-1.179,1.75-3.611,1.91
			c-2.436,0.162-4.765-0.434-5.205-1.324C490.03,128.868,491.647,128.012,494.085,127.852z"/>
		<path fill="#D1313D" d="M504.987,133.049c2.082-0.139,4.074,0.369,4.45,1.133c0.376,0.766-1.007,1.496-3.088,1.633
			c-2.081,0.139-4.074-0.367-4.449-1.131C501.523,133.918,502.906,133.186,504.987,133.049z"/>
		<path fill="#D1313D" d="M448.818,145.618c-0.405-0.826,1.093-1.619,3.351-1.771c2.258-0.145,4.419,0.402,4.825,1.23
			c0.406,0.83-1.093,1.621-3.351,1.771C451.387,146.999,449.226,146.448,448.818,145.618z"/>
		<path fill="#D1313D" d="M467.685,150.776c-0.582-1.182,1.555-2.311,4.771-2.523c3.215-0.213,6.293,0.572,6.873,1.752
			c0.579,1.182-1.558,2.311-4.771,2.523C471.344,152.741,468.265,151.956,467.685,150.776z"/>
		<path fill="#D1313D" d="M477.345,143.153c-0.582-1.182,1.555-2.311,4.77-2.523c3.217-0.215,6.295,0.57,6.873,1.752
			c0.581,1.178-1.554,2.309-4.77,2.521C481.004,145.116,477.927,144.331,477.345,143.153z"/>
	</g>
	<polyline fill="none" stroke="#FFFFFF" stroke-width="3" stroke-miterlimit="10" points="477.825,116.256 477.825,140.756 
		427.803,157.139 	"/>
	
		<line fill="none" stroke="#FFFFFF" stroke-width="3" stroke-miterlimit="10" x1="420.325" y1="139.756" x2="535.325" y2="139.756"/>
</g>
<path fill="none" stroke="#231F20" stroke-width="1.4" stroke-linecap="round" stroke-linejoin="round" stroke-miterlimit="10" d="
	M74.442,54.686c-2.811-0.082-6.842,1.932-7.455,5.076"/>
<path fill="none" stroke="#231F20" stroke-width="1.4" stroke-linecap="round" stroke-linejoin="round" stroke-miterlimit="10" d="
	M84.724,56.129c-1.215-0.77-3.03-1.213-4.666-1.053"/>
<path fill="none" stroke="#231F20" stroke-width="1.4" stroke-linecap="round" stroke-linejoin="round" stroke-miterlimit="10" d="
	M351.75,48.149c3.005-0.928,6.601,2.098,7.421,4.43"/>
<path fill="none" stroke="#231F20" stroke-width="1.4" stroke-linecap="round" stroke-linejoin="round" stroke-miterlimit="10" d="
	M342.285,47.377c1.547-0.58,2.728-0.611,4.587,0.023"/>
<path fill="none" stroke="#231F20" stroke-width="1.4" stroke-linecap="round" stroke-linejoin="round" stroke-miterlimit="10" d="
	M163.489,41.594c2.654-0.82,7.074-0.547,8.563,1.426"/>
<path fill="none" stroke="#231F20" stroke-width="1.4" stroke-linecap="round" stroke-linejoin="round" stroke-miterlimit="10" d="
	M152.284,41.377c1.547-0.58,3.729-0.611,5.587,0.023"/>
<path fill="none" stroke="#231F20" stroke-width="1.4" stroke-linecap="round" stroke-linejoin="round" stroke-miterlimit="10" d="
	M125.283,59.153c2.511-0.191,6.421,0.658,7.432,2.291"/>
<path fill="none" stroke="#231F20" stroke-width="1.4" stroke-linecap="round" stroke-linejoin="round" stroke-miterlimit="10" d="
	M117.079,59.842c1.1-0.418,2.648-0.436,3.974,0.033"/>
<path fill="none" stroke="#231F20" stroke-width="1.4" stroke-linecap="round" stroke-linejoin="round" stroke-miterlimit="10" d="
	M256.51,48.153c-2.511-0.191-6.421,0.658-7.432,2.291"/>
<path fill="none" stroke="#231F20" stroke-width="1.4" stroke-linecap="round" stroke-linejoin="round" stroke-miterlimit="10" d="
	M264.716,48.842c-1.1-0.418-2.648-0.436-3.974,0.033"/>
<path fill="none" stroke="#231F20" stroke-width="1.4" stroke-linecap="round" stroke-linejoin="round" stroke-miterlimit="10" d="
	M286.044,39.448c-2.329,0.953-5.442,3.471-5.612,5.383"/>
<path fill="none" stroke="#231F20" stroke-width="1.4" stroke-linecap="round" stroke-linejoin="round" stroke-miterlimit="10" d="
	M294.684,35.381c-1.169,0.119-2.563,0.799-3.534,1.811"/>
<path fill="none" stroke="#231F20" stroke-width="1.4" stroke-linecap="round" stroke-linejoin="round" stroke-miterlimit="10" d="
	M438.044,45.448c-2.329,0.953-5.441,3.471-5.611,5.383"/>
<path fill="none" stroke="#231F20" stroke-width="1.4" stroke-linecap="round" stroke-linejoin="round" stroke-miterlimit="10" d="
	M467.044,59.448c-2.329,0.955-5.441,3.471-5.611,5.383"/>
<path fill="none" stroke="#231F20" stroke-width="1.4" stroke-linecap="round" stroke-linejoin="round" stroke-miterlimit="10" d="
	M476.662,61.137c-0.811-0.85-2.2-1.537-3.598-1.688"/>
<path fill="none" stroke="#231F20" stroke-width="1.4" stroke-linecap="round" stroke-linejoin="round" stroke-miterlimit="10" d="
	M530.75,45.149c3.005-0.928,6.601,2.098,7.421,4.43"/>
<path fill="none" stroke="#231F20" stroke-width="1.4" stroke-linecap="round" stroke-linejoin="round" stroke-miterlimit="10" d="
	M521.285,44.377c1.547-0.58,2.728-0.611,4.587,0.023"/>
<path fill="none" stroke="#231F20" stroke-width="1.4" stroke-linecap="round" stroke-linejoin="round" stroke-miterlimit="10" d="
	M488.75,37.149c1.503-0.465,3.151,0.061,4.528,0.992"/>
<path fill="none" stroke="#231F20" stroke-width="1.4" stroke-linecap="round" stroke-linejoin="round" stroke-miterlimit="10" d="
	M479.285,37.377c1.547-0.58,2.728-0.611,4.587,0.023"/>
</svg>
