<?xml version="1.0" encoding="utf-8"?>
<!-- Generator: Adobe Illustrator 16.0.0, SVG Export Plug-In . SVG Version: 6.00 Build 0)  -->
<!DOCTYPE svg PUBLIC "-//W3C//DTD SVG 1.1//EN" "http://www.w3.org/Graphics/SVG/1.1/DTD/svg11.dtd">
<svg version="1.1" id="Layer_1" xmlns="http://www.w3.org/2000/svg" xmlns:xlink="http://www.w3.org/1999/xlink" x="0px" y="0px"
	 width="595.279px" height="841.89px" viewBox="0 0 595.279 841.89" enable-background="new 0 0 595.279 841.89"
	 xml:space="preserve">
<g>
	<path fill="none" stroke="#231F20" stroke-width="1.5" stroke-linecap="round" stroke-linejoin="round" stroke-miterlimit="10" d="
		M116.726,206.135h52.472h30.98h152.798h33.926c0,0,88.218,2.447,98.528-0.119"/>
	
		<rect x="231.939" y="153" fill="#FFFFFF" stroke="#231F20" stroke-width="2" stroke-linecap="round" stroke-linejoin="round" stroke-miterlimit="10" width="160" height="68"/>
	
		<rect x="219.939" y="145" fill="#FFFFFF" stroke="#231F20" stroke-width="2" stroke-linecap="round" stroke-linejoin="round" stroke-miterlimit="10" width="183" height="10"/>
	
		<polyline fill="none" stroke="#231F20" stroke-width="2" stroke-linecap="round" stroke-linejoin="round" stroke-miterlimit="10" points="
		219.939,145 247.939,108.012 383.939,108.222 402.939,145 	"/>
	<polygon fill="#615375" points="283.6,122.394 286.357,125.941 292.521,126.51 288.06,129.272 289.113,133.172 283.6,131.331 
		278.087,133.172 279.14,129.272 274.68,126.51 280.844,125.941 	"/>
	<polygon fill="#615375" points="307.6,122.394 310.357,125.941 316.521,126.51 312.06,129.272 313.113,133.172 307.6,131.331 
		302.086,133.172 303.14,129.272 298.68,126.51 304.844,125.941 	"/>
	<polygon fill="#615375" points="330.6,122.394 333.357,125.941 339.521,126.51 335.06,129.272 336.113,133.172 330.6,131.331 
		325.086,133.172 326.14,129.272 321.68,126.51 327.844,125.941 	"/>
	<g>
		<g>
			<path fill="#A87C4F" stroke="#231F20" stroke-width="1.5" stroke-miterlimit="10" d="M158.305,178.104
				c0,0,6.444,44.396,4.675,45.866c-1.772,1.475,9.039-0.312,9.039-0.312s3.959-30.229,3.054-45.778L158.305,178.104z"/>
			<path fill="#A87C4F" stroke="#231F20" stroke-width="1.5" stroke-miterlimit="10" d="M145.836,178.98
				c0,0-3.042,43.305-3.948,44.713c-1.246,1.938,7.948,1.098,7.948,1.098s12.342-31.898,10.846-45.965L145.836,178.98z"/>
			
				<path fill="#231F20" stroke="#231F20" stroke-width="2" stroke-linecap="round" stroke-linejoin="round" stroke-miterlimit="10" d="
				M162.566,221.786c0,0-5.923,9.45-3.38,12.671c2.017,2.559,6.226,3.059,12.453,3.059c6.229,0,7.54-0.009,11.344,0.021
				c3.233,0.025,9.854-3.521-2.033-10.418c-5.521-3.2-10.378-5.333-10.378-5.333H162.566z"/>
			
				<path fill="#231F20" stroke="#231F20" stroke-width="2" stroke-linecap="round" stroke-linejoin="round" stroke-miterlimit="10" d="
				M141.041,224.868c0,0-7.081,10.188-4.467,13.662c2.077,2.759,6.411,3.298,12.823,3.298c6.414,0,7.763-0.009,11.68,0.023
				c3.329,0.026,10.144-3.797-2.096-11.232c-5.682-3.451-10.682-5.751-10.682-5.751H141.041L141.041,224.868z"/>
			<path fill="#A87C4F" stroke="#231F20" stroke-width="1.5" stroke-miterlimit="10" d="M158.851,119.202
				c0,0,16.809,25.295,16.6,26.668c-0.205,1.337,0.461,5.73,0.974,8.936c0.816,5.157,3.626,6.835,4.879,5.618
				c1.444-1.41-0.89-9.412-0.89-9.412s2.323,6.131,3.563,7.496c1.294,1.424,3.897,0.936,4.349-1.205
				c0.826-3.908-3.246-5.68-5.351-8.334c0,0,5.92,6.491,7.454,6.319c2.227-0.253,2.427-1.531,1.275-3.464
				c-1.047-1.771-4.222-3.146-5.646-4.391c-1.422-1.247-1.381-2.113-0.019-2.289c1.365-0.176,4.229-0.438,5.017-0.752
				c0.788-0.315,0.92-2.155-0.808-3.101c-1.243-0.681-11.225,1.265-11.225,1.265l-12.461-26.337L158.851,119.202z"/>
			
				<polygon fill="#D1313D" stroke="#231F20" stroke-width="1.5" stroke-linecap="round" stroke-linejoin="round" stroke-miterlimit="10" points="
				172.967,121.094 156.88,126.374 153.19,114.749 160.541,101.879 			"/>
			<path fill="#603813" d="M130.908,76.323c0,0.135-6.773,5.77-6.773,5.77l-12.903,6.092c0,0,9.131,18.322,19.328,12.512
				c3.305-1.882,4.405-22.75,4.405-22.75"/>
			<path fill="#A87C4F" d="M143.115,89.104c6.806,10.665,34.834,20.157,44.953-1.254c0.951-2.011,5.769-3.212,6.291-5.166
				c1.017-3.804-3.722-4.217-3.722-7.873c0-7.313-2.573-17.194-4.985-21.76c-4.757-9.018-20.896-8.858-27.628-6.597
				c-4.842,1.627-12.979,15.788-12.979,15.788s-6.624-6.533-12.207-1.009c-5.545,5.487-1.83,11.909,3.488,13.26
				c3.307,0.84,5.687-1.519,5.687-1.519S139.022,82.684,143.115,89.104z"/>
			<path fill="#603813" d="M136.409,57.598c0,0,3.406-11.456,10.602-18.212c3.471-3.261,13.51-5.797,18.256-5.42
				c2.765,0.219,8.308,1.731,10.58,3.318c3.99,2.783,14.828,10.002,12.976,14.501c-2.048,4.971-20.767,3.841-20.767,3.841
				s-5.595-8.386-8.907-8.186c-5.114,0.31-13.936,8.846-13.936,13.956"/>
			
				<path fill="none" stroke="#231F20" stroke-width="1.5" stroke-linecap="round" stroke-linejoin="round" stroke-miterlimit="10" d="
				M191.336,75.295c0.546-9.007-2.625-16.881-5.684-22.245"/>
			
				<path fill="none" stroke="#231F20" stroke-width="1.5" stroke-linecap="round" stroke-linejoin="round" stroke-miterlimit="10" d="
				M143.115,89.104c5.515,11.385,35.264,19.542,45.383-1.87"/>
			<path fill="none" stroke="#231F20" stroke-width="2" stroke-linecap="round" stroke-linejoin="round" stroke-miterlimit="10" d="
				M144.588,178.826"/>
			
				<path fill="#8EB2C5" stroke="#231F20" stroke-width="1.5" stroke-linecap="round" stroke-linejoin="round" stroke-miterlimit="10" d="
				M175.691,144.414l2.615,41.166c0,0-9.33,1.938-18.582,1.938c-4.46,0-17.823-0.229-17.823-0.229l2.705-44.164"/>
			<path fill="#231F20" d="M173.76,63.238c1.128,0.107,1.87,1.943,1.659,4.096c-0.212,2.156-1.298,3.812-2.425,3.704
				c-1.128-0.113-1.868-1.949-1.655-4.104C171.548,64.78,172.634,63.125,173.76,63.238z"/>
			<path fill="#231F20" d="M185.76,61.238c1.128,0.107,1.87,1.943,1.659,4.096c-0.212,2.156-1.298,3.812-2.425,3.704
				c-1.128-0.113-1.868-1.949-1.655-4.104C183.548,62.78,184.634,61.125,185.76,61.238z"/>
			<path fill="none" stroke="#231F20" stroke-width="2" stroke-linecap="round" stroke-linejoin="round" stroke-miterlimit="10" d="
				M173.156,37.284c11.141,3.397,17.368,17.546,17.482,18.342"/>
			<path fill="none" stroke="#231F20" stroke-width="2" stroke-linecap="round" stroke-linejoin="round" stroke-miterlimit="10" d="
				M173.156,37.284c11.141,3.397,17.368,17.546,17.482,18.342"/>
			<path fill="none" stroke="#231F20" stroke-width="2" stroke-linecap="round" stroke-linejoin="round" stroke-miterlimit="10" d="
				M165.267,37.284c11.141,3.397,17.369,17.546,17.481,18.342"/>
			<path fill="none" stroke="#231F20" stroke-width="2" stroke-linecap="round" stroke-linejoin="round" stroke-miterlimit="10" d="
				M162.309,40.986c8.657,4.996,13.438,15.915,13.538,16.611"/>
			<path fill="none" stroke="#231F20" stroke-width="2" stroke-linecap="round" stroke-linejoin="round" stroke-miterlimit="10" d="
				M158.026,43.999c7.623,5.327,11.813,14.92,11.904,15.572"/>
			<path fill="none" stroke="#231F20" stroke-width="2" stroke-linecap="round" stroke-linejoin="round" stroke-miterlimit="10" d="
				M155.674,47.667c-9.877,7.361-10.628,14.574-10.628,14.574s-3.259-3.893-6.945-3.49c-3.688,0.403-6.259,2.194-7.394,7.063
				c-1.14,4.899,4.521,9.15,8.513,8.635c2.548-0.33,2.794-1.476,2.794-1.476s-2.731,4.023-0.789,12.798"/>
			
				<path fill="none" stroke="#231F20" stroke-width="1.5" stroke-linecap="round" stroke-linejoin="round" stroke-miterlimit="10" d="
				M134.965,66.781c0,0,4.1-5.759,7.908-1.084"/>
			
				<path fill="none" stroke="#231F20" stroke-width="1.5" stroke-linecap="round" stroke-linejoin="round" stroke-miterlimit="10" d="
				M139.022,68.22c-1.404-1.986-1.01-3.997-1.01-3.997"/>
			<path fill="none" stroke="#231F20" stroke-width="2" stroke-linecap="round" stroke-linejoin="round" stroke-miterlimit="10" d="
				M162.309,36.658c-15.24,4.328-21.323,18.968-21.323,18.968"/>
			<path fill="none" stroke="#231F20" stroke-width="2" stroke-linecap="round" stroke-linejoin="round" stroke-miterlimit="10" d="
				M169.078,34.424c-16.335-2.675-28.849,6.563-32.669,21.964"/>
			<path fill="none" stroke="#231F20" stroke-width="2" stroke-linecap="round" stroke-linejoin="round" stroke-miterlimit="10" d="
				M132.163,74.811c-7.129,8.397-15.558,11.944-22.313,13.374"/>
			<path fill="none" stroke="#231F20" stroke-width="2" stroke-linecap="round" stroke-linejoin="round" stroke-miterlimit="10" d="
				M130.63,76.997c-4.291,10.109-11.192,15.957-17.129,19.292"/>
			<path fill="none" stroke="#231F20" stroke-width="2" stroke-linecap="round" stroke-linejoin="round" stroke-miterlimit="10" d="
				M133.579,76.482c-1.432,12.667-7.123,21.41-12.572,27.038"/>
			<path fill="#231F20" d="M137.843,77.651c-0.54,1.015-2.09,1.244-3.465,0.515l-3.47-1.844c-1.375-0.73-2.054-2.145-1.514-3.159
				l0,0c0.539-1.013,2.089-1.244,3.465-0.515l3.468,1.843C137.703,75.223,138.382,76.639,137.843,77.651L137.843,77.651z"/>
			
				<path fill="none" stroke="#231F20" stroke-width="1.5" stroke-linecap="round" stroke-linejoin="round" stroke-miterlimit="10" d="
				M183.629,71.13c19.873,10.662,8.646,17.059-2.052,13.778"/>
			<polyline fill="#FFFFFF" points="142.014,144.459 140.794,162.115 145.553,161.353 145.155,145.663 141.901,144.095 			"/>
			<path fill="#A87C4F" stroke="#231F20" stroke-width="1.5" stroke-miterlimit="10" d="M131.039,122.547
				c0,0,5.402,28.679,4.345,29.811c-1.033,1.101-3.081,5.46-4.553,8.655c-2.366,5.136-0.584,8.21,1.429,7.793
				c2.325-0.482,4.93-9.041,4.93-9.041s-1.457,6.853-1.058,8.775c0.42,2.006,3.34,2.998,5.116,1.302
				c1.041-0.993-0.221-10.522-0.221-10.522s1.935,9.161,3.581,9.85c2.395,1,3.386-0.055,3.428-2.441
				c0.04-2.187-2.3-5.185-2.959-7.104c-0.655-1.917-0.08-2.681,1.399-2.088c1.479,0.592,4.518,1.933,5.504,2.08
				c0.986,0.15,2.26-1.447,1.109-3.259c-0.828-1.306-12.063-5.038-12.063-5.038l0.703-25.63L131.039,122.547z"/>
			<path fill="none" stroke="#231F20" stroke-width="2" stroke-linecap="round" stroke-linejoin="round" stroke-miterlimit="10" d="
				M134.965,77.946c1.56,10.905-3.21,19.566-6.619,25.574"/>
			<path fill="#231F20" d="M159.429,85.655c1.609-1.058,5.406,4.3,9.084,3.423c3.675-0.876,7.608-2.867,9.763-0.894
				c1.983,1.817,1.257,4.65-1.478,6.15C163.97,101.374,155.763,88.063,159.429,85.655z"/>
			
				<path fill="#D1313D" stroke="#231F20" stroke-width="1.5" stroke-linecap="round" stroke-linejoin="round" stroke-miterlimit="10" d="
				M141.228,152.602c0,0,8.09,5.897,18.077,6.313c10.4,0.433,19.844-3.504,19.844-3.504s-7.847-49.186-17.867-53.108l-14.799-6.269
				l-18.902,29.187l13.626,3.757l7.561-23.666l-6.574,22.681L141.228,152.602z"/>
		</g>
		<path fill="none" stroke="#231F20" stroke-width="2" stroke-linecap="round" stroke-linejoin="round" stroke-miterlimit="10" d="
			M209.939,134"/>
		
			<path fill="none" stroke="#231F20" stroke-width="1.4" stroke-linecap="round" stroke-linejoin="round" stroke-miterlimit="10" d="
			M174.056,58.43c-2.811-0.082-6.84,1.931-7.454,5.076"/>
		
			<path fill="none" stroke="#231F20" stroke-width="1.4" stroke-linecap="round" stroke-linejoin="round" stroke-miterlimit="10" d="
			M188.056,55.43c-1.651-0.048-3.726,0.628-5.278,1.832"/>
	</g>
	<path fill="none" stroke="#9B8579" stroke-width="2" stroke-linecap="round" stroke-linejoin="round" stroke-miterlimit="10" d="
		M163.295,180.835c19.329-20.889,17.505-31.274,27.219-33.453c4.206-0.943,16.982-2.382,16.063,18.079"/>
	<polygon fill="#615375" points="206.6,161.205 209.357,166.79 215.521,167.686 211.06,172.033 212.113,178.172 206.6,175.273 
		201.087,178.172 202.14,172.033 197.68,167.686 203.844,166.79 	"/>
</g>
</svg>
