<?xml version="1.0" encoding="utf-8"?>
<!-- Generator: Adobe Illustrator 16.0.0, SVG Export Plug-In . SVG Version: 6.00 Build 0)  -->
<!DOCTYPE svg PUBLIC "-//W3C//DTD SVG 1.1//EN" "http://www.w3.org/Graphics/SVG/1.1/DTD/svg11.dtd">
<svg version="1.1" id="Layer_1" xmlns="http://www.w3.org/2000/svg" xmlns:xlink="http://www.w3.org/1999/xlink" x="0px" y="0px"
	 width="595.279px" height="841.89px" viewBox="0 0 595.279 841.89" enable-background="new 0 0 595.279 841.89"
	 xml:space="preserve">
<path fill="#A87C4F" stroke="#231F20" stroke-linecap="round" stroke-linejoin="round" stroke-miterlimit="10" d="M146.775,45.124"
	/>
<circle fill="#F7C434" cx="115.361" cy="103.088" r="39.447"/>
<g>
	<path fill="#F9BF76" d="M115.361,155.977c-29.162,0-52.889-23.727-52.889-52.889S86.198,50.2,115.361,50.2
		s52.889,23.727,52.889,52.889C168.248,132.25,144.523,155.977,115.361,155.977z M115.361,59.11c-24.25,0-43.979,19.73-43.979,43.98
		c0,24.248,19.729,43.977,43.979,43.977s43.979-19.729,43.979-43.977C159.339,78.838,139.611,59.11,115.361,59.11z"/>
</g>
<g>
	<circle fill="#D1313D" cx="114.386" cy="73.385" r="3.201"/>
	<circle fill="#D1313D" cx="95.854" cy="79.985" r="4.205"/>
	<circle fill="#D1313D" cx="106.033" cy="91.567" r="4.205"/>
	<circle fill="#D1313D" cx="138.824" cy="117.747" r="4.205"/>
	<circle fill="#D1313D" cx="84.02" cy="99.817" r="5.207"/>
	<circle fill="#D1313D" cx="128.299" cy="126.678" r="3.018"/>
	<circle fill="#D1313D" cx="142.279" cy="103.304" r="2.698"/>
	<circle fill="#D1313D" cx="101.401" cy="110.69" r="3.188"/>
	<circle fill="#D1313D" cx="124.087" cy="94.434" r="4.34"/>
	<circle fill="#D1313D" cx="131.318" cy="77.725" r="4.34"/>
	<circle fill="#D1313D" cx="141.771" cy="90.826" r="3.71"/>
	<circle fill="#D1313D" cx="90.653" cy="119.635" r="4.023"/>
	<circle fill="#D1313D" cx="110.611" cy="132.941" r="5.731"/>
	<circle fill="#D1313D" cx="119.97" cy="112.818" r="5.731"/>
</g>
<line fill="none" stroke="#FFFFFF" stroke-width="4" stroke-miterlimit="10" x1="114.427" y1="47.893" x2="114.427" y2="158.893"/>
<line fill="none" stroke="#FFFFFF" stroke-width="4" stroke-miterlimit="10" x1="59.427" y1="103.893" x2="170.427" y2="103.893"/>
<circle fill="#F7C434" cx="470.361" cy="101.088" r="39.447"/>
<g>
	<path fill="#F9BF76" d="M470.361,153.977c-29.162,0-52.889-23.727-52.889-52.889S441.198,48.2,470.361,48.2
		s52.889,23.727,52.889,52.889C523.248,130.25,499.523,153.977,470.361,153.977z M470.361,57.11c-24.25,0-43.979,19.73-43.979,43.98
		c0,24.248,19.729,43.977,43.979,43.977s43.979-19.729,43.979-43.977C514.338,76.838,494.611,57.11,470.361,57.11z"/>
</g>
<g>
	<circle fill="#D1313D" cx="469.386" cy="71.385" r="3.201"/>
	<circle fill="#D1313D" cx="450.854" cy="77.985" r="4.205"/>
	<circle fill="#D1313D" cx="461.033" cy="89.567" r="4.205"/>
	<circle fill="#D1313D" cx="493.824" cy="115.747" r="4.205"/>
	<circle fill="#D1313D" cx="439.02" cy="97.817" r="5.207"/>
	<circle fill="#D1313D" cx="483.298" cy="124.678" r="3.018"/>
	<circle fill="#D1313D" cx="497.279" cy="101.304" r="2.698"/>
	<circle fill="#D1313D" cx="456.401" cy="108.69" r="3.188"/>
	<circle fill="#D1313D" cx="479.086" cy="92.434" r="4.34"/>
	<circle fill="#D1313D" cx="486.318" cy="75.725" r="4.34"/>
	<circle fill="#D1313D" cx="496.771" cy="88.826" r="3.71"/>
	<circle fill="#D1313D" cx="445.653" cy="117.635" r="4.023"/>
	<circle fill="#D1313D" cx="465.611" cy="130.941" r="5.731"/>
	<circle fill="#D1313D" cx="474.97" cy="110.818" r="5.731"/>
</g>
<polyline fill="none" stroke="#FFFFFF" stroke-width="4" stroke-miterlimit="10" points="469.427,45.893 469.427,101.893 
	433.606,139.065 "/>
<line fill="none" stroke="#FFFFFF" stroke-width="4" stroke-miterlimit="10" x1="414.427" y1="101.893" x2="525.427" y2="101.893"/>
<circle fill="#F7C434" cx="291.361" cy="105.088" r="39.447"/>
<g>
	<path fill="#F9BF76" d="M291.361,157.977c-29.162,0-52.889-23.727-52.889-52.889S262.198,52.2,291.361,52.2
		s52.889,23.727,52.889,52.889C344.248,134.25,320.523,157.977,291.361,157.977z M291.361,61.11c-24.25,0-43.979,19.73-43.979,43.98
		c0,24.248,19.729,43.977,43.979,43.977s43.979-19.729,43.979-43.977C335.338,80.838,315.611,61.11,291.361,61.11z"/>
</g>
<g>
	<circle fill="#D1313D" cx="290.386" cy="75.385" r="3.201"/>
	<circle fill="#D1313D" cx="271.854" cy="81.985" r="4.205"/>
	<circle fill="#D1313D" cx="282.033" cy="93.567" r="4.205"/>
	<circle fill="#D1313D" cx="314.824" cy="119.747" r="4.205"/>
	<circle fill="#D1313D" cx="260.02" cy="101.817" r="5.207"/>
	<circle fill="#D1313D" cx="304.298" cy="128.678" r="3.018"/>
	<circle fill="#D1313D" cx="318.279" cy="105.304" r="2.698"/>
	<circle fill="#D1313D" cx="277.401" cy="112.69" r="3.188"/>
	<circle fill="#D1313D" cx="300.086" cy="96.434" r="4.34"/>
	<circle fill="#D1313D" cx="307.318" cy="79.725" r="4.34"/>
	<circle fill="#D1313D" cx="317.771" cy="92.826" r="3.71"/>
	<circle fill="#D1313D" cx="266.653" cy="121.635" r="4.023"/>
	<circle fill="#D1313D" cx="286.611" cy="134.941" r="5.731"/>
	<circle fill="#D1313D" cx="295.97" cy="114.818" r="5.731"/>
</g>
<line fill="none" stroke="#FFFFFF" stroke-width="4" stroke-miterlimit="10" x1="264.817" y1="56.155" x2="316.036" y2="154.631"/>
<line fill="none" stroke="#FFFFFF" stroke-width="4" stroke-miterlimit="10" x1="267.087" y1="156.012" x2="314.765" y2="55.774"/>
<path fill="none" stroke="#231F20" stroke-linecap="round" stroke-linejoin="round" stroke-miterlimit="10" d="M119.97,50.401
	c0,0,43.261,5.754,48.278,47.371c3.12,25.871-11.987,44.729-29.424,52.705c-32.791,15.002-58.125-4.873-64.001-13.463"/>
<path fill="none" stroke="#231F20" stroke-linecap="round" stroke-linejoin="round" stroke-miterlimit="10" d="M294.97,51.401
	c0,0,43.261,5.754,48.278,47.371c3.12,25.871-11.987,44.729-29.424,52.705c-32.791,15.002-58.125-4.873-64.001-13.463"/>
<path fill="none" stroke="#231F20" stroke-linecap="round" stroke-linejoin="round" stroke-miterlimit="10" d="M473.97,47.401
	c0,0,43.261,5.754,48.278,47.371c3.12,25.871-11.987,44.729-29.424,52.705c-32.791,15.002-58.125-4.873-64.001-13.463"/>
</svg>
