<?xml version="1.0" encoding="utf-8"?>
<!-- Generator: Adobe Illustrator 16.0.0, SVG Export Plug-In . SVG Version: 6.00 Build 0)  -->
<!DOCTYPE svg PUBLIC "-//W3C//DTD SVG 1.1//EN" "http://www.w3.org/Graphics/SVG/1.1/DTD/svg11.dtd">
<svg version="1.1" id="Layer_1" xmlns="http://www.w3.org/2000/svg" xmlns:xlink="http://www.w3.org/1999/xlink" x="0px" y="0px"
	 width="595.28px" height="841.89px" viewBox="0 0 595.28 841.89" enable-background="new 0 0 595.28 841.89" xml:space="preserve">
<path fill="none" stroke="#9B8579" stroke-width="2.6" stroke-linecap="round" stroke-linejoin="round" stroke-miterlimit="10" d="
	M222.521,48.398H58.183c0,0-13.996-1.325-14.059,5.704c-0.059,6.618,13.713,5.211,13.713,5.211l164.684,0.98"/>
<path fill="none" stroke="#9B8579" stroke-width="2.6" stroke-linecap="round" stroke-linejoin="round" stroke-miterlimit="10" d="
	M48.768,98.042h163.974c0,0,12.285-1.324,12.347,5.704c0.059,6.618-12.002,5.211-12.002,5.211l-164.501,0.767
	c0,0-7.192-0.195-7.192,6.677c0,5.736,8.916,4.752,8.916,4.752h167.077c0,0,7.57-0.45,8.229,5.85
	c0.614,5.863-8.406,6.989-8.406,6.989H51.336"/>
<text transform="matrix(1 0 0 1 104.123 80.104)" fill="#231F20" font-family="'JandaCapslock'" font-size="14">1</text>
<text transform="matrix(1 0 0 1 106.9941 80.104)" fill="#231F20" font-family="'JandaCapslock'" font-size="14" letter-spacing="-4"> </text>
<text transform="matrix(0.583 0 0 0.583 109.7939 75.4419)" fill="#231F20" font-family="'JandaCapslock'" font-size="14">a</text>
<text transform="matrix(1 0 0 1 115.0151 80.104)" fill="#231F20" font-family="'JandaCapslock'" font-size="14"> dobra</text>
<text transform="matrix(1 0 0 1 101.9341 152.0024)" fill="#231F20" font-family="'JandaCapslock'" font-size="14">2</text>
<text transform="matrix(0.583 0 0 0.583 111.9829 147.3403)" fill="#231F20" font-family="'JandaCapslock'" font-size="14">a</text>
<text transform="matrix(1 0 0 1 117.2036 152.0024)" fill="#231F20" font-family="'JandaCapslock'" font-size="14"> dobra</text>
</svg>
