<?xml version="1.0" encoding="utf-8"?>
<!-- Generator: Adobe Illustrator 16.0.0, SVG Export Plug-In . SVG Version: 6.00 Build 0)  -->
<!DOCTYPE svg PUBLIC "-//W3C//DTD SVG 1.1//EN" "http://www.w3.org/Graphics/SVG/1.1/DTD/svg11.dtd">
<svg version="1.1" id="Layer_1" xmlns="http://www.w3.org/2000/svg" xmlns:xlink="http://www.w3.org/1999/xlink" x="0px" y="0px"
	 width="595.279px" height="841.89px" viewBox="0 0 595.279 841.89" enable-background="new 0 0 595.279 841.89"
	 xml:space="preserve">
<g>
	<path fill="none" stroke="#231F20" stroke-width="1.5" stroke-miterlimit="10" d="M176.091,128.789
		c-1.602,8.657-0.022,29.18,0.464,31.123c0.771,3.077,6.941,8.957,10.524,9.181c3.582,0.224,38.512,0,38.512,0
		s11.196-1.79,12.539-10.747c1.344-8.958,0-32.467,0-32.467s-2.239-9.628-11.644-11.42c-9.405-1.792-26.036-0.36-34.706,0
		C181.032,114.906,177.015,123.796,176.091,128.789z"/>
	<path fill="none" stroke="#231F20" stroke-width="1.5" stroke-miterlimit="10" d="M169.239,124.367
		c-1.778,9.605,0.003,32.366,0.514,34.529c1.312,5.545,7.701,9.938,11.675,10.186c3.977,0.247,42.728,0,42.728,0
		s12.422-1.986,13.912-11.924c1.49-9.937,0-36.02,0-36.02s-2.484-10.681-12.918-12.669c-10.434-1.988-28.887-0.399-38.504,0
		C174.717,108.965,170.26,118.828,169.239,124.367z"/>
	
		<rect x="185.044" y="169.831" fill="none" stroke="#231F20" stroke-width="1.5" stroke-miterlimit="10" width="5.583" height="18.612"/>
	
		<rect x="218.546" y="169.831" fill="none" stroke="#231F20" stroke-width="1.5" stroke-miterlimit="10" width="5.584" height="18.612"/>
	
		<line fill="none" stroke="#231F20" stroke-width="1.5" stroke-miterlimit="10" x1="174.721" y1="113.575" x2="180.367" y2="119.79"/>
</g>
<g>
	<path fill="none" stroke="#231F20" stroke-width="1.5" stroke-miterlimit="10" d="M407.103,128.789
		c1.603,8.657,0.023,29.18-0.464,31.123c-0.771,3.077-6.94,8.957-10.523,9.181c-3.582,0.224-38.513,0-38.513,0
		s-11.195-1.79-12.539-10.747c-1.344-8.958,0-32.467,0-32.467s2.239-9.628,11.645-11.42s26.036-0.36,34.706,0
		C402.163,114.906,406.179,123.796,407.103,128.789z"/>
	<path fill="none" stroke="#231F20" stroke-width="1.5" stroke-miterlimit="10" d="M413.957,124.367
		c1.777,9.605-0.003,32.366-0.515,34.529c-1.311,5.545-7.7,9.938-11.675,10.186c-3.976,0.247-42.727,0-42.727,0
		s-12.422-1.986-13.912-11.924c-1.491-9.937,0-36.02,0-36.02s2.484-10.681,12.918-12.669c10.433-1.988,28.886-0.399,38.504,0
		C408.477,108.965,412.934,118.828,413.957,124.367z"/>
	
		<rect x="392.568" y="169.831" fill="none" stroke="#231F20" stroke-width="1.5" stroke-miterlimit="10" width="5.583" height="18.612"/>
	
		<rect x="359.065" y="169.831" fill="none" stroke="#231F20" stroke-width="1.5" stroke-miterlimit="10" width="5.584" height="18.612"/>
	
		<line fill="none" stroke="#231F20" stroke-width="1.5" stroke-miterlimit="10" x1="408.473" y1="113.575" x2="402.828" y2="119.79"/>
</g>
<g>
	
		<path fill="#F9BF76" stroke="#231F20" stroke-width="1.5" stroke-linecap="round" stroke-linejoin="round" stroke-miterlimit="10" d="
		M331.974,141.949c0,0,1.517-11.376,0.025-13.629c-1.97-2.975-4.051-2.143-4.617-0.427c-0.566,1.717-0.117,4.247-0.205,6.854
		c-0.087,2.61-3.077,4.197-4.443,2.647c-1.361-1.552-5.332-5.525-6.166-6.455c-0.836-0.928-4.603-3.534-5.379-0.854
		s2.226,8.887,2.226,8.887c0.605,0.146-2.059,1.918,1.396,4.81c3.453,2.895,9.501,4.567,13.977,1.467
		c2.012-1.395,7.413,11.232,14.566,11.175c8.503-0.072,12.122-1.635,13.729-5.833c1.604-4.198,3.26-11.909,3.26-11.909l-5.811,0.454
		c0,0,0.981,7.521-2.896,11.114c-3.877,3.599-10.696,2.465-12.377,0.496C337.578,148.773,331.974,141.949,331.974,141.949z"/>
	
		<polygon fill="#615375" stroke="#231F20" stroke-width="1.5" stroke-linecap="round" stroke-linejoin="round" stroke-miterlimit="10" points="
		350.431,137.772 361.114,142.802 365.453,129.137 361.511,112.834 	"/>
	<path fill="#F7B24C" d="M386.999,60.535c5.055,19.438,22.874,29.549,24.328,35.733c1.55,6.585-15.114,21.538-27.101,14.708
		c-3.887-2.214-5.179-26.743-5.179-26.743"/>
	<path fill="#F9BF76" d="M377.293,98.992c-7.998,12.535-40.946,23.693-52.842-1.475c-1.119-2.364-6.78-3.778-7.396-6.073
		c-1.195-4.471,4.374-4.957,4.374-9.253c0-8.599,3.025-20.213,5.86-25.581c5.591-10.6,24.563-10.412,32.478-7.755
		c5.69,1.913,15.256,18.561,15.256,18.561s7.788-7.682,14.354-1.188c6.517,6.45,2.148,13.998-4.104,15.588
		c-3.886,0.987-6.684-1.787-6.684-1.787S382.107,91.444,377.293,98.992z"/>
	<path fill="#F7B24C" d="M385.176,61.957c0,0-4.003-13.468-12.461-21.41c-4.081-3.832-15.881-6.814-21.46-6.369
		c-3.25,0.258-9.766,2.034-12.438,3.899c-4.688,3.272-17.43,11.759-15.253,17.046c2.407,5.844,24.411,4.515,24.411,4.515
		s6.576-9.857,10.472-9.621c6.012,0.363,16.383,10.396,16.383,16.404"/>
	<path fill="none" stroke="#231F20" stroke-width="1.5" stroke-linecap="round" stroke-linejoin="round" stroke-miterlimit="10" d="
		M320.611,82.758c-0.641-10.588,3.087-19.843,6.681-26.148"/>
	<path fill="none" stroke="#231F20" stroke-width="1.5" stroke-linecap="round" stroke-linejoin="round" stroke-miterlimit="10" d="
		M377.293,98.992c-6.481,13.383-41.451,22.971-53.346-2.2"/>
	<path fill="#231F20" d="M325.836,67.285c-1.291,1.155-1.977,3.751-1.536,5.791c0.445,2.044,1.852,2.765,3.142,1.602
		c1.294-1.15,1.98-3.746,1.535-5.786C328.535,66.846,327.128,66.128,325.836,67.285z"/>
	<path fill="#231F20" d="M338.014,69.285c-1.291,1.155-1.976,3.751-1.536,5.791c0.445,2.044,1.853,2.765,3.143,1.602
		c1.294-1.15,1.979-3.746,1.535-5.786C340.714,68.846,339.306,68.128,338.014,69.285z"/>
	<path fill="none" stroke="#231F20" stroke-width="2" stroke-linecap="round" stroke-linejoin="round" stroke-miterlimit="10" d="
		M341.98,38.077c-13.094,3.994-20.414,20.626-20.55,21.561"/>
	<path fill="none" stroke="#231F20" stroke-width="2" stroke-linecap="round" stroke-linejoin="round" stroke-miterlimit="10" d="
		M341.98,38.077c-13.094,3.994-20.414,20.626-20.55,21.561"/>
	<path fill="none" stroke="#231F20" stroke-width="2" stroke-linecap="round" stroke-linejoin="round" stroke-miterlimit="10" d="
		M351.256,38.077c-13.096,3.994-20.418,20.626-20.551,21.561"/>
	<path fill="none" stroke="#231F20" stroke-width="2" stroke-linecap="round" stroke-linejoin="round" stroke-miterlimit="10" d="
		M354.733,42.429c-10.177,5.872-15.798,18.707-15.915,19.527"/>
	<path fill="none" stroke="#231F20" stroke-width="2" stroke-linecap="round" stroke-linejoin="round" stroke-miterlimit="10" d="
		M359.768,45.968c-8.963,6.265-13.886,17.54-13.995,18.306"/>
	<path fill="none" stroke="#231F20" stroke-width="1.5" stroke-linecap="round" stroke-linejoin="round" stroke-miterlimit="10" d="
		M362.533,50.284c11.608,8.65,12.49,17.132,12.49,17.132s3.831-4.577,8.165-4.103c4.333,0.472,7.357,2.577,8.69,8.302
		c1.339,5.758-5.315,10.757-10.007,10.15c-2.994-0.389-3.283-1.736-3.283-1.736s3.211,4.73,0.928,15.045"/>
	<path fill="none" stroke="#231F20" stroke-width="1.5" stroke-linecap="round" stroke-linejoin="round" stroke-miterlimit="10" d="
		M386.877,72.75c0,0-4.819-6.768-9.297-1.272"/>
	<path fill="none" stroke="#231F20" stroke-width="1.5" stroke-linecap="round" stroke-linejoin="round" stroke-miterlimit="10" d="
		M382.107,74.443c1.649-2.334,1.188-4.7,1.188-4.7"/>
	<path fill="none" stroke="#231F20" stroke-width="2" stroke-linecap="round" stroke-linejoin="round" stroke-miterlimit="10" d="
		M354.733,37.34c17.915,5.089,25.067,22.297,25.067,22.297"/>
	<path fill="none" stroke="#231F20" stroke-width="2" stroke-linecap="round" stroke-linejoin="round" stroke-miterlimit="10" d="
		M346.773,34.714c19.202-3.145,33.912,7.715,38.403,25.82"/>
	<path fill="none" stroke="#231F20" stroke-width="2" stroke-linecap="round" stroke-linejoin="round" stroke-miterlimit="10" d="
		M392.053,75.98c6.773,15.221,18.206,17.315,17.369,26.338"/>
	<path fill="none" stroke="#231F20" stroke-width="2" stroke-linecap="round" stroke-linejoin="round" stroke-miterlimit="10" d="
		M388.093,84.587c1.683,14.892,2.309,21.417,8.716,28.032"/>
	<path fill="none" stroke="#231F20" stroke-width="1.5" stroke-linecap="round" stroke-linejoin="round" stroke-miterlimit="10" d="
		M329.672,77.862c-23.361,12.533-10.166,20.056,2.41,16.197"/>
	
		<path fill="#F9BF76" stroke="#231F20" stroke-width="1.5" stroke-linecap="round" stroke-linejoin="round" stroke-miterlimit="10" d="
		M386.787,143.006c0,0-1.648,32.686-0.404,34.163c1.215,1.435,3.621,7.117,5.352,11.283c2.781,6.696,0.688,10.703-1.678,10.161
		c-2.733-0.63-5.796-11.786-5.796-11.786s1.713,8.933,1.243,11.439c-0.493,2.615-3.927,3.91-6.016,1.698
		c-1.225-1.295,0.26-13.719,0.26-13.719s-2.273,11.943-4.209,12.845c-2.813,1.301-3.98-0.072-4.031-3.184
		c-0.047-2.852,2.705-6.76,3.48-9.262c0.771-2.5,0.094-3.496-1.646-2.724c-1.738,0.771-5.312,2.52-6.471,2.712
		c-1.16,0.194-2.655-1.887-1.304-4.249c0.973-1.701,14.179-6.569,14.179-6.569l1.522-32.238L386.787,143.006z"/>
	
		<path fill="#615375" stroke="#231F20" stroke-width="1.5" stroke-linecap="round" stroke-linejoin="round" stroke-miterlimit="10" d="
		M378.59,174.08l-20.143,1.717c0,0,4.691-43.006,1.02-62.431l13.87-8.543l15.167,37.834l-8.965,0.89l-8.886-27.82l7.728,26.663
		L378.59,174.08z"/>
	<path fill="none" stroke="#231F20" stroke-width="2" stroke-linecap="round" stroke-linejoin="round" stroke-miterlimit="10" d="
		M381.692,87.291c-1.412,14.92-1.425,19.981,3.484,27.772"/>
	<path fill="none" stroke="#231F20" stroke-width="1.5" stroke-linecap="round" stroke-linejoin="round" stroke-miterlimit="10" d="
		M335.701,100.646c12.929,4.009,21.606-1.873,24.356-4.871"/>
	<path fill="none" stroke="#231F20" stroke-width="1.5" stroke-linecap="round" stroke-linejoin="round" stroke-miterlimit="10" d="
		M358.424,92.792c0,0,3.015,4.564,6.014,5.326"/>
</g>
<g>
	
		<rect x="250.054" y="137.017" transform="matrix(-0.9221 0.3869 -0.3869 -0.9221 554.3373 186.7625)" fill="#C66500" width="16.635" height="24.315"/>
	<path fill="#53180F" d="M261.096,134.165l-15.932,6.684l9.901,23.602l15.932-6.683L261.096,134.165z M249.565,148.023l-2.726-6.489
		l6.491-2.724l2.723,6.491L249.565,148.023z M257.235,144.806l-2.725-6.49l5.901-2.476l2.723,6.489L257.235,144.806z
		 M252.534,155.104l-2.477-5.9l6.49-2.723l2.476,5.899L252.534,155.104z M260.205,151.886l-2.476-5.9l5.9-2.476l2.476,5.9
		L260.205,151.886z M255.752,162.775l-2.723-6.49l6.49-2.724l2.723,6.491L255.752,162.775z M263.422,159.558l-2.723-6.491
		l5.899-2.475l2.724,6.489L263.422,159.558z"/>
</g>
<g>
	
		<rect x="307.011" y="122.309" transform="matrix(-0.8671 -0.4981 0.4981 -0.8671 521.7802 408.129)" fill="#C66500" width="16.636" height="24.314"/>
	<path fill="#53180F" d="M328.947,127.513l-14.98-8.605l-12.749,22.193l14.98,8.605L328.947,127.513z M310.932,126.758l3.505-6.104
		l6.104,3.506l-3.506,6.104L310.932,126.758z M318.144,130.902l3.506-6.104l5.55,3.188l-3.507,6.103L318.144,130.902z
		 M307.107,133.417l3.188-5.549l6.103,3.506l-3.187,5.548L307.107,133.417z M314.321,137.56l3.188-5.549l5.549,3.188l-3.188,5.548
		L314.321,137.56z M302.964,140.63l3.506-6.104l6.104,3.506l-3.507,6.104L302.964,140.63z M310.175,144.773l3.507-6.104l5.548,3.188
		l-3.505,6.103L310.175,144.773z"/>
</g>
<path fill="#684D3A" d="M257.827,80.827c-4.653-8.836-25.546-20.017-39.524-5.812c-3.863,3.926-6.567,8.685-8.235,13.637
	c-1.451-0.927-3.231-1.318-5.031-0.949c-3.73,0.764-6.122,4.478-5.34,8.294c0.781,3.813,4.438,6.287,8.17,5.522
	c0.058-0.012,0.111-0.03,0.168-0.043c0.05,3.331,0.546,6.5,1.49,9.288c5.379,15.872,29.853,20.112,38.304,14.653
	c5.27-3.404,7.277-6.293,8.798-9.059C268.615,94.504,258.64,82.369,257.827,80.827z"/>
<path fill="none" stroke="#231F20" stroke-width="1.5" stroke-linecap="round" stroke-linejoin="round" stroke-miterlimit="10" d="
	M245.882,117.979c-12.261,3.8-20.491-1.776-23.098-4.62"/>
<ellipse transform="matrix(-0.2006 -0.9797 0.9797 -0.2006 202.7135 383.3681)" fill="#684D3A" cx="257.761" cy="108.982" rx="6.242" ry="9.373"/>
<path fill="none" stroke="#231F20" stroke-width="1.5" stroke-linecap="round" stroke-linejoin="round" stroke-miterlimit="10" d="
	M254.522,100.155c0,0,13.038,1.08,12.946,7.128c-0.134,8.857-13.955,8.187-16.169,7.167"/>
<line fill="none" stroke="#231F20" stroke-width="2" stroke-linecap="round" stroke-linejoin="round" stroke-miterlimit="10" x1="216.093" y1="63.27" x2="220.756" y2="70.674"/>
<line fill="none" stroke="#231F20" stroke-width="2" stroke-linecap="round" stroke-linejoin="round" stroke-miterlimit="10" x1="226.913" y1="58.305" x2="229.083" y2="66.781"/>
<line fill="none" stroke="#231F20" stroke-width="2" stroke-linecap="round" stroke-linejoin="round" stroke-miterlimit="10" x1="221.064" y1="60.62" x2="224.932" y2="68.467"/>
<line fill="none" stroke="#231F20" stroke-width="2" stroke-linecap="round" stroke-linejoin="round" stroke-miterlimit="10" x1="250.549" y1="60.62" x2="246.677" y2="68.466"/>
<line fill="none" stroke="#231F20" stroke-width="2" stroke-linecap="round" stroke-linejoin="round" stroke-miterlimit="10" x1="255.549" y1="63.62" x2="251.677" y2="71.466"/>
<line fill="none" stroke="#231F20" stroke-width="2" stroke-linecap="round" stroke-linejoin="round" stroke-miterlimit="10" x1="243.92" y1="58.368" x2="241.306" y2="66.718"/>
<line fill="none" stroke="#231F20" stroke-width="2" stroke-linecap="round" stroke-linejoin="round" stroke-miterlimit="10" x1="238.82" y1="57.523" x2="237.261" y2="66.133"/>
<line fill="none" stroke="#231F20" stroke-width="2" stroke-linecap="round" stroke-linejoin="round" stroke-miterlimit="10" x1="233.158" y1="57.455" x2="232.923" y2="66.202"/>
<line fill="none" stroke="#231F20" stroke-width="2" stroke-linecap="round" stroke-linejoin="round" stroke-miterlimit="10" x1="233.158" y1="57.455" x2="232.923" y2="66.202"/>
<path fill="#684D3A" stroke="#231F20" stroke-width="1.5" stroke-miterlimit="10" d="M219.492,136.683
	c0,0,8.445,15.599,11.765,19.523c3.583,4.236,5.321,8.393,6.909,8.374c1.587-0.021,5.807-1.095,10.085,0.644
	c5.604,2.272,9.878,4.169,9.93,11.008c0.021,2.96-2.283,4.977-4.138,3.394c-1.851-1.58-4.43-5.474-6.313-8.089
	c-1.572-2.175-7.493-3.041-8.638-0.429c-1.146,2.607,3.142,8.346,0.79,10.757c-2.349,2.409-4.566,0.593-5.181-1.276
	c-0.613-1.868-1.092-5.809-0.556-8.456c0.533-2.65,0.911-2.983,0.125-3.896c-5.337-6.196-21.146-27.604-21.886-29.356
	L219.492,136.683z"/>
<path fill="#684D3A" stroke="#231F20" stroke-width="1.5" stroke-miterlimit="10" d="M237.744,153.389
	c0,0,0.731-11.453,2.633-13.372c2.512-2.534,4.391-1.313,4.612,0.481c0.221,1.794-0.714,4.188-1.136,6.762
	c-0.425,2.577,2.199,4.717,3.842,3.463c1.639-1.256,6.308-4.379,7.307-5.129c1-0.747,5.203-2.568,5.442,0.211
	c0.238,2.779-3.915,8.282-3.915,8.282c-0.623,0.024,1.645,2.282-2.309,4.445c-3.95,2.165-10.209,2.627-13.992-1.286
	c-1.701-1.76-9.462,9.571-16.468,8.12c-8.324-1.729-11.569-3.967-12.327-8.397c-0.755-4.431-0.876-12.316-0.876-12.316l5.611,1.578
	c0,0-2.43,7.185,0.673,11.466c3.103,4.285,10.012,4.503,12.043,2.899C230.918,158.99,237.744,153.389,237.744,153.389z"/>
<path fill="#8EB2C5" stroke="#231F20" stroke-width="1.5" stroke-linecap="round" stroke-linejoin="round" stroke-miterlimit="10" d="
	M219.957,123.544c-1.045,8.61,9.303,22.185,9.303,22.185s-7.705,6.738-10.141,6.065c-0.635-0.176-3.668-5.766-3.668-5.766
	s-6.233,2.222-8.333,4.236c-4.721,4.524-7.054,25.192-7.054,25.192s-17.522-1.951-17.271-4.941
	c0.71-8.404,25.676-48.221,28.595-50.643C214.306,117.454,220.252,121.105,219.957,123.544z"/>
<polygon fill="#231F20" stroke="#231F20" stroke-width="2" stroke-linecap="round" stroke-linejoin="round" stroke-miterlimit="10" points="
	182.793,170.515 180.367,186.595 198.609,188.443 200.065,175.457 "/>
<polygon fill="#231F20" stroke="#231F20" stroke-width="2" stroke-linecap="round" stroke-linejoin="round" stroke-miterlimit="10" points="
	377.638,173.515 380.064,187.595 361.823,189.443 360.367,176.457 "/>
<rect x="152.884" y="179.984" fill="#FFFFFF" width="293" height="51"/>
<line fill="none" stroke="#231F20" stroke-width="1.5" stroke-linecap="round" stroke-linejoin="round" stroke-miterlimit="10" x1="152.884" y1="179.984" x2="462.884" y2="179.984"/>
<path fill="none" stroke="#231F20" stroke-width="1.5" stroke-linecap="round" stroke-linejoin="round" stroke-miterlimit="10" d="
	M257.778,151.794c0,0-1.944,4.691-9.917,4.981"/>
<path fill="none" stroke="#231F20" stroke-width="1.5" stroke-linecap="round" stroke-linejoin="round" stroke-miterlimit="10" d="
	M259.941,146.714c0,0-0.969,4.983-8.724,6.858"/>
<path fill="none" stroke="#231F20" stroke-width="1.5" stroke-miterlimit="10" d="M298.621,204.726c0,0,122.485-1.167,127.265,0"/>
<ellipse fill="none" stroke="#231F20" stroke-width="1.3" stroke-miterlimit="10" cx="362.283" cy="189.221" rx="28.846" ry="7.132"/>
<ellipse fill="none" stroke="#231F20" stroke-width="1.3" stroke-miterlimit="10" cx="241.283" cy="189.221" rx="28.846" ry="7.132"/>
<g>
	<ellipse opacity="0.7" fill="#FFFFFF" enable-background="new    " cx="296.536" cy="180.141" rx="9.057" ry="2.037"/>
	<path fill="none" stroke="#231F20" stroke-width="1.2" stroke-miterlimit="10" d="M286.049,160.644c0,0,0.769,21.778,3.661,27.353
		c2.042,3.934,11.366,4.229,13.444,0.295c2.59-4.901,4.295-28.39,4.295-28.39"/>
	<path fill="none" stroke="#231F20" stroke-width="1.2" stroke-miterlimit="10" d="M286.049,160.11
		c0,1.648,3.868,2.986,10.651,2.986c6.786,0,10.749-1.338,10.749-2.986s-3.963-2.986-10.749-2.986
		C289.917,157.124,286.049,158.462,286.049,160.11z"/>
	<path fill="none" stroke="#231F20" stroke-width="1.2" stroke-miterlimit="10" d="M287.681,172.745
		c0,1.414,3.316,2.561,9.131,2.561c5.815,0,9.213-1.146,9.213-2.561c0-1.413-3.396-2.56-9.213-2.56
		C290.998,170.185,287.681,171.332,287.681,172.745z"/>
</g>
<path fill="none" stroke="#231F20" stroke-width="1.3" stroke-miterlimit="10" d="M252.819,190.618"/>
<path fill="none" stroke="#231F20" stroke-width="1.3" stroke-linecap="round" stroke-linejoin="round" stroke-miterlimit="10" d="
	M258.108,189.618c0,1.201-8.575,2.751-18.164,2.751c-9.59,0-17.182-1.646-16.561-2.751"/>
<path fill="none" stroke="#231F20" stroke-width="1.3" stroke-linecap="round" stroke-linejoin="round" stroke-miterlimit="10" d="
	M380.107,189.618c0,1.201-8.574,2.751-18.164,2.751s-17.181-1.646-16.56-2.751"/>
<path fill="none" stroke="#231F20" stroke-width="1.5" stroke-miterlimit="10" d="M180.367,205.726c0,0,96.744-1.167,100.519,0"/>
<path fill="none" stroke="#231F20" stroke-width="1.5" stroke-linecap="round" stroke-linejoin="round" stroke-miterlimit="10" d="
	M207.865,100.52c-3.731,0.765-7.39-1.71-8.17-5.522c-0.782-3.816,1.608-7.53,5.34-8.294c1.397-0.287,2.787-0.118,4.018,0.407"/>
<path fill="none" stroke="#231F20" stroke-width="1.5" stroke-linecap="round" stroke-linejoin="round" stroke-miterlimit="10" d="
	M208.04,101.329c0.117,3.021,0.62,5.886,1.483,8.437c5.379,15.872,29.853,20.112,38.304,14.653c5.27-3.404,8.798-9.059,8.798-9.059"
	/>
<path fill="none" stroke="#231F20" stroke-width="1.5" stroke-linecap="round" stroke-linejoin="round" stroke-miterlimit="10" d="
	M257.827,79.827c-2.005-9.785-25.546-20.017-39.524-5.812c-3.863,3.925-6.583,8.681-8.251,13.633"/>
<path fill="#231F20" d="M238.843,92.629c0.373,2.213,1.729,3.439,3.033,2.748c1.302-0.684,2.058-3.029,1.685-5.244
	c-0.371-2.205-1.727-3.431-3.03-2.741C239.231,88.079,238.472,90.423,238.843,92.629z"/>
<path fill="#231F20" d="M253.843,92.629c0.373,2.213,1.729,3.439,3.033,2.748c1.302-0.684,2.058-3.029,1.685-5.244
	c-0.371-2.205-1.727-3.431-3.03-2.741C254.231,88.079,253.472,90.423,253.843,92.629z"/>
<path fill="none" stroke="#231F20" stroke-width="2" stroke-linecap="round" stroke-linejoin="round" stroke-miterlimit="10" d="
	M228.324,74.27c0,0,12.145-7.835,23.354-1"/>
<path fill="none" stroke="#231F20" stroke-width="2" stroke-linecap="round" stroke-linejoin="round" stroke-miterlimit="10" d="
	M217.166,75.234c0,0,12.094-14.08,31.512-4.964"/>
<path fill="none" stroke="#231F20" stroke-width="1.5" stroke-linecap="round" stroke-linejoin="round" stroke-miterlimit="10" d="
	M234.53,85.82c0,0,2.977-4.703,6.854-5.106"/>
<path fill="none" stroke="#231F20" stroke-width="1.5" stroke-linecap="round" stroke-linejoin="round" stroke-miterlimit="10" d="
	M254.465,80.702c0,0,3.187-0.258,4.773,2.366"/>
</svg>
