<?xml version="1.0" encoding="utf-8"?>
<!-- Generator: Adobe Illustrator 16.0.0, SVG Export Plug-In . SVG Version: 6.00 Build 0)  -->
<!DOCTYPE svg PUBLIC "-//W3C//DTD SVG 1.1//EN" "http://www.w3.org/Graphics/SVG/1.1/DTD/svg11.dtd">
<svg version="1.1" id="Layer_1" xmlns="http://www.w3.org/2000/svg" xmlns:xlink="http://www.w3.org/1999/xlink" x="0px" y="0px"
	 width="595.279px" height="841.89px" viewBox="0 0 595.279 841.89" enable-background="new 0 0 595.279 841.89"
	 xml:space="preserve">
<g>
	<path fill="none" stroke="#231F20" stroke-width="3" stroke-miterlimit="10" d="M116.503,190.45
		c-35.486,0-64.358-28.87-64.358-64.356c0-35.488,28.872-64.359,64.358-64.359c35.485,0,64.357,28.871,64.357,64.359
		C180.861,161.58,151.989,190.45,116.503,190.45z"/>
</g>
<circle fill="#F7C434" cx="116.503" cy="126.094" r="48.002"/>
<g>
	<path fill="#F9BF76" d="M116.503,190.45c-35.486,0-64.358-28.87-64.358-64.356c0-35.488,28.872-64.359,64.358-64.359
		c35.485,0,64.357,28.871,64.357,64.359C180.861,161.58,151.989,190.45,116.503,190.45z M116.503,72.578
		c-29.509,0-53.517,24.006-53.517,53.516c0,29.508,24.008,53.514,53.517,53.514s53.516-24.006,53.516-53.514
		C170.019,96.584,146.012,72.578,116.503,72.578z"/>
</g>
<g>
	<circle fill="#D1313D" cx="115.317" cy="89.948" r="3.896"/>
	<circle fill="#D1313D" cx="92.766" cy="97.98" r="5.117"/>
	<circle fill="#D1313D" cx="105.154" cy="112.073" r="5.117"/>
	<circle fill="#D1313D" cx="145.057" cy="143.93" r="5.117"/>
	<circle fill="#D1313D" cx="78.366" cy="122.112" r="6.336"/>
	<circle fill="#D1313D" cx="132.247" cy="154.798" r="3.673"/>
	<circle fill="#D1313D" cx="149.259" cy="126.356" r="3.283"/>
	<circle fill="#D1313D" cx="99.516" cy="135.343" r="3.879"/>
	<circle fill="#D1313D" cx="127.122" cy="115.562" r="5.281"/>
	<circle fill="#D1313D" cx="135.92" cy="95.229" r="5.281"/>
	<circle fill="#D1313D" cx="148.641" cy="111.17" r="4.515"/>
	<circle fill="#D1313D" cx="86.437" cy="146.228" r="4.897"/>
	<circle fill="#D1313D" cx="110.724" cy="162.419" r="6.974"/>
	<circle fill="#D1313D" cx="122.112" cy="137.932" r="6.974"/>
</g>
<line fill="none" stroke="#FFFFFF" stroke-width="6" stroke-miterlimit="10" x1="116.439" y1="59" x2="116.439" y2="194"/>
<line fill="none" stroke="#FFFFFF" stroke-width="6" stroke-miterlimit="10" x1="48.439" y1="126" x2="183.439" y2="126"/>
<path fill="none" stroke="#9B8579" stroke-width="2" stroke-linecap="round" stroke-linejoin="round" stroke-miterlimit="10" d="
	M213.439,137.955c6,0.045,33-17.008,61-11.727c6.444,1.217,46.079,9.648,66,7.869c29.5-2.635,48.5-13.15,79-7.869
	c18.219,3.156,38.24,9.131,67.5,11.426c20,1.568,59-11.154,59-11.154"/>
<rect x="293.439" y="94" fill="#FFFFFF" width="7" height="58"/>
<rect x="377.439" y="87" fill="#FFFFFF" width="7" height="58"/>
<rect x="460.439" y="94" fill="#FFFFFF" width="7" height="58"/>
</svg>
