<?xml version="1.0" encoding="utf-8"?>
<!-- Generator: Adobe Illustrator 16.0.0, SVG Export Plug-In . SVG Version: 6.00 Build 0)  -->
<!DOCTYPE svg PUBLIC "-//W3C//DTD SVG 1.1//EN" "http://www.w3.org/Graphics/SVG/1.1/DTD/svg11.dtd">
<svg version="1.1" id="Layer_1" xmlns="http://www.w3.org/2000/svg" xmlns:xlink="http://www.w3.org/1999/xlink" x="0px" y="0px"
	 width="595.279px" height="841.89px" viewBox="0 0 595.279 841.89" enable-background="new 0 0 595.279 841.89"
	 xml:space="preserve">
<rect x="142.64" y="141.534" fill="#FFFFFF" width="293" height="51"/>
<line fill="none" stroke="#231F20" stroke-width="1.5" stroke-linecap="round" stroke-linejoin="round" stroke-miterlimit="10" x1="142.64" y1="141.534" x2="452.64" y2="141.534"/>
<path fill="none" stroke="#231F20" stroke-width="1.5" stroke-miterlimit="10" d="M288.377,183.276c0,0,122.485-1.166,127.265,0"/>
<path fill="none" stroke="#231F20" stroke-width="1.3" stroke-miterlimit="10" d="M242.574,152.168"/>
<path fill="none" stroke="#231F20" stroke-width="1.5" stroke-miterlimit="10" d="M170.123,184.276c0,0,108.044-1.166,112.26,0"/>
<path fill="#FFFFFF" stroke="#231F20" stroke-width="1.5" stroke-miterlimit="10" d="M227.64,75.534h-48v76.07
	c0,0.223,0.062,0.447,0.062,0.678c0,3.395,10.936,7.445,24.297,7.445s23.988-4.053,23.988-7.445
	C227.987,152.059,227.64,75.534,227.64,75.534z"/>
<path fill="#F7B24C" d="M225.64,150.782V84.534h-43v66.234c0,0.189,0.133,0.381,0.133,0.578c0,2.887,9.58,6.336,21.239,6.336
	c11.657,0,21.431-3.449,21.431-6.336C225.443,151.153,225.64,150.965,225.64,150.782z"/>
<ellipse fill="#F7B24C" stroke="#FFFFFF" stroke-miterlimit="10" cx="204.352" cy="85.291" rx="21.192" ry="6.415"/>
<ellipse fill="#FFFFFF" stroke="#231F20" stroke-width="1.5" stroke-miterlimit="10" cx="203.64" cy="74.943" rx="24" ry="6.146"/>
<path fill="#FFFFFF" stroke="#231F20" stroke-width="1.5" stroke-miterlimit="10" d="M293.64,75.534h-48v76.07
	c0,0.223,0.062,0.447,0.062,0.678c0,3.395,10.936,7.445,24.297,7.445s23.988-4.053,23.988-7.445
	C293.987,152.059,293.64,75.534,293.64,75.534z"/>
<ellipse fill="#FFFFFF" stroke="#231F20" stroke-width="1.5" stroke-miterlimit="10" cx="269.64" cy="74.943" rx="24" ry="6.146"/>
<path fill="#F7B24C" d="M291.64,150.782v-19.248h-43v19.234c0,0.189,0.133,0.381,0.133,0.576c0,2.889,9.58,6.338,21.239,6.338
	c11.657,0,21.431-3.449,21.431-6.338C291.443,151.153,291.64,150.965,291.64,150.782z"/>
<ellipse fill="#F7B24C" stroke="#FFFFFF" stroke-miterlimit="10" cx="270.352" cy="131.291" rx="21.192" ry="6.415"/>
<path fill="#FFFFFF" stroke="#231F20" stroke-width="1.5" stroke-miterlimit="10" d="M353.64,75.534h-48v76.07
	c0,0.223,0.062,0.447,0.062,0.678c0,3.395,10.936,7.445,24.297,7.445c13.36,0,23.987-4.053,23.987-7.445
	C353.986,152.059,353.64,75.534,353.64,75.534z"/>
<ellipse fill="#FFFFFF" stroke="#231F20" stroke-width="1.5" stroke-miterlimit="10" cx="329.64" cy="74.943" rx="24" ry="6.146"/>
<path fill="#F7B24C" d="M351.64,150.782v-19.248h-43v19.234c0,0.189,0.133,0.381,0.133,0.576c0,2.889,9.58,6.338,21.239,6.338
	c11.657,0,21.43-3.449,21.43-6.338C351.442,151.153,351.64,150.965,351.64,150.782z"/>
<ellipse fill="#F7B24C" stroke="#FFFFFF" stroke-miterlimit="10" cx="330.352" cy="131.291" rx="21.192" ry="6.415"/>
<path fill="#FFFFFF" stroke="#231F20" stroke-width="1.5" stroke-miterlimit="10" d="M417.64,75.534h-48v76.07
	c0,0.223,0.062,0.447,0.062,0.678c0,3.395,10.936,7.445,24.297,7.445c13.36,0,23.987-4.053,23.987-7.445
	C417.986,152.059,417.64,75.534,417.64,75.534z"/>
<ellipse fill="#FFFFFF" stroke="#231F20" stroke-width="1.5" stroke-miterlimit="10" cx="393.64" cy="74.943" rx="24" ry="6.146"/>
<path fill="#F7B24C" d="M415.64,150.782v-19.248h-43v19.234c0,0.189,0.133,0.381,0.133,0.576c0,2.889,9.58,6.338,21.239,6.338
	c11.657,0,21.43-3.449,21.43-6.338C415.442,151.153,415.64,150.965,415.64,150.782z"/>
<ellipse fill="#F7B24C" stroke="#FFFFFF" stroke-miterlimit="10" cx="394.352" cy="131.291" rx="21.192" ry="6.415"/>
</svg>
