<?xml version="1.0" encoding="utf-8"?>
<!-- Generator: Adobe Illustrator 16.0.0, SVG Export Plug-In . SVG Version: 6.00 Build 0)  -->
<!DOCTYPE svg PUBLIC "-//W3C//DTD SVG 1.1//EN" "http://www.w3.org/Graphics/SVG/1.1/DTD/svg11.dtd">
<svg version="1.1" id="Layer_1" xmlns="http://www.w3.org/2000/svg" xmlns:xlink="http://www.w3.org/1999/xlink" x="0px" y="0px"
	 width="595.279px" height="841.89px" viewBox="0 0 595.279 841.89" enable-background="new 0 0 595.279 841.89"
	 xml:space="preserve">
<path fill="none" stroke="#231F20" stroke-width="1.5" stroke-linecap="round" stroke-linejoin="round" stroke-miterlimit="10" d="
	M101.297,200.437H156.9h32.829h161.915h35.95c0,0,93.48,2.593,104.406-0.126"/>
<g>
	<path fill="#F7C434" stroke="#231F20" stroke-width="1.5" stroke-miterlimit="10" d="M199.495,157.918
		c-1.277-3.125-7.277-12.8-3.916-13.175c3.36-0.373,8.597,5.298,8.721,5.671c0.125,0.375,0.914-9.8,3.778-9.459
		c2.688,0.321,4.39,8.198,4.017,9.07c-0.374,0.872,2.678-4.322,4.459-2.441c1.01,1.066-0.218,3.929-1.558,5.679
		c-1.491,1.945-4.162,4.567-5.479,6.659c-0.391,0.619-1.056,2.728-1.056,2.728s10.123,8.676,13.073,14.32
		c2.038,3.899,9.819,23.614-5.003,28.152c-4.975,1.524-13.364,2.451-22.128,1.606c-5.815-0.561-13.161-2.521-16.948-6.101
		c-2.268-2.143-5.604-10.085-0.87-19.549c4.729-9.463,13.302-13.858,14.194-14.32c4.728-2.438,7.653-4.275,7.653-4.275
		S199.938,159.002,199.495,157.918z"/>
	<path fill="#231F20" d="M198.694,156.947c-0.654,0.09-1.658,4.81-0.81,5.846c0.851,1.036,4.18,1.528,5.758,1.536
		c1.579,0.006,5.396,0.564,6.126-1.151c0.728-1.715,0.188-2.822-1.6-2.627C204.836,160.915,201.058,156.624,198.694,156.947z"/>
	<g>
		<path fill="#FFFFFF" d="M194.705,200.295l0.463-3.382c-1.938-0.299-3.863-1.176-4.92-2.174l0.883-3.345
			c1.095,0.969,2.975,3.055,4.851,3.312c2.375,0.326,4.171-0.827,4.434-2.735c0.253-1.841-0.897-3.157-3.237-4.501
			c-3.231-1.806-5.129-3.634-4.729-6.547c0.381-2.777,2.644-4.616,5.794-4.696l0.461-3.382l2.075,0.285l-0.444,3.246
			c2,0.344,3.3,1.066,4.19,1.769l-1.139,2.094c-0.649-0.498-1.92-1.423-4.063-1.715c-2.576-0.353-3.758,1.053-3.942,2.393
			c-0.238,1.74,0.882,2.779,3.629,4.384c3.255,1.878,4.758,3.857,4.351,6.836c-0.363,2.646-2.544,4.87-6.068,4.967l-0.478,3.481
			L194.705,200.295z"/>
	</g>
</g>
<g>
	<path fill="#F7C434" stroke="#231F20" stroke-width="1.5" stroke-miterlimit="10" d="M228.106,176.992
		c-1.276-3.125-7.277-12.8-3.916-13.174c3.361-0.373,5.418,2.119,5.541,2.492c0.126,0.375,4.095-6.621,6.958-6.28
		c2.688,0.321,2.271,6.079,1.896,6.951c-0.374,0.871,4.798-2.204,6.579-0.322c1.01,1.066-0.219,3.93-1.56,5.679
		c-1.49,1.946-4.161,4.568-5.479,6.659c-0.393,0.619-1.057,2.728-1.057,2.728s11.206,10.335,13.073,14.32
		c1.867,3.984,5.479,10.21,4.109,15.44s-2.842,9.401-7.697,11.268c-4.856,1.869-14.779,3.895-23.543,3.051
		c-5.815-0.561-13.162-2.522-16.948-6.102c-2.268-2.143-5.603-10.085-0.87-19.549c4.73-9.463,13.303-13.858,14.194-14.32
		c4.728-2.438,9.773-4.275,9.773-4.275S228.55,178.076,228.106,176.992z"/>
	<path fill="#231F20" d="M227.306,179.2c-0.655,0.09-1.659,1.631-0.81,2.667c0.851,1.036,4.18,1.529,5.758,1.536
		c1.579,0.006,5.396,0.564,6.125-1.15c0.728-1.715,0.188-2.822-1.6-2.627C233.447,179.989,229.669,178.877,227.306,179.2z"/>
	<g>
		<path fill="#FFFFFF" d="M223.316,219.369l0.462-3.382c-1.938-0.299-3.862-1.177-4.919-2.174l0.883-3.344
			c1.096,0.968,2.976,3.055,4.851,3.313c2.376,0.326,4.172-0.827,4.434-2.735c0.253-1.841-0.896-3.157-3.236-4.501
			c-3.231-1.806-5.129-3.634-4.73-6.547c0.381-2.777,2.646-4.616,5.795-4.696l0.461-3.382l2.076,0.285l-0.445,3.247
			c2,0.343,3.3,1.066,4.191,1.769l-1.14,2.094c-0.648-0.498-1.919-1.423-4.063-1.716c-2.578-0.353-3.759,1.054-3.942,2.393
			c-0.238,1.741,0.881,2.78,3.629,4.385c3.254,1.878,4.757,3.857,4.351,6.836c-0.364,2.645-2.544,4.87-6.069,4.967l-0.478,3.481
			L223.316,219.369z"/>
	</g>
</g>
<g>
	<path fill="#F7C434" stroke="#231F20" stroke-width="1.5" stroke-miterlimit="10" d="M151.437,179.704
		c1.982-2.732,10.109-10.706,6.934-11.868c-3.178-1.16-5.768,0.772-5.977,1.105c-0.21,0.334-2.402-7.403-5.268-7.753
		c-2.688-0.327-5.769,6.426-5.611,7.362c0.156,0.935-2.018-4.339-4.194-2.935c-1.233,0.796-0.722,3.868,0.163,5.887
		c0.988,2.244,2.959,5.425,3.742,7.77c0.233,0.694,0.378,2.901,0.378,2.901s-8.979,6.826-12.92,10.806
		c-3.015,3.045-8.807,8.617-8.718,14.022c0.089,5.405,0.528,11.927,4.802,14.893c4.274,2.969,11.313,5.174,20.025,6.434
		c5.782,0.836,13.385,0.675,17.913-1.902c2.711-1.543,7.837-8.467,5.485-18.783c-2.348-10.316-9.631-16.621-10.389-17.281
		c-4.013-3.491-8.479-6.473-8.479-6.473S150.749,180.652,151.437,179.704z"/>
	<path fill="#231F20" d="M151.69,182.04c0.615,0.243,1.225,1.978,0.152,2.783c-1.071,0.804-4.422,0.493-5.957,0.125
		c-1.535-0.369-5.375-0.733-5.677-2.572c-0.3-1.838,0.487-2.786,2.177-2.173C145.537,181.347,149.472,181.165,151.69,182.04z"/>
	<path fill="#FFFFFF" d="M146.407,222.16l-0.143-3.411c-1.96,0.048-4.01-0.475-5.226-1.27l0.276-3.447
		c1.248,0.759,3.468,2.479,5.357,2.401c2.396-0.099,3.961-1.551,3.88-3.475c-0.076-1.857-1.44-2.949-3.98-3.859
		c-3.5-1.206-5.691-2.67-5.813-5.607c-0.116-2.801,1.785-5.012,4.873-5.646l-0.146-3.41l2.096-0.087l0.136,3.273
		c2.028-0.016,3.436,0.466,4.438,1l-0.752,2.263c-0.727-0.375-2.142-1.062-4.301-0.971c-2.601,0.109-3.514,1.702-3.459,3.053
		c0.073,1.755,1.358,2.58,4.349,3.674c3.534,1.273,5.362,2.955,5.488,5.958c0.109,2.668-1.642,5.244-5.095,5.963l0.146,3.511
		L146.407,222.16z"/>
</g>
<g>
	<path fill="#F7C434" stroke="#231F20" stroke-width="1.5" stroke-miterlimit="10" d="M183.679,188.648
		c1.277-3.125,7.278-12.8,3.916-13.174c-3.361-0.373-5.417,2.119-5.542,2.492c-0.125,0.375-4.093-6.621-6.957-6.28
		c-2.688,0.321-2.271,6.079-1.896,6.951c0.374,0.871-4.799-2.203-6.578-0.322c-1.012,1.066,0.217,3.929,1.557,5.679
		c1.491,1.945,4.162,4.567,5.479,6.659c0.392,0.619,1.056,2.728,1.056,2.728s-11.206,10.335-13.073,14.32
		c-1.867,3.984-5.479,10.21-4.108,15.44c1.369,5.23,2.842,9.401,7.696,11.268c4.856,1.869,14.779,3.896,23.543,3.051
		c5.815-0.561,13.162-2.522,16.948-6.101c2.268-2.144,5.604-10.085,0.87-19.549c-4.73-9.463-13.302-13.858-14.194-14.32
		c-4.728-2.438-9.772-4.275-9.772-4.275S183.236,189.732,183.679,188.648z"/>
	<path fill="#231F20" d="M184.479,190.856c0.655,0.09,1.659,1.631,0.811,2.667c-0.852,1.036-4.181,1.528-5.759,1.536
		c-1.578,0.006-5.396,0.564-6.125-1.151c-0.728-1.715-0.188-2.822,1.6-2.627C178.338,191.645,182.116,190.534,184.479,190.856z"/>
	<path fill="#FFFFFF" d="M188.874,231.083l-0.948-3.279c-1.892,0.512-4.008,0.491-5.378,0.007l-0.55-3.415
		c1.394,0.441,3.958,1.586,5.775,1.06c2.305-0.665,3.479-2.447,2.943-4.297c-0.516-1.785-2.1-2.522-4.784-2.803
		c-3.686-0.34-6.162-1.242-6.978-4.067c-0.778-2.693,0.544-5.292,3.392-6.642l-0.949-3.278l2.015-0.582l0.907,3.148
		c1.969-0.497,3.448-0.364,4.551-0.083l-0.193,2.376c-0.795-0.192-2.332-0.522-4.408,0.078c-2.5,0.723-3.009,2.487-2.636,3.786
		c0.488,1.688,1.934,2.184,5.096,2.537c3.737,0.397,5.912,1.597,6.748,4.485c0.74,2.566-0.35,5.483-3.534,7.002l0.978,3.375
		L188.874,231.083z"/>
</g>
<path fill="#F7C434" stroke="#231F20" stroke-width="1.5" stroke-linecap="round" stroke-linejoin="round" stroke-miterlimit="10" d="
	M362.106,210.2c0,0-1.546,1.464-1.441,3.881c0.104,2.418,2.187,4.575,3.245,4.586c1.851,0.019,5.964-1.404,5.55-4.305
	c-0.413-2.901-3.156-5.724-3.469-8.464c-0.312-2.74-1.48-11.292,1.316-11.292s32.293-1.058,32.293-1.058s3.729,2.096,3.109,7.092
	c-0.623,4.996-2.488,7.898-2.902,9.671c-0.414,1.772-0.3,6.086,1.563,6.409c1.865,0.322,4.336-0.484,5.273-2.358
	c0.692-1.388,0.758-2.831-0.486-4.926c-1.241-2.096-1.143-1.286-0.209-4.509c0.935-3.224,4.965-5.335,5.898-8.88
	c0.931-3.546-4.787-5.836-5.615-6.803c-0.83-0.968-1.036-1.684-1.036-1.684h-44.141c0,0-2.282,4.31-2.904,6.406
	c-0.62,2.095,0.8,7.039,1.453,8.522C360.041,203.481,362.106,210.2,362.106,210.2z"/>
<path fill="#F7C434" stroke="#231F20" stroke-width="1.5" stroke-linecap="round" stroke-linejoin="round" stroke-miterlimit="10" d="
	M350.651,154.278c0,0-7.251-107.346-7.377-112.813c-0.121-5.193,5.879-9.41,13.497-11.075c8.704-1.904,56.998-2.761,65.606,4.207
	c8.606,6.968,7.378,12.296,7.378,16.395c0,4.098-10.657,110.254-13.116,113.533c-2.459,3.279,9.271,7.845,10.246,10.247
	c1.969,4.845-0.142,9.351-4.648,11.811c-4.51,2.459-48.91,0.022-59.348,1.205c-11.832,1.341-13.174,0.513-17.039-1.301
	c-3.469-1.628-4.869-7.322-3.154-11.831C344.41,170.147,350.651,154.278,350.651,154.278z"/>
<path fill="#D1313D" stroke="#231F20" stroke-miterlimit="10" d="M416.64,164.525c-2.459,3.279,9.271,7.845,10.246,10.247
	c1.969,4.845-0.142,9.351-4.648,11.811c-4.51,2.459-48.91,0.022-59.348,1.205c-11.832,1.341-13.174,0.513-17.039-1.301
	c-3.469-1.628-4.869-7.322-3.154-11.831c1.715-4.509,7.955-8.72,7.955-8.72"/>
<path fill="#F7C434" stroke="#231F20" stroke-width="1.5" stroke-linecap="round" stroke-linejoin="round" stroke-miterlimit="10" d="
	M348.054,210.583c0,0-2.914,0.939-2.737,3.589c0.177,2.649,2.915,7.114,5.52,7.093c1.573-0.013,6.202-0.692,5.496-3.871
	c-0.704-3.179-3.521-6.881-4.05-9.883c-0.529-3.003-2.291-12.712,2.479-12.712c4.769,0,57.932-1.058,57.932-1.058
	s6.359,2.296,5.3,7.771c-1.061,5.475-4.239,8.655-4.944,10.597c-0.706,1.942-1.353,6.705,1.767,7.418
	c5.477,1.253,9.15-5.194,6.358-7.771c-2.297-2.119-3.002-1.942-1.412-5.475c1.589-3.533,3.885-3.709,5.474-7.595
	c1.59-3.885,0.179-8.414-1.234-9.473c-1.414-1.06-1.768-1.653-1.768-1.653h-75.236c0,0-3.002,5.121-4.062,7.417
	c-1.062,2.296,0.718,7.411,1.589,8.654C345.771,205.417,348.054,210.583,348.054,210.583z"/>
<path fill="#D1313D" stroke="#231F20" stroke-miterlimit="10" d="M357.365,167.877c0,0-5.084-79.118-5.409-87.216
	c-0.311-7.742-2.126-30.662-1.773-33.74c0.247-2.17-0.798-9.039,15.621-9.569c19.071-0.615,29.077-0.612,38.941,1.325
	c9.449,1.854,15.188,2.295,15.631,10.332c0.352,6.398-3.709,63.315-4.238,64.905c-0.53,1.589-4.4,41.592-4.188,45.831
	c0.212,4.239,1.502,10.933-2.789,11.728c-4.29,0.794-45.479-0.217-47.718-0.019C357.858,171.77,357.365,167.877,357.365,167.877z"/>
<path fill="#F9BF76" d="M358.821,93.249c1.908-3.104,4.902-4.899,6.674-5.748l-1.468-10.391c0,0,15.688-11.14,20.145-8.759
	c4.454,2.38,8.024,13.886,8.024,13.886s2.771-5.704,6.744-4.761c5.373,1.274,5.748,9.543,4.175,10.814
	c-2.881,2.326-6.952,1.486-8.538,0.692c-1.587-0.794,6.849,27.361,6.849,27.361s-6.521,4.065-13.162,5.394
	c-12.074,2.416-21.734-1.328-21.734-1.328l1.863-12.383l-0.166-1.171c-0.505,0.775-1.045,1.644-1.633,2.643
	c-1.974,3.353-9.246,4.209-10.725-0.736C354.392,103.815,356.712,96.681,358.821,93.249z"/>
<path fill="none" stroke="#231F20" stroke-width="1.5" stroke-linecap="round" stroke-linejoin="round" stroke-miterlimit="10" d="
	M384.171,68.351c4.454,2.38,8.024,13.886,8.024,13.886s2.771-5.704,6.744-4.761c5.373,1.274,5.748,9.543,4.175,10.814
	c-2.881,2.326-6.952,1.486-8.538,0.692c-1.587-0.794,6.849,26.301,6.849,26.301s-6.521,5.125-13.162,6.453
	c-12.074,2.416-21.734-1.328-21.734-1.328l1.863-12.383l-0.166-1.171c-0.505,0.775-1.045,1.644-1.633,2.643
	c-1.974,3.353-9.246,4.209-10.725-0.736c-1.478-4.946,0.844-12.081,2.952-15.512c1.908-3.104,4.902-4.899,6.674-5.748"/>
<ellipse fill="#231F20" cx="375.934" cy="81.594" rx="1.746" ry="3.444"/>
<ellipse fill="#231F20" cx="365.337" cy="82.653" rx="1.745" ry="3.444"/>
<path fill="none" stroke="#ED1C24" stroke-miterlimit="10" d="M361.815,167.857"/>
<path fill="none" stroke="#231F20" stroke-width="1.5" stroke-linecap="round" stroke-linejoin="round" stroke-miterlimit="10" d="
	M388.597,100.924c0,0-7.257,8.826-17.359,5.524"/>
<line fill="none" x1="383.158" y1="171" x2="385.158" y2="171"/>
<polygon fill="#414042" stroke="#231F20" stroke-width="1.5" stroke-miterlimit="10" points="358.877,162.074 361.123,170.396 
	360.995,176.02 389.228,174.134 409.988,176.02 408.456,166.384 409.196,160.964 "/>
<path fill="#F7C434" stroke="#231F20" stroke-linecap="round" stroke-linejoin="round" stroke-miterlimit="10" d="M393.733,55.911
	l-3.307,10.405c-5.211-2.345-9.305-3.668-15.345-3.353c-3.493,0.183-10.538,4.115-12.465,5.397
	c-1.384,0.92-3.853-11.038-3.853-11.038l11.154,2.262l6.391-9.415l5.347,9.241L393.733,55.911z"/>
<path fill="none" stroke="#231F20" stroke-width="2" stroke-linecap="round" stroke-linejoin="round" stroke-miterlimit="10" d="
	M274.55,172.044"/>
<polyline fill="none" stroke="#231F20" stroke-width="2" stroke-linecap="round" stroke-linejoin="round" stroke-miterlimit="10" points="
	283.708,76.585 275.587,103.025 265.57,99.492 281.917,67.348 "/>
<polyline fill="none" stroke="#231F20" stroke-width="2" stroke-linecap="round" stroke-linejoin="round" stroke-miterlimit="10" points="
	284.989,103.025 290.065,102.137 290.065,74.764 "/>
<path fill="#FFFFFF" d="M276.089,150.348c1.662,1.374-0.196,2.986-3.217,2.806c-3.021-0.178-7.72-3.452-7.72-3.452
	c0.127-2.152,0.535-3.14,3.557-2.961C271.729,146.918,275.608,149.948,276.089,150.348z"/>
<ellipse transform="matrix(0.7778 -0.6285 0.6285 0.7778 -40.6024 202.4748)" fill="#FFFFFF" cx="266.046" cy="158.659" rx="3.903" ry="5.477"/>
<path fill="#231F20" d="M286.427,139.652c0,0,2.135,34.836,2.098,46.625c-0.02,6.755-0.905,32.717-0.905,32.717h-7.021
	c0,0,0.794-43.082,0-46.841c-0.751-3.55-1.531-18.219-2.818-20.819c-1.785-3.599,0.06-2.007,0.302,0.503
	c0.102,1.056,0.932,14.173,0.599,19.207s-2.119,25.3-3.178,32.982c-0.112,0.811-1.13,16.292-1.13,16.292s-6.193,1.045-7.152,0.662
	c-0.958-0.383,2.119-25.167,2.649-31.393c0.529-6.226-2.518-46.891-2.518-46.891l0.266-4.771L286.427,139.652z"/>
<path fill="#231F20" d="M378.171,207.431c-4.221-3.442-3.695-5.735-3.695-5.735l-2.487-0.022c-0.011-0.022-0.032-0.063-0.032-0.063
	l-3.293,0.033l-3.706-0.033c0,0-0.021,0.042-0.035,0.07l-1.425,0.015c0,0-0.534,2.293-4.756,5.735
	c-9.092,7.418-3.885,10.208-1.557,11.043c3.144,1.128,17.714,2.554,22.543,0C381.914,217.317,387.264,214.849,378.171,207.431z"/>
<path fill="#231F20" d="M411.021,207.431c-4.22-3.442-3.696-5.735-3.696-5.735l-2.486-0.022c-0.012-0.022-0.032-0.063-0.032-0.063
	l-3.293,0.033l-3.706-0.033c0,0-0.022,0.042-0.036,0.07l-1.424,0.015c0,0-0.535,2.293-4.756,5.735
	c-9.093,7.418-3.886,10.208-1.557,11.043c3.144,1.128,17.713,2.554,22.542,0C414.765,217.317,420.113,214.849,411.021,207.431z"/>
<path fill="#404041" stroke="#231F20" stroke-width="2" stroke-linecap="round" stroke-linejoin="round" stroke-miterlimit="10" d="
	M281.148,215.573c0,0-6.209,10.154-3.775,13.617c1.929,2.749,5.955,3.287,11.911,3.287c5.958,0,7.213-0.011,10.852,0.022
	c3.093,0.027,9.563-4.818-1.945-11.195c-5.514-3.055-10.543-5.731-10.543-5.731H281.148z"/>
<path fill="#DD9F5B" stroke="#231F20" stroke-width="1.5" stroke-linecap="round" stroke-linejoin="round" stroke-miterlimit="10" d="
	M272.993,102.11c-6.141,13.125-9.722,41.749-9.722,41.749s10.412,4.969,11.078,6.431c0.926,2.028-0.453,3.616-1.385,3.369
	c-0.931-0.246-3.716-1.939-5.076-2.701c-1.36-0.764-1.988,0-1.547,2.097c0.443,2.101,2.751,5.505,2.496,7.832
	c-0.275,2.533-2.231,3.266-3.885,2.285c-1.888-1.12-2.469-10.797-2.469-10.797s0.274,10.249-0.82,11.216
	c-1.872,1.645-4.575,0.331-4.782-1.84c-0.194-2.082,1.877-9.243,1.877-9.243s-3.338,8.875-5.618,9.181
	c-1.97,0.265-3.379-3.165-0.604-8.419c1.727-3.27,5.246-8.835,6.344-9.916c1.129-1.109,4.981-31.132,9.289-42.939L272.993,102.11z"
	/>
<path fill="#DD9F5B" stroke="#231F20" stroke-width="1.5" stroke-linecap="round" stroke-linejoin="round" stroke-miterlimit="10" d="
	M282.961,91.813c7.46,12.422,29.205,31.375,29.205,31.375s9.938-5.863,11.521-5.6c2.199,0.365,2.747,2.396,2.022,3.031
	c-0.726,0.635-3.686,2-5.076,2.703c-1.394,0.702-1.11,1.649,0.877,2.454c1.987,0.805,6.102,0.792,7.889,2.303
	c1.948,1.643,1.464,3.674-0.271,4.498c-1.983,0.941-10.336-3.982-10.336-3.982s8.654,5.496,8.846,6.945
	c0.319,2.471-2.28,3.98-4.196,2.939c-1.836-1.001-6.62-6.718-6.62-6.718s5.498,7.725,4.479,9.788
	c-0.879,1.782-4.513,1.037-7.32-4.202c-1.75-3.257-4.401-9.284-4.685-10.798c-0.289-1.555-23.045-21.516-30.436-31.683
	L282.961,91.813z"/>
<polyline fill="#615375" stroke="#231F20" stroke-width="1.5" stroke-linecap="round" stroke-linejoin="round" stroke-miterlimit="10" points="
	295.364,102.137 291.081,103.025 287.063,146.293 266.931,137.286 273.79,103.025 273.467,103.025 265.57,99.492 281.388,68.387 
	284.989,71.322 290.065,74.132 296.424,102.137 "/>
<line fill="none" stroke="#231F20" stroke-width="1.5" stroke-linecap="round" stroke-linejoin="round" stroke-miterlimit="10" x1="288.106" y1="85.26" x2="290.443" y2="102.952"/>
<line fill="none" stroke="#231F20" stroke-width="1.5" stroke-linecap="round" stroke-linejoin="round" stroke-miterlimit="10" x1="282.012" y1="79.981" x2="273.534" y2="103.646"/>
<path fill="#DD9F5B" d="M304.092,63.993c-1.055,2.228-2.446,4.555-6.099,7.298c-5.859,4.399-22.824,0.984-26.556-11.805
	c-2.418-8.291-0.753-20.726,6.086-28.798c9.692-11.443,24.175-2.435,27.401,4.684C305.49,36.614,312.405,46.389,304.092,63.993z"/>
<path fill="none" stroke="#231F20" stroke-width="1.5" stroke-linecap="round" stroke-linejoin="round" stroke-miterlimit="10" d="
	M304.926,34.259c-1.39-7.883-17.709-16.125-27.401-4.683c-6.839,8.074-8.504,20.507-6.086,28.799
	c3.73,12.786,20.695,16.202,26.556,11.805c3.651-2.744,6.099-7.298,6.099-7.298"/>
<path fill="#231F20" d="M305.128,43.59c0.033,1.752,0.709,3.151,1.506,3.131c0.797-0.021,1.416-1.455,1.383-3.207
	c-0.035-1.754-0.711-3.153-1.508-3.13C305.712,40.406,305.094,41.839,305.128,43.59z"/>
<path fill="#231F20" d="M296.65,43.59c0.034,1.752,0.709,3.151,1.506,3.131c0.797-0.021,1.417-1.455,1.383-3.207
	c-0.033-1.754-0.71-3.153-1.507-3.13C297.235,40.406,296.616,41.839,296.65,43.59z"/>
<path fill="none" stroke="#231F20" stroke-width="1.5" stroke-linecap="round" stroke-linejoin="round" stroke-miterlimit="10" d="
	M281.323,59.064c3.687,5.018,11.439,6.288,15.962,3.94"/>
<path fill="#DD9F5B" d="M311.248,56.213c0.479,2.72-1.981,5.604-5.497,6.441c-3.517,0.837-6.753-0.69-7.232-3.412
	c-0.48-2.719,1.979-5.604,5.496-6.439C307.53,51.965,310.769,53.493,311.248,56.213z"/>
<path fill="none" stroke="#231F20" stroke-width="1.5" stroke-linecap="round" stroke-linejoin="round" stroke-miterlimit="10" d="
	M302.634,50.635c0,0,9.04,0.87,8.978,5.741c-0.094,7.137-9.676,6.596-11.211,5.774"/>
<path fill="#3C2415" stroke="#231F20" stroke-width="1.5" stroke-linecap="round" stroke-linejoin="round" stroke-miterlimit="10" d="
	M283.177,21.568c0.615-0.21,1.073-0.181,1.423,0.008c0.545-1.667,1.887-3.038,4.28-3.524c14.011-2.852,22.915,16.979,23.237,19.119
	c0.322,2.137-11.885-4.92-15.825-4.215c-3.942,0.708-5.926-1.711-7.723-2.589c-1.115-0.546-2.048-1.41-2.764-2.425
	c-0.333,1.405-2.364,3.003-5.071,3.843c-3.193,0.996-10.381,10.209-10.763,8.671C269.589,38.916,271.86,25.438,283.177,21.568z"/>
<path fill="#DD9F5B" stroke="#231F20" stroke-width="1.5" stroke-miterlimit="10" d="M273.396,43.138
	c0.541,3.072-1.116,6.063-3.702,6.679c-2.586,0.616-5.122-1.377-5.664-4.449c-0.542-3.074,1.116-6.067,3.703-6.682
	C270.317,38.071,272.854,40.065,273.396,43.138z"/>
<path fill="#D1D3D4" stroke="#231F20" stroke-width="1.3" stroke-miterlimit="10" d="M358.507,73.803
	c0.959,0.604,2.164,0.482,3.027-0.198c0.064,0.047,0.134,0.09,0.202,0.131c-0.475,1.189-0.081,2.563,1.008,3.246
	c1.209,0.76,2.812,0.378,3.625-0.84c1.134,0.436,2.461,0.014,3.181-1.06c1.155,0.444,2.521,0.001,3.227-1.122
	c0.176-0.282,0.287-0.582,0.354-0.887c0.976,0.2,2.015-0.181,2.663-1.024c0.188,0.27,0.431,0.509,0.727,0.694
	c1.229,0.773,2.874,0.369,3.673-0.902c0.237-0.377,0.361-0.789,0.403-1.2c0.284-0.103,0.548-0.22,0.797-0.352
	c0.128,0.124,0.27,0.237,0.426,0.335c0.754,0.474,1.663,0.501,2.438,0.161c0.039,0.755,0.469,1.397,1.081,1.678
	c-0.019,0.109-0.031,0.22-0.031,0.335c0,1.07,0.801,1.937,1.788,1.937c0.121,0,0.237-0.014,0.352-0.038
	c-0.008,0.073-0.021,0.145-0.021,0.22c0,0.966,0.654,1.76,1.509,1.907c-0.276,0.34-0.449,0.782-0.449,1.272
	c0,1.07,0.801,1.937,1.789,1.937c0.986,0,1.787-0.867,1.787-1.937c0-0.076-0.013-0.147-0.021-0.221
	c0.114,0.025,0.232,0.039,0.354,0.039c0.986,0,1.787-0.867,1.787-1.938c0-0.915-0.587-1.677-1.375-1.88
	c0.181-0.37,0.288-0.806,0.288-1.276c0-0.963-0.438-1.787-1.067-2.17c0.229-0.435,0.365-0.945,0.365-1.495
	c0-1.57-1.069-2.842-2.389-2.842c-0.312,0-0.605,0.075-0.88,0.204c-0.216-0.134-0.454-0.235-0.711-0.297
	c0.055-0.182,0.093-0.369,0.093-0.564c0-1.305-1.271-2.361-2.837-2.361c-0.42,0-0.813,0.08-1.173,0.215
	c0.011-0.072,0.024-0.142,0.024-0.216c0-1-0.893-1.811-1.992-1.811c-0.414,0-0.798,0.114-1.115,0.31
	c-0.458-0.828-1.349-1.397-2.387-1.397c-1.147,0-2.126,0.691-2.522,1.666c-0.47-0.374-1.063-0.606-1.716-0.606
	c-1.148,0-2.126,0.691-2.522,1.666c-0.469-0.374-1.063-0.606-1.716-0.606c-0.597,0-1.144,0.191-1.59,0.505
	c-0.448-0.314-0.993-0.505-1.59-0.505c-1.337,0-2.443,0.937-2.67,2.169c-0.166-0.031-0.334-0.05-0.51-0.05
	c-1.336,0-2.443,0.938-2.67,2.169c-0.165-0.03-0.334-0.049-0.509-0.049c-1.5,0-2.719,1.177-2.719,2.629
	c0,0.026,0.009,0.049,0.01,0.075c-0.219,0.182-0.418,0.392-0.577,0.646C356.928,71.375,357.276,73.031,358.507,73.803z"/>
<path fill="#F9BF76" stroke="#231F20" stroke-width="1.5" stroke-miterlimit="10" d="M368.235,117.755
	c-5.738,9.429-23.258,23.338-23.258,23.338s-8.677-5.07-10.004-4.937c-1.844,0.186-2.213,1.758-1.571,2.292
	c0.644,0.533,3.209,1.743,4.419,2.36c1.21,0.617,1.017,1.349-0.628,1.89c-1.646,0.542-5.126,0.342-6.567,1.448
	c-1.571,1.203-1.067,2.824,0.438,3.552c1.721,0.831,8.56-2.657,8.56-2.657s-7.067,3.925-7.161,5.056
	c-0.156,1.929,2.111,3.236,3.685,2.506c1.507-0.703,5.291-4.981,5.291-4.981s-4.295,5.825-3.339,7.495
	c0.827,1.442,3.865,1.023,5.999-2.969c1.33-2.482,3.295-7.102,3.465-8.28c0.174-1.21,18.647-13.365,24.43-21.022L368.235,117.755z"
	/>
<path fill="#F9BF76" stroke="#231F20" stroke-width="1.5" stroke-miterlimit="10" d="M409.252,126.392
	c-1.328,10.958,3.824,32.726,3.824,32.726s9.952,1.386,10.912,2.313c1.333,1.286,0.651,2.75-0.184,2.771
	c-0.834,0.021-3.601-0.617-4.933-0.88c-1.33-0.265-1.631,0.432-0.676,1.874c0.958,1.443,3.814,3.44,4.264,5.202
	c0.49,1.917-0.908,2.879-2.542,2.519c-1.866-0.412-5.08-7.384-5.08-7.384s3.123,7.458,2.498,8.404
	c-1.072,1.612-3.663,1.235-4.445-0.312c-0.75-1.484-1.073-7.186-1.073-7.186s-0.23,7.232-2.017,7.952
	c-1.543,0.622-3.669-1.588-2.875-6.044c0.491-2.772,1.808-7.617,2.402-8.647c0.612-1.059-6.378-22.038-6.181-31.632L409.252,126.392
	z"/>
<path fill="#8EB2C5" stroke="#231F20" stroke-width="1.5" stroke-linecap="round" stroke-linejoin="round" stroke-miterlimit="10" d="
	M366.068,115.768c0,0-14.101,40.054-10.922,43.233c0.233,0.233,2.212,2.274,2.63,2.516c5.277,3.063,22.316,5.625,33.41,5.38
	c11.97-0.265,18.4-6.265,18.4-6.265l-8.31-44.462c0,0-12.358,6.894-16.389,6.379C379.853,121.903,366.068,115.768,366.068,115.768z"
	/>
<polygon fill="#8EB2C5" stroke="#231F20" stroke-width="1.5" stroke-linecap="round" stroke-linejoin="round" stroke-miterlimit="10" points="
	365.007,117.643 354.224,127.92 359.695,142.15 364.865,129.896 "/>
<polygon fill="#8EB2C5" stroke="#231F20" stroke-width="1.5" stroke-linecap="round" stroke-linejoin="round" stroke-miterlimit="10" points="
	400.849,118.703 411.632,128.98 406.158,143.21 400.989,130.956 "/>
<path fill="#D1313D" stroke="#231F20" stroke-miterlimit="10" d="M408.456,162.747c0,7.365,1.651,13.334,8.919,13.334
	c7.267,0,14.746-7.118,14.746-14.482c0-7.364-4.565-10.773-11.833-10.773C413.022,150.826,408.456,155.383,408.456,162.747z"/>
<ellipse transform="matrix(-0.3484 0.9373 -0.9373 -0.3484 722.6419 -171.2792)" fill="#F7C434" stroke="#231F20" stroke-linecap="round" stroke-linejoin="round" stroke-miterlimit="10" cx="420.85" cy="165.52" rx="3.404" ry="3.095"/>
<path fill="#D1313D" stroke="#231F20" stroke-miterlimit="10" d="M360.063,164.867c0,7.364-1.651,13.334-8.918,13.334
	s-14.747-7.118-14.747-14.483c0-7.364,4.566-10.773,11.833-10.773S360.063,157.502,360.063,164.867z"/>
<ellipse transform="matrix(-0.3483 -0.9374 0.9374 -0.3483 311.6419 551.9626)" fill="#F7C434" stroke="#231F20" stroke-linecap="round" stroke-linejoin="round" stroke-miterlimit="10" cx="347.698" cy="167.646" rx="3.404" ry="3.095"/>
<g>
	<path fill="#F7C434" stroke="#231F20" stroke-width="1.5" stroke-miterlimit="10" d="M317.117,121.889
		c-1.275-3.125-7.276-12.8-3.916-13.175c3.361-0.373,5.418,2.12,5.542,2.492c0.125,0.375,4.094-6.621,6.957-6.281
		c2.688,0.321,2.271,6.079,1.897,6.951s4.797-2.203,6.578-0.322c1.01,1.066-0.218,3.929-1.559,5.679
		c-1.49,1.945-4.162,4.568-5.479,6.659c-0.392,0.619-1.057,2.728-1.057,2.728s11.206,10.335,13.073,14.32
		c1.868,3.984,5.479,10.209,4.109,15.439c-1.369,5.23-2.842,9.401-7.697,11.269c-4.855,1.869-14.779,3.895-23.542,3.051
		c-5.814-0.562-13.162-2.522-16.947-6.102c-2.269-2.143-5.604-10.085-0.871-19.549c4.729-9.464,13.302-13.859,14.194-14.32
		c4.728-2.438,9.772-4.275,9.772-4.275S317.562,122.974,317.117,121.889z"/>
	<path fill="#231F20" d="M316.317,124.097c-0.655,0.09-1.658,1.631-0.809,2.667c0.85,1.036,4.18,1.528,5.758,1.536
		c1.578,0.006,5.395,0.564,6.125-1.151c0.727-1.714,0.188-2.822-1.601-2.627C322.459,124.886,318.681,123.774,316.317,124.097z"/>
	<g>
		<path fill="#FFFFFF" d="M312.327,164.267l0.464-3.382c-1.938-0.299-3.863-1.177-4.921-2.174l0.884-3.345
			c1.095,0.969,2.976,3.055,4.851,3.312c2.376,0.326,4.171-0.827,4.433-2.735c0.254-1.841-0.896-3.157-3.235-4.501
			c-3.232-1.806-5.13-3.635-4.73-6.547c0.381-2.778,2.645-4.617,5.794-4.696l0.461-3.382l2.076,0.285l-0.445,3.246
			c2,0.344,3.301,1.066,4.191,1.769l-1.139,2.095c-0.649-0.498-1.92-1.423-4.063-1.716c-2.577-0.353-3.758,1.053-3.942,2.393
			c-0.238,1.74,0.882,2.779,3.629,4.384c3.255,1.878,4.758,3.857,4.351,6.836c-0.364,2.645-2.544,4.87-6.069,4.967l-0.477,3.481
			L312.327,164.267z"/>
	</g>
</g>
<path fill="#414042" stroke="#231F20" stroke-width="1.5" stroke-linecap="round" stroke-linejoin="round" stroke-miterlimit="10" d="
	M358.877,206.635c0,0,1.138-30.76,2.565-34.122c2.306-5.423,7.844-5.399,12.813-4.68c4.043,0.585,9.793,2.913,8.768,7.012
	c-3.568,14.272-3.274,31.79-3.274,31.79H358.877z"/>
<path fill="#414042" stroke="#231F20" stroke-width="1.5" stroke-linecap="round" stroke-linejoin="round" stroke-miterlimit="10" d="
	M410.695,206.635c0,0-1.138-30.76-2.565-34.122c-2.307-5.423-7.845-5.399-12.813-4.68c-4.043,0.585-9.793,2.913-8.768,7.012
	c3.567,14.272,3.274,31.79,3.274,31.79H410.695z"/>
<path fill="#404041" stroke="#231F20" stroke-width="2" stroke-linecap="round" stroke-linejoin="round" stroke-miterlimit="10" d="
	M268.138,218.208c0,0-6.209,10.154-3.777,13.616c1.931,2.749,5.956,3.287,11.912,3.287c5.957,0,7.213-0.01,10.853,0.023
	c3.093,0.027,9.563-4.818-1.945-11.195c-5.514-3.055-10.543-5.731-10.543-5.731H268.138z"/>
<path fill="none" stroke="#231F20" stroke-width="1.4" stroke-linecap="round" stroke-linejoin="round" stroke-miterlimit="10" d="
	M297.058,36.135c-2.264,0.113-5.368,1.963-5.65,4.494"/>
<path fill="none" stroke="#231F20" stroke-width="1.4" stroke-linecap="round" stroke-linejoin="round" stroke-miterlimit="10" d="
	M308.304,38.176c-1.3-1.02-3.369-1.708-5.334-1.661"/>
</svg>
