<?xml version="1.0" encoding="utf-8"?>
<!-- Generator: Adobe Illustrator 16.0.0, SVG Export Plug-In . SVG Version: 6.00 Build 0)  -->
<!DOCTYPE svg PUBLIC "-//W3C//DTD SVG 1.1//EN" "http://www.w3.org/Graphics/SVG/1.1/DTD/svg11.dtd">
<svg version="1.1" id="Layer_1" xmlns="http://www.w3.org/2000/svg" xmlns:xlink="http://www.w3.org/1999/xlink" x="0px" y="0px"
	 width="595.279px" height="841.89px" viewBox="0 0 595.279 841.89" enable-background="new 0 0 595.279 841.89"
	 xml:space="preserve">
<path fill="none" stroke="#231F20" stroke-width="1.5" stroke-linecap="round" stroke-linejoin="round" stroke-miterlimit="10" d="
	M302.491,258.592H267.75h-20.513H146.069h-22.463c0,0-58.409,2.461-65.236-0.121"/>
<path fill="none" stroke="#231F20" stroke-width="2" stroke-linecap="round" stroke-linejoin="round" stroke-miterlimit="10" d="
	M263.32,201.172"/>
<polyline fill="none" stroke="#231F20" stroke-width="2" stroke-linecap="round" stroke-linejoin="round" stroke-miterlimit="10" points="
	268.191,119.272 277.339,149.055 288.622,145.077 270.208,108.87 "/>
<polyline fill="none" stroke="#231F20" stroke-width="2" stroke-linecap="round" stroke-linejoin="round" stroke-miterlimit="10" points="
	266.748,149.055 261.03,148.055 261.03,117.221 "/>
<path fill="#FFFFFF" d="M261.587,176.733c-1.872,1.549,0.221,3.361,3.623,3.16c3.403-0.201,8.695-3.889,8.695-3.889
	c-0.145-2.426-0.604-3.537-4.006-3.336C266.497,172.868,262.129,176.282,261.587,176.733z"/>
<ellipse transform="matrix(0.7778 0.6285 -0.6285 0.7778 177.6144 -130.1529)" fill="#FFFFFF" cx="272.894" cy="186.139" rx="4.397" ry="6.17"/>
<path fill="#231F20" d="M265.306,182.934c0,0-2.403,39.238-2.362,52.52c0.021,7.609,1.021,36.852,1.021,36.852h7.906
	c0,0-0.895-48.525,0-52.76c0.846-4,1.725-20.521,3.175-23.451c2.012-4.053-0.065-2.26-0.339,0.566
	c-0.115,1.188-1.049,15.965-0.675,21.635c0.376,5.67,2.388,28.496,3.58,37.152c0.126,0.912,1.271,18.35,1.271,18.35
	s6.978,1.178,8.058,0.746c1.077-0.432-2.388-28.348-2.984-35.361c-0.598-7.012,2.835-52.814,2.835-52.814l-0.299-5.375
	L265.306,182.934z"/>
<path fill="#404041" stroke="#231F20" stroke-width="2" stroke-linecap="round" stroke-linejoin="round" stroke-miterlimit="10" d="
	M271.285,272.303c0,0,6.993,11.439,4.254,15.338c-2.173,3.098-6.708,3.703-13.417,3.703c-6.711,0-8.125-0.012-12.223,0.025
	c-3.484,0.029-10.772-5.426,2.19-12.609c6.21-3.439,11.875-6.457,11.875-6.457H271.285z"/>
<path fill="#DD9F5B" stroke="#231F20" stroke-width="1.5" stroke-linecap="round" stroke-linejoin="round" stroke-miterlimit="10" d="
	M280.26,148.024c6.915,14.785,10.949,47.025,10.949,47.025s-11.729,5.598-12.479,7.244c-1.043,2.283,0.51,4.072,1.56,3.795
	c1.048-0.277,4.186-2.184,5.718-3.043s2.239,0,1.742,2.361c-0.499,2.367-3.098,6.201-2.812,8.82c0.311,2.855,2.514,3.68,4.376,2.574
	c2.125-1.262,2.778-12.162,2.778-12.162s-0.309,11.543,0.925,12.633c2.108,1.854,5.154,0.373,5.388-2.072
	c0.219-2.346-2.115-10.412-2.115-10.412s3.759,9.998,6.328,10.342c2.219,0.301,3.807-3.563,0.682-9.482
	c-1.943-3.684-5.91-9.951-7.146-11.168c-1.271-1.25-5.612-35.066-10.463-48.365L280.26,148.024z"/>
<polyline fill="#FFFFFF" stroke="#231F20" stroke-width="1.5" stroke-linecap="round" stroke-linejoin="round" stroke-miterlimit="10" points="
	255.061,148.055 259.885,149.055 264.411,197.792 287.089,187.647 279.362,149.055 279.725,149.055 288.622,145.077 
	270.802,110.038 266.748,113.344 261.03,116.51 253.868,148.055 "/>
<line fill="none" stroke="#231F20" stroke-width="1.5" stroke-linecap="round" stroke-linejoin="round" stroke-miterlimit="10" x1="263.236" y1="129.045" x2="260.604" y2="148.973"/>
<line fill="none" stroke="#231F20" stroke-width="1.5" stroke-linecap="round" stroke-linejoin="round" stroke-miterlimit="10" x1="270.1" y1="123.098" x2="279.65" y2="149.754"/>
<path fill="#DD9F5B" d="M245.23,105.088c1.188,2.51,2.756,5.131,6.869,8.221c6.601,4.955,25.709,1.109,29.91-13.295
	c2.726-9.34,0.85-23.346-6.854-32.438c-10.917-12.889-27.23-2.742-30.864,5.275C243.655,74.25,235.866,85.26,245.23,105.088z"/>
<path fill="none" stroke="#231F20" stroke-width="1.5" stroke-linecap="round" stroke-linejoin="round" stroke-miterlimit="10" d="
	M244.292,71.598c1.563-8.881,19.947-18.164,30.864-5.273c7.703,9.094,9.579,23.1,6.854,32.438
	c-4.201,14.402-23.311,18.25-29.91,13.297c-4.113-3.09-6.869-8.221-6.869-8.221"/>
<path fill="#231F20" d="M244.063,82.108c-0.037,1.973-0.799,3.551-1.695,3.527c-0.897-0.023-1.596-1.639-1.559-3.613
	c0.04-1.977,0.802-3.551,1.698-3.525C243.407,78.522,244.101,80.135,244.063,82.108z"/>
<path fill="#231F20" d="M253.613,82.108c-0.039,1.973-0.799,3.551-1.696,3.527s-1.596-1.639-1.558-3.613
	c0.038-1.977,0.8-3.551,1.696-3.525C252.954,78.522,253.651,80.135,253.613,82.108z"/>
<path fill="none" stroke="#231F20" stroke-width="1.5" stroke-linecap="round" stroke-linejoin="round" stroke-miterlimit="10" d="
	M269.778,96.94c-2.267,6.637-10.168,10.621-15.819,9.627"/>
<path fill="#DD9F5B" d="M238.025,101.836c1.761,2.564,6.015,2.941,9.501,0.842s4.886-5.879,3.126-8.445s-6.014-2.945-9.499-0.846
	C237.665,95.487,236.264,99.27,238.025,101.836z"/>
<path fill="none" stroke="#231F20" stroke-width="1.5" stroke-linecap="round" stroke-linejoin="round" stroke-miterlimit="10" d="
	M246.873,90.043c0,0-10.183,3.826-10.112,9.314c0.105,8.039,10.899,4.58,12.628,3.656"/>
<path fill="#231F20" stroke="#231F20" stroke-width="1.5" stroke-linecap="round" stroke-linejoin="round" stroke-miterlimit="10" d="
	M268.789,57.303c-0.692-0.236-1.208-0.205-1.603,0.01c-0.613-1.879-2.125-3.422-4.821-3.971
	c-15.781-3.213-33.063,12.559-26.175,21.535c1.479,1.932,18.799-1.764,26.522-7.664c1.113-0.85,4.45-1.389,5.257-2.531
	c0.376,1.582,1.522,2.717,2.646,5.703c2.302,6.123,12.616,9.926,13.046,8.191C284.094,76.842,281.536,61.663,268.789,57.303z"/>
<path fill="#DD9F5B" stroke="#231F20" stroke-width="1.5" stroke-miterlimit="10" d="M279.806,81.598
	c-0.609,3.461,1.257,6.83,4.171,7.523c2.912,0.693,5.77-1.551,6.379-5.012c0.61-3.463-1.258-6.832-4.171-7.525
	C283.274,75.891,280.417,78.137,279.806,81.598z"/>
<path fill="#404041" stroke="#231F20" stroke-width="2" stroke-linecap="round" stroke-linejoin="round" stroke-miterlimit="10" d="
	M285.909,271.418c0,0,6.993,11.438,4.254,15.338c-2.174,3.094-6.709,3.701-13.418,3.701c-6.71,0-8.125-0.012-12.223,0.025
	c-3.484,0.029-10.772-5.428,2.189-12.609c6.211-3.439,11.876-6.455,11.876-6.455H285.909z"/>
<path fill="#FFFFFF" stroke="#231F20" stroke-width="1.5" stroke-miterlimit="10" d="M282.483,71.282c0,0-7.327-4.959-13.302-7.547
	c-10.034-4.348-17.373-5.078-17.373-5.078l4.195-12.053l28.377,12.34l4.367,1.58L282.483,71.282z"/>
<path fill="#FFFFFF" stroke="#231F20" stroke-width="1.5" stroke-miterlimit="10" d="M264.596,24.997c2.6,0,5,0.615,6.986,1.486
	c3.819-1.143,8.689-1.092,13.567,0.443c8.729,2.744,14.277,9.207,12.901,14.756c7.571,3.381,13.717,10.75,12.604,16.469
	c-1.449,7.443-10.529,8.098-22.089,6.217c-7.437-1.211-13.477-4.773-16.455-9.143c-1.085,0.119-2.196,0.184-3.328,0.184
	c-11.725,0-21.228-6.625-21.228-14.795C247.556,32.444,252.875,24.997,264.596,24.997z"/>
<polygon fill="#FFFFFF" points="146.952,176.047 135.063,214.53 135.063,268.069 370.374,315.288 392.476,171.993 283.621,156.844 
	163.109,155.915 "/>
<polyline fill="none" stroke="#231F20" stroke-width="1.5" stroke-linecap="round" stroke-linejoin="round" stroke-miterlimit="10" points="
	154.198,160.729 101.417,181.674 388.499,227.338 "/>
<polyline fill="none" stroke="#231F20" stroke-width="2" stroke-linecap="round" stroke-linejoin="round" stroke-miterlimit="10" points="
	101.063,181.625 101.063,193.815 364.921,238.499 "/>
<polyline fill="none" stroke="#231F20" stroke-width="2" stroke-linecap="round" stroke-linejoin="round" stroke-miterlimit="10" points="
	129.066,198.961 133.167,269.165 330.191,309.288 "/>
<g>
	<g>
		<defs>
			<path id="SVGID_1_" d="M326.081,181.139c0-5.166-5.969-14.004-23.545-17.979c-5.992-1.355-13.91-2.742-20.909-2.926
				c-4.469-0.117-5.972-0.533-10.586-0.127c-6.536,0.574-10.921,5.188-10.761,10.465c0.271,8.9,31.067,4.301,33.185,12.951
				c2.158,8.822-24.101,18.248-24.101,18.248s22.688,0.309,37.019-4.063c6.641-2.025,14.02-6.701,14.02-6.701
				C323.956,188.292,326.081,184.866,326.081,181.139z"/>
		</defs>
		<clipPath id="SVGID_2_">
			<use xlink:href="#SVGID_1_"  overflow="visible"/>
		</clipPath>
		<g clip-path="url(#SVGID_2_)">
			<path fill="none" stroke="#231F20" stroke-width="3" stroke-miterlimit="10" d="M230.259,180.971
				c0-10.229,21.012-18.551,46.834-18.551c25.823,0,46.834,8.322,46.834,18.551s-21.012,18.549-46.834,18.549
				C251.27,199.52,230.259,191.198,230.259,180.971z"/>
			<ellipse fill="#F7C434" cx="277.093" cy="180.97" rx="34.93" ry="13.835"/>
			<path fill="#F9BF76" d="M230.259,180.971c0-10.229,21.012-18.551,46.834-18.551c25.823,0,46.834,8.322,46.834,18.551
				s-21.012,18.549-46.834,18.549C251.27,199.52,230.259,191.198,230.259,180.971z M238.15,180.971
				c0,8.504,17.47,15.424,38.942,15.424c21.473,0,38.944-6.92,38.944-15.424c0-8.506-17.471-15.424-38.944-15.424
				C255.62,165.547,238.15,172.465,238.15,180.971z"/>
			<path fill="#D1313D" d="M280.746,170.752c0.279-0.611-0.744-1.193-2.285-1.305c-1.54-0.109-3.015,0.295-3.294,0.904
				c-0.278,0.611,0.744,1.195,2.286,1.307C278.994,171.768,280.468,171.364,280.746,170.752z"/>
			<path fill="#D1313D" d="M290.703,172.606c-0.367,0.801,0.979,1.568,3.002,1.713s3.96-0.387,4.326-1.188
				c0.365-0.803-0.979-1.568-3.003-1.713S291.067,171.803,290.703,172.606z"/>
			<path fill="#D1313D" d="M281.687,176.667c-0.365,0.803,0.979,1.57,3.003,1.715c2.021,0.146,3.96-0.387,4.326-1.188
				c0.364-0.803-0.979-1.57-3.003-1.715C283.99,175.334,282.052,175.866,281.687,176.667z"/>
			<path fill="#D1313D" d="M252.651,185.85c-0.365,0.803,0.978,1.568,3.001,1.713c2.023,0.146,3.961-0.389,4.327-1.188
				c0.365-0.803-0.979-1.568-3.004-1.713C254.953,184.516,253.016,185.047,252.651,185.85z"/>
			<path fill="#D1313D" d="M309.382,180.147c0.455-0.99-1.211-1.941-3.715-2.121c-2.508-0.18-4.906,0.48-5.359,1.473
				c-0.451,0.994,1.215,1.943,3.721,2.121C306.532,181.801,308.931,181.141,309.382,180.147z"/>
			<path fill="#D1313D" d="M265.161,190.286c1.454,0.104,2.844-0.277,3.104-0.854c0.264-0.576-0.701-1.127-2.153-1.23
				s-2.843,0.279-3.106,0.854C262.744,189.631,263.709,190.182,265.161,190.286z"/>
			<path fill="#D1313D" d="M250.906,180.877c-0.234,0.516,0.628,1.006,1.926,1.102c1.299,0.092,2.541-0.248,2.776-0.764
				c0.232-0.514-0.629-1.006-1.928-1.1C252.383,180.022,251.139,180.364,250.906,180.877z"/>
			<path fill="#D1313D" d="M289.957,182.536c-1.535-0.109-3.003,0.295-3.28,0.9c-0.275,0.609,0.742,1.191,2.276,1.301
				s3.002-0.293,3.279-0.9C292.509,183.227,291.49,182.647,289.957,182.536z"/>
			<path fill="#D1313D" d="M270.049,176.438c-2.089-0.148-4.088,0.398-4.466,1.229c-0.376,0.826,1.012,1.619,3.101,1.768
				c2.089,0.15,4.087-0.398,4.465-1.227C273.524,177.379,272.136,176.588,270.049,176.438z"/>
			<path fill="#D1313D" d="M263.646,170.577c-2.089-0.148-4.087,0.4-4.466,1.229c-0.377,0.826,1.011,1.619,3.101,1.768
				c2.089,0.148,4.087-0.398,4.465-1.227C267.123,171.518,265.735,170.727,263.646,170.577z"/>
			<path fill="#D1313D" d="M254.291,175.389c-1.786-0.127-3.494,0.342-3.818,1.051c-0.32,0.705,0.863,1.385,2.65,1.512
				c1.785,0.127,3.494-0.344,3.816-1.049C257.26,176.194,256.076,175.516,254.291,175.389z"/>
			<path fill="#D1313D" d="M302.48,187.026c0.35-0.77-0.938-1.502-2.873-1.641c-1.938-0.139-3.792,0.371-4.142,1.139
				c-0.349,0.766,0.938,1.5,2.873,1.639C300.275,188.301,302.128,187.792,302.48,187.026z"/>
			<path fill="#D1313D" d="M286.294,191.797c0.499-1.092-1.333-2.137-4.092-2.334c-2.759-0.199-5.399,0.527-5.897,1.619
				c-0.498,1.094,1.334,2.139,4.093,2.336S285.796,192.891,286.294,191.797z"/>
			<path fill="#D1313D" d="M278.006,184.741c0.499-1.094-1.334-2.139-4.092-2.336s-5.398,0.527-5.896,1.621
				c-0.497,1.092,1.333,2.139,4.093,2.336C274.867,186.559,277.508,185.833,278.006,184.741z"/>
		</g>
	</g>
</g>
<path fill="none" stroke="#231F20" stroke-width="2" stroke-linecap="round" stroke-linejoin="round" stroke-miterlimit="10" d="
	M152.171,145.159"/>
<path fill="#DD9F5B" stroke="#231F20" stroke-width="1.5" stroke-linecap="round" stroke-linejoin="round" stroke-miterlimit="10" d="
	M255.061,148.055c-13.351,9.391-24.771,16.096-24.771,16.096s-7.559-10.572-9.311-11.023c-2.432-0.627-3.922,1.213-3.466,2.197
	c0.457,0.984,2.884,3.742,3.994,5.1c1.114,1.359,0.393,2.207-2.022,2.129c-2.414-0.08-6.646-1.969-9.176-1.229
	c-2.755,0.803-3.183,3.117-1.771,4.756c1.615,1.875,12.462,0.615,12.462,0.615s-11.421,1.711-12.279,3.117
	c-1.455,2.396,0.533,5.139,2.982,4.939c2.348-0.193,9.882-3.896,9.882-3.896s-9.187,5.445-9.077,8.035
	c0.094,2.234,4.173,3.125,9.457-0.986c3.287-2.559,8.769-7.555,9.75-8.984c1.007-1.469,18.941-12.328,28.89-19.947L255.061,148.055z
	"/>
<g>
	<g>
		<defs>
			<path id="SVGID_3_" d="M250.466,171.524c-2.116-8.65-33.986-4.082-33.185-12.951c0.646-7.129,6.999-8.271,5.739-9.283
				c0,0-0.441,0.086-1.427-0.008c-2.589-0.246-4.248-0.168-10.483,1.139c-5.238,1.098-11.948,3.939-11.948,3.939
				c-9.099,3.918-19.41,12.52-11.289,21.229c2.789,2.99,6.725,6.006,15.993,9.902c9.31,3.912,20.147,5.34,24.752,3.309
				C237.97,184.67,251.912,177.436,250.466,171.524z"/>
		</defs>
		<clipPath id="SVGID_4_">
			<use xlink:href="#SVGID_3_"  overflow="visible"/>
		</clipPath>
		<g clip-path="url(#SVGID_4_)">
			<path fill="none" stroke="#231F20" stroke-width="3" stroke-miterlimit="10" d="M187.259,168.971
				c0-10.229,21.012-18.551,46.834-18.551c25.823,0,46.834,8.322,46.834,18.551s-21.011,18.549-46.834,18.549
				C208.27,187.52,187.259,179.198,187.259,168.971z"/>
			<ellipse fill="#F7C434" cx="234.093" cy="168.97" rx="34.932" ry="13.835"/>
			<path fill="#F9BF76" d="M187.259,168.971c0-10.229,21.012-18.551,46.834-18.551c25.823,0,46.834,8.322,46.834,18.551
				s-21.011,18.549-46.834,18.549C208.27,187.52,187.259,179.198,187.259,168.971z M195.15,168.971
				c0,8.504,17.47,15.424,38.942,15.424c21.474,0,38.943-6.92,38.943-15.424c0-8.506-17.47-15.424-38.943-15.424
				C212.62,153.547,195.15,160.465,195.15,168.971z"/>
			<path fill="#D1313D" d="M237.746,158.752c0.279-0.611-0.744-1.193-2.285-1.305c-1.54-0.109-3.015,0.295-3.294,0.904
				c-0.278,0.611,0.744,1.195,2.286,1.307C235.994,159.768,237.468,159.364,237.746,158.752z"/>
			<path fill="#D1313D" d="M247.703,160.606c-0.367,0.801,0.979,1.568,3.002,1.713s3.96-0.387,4.326-1.188
				c0.364-0.803-0.979-1.568-3.003-1.713S248.067,159.803,247.703,160.606z"/>
			<path fill="#D1313D" d="M238.687,164.667c-0.365,0.803,0.979,1.57,3.003,1.715c2.021,0.146,3.96-0.387,4.326-1.188
				c0.364-0.803-0.979-1.57-3.003-1.715C240.99,163.334,239.052,163.866,238.687,164.667z"/>
			<path fill="#D1313D" d="M209.651,173.85c-0.365,0.803,0.978,1.568,3.001,1.713c2.023,0.146,3.961-0.389,4.327-1.188
				c0.365-0.803-0.979-1.568-3.004-1.713C211.953,172.516,210.016,173.047,209.651,173.85z"/>
			<path fill="#D1313D" d="M266.383,168.147c0.454-0.99-1.211-1.941-3.716-2.121c-2.507-0.18-4.905,0.48-5.358,1.473
				c-0.452,0.994,1.214,1.943,3.72,2.121C263.533,169.801,265.93,169.141,266.383,168.147z"/>
			<path fill="#D1313D" d="M222.161,178.286c1.454,0.104,2.844-0.277,3.104-0.854c0.264-0.576-0.701-1.127-2.153-1.23
				s-2.844,0.279-3.106,0.854C219.744,177.631,220.709,178.182,222.161,178.286z"/>
			<path fill="#D1313D" d="M207.906,168.877c-0.234,0.516,0.628,1.006,1.926,1.102c1.299,0.092,2.541-0.248,2.776-0.764
				c0.232-0.514-0.629-1.006-1.928-1.1C209.383,168.022,208.139,168.364,207.906,168.877z"/>
			<path fill="#D1313D" d="M246.957,170.536c-1.535-0.109-3.003,0.295-3.28,0.9c-0.275,0.609,0.742,1.191,2.276,1.301
				s3.002-0.293,3.279-0.9C249.509,171.227,248.49,170.647,246.957,170.536z"/>
			<path fill="#D1313D" d="M227.049,164.438c-2.089-0.148-4.088,0.398-4.466,1.229c-0.376,0.826,1.012,1.619,3.101,1.768
				c2.089,0.15,4.087-0.398,4.465-1.227C230.524,165.379,229.136,164.588,227.049,164.438z"/>
			<path fill="#D1313D" d="M220.646,158.577c-2.089-0.148-4.087,0.4-4.466,1.229c-0.377,0.826,1.011,1.619,3.101,1.768
				c2.089,0.148,4.087-0.398,4.465-1.227C224.123,159.518,222.735,158.727,220.646,158.577z"/>
			<path fill="#D1313D" d="M211.291,163.389c-1.786-0.127-3.494,0.342-3.818,1.051c-0.32,0.705,0.863,1.385,2.65,1.512
				c1.785,0.127,3.494-0.344,3.816-1.049C214.26,164.194,213.076,163.516,211.291,163.389z"/>
			<path fill="#D1313D" d="M259.479,175.026c0.35-0.77-0.938-1.502-2.873-1.641c-1.938-0.139-3.791,0.371-4.142,1.139
				c-0.349,0.766,0.938,1.5,2.873,1.639C257.274,176.301,259.129,175.792,259.479,175.026z"/>
			<path fill="#D1313D" d="M243.294,179.797c0.499-1.092-1.333-2.137-4.092-2.334c-2.759-0.199-5.399,0.527-5.897,1.619
				c-0.498,1.094,1.334,2.139,4.093,2.336S242.796,180.891,243.294,179.797z"/>
			<path fill="#D1313D" d="M235.006,172.741c0.499-1.094-1.334-2.139-4.092-2.336s-5.398,0.527-5.896,1.621
				c-0.497,1.092,1.333,2.139,4.093,2.336C231.867,174.559,234.508,173.833,235.006,172.741z"/>
		</g>
	</g>
</g>
<g>
	<g>
		<path fill="#A87C4F" stroke="#231F20" stroke-width="1.5" stroke-miterlimit="10" d="M95.428,218.731
			c0,0,6.445,44.395,4.676,45.865c-1.772,1.475,9.038-0.313,9.038-0.313s3.96-30.229,3.055-45.777L95.428,218.731z"/>
		<path fill="#A87C4F" stroke="#231F20" stroke-width="1.5" stroke-miterlimit="10" d="M82.961,219.606
			c0,0-3.042,43.305-3.948,44.713c-1.246,1.938,7.948,1.098,7.948,1.098s12.342-31.898,10.846-45.965L82.961,219.606z"/>
		
			<path fill="#231F20" stroke="#231F20" stroke-width="2" stroke-linecap="round" stroke-linejoin="round" stroke-miterlimit="10" d="
			M99.69,262.413c0,0-5.924,9.449-3.381,12.67c2.018,2.559,6.227,3.059,12.453,3.059c6.229,0,7.54-0.008,11.345,0.021
			c3.232,0.025,9.853-3.521-2.033-10.418c-5.521-3.199-10.378-5.332-10.378-5.332H99.69z"/>
		
			<path fill="#231F20" stroke="#231F20" stroke-width="2" stroke-linecap="round" stroke-linejoin="round" stroke-miterlimit="10" d="
			M78.167,265.495c0,0-7.082,10.188-4.467,13.662c2.077,2.758,6.411,3.297,12.823,3.297c6.414,0,7.763-0.008,11.68,0.023
			c3.329,0.025,10.143-3.797-2.096-11.232c-5.683-3.451-10.683-5.75-10.683-5.75H78.167z"/>
		<path fill="#A87C4F" stroke="#231F20" stroke-width="1.5" stroke-miterlimit="10" d="M102.787,170.243
			c0,0,29.297,12.156,30.004,13.531c0.688,1.338,4.002,4.887,6.44,7.459c3.919,4.143,7.194,3.869,7.408,1.971
			c0.243-2.197-6.676-7.943-6.676-7.943s5.724,4.063,7.565,4.506c1.923,0.461,3.663-1.641,2.659-3.861
			c-1.83-4.061-6.163-3.068-9.507-4.125c0,0,8.783,2.094,9.884,0.961c1.592-1.648,0.938-2.934-1.194-3.945
			c-1.948-0.934-5.321-0.152-7.234-0.371c-1.911-0.221-2.429-1.031-1.467-2.059c0.963-1.029,3.051-3.092,3.472-3.879
			c0.422-0.787-0.645-2.535-2.604-2.289c-1.411,0.178-8.034,8.301-8.034,8.301l-26.537-15.873L102.787,170.243z"/>
		
			<polygon fill="#D1313D" stroke="#231F20" stroke-width="1.5" stroke-linecap="round" stroke-linejoin="round" stroke-miterlimit="10" points="
			110.092,161.719 94.005,167 90.314,155.375 97.667,142.504 		"/>
		<path fill="#603813" d="M68.034,116.948c0,0.137-6.774,5.77-6.774,5.77l-12.902,6.094c0,0,9.131,18.322,19.327,12.512
			c3.306-1.881,4.405-22.75,4.405-22.75"/>
		<path fill="#A87C4F" d="M80.241,129.731c6.805,10.664,34.834,20.156,44.953-1.256c0.951-2.012,5.768-3.213,6.291-5.166
			c1.016-3.803-3.723-4.217-3.723-7.873c0-7.313-2.572-17.191-4.984-21.76c-4.757-9.018-20.897-8.855-27.628-6.598
			c-4.843,1.629-12.979,15.789-12.979,15.789s-6.624-6.533-12.207-1.01c-5.545,5.486-1.83,11.908,3.489,13.26
			c3.306,0.84,5.686-1.52,5.686-1.52S76.146,123.309,80.241,129.731z"/>
		<path fill="#603813" d="M73.535,98.223c0,0,3.406-11.455,10.601-18.211c3.472-3.262,13.511-5.799,18.256-5.42
			c2.766,0.221,8.309,1.73,10.58,3.318c3.99,2.783,14.828,10.002,12.977,14.5c-2.048,4.971-20.768,3.842-20.768,3.842
			s-5.595-8.387-8.906-8.186c-5.114,0.309-13.937,8.846-13.937,13.955"/>
		
			<path fill="none" stroke="#231F20" stroke-width="1.5" stroke-linecap="round" stroke-linejoin="round" stroke-miterlimit="10" d="
			M128.461,115.92c0.546-9.006-2.625-16.881-5.683-22.244"/>
		
			<path fill="none" stroke="#231F20" stroke-width="1.5" stroke-linecap="round" stroke-linejoin="round" stroke-miterlimit="10" d="
			M80.241,129.731c5.514,11.385,35.263,19.541,45.383-1.871"/>
		<path fill="none" stroke="#231F20" stroke-width="2" stroke-linecap="round" stroke-linejoin="round" stroke-miterlimit="10" d="
			M81.713,219.452"/>
		
			<path fill="#8EB2C5" stroke="#231F20" stroke-width="1.5" stroke-linecap="round" stroke-linejoin="round" stroke-miterlimit="10" d="
			M112.815,185.04l2.614,41.166c0,0-9.33,1.938-18.582,1.938c-4.46,0-17.822-0.229-17.822-0.229l2.705-44.164"/>
		<path fill="#231F20" d="M110.884,103.864c1.128,0.105,1.87,1.943,1.659,4.096c-0.211,2.156-1.297,3.813-2.424,3.705
			c-1.128-0.113-1.869-1.949-1.656-4.105C108.673,105.405,109.758,103.75,110.884,103.864z"/>
		<path fill="#231F20" d="M122.884,101.864c1.128,0.105,1.87,1.943,1.659,4.096c-0.211,2.156-1.297,3.813-2.424,3.705
			c-1.128-0.113-1.869-1.949-1.656-4.105C120.673,103.405,121.758,101.75,122.884,101.864z"/>
		<path fill="none" stroke="#231F20" stroke-width="2" stroke-linecap="round" stroke-linejoin="round" stroke-miterlimit="10" d="
			M110.281,77.911c11.14,3.396,17.368,17.545,17.481,18.342"/>
		<path fill="none" stroke="#231F20" stroke-width="2" stroke-linecap="round" stroke-linejoin="round" stroke-miterlimit="10" d="
			M110.281,77.911c11.14,3.396,17.368,17.545,17.481,18.342"/>
		<path fill="none" stroke="#231F20" stroke-width="2" stroke-linecap="round" stroke-linejoin="round" stroke-miterlimit="10" d="
			M102.39,77.911c11.142,3.396,17.369,17.545,17.482,18.342"/>
		<path fill="none" stroke="#231F20" stroke-width="2" stroke-linecap="round" stroke-linejoin="round" stroke-miterlimit="10" d="
			M99.432,81.612c8.657,4.996,13.438,15.914,13.538,16.611"/>
		<path fill="none" stroke="#231F20" stroke-width="2" stroke-linecap="round" stroke-linejoin="round" stroke-miterlimit="10" d="
			M95.15,84.624c7.623,5.328,11.813,14.922,11.903,15.572"/>
		<path fill="none" stroke="#231F20" stroke-width="2" stroke-linecap="round" stroke-linejoin="round" stroke-miterlimit="10" d="
			M92.799,88.293c-9.877,7.361-10.628,14.574-10.628,14.574s-3.258-3.893-6.945-3.49c-3.687,0.402-6.259,2.193-7.393,7.064
			c-1.14,4.898,4.521,9.148,8.512,8.635c2.548-0.33,2.794-1.477,2.794-1.477s-2.73,4.023-0.789,12.799"/>
		
			<path fill="none" stroke="#231F20" stroke-width="1.5" stroke-linecap="round" stroke-linejoin="round" stroke-miterlimit="10" d="
			M72.09,107.407c0,0,4.101-5.758,7.909-1.084"/>
		
			<path fill="none" stroke="#231F20" stroke-width="1.5" stroke-linecap="round" stroke-linejoin="round" stroke-miterlimit="10" d="
			M76.146,108.846c-1.404-1.984-1.011-3.998-1.011-3.998"/>
		<path fill="none" stroke="#231F20" stroke-width="2" stroke-linecap="round" stroke-linejoin="round" stroke-miterlimit="10" d="
			M99.432,77.284C84.193,81.612,78.11,96.252,78.11,96.252"/>
		<path fill="none" stroke="#231F20" stroke-width="2" stroke-linecap="round" stroke-linejoin="round" stroke-miterlimit="10" d="
			M106.204,75.049c-16.335-2.674-28.849,6.564-32.669,21.965"/>
		<path fill="none" stroke="#231F20" stroke-width="2" stroke-linecap="round" stroke-linejoin="round" stroke-miterlimit="10" d="
			M69.289,115.436c-7.129,8.398-15.558,11.945-22.314,13.375"/>
		<path fill="none" stroke="#231F20" stroke-width="2" stroke-linecap="round" stroke-linejoin="round" stroke-miterlimit="10" d="
			M67.755,117.624c-4.291,10.107-11.191,15.955-17.129,19.291"/>
		<path fill="none" stroke="#231F20" stroke-width="2" stroke-linecap="round" stroke-linejoin="round" stroke-miterlimit="10" d="
			M70.705,117.108c-1.432,12.668-7.123,21.41-12.573,27.039"/>
		<path fill="#231F20" d="M74.967,118.278c-0.54,1.014-2.09,1.244-3.465,0.514l-3.469-1.844c-1.375-0.73-2.054-2.145-1.514-3.158
			l0,0c0.538-1.014,2.089-1.244,3.465-0.514l3.468,1.842C74.829,115.848,75.507,117.264,74.967,118.278L74.967,118.278z"/>
		
			<path fill="none" stroke="#231F20" stroke-width="1.5" stroke-linecap="round" stroke-linejoin="round" stroke-miterlimit="10" d="
			M120.754,111.756c19.873,10.662,8.646,17.061-2.051,13.777"/>
		<path fill="none" stroke="#231F20" stroke-width="2" stroke-linecap="round" stroke-linejoin="round" stroke-miterlimit="10" d="
			M72.09,118.573c1.561,10.904-3.21,19.564-6.619,25.572"/>
		<path fill="#231F20" d="M96.552,126.282c1.61-1.059,5.406,4.299,9.084,3.422c3.676-0.875,7.609-2.865,9.764-0.895
			c1.982,1.818,1.257,4.65-1.479,6.15C101.094,142,92.886,128.69,96.552,126.282z"/>
		
			<path fill="#D1313D" stroke="#231F20" stroke-width="1.5" stroke-linecap="round" stroke-linejoin="round" stroke-miterlimit="10" d="
			M78.351,193.227c0,0,8.091,5.898,18.077,6.314c10.401,0.434,19.845-3.504,19.845-3.504s-7.848-49.186-17.867-53.109l-14.799-6.268
			l-18.902,29.186l13.626,3.758l7.56-23.666l-6.573,22.682L78.351,193.227z"/>
		<path fill="#A87C4F" stroke="#231F20" stroke-width="1.5" stroke-miterlimit="10" d="M66.885,166.448
			c-5.656,14.629,16.299,29.242,15.861,30.729c-0.429,1.447-0.301,6.264-0.18,9.777c0.19,5.652,3.165,7.598,4.774,6.322
			c1.861-1.477,0.346-10.291,0.346-10.291s1.774,6.775,2.995,8.314c1.275,1.604,4.33,1.18,5.157-1.135
			c0.483-1.355-4.923-9.303-4.923-9.303s5.842,7.316,7.623,7.191c2.587-0.182,3.001-1.568,1.966-3.721
			c-0.946-1.971-4.383-3.6-5.834-5.018c-1.447-1.418-1.274-2.359,0.313-2.494c1.587-0.137,4.903-0.303,5.852-0.615
			c0.949-0.309,1.369-2.307-0.472-3.408c-1.327-0.795-13.041-0.086-13.041-0.086s-15.516-15.576-10.882-23.215
			C77.743,167.356,67.904,163.815,66.885,166.448z"/>
	</g>
	<path fill="none" stroke="#231F20" stroke-width="2" stroke-linecap="round" stroke-linejoin="round" stroke-miterlimit="10" d="
		M147.063,174.625"/>
	<path fill="none" stroke="#231F20" stroke-width="1.4" stroke-linecap="round" stroke-linejoin="round" stroke-miterlimit="10" d="
		M111.179,99.055c-2.81-0.082-6.84,1.932-7.454,5.076"/>
	<path fill="none" stroke="#231F20" stroke-width="1.4" stroke-linecap="round" stroke-linejoin="round" stroke-miterlimit="10" d="
		M125.179,96.055c-1.65-0.047-3.725,0.629-5.277,1.832"/>
</g>
<path fill="none" stroke="#231F20" stroke-width="1.4" stroke-linecap="round" stroke-linejoin="round" stroke-miterlimit="10" d="
	M251.599,73.547c2.779-0.42,7.023,1.09,8.014,4.137"/>
<path fill="none" stroke="#231F20" stroke-width="1.4" stroke-linecap="round" stroke-linejoin="round" stroke-miterlimit="10" d="
	M238.052,75.155c1.575-0.498,3.754-0.418,5.579,0.313"/>
</svg>
