<?xml version="1.0" encoding="utf-8"?>
<!-- Generator: Adobe Illustrator 16.0.0, SVG Export Plug-In . SVG Version: 6.00 Build 0)  -->
<!DOCTYPE svg PUBLIC "-//W3C//DTD SVG 1.1//EN" "http://www.w3.org/Graphics/SVG/1.1/DTD/svg11.dtd">
<svg version="1.1" id="Layer_1" xmlns="http://www.w3.org/2000/svg" xmlns:xlink="http://www.w3.org/1999/xlink" x="0px" y="0px"
	 width="595.279px" height="841.89px" viewBox="0 0 595.279 841.89" enable-background="new 0 0 595.279 841.89"
	 xml:space="preserve">
<rect x="241.879" y="267" fill="#231F20" width="3" height="19"/>
<g>
	<path fill="none" stroke="#231F20" stroke-width="1.5" stroke-linecap="round" stroke-linejoin="round" stroke-miterlimit="10" d="
		M126.879,144H251.88c0,0,41.209,0.294,54.343,0s29.916,0,29.916,0"/>
	<path fill="none" stroke="#231F20" stroke-width="1.5" stroke-linecap="round" stroke-linejoin="round" stroke-miterlimit="10" d="
		M335.879,152H211.138c0,0-41.209,0.294-54.343,0s-30.045,0-30.045,0"/>
	
		<line fill="none" stroke="#231F20" stroke-width="1.5" stroke-linecap="round" stroke-linejoin="round" stroke-miterlimit="10" x1="191.879" y1="57" x2="191.879" y2="144"/>
	
		<line fill="none" stroke="#231F20" stroke-width="1.5" stroke-linecap="round" stroke-linejoin="round" stroke-miterlimit="10" x1="255.879" y1="57" x2="255.879" y2="144"/>
	
		<line fill="none" stroke="#231F20" stroke-width="1.5" stroke-linecap="round" stroke-linejoin="round" stroke-miterlimit="10" x1="260.879" y1="57" x2="260.879" y2="144"/>
	<rect x="243.879" y="86" fill="#231F20" width="3" height="19"/>
	<rect x="267.879" y="86" fill="#231F20" width="3" height="19"/>
</g>
<g>
	<path fill="#8B5E3C" stroke="#231F20" stroke-width="1.5" stroke-miterlimit="10" d="M157.733,169.868
		c0,0,1.835,10.396,9.628,10.845c4.271,0.246,17.01,0,18.361-1.851c0,0,1.281-4.697,4.128-6.69c2.847-1.992,4.785-1.563,5.337,0.356
		c0.345,1.195,0.782-0.213,1.922,0.925c1.14,1.139,0.837,2.387,0.711,2.847c-0.134,0.492,1.699-0.348,1.495,1.851
		c-0.283,3.06-5.124,5.124-9.606,2.569c-1.387-0.79-11.602,2.813-14.52,2.981c-7.044,0.412-15.477-1.938-17.742-6.218
		C155.633,174.059,157.733,169.868,157.733,169.868z"/>
	
		<ellipse fill="#8B5E3C" stroke="#231F20" stroke-width="1.5" stroke-miterlimit="10" cx="150.045" cy="136.484" rx="5.545" ry="5.033"/>
	
		<ellipse fill="#8B5E3C" stroke="#231F20" stroke-width="1.5" stroke-miterlimit="10" cx="171.138" cy="134.181" rx="18.682" ry="20.643"/>
	
		<path fill="#615375" stroke="#231F20" stroke-width="1.5" stroke-linecap="round" stroke-linejoin="round" stroke-miterlimit="10" d="
		M161.58,153.959l-1.385,17.154l-3.886-0.515l-0.854,18.824c0,0-12.261,0.921-14.276-0.977c-1.91-1.797,3.321-19.596,3.321-19.596
		l-2.279-1.135l14.499-18.029L161.58,153.959z"/>
	<path fill="none" stroke="#231F20" stroke-width="2" stroke-linecap="round" stroke-linejoin="round" stroke-miterlimit="10" d="
		M186.281,172.172"/>
	<path fill="none" stroke="#231F20" stroke-width="1.5" stroke-linecap="round" stroke-linejoin="round" stroke-miterlimit="10" d="
		M191.131,173.952c0,0-0.711,3.336,1.688,2.958c0.605-0.095,2.653-1.891,2.653-3.893"/>
	<path fill="#8B5E3C" stroke="#231F20" stroke-width="1.5" stroke-miterlimit="10" d="M193.546,177.172c0,0-0.294,2.607,1.428,2.331
		c0.606-0.098,2.435-1.52,2.914-3.266"/>
	
		<ellipse fill="#8B5E3C" stroke="#231F20" stroke-width="1.5" stroke-miterlimit="10" cx="184.573" cy="175.03" rx="2.705" ry="2.857"/>
	<path fill="#231F20" d="M183.002,128.678c0,1.409,0.675,2.557,1.51,2.557c0.836,0,1.511-1.147,1.511-2.557
		c0-1.412-0.675-2.554-1.511-2.554C183.677,126.124,183.002,127.266,183.002,128.678z"/>
	<path fill="#231F20" d="M171.002,128.678c0,1.409,0.675,2.557,1.51,2.557c0.836,0,1.511-1.147,1.511-2.557
		c0-1.412-0.675-2.554-1.511-2.554C171.677,126.124,171.002,127.266,171.002,128.678z"/>
	
		<line fill="none" stroke="#231F20" stroke-width="2" stroke-linecap="round" stroke-linejoin="round" stroke-miterlimit="10" x1="174.447" y1="123.432" x2="168.244" y2="123.21"/>
	
		<line fill="none" stroke="#231F20" stroke-width="2" stroke-linecap="round" stroke-linejoin="round" stroke-miterlimit="10" x1="188.559" y1="122.996" x2="182.386" y2="123.646"/>
	<path fill="none" stroke="#231F20" stroke-width="1.5" stroke-linecap="round" stroke-linejoin="round" stroke-miterlimit="10" d="
		M178.046,149.689c-6.59,3.354-14.313-2.392-14.52-6.831"/>
	
		<polyline fill="none" stroke="#231F20" stroke-width="2" stroke-linecap="round" stroke-linejoin="round" stroke-miterlimit="10" points="
		182.002,112.817 180.127,115.048 172.545,109.765 169.593,113.54 164.302,110.839 	"/>
	
		<polyline fill="none" stroke="#231F20" stroke-width="2" stroke-linecap="round" stroke-linejoin="round" stroke-miterlimit="10" points="
		160.879,112 160.879,115.938 154.504,116.742 155.415,119.963 149.607,127.118 	"/>
	
		<path fill="#D1313D" stroke="#231F20" stroke-width="1.5" stroke-linecap="round" stroke-linejoin="round" stroke-miterlimit="10" d="
		M190.277,169.667c0,0-2.519-10.441-6.295-9.71c-2.269,0.439-1.821,5.486-1.279,6.369c1.279,2.087,3.333,2.572,4.869,3.341
		c1.537,0.769,5.263,13.021,5.247,13.241c-0.016,0.22,3.17,3.185,3.17,0C195.989,179.723,190.277,169.667,190.277,169.667z"/>
	<path fill="none" stroke="#231F20" stroke-width="1.4" stroke-linecap="round" stroke-linejoin="round" stroke-miterlimit="10" d="
		M183.982,161.056c0,0,0.887,7.335,5.04,6.479"/>
	<ellipse fill="#8B5E3C" cx="188.691" cy="139.192" rx="5.495" ry="4.306"/>
	<path fill="none" stroke="#231F20" stroke-width="1.5" stroke-linecap="round" stroke-linejoin="round" stroke-miterlimit="10" d="
		M183.196,134.56c0,0,10.96-2.295,10.989,4.799c0.025,6.348-10.016,4.122-10.989,4.122"/>
	
		<polyline fill="none" stroke="#231F20" stroke-width="1.5" stroke-linecap="round" stroke-linejoin="round" stroke-miterlimit="10" points="
		156.832,155.528 150.592,170.868 144.335,168.768 	"/>
</g>
<g>
	<path fill="none" stroke="#231F20" stroke-width="2" stroke-linecap="round" stroke-linejoin="round" stroke-miterlimit="10" d="
		M335.577,146.112"/>
	
		<ellipse transform="matrix(-0.2006 0.9797 -0.9797 -0.2006 520.7039 -189.1768)" fill="#F9BF76" stroke="#231F20" stroke-width="1.5" stroke-linecap="round" stroke-linejoin="round" stroke-miterlimit="10" cx="337.534" cy="117.854" rx="5.092" ry="4.979"/>
	<path fill="#F9BF76" d="M303.04,131.772c1.099,1.998,2.55,4.085,6.354,6.543c6.104,3.943,23.779,0.882,27.665-10.583
		c2.519-7.433,0.783-18.581-6.342-25.818c-10.096-10.259-25.185-2.185-28.544,4.198C301.585,107.227,294.381,115.99,303.04,131.772z
		"/>
	<path fill="#231F20" d="M312.975,115.33c0.072,1.918-0.619,3.494-1.54,3.527c-0.919,0.035-1.724-1.486-1.795-3.406
		c-0.07-1.912,0.619-3.486,1.541-3.521C312.1,111.896,312.904,113.417,312.975,115.33z"/>
	<path fill="#231F20" d="M303.975,115.33c0.072,1.918-0.619,3.494-1.54,3.527c-0.919,0.035-1.724-1.486-1.795-3.406
		c-0.07-1.912,0.619-3.486,1.541-3.521C303.1,111.896,303.904,113.417,303.975,115.33z"/>
	<path fill="none" stroke="#231F20" stroke-width="1.5" stroke-linecap="round" stroke-linejoin="round" stroke-miterlimit="10" d="
		M310.8,133.665c8.854,2.745,14.798-1.283,16.681-3.336"/>
	
		<path fill="#F9BF76" stroke="#231F20" stroke-width="1.5" stroke-linecap="round" stroke-linejoin="round" stroke-miterlimit="10" d="
		M325.182,152.753c0,0-5.648,11.5-7.93,14.428c-2.465,3.159-3.602,6.208-4.746,6.241c-1.146,0.03-4.221-0.623-7.259,0.754
		c-3.979,1.801-7.008,3.294-6.851,8.228c0.07,2.138,1.793,3.527,3.085,2.333c1.289-1.195,3.037-4.079,4.324-6.02
		c1.07-1.616,5.319-2.409,6.219-0.559c0.901,1.85-2.027,6.113-0.262,7.785c1.767,1.672,3.314,0.297,3.704-1.069
		c0.388-1.367,0.62-4.223,0.156-6.118c-0.462-1.897-0.743-2.128-0.202-2.808c3.675-4.627,14.465-20.528,14.949-21.816
		L325.182,152.753z"/>
	<path fill="none" stroke="#231F20" stroke-width="2" stroke-linecap="round" stroke-linejoin="round" stroke-miterlimit="10" d="
		M303.198,100.29c12.764-12.116,24.282-0.96,24.282-0.96s2.139-5.096,5.088-6.121"/>
	
		<path fill="#F9BF76" stroke="#231F20" stroke-width="1.5" stroke-linecap="round" stroke-linejoin="round" stroke-miterlimit="10" d="
		M318.724,152.245c0,0,3.817-7.357,3.357-9.252c-0.606-2.504-2.225-2.45-3.03-1.423c-0.806,1.026-1.12,2.855-1.82,4.605
		c-0.698,1.751-3.119,2.097-3.666,0.708c-0.545-1.388-2.269-5.061-2.605-5.896c-0.341-0.836-2.26-3.529-3.444-1.899
		s-0.669,6.583-0.669,6.583c0.376,0.247-1.867,0.796-0.23,3.609s5.335,5.432,9.133,4.424c1.709-0.454,2.282,10.448,7.156,12.162
		c5.793,2.037,8.636,0.862,10.755-1.596c2.12-2.457,5.137-7.288,5.137-7.288l-4.06-1.119c0,0-1.178,5.351-4.692,6.842
		c-3.516,1.493-7.868-0.95-8.528-2.7C320.855,158.255,318.724,152.245,318.724,152.245z"/>
	
		<ellipse transform="matrix(-0.2006 0.9797 -0.9797 -0.2006 488.7653 -144.1122)" fill="#F9BF76" cx="303.18" cy="127.358" rx="4.508" ry="5.768"/>
	<path fill="none" stroke="#231F20" stroke-width="1.5" stroke-linecap="round" stroke-linejoin="round" stroke-miterlimit="10" d="
		M305.393,120.964c0,0-8.104,1.049-8.174,5.389c-0.103,6.355,8.478,5.584,9.87,4.807"/>
	
		<path fill="#FFFFFF" stroke="#231F20" stroke-width="1.5" stroke-linecap="round" stroke-linejoin="round" stroke-miterlimit="10" d="
		M329.523,137.685c0.752,6.219-6.72,16.021-6.72,16.021s2.719,5.074,4.478,4.586c0.458-0.125,3.332-3.23,3.332-3.23
		s6.188,1.222,7.702,2.675c3.41,3.269-1.573,20.386-1.573,20.386s19.622,2.059,19.622-0.108c0.001-24.565-18.545-41.23-20.652-42.98
		S329.31,135.924,329.523,137.685z"/>
	<path fill="none" stroke="#231F20" stroke-width="1.5" stroke-linecap="round" stroke-linejoin="round" stroke-miterlimit="10" d="
		M306.89,140.602c0,0-1.473,4.761,4.319,9.968"/>
	<path fill="none" stroke="#231F20" stroke-width="2" stroke-linecap="round" stroke-linejoin="round" stroke-miterlimit="10" d="
		M298.696,98.636c14.449-9.795,28.784,0.694,28.784,0.694c2.771-2.279,5.08-1.536,6.871,0.092"/>
	<path fill="none" stroke="#231F20" stroke-width="2" stroke-linecap="round" stroke-linejoin="round" stroke-miterlimit="10" d="
		M309.365,103.081c10.897-10.521,24.41-1.038,24.41-1.038"/>
	<path fill="none" stroke="#231F20" stroke-width="1.5" stroke-linecap="round" stroke-linejoin="round" stroke-miterlimit="10" d="
		M326.362,128.285c0,0,2.063,3.126,4.117,3.648"/>
	<path fill="none" stroke="#231F20" stroke-width="1.5" stroke-linecap="round" stroke-linejoin="round" stroke-miterlimit="10" d="
		M302.978,106.112c1.447-7.067,18.449-14.457,28.544-4.198c7.125,7.237,8.86,18.386,6.342,25.818
		c-3.886,11.465-21.56,14.526-27.665,10.583c-3.804-2.458-6.352-6.543-6.352-6.543"/>
</g>
<polygon fill="#231F20" stroke="#231F20" stroke-width="1.5" stroke-miterlimit="10" points="335.741,178.122 334.854,189.646 
	358.58,188.155 355.364,178.014 "/>
<g>
	<path fill="none" stroke="#231F20" stroke-width="1.5" stroke-linecap="round" stroke-linejoin="round" stroke-miterlimit="10" d="
		M422.879,226H246.085c0,0-58.274,0.294-76.849,0c-18.571-0.294-42.292,0-42.292,0"/>
	<rect x="289.879" y="244" fill="#231F20" width="19" height="3"/>
	<rect x="289.879" y="274" fill="#231F20" width="19" height="3"/>
	<rect x="289.879" y="303" fill="#231F20" width="19" height="3"/>
	<rect x="354.879" y="267" fill="#231F20" width="3" height="19"/>
	
		<polygon fill="none" stroke="#231F20" stroke-width="1.5" stroke-linecap="round" stroke-linejoin="round" stroke-miterlimit="10" points="
		265.176,235.296 264.505,257 335.879,257 335.879,235 	"/>
	
		<polygon fill="none" stroke="#231F20" stroke-width="1.5" stroke-linecap="round" stroke-linejoin="round" stroke-miterlimit="10" points="
		349.176,235.227 348.505,317 419.879,317 419.879,235 	"/>
	
		<polygon fill="none" stroke="#231F20" stroke-width="1.5" stroke-linecap="round" stroke-linejoin="round" stroke-miterlimit="10" points="
		181.176,235.227 180.505,317 251.879,317 251.879,235 	"/>
	
		<polyline fill="none" stroke="#231F20" stroke-width="1.5" stroke-linecap="round" stroke-linejoin="round" stroke-miterlimit="10" points="
		126.505,317 170.879,317 170.879,235 126.176,235.227 	"/>
	<path fill="none" stroke="#231F20" stroke-width="1.5" stroke-linecap="round" stroke-linejoin="round" stroke-miterlimit="10" d="
		M99.505,317"/>
	
		<polygon fill="none" stroke="#231F20" stroke-width="1.5" stroke-linecap="round" stroke-linejoin="round" stroke-miterlimit="10" points="
		265.176,293.296 264.505,315 335.879,315 335.879,293 	"/>
	
		<polygon fill="none" stroke="#231F20" stroke-width="1.5" stroke-linecap="round" stroke-linejoin="round" stroke-miterlimit="10" points="
		265.176,265.296 264.505,287 335.879,287 335.879,265 	"/>
	<rect x="133.879" y="182" fill="#FFFFFF" width="289" height="39"/>
	<path fill="none" stroke="#231F20" stroke-width="1.5" stroke-linecap="round" stroke-linejoin="round" stroke-miterlimit="10" d="
		M407.879,182H240.244c0,0-55.424,0.294-73.086,0c-17.664-0.294-40.476,0-40.476,0"/>
	<path fill="none" stroke="#231F20" stroke-width="1.5" stroke-linecap="round" stroke-linejoin="round" stroke-miterlimit="10" d="
		M422.879,221H246.085c0,0-58.274,0.294-76.849,0c-18.571-0.294-42.292,0-42.292,0"/>
</g>
<path fill="#8B5E3C" stroke="#231F20" stroke-width="1.5" stroke-miterlimit="10" d="M147.852,170.247
	c0.373-2.82-1.628,11.884,9.396,12.914c7.22,0.675,12.748-2.55,13.149-3.086c0.402-0.537-0.135-13.285,3.086-14.358
	c3.221-1.072,4.159-0.134,3.758,1.61c-0.402,1.745-4.965,7.112-4.025,9.393c0.938,2.281,2.858,3.086,4.112,2.147
	c1.254-0.939,5.198-0.063,2.999,2.415c-2.147,2.419-7.483,0.622-7.483,0.622s-8.986,5.023-14.932,4.669
	c-6.793-0.405-11.032-5.109-12.203-8.243c-0.991-2.652-1.01-9.11-1.01-9.11L147.852,170.247z"/>
<g>
	<ellipse opacity="0.7" fill="#FFFFFF" enable-background="new    " cx="215.619" cy="182.257" rx="6.494" ry="1.461"/>
	<path fill="none" stroke="#231F20" stroke-width="1.2" stroke-miterlimit="10" d="M208.098,168.277c0,0,0.551,15.616,2.625,19.613
		c1.465,2.821,8.15,3.032,9.641,0.211c1.857-3.514,3.08-20.357,3.08-20.357"/>
	<path fill="none" stroke="#231F20" stroke-width="1.2" stroke-miterlimit="10" d="M208.098,167.894
		c0,1.182,2.773,2.142,7.638,2.142c4.866,0,7.708-0.959,7.708-2.142c0-1.182-2.842-2.141-7.708-2.141
		C210.871,165.752,208.098,166.712,208.098,167.894z"/>
	<path fill="none" stroke="#231F20" stroke-width="1.2" stroke-miterlimit="10" d="M209.269,176.954
		c0,1.014,2.378,1.836,6.547,1.836c4.171,0,6.606-0.822,6.606-1.836c0-1.013-2.437-1.835-6.606-1.835
		C211.646,175.118,209.269,175.94,209.269,176.954z"/>
</g>
<g>
	
		<ellipse fill="none" stroke="#231F20" stroke-width="1.3" stroke-miterlimit="10" cx="274.611" cy="192.672" rx="50.179" ry="14.566"/>
	<path fill="#F9BF76" stroke="#231F20" stroke-miterlimit="10" d="M310.21,173.625c-24.162-7.817-70.324-1.739-71.893,0.143
		c-3.477,4.174-4.555,14.199-1.818,17.338c0.381,0.437,5.1,7.26,37.796,7.455c20.752,0.124,35.716-3.278,37.239-7.444
		c0.043-0.039,0.093-0.078,0.13-0.116C314.616,188.052,314.237,174.928,310.21,173.625z"/>
	
		<ellipse fill="#FFFFFF" stroke="#231F20" stroke-width="1.3" stroke-miterlimit="10" cx="274.294" cy="174.469" rx="36.127" ry="7.822"/>
	<path fill="#8B5E3C" d="M236.547,173.664c-1.419,1.506-1.953,6.039-2.333,8.12c-0.116,0.637,0.741,4.236,2.333,0.927
		c1.783-3.707,2.732-4.128,4-3.931c2.094,0.328,0.556,9.672,2.833,10.142c3.227,0.665,2.678-3.304,5.345-5.207
		c2.667-1.903,8.529-1.389,8.822,3.823c0.175,3.114,0.507,4.108,2.084,4.716c2.727,1.052,3.583-3.16,3.916-4.543
		s0.771-3.328,2.833-1.903c1.17,0.809,0.334,1.21,1.334,2.941s2.242,1.574,3.333,0.519c1.207-1.167,0.707-2.53,2.5-2.422
		c2.521,0.153,1.063,5.715,4.333,5.715c5.243,0,6.334-5.888,7.334-6.061s0.166,1.384,3.166,3.633s1.749,6.153,5.5,5.363
		c3.397-0.716,1.67-7.791,1.999-11.425c0.375-4.146,4.437-3.142,5.335,0.904c1.04,4.682,8.478,5.979,7.5-1.26
		c-0.301-2.217-0.917-4.482,1.708-2.925s1.896,4.284,3.178,4.185c3.011-0.233,0-11.928-3.945-13.732
		c-2.96-1.354-13.937-5.415-33.773-5.699C260.411,165.323,241.963,167.917,236.547,173.664z"/>
	<g>
		
			<ellipse fill="#ED1C24" stroke="#231F20" stroke-width="0.75" stroke-miterlimit="10" cx="274.864" cy="166.632" rx="4.052" ry="3.697"/>
		
			<path fill="#ED1C24" stroke="#231F20" stroke-width="0.75" stroke-linecap="round" stroke-linejoin="round" stroke-miterlimit="10" d="
			M274.045,164.398c1.496,1.187,2.271,0.464,2.271,0.464"/>
		
			<path fill="none" stroke="#231F20" stroke-width="0.75" stroke-linecap="round" stroke-linejoin="round" stroke-miterlimit="10" d="
			M277.315,160.72c0,0-2.452,2.215-1.964,3.9"/>
	</g>
</g>
<path fill="#FFFFFF" stroke="#231F20" stroke-width="0.75" stroke-miterlimit="10" d="M234.097,18.833
	c-33.838,0-73.017,17.688-72.026,52.729c0.866,30.614,26.942,41.526,49.859,49.166c-1.455,2.644-4.004,5.993-8.463,9.613
	c-9.057,7.354,14.086-2.497,17.956-7.175l-0.005-0.009c4.092,0.74,8.332,1.135,12.679,1.135c33.881,0,80.932-11.4,81.141-52.729
	C315.436,32.943,287.212,18.832,234.097,18.833z"/>
<text transform="matrix(1 0 0 1 194.4382 46.1968)" fill="#231F20" font-family="'JandaCapslock'" font-size="10.4404">Terminamos! Mas </text>
<text transform="matrix(1 0 0 1 182.0852 59.4849)" fill="#231F20" font-family="'JandaCapslock'" font-size="10.4404">agora preciso ir que </text>
<text transform="matrix(1 0 0 1 187.071 72.7729)" fill="#231F20" font-family="'JandaCapslock'" font-size="10.4404">minha mãe está me </text>
<text transform="matrix(1 0 0 1 174.0105 86.0601)" fill="#231F20" font-family="'JandaCapslock'" font-size="10.4404">esperando. Vou avisá-la </text>
<text transform="matrix(1 0 0 1 191.7102 99.3481)" fill="#231F20" font-family="'JandaCapslock'" font-size="10.4404">que já estou indo.</text>
<path fill="#FFFFFF" stroke="#231F20" stroke-width="0.75" stroke-miterlimit="10" d="M388.09,18.626
	c-28.797,0-62.142,15.24-61.299,45.433c0.737,26.378,22.931,35.78,42.434,42.363c-1.238,2.278-3.407,5.164-7.202,8.283
	c-7.708,6.336,11.988-2.151,15.281-6.182l-0.004-0.008c3.481,0.637,7.091,0.978,10.79,0.978c28.834,0,68.877-9.823,69.055-45.434
	C457.313,30.785,433.294,18.626,388.09,18.626z"/>
<text transform="matrix(1 0 0 1 344.8665 48.8628)" fill="#231F20" font-family="'JandaCapslock'" font-size="10.4404">Certo, vou dividir </text>
<text transform="matrix(1 0 0 1 342.9202 62.1509)" fill="#231F20" font-family="'JandaCapslock'" font-size="10.4404">meio a meio para </text>
<text transform="matrix(1 0 0 1 342.4856 75.439)" fill="#231F20" font-family="'JandaCapslock'" font-size="10.4404">você levar a sua </text>
<text transform="matrix(1 0 0 1 345.219 88.7261)" fill="#231F20" font-family="'JandaCapslock'" font-size="10.4404">metade com você.</text>
</svg>
