<?xml version="1.0" encoding="utf-8"?>
<!-- Generator: Adobe Illustrator 16.0.0, SVG Export Plug-In . SVG Version: 6.00 Build 0)  -->
<!DOCTYPE svg PUBLIC "-//W3C//DTD SVG 1.1//EN" "http://www.w3.org/Graphics/SVG/1.1/DTD/svg11.dtd">
<svg version="1.1" id="Layer_1" xmlns="http://www.w3.org/2000/svg" xmlns:xlink="http://www.w3.org/1999/xlink" x="0px" y="0px"
	 width="595.279px" height="841.89px" viewBox="0 0 595.279 841.89" enable-background="new 0 0 595.279 841.89"
	 xml:space="preserve">
<g>
	<polygon fill="#231F20" stroke="#231F20" stroke-width="1.5" stroke-miterlimit="10" points="414.589,156.33 413.701,167.853 
		437.428,166.363 434.211,156.22 	"/>
	<path fill="none" stroke="#231F20" stroke-width="2" stroke-linecap="round" stroke-linejoin="round" stroke-miterlimit="10" d="
		M382.045,78.498c12.764-12.117,24.282-0.961,24.282-0.961s2.139-5.096,5.088-6.121"/>
	<path fill="none" stroke="#231F20" stroke-width="2" stroke-linecap="round" stroke-linejoin="round" stroke-miterlimit="10" d="
		M377.543,76.843c14.449-9.795,28.784,0.693,28.784,0.693c2.771-2.279,5.08-1.535,6.871,0.092"/>
	<path fill="none" stroke="#231F20" stroke-width="1.5" stroke-linecap="round" stroke-linejoin="round" stroke-miterlimit="10" d="
		M113.938,122.207h204.074c0,0,67.278,0.295,88.721,0c21.441-0.293,48.841,0,48.841,0"/>
	<path fill="none" stroke="#231F20" stroke-width="1.5" stroke-linecap="round" stroke-linejoin="round" stroke-miterlimit="10" d="
		M455.149,130.207H251.495c0,0-67.275,0.295-88.718,0c-21.442-0.293-49.052,0-49.052,0"/>
	
		<line fill="none" stroke="#231F20" stroke-width="1.5" stroke-linecap="round" stroke-linejoin="round" stroke-miterlimit="10" x1="241.727" y1="35.207" x2="241.727" y2="122.207"/>
	
		<line fill="none" stroke="#231F20" stroke-width="1.5" stroke-linecap="round" stroke-linejoin="round" stroke-miterlimit="10" x1="374.727" y1="35.207" x2="374.727" y2="122.207"/>
	
		<line fill="none" stroke="#231F20" stroke-width="1.5" stroke-linecap="round" stroke-linejoin="round" stroke-miterlimit="10" x1="305.727" y1="35.207" x2="305.727" y2="122.207"/>
	
		<line fill="none" stroke="#231F20" stroke-width="1.5" stroke-linecap="round" stroke-linejoin="round" stroke-miterlimit="10" x1="310.727" y1="35.207" x2="310.727" y2="122.207"/>
	<rect x="293.727" y="64.207" fill="#231F20" width="3" height="19"/>
	<rect x="317.727" y="64.207" fill="#231F20" width="3" height="19"/>
	
		<path fill="#F9BF76" stroke="#231F20" stroke-width="1.5" stroke-linecap="round" stroke-linejoin="round" stroke-miterlimit="10" d="
		M411.121,130.333c0,0-1.189,12.756-2.28,16.305c-1.179,3.828-1.156,7.084-2.217,7.521c-1.059,0.436-4.164,0.92-6.514,3.287
		c-3.078,3.098-5.379,5.57-3.478,10.125c0.826,1.975,2.931,2.66,3.713,1.084c0.779-1.574,1.388-4.895,1.9-7.162
		c0.425-1.893,4.115-4.146,5.613-2.734c1.501,1.408,0.278,6.434,2.522,7.367c2.247,0.934,3.205-0.902,3.082-2.314
		c-0.123-1.418-0.922-4.168-2.027-5.773c-1.106-1.609-1.452-1.725-1.188-2.553c1.789-5.633,6.217-24.332,6.213-25.707
		L411.121,130.333z"/>
	<path fill="none" stroke="#231F20" stroke-width="2" stroke-linecap="round" stroke-linejoin="round" stroke-miterlimit="10" d="
		M414.425,124.32"/>
	
		<ellipse transform="matrix(-0.2006 0.9797 -0.9797 -0.2006 593.9808 -292.5859)" fill="#F9BF76" stroke="#231F20" stroke-width="1.5" stroke-linecap="round" stroke-linejoin="round" stroke-miterlimit="10" cx="416.366" cy="96.053" rx="5.093" ry="4.979"/>
	<path fill="#F9BF76" d="M381.888,109.98c1.099,1.996,2.55,4.084,6.354,6.543c6.104,3.941,23.779,0.881,27.665-10.584
		c2.519-7.434,0.783-18.58-6.342-25.818c-10.096-10.258-25.185-2.184-28.544,4.199C380.433,85.433,373.229,94.197,381.888,109.98z"
		/>
	<path fill="#231F20" d="M391.823,93.537c0.072,1.918-0.619,3.494-1.54,3.527c-0.919,0.035-1.724-1.486-1.795-3.406
		c-0.07-1.912,0.619-3.486,1.541-3.521C390.948,90.103,391.751,91.625,391.823,93.537z"/>
	<path fill="#231F20" d="M382.823,93.537c0.072,1.918-0.619,3.494-1.54,3.527c-0.919,0.035-1.724-1.486-1.795-3.406
		c-0.07-1.912,0.619-3.486,1.541-3.521C381.948,90.103,382.751,91.625,382.823,93.537z"/>
	<path fill="none" stroke="#231F20" stroke-width="1.5" stroke-linecap="round" stroke-linejoin="round" stroke-miterlimit="10" d="
		M389.648,111.873c8.854,2.744,14.798-1.283,16.681-3.336"/>
	
		<ellipse transform="matrix(-0.2006 0.9797 -0.9797 -0.2006 562.0609 -247.5114)" fill="#F9BF76" cx="382.012" cy="105.558" rx="4.508" ry="5.768"/>
	<path fill="none" stroke="#231F20" stroke-width="1.5" stroke-linecap="round" stroke-linejoin="round" stroke-miterlimit="10" d="
		M384.24,99.171c0,0-8.104,1.049-8.174,5.389c-0.104,6.355,8.478,5.584,9.87,4.807"/>
	<path fill="none" stroke="#231F20" stroke-width="2" stroke-linecap="round" stroke-linejoin="round" stroke-miterlimit="10" d="
		M388.213,81.289c10.897-10.521,24.41-1.039,24.41-1.039"/>
	<path fill="none" stroke="#231F20" stroke-width="1.5" stroke-linecap="round" stroke-linejoin="round" stroke-miterlimit="10" d="
		M405.209,106.492c0,0,2.063,3.127,4.117,3.648"/>
	<path fill="none" stroke="#231F20" stroke-width="1.5" stroke-linecap="round" stroke-linejoin="round" stroke-miterlimit="10" d="
		M381.825,84.32c1.447-7.068,18.449-14.457,28.544-4.199c7.125,7.238,8.86,18.387,6.342,25.818
		c-3.886,11.465-21.56,14.525-27.665,10.584c-3.804-2.459-6.352-6.543-6.352-6.543"/>
	
		<path fill="#FFFFFF" stroke="#231F20" stroke-width="1.5" stroke-linecap="round" stroke-linejoin="round" stroke-miterlimit="10" d="
		M408.37,115.892c0.752,6.219-5.72,20.021-5.72,20.021s6.719,3.074,8.478,2.586c0.458-0.125,3.332-5.23,3.332-5.23
		s1.188,1.223,2.702,2.676c3.41,3.268-1.573,20.385-1.573,20.385s19.622,2.059,19.622-0.107c0.001-24.564-18.545-41.23-20.652-42.98
		S408.157,114.13,408.37,115.892z"/>
	<rect x="291.727" y="245.207" fill="#231F20" width="3" height="19"/>
	
		<line fill="none" stroke="#231F20" stroke-width="1.5" stroke-linecap="round" stroke-linejoin="round" stroke-miterlimit="10" x1="167.727" y1="35.207" x2="167.727" y2="122.207"/>
	
		<line fill="none" stroke="#231F20" stroke-width="1.5" stroke-linecap="round" stroke-linejoin="round" stroke-miterlimit="10" x1="172.727" y1="35.207" x2="172.727" y2="122.207"/>
	<rect x="155.727" y="64.207" fill="#231F20" width="3" height="19"/>
	<rect x="179.727" y="64.207" fill="#231F20" width="3" height="19"/>
	<g>
		<path fill="#8B5E3C" stroke="#231F20" stroke-width="1.5" stroke-miterlimit="10" d="M148.868,142.947
			c0,0-1.589,10.438,5.65,13.355c3.969,1.602,16.114,5.443,17.988,4.123c0,0,2.717-4.039,6.051-5.018
			c3.336-0.977,5.035,0.051,4.942,2.047c-0.057,1.242,0.81,0.049,1.525,1.492c0.714,1.441,0.027,2.527-0.238,2.924
			c-0.284,0.424,1.722,0.213,0.824,2.23c-1.249,2.809-6.494,3.215-9.925-0.641c-1.061-1.191-11.891-1.049-14.709-1.822
			c-6.805-1.863-14.042-6.789-14.818-11.57C145.537,146.246,148.868,142.947,148.868,142.947z"/>
		
			<ellipse fill="#8B5E3C" stroke="#231F20" stroke-width="1.5" stroke-miterlimit="10" cx="140.893" cy="114.691" rx="5.545" ry="5.033"/>
		
			<ellipse fill="#8B5E3C" stroke="#231F20" stroke-width="1.5" stroke-miterlimit="10" cx="161.986" cy="112.388" rx="18.682" ry="20.643"/>
		
			<path fill="#615375" stroke="#231F20" stroke-width="1.5" stroke-linecap="round" stroke-linejoin="round" stroke-miterlimit="10" d="
			M152.428,132.166l-1.385,17.154l-3.886-0.516l-0.854,18.824c0,0-12.261,0.922-14.276-0.977c-1.91-1.797,3.321-19.596,3.321-19.596
			l-2.279-1.135l14.499-18.029L152.428,132.166z"/>
		<path fill="none" stroke="#231F20" stroke-width="2" stroke-linecap="round" stroke-linejoin="round" stroke-miterlimit="10" d="
			M177.128,150.378"/>
		
			<path fill="none" stroke="#231F20" stroke-width="1.5" stroke-linecap="round" stroke-linejoin="round" stroke-miterlimit="10" d="
			M179.202,157.505c0,0-1.741,2.934,0.652,3.344c0.604,0.105,3.119-0.941,3.76-2.84"/>
		<path fill="#8B5E3C" stroke="#231F20" stroke-width="1.5" stroke-miterlimit="10" d="M180.46,161.33c0,0-1.112,2.375,0.606,2.664
			c0.605,0.104,2.791-0.66,3.806-2.16"/>
		
			<ellipse transform="matrix(0.3198 -0.9475 0.9475 0.3198 -30.7588 269.9557)" fill="#8B5E3C" stroke="#231F20" stroke-width="1.5" stroke-miterlimit="10" cx="172.641" cy="156.401" rx="2.858" ry="2.705"/>
		<path fill="#231F20" d="M173.85,106.884c0,1.41,0.675,2.559,1.51,2.559c0.836,0,1.511-1.148,1.511-2.559
			c0-1.412-0.675-2.553-1.511-2.553C174.525,104.332,173.85,105.472,173.85,106.884z"/>
		<path fill="#231F20" d="M161.85,106.884c0,1.41,0.675,2.559,1.51,2.559c0.836,0,1.511-1.148,1.511-2.559
			c0-1.412-0.675-2.553-1.511-2.553C162.525,104.332,161.85,105.472,161.85,106.884z"/>
		
			<line fill="none" stroke="#231F20" stroke-width="2" stroke-linecap="round" stroke-linejoin="round" stroke-miterlimit="10" x1="165.294" y1="101.638" x2="159.092" y2="101.417"/>
		
			<line fill="none" stroke="#231F20" stroke-width="2" stroke-linecap="round" stroke-linejoin="round" stroke-miterlimit="10" x1="179.406" y1="101.203" x2="173.234" y2="101.853"/>
		
			<path fill="none" stroke="#231F20" stroke-width="1.5" stroke-linecap="round" stroke-linejoin="round" stroke-miterlimit="10" d="
			M168.894,127.896c-6.59,3.354-14.313-2.393-14.52-6.83"/>
		
			<polyline fill="none" stroke="#231F20" stroke-width="2" stroke-linecap="round" stroke-linejoin="round" stroke-miterlimit="10" points="
			172.85,91.025 170.975,93.255 163.393,87.972 160.441,91.748 155.15,89.046 		"/>
		
			<polyline fill="none" stroke="#231F20" stroke-width="2" stroke-linecap="round" stroke-linejoin="round" stroke-miterlimit="10" points="
			151.727,90.207 151.727,94.146 145.352,94.949 146.263,98.169 140.454,105.326 		"/>
		<ellipse fill="#8B5E3C" cx="179.538" cy="117.399" rx="5.495" ry="4.306"/>
		
			<path fill="none" stroke="#231F20" stroke-width="1.5" stroke-linecap="round" stroke-linejoin="round" stroke-miterlimit="10" d="
			M174.043,112.767c0,0,10.96-2.295,10.989,4.799c0.025,6.348-10.016,4.123-10.989,4.123"/>
		
			<polyline fill="none" stroke="#231F20" stroke-width="1.5" stroke-linecap="round" stroke-linejoin="round" stroke-miterlimit="10" points="
			147.68,133.736 141.44,149.076 135.183,146.974 		"/>
	</g>
	<path fill="none" stroke="#231F20" stroke-width="1.5" stroke-linecap="round" stroke-linejoin="round" stroke-miterlimit="10" d="
		M472.727,204.207H258.583c0,0-70.585,0.295-93.082,0c-22.494-0.293-51.227,0-51.227,0"/>
	<rect x="339.727" y="222.207" fill="#231F20" width="19" height="3"/>
	<rect x="339.727" y="252.207" fill="#231F20" width="19" height="3"/>
	<rect x="339.727" y="281.207" fill="#231F20" width="19" height="3"/>
	<rect x="404.727" y="245.207" fill="#231F20" width="3" height="19"/>
	
		<polygon fill="none" stroke="#231F20" stroke-width="1.5" stroke-linecap="round" stroke-linejoin="round" stroke-miterlimit="10" points="
		315.024,213.503 314.353,235.207 385.727,235.207 385.727,213.207 	"/>
	
		<polygon fill="none" stroke="#231F20" stroke-width="1.5" stroke-linecap="round" stroke-linejoin="round" stroke-miterlimit="10" points="
		399.024,213.433 398.353,295.207 469.727,295.207 469.727,213.207 	"/>
	
		<polygon fill="none" stroke="#231F20" stroke-width="1.5" stroke-linecap="round" stroke-linejoin="round" stroke-miterlimit="10" points="
		231.024,213.433 230.353,295.207 301.727,295.207 301.727,213.207 	"/>
	<rect x="159.727" y="245.207" fill="#231F20" width="3" height="19"/>
	<rect x="134.727" y="245.207" fill="#231F20" width="3" height="19"/>
	
		<polygon fill="none" stroke="#231F20" stroke-width="1.5" stroke-linecap="round" stroke-linejoin="round" stroke-miterlimit="10" points="
		223.055,213.433 223.726,295.207 152.352,295.207 152.352,213.207 	"/>
	
		<polyline fill="none" stroke="#231F20" stroke-width="1.5" stroke-linecap="round" stroke-linejoin="round" stroke-miterlimit="10" points="
		113.418,295.207 144.727,295.207 144.727,213.207 113.187,213.433 	"/>
	<path fill="none" stroke="#231F20" stroke-width="1.5" stroke-linecap="round" stroke-linejoin="round" stroke-miterlimit="10" d="
		M149.353,295.207"/>
	
		<polygon fill="none" stroke="#231F20" stroke-width="1.5" stroke-linecap="round" stroke-linejoin="round" stroke-miterlimit="10" points="
		315.024,271.503 314.353,293.207 385.727,293.207 385.727,271.207 	"/>
	
		<polygon fill="none" stroke="#231F20" stroke-width="1.5" stroke-linecap="round" stroke-linejoin="round" stroke-miterlimit="10" points="
		315.024,243.503 314.353,265.207 385.727,265.207 385.727,243.207 	"/>
	<rect x="107.727" y="160.207" fill="#FFFFFF" width="365" height="39"/>
	<path fill="none" stroke="#231F20" stroke-width="1.5" stroke-linecap="round" stroke-linejoin="round" stroke-miterlimit="10" d="
		M454.558,160.207H251.51c0,0-67.132,0.295-88.525,0c-21.396-0.293-49.025,0-49.025,0"/>
	<path fill="none" stroke="#231F20" stroke-width="1.5" stroke-linecap="round" stroke-linejoin="round" stroke-miterlimit="10" d="
		M472.727,199.207H258.583c0,0-70.585,0.295-93.082,0c-22.494-0.293-51.227,0-51.227,0"/>
	<g>
		<ellipse opacity="0.7" fill="#FFFFFF" enable-background="new    " cx="261.467" cy="160.464" rx="6.494" ry="1.461"/>
		<path fill="none" stroke="#231F20" stroke-width="1.2" stroke-miterlimit="10" d="M253.946,146.484c0,0,0.551,15.615,2.625,19.613
			c1.465,2.82,8.15,3.031,9.641,0.211c1.857-3.514,3.08-20.357,3.08-20.357"/>
		<path fill="none" stroke="#231F20" stroke-width="1.2" stroke-miterlimit="10" d="M253.946,146.101
			c0,1.184,2.773,2.143,7.638,2.143c4.866,0,7.708-0.959,7.708-2.143c0-1.182-2.842-2.143-7.708-2.143
			C256.719,143.958,253.946,144.919,253.946,146.101z"/>
		<path fill="none" stroke="#231F20" stroke-width="1.2" stroke-miterlimit="10" d="M255.116,155.16
			c0,1.016,2.378,1.836,6.547,1.836c4.171,0,6.606-0.82,6.606-1.836c0-1.012-2.437-1.834-6.606-1.834
			S255.116,154.148,255.116,155.16z"/>
	</g>
	
		<ellipse fill="none" stroke="#231F20" stroke-width="1.3" stroke-miterlimit="10" cx="332.458" cy="170.879" rx="50.179" ry="14.565"/>
	<path fill="#F9BF76" stroke="#231F20" stroke-miterlimit="10" d="M368.058,151.832c-24.162-7.816-70.324-1.738-71.893,0.143
		c-3.477,4.176-4.555,14.199-1.818,17.34c0.381,0.438,5.1,7.26,37.796,7.455c20.752,0.121,35.716-3.279,37.239-7.445
		c0.043-0.037,0.093-0.076,0.13-0.115C372.464,166.259,372.084,153.134,368.058,151.832z"/>
	
		<ellipse fill="#FFFFFF" stroke="#231F20" stroke-width="1.3" stroke-miterlimit="10" cx="332.142" cy="152.676" rx="36.127" ry="7.821"/>
	<path fill="#DD9F5B" stroke="#231F20" stroke-width="1.5" stroke-miterlimit="10" d="M92.137,146.437"/>
	<g>
		<path fill="#58595B" stroke="#231F20" stroke-miterlimit="10" d="M155.224,123.845c1.014,2.418-0.245,3.625-2.664,4.641
			l-0.46,0.191c-2.42,1.014-5.086,1.451-6.101-0.969l-7.149-17.063c-1.015-2.418,1.555-3.092,3.973-4.104l0.462-0.193
			c2.42-1.014,3.776-1.986,4.79,0.434L155.224,123.845z"/>
		
			<ellipse transform="matrix(-0.3862 -0.9224 0.9224 -0.3862 97.8788 287.4084)" fill="#231F20" cx="144.568" cy="111.137" rx="1.119" ry="1.106"/>
	</g>
	<path fill="#8B5E3C" stroke="#231F20" stroke-width="1.5" stroke-miterlimit="10" d="M156.947,124.05
		c-0.512-3.271-3.698-0.787-3.771,0.777c-0.073,1.564-1.916,2.533-4.273,1.807c-2.355-0.727-3.595-7.66-4.685-9.082
		c-1.091-1.42-2.412-1.293-3.634,1.875c-1.221,3.166,7.955,10.863,8.113,11.516c0.158,0.65-5.264,9.92-8.394,16.461
		c-1.124,2.35-1.192,2.207-1.698,0.58l-4.736-1.547c-0.375,0.217,0.439,0.488,0.743,0.826c2.237,2.488,2.771,10.068,7.405,5.086
		c4.056-4.361,10.646-22.129,10.646-22.129S157.446,127.246,156.947,124.05z"/>
	<g>
		<path fill="#BCBEC0" stroke="#939598" stroke-linecap="round" stroke-linejoin="round" stroke-miterlimit="10" d="
			M341.199,175.712l41.358-13.91l-7.494-2.764c0,0-16.363,4.227-25.68,8.338C340.182,171.437,341.199,175.712,341.199,175.712z"/>
		<path fill="#8B5E3C" stroke="#754C29" stroke-linecap="round" stroke-linejoin="round" stroke-miterlimit="10" d="M384.346,160.75
			l13.534-5.645c0,0-2.993-3.303-3.514-3.059c-0.521,0.244-0.782,1.195-3.254,2.676s-2.733,2.115-6.768,2.748
			c-4.033,0.635-7.025,1.059-7.025,1.059L384.346,160.75z"/>
	</g>
	<g>
		
			<path fill="#F9BF76" stroke="#231F20" stroke-width="1.5" stroke-linecap="round" stroke-linejoin="round" stroke-miterlimit="10" d="
			M390.497,155.269c0,0-7.563-3.395-9.428-2.828c-2.465,0.75-2.32,2.359-1.248,3.107c1.07,0.744,2.914,0.957,4.701,1.557
			c1.788,0.598,2.271,2.994,0.916,3.619c-1.355,0.623-4.926,2.553-5.739,2.938c-0.815,0.387-3.396,2.455-1.7,3.547
			c1.693,1.09,6.61,0.293,6.61,0.293c0.225-0.389,0.898,1.82,3.615,0.025c2.716-1.793,5.119-5.635,3.897-9.369
			c-0.551-1.682,8.126-1.943,11.142-6.6c3.339-5.152,7.375-13.008,7.375-13.008l-5.82-1.711c0,0-5.022,14.443-6.732,15.203
			C396.376,152.796,390.497,155.269,390.497,155.269z"/>
		
			<path fill="none" stroke="#231F20" stroke-width="1.5" stroke-linecap="round" stroke-linejoin="round" stroke-miterlimit="10" d="
			M379.545,167.746c0,0,4.837,1.199,9.706-4.879"/>
	</g>
	<path fill="none" stroke="#FFDFB0" stroke-width="2" stroke-linecap="round" stroke-linejoin="round" stroke-miterlimit="10" d="
		M323.354,171.648c22.902,3.184,47.845-9.365,47.845-9.365"/>
	<path fill="#F9BF76" d="M338.018,170.378c1.284-2.863,15.101-7.188,15.101-7.188l14.453-3.629l3.137-0.756
		c0,0,0.864,2.205,0.49,2.813C368.952,165.263,337.448,171.648,338.018,170.378z"/>
	<path fill="#8B5E3C" d="M294.395,151.871c-1.419,1.506-1.953,6.039-2.333,8.121c-0.116,0.637,0.741,4.236,2.333,0.926
		c1.783-3.707,2.732-4.129,4-3.93c2.094,0.326,0.556,9.672,2.833,10.141c3.227,0.666,2.678-3.305,5.345-5.207
		c2.667-1.9,8.529-1.389,8.822,3.822c0.175,3.115,0.507,4.109,2.084,4.717c2.727,1.053,3.583-3.16,3.916-4.543
		c0.333-1.385,0.771-3.328,2.833-1.902c1.17,0.809,0.334,1.209,1.334,2.939s2.241,1.574,3.333,0.52
		c1.207-1.168,0.707-2.529,2.5-2.422c2.521,0.152,1.063,5.717,4.333,5.717c5.243,0,6.334-5.891,7.334-6.063
		c1-0.174,0.166,1.385,3.166,3.633c3,2.25,1.749,6.154,5.5,5.363c3.397-0.715,1.67-7.791,1.999-11.426
		c0.375-4.146,4.437-3.143,5.335,0.904c1.04,4.684,8.478,5.98,7.5-1.26c-0.301-2.217-0.917-4.482,1.708-2.926
		s1.896,4.285,3.178,4.186c3.011-0.232,0-11.928-3.945-13.732c-2.96-1.354-13.937-5.414-33.773-5.697
		C318.258,143.529,299.811,146.125,294.395,151.871z"/>
	<g>
		
			<ellipse fill="#ED1C24" stroke="#231F20" stroke-width="0.75" stroke-miterlimit="10" cx="332.711" cy="143.84" rx="4.051" ry="3.696"/>
		
			<path fill="#ED1C24" stroke="#231F20" stroke-width="0.75" stroke-linecap="round" stroke-linejoin="round" stroke-miterlimit="10" d="
			M331.893,141.605c1.496,1.188,2.271,0.465,2.271,0.465"/>
		
			<path fill="none" stroke="#231F20" stroke-width="0.75" stroke-linecap="round" stroke-linejoin="round" stroke-miterlimit="10" d="
			M335.162,137.927c0,0-2.452,2.215-1.964,3.898"/>
	</g>
</g>
</svg>
