<?xml version="1.0" encoding="utf-8"?>
<!-- Generator: Adobe Illustrator 16.0.0, SVG Export Plug-In . SVG Version: 6.00 Build 0)  -->
<!DOCTYPE svg PUBLIC "-//W3C//DTD SVG 1.1//EN" "http://www.w3.org/Graphics/SVG/1.1/DTD/svg11.dtd">
<svg version="1.1" id="Layer_1" xmlns="http://www.w3.org/2000/svg" xmlns:xlink="http://www.w3.org/1999/xlink" x="0px" y="0px"
	 width="595.279px" height="841.89px" viewBox="0 0 595.279 841.89" enable-background="new 0 0 595.279 841.89"
	 xml:space="preserve">
<path fill="none" stroke="#231F20" stroke-width="1.5" stroke-linecap="round" stroke-linejoin="round" stroke-miterlimit="10" d="
	M431.814,256.723H379.04h-31.158H194.203h-34.121c0,0-88.726,2.461-99.096-0.121"/>
<path fill="none" stroke="#231F20" stroke-width="2" stroke-linecap="round" stroke-linejoin="round" stroke-miterlimit="10" d="
	M441.642,201.303"/>
<polyline fill="none" stroke="#231F20" stroke-width="2" stroke-linecap="round" stroke-linejoin="round" stroke-miterlimit="10" points="
	446.513,119.403 455.661,149.186 466.945,145.207 448.531,109 "/>
<polyline fill="none" stroke="#231F20" stroke-width="2" stroke-linecap="round" stroke-linejoin="round" stroke-miterlimit="10" points="
	445.072,149.186 439.353,148.186 439.353,117.353 "/>
<path fill="#FFFFFF" d="M439.909,176.863c-1.871,1.549,0.221,3.363,3.623,3.161c3.404-0.201,8.695-3.889,8.695-3.889
	c-0.145-2.425-0.604-3.536-4.006-3.336S440.452,176.413,439.909,176.863z"/>
<ellipse transform="matrix(0.7779 0.6284 -0.6284 0.7779 217.2917 -242.1961)" fill="#FFFFFF" cx="451.238" cy="186.266" rx="4.397" ry="6.17"/>
<path fill="#231F20" d="M443.63,183.066c0,0-2.404,39.237-2.363,52.519c0.021,7.607,1.021,36.852,1.021,36.852h7.906
	c0,0-0.895-48.525,0-52.76c0.846-4,1.725-20.521,3.174-23.451c2.012-4.053-0.066-2.26-0.338,0.566
	c-0.115,1.188-1.049,15.965-0.676,21.635c0.377,5.67,2.389,28.496,3.58,37.152c0.127,0.912,1.271,18.35,1.271,18.35
	s6.977,1.178,8.057,0.746c1.078-0.432-2.387-28.348-2.982-35.361c-0.6-7.012,2.834-52.815,2.834-52.815l-0.299-5.374L443.63,183.066
	z"/>
<path fill="#DD9F5B" stroke="#231F20" stroke-width="1.5" stroke-linecap="round" stroke-linejoin="round" stroke-miterlimit="10" d="
	M458.583,148.155c6.914,14.785,10.949,47.025,10.949,47.025s-11.73,5.598-12.48,7.244c-1.043,2.283,0.512,4.072,1.561,3.795
	s4.186-2.184,5.719-3.043c1.531-0.859,2.238,0,1.742,2.361c-0.5,2.367-3.1,6.201-2.813,8.82c0.311,2.855,2.514,3.68,4.375,2.574
	c2.125-1.262,2.779-12.162,2.779-12.162s-0.309,11.543,0.926,12.635c2.107,1.852,5.152,0.371,5.389-2.074
	c0.219-2.344-2.115-10.412-2.115-10.412s3.76,9.998,6.328,10.342c2.219,0.301,3.807-3.563,0.68-9.482
	c-1.943-3.684-5.908-9.951-7.146-11.168c-1.27-1.25-5.611-35.066-10.463-48.366L458.583,148.155z"/>
<path fill="#DD9F5B" stroke="#231F20" stroke-width="1.5" stroke-linecap="round" stroke-linejoin="round" stroke-miterlimit="10" d="
	M445.005,138.293c-13.35,9.39-44.393,18.988-44.393,18.988s-7.561-10.573-9.313-11.023c-2.43-0.628-3.92,1.212-3.465,2.197
	c0.457,0.985,2.883,3.741,3.994,5.1c1.115,1.358,0.393,2.206-2.023,2.129c-2.414-0.08-6.645-1.97-9.174-1.229
	c-2.756,0.803-3.184,3.116-1.771,4.756c1.615,1.874,12.463,0.615,12.463,0.615s-11.422,1.711-12.279,3.116
	c-1.455,2.398,0.533,5.139,2.982,4.941c2.348-0.193,9.881-3.898,9.881-3.898s-9.188,5.446-9.076,8.037
	c0.092,2.234,4.172,3.125,9.457-0.987c3.287-2.558,8.768-7.554,9.75-8.984c1.006-1.469,33.549-11.645,45.799-18.742L445.005,138.293
	z"/>
<polyline fill="#FFFFFF" stroke="#231F20" stroke-width="1.5" stroke-linecap="round" stroke-linejoin="round" stroke-miterlimit="10" points="
	433.384,148.186 438.208,149.186 442.734,197.922 465.411,187.778 457.685,149.186 458.048,149.186 466.945,145.207 449.126,110.17 
	445.072,113.475 439.353,116.641 432.191,148.186 "/>
<line fill="none" stroke="#231F20" stroke-width="1.5" stroke-linecap="round" stroke-linejoin="round" stroke-miterlimit="10" x1="441.558" y1="129.176" x2="438.927" y2="149.104"/>
<line fill="none" stroke="#231F20" stroke-width="1.5" stroke-linecap="round" stroke-linejoin="round" stroke-miterlimit="10" x1="448.423" y1="123.23" x2="457.972" y2="149.885"/>
<path fill="#DD9F5B" d="M423.552,105.22c1.189,2.51,2.756,5.131,6.871,8.22c6.6,4.955,25.709,1.109,29.91-13.296
	c2.725-9.339,0.848-23.345-6.854-32.438c-10.918-12.889-27.23-2.742-30.865,5.276C421.978,74.381,414.189,85.391,423.552,105.22z"/>
<path fill="none" stroke="#231F20" stroke-width="1.5" stroke-linecap="round" stroke-linejoin="round" stroke-miterlimit="10" d="
	M422.615,71.729c1.563-8.879,19.947-18.163,30.865-5.274c7.701,9.095,9.578,23.1,6.854,32.438
	c-4.201,14.402-23.311,18.25-29.91,13.297c-4.115-3.09-6.871-8.221-6.871-8.221"/>
<path fill="#231F20" d="M422.386,82.239c-0.037,1.973-0.799,3.55-1.695,3.527c-0.896-0.024-1.596-1.639-1.559-3.613
	c0.041-1.976,0.801-3.552,1.699-3.526C421.73,78.652,422.425,80.267,422.386,82.239z"/>
<path fill="#231F20" d="M431.937,82.239c-0.039,1.973-0.801,3.55-1.697,3.527c-0.898-0.024-1.596-1.639-1.559-3.613
	c0.039-1.976,0.801-3.552,1.697-3.526C431.277,78.652,431.974,80.267,431.937,82.239z"/>
<path fill="none" stroke="#231F20" stroke-width="1.5" stroke-linecap="round" stroke-linejoin="round" stroke-miterlimit="10" d="
	M449.2,99.668c-4.152,5.652-12.885,7.083-17.979,4.438"/>
<path fill="#DD9F5B" d="M416.347,101.967c1.762,2.564,6.016,2.943,9.502,0.843c3.486-2.1,4.887-5.88,3.125-8.448
	c-1.758-2.566-6.012-2.945-9.498-0.844C415.988,95.618,414.587,99.401,416.347,101.967z"/>
<path fill="none" stroke="#231F20" stroke-width="1.5" stroke-linecap="round" stroke-linejoin="round" stroke-miterlimit="10" d="
	M425.197,90.174c0,0-10.184,3.827-10.113,9.314c0.105,8.039,10.9,4.582,12.629,3.657"/>
<path fill="#231F20" stroke="#231F20" stroke-width="1.5" stroke-linecap="round" stroke-linejoin="round" stroke-miterlimit="10" d="
	M447.113,57.434c-0.693-0.237-1.209-0.204-1.604,0.009c-0.613-1.878-2.125-3.422-4.82-3.97
	c-15.781-3.212-33.064,12.557-26.176,21.536c1.48,1.931,18.799-1.764,26.523-7.665c1.113-0.85,4.449-1.389,5.256-2.532
	c0.377,1.583,1.523,2.715,2.646,5.705c2.303,6.123,12.615,9.925,13.047,8.191C462.417,76.974,459.859,61.793,447.113,57.434z"/>
<path fill="#DD9F5B" stroke="#231F20" stroke-width="1.5" stroke-miterlimit="10" d="M458.13,81.73
	c-0.609,3.461,1.256,6.829,4.17,7.523c2.912,0.693,5.77-1.552,6.379-5.012c0.611-3.463-1.258-6.833-4.172-7.526
	C461.597,76.022,458.74,78.268,458.13,81.73z"/>
<path fill="#FFFFFF" stroke="#231F20" stroke-width="1.5" stroke-miterlimit="10" d="M460.806,71.413c0,0-7.326-4.958-13.301-7.546
	c-10.035-4.348-17.373-5.079-17.373-5.079l4.195-12.052l28.377,12.339l4.367,1.582L460.806,71.413z"/>
<path fill="#FFFFFF" stroke="#231F20" stroke-width="1.5" stroke-miterlimit="10" d="M442.919,25.129c2.6,0,5,0.615,6.986,1.485
	c3.818-1.141,8.689-1.09,13.566,0.444c8.73,2.746,14.277,9.208,12.902,14.756c7.572,3.382,13.719,10.75,12.605,16.468
	c-1.449,7.445-10.529,8.099-22.092,6.217c-7.436-1.21-13.475-4.773-16.455-9.142c-1.084,0.119-2.195,0.183-3.326,0.183
	c-11.725,0-21.229-6.624-21.229-14.795C425.88,32.574,431.198,25.129,442.919,25.129z"/>
<path fill="none" stroke="#231F20" stroke-width="2" stroke-linecap="round" stroke-linejoin="round" stroke-miterlimit="10" d="
	M203.493,143.289"/>
<path fill="#FFFFFF" stroke="#231F20" stroke-width="0.75" stroke-miterlimit="10" d="M254.746,55.399
	c-21.55,0-43.445,14.844-42.815,44.252c0.551,25.692,14.138,34.85,28.716,41.262c-0.926,2.219-2.547,5.029-5.384,8.067
	c-5.762,6.172,8.96-2.096,11.422-6.022l-0.003-0.007c2.603,0.621,5.3,0.952,8.064,0.952c21.551,0,46.479-9.567,46.614-44.252
	C301.486,67.24,276.296,55.399,254.746,55.399z"/>
<text transform="matrix(1 0 0 1 233.8923 83.3267)" fill="#231F20" font-family="'JandaCapslock'" font-size="10.4404">Bom dia! </text>
<text transform="matrix(1 0 0 1 234.4583 96.6147)" fill="#231F20" font-family="'JandaCapslock'" font-size="10.4404">Metade </text>
<text transform="matrix(1 0 0 1 221.6536 109.9028)" fill="#231F20" font-family="'JandaCapslock'" font-size="10.4404">desta pizza, </text>
<text transform="matrix(1 0 0 1 229.0095 123.1899)" fill="#231F20" font-family="'JandaCapslock'" font-size="10.4404">por favor.</text>
<path fill="#FFFFFF" stroke="#231F20" stroke-width="0.75" stroke-miterlimit="10" d="M361.839,40.042
	c24.996,0,45.26,17.133,45.26,38.269c0,16.257-11.994,30.138-28.902,35.683c1.072,1.918,2.953,4.349,6.242,6.977
	c6.684,5.337-10.393-1.813-13.248-5.208l0.004-0.005c-3.02,0.537-6.148,0.823-9.355,0.823c-24.998,0-45.262-17.133-45.262-38.27
	C316.577,57.175,336.841,40.042,361.839,40.042z"/>
<text transform="matrix(1 0 0 1 335.0364 69.5142)" fill="#231F20" font-family="'JandaCapslock'" font-size="10.4404">É pra já, </text>
<text transform="matrix(1 0 0 1 331.6458 82.8022)" fill="#231F20" font-family="'JandaCapslock'" font-size="10.4404">vou cortar </text>
<text transform="matrix(1 0 0 1 335.3625 96.0903)" fill="#231F20" font-family="'JandaCapslock'" font-size="10.4404">para você!</text>
<polygon fill="#FFFFFF" points="276.275,172.605 264.386,208.081 260.493,260.756 499.697,307.418 517.798,186.383 412.945,170.574 
	292.432,154.046 "/>
<polyline fill="none" stroke="#231F20" stroke-width="1.5" stroke-linecap="round" stroke-linejoin="round" stroke-miterlimit="10" points="
	283.521,158.86 230.74,179.805 517.823,225.469 "/>
<polyline fill="none" stroke="#231F20" stroke-width="2" stroke-linecap="round" stroke-linejoin="round" stroke-miterlimit="10" points="
	230.386,179.757 230.386,191.946 494.243,236.629 "/>
<polyline fill="none" stroke="#231F20" stroke-width="2" stroke-linecap="round" stroke-linejoin="round" stroke-miterlimit="10" points="
	258.389,197.092 262.49,267.295 459.515,307.418 "/>
<ellipse fill="#FFFFFF" cx="352.988" cy="162.926" rx="33.916" ry="16.682"/>
<g>
	<path fill="none" stroke="#231F20" stroke-width="3" stroke-miterlimit="10" d="M296.737,162.301
		c0-10.228,21.012-18.55,46.834-18.55c25.824,0,46.834,8.322,46.834,18.55s-21.01,18.549-46.834,18.549
		C317.749,180.85,296.737,172.528,296.737,162.301z"/>
	<ellipse fill="#F7C434" cx="343.572" cy="162.301" rx="34.93" ry="13.835"/>
	<path fill="#F9BF76" d="M296.737,162.301c0-10.228,21.012-18.55,46.834-18.55c25.824,0,46.834,8.322,46.834,18.55
		s-21.01,18.549-46.834,18.549C317.749,180.85,296.737,172.528,296.737,162.301z M304.628,162.301
		c0,8.505,17.469,15.424,38.943,15.424c21.473,0,38.941-6.919,38.941-15.424s-17.469-15.424-38.941-15.424
		C322.097,146.877,304.628,153.796,304.628,162.301z"/>
	<path fill="#D1313D" d="M347.224,152.082c0.279-0.61-0.744-1.193-2.285-1.304c-1.539-0.11-3.016,0.295-3.293,0.905
		c-0.279,0.611,0.742,1.194,2.285,1.305C345.472,153.098,346.947,152.694,347.224,152.082z"/>
	<path fill="#D1313D" d="M357.181,153.936c-0.367,0.802,0.979,1.569,3.002,1.714s3.961-0.387,4.326-1.188
		c0.363-0.802-0.979-1.568-3.004-1.713C359.484,152.604,357.544,153.134,357.181,153.936z"/>
	<path fill="#D1313D" d="M348.165,157.997c-0.365,0.802,0.98,1.569,3.002,1.714c2.023,0.146,3.961-0.387,4.328-1.188
		c0.363-0.802-0.98-1.569-3.004-1.714C350.468,156.664,348.532,157.196,348.165,157.997z"/>
	<path fill="#D1313D" d="M319.128,167.18c-0.365,0.802,0.979,1.568,3.002,1.713c2.023,0.146,3.961-0.388,4.326-1.188
		c0.367-0.802-0.977-1.568-3.002-1.713C321.431,165.847,319.495,166.378,319.128,167.18z"/>
	<path fill="#D1313D" d="M375.861,161.478c0.455-0.991-1.211-1.942-3.715-2.121c-2.508-0.18-4.906,0.48-5.359,1.473
		c-0.453,0.993,1.213,1.942,3.719,2.121C373.011,163.131,375.409,162.471,375.861,161.478z"/>
	<path fill="#D1313D" d="M331.638,171.615c1.455,0.104,2.846-0.277,3.105-0.853c0.264-0.576-0.701-1.126-2.154-1.23
		c-1.451-0.104-2.842,0.278-3.105,0.854C329.222,170.962,330.187,171.513,331.638,171.615z"/>
	<path fill="#D1313D" d="M317.384,162.208c-0.234,0.515,0.627,1.006,1.926,1.101c1.299,0.092,2.541-0.249,2.775-0.764
		c0.234-0.514-0.629-1.006-1.926-1.1C318.863,161.353,317.618,161.695,317.384,162.208z"/>
	<path fill="#D1313D" d="M356.435,163.866c-1.535-0.11-3.004,0.294-3.279,0.901c-0.277,0.608,0.742,1.19,2.275,1.3
		s3.002-0.294,3.279-0.901C358.988,164.558,357.968,163.976,356.435,163.866z"/>
	<path fill="#D1313D" d="M336.527,157.768c-2.088-0.149-4.088,0.399-4.465,1.229c-0.377,0.826,1.012,1.618,3.1,1.768
		c2.088,0.149,4.086-0.399,4.465-1.228C340.001,158.709,338.616,157.918,336.527,157.768z"/>
	<path fill="#D1313D" d="M330.124,151.907c-2.088-0.149-4.086,0.401-4.465,1.229c-0.377,0.826,1.01,1.619,3.1,1.767
		c2.088,0.149,4.086-0.398,4.465-1.227C333.601,152.848,332.212,152.058,330.124,151.907z"/>
	<path fill="#D1313D" d="M320.769,156.72c-1.785-0.128-3.494,0.341-3.818,1.049c-0.32,0.707,0.863,1.385,2.65,1.512
		c1.785,0.128,3.494-0.343,3.816-1.049C323.74,157.525,322.554,156.847,320.769,156.72z"/>
	<path fill="#D1313D" d="M368.956,168.356c0.35-0.768-0.936-1.502-2.873-1.64c-1.936-0.139-3.791,0.371-4.141,1.138
		c-0.35,0.766,0.938,1.501,2.873,1.64C366.751,169.633,368.607,169.122,368.956,168.356z"/>
	<path fill="#D1313D" d="M352.773,173.128c0.498-1.092-1.334-2.138-4.094-2.335c-2.758-0.198-5.398,0.527-5.896,1.62
		c-0.498,1.093,1.334,2.139,4.092,2.335C349.634,174.945,352.275,174.221,352.773,173.128z"/>
	<path fill="#D1313D" d="M344.484,166.07c0.5-1.093-1.334-2.138-4.092-2.335s-5.398,0.528-5.896,1.621
		c-0.498,1.092,1.334,2.138,4.092,2.335C341.345,167.89,343.986,167.163,344.484,166.07z"/>
</g>
<g>
	<path fill="#A87C4F" stroke="#231F20" stroke-width="1.5" stroke-miterlimit="10" d="M173.751,226.862
		c0,0,6.445,44.395,4.676,45.865c-1.772,1.475,9.038-0.313,9.038-0.313s3.959-30.229,3.055-45.777L173.751,226.862z"/>
	<path fill="#A87C4F" stroke="#231F20" stroke-width="1.5" stroke-miterlimit="10" d="M161.283,227.737
		c0,0-3.042,43.305-3.948,44.713c-1.246,1.938,7.948,1.098,7.948,1.098s12.342-31.898,10.846-45.965L161.283,227.737z"/>
	
		<path fill="#231F20" stroke="#231F20" stroke-width="2" stroke-linecap="round" stroke-linejoin="round" stroke-miterlimit="10" d="
		M178.013,270.543c0,0-5.924,9.449-3.381,12.67c2.018,2.559,6.227,3.059,12.453,3.059c6.229,0,7.54-0.008,11.345,0.021
		c3.232,0.025,9.853-3.521-2.033-10.418c-5.521-3.199-10.378-5.332-10.378-5.332H178.013L178.013,270.543z"/>
	
		<path fill="#231F20" stroke="#231F20" stroke-width="2" stroke-linecap="round" stroke-linejoin="round" stroke-miterlimit="10" d="
		M156.49,273.625c0,0-7.082,10.188-4.467,13.662c2.077,2.758,6.411,3.297,12.823,3.297c6.414,0,7.763-0.008,11.68,0.023
		c3.329,0.025,10.143-3.797-2.096-11.232c-5.683-3.451-10.683-5.75-10.683-5.75H156.49z"/>
	<path fill="#A87C4F" stroke="#231F20" stroke-width="1.5" stroke-miterlimit="10" d="M174.268,174.972
		c0,0,28.639,10.11,29.297,11.333c0.64,1.19,3.813,4.302,6.148,6.557c3.755,3.629,7.008,3.281,7.276,1.557
		c0.308-1.996-6.368-6.987-6.368-6.987s5.543,3.503,7.354,3.848c1.891,0.359,3.678-1.597,2.751-3.577
		c-1.688-3.62-6.009-2.589-9.286-3.444c0,0,8.633,1.628,9.756,0.569c1.627-1.542,1.019-2.683-1.063-3.535
		c-1.9-0.786-5.265,0.025-7.151-0.116c-1.886-0.141-2.374-0.859-1.39-1.819c0.983-0.961,3.114-2.892,3.556-3.616
		c0.439-0.725-0.562-2.275-2.509-1.993c-1.403,0.204-8.209,7.758-8.209,7.758l-25.791-13.556L174.268,174.972z"/>
	
		<polygon fill="#D1313D" stroke="#231F20" stroke-width="1.5" stroke-linecap="round" stroke-linejoin="round" stroke-miterlimit="10" points="
		188.414,169.851 172.327,175.131 168.637,163.506 175.99,150.636 	"/>
	<path fill="#603813" d="M146.357,125.08c0,0.135-6.774,5.77-6.774,5.77l-12.902,6.092c0,0,9.131,18.322,19.327,12.512
		c3.306-1.882,4.405-22.75,4.405-22.75"/>
	<path fill="#A87C4F" d="M158.564,137.861c6.805,10.665,34.834,20.157,44.953-1.254c0.951-2.011,5.768-3.212,6.291-5.166
		c1.016-3.804-3.723-4.217-3.723-7.873c0-7.313-2.572-17.194-4.984-21.76c-4.757-9.018-20.897-8.858-27.628-6.597
		c-4.843,1.627-12.979,15.788-12.979,15.788s-6.624-6.533-12.207-1.009c-5.545,5.487-1.83,11.909,3.489,13.26
		c3.306,0.84,5.686-1.519,5.686-1.519S154.469,131.441,158.564,137.861z"/>
	<path fill="#603813" d="M151.858,106.355c0,0,3.406-11.456,10.601-18.212c3.472-3.261,13.511-5.797,18.256-5.42
		c2.766,0.219,8.309,1.731,10.58,3.318c3.99,2.783,14.828,10.002,12.977,14.501c-2.048,4.971-20.768,3.841-20.768,3.841
		s-5.595-8.386-8.906-8.186c-5.114,0.31-13.937,8.846-13.937,13.956"/>
	<path fill="none" stroke="#231F20" stroke-width="1.5" stroke-linecap="round" stroke-linejoin="round" stroke-miterlimit="10" d="
		M206.783,124.052c0.546-9.007-2.625-16.881-5.683-22.245"/>
	<path fill="none" stroke="#231F20" stroke-width="1.5" stroke-linecap="round" stroke-linejoin="round" stroke-miterlimit="10" d="
		M158.564,137.861c5.514,11.385,35.263,19.542,45.383-1.87"/>
	<path fill="none" stroke="#231F20" stroke-width="2" stroke-linecap="round" stroke-linejoin="round" stroke-miterlimit="10" d="
		M160.035,227.583"/>
	
		<path fill="#8EB2C5" stroke="#231F20" stroke-width="1.5" stroke-linecap="round" stroke-linejoin="round" stroke-miterlimit="10" d="
		M191.138,193.17l2.614,41.166c0,0-9.33,1.938-18.582,1.938c-4.46,0-17.822-0.229-17.822-0.229l2.705-44.164"/>
	<path fill="#231F20" d="M189.206,111.995c1.128,0.107,1.87,1.943,1.659,4.096c-0.211,2.156-1.297,3.812-2.424,3.704
		c-1.128-0.113-1.869-1.949-1.656-4.104C186.995,113.537,188.08,111.882,189.206,111.995z"/>
	<path fill="#231F20" d="M201.206,109.995c1.128,0.107,1.87,1.943,1.659,4.096c-0.211,2.156-1.297,3.812-2.424,3.704
		c-1.128-0.113-1.869-1.949-1.656-4.104C198.995,111.537,200.08,109.882,201.206,109.995z"/>
	<path fill="none" stroke="#231F20" stroke-width="2" stroke-linecap="round" stroke-linejoin="round" stroke-miterlimit="10" d="
		M188.604,86.041c11.14,3.397,17.368,17.546,17.481,18.342"/>
	<path fill="none" stroke="#231F20" stroke-width="2" stroke-linecap="round" stroke-linejoin="round" stroke-miterlimit="10" d="
		M188.604,86.041c11.14,3.397,17.368,17.546,17.481,18.342"/>
	<path fill="none" stroke="#231F20" stroke-width="2" stroke-linecap="round" stroke-linejoin="round" stroke-miterlimit="10" d="
		M180.713,86.041c11.142,3.397,17.369,17.546,17.482,18.342"/>
	<path fill="none" stroke="#231F20" stroke-width="2" stroke-linecap="round" stroke-linejoin="round" stroke-miterlimit="10" d="
		M177.755,89.743c8.657,4.996,13.438,15.915,13.538,16.611"/>
	<path fill="none" stroke="#231F20" stroke-width="2" stroke-linecap="round" stroke-linejoin="round" stroke-miterlimit="10" d="
		M173.473,92.756c7.623,5.327,11.813,14.92,11.903,15.572"/>
	<path fill="none" stroke="#231F20" stroke-width="2" stroke-linecap="round" stroke-linejoin="round" stroke-miterlimit="10" d="
		M171.121,96.424c-9.877,7.361-10.628,14.574-10.628,14.574s-3.258-3.893-6.945-3.49c-3.687,0.403-6.259,2.194-7.393,7.063
		c-1.14,4.899,4.521,9.15,8.512,8.635c2.548-0.33,2.794-1.476,2.794-1.476s-2.73,4.023-0.789,12.798"/>
	<path fill="none" stroke="#231F20" stroke-width="1.5" stroke-linecap="round" stroke-linejoin="round" stroke-miterlimit="10" d="
		M150.412,115.538c0,0,4.101-5.759,7.909-1.084"/>
	<path fill="none" stroke="#231F20" stroke-width="1.5" stroke-linecap="round" stroke-linejoin="round" stroke-miterlimit="10" d="
		M154.469,116.977c-1.404-1.986-1.011-3.997-1.011-3.997"/>
	<path fill="none" stroke="#231F20" stroke-width="2" stroke-linecap="round" stroke-linejoin="round" stroke-miterlimit="10" d="
		M177.755,85.415c-15.239,4.328-21.322,18.968-21.322,18.968"/>
	<path fill="none" stroke="#231F20" stroke-width="2" stroke-linecap="round" stroke-linejoin="round" stroke-miterlimit="10" d="
		M184.527,83.181c-16.335-2.675-28.849,6.563-32.669,21.964"/>
	<path fill="none" stroke="#231F20" stroke-width="2" stroke-linecap="round" stroke-linejoin="round" stroke-miterlimit="10" d="
		M147.612,123.568c-7.129,8.397-15.558,11.944-22.314,13.374"/>
	<path fill="none" stroke="#231F20" stroke-width="2" stroke-linecap="round" stroke-linejoin="round" stroke-miterlimit="10" d="
		M146.077,125.754c-4.291,10.109-11.191,15.957-17.129,19.292"/>
	<path fill="none" stroke="#231F20" stroke-width="2" stroke-linecap="round" stroke-linejoin="round" stroke-miterlimit="10" d="
		M149.028,125.239c-1.432,12.667-7.123,21.41-12.573,27.038"/>
	<path fill="#231F20" d="M153.289,126.408c-0.54,1.015-2.09,1.244-3.465,0.515l-3.469-1.844c-1.375-0.73-2.054-2.144-1.514-3.159
		l0,0c0.538-1.013,2.089-1.244,3.465-0.515l3.468,1.843C153.152,123.98,153.829,125.396,153.289,126.408L153.289,126.408z"/>
	<path fill="none" stroke="#231F20" stroke-width="1.5" stroke-linecap="round" stroke-linejoin="round" stroke-miterlimit="10" d="
		M199.076,119.887c19.873,10.662,8.646,17.059-2.051,13.778"/>
	<polyline fill="#FFFFFF" points="157.46,193.215 156.241,210.872 160.999,210.11 160.602,194.42 157.348,192.852 	"/>
	<path fill="#A87C4F" stroke="#231F20" stroke-width="1.5" stroke-miterlimit="10" d="M146.488,171.304
		c0,0,5.402,28.679,4.344,29.812c-1.033,1.102-3.081,5.461-4.552,8.654c-2.367,5.137-0.584,8.209,1.428,7.793
		c2.325-0.48,4.931-9.041,4.931-9.041s-1.457,6.854-1.059,8.775c0.42,2.006,3.34,2.998,5.117,1.303
		c1.041-0.994-0.221-10.521-0.221-10.521s1.934,9.162,3.581,9.852c2.394,0.998,3.386-0.055,3.428-2.441
		c0.04-2.188-2.3-5.186-2.959-7.104c-0.656-1.918-0.08-2.682,1.398-2.09c1.479,0.592,4.519,1.934,5.505,2.08
		c0.985,0.148,2.26-1.447,1.108-3.258c-0.828-1.309-12.063-5.039-12.063-5.039l0.703-25.631L146.488,171.304z"/>
	<path fill="none" stroke="#231F20" stroke-width="2" stroke-linecap="round" stroke-linejoin="round" stroke-miterlimit="10" d="
		M150.412,126.703c1.561,10.905-3.21,19.566-6.619,25.574"/>
	<path fill="#231F20" d="M174.875,134.412c1.61-1.058,5.406,4.3,9.084,3.423c3.676-0.876,7.609-2.867,9.764-0.894
		c1.982,1.817,1.257,4.65-1.479,6.15C179.416,150.131,171.209,136.82,174.875,134.412z"/>
	
		<path fill="#D1313D" stroke="#231F20" stroke-width="1.5" stroke-linecap="round" stroke-linejoin="round" stroke-miterlimit="10" d="
		M156.674,201.358c0,0,8.091,5.898,18.077,6.314c10.401,0.434,19.845-3.504,19.845-3.504s-7.848-49.186-17.867-53.109l-14.799-6.269
		l-18.902,29.187l13.626,3.757l7.56-23.666l-6.573,22.681L156.674,201.358z"/>
</g>
<path fill="none" stroke="#231F20" stroke-width="2" stroke-linecap="round" stroke-linejoin="round" stroke-miterlimit="10" d="
	M225.386,182.757"/>
<path fill="none" stroke="#231F20" stroke-width="1.4" stroke-linecap="round" stroke-linejoin="round" stroke-miterlimit="10" d="
	M189.502,107.187c-2.81-0.082-6.84,1.931-7.454,5.076"/>
<path fill="none" stroke="#231F20" stroke-width="1.4" stroke-linecap="round" stroke-linejoin="round" stroke-miterlimit="10" d="
	M203.502,104.187c-1.65-0.048-3.725,0.628-5.277,1.832"/>
<path fill="none" stroke="#231F20" stroke-width="1.4" stroke-linecap="round" stroke-linejoin="round" stroke-miterlimit="10" d="
	M429.476,74.451c2.65-0.938,7.104-0.256,8.65,2.55"/>
<path fill="none" stroke="#231F20" stroke-width="1.4" stroke-linecap="round" stroke-linejoin="round" stroke-miterlimit="10" d="
	M418.05,75.187c1.65-0.048,3.725,0.628,5.277,1.832"/>
</svg>
