<?xml version="1.0" encoding="utf-8"?>
<!-- Generator: Adobe Illustrator 16.0.0, SVG Export Plug-In . SVG Version: 6.00 Build 0)  -->
<!DOCTYPE svg PUBLIC "-//W3C//DTD SVG 1.1//EN" "http://www.w3.org/Graphics/SVG/1.1/DTD/svg11.dtd">
<svg version="1.1" id="Layer_1" xmlns="http://www.w3.org/2000/svg" xmlns:xlink="http://www.w3.org/1999/xlink" x="0px" y="0px"
	 width="481.891px" height="255.118px" viewBox="0 0 481.891 255.118" enable-background="new 0 0 481.891 255.118"
	 xml:space="preserve">
<g>
	<g>
		<path fill="#F7C434" d="M43.029,35.824l15.874,33.373c-4.694,1.941-9.841,3.021-15.237,3.021c-6.27,0-12.194-1.45-17.472-4.026
			L43.029,35.824z"/>
	</g>
	<circle fill="#D1313D" cx="35.257" cy="64.738" r="5.133"/>
	<g>
		<path fill="#F9BF76" d="M24.087,72.242c5.911,2.912,12.556,4.556,19.578,4.556c6.097,0,11.909-1.235,17.203-3.468l3.872,8.137
			c-6.475,2.788-13.597,4.338-21.075,4.338c-8.521,0-16.576-2.014-23.732-5.574L24.087,72.242z"/>
	</g>
	<path fill="#D1313D" d="M45.391,41.226c-0.258,0.129-0.508,0.276-0.744,0.458c-2.017,1.531-2.402,4.407-0.871,6.423
		c1.377,1.809,3.828,2.293,5.771,1.268L45.391,41.226z"/>
	<g>
		<path fill="#F7C434" d="M76.402,74.408l15.875-33.373c-4.694-1.941-9.842-3.021-15.238-3.021c-6.269,0-12.193,1.449-17.472,4.025
			L76.402,74.408z"/>
	</g>
	<circle fill="#D1313D" cx="68.629" cy="45.495" r="5.132"/>
	<g>
		<path fill="#F9BF76" d="M57.46,37.99c5.911-2.914,12.556-4.557,19.577-4.557c6.098,0,11.909,1.234,17.204,3.467l3.871-8.136
			c-6.474-2.788-13.597-4.337-21.075-4.337c-8.521,0-16.575,2.014-23.731,5.574L57.46,37.99z"/>
	</g>
	<path fill="#D1313D" d="M78.764,69.005c-0.259-0.128-0.509-0.275-0.745-0.457c-2.016-1.532-2.4-4.407-0.872-6.422
		c1.378-1.809,3.828-2.293,5.773-1.268L78.764,69.005z"/>
	<g>
		<path fill="#F7C434" d="M43.029,107.453l15.874,33.373c-4.694,1.943-9.841,3.021-15.237,3.021c-6.27,0-12.194-1.449-17.472-4.025
			L43.029,107.453z"/>
	</g>
	<circle fill="#D1313D" cx="35.257" cy="136.367" r="5.133"/>
	<g>
		<path fill="#F9BF76" d="M24.087,143.871c5.911,2.914,12.556,4.559,19.578,4.559c6.097,0,11.909-1.236,17.203-3.469l3.872,8.137
			c-6.475,2.787-13.597,4.338-21.075,4.338c-8.521,0-16.576-2.016-23.732-5.576L24.087,143.871z"/>
	</g>
	<path fill="#D1313D" d="M45.391,112.857c-0.258,0.127-0.508,0.276-0.744,0.457c-2.017,1.533-2.402,4.408-0.871,6.422
		c1.377,1.81,3.828,2.293,5.771,1.269L45.391,112.857z"/>
	<g>
		<path fill="#F7C434" d="M76.402,146.037l15.875-33.373c-4.694-1.941-9.842-3.021-15.238-3.021c-6.269,0-12.193,1.45-17.472,4.025
			L76.402,146.037z"/>
	</g>
	<circle fill="#D1313D" cx="68.629" cy="117.124" r="5.132"/>
	<g>
		<path fill="#F9BF76" d="M57.46,109.619c5.911-2.912,12.556-4.555,19.577-4.555c6.098,0,11.909,1.234,17.204,3.467l3.871-8.137
			c-6.474-2.787-13.597-4.337-21.075-4.337c-8.521,0-16.575,2.015-23.731,5.574L57.46,109.619z"/>
	</g>
	<path fill="#D1313D" d="M78.764,140.634c-0.259-0.127-0.509-0.275-0.745-0.455c-2.016-1.533-2.4-4.408-0.872-6.424
		c1.378-1.809,3.828-2.293,5.773-1.268L78.764,140.634z"/>
	<g>
		<path fill="#F7C434" d="M109.775,35.824l15.873,33.373c-4.694,1.941-9.841,3.021-15.237,3.021c-6.268,0-12.193-1.45-17.472-4.026
			L109.775,35.824z"/>
	</g>
	<circle fill="#D1313D" cx="102.002" cy="64.738" r="5.133"/>
	<g>
		<path fill="#F9BF76" d="M90.833,72.242c5.91,2.912,12.556,4.556,19.576,4.556c6.099,0,11.91-1.235,17.206-3.468l3.87,8.137
			c-6.475,2.788-13.597,4.338-21.076,4.338c-8.521,0-16.575-2.014-23.731-5.574L90.833,72.242z"/>
	</g>
	<path fill="#D1313D" d="M112.136,41.226c-0.258,0.129-0.508,0.276-0.744,0.458c-2.016,1.531-2.401,4.407-0.871,6.423
		c1.376,1.809,3.828,2.293,5.773,1.268L112.136,41.226z"/>
	<g>
		<path fill="#F7C434" d="M143.148,74.408l15.874-33.373c-4.694-1.941-9.842-3.021-15.237-3.021c-6.269,0-12.193,1.449-17.473,4.025
			L143.148,74.408z"/>
	</g>
	<circle fill="#D1313D" cx="135.375" cy="45.495" r="5.132"/>
	<g>
		<path fill="#F9BF76" d="M124.206,37.99c5.911-2.914,12.556-4.557,19.577-4.557c6.099,0,11.909,1.234,17.205,3.467l3.869-8.136
			c-6.472-2.788-13.596-4.337-21.074-4.337c-8.521,0-16.575,2.014-23.731,5.574L124.206,37.99z"/>
	</g>
	<path fill="#D1313D" d="M145.51,69.005c-0.257-0.128-0.507-0.275-0.744-0.457c-2.017-1.532-2.401-4.407-0.871-6.422
		c1.377-1.809,3.828-2.293,5.772-1.268L145.51,69.005z"/>
	<g>
		<path fill="#F7C434" d="M109.775,107.453l15.873,33.373c-4.694,1.943-9.841,3.021-15.237,3.021
			c-6.268,0-12.193-1.449-17.472-4.025L109.775,107.453z"/>
	</g>
	<circle fill="#D1313D" cx="102.002" cy="136.367" r="5.133"/>
	<g>
		<path fill="#F9BF76" d="M90.833,143.871c5.91,2.914,12.556,4.559,19.576,4.559c6.099,0,11.91-1.236,17.206-3.469l3.87,8.137
			c-6.475,2.787-13.597,4.338-21.076,4.338c-8.521,0-16.575-2.016-23.731-5.576L90.833,143.871z"/>
	</g>
	<path fill="#D1313D" d="M112.136,112.857c-0.258,0.127-0.508,0.276-0.744,0.457c-2.016,1.533-2.401,4.408-0.871,6.422
		c1.376,1.81,3.828,2.293,5.773,1.269L112.136,112.857z"/>
	<g>
		<path fill="#F7C434" d="M143.148,146.037l15.874-33.373c-4.694-1.941-9.842-3.021-15.237-3.021c-6.269,0-12.193,1.45-17.473,4.025
			L143.148,146.037z"/>
	</g>
	<circle fill="#D1313D" cx="135.375" cy="117.124" r="5.132"/>
	<g>
		<path fill="#F9BF76" d="M124.206,109.619c5.911-2.912,12.556-4.555,19.577-4.555c6.099,0,11.909,1.234,17.205,3.467l3.869-8.137
			c-6.472-2.787-13.596-4.337-21.074-4.337c-8.521,0-16.575,2.015-23.731,5.574L124.206,109.619z"/>
	</g>
	<path fill="#D1313D" d="M145.51,140.634c-0.257-0.127-0.507-0.275-0.744-0.455c-2.017-1.533-2.401-4.408-0.871-6.424
		c1.377-1.809,3.828-2.293,5.772-1.268L145.51,140.634z"/>
	<g>
		<path fill="#F7C434" d="M175.707,35.824l15.872,33.373c-4.693,1.941-9.839,3.021-15.236,3.021c-6.269,0-12.194-1.45-17.472-4.026
			L175.707,35.824z"/>
	</g>
	<circle fill="#D1313D" cx="167.933" cy="64.738" r="5.133"/>
	<g>
		<path fill="#F9BF76" d="M156.764,72.242c5.911,2.912,12.558,4.556,19.578,4.556c6.099,0,11.91-1.235,17.204-3.468l3.87,8.137
			c-6.472,2.788-13.596,4.338-21.074,4.338c-8.521,0-16.576-2.014-23.73-5.574L156.764,72.242z"/>
	</g>
	<path fill="#D1313D" d="M178.07,41.226c-0.259,0.129-0.509,0.276-0.745,0.458c-2.019,1.531-2.402,4.407-0.872,6.423
		c1.377,1.809,3.829,2.293,5.771,1.268L178.07,41.226z"/>
	<g>
		<path fill="#F7C434" d="M209.079,74.408l15.873-33.373c-4.692-1.941-9.839-3.021-15.235-3.021c-6.269,0-12.194,1.449-17.473,4.025
			L209.079,74.408z"/>
	</g>
	<circle fill="#D1313D" cx="201.306" cy="45.495" r="5.132"/>
	<g>
		<path fill="#F9BF76" d="M190.137,37.99c5.91-2.914,12.558-4.557,19.578-4.557c6.097,0,11.909,1.234,17.204,3.467l3.871-8.136
			c-6.473-2.788-13.596-4.337-21.075-4.337c-8.521,0-16.576,2.014-23.73,5.574L190.137,37.99z"/>
	</g>
	<path fill="#D1313D" d="M211.443,69.005c-0.259-0.128-0.511-0.275-0.746-0.457c-2.018-1.532-2.401-4.407-0.871-6.422
		c1.376-1.809,3.828-2.293,5.771-1.268L211.443,69.005z"/>
	<g>
		<path fill="#F7C434" d="M175.707,107.453l15.872,33.373c-4.693,1.943-9.839,3.021-15.236,3.021
			c-6.269,0-12.194-1.449-17.472-4.025L175.707,107.453z"/>
	</g>
	<circle fill="#D1313D" cx="167.933" cy="136.367" r="5.133"/>
	<g>
		<path fill="#F9BF76" d="M156.764,143.871c5.911,2.914,12.558,4.559,19.578,4.559c6.099,0,11.91-1.236,17.204-3.469l3.87,8.137
			c-6.472,2.787-13.596,4.338-21.074,4.338c-8.521,0-16.576-2.016-23.73-5.576L156.764,143.871z"/>
	</g>
	<path fill="#D1313D" d="M178.07,112.857c-0.259,0.127-0.509,0.276-0.745,0.457c-2.019,1.533-2.402,4.408-0.872,6.422
		c1.377,1.81,3.829,2.293,5.771,1.269L178.07,112.857z"/>
	<g>
		<path fill="#F7C434" d="M209.079,146.037l15.873-33.373c-4.692-1.941-9.839-3.021-15.235-3.021c-6.269,0-12.194,1.45-17.473,4.025
			L209.079,146.037z"/>
	</g>
	<circle fill="#D1313D" cx="201.306" cy="117.124" r="5.132"/>
	<g>
		<path fill="#F9BF76" d="M190.137,109.619c5.91-2.912,12.558-4.555,19.578-4.555c6.097,0,11.909,1.234,17.204,3.467l3.871-8.137
			c-6.473-2.787-13.596-4.337-21.075-4.337c-8.521,0-16.576,2.015-23.73,5.574L190.137,109.619z"/>
	</g>
	<path fill="#D1313D" d="M211.443,140.634c-0.259-0.127-0.511-0.275-0.746-0.455c-2.018-1.533-2.401-4.408-0.871-6.424
		c1.376-1.809,3.828-2.293,5.771-1.268L211.443,140.634z"/>
	<g>
		<path fill="#F7C434" d="M242.452,35.824l15.873,33.373c-4.694,1.941-9.839,3.021-15.236,3.021c-6.268,0-12.194-1.45-17.472-4.026
			L242.452,35.824z"/>
	</g>
	<circle fill="#D1313D" cx="234.679" cy="64.738" r="5.133"/>
	<g>
		<path fill="#F9BF76" d="M223.51,72.242c5.91,2.912,12.557,4.556,19.577,4.556c6.099,0,11.909-1.235,17.203-3.468l3.872,8.137
			c-6.473,2.788-13.595,4.338-21.075,4.338c-8.521,0-16.576-2.014-23.731-5.574L223.51,72.242z"/>
	</g>
	<path fill="#D1313D" d="M244.816,41.226c-0.259,0.129-0.509,0.276-0.745,0.458c-2.018,1.531-2.401,4.407-0.872,6.423
		c1.377,1.809,3.829,2.293,5.773,1.268L244.816,41.226z"/>
	<g>
		<path fill="#F7C434" d="M275.825,74.408l15.874-33.373c-4.695-1.941-9.841-3.021-15.238-3.021c-6.267,0-12.192,1.449-17.472,4.025
			L275.825,74.408z"/>
	</g>
	<circle fill="#D1313D" cx="268.052" cy="45.495" r="5.132"/>
	<g>
		<path fill="#F9BF76" d="M256.884,37.99c5.91-2.914,12.557-4.557,19.576-4.557c6.1,0,11.909,1.234,17.204,3.467l3.871-8.136
			c-6.472-2.788-13.595-4.337-21.075-4.337c-8.521,0-16.574,2.014-23.729,5.574L256.884,37.99z"/>
	</g>
	<path fill="#D1313D" d="M278.189,69.005c-0.258-0.128-0.51-0.275-0.745-0.457c-2.017-1.532-2.402-4.407-0.872-6.422
		c1.376-1.809,3.829-2.293,5.773-1.268L278.189,69.005z"/>
	<g>
		<path fill="#F7C434" d="M242.452,107.453l15.873,33.373c-4.694,1.943-9.839,3.021-15.236,3.021
			c-6.268,0-12.194-1.449-17.472-4.025L242.452,107.453z"/>
	</g>
	<circle fill="#D1313D" cx="234.679" cy="136.367" r="5.133"/>
	<g>
		<path fill="#F9BF76" d="M223.51,143.871c5.91,2.914,12.557,4.559,19.577,4.559c6.099,0,11.909-1.236,17.203-3.469l3.872,8.137
			c-6.473,2.787-13.595,4.338-21.075,4.338c-8.521,0-16.576-2.016-23.731-5.576L223.51,143.871z"/>
	</g>
	<path fill="#D1313D" d="M244.816,112.857c-0.259,0.127-0.509,0.276-0.745,0.457c-2.018,1.533-2.401,4.408-0.872,6.422
		c1.377,1.81,3.829,2.293,5.773,1.269L244.816,112.857z"/>
	<g>
		<path fill="#F7C434" d="M275.825,146.037l15.874-33.373c-4.695-1.941-9.841-3.021-15.238-3.021c-6.267,0-12.192,1.45-17.472,4.025
			L275.825,146.037z"/>
	</g>
	<circle fill="#D1313D" cx="268.052" cy="117.124" r="5.132"/>
	<g>
		<path fill="#F9BF76" d="M256.884,109.619c5.91-2.912,12.557-4.555,19.576-4.555c6.1,0,11.909,1.234,17.204,3.467l3.871-8.137
			c-6.472-2.787-13.595-4.337-21.075-4.337c-8.521,0-16.574,2.015-23.729,5.574L256.884,109.619z"/>
	</g>
	<path fill="#D1313D" d="M278.189,140.634c-0.258-0.127-0.51-0.275-0.745-0.455c-2.017-1.533-2.402-4.408-0.872-6.424
		c1.376-1.809,3.829-2.293,5.773-1.268L278.189,140.634z"/>
	<g>
		<path fill="#F7C434" d="M308.385,35.824l15.874,33.373c-4.694,1.941-9.843,3.021-15.237,3.021c-6.27,0-12.194-1.45-17.475-4.026
			L308.385,35.824z"/>
	</g>
	<circle fill="#D1313D" cx="300.611" cy="64.738" r="5.133"/>
	<g>
		<path fill="#F9BF76" d="M289.443,72.242c5.911,2.912,12.555,4.556,19.577,4.556c6.097,0,11.908-1.235,17.205-3.468l3.869,8.137
			c-6.473,2.788-13.597,4.338-21.074,4.338c-8.521,0-16.576-2.014-23.732-5.574L289.443,72.242z"/>
	</g>
	<path fill="#D1313D" d="M310.746,41.226c-0.257,0.129-0.509,0.276-0.744,0.458c-2.017,1.531-2.4,4.407-0.872,6.423
		c1.377,1.809,3.829,2.293,5.773,1.268L310.746,41.226z"/>
	<g>
		<path fill="#F7C434" d="M341.756,74.408l15.873-33.373c-4.692-1.941-9.84-3.021-15.233-3.021c-6.271,0-12.195,1.449-17.476,4.025
			L341.756,74.408z"/>
	</g>
	<circle fill="#D1313D" cx="333.984" cy="45.495" r="5.132"/>
	<g>
		<path fill="#F9BF76" d="M322.816,37.99c5.91-2.914,12.555-4.557,19.578-4.557c6.096,0,11.907,1.234,17.204,3.467l3.869-8.136
			c-6.473-2.788-13.597-4.337-21.073-4.337c-8.521,0-16.577,2.014-23.732,5.574L322.816,37.99z"/>
	</g>
	<path fill="#D1313D" d="M344.118,69.005c-0.256-0.128-0.508-0.275-0.744-0.457c-2.016-1.532-2.399-4.407-0.871-6.422
		c1.376-1.809,3.828-2.293,5.773-1.268L344.118,69.005z"/>
	<g>
		<path fill="#F7C434" d="M308.385,107.453l15.874,33.373c-4.694,1.943-9.843,3.021-15.237,3.021c-6.27,0-12.194-1.449-17.475-4.025
			L308.385,107.453z"/>
	</g>
	<circle fill="#D1313D" cx="300.611" cy="136.367" r="5.133"/>
	<g>
		<path fill="#F9BF76" d="M289.443,143.871c5.911,2.914,12.555,4.559,19.577,4.559c6.097,0,11.908-1.236,17.205-3.469l3.869,8.137
			c-6.473,2.787-13.597,4.338-21.074,4.338c-8.521,0-16.576-2.016-23.732-5.576L289.443,143.871z"/>
	</g>
	<path fill="#D1313D" d="M310.746,112.857c-0.257,0.127-0.509,0.276-0.744,0.457c-2.017,1.533-2.4,4.408-0.872,6.422
		c1.377,1.81,3.829,2.293,5.773,1.269L310.746,112.857z"/>
	<g>
		<path fill="#F7C434" d="M341.756,146.037l15.873-33.373c-4.692-1.941-9.84-3.021-15.233-3.021c-6.271,0-12.195,1.45-17.476,4.025
			L341.756,146.037z"/>
	</g>
	<circle fill="#D1313D" cx="333.984" cy="117.124" r="5.132"/>
	<g>
		<path fill="#F9BF76" d="M322.816,109.619c5.91-2.912,12.555-4.555,19.578-4.555c6.096,0,11.907,1.234,17.204,3.467l3.869-8.137
			c-6.473-2.787-13.597-4.337-21.073-4.337c-8.521,0-16.577,2.015-23.732,5.574L322.816,109.619z"/>
	</g>
	<path fill="#D1313D" d="M344.118,140.634c-0.256-0.127-0.508-0.275-0.744-0.455c-2.016-1.533-2.399-4.408-0.871-6.424
		c1.376-1.809,3.828-2.293,5.773-1.268L344.118,140.634z"/>
	<g>
		<path fill="#F7C434" d="M43.029,180.71l15.874,33.373c-4.694,1.943-9.841,3.021-15.237,3.021c-6.27,0-12.194-1.449-17.472-4.027
			L43.029,180.71z"/>
	</g>
	<circle fill="#D1313D" cx="35.257" cy="209.625" r="5.133"/>
	<g>
		<path fill="#F9BF76" d="M24.087,217.128c5.911,2.912,12.556,4.557,19.578,4.557c6.097,0,11.909-1.236,17.203-3.467l3.872,8.135
			c-6.475,2.789-13.597,4.338-21.075,4.338c-8.521,0-16.576-2.014-23.732-5.574L24.087,217.128z"/>
	</g>
	<path fill="#D1313D" d="M45.391,186.115c-0.258,0.127-0.508,0.277-0.744,0.457c-2.017,1.533-2.402,4.408-0.871,6.422
		c1.377,1.811,3.828,2.293,5.771,1.27L45.391,186.115z"/>
	<g>
		<path fill="#F7C434" d="M76.402,219.294l15.875-33.373c-4.694-1.941-9.842-3.021-15.238-3.021c-6.269,0-12.193,1.451-17.472,4.027
			L76.402,219.294z"/>
	</g>
	<circle fill="#D1313D" cx="68.629" cy="190.381" r="5.134"/>
	<g>
		<path fill="#F9BF76" d="M57.46,182.876c5.911-2.914,12.556-4.557,19.577-4.557c6.098,0,11.909,1.236,17.204,3.467l3.871-8.137
			c-6.474-2.787-13.597-4.336-21.075-4.336c-8.521,0-16.575,2.012-23.731,5.574L57.46,182.876z"/>
	</g>
	<path fill="#D1313D" d="M78.764,213.894c-0.259-0.127-0.509-0.277-0.745-0.457c-2.016-1.533-2.4-4.41-0.872-6.422
		c1.378-1.811,3.828-2.293,5.773-1.27L78.764,213.894z"/>
	<g>
		<path fill="#F7C434" d="M109.775,180.71l15.873,33.373c-4.694,1.943-9.841,3.021-15.237,3.021c-6.268,0-12.193-1.449-17.472-4.027
			L109.775,180.71z"/>
	</g>
	<circle fill="#D1313D" cx="102.002" cy="209.625" r="5.133"/>
	<g>
		<path fill="#F9BF76" d="M90.833,217.128c5.91,2.912,12.556,4.557,19.576,4.557c6.099,0,11.91-1.236,17.206-3.467l3.87,8.135
			c-6.475,2.789-13.597,4.338-21.076,4.338c-8.521,0-16.575-2.014-23.731-5.574L90.833,217.128z"/>
	</g>
	<path fill="#D1313D" d="M112.136,186.115c-0.258,0.127-0.508,0.277-0.744,0.457c-2.016,1.533-2.401,4.408-0.871,6.422
		c1.376,1.811,3.828,2.293,5.773,1.27L112.136,186.115z"/>
	<g>
		<path fill="#F7C434" d="M143.148,219.294l15.874-33.373c-4.694-1.941-9.842-3.021-15.237-3.021
			c-6.269,0-12.193,1.451-17.473,4.027L143.148,219.294z"/>
	</g>
	<circle fill="#D1313D" cx="135.375" cy="190.381" r="5.134"/>
	<g>
		<path fill="#F9BF76" d="M124.206,182.876c5.911-2.914,12.556-4.557,19.577-4.557c6.099,0,11.909,1.236,17.205,3.467l3.869-8.137
			c-6.472-2.787-13.596-4.336-21.074-4.336c-8.521,0-16.575,2.012-23.731,5.574L124.206,182.876z"/>
	</g>
	<path fill="#D1313D" d="M145.51,213.894c-0.257-0.127-0.507-0.277-0.744-0.457c-2.017-1.533-2.401-4.41-0.871-6.422
		c1.377-1.811,3.828-2.293,5.772-1.27L145.51,213.894z"/>
	<g>
		<path fill="#F7C434" d="M175.707,180.71l15.872,33.373c-4.693,1.943-9.839,3.021-15.236,3.021c-6.269,0-12.194-1.449-17.472-4.027
			L175.707,180.71z"/>
	</g>
	<circle fill="#D1313D" cx="167.933" cy="209.625" r="5.133"/>
	<g>
		<path fill="#F9BF76" d="M156.764,217.128c5.911,2.912,12.558,4.557,19.578,4.557c6.099,0,11.91-1.236,17.204-3.467l3.87,8.135
			c-6.472,2.789-13.596,4.338-21.074,4.338c-8.521,0-16.576-2.014-23.73-5.574L156.764,217.128z"/>
	</g>
	<path fill="#D1313D" d="M178.07,186.115c-0.259,0.127-0.509,0.277-0.745,0.457c-2.019,1.533-2.402,4.408-0.872,6.422
		c1.377,1.811,3.829,2.293,5.771,1.27L178.07,186.115z"/>
	<g>
		<path fill="#F7C434" d="M209.079,219.294l15.873-33.373c-4.692-1.941-9.839-3.021-15.235-3.021
			c-6.269,0-12.194,1.451-17.473,4.027L209.079,219.294z"/>
	</g>
	<circle fill="#D1313D" cx="201.306" cy="190.381" r="5.134"/>
	<g>
		<path fill="#F9BF76" d="M190.137,182.876c5.91-2.914,12.558-4.557,19.578-4.557c6.097,0,11.909,1.236,17.204,3.467l3.871-8.137
			c-6.473-2.787-13.596-4.336-21.075-4.336c-8.521,0-16.576,2.012-23.73,5.574L190.137,182.876z"/>
	</g>
	<path fill="#D1313D" d="M211.443,213.894c-0.259-0.127-0.511-0.277-0.746-0.457c-2.018-1.533-2.401-4.41-0.871-6.422
		c1.376-1.811,3.828-2.293,5.771-1.27L211.443,213.894z"/>
	<g>
		<path fill="#F7C434" d="M242.452,180.71l15.873,33.373c-4.694,1.943-9.839,3.021-15.236,3.021c-6.268,0-12.194-1.449-17.472-4.027
			L242.452,180.71z"/>
	</g>
	<circle fill="#D1313D" cx="234.679" cy="209.625" r="5.133"/>
	<g>
		<path fill="#F9BF76" d="M223.51,217.128c5.91,2.912,12.557,4.557,19.577,4.557c6.099,0,11.909-1.236,17.203-3.467l3.872,8.135
			c-6.473,2.789-13.595,4.338-21.075,4.338c-8.521,0-16.576-2.014-23.731-5.574L223.51,217.128z"/>
	</g>
	<path fill="#D1313D" d="M244.816,186.115c-0.259,0.127-0.509,0.277-0.745,0.457c-2.018,1.533-2.401,4.408-0.872,6.422
		c1.377,1.811,3.829,2.293,5.773,1.27L244.816,186.115z"/>
	<g>
		<path fill="#F7C434" d="M275.825,219.294l15.874-33.373c-4.695-1.941-9.841-3.021-15.238-3.021
			c-6.267,0-12.192,1.451-17.472,4.027L275.825,219.294z"/>
	</g>
	<circle fill="#D1313D" cx="268.052" cy="190.381" r="5.134"/>
	<g>
		<path fill="#F9BF76" d="M256.884,182.876c5.91-2.914,12.557-4.557,19.576-4.557c6.1,0,11.909,1.236,17.204,3.467l3.871-8.137
			c-6.472-2.787-13.595-4.336-21.075-4.336c-8.521,0-16.574,2.012-23.729,5.574L256.884,182.876z"/>
	</g>
	<path fill="#D1313D" d="M278.189,213.894c-0.258-0.127-0.51-0.277-0.745-0.457c-2.017-1.533-2.402-4.41-0.872-6.422
		c1.376-1.811,3.829-2.293,5.773-1.27L278.189,213.894z"/>
	<g>
		<path fill="#F7C434" d="M308.385,180.71l15.874,33.373c-4.694,1.943-9.843,3.021-15.237,3.021c-6.27,0-12.194-1.449-17.475-4.027
			L308.385,180.71z"/>
	</g>
	<circle fill="#D1313D" cx="300.611" cy="209.625" r="5.133"/>
	<g>
		<path fill="#F9BF76" d="M289.443,217.128c5.911,2.912,12.555,4.557,19.577,4.557c6.097,0,11.908-1.236,17.205-3.467l3.869,8.135
			c-6.473,2.789-13.597,4.338-21.074,4.338c-8.521,0-16.576-2.014-23.732-5.574L289.443,217.128z"/>
	</g>
	<path fill="#D1313D" d="M310.746,186.115c-0.257,0.127-0.509,0.277-0.744,0.457c-2.017,1.533-2.4,4.408-0.872,6.422
		c1.377,1.811,3.829,2.293,5.773,1.27L310.746,186.115z"/>
	<g>
		<path fill="#F7C434" d="M341.756,219.294l15.873-33.373c-4.692-1.941-9.84-3.021-15.233-3.021c-6.271,0-12.195,1.451-17.476,4.027
			L341.756,219.294z"/>
	</g>
	<circle fill="#D1313D" cx="333.984" cy="190.381" r="5.134"/>
	<g>
		<path fill="#F9BF76" d="M322.816,182.876c5.91-2.914,12.555-4.557,19.578-4.557c6.096,0,11.907,1.236,17.204,3.467l3.869-8.137
			c-6.473-2.787-13.597-4.336-21.073-4.336c-8.521,0-16.577,2.012-23.732,5.574L322.816,182.876z"/>
	</g>
	<path fill="#D1313D" d="M344.118,213.894c-0.256-0.127-0.508-0.277-0.744-0.457c-2.016-1.533-2.399-4.41-0.871-6.422
		c1.376-1.811,3.828-2.293,5.773-1.27L344.118,213.894z"/>
	<g>
		<path fill="#F7C434" d="M373.501,35.824l15.873,33.373c-4.691,1.941-9.839,3.021-15.235,3.021c-6.27,0-12.194-1.45-17.473-4.026
			L373.501,35.824z"/>
	</g>
	<circle fill="#D1313D" cx="365.73" cy="64.738" r="5.133"/>
	<g>
		<path fill="#F9BF76" d="M354.561,72.242c5.911,2.912,12.556,4.556,19.577,4.556c6.098,0,11.908-1.235,17.204-3.468l3.87,8.137
			c-6.473,2.788-13.596,4.338-21.074,4.338c-8.521,0-16.575-2.014-23.731-5.574L354.561,72.242z"/>
	</g>
	<path fill="#D1313D" d="M375.864,41.226c-0.258,0.129-0.508,0.276-0.745,0.458c-2.016,1.531-2.403,4.407-0.872,6.423
		c1.377,1.809,3.829,2.293,5.773,1.268L375.864,41.226z"/>
	<g>
		<path fill="#F7C434" d="M406.873,74.408l15.873-33.373c-4.691-1.941-9.839-3.021-15.234-3.021c-6.27,0-12.194,1.449-17.474,4.025
			L406.873,74.408z"/>
	</g>
	<circle fill="#D1313D" cx="399.103" cy="45.495" r="5.132"/>
	<g>
		<path fill="#F9BF76" d="M387.934,37.99c5.909-2.914,12.556-4.557,19.577-4.557c6.097,0,11.907,1.234,17.202,3.467l3.871-8.136
			c-6.472-2.788-13.595-4.337-21.073-4.337c-8.521,0-16.575,2.014-23.731,5.574L387.934,37.99z"/>
	</g>
	<path fill="#D1313D" d="M409.237,69.005c-0.258-0.128-0.509-0.275-0.746-0.457c-2.015-1.532-2.402-4.407-0.871-6.422
		c1.376-1.809,3.828-2.293,5.773-1.268L409.237,69.005z"/>
	<g>
		<path fill="#F7C434" d="M373.501,107.453l15.873,33.373c-4.691,1.943-9.839,3.021-15.235,3.021c-6.27,0-12.194-1.449-17.473-4.025
			L373.501,107.453z"/>
	</g>
	<circle fill="#D1313D" cx="365.73" cy="136.367" r="5.133"/>
	<g>
		<path fill="#F9BF76" d="M354.561,143.871c5.911,2.914,12.556,4.559,19.577,4.559c6.098,0,11.908-1.236,17.204-3.469l3.87,8.137
			c-6.473,2.787-13.596,4.338-21.074,4.338c-8.521,0-16.575-2.016-23.731-5.576L354.561,143.871z"/>
	</g>
	<path fill="#D1313D" d="M375.864,112.857c-0.258,0.127-0.508,0.276-0.745,0.457c-2.016,1.533-2.403,4.408-0.872,6.422
		c1.377,1.81,3.829,2.293,5.773,1.269L375.864,112.857z"/>
	<g>
		<path fill="#F7C434" d="M406.873,146.037l15.873-33.373c-4.691-1.941-9.839-3.021-15.234-3.021c-6.27,0-12.194,1.45-17.474,4.025
			L406.873,146.037z"/>
	</g>
	<circle fill="#D1313D" cx="399.103" cy="117.124" r="5.132"/>
	<g>
		<path fill="#F9BF76" d="M387.934,109.619c5.909-2.912,12.556-4.555,19.577-4.555c6.097,0,11.907,1.234,17.202,3.467l3.871-8.137
			c-6.472-2.787-13.595-4.337-21.073-4.337c-8.521,0-16.575,2.015-23.731,5.574L387.934,109.619z"/>
	</g>
	<path fill="#D1313D" d="M409.237,140.634c-0.258-0.127-0.509-0.275-0.746-0.455c-2.015-1.533-2.402-4.408-0.871-6.424
		c1.376-1.809,3.828-2.293,5.773-1.268L409.237,140.634z"/>
	<g>
		<path fill="#F7C434" d="M440.247,35.824l15.874,33.373c-4.693,1.941-9.84,3.021-15.236,3.021c-6.269,0-12.194-1.45-17.473-4.026
			L440.247,35.824z"/>
	</g>
	<circle fill="#D1313D" cx="432.476" cy="64.738" r="5.133"/>
	<g>
		<path fill="#F9BF76" d="M421.307,72.242c5.91,2.912,12.555,4.556,19.576,4.556c6.098,0,11.908-1.235,17.202-3.468l3.872,8.137
			c-6.473,2.788-13.595,4.338-21.074,4.338c-8.521,0-16.575-2.014-23.731-5.574L421.307,72.242z"/>
	</g>
	<path fill="#D1313D" d="M442.61,41.226c-0.258,0.129-0.508,0.276-0.745,0.458c-2.016,1.531-2.402,4.407-0.872,6.423
		c1.377,1.809,3.829,2.293,5.774,1.268L442.61,41.226z"/>
	<g>
		<path fill="#F7C434" d="M440.247,107.453l15.874,33.373c-4.693,1.943-9.84,3.021-15.236,3.021c-6.269,0-12.194-1.449-17.473-4.025
			L440.247,107.453z"/>
	</g>
	<circle fill="#D1313D" cx="432.476" cy="136.367" r="5.133"/>
	<g>
		<path fill="#F9BF76" d="M421.307,143.871c5.91,2.914,12.555,4.559,19.576,4.559c6.098,0,11.908-1.236,17.202-3.469l3.872,8.137
			c-6.473,2.787-13.595,4.338-21.074,4.338c-8.521,0-16.575-2.016-23.731-5.576L421.307,143.871z"/>
	</g>
	<path fill="#D1313D" d="M442.61,112.857c-0.258,0.127-0.508,0.276-0.745,0.457c-2.016,1.533-2.402,4.408-0.872,6.422
		c1.377,1.81,3.829,2.293,5.774,1.269L442.61,112.857z"/>
	<g>
		<path fill="#F7C434" d="M373.501,180.71l15.873,33.373c-4.691,1.943-9.839,3.021-15.235,3.021c-6.27,0-12.194-1.449-17.473-4.027
			L373.501,180.71z"/>
	</g>
	<circle fill="#D1313D" cx="365.73" cy="209.625" r="5.133"/>
	<g>
		<path fill="#F9BF76" d="M354.561,217.128c5.911,2.912,12.556,4.557,19.577,4.557c6.098,0,11.908-1.236,17.204-3.467l3.87,8.135
			c-6.473,2.789-13.596,4.338-21.074,4.338c-8.521,0-16.575-2.014-23.731-5.574L354.561,217.128z"/>
	</g>
	<path fill="#D1313D" d="M375.864,186.115c-0.258,0.127-0.508,0.277-0.745,0.457c-2.016,1.533-2.403,4.408-0.872,6.422
		c1.377,1.811,3.829,2.293,5.773,1.27L375.864,186.115z"/>
	<g>
		<path fill="#F7C434" d="M406.873,219.294l15.873-33.373c-4.691-1.941-9.839-3.021-15.234-3.021c-6.27,0-12.194,1.451-17.474,4.027
			L406.873,219.294z"/>
	</g>
	<circle fill="#D1313D" cx="399.103" cy="190.381" r="5.134"/>
	<g>
		<path fill="#F9BF76" d="M387.934,182.876c5.909-2.914,12.556-4.557,19.577-4.557c6.097,0,11.907,1.236,17.202,3.467l3.871-8.137
			c-6.472-2.787-13.595-4.336-21.073-4.336c-8.521,0-16.575,2.012-23.731,5.574L387.934,182.876z"/>
	</g>
	<path fill="#D1313D" d="M409.237,213.894c-0.258-0.127-0.509-0.277-0.746-0.457c-2.015-1.533-2.402-4.41-0.871-6.422
		c1.376-1.811,3.828-2.293,5.773-1.27L409.237,213.894z"/>
</g>
</svg>
