<?xml version="1.0" encoding="utf-8"?>
<!-- Generator: Adobe Illustrator 16.0.0, SVG Export Plug-In . SVG Version: 6.00 Build 0)  -->
<!DOCTYPE svg PUBLIC "-//W3C//DTD SVG 1.1//EN" "http://www.w3.org/Graphics/SVG/1.1/DTD/svg11.dtd">
<svg version="1.1" id="Layer_1" xmlns="http://www.w3.org/2000/svg" xmlns:xlink="http://www.w3.org/1999/xlink" x="0px" y="0px"
	 width="170.079px" height="85.039px" viewBox="0 0 170.079 85.039" enable-background="new 0 0 170.079 85.039"
	 xml:space="preserve">
<g>
	
		<ellipse fill="#726658" stroke="#594A42" stroke-width="1.3" stroke-miterlimit="10" cx="85.04" cy="50.294" rx="64.405" ry="18.696"/>
	<path fill="#F9BF76" stroke="#F9A048" stroke-miterlimit="10" d="M83.338,20.904c-23,0.418-44.064,3.704-45.252,5.126
		c-4.463,5.357-6.031,18.226-2.521,22.251c0.487,0.561,6.772,9.236,47.772,9.564L83.338,20.904L83.338,20.904z"/>
	<path fill="#FFFFFF" stroke="#F9A048" stroke-miterlimit="10" d="M83.338,34.706l-31.753-4.954l-10.758-1.375
		c0,0-3.438-1.868-4.745-1.868c-1.471,0-2.366,5.596-2.366,5.596c-0.118,0.348-0.229,2.535-0.229,2.535
		c0,1.906,2.146,3.613,4.063,3.613h0.098c0.592,0,1.144-0.162,1.631-0.425c0.439,1.399,1.736,2.425,3.289,2.425h0.099
		c0.983,0,1.866-0.414,2.498-1.072c0.192,1.726,1.646,3.072,3.426,3.072h0.097c1.086,0,2.043-0.51,2.678-1.287
		c0.479,1.33,1.746,2.287,3.246,2.287h0.1c0.738,0,1.424-0.236,1.986-0.634c0.61,0.98,1.69,1.634,2.934,1.634h0.096
		c1.088,0,2.045-0.51,2.68-1.287c0.479,1.33,1.748,2.287,3.248,2.287h0.097c0.963,0,1.832-0.395,2.461-1.023
		c0.627,0.633,1.496,1.023,2.461,1.023h0.097c1.262,0,2.354-0.682,2.961-1.688c0.604,1.008,1.698,1.688,2.963,1.688h0.098
		c0.963,0,1.832-0.395,2.461-1.023c0.629,0.633,1.498,1.023,2.461,1.023h0.096c0.791,0,1.545-0.48,1.545-1.182v-9.365H83.338
		L83.338,34.706z"/>
	<path fill="#FFFFFF" stroke="#F9A048" stroke-miterlimit="10" d="M83.338,16.049c-26,0.073-47.869,4.726-47.869,10.459
		s21.869,10.387,47.869,10.459V16.049z"/>
	<line fill="none" stroke="#F9A048" stroke-miterlimit="10" x1="82.838" y1="26.251" x2="35.838" y2="26.251"/>
	<g>
		<line fill="none" stroke="#F9A048" stroke-miterlimit="10" x1="83.582" y1="26.651" x2="53.311" y2="34.389"/>
		<line fill="none" stroke="#F9A048" stroke-miterlimit="10" x1="53.313" y1="18.342" x2="83.703" y2="26.365"/>
	</g>
	<polyline fill="#F9BF76" points="83.582,16.049 85.703,31.598 83.582,57.844 	"/>
</g>
</svg>
