<?xml version="1.0" encoding="utf-8"?>
<!-- Generator: Adobe Illustrator 16.0.0, SVG Export Plug-In . SVG Version: 6.00 Build 0)  -->
<!DOCTYPE svg PUBLIC "-//W3C//DTD SVG 1.1//EN" "http://www.w3.org/Graphics/SVG/1.1/DTD/svg11.dtd">
<svg version="1.1" id="Layer_1" xmlns="http://www.w3.org/2000/svg" xmlns:xlink="http://www.w3.org/1999/xlink" x="0px" y="0px"
	 width="425.197px" height="255.118px" viewBox="0 0 425.197 255.118" enable-background="new 0 0 425.197 255.118"
	 xml:space="preserve">
<g>
	<path fill="none" stroke="#231F20" stroke-width="1.5" stroke-linecap="round" stroke-linejoin="round" stroke-miterlimit="10" d="
		M16.913,192.559"/>
	<g>
		<rect x="95.397" y="12.559" fill="#E6E7E8" width="245" height="123"/>
		<path fill="none" stroke="#231F20" stroke-width="1.5" stroke-miterlimit="10" d="M344.285,12.559H95.287
			c0,0-45.432,31.938-61.108,99.977c-15.072,65.395,2.325,130.023,2.325,130.023h366.154c0,0,10.192-54.896,3.14-114.326
			C399.06,71.499,344.285,12.559,344.285,12.559z"/>
		
			<polygon fill="#F4F4F4" stroke="#231F20" stroke-width="1.5" stroke-linecap="round" stroke-linejoin="round" stroke-miterlimit="10" points="
			338.369,56.559 387.285,87.559 46.721,87.423 94.841,56.559 		"/>
		
			<rect x="46.287" y="87.559" fill="#F4F4F4" stroke="#231F20" stroke-width="1.5" stroke-linecap="round" stroke-linejoin="round" stroke-miterlimit="10" width="340.999" height="6"/>
		
			<polygon fill="#F4F4F4" stroke="#231F20" stroke-width="1.5" stroke-linecap="round" stroke-linejoin="round" stroke-miterlimit="10" points="
			339.561,133.559 401.952,164.559 30.229,164.422 92.753,133.559 		"/>
		
			<rect x="29.756" y="164.559" fill="#F4F4F4" stroke="#231F20" stroke-width="1.5" stroke-linecap="round" stroke-linejoin="round" stroke-miterlimit="10" width="372.197" height="6"/>
	</g>
	<g>
		
			<ellipse fill="#726658" stroke="#594A42" stroke-width="1.3" stroke-miterlimit="10" cx="149.245" cy="63.101" rx="64.404" ry="18.696"/>
		<path fill="#F9BF76" stroke="#F9A048" stroke-miterlimit="10" d="M194.937,38.655c-31.014-10.033-90.263-2.23-92.271,0.184
			c-4.463,5.357-5.848,18.227-2.336,22.254c0.488,0.563,6.546,9.316,48.512,9.566c26.637,0.158,45.844-4.207,47.8-9.555
			c0.056-0.049,0.116-0.101,0.167-0.148C200.594,57.171,200.106,40.327,194.937,38.655z"/>
		<path fill="#FFFFFF" stroke="#F9A048" stroke-miterlimit="10" d="M199.386,44.911c0,0-0.952-5.596-2.423-5.596
			c-1.308,0-4.854,1.868-4.854,1.868l-10.976,1.375l-32.484,5l-0.047,0.666l-0.019-0.666l-32.424-5l-10.942-1.375
			c0,0-3.529-1.868-4.84-1.868c-1.469,0-2.411,5.596-2.411,5.596c-0.117,0.349-0.252,2.535-0.252,2.535
			c0,1.906,2.123,3.612,4.036,3.612h0.098c0.593,0,1.144-0.161,1.632-0.424c0.439,1.399,1.738,2.424,3.289,2.424h0.098
			c0.983,0,1.867-0.413,2.499-1.071c0.191,1.726,1.646,3.071,3.426,3.071h0.098c1.085,0,2.042-0.508,2.677-1.286
			c0.479,1.329,1.747,2.286,3.247,2.286h0.098c0.74,0,1.425-0.235,1.987-0.633c0.61,0.978,1.69,1.633,2.934,1.633h0.098
			c1.085,0,2.043-0.508,2.678-1.286c0.479,1.329,1.747,2.286,3.247,2.286h0.096c0.965,0,1.833-0.394,2.461-1.024
			c0.629,0.633,1.497,1.024,2.462,1.024h0.097c1.264,0,2.354-0.682,2.963-1.688c0.604,1.008,1.697,1.688,2.963,1.688h0.096
			c0.963,0,1.832-0.394,2.461-1.024c0.628,0.633,1.497,1.024,2.46,1.024h0.097c1.029,0,2.101-0.813,2.867-1.858
			c0.458,1.078,1.42,1.858,2.494,1.858h0.097c0.966,0,1.833-0.394,2.462-1.024c0.629,0.633,1.496,1.024,2.462,1.024h0.096
			c1.263,0,2.354-0.682,2.962-1.688c0.604,1.008,1.699,1.688,2.963,1.688h0.097c0.964,0,1.832-0.394,2.462-1.024
			c0.628,0.633,1.496,1.024,2.46,1.024h0.097c1.501,0,2.767-0.957,3.248-2.286c0.635,0.778,1.592,1.286,2.677,1.286h0.098
			c1.239,0,2.319-0.655,2.935-1.633c0.563,0.396,1.246,0.633,1.987,0.633h0.097c1.5,0,2.767-0.957,3.247-2.286
			c0.635,0.778,1.593,1.286,2.678,1.286h0.097c1.78,0,3.231-1.348,3.427-3.071c0.631,0.658,1.515,1.071,2.499,1.071h0.097
			c1.551,0,2.849-1.022,3.29-2.424c0.487,0.263,1.038,0.424,1.631,0.424h0.096c1.913,0,4.033-1.706,4.033-3.612
			C199.641,47.446,199.503,45.258,199.386,44.911z"/>
		<ellipse fill="#FFFFFF" stroke="#F9A048" stroke-miterlimit="10" cx="148.914" cy="39.315" rx="48.496" ry="10.463"/>
		<line fill="none" stroke="#EAA253" stroke-miterlimit="10" x1="148.897" y1="28.559" x2="148.897" y2="49.559"/>
		<line fill="none" stroke="#F9A048" stroke-miterlimit="10" x1="197.397" y1="39.059" x2="100.397" y2="39.059"/>
		<g>
			<line fill="none" stroke="#F9A048" stroke-miterlimit="10" x1="180.298" y1="31.149" x2="117.518" y2="47.196"/>
			<line fill="none" stroke="#F9A048" stroke-miterlimit="10" x1="117.519" y1="31.149" x2="180.299" y2="47.196"/>
		</g>
		<g>
			
				<ellipse fill="#ED1C24" stroke="#231F20" stroke-width="0.75" stroke-miterlimit="10" cx="149.57" cy="34.679" rx="5.199" ry="4.745"/>
			
				<path fill="#ED1C24" stroke="#231F20" stroke-width="0.75" stroke-linecap="round" stroke-linejoin="round" stroke-miterlimit="10" d="
				M148.519,31.813c1.921,1.521,2.915,0.596,2.915,0.596"/>
			
				<path fill="none" stroke="#231F20" stroke-width="0.75" stroke-linecap="round" stroke-linejoin="round" stroke-miterlimit="10" d="
				M152.717,27.09c0,0-3.146,2.844-2.521,5.006"/>
		</g>
	</g>
	<g>
		
			<ellipse fill="#726658" stroke="#594A42" stroke-width="1.3" stroke-miterlimit="10" cx="213.243" cy="142.1" rx="64.405" ry="18.695"/>
		<path fill="#F9BF76" stroke="#F9A048" stroke-miterlimit="10" d="M258.936,117.655c-31.012-10.033-90.261-2.23-92.271,0.184
			c-4.463,5.357-5.848,18.227-2.336,22.254c0.488,0.561,6.546,9.316,48.512,9.566c26.635,0.158,45.842-4.207,47.798-9.555
			c0.056-0.049,0.118-0.102,0.167-0.148C264.594,136.172,264.105,119.327,258.936,117.655z"/>
		<path fill="#FFFFFF" stroke="#F9A048" stroke-miterlimit="10" d="M263.386,123.911c0,0-0.952-5.596-2.421-5.596
			c-1.311,0-4.854,1.868-4.854,1.868l-10.975,1.375l-32.485,5l-0.047,0.666l-0.019-0.666l-32.424-5l-10.941-1.375
			c0,0-3.53-1.868-4.841-1.868c-1.469,0-2.412,5.596-2.412,5.596c-0.116,0.349-0.251,2.535-0.251,2.535
			c0,1.906,2.123,3.613,4.036,3.613h0.098c0.593,0,1.144-0.162,1.632-0.426c0.439,1.4,1.736,2.426,3.289,2.426h0.098
			c0.983,0,1.867-0.414,2.498-1.072c0.192,1.725,1.646,3.072,3.427,3.072h0.098c1.085,0,2.042-0.51,2.677-1.287
			c0.479,1.33,1.747,2.287,3.247,2.287h0.098c0.74,0,1.425-0.236,1.987-0.635c0.61,0.979,1.69,1.635,2.934,1.635h0.098
			c1.085,0,2.043-0.51,2.678-1.287c0.479,1.33,1.747,2.287,3.247,2.287h0.096c0.965,0,1.833-0.395,2.462-1.025
			c0.628,0.633,1.496,1.025,2.461,1.025h0.098c1.263,0,2.354-0.684,2.962-1.689c0.604,1.008,1.697,1.689,2.963,1.689h0.096
			c0.964,0,1.832-0.395,2.462-1.025c0.628,0.633,1.496,1.025,2.46,1.025h0.097c1.029,0,2.1-0.814,2.866-1.859
			c0.458,1.078,1.419,1.859,2.494,1.859h0.099c0.964,0,1.833-0.395,2.461-1.025c0.628,0.633,1.497,1.025,2.461,1.025h0.096
			c1.263,0,2.356-0.684,2.962-1.689c0.605,1.008,1.699,1.689,2.963,1.689h0.099c0.963,0,1.832-0.395,2.461-1.025
			c0.628,0.633,1.497,1.025,2.46,1.025h0.096c1.501,0,2.768-0.957,3.248-2.287c0.635,0.777,1.592,1.287,2.677,1.287h0.099
			c1.238,0,2.318-0.656,2.934-1.635c0.563,0.396,1.246,0.635,1.988,0.635h0.096c1.5,0,2.768-0.957,3.247-2.287
			c0.635,0.777,1.593,1.287,2.678,1.287h0.098c1.779,0,3.23-1.35,3.427-3.072c0.63,0.658,1.514,1.072,2.499,1.072h0.096
			c1.551,0,2.85-1.023,3.29-2.426c0.488,0.264,1.038,0.426,1.631,0.426h0.098c1.912,0,4.031-1.707,4.031-3.613
			C263.64,126.446,263.504,124.258,263.386,123.911z"/>
		<ellipse fill="#FFFFFF" stroke="#F9A048" stroke-miterlimit="10" cx="212.914" cy="118.315" rx="48.495" ry="10.463"/>
		<line fill="none" stroke="#EAA253" stroke-miterlimit="10" x1="212.897" y1="107.559" x2="212.897" y2="128.559"/>
		<line fill="none" stroke="#F9A048" stroke-miterlimit="10" x1="261.396" y1="118.059" x2="164.397" y2="118.059"/>
		<g>
			<line fill="none" stroke="#F9A048" stroke-miterlimit="10" x1="244.299" y1="110.149" x2="181.518" y2="126.196"/>
			<line fill="none" stroke="#F9A048" stroke-miterlimit="10" x1="181.519" y1="110.149" x2="244.3" y2="126.196"/>
		</g>
		<g>
			
				<ellipse fill="#ED1C24" stroke="#231F20" stroke-width="0.75" stroke-miterlimit="10" cx="213.569" cy="113.679" rx="5.199" ry="4.745"/>
			
				<path fill="#ED1C24" stroke="#231F20" stroke-width="0.75" stroke-linecap="round" stroke-linejoin="round" stroke-miterlimit="10" d="
				M212.519,110.813c1.919,1.521,2.915,0.596,2.915,0.596"/>
			
				<path fill="none" stroke="#231F20" stroke-width="0.75" stroke-linecap="round" stroke-linejoin="round" stroke-miterlimit="10" d="
				M216.717,106.09c0,0-3.146,2.844-2.521,5.006"/>
		</g>
	</g>
	<g>
		
			<ellipse fill="#726658" stroke="#594A42" stroke-width="1.3" stroke-miterlimit="10" cx="289.243" cy="63.101" rx="64.405" ry="18.696"/>
		<path fill="#F9BF76" stroke="#F9A048" stroke-miterlimit="10" d="M334.936,38.655c-31.012-10.033-90.261-2.23-92.272,0.184
			c-4.463,5.357-5.847,18.227-2.336,22.254c0.489,0.563,6.546,9.316,48.515,9.566c26.635,0.158,45.842-4.207,47.798-9.555
			c0.056-0.049,0.118-0.101,0.167-0.148C340.594,57.171,340.105,40.327,334.936,38.655z"/>
		<path fill="#FFFFFF" stroke="#F9A048" stroke-miterlimit="10" d="M339.386,44.911c0,0-0.952-5.596-2.421-5.596
			c-1.311,0-4.854,1.868-4.854,1.868l-10.975,1.375l-32.485,5l-0.047,0.666l-0.018-0.666l-32.427-5l-10.94-1.375
			c0,0-3.53-1.868-4.839-1.868c-1.472,0-2.412,5.596-2.412,5.596c-0.118,0.349-0.251,2.535-0.251,2.535
			c0,1.906,2.123,3.612,4.036,3.612h0.096c0.593,0,1.143-0.161,1.632-0.424c0.441,1.399,1.738,2.424,3.289,2.424h0.097
			c0.984,0,1.868-0.413,2.499-1.071c0.192,1.726,1.646,3.071,3.429,3.071h0.096c1.085,0,2.042-0.508,2.677-1.286
			c0.481,1.329,1.747,2.286,3.247,2.286h0.097c0.741,0,1.427-0.235,1.988-0.633c0.612,0.978,1.692,1.633,2.934,1.633h0.098
			c1.085,0,2.043-0.508,2.678-1.286c0.48,1.329,1.747,2.286,3.247,2.286h0.096c0.964,0,1.833-0.394,2.461-1.024
			c0.628,0.633,1.497,1.024,2.462,1.024h0.098c1.263,0,2.354-0.682,2.962-1.688c0.604,1.008,1.699,1.688,2.963,1.688h0.096
			c0.964,0,1.832-0.394,2.461-1.024c0.628,0.633,1.497,1.024,2.46,1.024h0.099c1.028,0,2.099-0.813,2.866-1.858
			c0.457,1.078,1.421,1.858,2.493,1.858h0.099c0.964,0,1.833-0.394,2.461-1.024c0.628,0.633,1.497,1.024,2.461,1.024h0.096
			c1.264,0,2.356-0.682,2.962-1.688c0.605,1.008,1.699,1.688,2.963,1.688h0.099c0.963,0,1.832-0.394,2.461-1.024
			c0.628,0.633,1.497,1.024,2.46,1.024h0.096c1.501,0,2.768-0.957,3.248-2.286c0.635,0.778,1.592,1.286,2.677,1.286h0.1
			c1.237,0,2.317-0.655,2.933-1.633c0.563,0.396,1.246,0.633,1.988,0.633h0.096c1.5,0,2.768-0.957,3.247-2.286
			c0.635,0.778,1.593,1.286,2.678,1.286h0.099c1.778,0,3.229-1.348,3.426-3.071c0.63,0.658,1.514,1.071,2.499,1.071h0.096
			c1.551,0,2.85-1.022,3.29-2.424c0.488,0.263,1.038,0.424,1.631,0.424h0.097c1.913,0,4.032-1.706,4.032-3.612
			C339.64,47.446,339.504,45.258,339.386,44.911z"/>
		<ellipse fill="#FFFFFF" stroke="#F9A048" stroke-miterlimit="10" cx="288.912" cy="39.315" rx="48.496" ry="10.463"/>
		<line fill="none" stroke="#EAA253" stroke-miterlimit="10" x1="288.896" y1="28.559" x2="288.896" y2="49.559"/>
		<line fill="none" stroke="#F9A048" stroke-miterlimit="10" x1="337.396" y1="39.059" x2="240.396" y2="39.059"/>
		<g>
			<line fill="none" stroke="#F9A048" stroke-miterlimit="10" x1="320.299" y1="31.149" x2="257.517" y2="47.196"/>
			<line fill="none" stroke="#F9A048" stroke-miterlimit="10" x1="257.518" y1="31.149" x2="320.3" y2="47.196"/>
		</g>
		<g>
			
				<ellipse fill="#ED1C24" stroke="#231F20" stroke-width="0.75" stroke-miterlimit="10" cx="289.569" cy="34.679" rx="5.199" ry="4.745"/>
			
				<path fill="#ED1C24" stroke="#231F20" stroke-width="0.75" stroke-linecap="round" stroke-linejoin="round" stroke-miterlimit="10" d="
				M288.518,31.813c1.921,1.521,2.915,0.596,2.915,0.596"/>
			
				<path fill="none" stroke="#231F20" stroke-width="0.75" stroke-linecap="round" stroke-linejoin="round" stroke-miterlimit="10" d="
				M292.718,27.09c0,0-3.147,2.844-2.521,5.006"/>
		</g>
	</g>
</g>
</svg>
