<?xml version="1.0" encoding="utf-8"?>
<!-- Generator: Adobe Illustrator 16.0.0, SVG Export Plug-In . SVG Version: 6.00 Build 0)  -->
<!DOCTYPE svg PUBLIC "-//W3C//DTD SVG 1.1//EN" "http://www.w3.org/Graphics/SVG/1.1/DTD/svg11.dtd">
<svg version="1.1" id="Layer_1" xmlns="http://www.w3.org/2000/svg" xmlns:xlink="http://www.w3.org/1999/xlink" x="0px" y="0px"
	 width="510.236px" height="113.386px" viewBox="0 0 510.236 113.386" enable-background="new 0 0 510.236 113.386"
	 xml:space="preserve">
<g>
	<path fill="#231F20" stroke="#FFFFFF" stroke-width="0.5" stroke-miterlimit="10" d="M338.886,23.958
		c-0.529,0-0.887,0.354-0.799,0.887v11.713c0,0.531,0.354,0.887,0.887,0.887h2.133c0.889,1.863,2.928,3.105,5.057,3.105
		c2.131,0,4.082-1.242,5.059-3.105h14.904c0.889,1.863,2.84,3.105,5.059,3.105c2.13,0,4.082-1.242,5.059-3.105h3.461
		c0.354,0,0.621-0.266,0.797-0.531c0.18-0.354,0.092-0.709-0.088-0.977c-0.89-1.066-2.131-2.131-3.729-2.93
		c-0.709-2.395-2.928-4.08-5.5-4.08c-1.42,0-2.75,0.445-3.727,1.332c-3.105-0.445-5.855-0.533-7.275-0.533V26.62
		c0-0.178-0.088-0.442-0.266-0.621c-0.178-0.088-0.443-0.178-0.711-0.178c-5.41,0.621-8.783,2.219-10.734,3.639
		c-0.266-0.088-0.443-0.18-0.711-0.268v-4.348c0-0.531-0.354-0.887-0.885-0.887H338.886L338.886,23.958z M376.861,35.668
		c0-0.088,0-0.178,0.088-0.178v-0.267c0.18,0.176,0.441,0.267,0.621,0.442L376.861,35.668L376.861,35.668z M371.181,38.686
		c-1.773,0-3.281-1.154-3.902-2.93c0-0.088-0.088-0.178-0.088-0.354c-0.092-0.268-0.092-0.532-0.092-0.799s0-0.53,0.092-0.799
		c0,0,0.088-0.089,0.088-0.177c0.088-0.18,0.088-0.354,0.178-0.532c0.09-0.179,0.09-0.269,0.178-0.354
		c0.09-0.177,0.182-0.354,0.27-0.443c0.088-0.178,0.266-0.354,0.439-0.531c0.711-0.711,1.773-1.152,2.84-1.152
		c1.953,0,3.462,1.33,3.904,3.105v0.176c0.088,0.266,0.088,0.445,0.088,0.709c0,0.266,0,0.533-0.088,0.799
		c0,0.18-0.088,0.268-0.088,0.443C374.466,37.532,372.956,38.686,371.181,38.686L371.181,38.686z M351.753,35.668
		C351.753,35.583,351.753,35.583,351.753,35.668c0.088-0.354,0.088-0.709,0.09-0.889c0-1.24-0.443-2.306-1.064-3.279
		c-0.089-0.18-0.266-0.269-0.354-0.445l-0.442-0.441c1.688-1.066,4.351-2.309,8.341-2.84v2.928c0,0.267,0.09,0.441,0.268,0.621
		c0.178,0.178,0.354,0.266,0.621,0.266c0.088,0,3.104-0.088,6.832,0.355v0.088c-0.09,0.178-0.18,0.354-0.268,0.533
		c0,0.088-0.09,0.178-0.09,0.266s-0.09,0.179-0.09,0.355c-0.09,0.088-0.09,0.178-0.09,0.266c0,0.178-0.088,0.269-0.088,0.443v0.887
		c0,0.268,0.088,0.533,0.088,0.799v0.09h-13.752L351.753,35.668L351.753,35.668z M346.073,38.686c-1.773,0-3.281-1.154-3.813-2.93
		c0-0.088-0.088-0.176-0.088-0.354c-0.092-0.266-0.092-0.532-0.092-0.799c0-2.217,1.773-3.992,3.992-3.992
		c0.801,0,1.51,0.269,2.131,0.621l0.178,0.179c0.178,0.09,0.355,0.266,0.443,0.354l0.178,0.178c0.09,0.178,0.266,0.268,0.354,0.443
		c0.09,0,0.09,0.09,0.178,0.178c0.09,0.178,0.178,0.266,0.268,0.443c0,0.09,0.088,0.09,0.088,0.178
		c0.09,0.266,0.09,0.443,0.18,0.621v0.178c0.088,0.266,0.088,0.443,0.088,0.709v0.178c0,0.267-0.088,0.443-0.088,0.621
		c-0.088,0.09-0.088,0.267-0.18,0.443C349.357,37.532,347.847,38.686,346.073,38.686L346.073,38.686z M339.685,35.668V25.644h6.213
		v3.281h-0.713c-0.088,0.088-0.176,0.088-0.266,0.088s-0.178,0.09-0.268,0.09c-0.092,0-0.18,0.088-0.268,0.088
		c-0.09,0-0.178,0.089-0.266,0.089c-0.09,0-0.18,0.092-0.27,0.092c-0.088,0-0.18,0.088-0.268,0.088s-0.178,0-0.268,0.088
		c-0.09,0.09-0.178,0.09-0.268,0.178c-0.088,0.088-0.176,0.088-0.266,0.18c-0.09,0.088-0.179,0.088-0.27,0.178
		c0,0.089-0.088,0.089-0.178,0.179c0,0.088-0.088,0.088-0.176,0.176l-0.181,0.179c-0.089,0-0.089,0.09-0.179,0.178l-0.176,0.178
		c-0.088,0.088-0.088,0.178-0.178,0.268c-0.09,0-0.09,0.088-0.179,0.178c-0.091,0.089-0.091,0.179-0.181,0.267
		c-0.088,0.088-0.176,0.179-0.176,0.269c0,0.088-0.09,0.178-0.09,0.266s-0.088,0.178-0.088,0.266c0,0.09-0.091,0.178-0.091,0.268
		c0,0.091-0.091,0.179-0.091,0.267c0,0.091-0.088,0.181-0.088,0.269c-0.088,0.09-0.088,0.178-0.088,0.266
		c-0.09,0.18-0.09,0.268-0.09,0.354v0.889c0,0.269,0.09,0.533,0.09,0.8v0.09h-0.621h-0.075v-0.015H339.685L339.685,35.668z"/>
	<path fill="#231F20" stroke="#FFFFFF" stroke-width="0.5" stroke-miterlimit="10" d="M287.089,23.958
		c-0.533,0-0.889,0.354-0.799,0.887v11.713c0,0.531,0.354,0.887,0.887,0.887h2.129c0.891,1.863,2.932,3.105,5.059,3.105
		c2.131,0,4.082-1.242,5.061-3.105h14.902c0.889,1.863,2.84,3.105,5.059,3.105c2.129,0,4.082-1.242,5.061-3.105h3.459
		c0.354,0,0.621-0.266,0.797-0.531c0.18-0.354,0.092-0.709-0.088-0.977c-0.889-1.066-2.129-2.131-3.729-2.93
		c-0.709-2.395-2.926-4.08-5.5-4.08c-1.418,0-2.748,0.445-3.727,1.332c-3.105-0.445-5.854-0.533-7.275-0.533V26.62
		c0-0.178-0.088-0.442-0.266-0.621c-0.178-0.088-0.443-0.178-0.711-0.178c-5.41,0.621-8.781,2.219-10.732,3.639
		c-0.268-0.088-0.443-0.18-0.711-0.268v-4.348c0-0.531-0.354-0.887-0.887-0.887H287.089L287.089,23.958z M325.06,35.668
		c0-0.088,0-0.178,0.09-0.178v-0.267c0.18,0.176,0.439,0.267,0.62,0.442L325.06,35.668L325.06,35.668z M319.384,38.686
		c-1.773,0-3.283-1.154-3.902-2.93c0-0.088-0.09-0.178-0.09-0.354c-0.09-0.268-0.09-0.532-0.09-0.799s0-0.53,0.09-0.799
		c0,0,0.09-0.089,0.09-0.177c0.088-0.18,0.088-0.354,0.178-0.532c0.09-0.179,0.09-0.269,0.178-0.354
		c0.09-0.177,0.18-0.354,0.27-0.443c0.088-0.178,0.266-0.354,0.439-0.531c0.711-0.711,1.773-1.152,2.84-1.152
		c1.953,0,3.461,1.33,3.904,3.105v0.176c0.088,0.266,0.088,0.445,0.088,0.709c0,0.266,0,0.533-0.088,0.799
		c0,0.18-0.09,0.268-0.09,0.443C322.665,37.532,321.156,38.686,319.384,38.686L319.384,38.686z M299.952,35.668
		C299.952,35.583,299.952,35.583,299.952,35.668c0.09-0.354,0.09-0.709,0.09-0.889c0-1.24-0.443-2.306-1.064-3.279
		c-0.088-0.18-0.266-0.269-0.354-0.445l-0.443-0.441c1.688-1.066,4.35-2.309,8.338-2.84v2.928c0,0.267,0.092,0.441,0.27,0.621
		c0.178,0.178,0.354,0.266,0.621,0.266c0.09,0,3.104-0.088,6.832,0.355v0.088c-0.088,0.178-0.179,0.354-0.27,0.533
		c0,0.088-0.088,0.178-0.088,0.266s-0.09,0.179-0.09,0.355c-0.088,0.088-0.088,0.178-0.088,0.266c0,0.178-0.09,0.269-0.09,0.443
		v0.887c0,0.268,0.09,0.533,0.09,0.799v0.09h-13.754V35.668z M294.275,38.686c-1.773,0-3.283-1.154-3.814-2.93
		c0-0.088-0.088-0.176-0.088-0.354c-0.092-0.266-0.092-0.532-0.092-0.799c0-2.217,1.773-3.992,3.994-3.992
		c0.799,0,1.508,0.269,2.129,0.621l0.178,0.179c0.178,0.09,0.354,0.266,0.443,0.354l0.18,0.178c0.088,0.178,0.264,0.268,0.354,0.443
		c0.089,0,0.089,0.09,0.178,0.178c0.09,0.178,0.18,0.266,0.268,0.443c0,0.09,0.088,0.09,0.088,0.178
		c0.09,0.266,0.09,0.443,0.181,0.621v0.178c0.089,0.266,0.089,0.443,0.089,0.709v0.178c0,0.267-0.089,0.443-0.089,0.621
		c-0.091,0.09-0.091,0.267-0.181,0.443C297.556,37.532,296.05,38.686,294.275,38.686L294.275,38.686z M287.886,35.668V25.644h6.211
		v3.281h-0.711c-0.088,0.088-0.176,0.088-0.266,0.088s-0.178,0.09-0.27,0.09c-0.09,0-0.178,0.088-0.266,0.088
		c-0.09,0-0.178,0.089-0.268,0.089c-0.089,0-0.18,0.092-0.268,0.092s-0.18,0.088-0.268,0.088s-0.179,0-0.27,0.088
		c-0.088,0.09-0.176,0.09-0.266,0.178c-0.088,0.088-0.176,0.088-0.269,0.18c-0.089,0.088-0.177,0.088-0.267,0.178
		c0,0.089-0.088,0.089-0.178,0.179c0,0.088-0.088,0.088-0.176,0.176l-0.182,0.179c-0.088,0-0.088,0.09-0.178,0.178l-0.176,0.178
		c-0.088,0.088-0.088,0.178-0.181,0.268c-0.089,0-0.089,0.088-0.177,0.178c-0.09,0.089-0.09,0.179-0.18,0.267
		c-0.088,0.088-0.176,0.179-0.176,0.269c0,0.088-0.091,0.178-0.091,0.266s-0.09,0.178-0.09,0.266c0,0.09-0.089,0.178-0.089,0.268
		c0,0.091-0.09,0.179-0.09,0.267c0,0.091-0.088,0.181-0.088,0.269c-0.088,0.09-0.088,0.178-0.088,0.266
		c-0.09,0.18-0.09,0.268-0.09,0.354v0.889c0,0.269,0.09,0.533,0.09,0.8v0.09h-0.621h-0.082v-0.015H287.886L287.886,35.668z"/>
	<path fill="#231F20" stroke="#FFFFFF" stroke-width="0.5" stroke-miterlimit="10" d="M235.288,23.958
		c-0.532,0-0.891,0.354-0.801,0.887v11.713c0,0.531,0.354,0.887,0.889,0.887h2.13c0.888,1.863,2.929,3.105,5.057,3.105
		c2.131,0,4.081-1.242,5.061-3.105h14.904c0.889,1.863,2.838,3.105,5.059,3.105c2.129,0,4.082-1.242,5.057-3.105h3.462
		c0.354,0,0.62-0.266,0.798-0.531c0.18-0.354,0.09-0.709-0.089-0.977c-0.89-1.066-2.132-2.131-3.728-2.93
		c-0.709-2.395-2.928-4.08-5.5-4.08c-1.42,0-2.75,0.445-3.729,1.332c-3.104-0.445-5.854-0.533-7.273-0.533V26.62
		c0-0.178-0.088-0.442-0.268-0.621c-0.178-0.088-0.441-0.178-0.71-0.178c-5.411,0.621-8.783,2.219-10.733,3.639
		c-0.27-0.088-0.445-0.18-0.711-0.268v-4.348c0-0.531-0.355-0.887-0.888-0.887H235.288L235.288,23.958z M273.261,35.668
		c0-0.088,0-0.178,0.088-0.178v-0.267c0.18,0.176,0.441,0.267,0.621,0.442L273.261,35.668L273.261,35.668z M267.583,38.686
		c-1.773,0-3.281-1.154-3.902-2.93c0-0.088-0.088-0.178-0.088-0.354c-0.09-0.268-0.09-0.532-0.09-0.799s0-0.53,0.09-0.799
		c0,0,0.088-0.089,0.088-0.177c0.088-0.18,0.088-0.354,0.178-0.532c0.09-0.179,0.09-0.269,0.178-0.354
		c0.09-0.177,0.18-0.354,0.268-0.443c0.088-0.178,0.268-0.354,0.443-0.531c0.711-0.711,1.771-1.152,2.84-1.152
		c1.951,0,3.459,1.33,3.902,3.105v0.176c0.088,0.266,0.088,0.445,0.088,0.709c0,0.266,0,0.533-0.088,0.799
		c0,0.18-0.088,0.268-0.088,0.443C270.864,37.532,269.357,38.686,267.583,38.686L267.583,38.686z M248.152,35.668
		C248.152,35.583,248.152,35.583,248.152,35.668c0.09-0.354,0.09-0.709,0.092-0.889c0-1.24-0.445-2.306-1.066-3.279
		c-0.088-0.18-0.264-0.269-0.354-0.445l-0.443-0.441c1.685-1.066,4.347-2.309,8.339-2.84v2.928c0,0.267,0.09,0.441,0.266,0.621
		c0.182,0.178,0.355,0.266,0.623,0.266c0.09,0,3.104-0.088,6.832,0.355v0.088c-0.09,0.178-0.18,0.354-0.268,0.533
		c0,0.088-0.088,0.178-0.088,0.266s-0.09,0.179-0.09,0.355c-0.09,0.088-0.09,0.178-0.09,0.266c0,0.178-0.088,0.269-0.088,0.443
		v0.887c0,0.268,0.088,0.533,0.088,0.799v0.09h-13.754L248.152,35.668L248.152,35.668z M242.473,38.686
		c-1.771,0-3.283-1.154-3.813-2.93c0-0.088-0.088-0.176-0.088-0.354c-0.094-0.266-0.094-0.532-0.094-0.799
		c0-2.217,1.775-3.992,3.993-3.992c0.8,0,1.509,0.269,2.13,0.621l0.18,0.179c0.178,0.09,0.354,0.266,0.441,0.354l0.179,0.178
		c0.091,0.178,0.267,0.268,0.354,0.443c0.089,0,0.089,0.09,0.177,0.178c0.089,0.178,0.179,0.266,0.27,0.443
		c0,0.09,0.088,0.09,0.088,0.178c0.089,0.266,0.089,0.443,0.179,0.621v0.178c0.088,0.266,0.088,0.443,0.088,0.709v0.178
		c0,0.267-0.088,0.443-0.088,0.621c-0.089,0.09-0.089,0.267-0.179,0.443C245.758,37.532,244.249,38.686,242.473,38.686
		L242.473,38.686z M236.087,35.668V25.644h6.211v3.281h-0.711c-0.088,0.088-0.176,0.088-0.268,0.088c-0.09,0-0.178,0.09-0.268,0.09
		c-0.089,0-0.177,0.088-0.266,0.088s-0.18,0.089-0.269,0.089s-0.179,0.092-0.267,0.092s-0.179,0.088-0.269,0.088
		c-0.088,0-0.179,0-0.268,0.088c-0.088,0.09-0.177,0.09-0.266,0.178c-0.09,0.088-0.179,0.088-0.27,0.18
		c-0.089,0.088-0.177,0.088-0.266,0.178c0,0.089-0.089,0.089-0.179,0.179c0,0.088-0.089,0.088-0.177,0.176l-0.18,0.179
		c-0.088,0-0.088,0.09-0.178,0.178l-0.179,0.178c-0.088,0.088-0.088,0.178-0.179,0.268c-0.089,0-0.089,0.088-0.177,0.178
		c-0.09,0.089-0.09,0.179-0.18,0.267c-0.088,0.088-0.178,0.179-0.178,0.269c0,0.088-0.089,0.178-0.089,0.266s-0.09,0.178-0.09,0.266
		c0,0.09-0.088,0.178-0.088,0.268c0,0.091-0.09,0.179-0.09,0.267c0,0.091-0.089,0.181-0.089,0.269
		c-0.089,0.09-0.089,0.178-0.089,0.266c-0.091,0.18-0.091,0.268-0.091,0.354v0.889c0,0.269,0.091,0.533,0.091,0.8v0.09h-0.621
		h-0.081v-0.015H236.087L236.087,35.668z"/>
	<path fill="#231F20" stroke="#FFFFFF" stroke-width="0.5" stroke-miterlimit="10" d="M183.488,23.958
		c-0.53,0-0.889,0.354-0.8,0.887v11.713c0,0.531,0.354,0.887,0.89,0.887h2.13c0.888,1.863,2.929,3.105,5.057,3.105
		c2.13,0,4.081-1.242,5.062-3.105h14.901c0.891,1.863,2.839,3.105,5.061,3.105c2.129,0,4.082-1.242,5.058-3.105h3.46
		c0.354,0,0.621-0.266,0.797-0.531c0.182-0.354,0.092-0.709-0.088-0.977c-0.888-1.066-2.13-2.131-3.727-2.93
		c-0.709-2.395-2.929-4.08-5.5-4.08c-1.419,0-2.749,0.445-3.729,1.332c-3.104-0.445-5.854-0.533-7.272-0.533V26.62
		c0-0.178-0.089-0.442-0.269-0.621c-0.177-0.088-0.44-0.178-0.71-0.178c-5.411,0.621-8.782,2.219-10.731,3.639
		c-0.27-0.088-0.445-0.18-0.712-0.268v-4.348c0-0.531-0.354-0.887-0.888-0.887H183.488L183.488,23.958z M221.463,35.668
		c0-0.088,0-0.178,0.088-0.178v-0.267c0.179,0.176,0.442,0.267,0.621,0.442L221.463,35.668L221.463,35.668z M215.784,38.686
		c-1.774,0-3.282-1.154-3.903-2.93c0-0.088-0.088-0.178-0.088-0.354c-0.09-0.268-0.09-0.532-0.09-0.799s0-0.53,0.09-0.799
		c0,0,0.088-0.089,0.088-0.177c0.088-0.18,0.088-0.354,0.177-0.532c0.089-0.179,0.089-0.269,0.178-0.354
		c0.092-0.177,0.182-0.354,0.27-0.443c0.088-0.178,0.266-0.354,0.44-0.531c0.713-0.711,1.773-1.152,2.842-1.152
		c1.95,0,3.46,1.33,3.9,3.105v0.176c0.09,0.266,0.09,0.445,0.09,0.709c0,0.266,0,0.533-0.09,0.799c0,0.18-0.088,0.268-0.088,0.443
		C219.065,37.532,217.556,38.686,215.784,38.686L215.784,38.686z M196.352,35.668C196.352,35.583,196.352,35.583,196.352,35.668
		c0.09-0.354,0.09-0.709,0.091-0.889c0-1.24-0.442-2.306-1.063-3.279c-0.088-0.18-0.267-0.269-0.354-0.445l-0.44-0.441
		c1.686-1.066,4.348-2.309,8.339-2.84v2.928c0,0.267,0.09,0.441,0.267,0.621c0.181,0.178,0.354,0.266,0.621,0.266
		c0.089,0,3.105-0.088,6.832,0.355v0.088c-0.088,0.178-0.178,0.354-0.267,0.533c0,0.088-0.088,0.178-0.088,0.266
		s-0.091,0.179-0.091,0.355c-0.091,0.088-0.091,0.178-0.091,0.266c0,0.178-0.088,0.269-0.088,0.443v0.887
		c0,0.268,0.088,0.533,0.088,0.799v0.09h-13.753L196.352,35.668L196.352,35.668z M190.676,38.686c-1.773,0-3.283-1.154-3.813-2.93
		c0-0.088-0.089-0.176-0.089-0.354c-0.091-0.266-0.091-0.532-0.091-0.799c0-2.217,1.775-3.992,3.993-3.992
		c0.8,0,1.509,0.269,2.13,0.621l0.178,0.179c0.18,0.09,0.355,0.266,0.443,0.354l0.178,0.178c0.09,0.178,0.268,0.268,0.354,0.443
		c0.089,0,0.089,0.09,0.177,0.178c0.089,0.178,0.178,0.266,0.268,0.443c0,0.09,0.09,0.09,0.09,0.178
		c0.089,0.266,0.089,0.443,0.179,0.621v0.178c0.088,0.266,0.088,0.443,0.088,0.709v0.178c0,0.267-0.088,0.443-0.088,0.621
		c-0.089,0.09-0.089,0.267-0.179,0.443C193.959,37.532,192.45,38.686,190.676,38.686L190.676,38.686z M184.288,35.668V25.644h6.211
		v3.281h-0.711c-0.088,0.088-0.178,0.088-0.269,0.088c-0.089,0-0.177,0.09-0.267,0.09c-0.089,0-0.177,0.088-0.268,0.088
		c-0.09,0-0.179,0.089-0.267,0.089c-0.089,0-0.179,0.092-0.267,0.092s-0.181,0.088-0.27,0.088c-0.088,0-0.178,0-0.267,0.088
		c-0.088,0.09-0.177,0.09-0.268,0.178c-0.09,0.088-0.178,0.088-0.268,0.18c-0.089,0.088-0.177,0.088-0.266,0.178
		c0,0.089-0.091,0.089-0.18,0.179c0,0.088-0.089,0.088-0.177,0.176l-0.179,0.179c-0.088,0-0.088,0.09-0.179,0.178l-0.178,0.178
		c-0.089,0.088-0.089,0.178-0.179,0.268c-0.089,0-0.089,0.088-0.177,0.178c-0.091,0.089-0.091,0.179-0.181,0.267
		c-0.088,0.088-0.178,0.179-0.178,0.269c0,0.088-0.089,0.178-0.089,0.266s-0.089,0.178-0.089,0.266c0,0.09-0.088,0.178-0.088,0.268
		c0,0.091-0.091,0.179-0.091,0.267c0,0.091-0.09,0.181-0.09,0.269c-0.088,0.09-0.088,0.178-0.088,0.266
		c-0.09,0.18-0.09,0.268-0.09,0.354v0.889c0,0.269,0.09,0.533,0.09,0.8v0.09h-0.621h-0.082v-0.015H184.288L184.288,35.668z"/>
	<path fill="#231F20" stroke="#FFFFFF" stroke-width="0.5" stroke-miterlimit="10" d="M131.688,23.958
		c-0.529,0-0.888,0.354-0.799,0.887v11.713c0,0.531,0.354,0.887,0.888,0.887h2.132c0.888,1.863,2.929,3.105,5.057,3.105
		c2.13,0,4.081-1.242,5.059-3.105h14.904c0.888,1.863,2.839,3.105,5.06,3.105c2.13,0,4.081-1.242,5.059-3.105h3.46
		c0.354,0,0.621-0.266,0.797-0.531c0.179-0.354,0.091-0.709-0.088-0.977c-0.888-1.066-2.13-2.131-3.728-2.93
		c-0.709-2.395-2.929-4.08-5.5-4.08c-1.42,0-2.748,0.445-3.729,1.332c-3.104-0.445-5.854-0.533-7.274-0.533V26.62
		c0-0.178-0.089-0.442-0.267-0.621c-0.177-0.088-0.442-0.178-0.71-0.178c-5.411,0.621-8.783,2.219-10.734,3.639
		c-0.267-0.088-0.442-0.18-0.711-0.268v-4.348c0-0.531-0.354-0.887-0.886-0.887H131.688L131.688,23.958z M169.663,35.668
		c0-0.088,0-0.178,0.088-0.178v-0.267c0.179,0.176,0.44,0.267,0.621,0.442L169.663,35.668L169.663,35.668z M163.984,38.686
		c-1.772,0-3.28-1.154-3.901-2.93c0-0.088-0.088-0.178-0.088-0.354c-0.092-0.268-0.092-0.532-0.092-0.799s0-0.53,0.092-0.799
		c0,0,0.088-0.089,0.088-0.177c0.088-0.18,0.088-0.354,0.177-0.532c0.089-0.179,0.089-0.269,0.177-0.354
		c0.091-0.177,0.183-0.354,0.271-0.443c0.088-0.178,0.266-0.354,0.439-0.531c0.711-0.711,1.774-1.152,2.841-1.152
		c1.951,0,3.461,1.33,3.902,3.105v0.176c0.089,0.266,0.089,0.445,0.089,0.709c0,0.266,0,0.533-0.089,0.799
		c0,0.18-0.088,0.268-0.088,0.443C167.265,37.532,165.758,38.686,163.984,38.686L163.984,38.686z M144.553,35.668
		C144.553,35.583,144.553,35.583,144.553,35.668c0.089-0.354,0.089-0.709,0.09-0.889c0-1.24-0.441-2.306-1.063-3.279
		c-0.088-0.18-0.268-0.269-0.354-0.445l-0.44-0.441c1.686-1.066,4.348-2.309,8.339-2.84v2.928c0,0.267,0.09,0.441,0.267,0.621
		c0.178,0.178,0.354,0.266,0.621,0.266c0.089,0,3.105-0.088,6.832,0.355v0.088c-0.088,0.178-0.178,0.354-0.267,0.533
		c0,0.088-0.09,0.178-0.09,0.266s-0.091,0.179-0.091,0.355c-0.089,0.088-0.089,0.178-0.089,0.266c0,0.178-0.088,0.269-0.088,0.443
		v0.887c0,0.268,0.088,0.533,0.088,0.799v0.09h-13.753L144.553,35.668L144.553,35.668z M138.876,38.686
		c-1.774,0-3.283-1.154-3.814-2.93c0-0.088-0.088-0.176-0.088-0.354c-0.091-0.266-0.091-0.532-0.091-0.799
		c0-2.217,1.775-3.992,3.993-3.992c0.8,0,1.509,0.269,2.13,0.621l0.177,0.179c0.179,0.09,0.356,0.266,0.444,0.354l0.178,0.178
		c0.089,0.178,0.266,0.268,0.354,0.443c0.089,0,0.089,0.09,0.177,0.178c0.089,0.178,0.178,0.266,0.267,0.443
		c0,0.09,0.088,0.09,0.088,0.178c0.092,0.266,0.092,0.443,0.182,0.621v0.178c0.088,0.266,0.088,0.443,0.088,0.709v0.178
		c0,0.267-0.088,0.443-0.088,0.621c-0.089,0.09-0.089,0.267-0.182,0.443C142.159,37.532,140.65,38.686,138.876,38.686
		L138.876,38.686z M132.488,35.668V25.644h6.213v3.281h-0.713c-0.088,0.088-0.177,0.088-0.267,0.088c-0.089,0-0.177,0.09-0.267,0.09
		c-0.089,0-0.179,0.088-0.269,0.088c-0.089,0-0.178,0.089-0.266,0.089c-0.089,0-0.179,0.092-0.269,0.092
		c-0.088,0-0.18,0.088-0.268,0.088s-0.178,0-0.267,0.088c-0.089,0.09-0.179,0.09-0.269,0.178c-0.089,0.088-0.177,0.088-0.267,0.18
		c-0.089,0.088-0.178,0.088-0.268,0.178c0,0.089-0.09,0.089-0.179,0.179c0,0.088-0.088,0.088-0.176,0.176l-0.179,0.179
		c-0.089,0-0.089,0.09-0.18,0.178l-0.178,0.178c-0.088,0.088-0.088,0.178-0.178,0.268c-0.089,0-0.089,0.088-0.178,0.178
		c-0.091,0.089-0.091,0.179-0.18,0.267s-0.178,0.179-0.178,0.269c0,0.088-0.089,0.178-0.089,0.266s-0.089,0.178-0.089,0.266
		c0,0.09-0.089,0.178-0.089,0.268c0,0.091-0.091,0.179-0.091,0.267c0,0.091-0.089,0.181-0.089,0.269
		c-0.089,0.09-0.089,0.178-0.089,0.266c-0.09,0.18-0.09,0.268-0.09,0.354v0.889c0,0.269,0.09,0.533,0.09,0.8v0.09h-0.62h-0.082
		v-0.015H132.488L132.488,35.668z"/>
	<path fill="#231F20" stroke="#FFFFFF" stroke-width="0.5" stroke-miterlimit="10" d="M79.888,23.958
		c-0.532,0-0.888,0.354-0.799,0.887v11.713c0,0.531,0.354,0.887,0.887,0.887h2.13c0.891,1.863,2.932,3.105,5.06,3.105
		c2.13,0,4.081-1.242,5.059-3.105h14.904c0.888,1.863,2.839,3.105,5.058,3.105c2.129,0,4.082-1.242,5.061-3.105h3.46
		c0.354,0,0.621-0.266,0.797-0.531c0.179-0.354,0.091-0.709-0.088-0.977c-0.891-1.066-2.13-2.131-3.729-2.93
		c-0.709-2.395-2.927-4.08-5.5-4.08c-1.419,0-2.749,0.445-3.727,1.332c-3.105-0.445-5.854-0.533-7.275-0.533V26.62
		c0-0.178-0.088-0.442-0.266-0.621c-0.177-0.088-0.443-0.178-0.71-0.178c-5.411,0.621-8.783,2.219-10.734,3.639
		c-0.267-0.088-0.442-0.18-0.711-0.268v-4.348c0-0.531-0.354-0.887-0.886-0.887H79.888L79.888,23.958z M117.863,35.668
		c0-0.088,0-0.178,0.09-0.178v-0.267c0.179,0.176,0.439,0.267,0.621,0.442L117.863,35.668L117.863,35.668z M112.183,38.686
		c-1.771,0-3.281-1.154-3.9-2.93c0-0.088-0.09-0.178-0.09-0.354c-0.091-0.268-0.091-0.532-0.091-0.799s0-0.53,0.091-0.799
		c0,0,0.09-0.089,0.09-0.177c0.088-0.18,0.088-0.354,0.177-0.532c0.089-0.179,0.089-0.269,0.177-0.354
		c0.09-0.177,0.18-0.354,0.27-0.443c0.089-0.178,0.267-0.354,0.44-0.531c0.711-0.711,1.774-1.152,2.84-1.152
		c1.952,0,3.46,1.33,3.903,3.105v0.176c0.089,0.266,0.089,0.445,0.089,0.709c0,0.266,0,0.533-0.089,0.799
		c0,0.18-0.088,0.268-0.088,0.443C115.467,37.532,113.958,38.686,112.183,38.686L112.183,38.686z M92.754,35.668
		C92.754,35.583,92.754,35.583,92.754,35.668c0.089-0.354,0.089-0.709,0.09-0.889c0-1.24-0.444-2.306-1.064-3.279
		c-0.089-0.18-0.266-0.269-0.354-0.445l-0.443-0.441c1.688-1.066,4.351-2.309,8.342-2.84v2.928c0,0.267,0.09,0.441,0.267,0.621
		c0.178,0.178,0.354,0.266,0.621,0.266c0.089,0,3.104-0.088,6.832,0.355v0.088c-0.088,0.178-0.178,0.354-0.27,0.533
		c0,0.088-0.088,0.178-0.088,0.266s-0.09,0.179-0.09,0.355c-0.089,0.088-0.089,0.178-0.089,0.266c0,0.178-0.088,0.269-0.088,0.443
		v0.887c0,0.268,0.088,0.533,0.088,0.799v0.09H92.755L92.754,35.668L92.754,35.668z M87.076,38.686c-1.774,0-3.283-1.154-3.814-2.93
		c0-0.088-0.088-0.176-0.088-0.354c-0.091-0.266-0.091-0.532-0.091-0.799c0-2.217,1.772-3.992,3.993-3.992
		c0.8,0,1.509,0.269,2.13,0.621l0.177,0.179c0.178,0.09,0.356,0.266,0.444,0.354l0.178,0.178c0.089,0.178,0.265,0.268,0.354,0.443
		c0.091,0,0.091,0.09,0.179,0.178c0.089,0.178,0.178,0.266,0.267,0.443c0,0.09,0.088,0.09,0.088,0.178
		c0.089,0.266,0.089,0.443,0.18,0.621v0.178c0.09,0.266,0.09,0.443,0.09,0.709v0.178c0,0.267-0.09,0.443-0.09,0.621
		c-0.09,0.09-0.09,0.267-0.18,0.443C90.359,37.532,88.849,38.686,87.076,38.686L87.076,38.686z M80.687,35.668V25.644h6.211v3.281
		h-0.711c-0.088,0.088-0.176,0.088-0.266,0.088c-0.089,0-0.177,0.09-0.269,0.09c-0.09,0-0.178,0.088-0.267,0.088
		s-0.178,0.089-0.266,0.089c-0.089,0-0.181,0.092-0.27,0.092c-0.088,0-0.179,0.088-0.267,0.088s-0.178,0-0.269,0.088
		c-0.088,0.09-0.178,0.09-0.267,0.178s-0.177,0.088-0.267,0.18c-0.091,0.088-0.179,0.088-0.269,0.178
		c0,0.089-0.089,0.089-0.178,0.179c0,0.088-0.088,0.088-0.176,0.176l-0.181,0.179c-0.088,0-0.088,0.09-0.179,0.178l-0.177,0.178
		c-0.088,0.088-0.088,0.178-0.179,0.268c-0.09,0-0.09,0.088-0.178,0.178c-0.091,0.089-0.091,0.179-0.18,0.267
		c-0.088,0.088-0.177,0.179-0.177,0.269c0,0.088-0.089,0.178-0.089,0.266s-0.09,0.178-0.09,0.266c0,0.09-0.089,0.178-0.089,0.268
		c0,0.091-0.09,0.179-0.09,0.267c0,0.091-0.09,0.181-0.09,0.269c-0.088,0.09-0.088,0.178-0.088,0.266
		c-0.09,0.18-0.09,0.268-0.09,0.354v0.889c0,0.269,0.09,0.533,0.09,0.8v0.09h-0.621h-0.082v-0.015H80.687L80.687,35.668z"/>
	<g>
		<path d="M23.013,77.471v-7.1h1.445v5.893h3.594v1.207H23.013z"/>
		<path d="M35.538,77.471h-1.572l-0.625-1.627h-2.861l-0.591,1.627h-1.534l2.788-7.158h1.528L35.538,77.471z M32.877,74.639
			l-0.986-2.656l-0.967,2.656H32.877z"/>
		<path d="M36.308,77.471v-7.158h3.042c0.768,0,1.32,0.064,1.668,0.191c0.349,0.129,0.624,0.357,0.832,0.688
			c0.208,0.332,0.313,0.705,0.313,1.127c0,0.537-0.158,0.98-0.477,1.33c-0.313,0.354-0.787,0.572-1.416,0.662
			c0.313,0.186,0.57,0.383,0.774,0.604c0.203,0.219,0.479,0.604,0.822,1.162l0.874,1.395h-1.729l-1.045-1.559
			c-0.371-0.557-0.625-0.906-0.762-1.053c-0.139-0.146-0.281-0.244-0.438-0.297c-0.15-0.055-0.396-0.082-0.728-0.082h-0.29v2.988
			h-1.442V77.471z M37.755,73.34h1.069c0.69,0,1.126-0.029,1.299-0.088c0.173-0.061,0.308-0.16,0.403-0.305
			c0.099-0.145,0.146-0.32,0.146-0.537c0-0.24-0.063-0.438-0.192-0.582c-0.129-0.148-0.311-0.242-0.545-0.281
			c-0.116-0.018-0.469-0.023-1.055-0.023h-1.127L37.755,73.34L37.755,73.34z"/>
		<path d="M46.855,74.838v-1.205h3.115v2.852c-0.303,0.293-0.741,0.553-1.313,0.773c-0.575,0.223-1.157,0.334-1.746,0.334
			c-0.749,0-1.401-0.156-1.958-0.471c-0.56-0.314-0.978-0.764-1.255-1.348c-0.28-0.586-0.422-1.223-0.422-1.908
			c0-0.744,0.155-1.406,0.471-1.986c0.313-0.578,0.77-1.023,1.372-1.332c0.459-0.238,1.027-0.357,1.714-0.357
			c0.889,0,1.583,0.188,2.082,0.563c0.5,0.371,0.819,0.891,0.965,1.545l-1.438,0.271c-0.102-0.354-0.291-0.629-0.566-0.832
			c-0.279-0.205-0.626-0.309-1.043-0.309c-0.632,0-1.134,0.201-1.506,0.604c-0.373,0.398-0.563,0.994-0.563,1.781
			c0,0.85,0.188,1.486,0.566,1.912s0.872,0.637,1.481,0.637c0.306,0,0.606-0.061,0.911-0.178c0.307-0.119,0.565-0.266,0.783-0.436
			v-0.906h-1.654L46.855,74.838L46.855,74.838z"/>
		<path d="M57.76,77.471h-1.572l-0.625-1.627h-2.858l-0.593,1.627h-1.532l2.788-7.158h1.525L57.76,77.471z M55.097,74.639
			l-0.985-2.656l-0.968,2.656H55.097z"/>
		<path d="M58.52,70.313h2.645c0.596,0,1.05,0.045,1.36,0.137c0.42,0.123,0.778,0.344,1.078,0.658
			c0.301,0.314,0.527,0.703,0.687,1.16c0.154,0.457,0.231,1.021,0.231,1.689c0,0.59-0.07,1.1-0.22,1.523
			c-0.179,0.52-0.435,0.939-0.767,1.266c-0.251,0.242-0.591,0.436-1.019,0.57c-0.316,0.102-0.745,0.148-1.276,0.148h-2.723
			L58.52,70.313L58.52,70.313z M59.967,71.524v4.74h1.079c0.403,0,0.695-0.021,0.874-0.068c0.232-0.059,0.429-0.156,0.584-0.297
			c0.154-0.143,0.28-0.371,0.378-0.689c0.098-0.322,0.146-0.76,0.146-1.313c0-0.557-0.05-0.979-0.146-1.273
			c-0.096-0.293-0.234-0.527-0.41-0.693s-0.396-0.277-0.669-0.338c-0.202-0.045-0.598-0.066-1.187-0.066h-0.649V71.524z"/>
		<path d="M72.203,77.471h-1.572l-0.625-1.627h-2.861l-0.591,1.627H65.02l2.788-7.158h1.528L72.203,77.471z M69.542,74.639
			l-0.986-2.656l-0.967,2.656H69.542z"/>
	</g>
	<line fill="none" stroke="#231F20" stroke-width="2" stroke-miterlimit="10" x1="50.223" y1="53.393" x2="487.222" y2="53.393"/>
	<circle fill="#FFFFFF" stroke="#231F20" stroke-width="2" stroke-miterlimit="10" cx="46.217" cy="52.62" r="4.728"/>
	<circle fill="#FFFFFF" stroke="#231F20" stroke-width="2" stroke-miterlimit="10" cx="203.935" cy="52.62" r="4.726"/>
	<circle fill="#FFFFFF" stroke="#231F20" stroke-width="2" stroke-miterlimit="10" cx="152.136" cy="52.62" r="4.726"/>
	<circle fill="#FFFFFF" stroke="#231F20" stroke-width="2" stroke-miterlimit="10" cx="100.337" cy="52.62" r="4.726"/>
	<circle fill="#FFFFFF" stroke="#231F20" stroke-width="2" stroke-miterlimit="10" cx="359.335" cy="52.62" r="4.726"/>
	<circle fill="#FFFFFF" stroke="#231F20" stroke-width="2" stroke-miterlimit="10" cx="307.536" cy="52.62" r="4.726"/>
	<circle fill="#FFFFFF" stroke="#231F20" stroke-width="2" stroke-miterlimit="10" cx="255.736" cy="52.62" r="4.726"/>
	<g>
		<path d="M81.651,77.297v-7.158h2.162l1.3,4.883l1.283-4.883h2.168v7.158h-1.343v-5.637l-1.421,5.637h-1.392l-1.416-5.637v5.637
			H81.651z"/>
		<path d="M91.015,73.694l-1.245-0.225c0.143-0.502,0.382-0.873,0.726-1.113c0.342-0.242,0.85-0.361,1.521-0.361
			c0.612,0,1.067,0.072,1.367,0.217c0.3,0.146,0.51,0.33,0.633,0.553c0.121,0.225,0.186,0.635,0.186,1.23l-0.018,1.602
			c0,0.457,0.021,0.793,0.066,1.012c0.043,0.215,0.126,0.445,0.246,0.693h-1.357c-0.036-0.092-0.08-0.229-0.132-0.404
			c-0.021-0.08-0.039-0.137-0.049-0.16c-0.234,0.229-0.485,0.396-0.752,0.512c-0.27,0.115-0.554,0.172-0.854,0.172
			c-0.533,0-0.955-0.145-1.262-0.436c-0.309-0.289-0.462-0.656-0.462-1.1c0-0.293,0.07-0.557,0.21-0.781
			c0.14-0.23,0.336-0.406,0.588-0.527c0.253-0.123,0.616-0.23,1.092-0.32c0.645-0.119,1.086-0.232,1.333-0.336v-0.139
			c0-0.266-0.063-0.451-0.192-0.564c-0.132-0.111-0.376-0.168-0.737-0.168c-0.244,0-0.437,0.047-0.571,0.145
			C91.212,73.284,91.1,73.452,91.015,73.694z M92.851,74.807c-0.176,0.061-0.454,0.129-0.835,0.209
			c-0.381,0.082-0.63,0.162-0.747,0.24c-0.179,0.127-0.269,0.287-0.269,0.482c0,0.189,0.069,0.355,0.215,0.498
			c0.145,0.141,0.325,0.209,0.547,0.209c0.247,0,0.483-0.08,0.708-0.244c0.166-0.123,0.275-0.273,0.327-0.453
			c0.036-0.117,0.054-0.34,0.054-0.668V74.807L92.851,74.807z"/>
		<path d="M97.93,72.112v1.094h-0.938v2.09c0,0.424,0.009,0.67,0.023,0.74c0.021,0.068,0.062,0.127,0.123,0.174
			c0.063,0.045,0.144,0.066,0.231,0.066c0.127,0,0.311-0.043,0.552-0.131l0.117,1.063c-0.319,0.139-0.683,0.205-1.084,0.205
			c-0.247,0-0.473-0.041-0.669-0.125c-0.198-0.082-0.347-0.188-0.438-0.32c-0.094-0.133-0.156-0.313-0.19-0.535
			c-0.029-0.158-0.046-0.48-0.046-0.969v-2.26h-0.63v-1.096h0.63v-1.029l1.379-0.801v1.83h0.938v0.004H97.93L97.93,72.112z"/>
		<path d="M100.25,70.139v2.631c0.44-0.518,0.972-0.773,1.587-0.773c0.313,0,0.601,0.059,0.854,0.176
			c0.254,0.117,0.445,0.27,0.574,0.449c0.128,0.184,0.216,0.385,0.265,0.604c0.049,0.221,0.069,0.564,0.069,1.029v3.043h-1.372
			v-2.74c0-0.543-0.023-0.889-0.077-1.035c-0.053-0.145-0.145-0.262-0.274-0.348c-0.131-0.088-0.297-0.131-0.495-0.131
			c-0.229,0-0.432,0.057-0.61,0.166c-0.178,0.109-0.311,0.277-0.393,0.502c-0.084,0.223-0.125,0.551-0.125,0.986v2.6h-1.373v-7.158
			H100.25L100.25,70.139z"/>
		<path d="M107.994,75.647l1.365,0.229c-0.177,0.502-0.451,0.883-0.832,1.146c-0.381,0.262-0.854,0.393-1.425,0.393
			c-0.898,0-1.566-0.295-2.002-0.885c-0.342-0.471-0.513-1.066-0.513-1.787c0-0.857,0.225-1.531,0.674-2.018
			c0.449-0.488,1.021-0.73,1.704-0.73c0.771,0,1.38,0.256,1.826,0.764c0.444,0.512,0.659,1.291,0.64,2.344h-3.438
			c0.01,0.406,0.119,0.725,0.332,0.947c0.212,0.229,0.476,0.34,0.791,0.34c0.215,0,0.396-0.059,0.542-0.176
			C107.804,76.096,107.919,75.907,107.994,75.647z M108.073,74.26c-0.013-0.398-0.112-0.699-0.311-0.906
			c-0.194-0.207-0.433-0.311-0.713-0.311c-0.3,0-0.547,0.109-0.742,0.328c-0.192,0.217-0.291,0.514-0.288,0.889H108.073z"/>
		<path d="M113.966,77.297V76.52c-0.188,0.277-0.438,0.496-0.745,0.654c-0.307,0.16-0.632,0.24-0.974,0.24
			c-0.352,0-0.661-0.076-0.938-0.23c-0.274-0.15-0.477-0.367-0.601-0.645c-0.124-0.279-0.188-0.658-0.188-1.146v-3.281h1.372v2.383
			c0,0.729,0.025,1.176,0.075,1.34c0.051,0.166,0.144,0.295,0.276,0.391c0.134,0.1,0.303,0.146,0.508,0.146
			c0.232,0,0.442-0.064,0.63-0.193c0.187-0.129,0.313-0.287,0.381-0.479c0.068-0.188,0.104-0.654,0.104-1.396v-2.189h1.37v5.188
			h-1.271L113.966,77.297L113.966,77.297z"/>
		<path d="M116.177,75.817l1.377-0.209c0.062,0.268,0.178,0.469,0.356,0.605c0.178,0.139,0.43,0.207,0.752,0.207
			c0.354,0,0.622-0.063,0.801-0.193c0.12-0.09,0.181-0.213,0.181-0.365c0-0.104-0.031-0.189-0.098-0.26
			c-0.068-0.064-0.222-0.125-0.459-0.182c-1.106-0.242-1.811-0.469-2.104-0.67c-0.408-0.277-0.613-0.668-0.613-1.166
			c0-0.447,0.178-0.828,0.53-1.135c0.354-0.305,0.904-0.459,1.649-0.459c0.71,0,1.237,0.115,1.582,0.348
			c0.345,0.234,0.583,0.572,0.713,1.025l-1.294,0.236c-0.056-0.199-0.16-0.354-0.314-0.463c-0.152-0.105-0.375-0.162-0.659-0.162
			c-0.361,0-0.62,0.053-0.776,0.152c-0.104,0.07-0.156,0.164-0.156,0.277c0,0.098,0.046,0.182,0.14,0.248
			c0.123,0.092,0.551,0.221,1.278,0.387c0.731,0.166,1.241,0.369,1.531,0.609c0.286,0.244,0.43,0.584,0.43,1.021
			c0,0.479-0.195,0.885-0.596,1.229c-0.396,0.342-0.983,0.514-1.763,0.514c-0.706,0-1.269-0.146-1.679-0.432
			C116.574,76.698,116.304,76.309,116.177,75.817z"/>
	</g>
	<g>
		<path d="M139.54,77.297v-7.102h1.443v5.895h3.596v1.207H139.54z"/>
		<path d="M149.012,77.297V76.52c-0.188,0.277-0.437,0.496-0.745,0.654c-0.307,0.16-0.632,0.24-0.974,0.24
			c-0.351,0-0.661-0.076-0.938-0.23c-0.274-0.15-0.477-0.367-0.601-0.645c-0.124-0.279-0.188-0.658-0.188-1.146v-3.281h1.371v2.383
			c0,0.729,0.025,1.176,0.075,1.34c0.051,0.166,0.146,0.295,0.276,0.391c0.134,0.1,0.303,0.146,0.508,0.146
			c0.234,0,0.444-0.064,0.63-0.193c0.188-0.129,0.313-0.287,0.381-0.479c0.068-0.188,0.104-0.654,0.104-1.396v-2.189h1.372v5.188
			h-1.273L149.012,77.297L149.012,77.297z"/>
		<path d="M156.228,73.645l-1.353,0.244c-0.046-0.271-0.148-0.477-0.313-0.611c-0.159-0.137-0.369-0.205-0.627-0.205
			c-0.342,0-0.611,0.119-0.815,0.355c-0.203,0.232-0.308,0.629-0.308,1.184c0,0.615,0.104,1.049,0.313,1.305
			c0.206,0.254,0.481,0.381,0.832,0.381c0.261,0,0.474-0.074,0.64-0.223s0.283-0.402,0.354-0.766l1.348,0.229
			c-0.14,0.617-0.408,1.086-0.806,1.4c-0.398,0.313-0.933,0.475-1.6,0.475c-0.759,0-1.36-0.24-1.813-0.719
			c-0.451-0.48-0.679-1.143-0.679-1.986c0-0.855,0.229-1.521,0.681-2s1.063-0.717,1.836-0.717c0.632,0,1.134,0.137,1.506,0.408
			C155.799,72.674,156.065,73.088,156.228,73.645z"/>
		<path d="M158.295,73.694l-1.245-0.225c0.14-0.502,0.381-0.873,0.723-1.113c0.345-0.242,0.853-0.361,1.523-0.361
			c0.612,0,1.065,0.072,1.367,0.217c0.3,0.146,0.511,0.33,0.632,0.553c0.123,0.225,0.184,0.635,0.184,1.23l-0.015,1.602
			c0,0.457,0.021,0.793,0.063,1.012c0.047,0.215,0.129,0.445,0.247,0.693h-1.355c-0.036-0.092-0.08-0.229-0.132-0.404
			c-0.022-0.08-0.039-0.137-0.051-0.16c-0.232,0.229-0.483,0.396-0.752,0.512c-0.268,0.115-0.553,0.172-0.854,0.172
			c-0.534,0-0.954-0.145-1.263-0.436c-0.31-0.289-0.461-0.656-0.461-1.1c0-0.293,0.067-0.557,0.21-0.781
			c0.14-0.23,0.336-0.406,0.589-0.527c0.252-0.123,0.614-0.23,1.091-0.32c0.642-0.119,1.086-0.232,1.333-0.336v-0.139
			c0-0.266-0.064-0.451-0.195-0.564c-0.13-0.111-0.376-0.168-0.734-0.168c-0.244,0-0.438,0.047-0.571,0.145
			C158.49,73.284,158.38,73.452,158.295,73.694z M160.131,74.807c-0.176,0.061-0.454,0.129-0.835,0.209
			c-0.381,0.082-0.63,0.162-0.747,0.24c-0.179,0.127-0.271,0.287-0.271,0.482c0,0.189,0.07,0.355,0.217,0.498
			c0.144,0.141,0.323,0.209,0.547,0.209c0.247,0,0.48-0.08,0.708-0.244c0.166-0.123,0.272-0.273,0.327-0.453
			c0.034-0.117,0.054-0.34,0.054-0.668V74.807L160.131,74.807z"/>
		<path d="M162.347,75.817l1.377-0.209c0.062,0.268,0.179,0.469,0.356,0.605c0.179,0.141,0.43,0.207,0.752,0.207
			c0.354,0,0.622-0.063,0.801-0.193c0.12-0.09,0.181-0.213,0.181-0.365c0-0.104-0.029-0.189-0.098-0.26
			c-0.068-0.064-0.222-0.125-0.459-0.182c-1.105-0.242-1.809-0.469-2.104-0.67c-0.408-0.277-0.613-0.668-0.613-1.166
			c0-0.447,0.178-0.828,0.53-1.135c0.354-0.305,0.904-0.459,1.649-0.459c0.71,0,1.237,0.115,1.582,0.348
			c0.345,0.234,0.583,0.572,0.713,1.025L165.72,73.6c-0.056-0.199-0.16-0.354-0.313-0.463c-0.154-0.105-0.375-0.162-0.661-0.162
			c-0.361,0-0.62,0.053-0.776,0.152c-0.104,0.07-0.156,0.164-0.156,0.277c0,0.098,0.047,0.182,0.14,0.248
			c0.124,0.092,0.551,0.221,1.278,0.387c0.731,0.166,1.241,0.369,1.531,0.609c0.286,0.244,0.43,0.584,0.43,1.021
			c0,0.479-0.195,0.885-0.596,1.229c-0.396,0.342-0.982,0.514-1.763,0.514c-0.706,0-1.269-0.146-1.677-0.432
			C162.744,76.698,162.473,76.309,162.347,75.817z"/>
	</g>
	<g>
		<path d="M186.052,77.297v-7.158h1.445v2.816h2.832v-2.816h1.443v7.158h-1.443v-3.131h-2.832v3.131H186.052z"/>
		<path d="M196.263,75.647l1.367,0.229c-0.176,0.502-0.453,0.883-0.832,1.146c-0.381,0.262-0.854,0.393-1.424,0.393
			c-0.902,0-1.57-0.295-2.002-0.885c-0.342-0.471-0.516-1.066-0.516-1.787c0-0.857,0.227-1.531,0.676-2.018
			c0.446-0.488,1.018-0.73,1.703-0.73c0.771,0,1.381,0.256,1.825,0.764c0.445,0.512,0.658,1.291,0.642,2.344h-3.438
			c0.011,0.406,0.121,0.725,0.332,0.947c0.213,0.229,0.479,0.34,0.791,0.34c0.215,0,0.396-0.059,0.543-0.176
			C196.078,76.096,196.186,75.907,196.263,75.647z M196.342,74.26c-0.01-0.398-0.113-0.699-0.309-0.906
			c-0.196-0.207-0.435-0.311-0.715-0.311c-0.3,0-0.548,0.109-0.74,0.328c-0.195,0.217-0.291,0.514-0.287,0.889H196.342z"/>
		<path d="M198.823,71.409v-1.27h1.369v1.27H198.823z M198.823,77.297V72.11h1.369v5.188H198.823z"/>
		<path d="M203.977,72.112v1.094h-0.938v2.09c0,0.424,0.008,0.67,0.024,0.74c0.021,0.068,0.062,0.127,0.121,0.174
			c0.064,0.045,0.144,0.066,0.232,0.066c0.127,0,0.311-0.043,0.551-0.131l0.117,1.063c-0.318,0.139-0.681,0.205-1.084,0.205
			c-0.246,0-0.472-0.041-0.668-0.125c-0.199-0.082-0.344-0.188-0.438-0.32c-0.092-0.133-0.153-0.313-0.19-0.535
			c-0.029-0.158-0.043-0.48-0.043-0.969v-2.26h-0.633v-1.096h0.633v-1.029l1.377-0.801v1.83h0.938L203.977,72.112L203.977,72.112z"
			/>
		<path d="M204.613,74.631c0-0.457,0.11-0.896,0.338-1.324c0.225-0.426,0.543-0.752,0.953-0.977
			c0.411-0.225,0.871-0.338,1.381-0.338c0.783,0,1.428,0.256,1.93,0.766c0.5,0.51,0.752,1.152,0.752,1.932
			c0,0.783-0.254,1.438-0.76,1.951c-0.506,0.516-1.146,0.773-1.912,0.773c-0.477,0-0.928-0.107-1.359-0.322
			c-0.431-0.215-0.76-0.529-0.981-0.945C204.723,75.733,204.613,75.227,204.613,74.631z M206.018,74.704
			c0,0.516,0.121,0.908,0.365,1.184c0.244,0.273,0.545,0.41,0.904,0.41c0.354,0,0.656-0.139,0.897-0.41
			c0.242-0.271,0.363-0.672,0.363-1.189c0-0.508-0.121-0.898-0.363-1.172c-0.241-0.273-0.543-0.41-0.897-0.41
			c-0.359,0-0.66,0.137-0.904,0.41C206.139,73.797,206.018,74.19,206.018,74.704z"/>
		<path d="M212.35,77.297h-1.371V72.11h1.273v0.736c0.219-0.35,0.414-0.576,0.59-0.688c0.174-0.109,0.371-0.166,0.592-0.166
			c0.313,0,0.613,0.088,0.904,0.26l-0.426,1.195c-0.23-0.148-0.445-0.227-0.646-0.227c-0.188,0-0.354,0.055-0.487,0.158
			c-0.133,0.104-0.236,0.299-0.313,0.574c-0.076,0.273-0.115,0.854-0.115,1.736L212.35,77.297L212.35,77.297z"/>
		<path d="M220.711,75.647l1.367,0.229c-0.178,0.502-0.453,0.883-0.832,1.146c-0.379,0.262-0.854,0.393-1.426,0.393
			c-0.898,0-1.566-0.295-2.002-0.885c-0.343-0.471-0.513-1.066-0.513-1.787c0-0.857,0.228-1.531,0.674-2.018
			c0.449-0.488,1.021-0.73,1.703-0.73c0.771,0,1.381,0.256,1.826,0.764c0.447,0.512,0.66,1.291,0.642,2.344h-3.438
			c0.01,0.406,0.119,0.725,0.332,0.947c0.211,0.229,0.475,0.34,0.791,0.34c0.215,0,0.395-0.059,0.541-0.176
			S220.636,75.907,220.711,75.647z M220.789,74.26c-0.012-0.398-0.111-0.699-0.31-0.906c-0.192-0.207-0.434-0.311-0.713-0.311
			c-0.301,0-0.547,0.109-0.741,0.328c-0.193,0.217-0.291,0.514-0.289,0.889H220.789z"/>
		<path d="M185.26,89.297v-7.102h1.445v5.895h3.594v1.207H185.26z"/>
		<path d="M191.002,86.631c0-0.457,0.109-0.896,0.336-1.324c0.225-0.426,0.543-0.752,0.955-0.977s0.871-0.338,1.379-0.338
			c0.785,0,1.428,0.256,1.93,0.766c0.5,0.51,0.752,1.152,0.752,1.932c0,0.783-0.254,1.438-0.76,1.951
			c-0.506,0.516-1.143,0.773-1.912,0.773c-0.475,0-0.928-0.107-1.356-0.322c-0.434-0.215-0.763-0.529-0.984-0.945
			C191.113,87.733,191.002,87.227,191.002,86.631z M192.408,86.704c0,0.516,0.119,0.908,0.362,1.184
			c0.244,0.273,0.546,0.41,0.904,0.41c0.357,0,0.658-0.139,0.9-0.41c0.24-0.271,0.36-0.672,0.36-1.189
			c0-0.508-0.12-0.898-0.36-1.172c-0.242-0.273-0.543-0.41-0.9-0.41c-0.358,0-0.66,0.137-0.904,0.41
			C192.529,85.797,192.408,86.19,192.408,86.704z"/>
		<path d="M198.74,89.297h-1.371V84.11h1.271v0.736c0.22-0.35,0.414-0.576,0.59-0.688c0.176-0.109,0.371-0.166,0.595-0.166
			c0.313,0,0.61,0.088,0.901,0.26l-0.426,1.195c-0.229-0.148-0.445-0.227-0.646-0.227c-0.19,0-0.354,0.055-0.487,0.158
			c-0.133,0.104-0.238,0.299-0.314,0.574c-0.075,0.273-0.113,0.854-0.113,1.736L198.74,89.297L198.74,89.297z"/>
		<path d="M204.323,87.647l1.364,0.229c-0.176,0.502-0.452,0.883-0.832,1.146c-0.381,0.262-0.854,0.393-1.424,0.393
			c-0.899,0-1.569-0.295-2.002-0.885c-0.342-0.471-0.514-1.066-0.514-1.787c0-0.857,0.225-1.531,0.674-2.018
			c0.449-0.488,1.019-0.73,1.705-0.73c0.771,0,1.379,0.256,1.826,0.764c0.443,0.512,0.656,1.291,0.639,2.344h-3.438
			c0.011,0.406,0.12,0.725,0.331,0.947c0.215,0.229,0.479,0.34,0.791,0.34c0.217,0,0.396-0.059,0.543-0.176
			C204.135,88.096,204.246,87.907,204.323,87.647z M204.4,86.26c-0.011-0.398-0.111-0.699-0.31-0.906
			c-0.195-0.207-0.432-0.311-0.713-0.311c-0.299,0-0.547,0.109-0.742,0.328c-0.195,0.217-0.291,0.514-0.287,0.889H204.4z"/>
		<path d="M211.597,89.297h-1.373v-2.646c0-0.561-0.028-0.922-0.088-1.086c-0.059-0.166-0.151-0.293-0.285-0.385
			c-0.131-0.09-0.291-0.137-0.477-0.137c-0.236,0-0.451,0.064-0.641,0.195c-0.188,0.129-0.316,0.303-0.39,0.518
			s-0.104,0.611-0.104,1.191v2.35h-1.371V84.11h1.271v0.764c0.453-0.586,1.023-0.881,1.709-0.881c0.304,0,0.58,0.057,0.83,0.164
			c0.252,0.107,0.441,0.248,0.57,0.418c0.127,0.168,0.217,0.361,0.268,0.576c0.052,0.215,0.076,0.52,0.076,0.922L211.597,89.297
			L211.597,89.297z"/>
		<path d="M212.436,89.297v-1.07l1.943-2.229c0.318-0.363,0.555-0.623,0.707-0.775c-0.158,0.012-0.369,0.018-0.629,0.021
			l-1.832,0.01v-1.141h4.287v0.973l-1.982,2.285l-0.696,0.758c0.383-0.023,0.616-0.035,0.706-0.035h2.125v1.207h-4.629V89.297
			L212.436,89.297z"/>
		<path d="M217.672,86.631c0-0.457,0.111-0.896,0.336-1.324c0.225-0.426,0.543-0.752,0.955-0.977s0.871-0.338,1.379-0.338
			c0.785,0,1.428,0.256,1.93,0.766c0.5,0.51,0.752,1.152,0.752,1.932c0,0.783-0.254,1.438-0.76,1.951
			c-0.506,0.516-1.143,0.773-1.912,0.773c-0.475,0-0.928-0.107-1.356-0.322c-0.434-0.215-0.763-0.529-0.984-0.945
			C217.783,87.733,217.672,87.227,217.672,86.631z M219.078,86.704c0,0.516,0.121,0.908,0.363,1.184
			c0.243,0.273,0.545,0.41,0.903,0.41c0.357,0,0.658-0.139,0.9-0.41c0.24-0.271,0.361-0.672,0.361-1.189
			c0-0.508-0.121-0.898-0.361-1.172c-0.242-0.273-0.543-0.41-0.9-0.41c-0.358,0-0.66,0.137-0.903,0.41
			C219.199,85.797,219.078,86.19,219.078,86.704z"/>
	</g>
	<g>
		<path d="M236.778,77.297v-7.158h3.042c0.767,0,1.319,0.063,1.668,0.193c0.348,0.127,0.624,0.355,0.832,0.686
			c0.208,0.332,0.313,0.705,0.313,1.127c0,0.537-0.158,0.98-0.474,1.332s-0.788,0.57-1.416,0.66
			c0.313,0.184,0.567,0.383,0.771,0.602c0.203,0.221,0.479,0.605,0.822,1.162l0.874,1.396h-1.729l-1.046-1.559
			c-0.37-0.559-0.625-0.906-0.762-1.053s-0.281-0.244-0.435-0.301c-0.153-0.053-0.396-0.08-0.729-0.08h-0.293v2.988h-1.439V77.297z
			 M238.222,73.167h1.069c0.691,0,1.126-0.029,1.299-0.09c0.173-0.059,0.308-0.158,0.405-0.303c0.097-0.145,0.146-0.322,0.146-0.537
			c0-0.24-0.063-0.438-0.189-0.584c-0.131-0.146-0.313-0.24-0.546-0.279c-0.116-0.018-0.471-0.023-1.057-0.023h-1.128
			L238.222,73.167L238.222,73.167z"/>
		<path d="M245.01,73.694l-1.245-0.225c0.143-0.502,0.381-0.873,0.726-1.113c0.342-0.242,0.85-0.361,1.521-0.361
			c0.612,0,1.067,0.072,1.368,0.217c0.299,0.146,0.51,0.33,0.633,0.553c0.121,0.225,0.186,0.635,0.186,1.23l-0.018,1.602
			c0,0.457,0.021,0.793,0.066,1.012c0.043,0.215,0.125,0.445,0.246,0.693h-1.357c-0.037-0.092-0.08-0.229-0.133-0.404
			c-0.021-0.08-0.039-0.137-0.049-0.16c-0.234,0.229-0.485,0.396-0.751,0.512c-0.27,0.115-0.554,0.172-0.854,0.172
			c-0.534,0-0.955-0.145-1.262-0.436c-0.311-0.289-0.462-0.656-0.462-1.1c0-0.293,0.068-0.557,0.21-0.781
			c0.14-0.23,0.336-0.406,0.588-0.527c0.253-0.123,0.616-0.23,1.092-0.32c0.645-0.119,1.086-0.232,1.333-0.336v-0.139
			c0-0.266-0.063-0.451-0.192-0.564c-0.133-0.111-0.378-0.168-0.737-0.168c-0.244,0-0.438,0.047-0.571,0.145
			C245.206,73.284,245.095,73.452,245.01,73.694z M246.845,74.807c-0.175,0.061-0.454,0.129-0.834,0.209
			c-0.381,0.082-0.63,0.162-0.747,0.24c-0.179,0.127-0.269,0.287-0.269,0.482c0,0.189,0.069,0.355,0.215,0.498
			c0.144,0.141,0.325,0.209,0.547,0.209c0.247,0,0.483-0.08,0.708-0.244c0.166-0.123,0.275-0.273,0.327-0.453
			c0.036-0.117,0.053-0.34,0.053-0.668V74.807L246.845,74.807z"/>
		<path d="M248.945,72.112h0.764v-0.391c0-0.438,0.047-0.762,0.141-0.979c0.092-0.215,0.265-0.389,0.512-0.523
			c0.25-0.135,0.564-0.203,0.945-0.203c0.392,0,0.773,0.061,1.146,0.176l-0.188,0.957c-0.219-0.051-0.428-0.078-0.631-0.078
			c-0.197,0-0.34,0.049-0.428,0.143c-0.086,0.092-0.129,0.271-0.129,0.533v0.365h1.023v1.078h-1.022v4.105h-1.371V73.19h-0.764
			L248.945,72.112L248.945,72.112z"/>
		<path d="M253.9,73.694l-1.242-0.225c0.141-0.502,0.381-0.873,0.723-1.113c0.342-0.242,0.85-0.361,1.521-0.361
			c0.611,0,1.066,0.072,1.368,0.217c0.3,0.146,0.511,0.33,0.632,0.553c0.123,0.225,0.186,0.635,0.186,1.23l-0.016,1.602
			c0,0.457,0.021,0.793,0.063,1.012c0.045,0.215,0.127,0.445,0.248,0.693h-1.355c-0.037-0.092-0.08-0.229-0.135-0.404
			c-0.021-0.08-0.037-0.137-0.049-0.16c-0.232,0.229-0.484,0.396-0.752,0.512s-0.551,0.172-0.854,0.172
			c-0.531,0-0.953-0.145-1.264-0.436c-0.307-0.289-0.461-0.656-0.461-1.1c0-0.293,0.07-0.557,0.211-0.781
			c0.139-0.23,0.336-0.406,0.588-0.527c0.252-0.123,0.615-0.23,1.092-0.32c0.645-0.119,1.088-0.232,1.334-0.336v-0.139
			c0-0.266-0.064-0.451-0.193-0.564c-0.131-0.111-0.377-0.168-0.738-0.168c-0.244,0-0.434,0.047-0.57,0.145
			C254.097,73.284,253.986,73.452,253.9,73.694z M255.738,74.807c-0.178,0.061-0.453,0.129-0.836,0.209
			c-0.381,0.082-0.631,0.162-0.747,0.24c-0.179,0.127-0.269,0.287-0.269,0.482c0,0.189,0.07,0.355,0.215,0.498
			c0.146,0.141,0.324,0.209,0.547,0.209c0.246,0,0.482-0.08,0.707-0.244c0.168-0.123,0.275-0.273,0.328-0.453
			c0.035-0.117,0.055-0.34,0.055-0.668V74.807L255.738,74.807z"/>
		<path d="M261.441,75.647l1.365,0.229c-0.176,0.502-0.451,0.883-0.832,1.146c-0.379,0.262-0.854,0.393-1.424,0.393
			c-0.898,0-1.566-0.295-2.002-0.885c-0.342-0.471-0.512-1.066-0.512-1.787c0-0.857,0.225-1.531,0.674-2.018
			c0.449-0.488,1.02-0.73,1.703-0.73c0.771,0,1.381,0.256,1.826,0.764c0.443,0.512,0.658,1.291,0.641,2.344h-3.438
			c0.012,0.406,0.121,0.725,0.332,0.947c0.213,0.229,0.477,0.34,0.791,0.34c0.215,0,0.396-0.059,0.543-0.176
			C261.255,76.096,261.366,75.907,261.441,75.647z M261.517,74.26c-0.01-0.398-0.109-0.699-0.307-0.906s-0.434-0.311-0.713-0.311
			c-0.301,0-0.549,0.109-0.742,0.328c-0.195,0.217-0.291,0.514-0.289,0.889H261.517z"/>
		<path d="M264.001,77.297v-7.158h1.371v7.158H264.001z"/>
		<path d="M272.558,75.647l1.367,0.229c-0.176,0.502-0.453,0.883-0.834,1.146c-0.379,0.262-0.854,0.393-1.422,0.393
			c-0.902,0-1.57-0.295-2.002-0.885c-0.344-0.471-0.514-1.066-0.514-1.787c0-0.857,0.225-1.531,0.674-2.018
			c0.449-0.488,1.018-0.73,1.703-0.73c0.771,0,1.381,0.256,1.826,0.764c0.445,0.512,0.658,1.291,0.641,2.344h-3.438
			c0.012,0.406,0.119,0.725,0.332,0.947c0.211,0.229,0.479,0.34,0.791,0.34c0.215,0,0.396-0.059,0.541-0.176
			C272.372,76.096,272.484,75.907,272.558,75.647z M272.636,74.26c-0.01-0.398-0.109-0.699-0.307-0.906s-0.436-0.311-0.715-0.311
			c-0.299,0-0.547,0.109-0.74,0.328c-0.195,0.217-0.291,0.514-0.289,0.889H272.636z"/>
		<path d="M237.8,86.967l1.406-0.137c0.085,0.473,0.257,0.818,0.515,1.039c0.26,0.223,0.608,0.332,1.048,0.332
			c0.467,0,0.816-0.098,1.055-0.295c0.233-0.195,0.354-0.428,0.354-0.689c0-0.17-0.05-0.314-0.148-0.434
			c-0.1-0.119-0.271-0.223-0.521-0.313c-0.169-0.059-0.555-0.16-1.157-0.313c-0.771-0.189-1.315-0.428-1.631-0.709
			c-0.438-0.395-0.659-0.873-0.659-1.438c0-0.363,0.104-0.705,0.313-1.023c0.206-0.314,0.504-0.559,0.893-0.725
			c0.393-0.166,0.859-0.248,1.409-0.248c0.898,0,1.575,0.195,2.028,0.59c0.455,0.395,0.69,0.92,0.716,1.578l-1.445,0.063
			c-0.062-0.367-0.191-0.633-0.396-0.793c-0.204-0.162-0.511-0.242-0.916-0.242c-0.42,0-0.749,0.086-0.986,0.26
			c-0.153,0.109-0.229,0.26-0.229,0.443c0,0.168,0.068,0.314,0.215,0.438c0.183,0.15,0.625,0.313,1.328,0.479
			c0.701,0.166,1.224,0.338,1.56,0.516c0.338,0.18,0.603,0.422,0.791,0.73c0.191,0.307,0.286,0.688,0.286,1.141
			c0,0.408-0.114,0.793-0.342,1.15c-0.229,0.359-0.552,0.625-0.97,0.799c-0.417,0.176-0.936,0.262-1.558,0.262
			c-0.905,0-1.6-0.209-2.085-0.627C238.182,88.377,237.893,87.768,237.8,86.967z"/>
		<path d="M245.85,85.694l-1.245-0.225c0.143-0.502,0.382-0.873,0.726-1.113c0.342-0.242,0.85-0.361,1.521-0.361
			c0.611,0,1.066,0.072,1.367,0.217c0.299,0.146,0.51,0.33,0.631,0.553c0.123,0.225,0.188,0.635,0.188,1.23l-0.018,1.602
			c0,0.457,0.021,0.793,0.064,1.012c0.045,0.215,0.127,0.445,0.248,0.693h-1.357c-0.037-0.092-0.08-0.229-0.133-0.404
			c-0.021-0.08-0.039-0.137-0.049-0.16c-0.234,0.229-0.484,0.396-0.752,0.512c-0.269,0.115-0.551,0.172-0.854,0.172
			c-0.531,0-0.954-0.145-1.263-0.436c-0.307-0.289-0.461-0.656-0.461-1.1c0-0.293,0.07-0.557,0.21-0.781
			c0.14-0.23,0.336-0.406,0.589-0.527c0.252-0.123,0.615-0.23,1.091-0.32c0.645-0.119,1.086-0.232,1.333-0.336v-0.139
			c0-0.266-0.063-0.451-0.191-0.564c-0.132-0.111-0.377-0.168-0.738-0.168c-0.244,0-0.437,0.047-0.571,0.145
			C246.047,85.284,245.935,85.452,245.85,85.694z M247.685,86.807c-0.176,0.061-0.453,0.129-0.834,0.209
			c-0.381,0.082-0.63,0.162-0.748,0.24c-0.179,0.127-0.269,0.287-0.269,0.482c0,0.189,0.071,0.355,0.215,0.498
			c0.145,0.141,0.325,0.209,0.547,0.209c0.247,0,0.483-0.08,0.708-0.244c0.166-0.123,0.275-0.273,0.328-0.453
			c0.035-0.117,0.053-0.34,0.053-0.668V86.807L247.685,86.807z"/>
		<path d="M250.286,84.112h1.264v0.707c0.453-0.549,0.992-0.824,1.617-0.824c0.332,0,0.619,0.068,0.863,0.205
			c0.242,0.137,0.441,0.344,0.602,0.619c0.227-0.275,0.473-0.482,0.736-0.619c0.263-0.137,0.545-0.205,0.846-0.205
			c0.381,0,0.703,0.076,0.967,0.232c0.266,0.152,0.461,0.381,0.592,0.68c0.096,0.223,0.143,0.58,0.143,1.074v3.314h-1.371v-2.965
			c0-0.516-0.047-0.848-0.143-0.996c-0.127-0.193-0.322-0.293-0.586-0.293c-0.191,0-0.375,0.061-0.545,0.178
			c-0.168,0.115-0.291,0.289-0.363,0.516c-0.074,0.227-0.111,0.584-0.111,1.072v2.488h-1.373v-2.842c0-0.506-0.023-0.83-0.072-0.979
			c-0.049-0.146-0.125-0.256-0.229-0.326c-0.104-0.068-0.24-0.105-0.416-0.105c-0.213,0-0.402,0.059-0.572,0.172
			c-0.168,0.113-0.291,0.277-0.363,0.492s-0.107,0.568-0.107,1.066v2.521h-1.373v-5.184H250.286L250.286,84.112z"/>
		<path d="M262.693,89.297V88.52c-0.188,0.277-0.438,0.496-0.746,0.654c-0.309,0.16-0.631,0.24-0.975,0.24
			c-0.35,0-0.661-0.076-0.938-0.23c-0.277-0.15-0.479-0.367-0.604-0.645c-0.125-0.277-0.186-0.658-0.186-1.146v-3.281h1.371v2.383
			c0,0.729,0.023,1.176,0.074,1.34c0.053,0.166,0.145,0.295,0.275,0.391c0.134,0.1,0.304,0.146,0.509,0.146
			c0.233,0,0.442-0.064,0.63-0.193s0.313-0.287,0.381-0.479c0.066-0.188,0.104-0.654,0.104-1.396v-2.189h1.373v5.188h-1.271
			L262.693,89.297L262.693,89.297z"/>
		<path d="M268.388,87.647l1.367,0.229c-0.176,0.502-0.453,0.883-0.832,1.146c-0.379,0.262-0.854,0.393-1.424,0.393
			c-0.9,0-1.568-0.295-2.002-0.885c-0.342-0.471-0.514-1.066-0.514-1.787c0-0.857,0.227-1.531,0.676-2.018
			c0.447-0.488,1.018-0.73,1.703-0.73c0.771,0,1.381,0.256,1.825,0.764c0.444,0.512,0.657,1.291,0.642,2.344h-3.439
			c0.012,0.406,0.121,0.725,0.332,0.947c0.213,0.229,0.479,0.34,0.791,0.34c0.215,0,0.396-0.059,0.543-0.176
			C268.204,88.096,268.316,87.907,268.388,87.647z M268.469,86.26c-0.01-0.398-0.111-0.699-0.309-0.906s-0.436-0.311-0.713-0.311
			c-0.303,0-0.547,0.109-0.742,0.328c-0.195,0.217-0.291,0.514-0.287,0.889H268.469z"/>
		<path d="M270.948,89.297v-7.158h1.373v7.158H270.948z"/>
	</g>
	<g>
		<path d="M297.009,77.297v-7.158h5.309v1.211h-3.861v1.586h3.594v1.207h-3.594v1.947h4v1.207H297.009L297.009,77.297z"/>
		<path d="M308.385,77.297h-1.373v-2.646c0-0.561-0.027-0.922-0.088-1.086c-0.059-0.166-0.15-0.293-0.285-0.385
			c-0.131-0.09-0.291-0.137-0.477-0.137c-0.236,0-0.451,0.064-0.641,0.195c-0.188,0.129-0.316,0.303-0.391,0.518
			c-0.066,0.215-0.104,0.611-0.104,1.191v2.35h-1.373V72.11h1.273v0.764c0.451-0.586,1.021-0.881,1.709-0.881
			c0.305,0,0.578,0.057,0.83,0.164c0.25,0.107,0.439,0.248,0.568,0.418c0.129,0.168,0.219,0.361,0.268,0.576
			c0.053,0.215,0.076,0.52,0.076,0.922v3.225H308.385L308.385,77.297z"/>
		<path d="M309.222,77.297v-1.07l1.943-2.229c0.318-0.363,0.555-0.623,0.709-0.775c-0.16,0.012-0.369,0.018-0.631,0.021l-1.83,0.01
			v-1.141h4.285v0.973l-1.98,2.285l-0.699,0.758c0.383-0.023,0.617-0.035,0.71-0.035h2.122v1.207h-4.629V77.297z"/>
		<path d="M314.46,74.631c0-0.457,0.111-0.896,0.336-1.324c0.225-0.426,0.543-0.752,0.955-0.977s0.871-0.338,1.379-0.338
			c0.785,0,1.428,0.256,1.93,0.766c0.5,0.51,0.752,1.152,0.752,1.932c0,0.783-0.254,1.438-0.76,1.951
			c-0.506,0.516-1.145,0.773-1.912,0.773c-0.475,0-0.928-0.107-1.357-0.322c-0.433-0.215-0.762-0.529-0.982-0.945
			C314.572,75.733,314.46,75.227,314.46,74.631z M315.864,74.704c0,0.516,0.123,0.908,0.367,1.184c0.242,0.273,0.545,0.41,0.9,0.41
			c0.357,0,0.658-0.139,0.9-0.41s0.363-0.672,0.363-1.189c0-0.508-0.121-0.898-0.363-1.172s-0.543-0.41-0.9-0.41
			c-0.355,0-0.658,0.137-0.9,0.41C315.988,73.797,315.864,74.19,315.864,74.704z"/>
	</g>
	<g>
		<path d="M343.179,77.297v-7.158h1.406l2.93,4.779v-4.779h1.346v7.158h-1.451l-2.885-4.668v4.668H343.179z"/>
		<path d="M350.378,71.409v-1.27h1.373v1.27H350.378z M350.378,77.297V72.11h1.373v5.188H350.378z"/>
		<path d="M357.677,73.645l-1.354,0.244c-0.047-0.271-0.148-0.477-0.313-0.611c-0.163-0.137-0.371-0.205-0.627-0.205
			c-0.342,0-0.615,0.119-0.816,0.355c-0.203,0.232-0.307,0.629-0.307,1.184c0,0.615,0.104,1.049,0.311,1.305
			c0.207,0.254,0.482,0.381,0.834,0.381c0.262,0,0.475-0.074,0.641-0.223s0.283-0.402,0.354-0.766l1.348,0.229
			c-0.141,0.617-0.408,1.086-0.807,1.4c-0.396,0.313-0.932,0.475-1.598,0.475c-0.76,0-1.361-0.24-1.813-0.719
			c-0.449-0.48-0.677-1.143-0.677-1.986c0-0.855,0.228-1.521,0.681-2c0.451-0.479,1.063-0.717,1.836-0.717
			c0.631,0,1.133,0.137,1.506,0.408C357.247,72.674,357.513,73.088,357.677,73.645z"/>
		<path d="M358.4,74.631c0-0.457,0.111-0.896,0.338-1.324c0.225-0.426,0.543-0.752,0.953-0.977s0.873-0.338,1.381-0.338
			c0.783,0,1.428,0.256,1.93,0.766c0.5,0.51,0.752,1.152,0.752,1.932c0,0.783-0.254,1.438-0.762,1.951
			c-0.506,0.518-1.145,0.773-1.91,0.773c-0.477,0-0.93-0.107-1.359-0.322c-0.432-0.215-0.76-0.529-0.982-0.945
			C358.511,75.733,358.4,75.227,358.4,74.631z M359.804,74.704c0,0.516,0.123,0.908,0.367,1.184c0.244,0.273,0.545,0.41,0.902,0.41
			c0.355,0,0.658-0.139,0.898-0.41c0.242-0.271,0.363-0.672,0.363-1.189c0-0.508-0.121-0.898-0.363-1.172
			c-0.24-0.273-0.543-0.41-0.898-0.41c-0.357,0-0.658,0.137-0.902,0.41C359.927,73.797,359.804,74.19,359.804,74.704z"/>
		<path d="M364.825,77.297v-7.158h1.373v7.158H364.825z"/>
		<path d="M368.63,73.694l-1.244-0.225c0.141-0.502,0.381-0.873,0.725-1.113c0.342-0.242,0.85-0.361,1.521-0.361
			c0.611,0,1.066,0.072,1.367,0.217c0.299,0.146,0.51,0.33,0.633,0.553c0.121,0.225,0.184,0.635,0.184,1.23l-0.016,1.602
			c0,0.457,0.021,0.793,0.064,1.012c0.043,0.215,0.127,0.445,0.246,0.693h-1.355c-0.037-0.092-0.08-0.229-0.133-0.404
			c-0.021-0.08-0.039-0.137-0.049-0.16c-0.234,0.229-0.484,0.396-0.752,0.512c-0.27,0.115-0.555,0.172-0.854,0.172
			c-0.535,0-0.955-0.145-1.262-0.436c-0.313-0.289-0.463-0.656-0.463-1.1c0-0.293,0.068-0.557,0.211-0.781
			c0.139-0.23,0.336-0.406,0.588-0.527c0.252-0.123,0.615-0.23,1.092-0.32c0.643-0.119,1.086-0.232,1.332-0.336v-0.139
			c0-0.266-0.063-0.451-0.195-0.564c-0.129-0.111-0.375-0.168-0.734-0.168c-0.244,0-0.438,0.047-0.57,0.145
			C368.825,73.284,368.716,73.452,368.63,73.694z M370.466,74.807c-0.176,0.061-0.453,0.129-0.834,0.209
			c-0.381,0.082-0.631,0.162-0.748,0.24c-0.178,0.127-0.27,0.287-0.27,0.482c0,0.189,0.07,0.355,0.217,0.498
			c0.143,0.141,0.324,0.209,0.547,0.209c0.246,0,0.482-0.08,0.707-0.244c0.166-0.123,0.275-0.273,0.328-0.453
			c0.035-0.117,0.053-0.34,0.053-0.668V74.807L370.466,74.807z"/>
		<path d="M372.681,75.817l1.377-0.209c0.061,0.268,0.18,0.469,0.355,0.605c0.18,0.141,0.43,0.207,0.752,0.207
			c0.354,0,0.623-0.063,0.801-0.193c0.121-0.09,0.184-0.213,0.184-0.365c0-0.104-0.033-0.189-0.1-0.26
			c-0.066-0.064-0.223-0.125-0.459-0.182c-1.105-0.242-1.811-0.469-2.104-0.67c-0.408-0.277-0.613-0.668-0.613-1.166
			c0-0.447,0.178-0.828,0.531-1.135c0.354-0.305,0.902-0.459,1.648-0.459c0.709,0,1.236,0.115,1.582,0.348s0.582,0.572,0.713,1.025
			l-1.295,0.236c-0.055-0.199-0.158-0.354-0.313-0.463c-0.156-0.105-0.377-0.162-0.662-0.162c-0.361,0-0.621,0.053-0.777,0.152
			c-0.104,0.07-0.154,0.164-0.154,0.277c0,0.098,0.047,0.182,0.139,0.248c0.123,0.092,0.551,0.221,1.281,0.387
			c0.729,0.166,1.238,0.369,1.527,0.609c0.287,0.244,0.432,0.584,0.432,1.021c0,0.479-0.197,0.885-0.598,1.229
			c-0.397,0.342-0.982,0.514-1.762,0.514c-0.707,0-1.268-0.146-1.68-0.432C373.079,76.698,372.808,76.309,372.681,75.817z"/>
	</g>
</g>
</svg>
