<?xml version="1.0" encoding="utf-8"?>
<!-- Generator: Adobe Illustrator 16.0.0, SVG Export Plug-In . SVG Version: 6.00 Build 0)  -->
<!DOCTYPE svg PUBLIC "-//W3C//DTD SVG 1.1//EN" "http://www.w3.org/Graphics/SVG/1.1/DTD/svg11.dtd">
<svg version="1.1" id="Layer_1" xmlns="http://www.w3.org/2000/svg" xmlns:xlink="http://www.w3.org/1999/xlink" x="0px" y="0px"
	 width="510.236px" height="141.732px" viewBox="0 0 510.236 141.732" enable-background="new 0 0 510.236 141.732"
	 xml:space="preserve">
<g>
	<path fill="#231F20" stroke="#FFFFFF" stroke-width="0.5" stroke-miterlimit="10" d="M131.689,30.567
		c-0.529,0-0.888,0.354-0.799,0.887v11.711c0,0.533,0.354,0.887,0.888,0.887h2.132c0.888,1.863,2.929,3.105,5.057,3.105
		c2.13,0,4.081-1.242,5.059-3.105h14.904c0.889,1.863,2.839,3.105,5.061,3.105c2.129,0,4.08-1.242,5.058-3.105h3.46
		c0.354,0,0.621-0.266,0.797-0.53c0.179-0.354,0.091-0.709-0.088-0.978c-0.888-1.063-2.13-2.129-3.727-2.928
		c-0.711-2.396-2.93-4.082-5.5-4.082c-1.421,0-2.749,0.445-3.729,1.332c-3.104-0.445-5.854-0.533-7.274-0.533v-3.104
		c0-0.181-0.089-0.445-0.267-0.621c-0.177-0.088-0.442-0.181-0.71-0.181c-5.411,0.621-8.783,2.22-10.734,3.642
		c-0.267-0.088-0.442-0.181-0.711-0.269v-4.348c0-0.533-0.354-0.887-0.886-0.887L131.689,30.567L131.689,30.567z M169.664,42.278
		c0-0.088,0-0.178,0.088-0.178v-0.269c0.179,0.178,0.44,0.269,0.621,0.443h-0.709V42.278z M163.985,45.293
		c-1.772,0-3.28-1.151-3.901-2.928c0-0.088-0.088-0.178-0.088-0.355c-0.092-0.266-0.092-0.53-0.092-0.799
		c0-0.264,0-0.531,0.092-0.797c0,0,0.088-0.088,0.088-0.178c0.088-0.178,0.088-0.355,0.177-0.531
		c0.089-0.18,0.089-0.268,0.177-0.357c0.091-0.176,0.183-0.354,0.271-0.44c0.088-0.178,0.266-0.355,0.439-0.531
		c0.711-0.711,1.774-1.152,2.842-1.152c1.95,0,3.461,1.33,3.901,3.104v0.178c0.089,0.267,0.089,0.443,0.089,0.709
		c0,0.267,0,0.531-0.089,0.799c0,0.179-0.088,0.269-0.088,0.443C167.266,44.141,165.759,45.293,163.985,45.293L163.985,45.293z
		 M144.554,42.278C144.554,42.19,144.554,42.19,144.554,42.278c0.089-0.355,0.089-0.709,0.09-0.89c0-1.241-0.441-2.307-1.063-3.28
		c-0.088-0.179-0.268-0.269-0.354-0.445l-0.44-0.441c1.686-1.063,4.348-2.307,8.339-2.84v2.931c0,0.266,0.09,0.44,0.267,0.618
		c0.179,0.181,0.354,0.269,0.621,0.269c0.089,0,3.105-0.088,6.832,0.354v0.089c-0.088,0.18-0.178,0.354-0.267,0.532
		c0,0.088-0.088,0.179-0.088,0.269c0,0.088-0.093,0.176-0.093,0.354c-0.089,0.088-0.089,0.179-0.089,0.267
		c0,0.18-0.088,0.268-0.088,0.442v0.888c0,0.268,0.088,0.532,0.088,0.801v0.088h-13.754L144.554,42.278L144.554,42.278z
		 M138.877,45.293c-1.774,0-3.283-1.151-3.814-2.928c0-0.088-0.088-0.176-0.088-0.355c-0.091-0.266-0.091-0.53-0.091-0.797
		c0-2.219,1.775-3.992,3.993-3.992c0.8,0,1.509,0.267,2.13,0.621l0.177,0.179c0.179,0.088,0.356,0.264,0.444,0.354l0.178,0.178
		c0.089,0.179,0.266,0.267,0.354,0.441c0.089,0,0.089,0.09,0.177,0.18c0.089,0.179,0.178,0.267,0.267,0.443
		c0,0.088,0.089,0.088,0.089,0.178c0.091,0.267,0.091,0.443,0.181,0.619v0.178c0.088,0.269,0.088,0.443,0.088,0.711v0.179
		c0,0.266-0.088,0.442-0.088,0.621c-0.089,0.09-0.089,0.266-0.181,0.442C142.16,44.141,140.651,45.293,138.877,45.293
		L138.877,45.293z M132.488,42.278V32.252h6.213v3.281h-0.713c-0.088,0.09-0.177,0.09-0.267,0.09c-0.089,0-0.177,0.088-0.267,0.088
		c-0.089,0-0.179,0.088-0.269,0.088c-0.089,0-0.178,0.091-0.266,0.091c-0.089,0-0.179,0.092-0.269,0.092
		c-0.088,0-0.18,0.088-0.268,0.088s-0.178,0-0.267,0.088c-0.089,0.09-0.179,0.09-0.269,0.178c-0.089,0.088-0.177,0.088-0.267,0.179
		c-0.089,0.09-0.178,0.09-0.268,0.178c0,0.088-0.089,0.088-0.179,0.178c0,0.088-0.088,0.088-0.176,0.176l-0.179,0.181
		c-0.089,0-0.089,0.09-0.18,0.178l-0.178,0.178c-0.088,0.088-0.088,0.176-0.178,0.267c-0.089,0-0.089,0.09-0.178,0.178
		c-0.091,0.088-0.091,0.178-0.18,0.266c-0.089,0.09-0.178,0.181-0.178,0.271c0,0.088-0.089,0.176-0.089,0.266
		c0,0.088-0.089,0.176-0.089,0.266c0,0.091-0.089,0.179-0.089,0.267c0,0.09-0.091,0.178-0.091,0.268s-0.089,0.179-0.089,0.269
		c-0.089,0.09-0.089,0.178-0.089,0.266c-0.09,0.178-0.09,0.266-0.09,0.354v0.889c0,0.266,0.09,0.533,0.09,0.799v0.088h-0.62h-0.082
		v-0.014H132.488L132.488,42.278z"/>
	<g>
		<path fill="#231F20" d="M47.223,22.432c-6.635-2.916-11.279,0-11.279,0v33.176h1.327V40.347c1.86-0.659,5.438-1.327,9.952,0.662
			c6.636,2.922,11.28,0,11.28,0V22.432C58.505,22.432,53.859,25.356,47.223,22.432L47.223,22.432z M57.177,29.735L57.177,29.735
			c0-0.137-2.786,1.055-6.635,0.395v5.31c0.927,0.137,1.858,0.264,2.521,0.264c2.521,0,4.114-0.795,4.114-0.795v5.313
			c0,0-2.391,1.191-6.104,0.66c-0.269,0-0.669-0.135-0.531-0.135v-5.307c-1.063-0.133-2.255-0.532-3.453-1.065
			c-1.191-0.521-2.255-0.789-3.182-1.055v5.307h-0.531c-3.453-0.533-6.104,0.267-6.104,0.267v-5.308c0,0,2.916-0.934,6.638-0.266
			v-5.314c-3.984-0.789-6.638,0.533-6.638,0.533v-5.311c0,0,2.65-1.324,6.638-0.529v5.307c1.063,0.135,2.117,0.533,3.314,1.063
			c1.192,0.53,2.255,0.936,3.317,1.063v-5.309c3.849,0.662,6.635-0.402,6.635-0.402L57.177,29.735L57.177,29.735z"/>
	</g>
	<g>
		<path d="M23.013,89.45v-7.101h1.445v5.894h3.594v1.207H23.013z"/>
		<path d="M35.538,89.45h-1.572l-0.625-1.627h-2.861l-0.591,1.627h-1.534l2.788-7.158h1.528L35.538,89.45z M32.877,86.618
			l-0.986-2.656l-0.967,2.656H32.877z"/>
		<path d="M36.308,89.45v-7.158h3.042c0.768,0,1.32,0.063,1.668,0.191c0.349,0.129,0.624,0.356,0.832,0.688
			c0.208,0.332,0.313,0.705,0.313,1.127c0,0.537-0.158,0.98-0.477,1.33c-0.313,0.352-0.787,0.572-1.416,0.662
			c0.313,0.184,0.57,0.383,0.774,0.602c0.203,0.221,0.479,0.605,0.822,1.162l0.874,1.396h-1.729l-1.045-1.56
			c-0.371-0.557-0.625-0.905-0.762-1.053c-0.139-0.146-0.281-0.244-0.438-0.297c-0.15-0.056-0.396-0.082-0.728-0.082h-0.29v2.987
			h-1.442V89.45z M37.755,85.319h1.069c0.69,0,1.126-0.029,1.299-0.089c0.173-0.061,0.308-0.159,0.403-0.305
			c0.099-0.144,0.146-0.32,0.146-0.537c0-0.24-0.063-0.437-0.192-0.582c-0.129-0.147-0.311-0.242-0.545-0.28
			c-0.116-0.019-0.469-0.023-1.055-0.023h-1.127L37.755,85.319L37.755,85.319z"/>
		<path d="M46.855,86.817v-1.205h3.115v2.852c-0.303,0.293-0.741,0.551-1.313,0.773c-0.575,0.223-1.157,0.334-1.746,0.334
			c-0.749,0-1.401-0.156-1.958-0.472c-0.56-0.313-0.978-0.764-1.255-1.348c-0.28-0.586-0.422-1.222-0.422-1.908
			c0-0.744,0.155-1.406,0.471-1.985c0.313-0.578,0.77-1.023,1.372-1.332c0.459-0.238,1.027-0.357,1.714-0.357
			c0.889,0,1.583,0.188,2.082,0.562c0.5,0.37,0.819,0.89,0.965,1.546l-1.438,0.271c-0.102-0.353-0.291-0.629-0.566-0.832
			c-0.279-0.205-0.626-0.308-1.043-0.308c-0.632,0-1.134,0.201-1.506,0.603c-0.373,0.399-0.563,0.994-0.563,1.78
			c0,0.851,0.188,1.488,0.566,1.912c0.378,0.427,0.872,0.638,1.481,0.638c0.306,0,0.606-0.06,0.911-0.179
			c0.307-0.118,0.565-0.266,0.783-0.436v-0.904h-1.654L46.855,86.817L46.855,86.817z"/>
		<path d="M57.76,89.45h-1.572l-0.625-1.627h-2.858l-0.593,1.627h-1.532l2.788-7.158h1.525L57.76,89.45z M55.097,86.618
			l-0.985-2.656l-0.968,2.656H55.097z"/>
		<path d="M58.52,82.292h2.645c0.596,0,1.05,0.045,1.36,0.137c0.42,0.123,0.778,0.345,1.078,0.658
			c0.301,0.316,0.527,0.703,0.687,1.16c0.154,0.457,0.231,1.021,0.231,1.69c0,0.591-0.07,1.099-0.22,1.523
			c-0.179,0.521-0.435,0.94-0.767,1.266c-0.251,0.242-0.591,0.435-1.019,0.57c-0.316,0.102-0.745,0.149-1.276,0.149h-2.723
			L58.52,82.292L58.52,82.292z M59.967,83.503v4.74h1.079c0.403,0,0.695-0.021,0.874-0.068c0.232-0.059,0.429-0.156,0.584-0.297
			c0.154-0.141,0.28-0.371,0.378-0.689c0.098-0.32,0.146-0.76,0.146-1.313c0-0.555-0.05-0.979-0.146-1.273
			c-0.096-0.293-0.234-0.525-0.41-0.691s-0.396-0.278-0.669-0.338c-0.202-0.045-0.598-0.067-1.187-0.067h-0.649V83.503z"/>
		<path d="M72.203,89.45h-1.572l-0.625-1.627h-2.861l-0.591,1.627H65.02l2.788-7.158h1.528L72.203,89.45z M69.542,86.618
			l-0.986-2.656l-0.967,2.656H69.542z"/>
	</g>
	<line fill="none" stroke="#231F20" stroke-width="2" stroke-miterlimit="10" x1="50.223" y1="69.371" x2="487.222" y2="69.371"/>
	<g>
		<g>
			
				<line id="XMLID_1_" fill="none" stroke="#D1313D" stroke-width="3" stroke-linecap="round" stroke-linejoin="round" stroke-miterlimit="10" x1="50.223" y1="66.871" x2="152.223" y2="66.871"/>
		</g>
	</g>
	<circle fill="#FFFFFF" stroke="#231F20" stroke-width="2" stroke-miterlimit="10" cx="46.217" cy="68.599" r="4.728"/>
	<circle fill="#FFFFFF" stroke="#231F20" stroke-width="2" stroke-miterlimit="10" cx="152.136" cy="68.599" r="4.726"/>
	<g>
		<path d="M138.453,89.45v-7.101h1.442v5.894h3.597v1.207H138.453z"/>
		<path d="M147.926,89.45v-0.777c-0.188,0.277-0.437,0.496-0.745,0.654c-0.307,0.16-0.632,0.239-0.974,0.239
			c-0.351,0-0.661-0.075-0.938-0.229c-0.274-0.152-0.477-0.367-0.601-0.646c-0.124-0.277-0.188-0.657-0.188-1.146v-3.281h1.372
			v2.384c0,0.729,0.025,1.177,0.075,1.341c0.051,0.166,0.144,0.295,0.276,0.392c0.134,0.098,0.303,0.146,0.508,0.146
			c0.232,0,0.443-0.063,0.63-0.192c0.187-0.13,0.313-0.287,0.381-0.48c0.068-0.188,0.104-0.654,0.104-1.396v-2.188h1.372v5.188
			h-1.273L147.926,89.45L147.926,89.45z"/>
		<path d="M155.141,85.797l-1.353,0.244c-0.046-0.271-0.148-0.476-0.313-0.611c-0.159-0.137-0.37-0.203-0.627-0.203
			c-0.342,0-0.613,0.117-0.815,0.355c-0.203,0.232-0.308,0.629-0.308,1.184c0,0.615,0.104,1.051,0.313,1.306
			c0.206,0.254,0.48,0.381,0.832,0.381c0.261,0,0.474-0.074,0.64-0.224c0.166-0.148,0.283-0.401,0.353-0.766l1.35,0.229
			c-0.142,0.615-0.408,1.086-0.806,1.398c-0.398,0.314-0.933,0.477-1.6,0.477c-0.759,0-1.362-0.24-1.813-0.721
			c-0.451-0.479-0.679-1.141-0.679-1.984c0-0.856,0.229-1.522,0.681-2c0.452-0.479,1.063-0.716,1.836-0.716
			c0.632,0,1.134,0.136,1.506,0.405C154.712,84.827,154.978,85.241,155.141,85.797z"/>
		<path d="M157.208,85.845l-1.245-0.226c0.14-0.502,0.381-0.873,0.723-1.112c0.343-0.24,0.853-0.361,1.523-0.361
			c0.61,0,1.065,0.072,1.367,0.218c0.3,0.146,0.511,0.33,0.632,0.553c0.123,0.223,0.184,0.633,0.184,1.229l-0.015,1.604
			c0,0.457,0.021,0.794,0.063,1.011c0.045,0.215,0.127,0.446,0.246,0.694h-1.354c-0.036-0.092-0.08-0.229-0.132-0.405
			c-0.022-0.08-0.039-0.136-0.051-0.16c-0.232,0.229-0.483,0.397-0.752,0.515c-0.268,0.112-0.553,0.17-0.854,0.17
			c-0.534,0-0.954-0.146-1.263-0.437c-0.31-0.289-0.463-0.653-0.463-1.099c0-0.293,0.069-0.555,0.211-0.782
			c0.141-0.229,0.337-0.406,0.59-0.527c0.252-0.123,0.613-0.229,1.091-0.319c0.642-0.119,1.086-0.232,1.333-0.336v-0.14
			c0-0.264-0.065-0.451-0.195-0.563c-0.13-0.112-0.376-0.168-0.735-0.168c-0.243,0-0.437,0.047-0.57,0.144
			C157.403,85.435,157.293,85.603,157.208,85.845z M159.044,86.96c-0.176,0.059-0.454,0.129-0.835,0.209
			c-0.381,0.082-0.63,0.162-0.747,0.24c-0.179,0.127-0.271,0.287-0.271,0.481c0,0.191,0.07,0.356,0.217,0.498
			c0.144,0.142,0.322,0.209,0.547,0.209c0.247,0,0.48-0.08,0.708-0.242c0.166-0.125,0.272-0.274,0.327-0.454
			c0.034-0.117,0.054-0.341,0.054-0.669V86.96L159.044,86.96z"/>
		<path d="M161.26,87.969l1.377-0.209c0.062,0.269,0.178,0.471,0.356,0.606c0.179,0.14,0.43,0.207,0.752,0.207
			c0.354,0,0.622-0.063,0.801-0.194c0.12-0.091,0.181-0.213,0.181-0.365c0-0.104-0.031-0.188-0.098-0.26
			c-0.068-0.064-0.222-0.125-0.459-0.181c-1.106-0.244-1.811-0.468-2.104-0.67c-0.407-0.278-0.612-0.669-0.612-1.166
			c0-0.449,0.178-0.828,0.529-1.135c0.354-0.307,0.905-0.459,1.65-0.459c0.71,0,1.237,0.113,1.582,0.348
			c0.345,0.233,0.583,0.573,0.713,1.023l-1.294,0.238c-0.056-0.201-0.16-0.354-0.314-0.463c-0.152-0.107-0.375-0.162-0.659-0.162
			c-0.361,0-0.62,0.053-0.776,0.152c-0.104,0.069-0.156,0.163-0.156,0.276c0,0.099,0.046,0.183,0.14,0.25
			c0.123,0.09,0.551,0.219,1.278,0.385c0.731,0.166,1.241,0.369,1.531,0.609c0.286,0.244,0.43,0.584,0.43,1.021
			c0,0.478-0.195,0.886-0.596,1.228c-0.397,0.342-0.984,0.514-1.763,0.514c-0.706,0-1.269-0.145-1.679-0.432
			C161.657,88.851,161.387,88.462,161.26,87.969z"/>
	</g>
	<g>
		<path d="M56.684,118.609v-7.157h2.467c0.559,0,0.98,0.035,1.273,0.104c0.41,0.097,0.76,0.267,1.05,0.515
			c0.378,0.317,0.66,0.727,0.851,1.223c0.187,0.496,0.277,1.063,0.277,1.701c0,0.545-0.063,1.024-0.188,1.444
			c-0.125,0.421-0.29,0.769-0.488,1.043c-0.198,0.273-0.416,0.49-0.652,0.648c-0.232,0.156-0.521,0.275-0.854,0.357
			c-0.334,0.079-0.718,0.12-1.15,0.12h-2.586V118.609z M57.633,117.764h1.528c0.472,0,0.842-0.045,1.108-0.133
			c0.27-0.088,0.482-0.211,0.645-0.371c0.225-0.225,0.396-0.524,0.521-0.903c0.126-0.38,0.188-0.841,0.188-1.38
			c0-0.75-0.123-1.322-0.368-1.727c-0.246-0.402-0.545-0.672-0.896-0.809c-0.254-0.101-0.66-0.146-1.227-0.146h-1.504
			L57.633,117.764L57.633,117.764z"/>
		<path d="M63.8,112.464v-1.013h0.879v1.013H63.8z M63.8,118.609v-5.187h0.879v5.187H63.8z"/>
		<path d="M65.665,117.061l0.869-0.139c0.049,0.35,0.185,0.615,0.406,0.803c0.225,0.187,0.533,0.277,0.937,0.277
			c0.402,0,0.703-0.082,0.896-0.248c0.194-0.164,0.293-0.354,0.293-0.578c0-0.197-0.087-0.354-0.26-0.469
			c-0.12-0.078-0.42-0.178-0.896-0.297c-0.646-0.164-1.094-0.306-1.342-0.424c-0.25-0.117-0.438-0.283-0.564-0.492
			c-0.129-0.211-0.193-0.441-0.193-0.695c0-0.229,0.056-0.444,0.158-0.643c0.106-0.197,0.25-0.361,0.434-0.49
			c0.139-0.103,0.322-0.188,0.562-0.258c0.235-0.068,0.488-0.104,0.759-0.104c0.407,0,0.766,0.06,1.071,0.176
			c0.309,0.117,0.535,0.275,0.682,0.478c0.147,0.202,0.247,0.469,0.304,0.803l-0.857,0.117c-0.039-0.266-0.152-0.475-0.34-0.625
			c-0.188-0.147-0.451-0.225-0.793-0.225c-0.403,0-0.691,0.065-0.864,0.2c-0.173,0.134-0.259,0.289-0.259,0.47
			c0,0.112,0.036,0.217,0.104,0.307c0.071,0.096,0.187,0.174,0.337,0.234c0.089,0.032,0.35,0.106,0.776,0.225
			c0.622,0.166,1.056,0.303,1.301,0.408c0.246,0.104,0.439,0.26,0.579,0.461c0.141,0.203,0.21,0.453,0.21,0.752
			c0,0.293-0.086,0.57-0.256,0.828c-0.172,0.26-0.418,0.459-0.74,0.602c-0.319,0.142-0.687,0.213-1.094,0.213
			c-0.674,0-1.188-0.141-1.541-0.42C65.988,118.027,65.762,117.611,65.665,117.061z"/>
		<path d="M72.934,117.824l0.127,0.774c-0.247,0.054-0.469,0.078-0.664,0.078c-0.316,0-0.563-0.051-0.739-0.149
			c-0.179-0.103-0.303-0.232-0.371-0.396c-0.071-0.164-0.107-0.512-0.107-1.037v-2.981h-0.645v-0.687h0.645v-1.283l0.874-0.526
			v1.813h0.884v0.686h-0.884v3.031c0,0.25,0.017,0.41,0.047,0.482c0.03,0.07,0.081,0.129,0.15,0.17
			c0.068,0.043,0.171,0.064,0.301,0.064C72.646,117.856,72.776,117.844,72.934,117.824z"/>
		<path d="M77.178,117.969c-0.325,0.275-0.639,0.474-0.938,0.586c-0.305,0.113-0.625,0.172-0.973,0.172
			c-0.566,0-1.008-0.141-1.313-0.418c-0.308-0.278-0.459-0.635-0.459-1.065c0-0.254,0.058-0.484,0.174-0.695
			c0.115-0.209,0.267-0.377,0.453-0.504c0.188-0.127,0.396-0.225,0.633-0.289c0.173-0.045,0.433-0.092,0.781-0.131
			c0.71-0.088,1.229-0.188,1.564-0.304c0.004-0.121,0.006-0.196,0.006-0.229c0-0.356-0.083-0.609-0.249-0.756
			c-0.226-0.199-0.56-0.3-1.001-0.3c-0.412,0-0.72,0.071-0.916,0.218c-0.194,0.146-0.343,0.401-0.438,0.771l-0.859-0.116
			c0.078-0.369,0.207-0.666,0.389-0.895c0.179-0.227,0.438-0.396,0.773-0.521c0.34-0.121,0.73-0.186,1.178-0.186
			c0.441,0,0.805,0.055,1.079,0.156c0.275,0.104,0.479,0.234,0.609,0.396c0.13,0.155,0.222,0.354,0.272,0.6
			c0.027,0.146,0.045,0.42,0.045,0.811v1.172c0,0.816,0.019,1.334,0.056,1.552c0.038,0.217,0.112,0.424,0.223,0.623h-0.918
			C77.263,118.427,77.205,118.216,77.178,117.969z M75.898,111.95l-0.552,0.83h-1.006l1.055-1.367h0.938l1.099,1.367h-0.996
			L75.898,111.95z M77.104,116.009c-0.316,0.129-0.798,0.24-1.436,0.332c-0.361,0.051-0.617,0.107-0.769,0.176
			c-0.148,0.066-0.267,0.16-0.348,0.285s-0.122,0.267-0.122,0.418c0,0.232,0.089,0.431,0.269,0.586
			c0.178,0.156,0.438,0.234,0.776,0.234s0.643-0.074,0.903-0.226c0.264-0.146,0.457-0.352,0.581-0.604
			c0.095-0.199,0.142-0.492,0.142-0.881L77.104,116.009L77.104,116.009z"/>
		<path d="M79.355,118.609v-5.187h0.791v0.736c0.382-0.568,0.934-0.854,1.65-0.854c0.313,0,0.6,0.058,0.861,0.17
			c0.263,0.109,0.459,0.258,0.589,0.439c0.13,0.18,0.222,0.396,0.271,0.648c0.032,0.161,0.05,0.444,0.05,0.854v3.188h-0.88v-3.153
			c0-0.357-0.031-0.625-0.103-0.804c-0.068-0.178-0.189-0.317-0.363-0.426c-0.175-0.104-0.379-0.158-0.612-0.158
			c-0.374,0-0.695,0.119-0.97,0.355c-0.271,0.237-0.408,0.688-0.408,1.354v2.832h-0.878L79.355,118.609L79.355,118.609z"/>
		<path d="M88.302,116.712l0.864,0.109c-0.097,0.598-0.336,1.063-0.729,1.397c-0.389,0.336-0.863,0.506-1.433,0.506
			c-0.71,0-1.28-0.229-1.712-0.694c-0.433-0.463-0.646-1.129-0.646-1.994c0-0.562,0.096-1.05,0.278-1.47
			c0.186-0.422,0.468-0.733,0.847-0.942c0.381-0.212,0.792-0.314,1.238-0.314c0.563,0,1.023,0.144,1.382,0.427
			c0.358,0.284,0.588,0.688,0.688,1.215l-0.854,0.131c-0.081-0.348-0.226-0.609-0.433-0.785c-0.206-0.176-0.456-0.264-0.749-0.264
			c-0.442,0-0.803,0.158-1.079,0.475c-0.275,0.318-0.415,0.82-0.415,1.508c0,0.695,0.134,1.203,0.4,1.521
			c0.266,0.315,0.613,0.475,1.045,0.475c0.345,0,0.633-0.104,0.862-0.315C88.092,117.477,88.24,117.15,88.302,116.712z"/>
		<path d="M89.923,112.464v-1.013h0.879v1.013H89.923z M89.923,118.609v-5.187h0.879v5.187H89.923z"/>
		<path d="M95.522,117.969c-0.322,0.275-0.639,0.474-0.938,0.586c-0.299,0.113-0.624,0.172-0.969,0.172
			c-0.569,0-1.011-0.141-1.313-0.418c-0.306-0.278-0.459-0.635-0.459-1.065c0-0.254,0.059-0.484,0.173-0.695
			c0.116-0.209,0.271-0.377,0.455-0.504c0.188-0.127,0.397-0.225,0.632-0.289c0.174-0.045,0.436-0.092,0.781-0.131
			c0.71-0.088,1.232-0.188,1.567-0.304c0.003-0.121,0.005-0.196,0.005-0.229c0-0.356-0.083-0.609-0.249-0.756
			c-0.228-0.199-0.562-0.3-1.001-0.3c-0.413,0-0.721,0.071-0.915,0.218c-0.197,0.146-0.343,0.401-0.438,0.771l-0.856-0.116
			c0.078-0.369,0.207-0.666,0.386-0.895c0.179-0.227,0.438-0.396,0.776-0.521c0.339-0.121,0.729-0.186,1.177-0.186
			c0.44,0,0.803,0.055,1.079,0.156c0.273,0.104,0.479,0.234,0.607,0.396c0.131,0.155,0.225,0.354,0.273,0.6
			c0.029,0.146,0.044,0.42,0.044,0.811v1.172c0,0.816,0.02,1.334,0.057,1.552c0.037,0.217,0.111,0.424,0.225,0.623h-0.918
			C95.607,118.427,95.55,118.216,95.522,117.969z M95.45,116.009c-0.319,0.129-0.8,0.24-1.438,0.332
			c-0.36,0.051-0.617,0.107-0.767,0.176c-0.15,0.066-0.269,0.16-0.35,0.285c-0.08,0.125-0.121,0.267-0.121,0.418
			c0,0.232,0.091,0.431,0.269,0.586c0.177,0.156,0.437,0.234,0.776,0.234c0.341,0,0.642-0.074,0.902-0.226
			c0.265-0.146,0.457-0.352,0.581-0.604c0.096-0.199,0.143-0.492,0.143-0.881L95.45,116.009L95.45,116.009z"/>
		<path d="M100.478,120.596v-7.174h0.804v0.676c0.188-0.266,0.399-0.463,0.64-0.594c0.237-0.133,0.523-0.197,0.864-0.197
			c0.439,0,0.833,0.113,1.172,0.344c0.339,0.228,0.594,0.549,0.767,0.963c0.173,0.416,0.259,0.871,0.259,1.363
			c0,0.529-0.096,1.009-0.282,1.435c-0.191,0.426-0.471,0.75-0.83,0.979c-0.363,0.228-0.745,0.34-1.146,0.34
			c-0.293,0-0.556-0.063-0.788-0.186c-0.23-0.125-0.425-0.281-0.573-0.471v2.522H100.478z M101.275,116.048
			c0,0.666,0.137,1.16,0.404,1.479c0.271,0.317,0.599,0.479,0.981,0.479c0.391,0,0.726-0.164,1.003-0.494
			c0.277-0.332,0.418-0.844,0.418-1.537c0-0.658-0.138-1.152-0.408-1.48c-0.271-0.33-0.596-0.494-0.974-0.494
			c-0.374,0-0.706,0.177-0.993,0.525C101.419,114.872,101.275,115.38,101.275,116.048z"/>
		<path d="M109.591,116.938l0.908,0.111c-0.146,0.531-0.408,0.943-0.796,1.236c-0.391,0.293-0.884,0.438-1.484,0.438
			c-0.759,0-1.359-0.233-1.804-0.701c-0.445-0.469-0.667-1.122-0.667-1.965c0-0.873,0.225-1.551,0.674-2.03
			c0.449-0.482,1.032-0.726,1.748-0.726c0.691,0,1.26,0.236,1.699,0.709c0.438,0.474,0.657,1.137,0.657,1.992
			c0,0.051-0.002,0.129-0.006,0.232h-3.864c0.029,0.567,0.19,1.006,0.48,1.311c0.29,0.303,0.651,0.453,1.084,0.453
			c0.322,0,0.599-0.084,0.825-0.256C109.274,117.58,109.457,117.309,109.591,116.938z M106.705,115.518h2.896
			c-0.039-0.438-0.146-0.766-0.332-0.98c-0.277-0.338-0.643-0.508-1.089-0.508c-0.402,0-0.743,0.135-1.019,0.404
			C106.886,114.706,106.734,115.067,106.705,115.518z"/>
		<path d="M111.593,118.609v-5.187h0.791v0.785c0.202-0.367,0.389-0.609,0.56-0.728c0.174-0.116,0.358-0.178,0.563-0.178
			c0.296,0,0.598,0.096,0.903,0.283l-0.306,0.815c-0.215-0.128-0.43-0.19-0.645-0.19c-0.192,0-0.364,0.059-0.52,0.174
			c-0.152,0.115-0.263,0.274-0.325,0.479c-0.101,0.313-0.146,0.652-0.146,1.023v2.715h-0.878L111.593,118.609L111.593,118.609z"/>
		<path d="M118.315,116.712l0.864,0.109c-0.095,0.598-0.336,1.063-0.725,1.397c-0.393,0.336-0.867,0.506-1.437,0.506
			c-0.71,0-1.277-0.229-1.711-0.694c-0.432-0.463-0.646-1.129-0.646-1.994c0-0.562,0.093-1.05,0.275-1.47
			c0.188-0.422,0.471-0.733,0.851-0.942c0.379-0.212,0.791-0.314,1.235-0.314c0.563,0,1.022,0.144,1.384,0.427
			c0.355,0.284,0.588,0.688,0.688,1.215l-0.854,0.131c-0.081-0.348-0.229-0.609-0.435-0.785c-0.207-0.176-0.457-0.264-0.75-0.264
			c-0.439,0-0.803,0.158-1.079,0.475c-0.273,0.318-0.415,0.82-0.415,1.508c0,0.695,0.137,1.203,0.4,1.521
			c0.265,0.317,0.615,0.475,1.045,0.475c0.345,0,0.633-0.104,0.864-0.315C118.105,117.477,118.255,117.15,118.315,116.712z"/>
		<path d="M119.604,116.016c0-0.961,0.27-1.672,0.804-2.135c0.443-0.383,0.986-0.574,1.631-0.574c0.713,0,1.296,0.232,1.748,0.699
			c0.45,0.469,0.679,1.113,0.679,1.938c0,0.666-0.1,1.19-0.301,1.573c-0.199,0.384-0.491,0.681-0.873,0.892
			c-0.383,0.215-0.801,0.317-1.253,0.317c-0.729,0-1.313-0.231-1.763-0.698C119.829,117.561,119.604,116.891,119.604,116.016z
			 M120.509,116.016c0,0.664,0.146,1.16,0.436,1.492c0.29,0.33,0.653,0.494,1.096,0.494c0.437,0,0.799-0.166,1.089-0.498
			s0.435-0.838,0.435-1.518c0-0.644-0.146-1.127-0.437-1.457c-0.292-0.332-0.654-0.496-1.087-0.496
			c-0.439,0-0.806,0.164-1.096,0.492C120.654,114.857,120.509,115.352,120.509,116.016z"/>
		<path d="M125.484,118.609v-5.187h0.791v0.785c0.201-0.367,0.39-0.609,0.562-0.728c0.17-0.116,0.356-0.178,0.563-0.178
			c0.297,0,0.601,0.096,0.903,0.283L128,114.401c-0.215-0.128-0.432-0.19-0.646-0.19c-0.189,0-0.361,0.059-0.518,0.174
			c-0.153,0.115-0.262,0.274-0.327,0.479c-0.098,0.313-0.146,0.652-0.146,1.023v2.715h-0.878V118.609L125.484,118.609z"/>
		<path d="M128.813,118.609v-5.187h0.791v0.785c0.202-0.367,0.391-0.609,0.563-0.728c0.17-0.116,0.355-0.178,0.563-0.178
			c0.296,0,0.601,0.096,0.903,0.283l-0.303,0.815c-0.215-0.128-0.433-0.19-0.646-0.19c-0.189,0-0.363,0.059-0.518,0.174
			c-0.153,0.115-0.264,0.274-0.327,0.479c-0.098,0.313-0.146,0.652-0.146,1.023v2.715h-0.879V118.609L128.813,118.609z"/>
		<path d="M132.159,112.464v-1.013h0.879v1.013H132.159z M132.159,118.609v-5.187h0.879v5.187H132.159z"/>
		<path d="M137.74,118.609v-0.654c-0.329,0.518-0.813,0.771-1.45,0.771c-0.413,0-0.793-0.112-1.144-0.342
			c-0.346-0.229-0.612-0.547-0.805-0.955s-0.286-0.879-0.286-1.408c0-0.518,0.086-0.984,0.26-1.406
			c0.175-0.423,0.434-0.744,0.775-0.971c0.344-0.227,0.729-0.338,1.157-0.338c0.313,0,0.591,0.064,0.835,0.197
			c0.244,0.131,0.44,0.305,0.596,0.516v-2.566h0.874v7.157H137.74L137.74,118.609z M134.962,116.02c0,0.664,0.14,1.16,0.42,1.488
			c0.28,0.33,0.61,0.494,0.991,0.494c0.384,0,0.71-0.158,0.979-0.473c0.271-0.313,0.402-0.793,0.402-1.438
			c0-0.711-0.137-1.229-0.41-1.563c-0.272-0.334-0.609-0.498-1.011-0.498c-0.394,0-0.717,0.157-0.979,0.479
			C135.093,114.834,134.962,115.337,134.962,116.02z"/>
		<path d="M143.321,117.969c-0.323,0.275-0.64,0.474-0.938,0.586c-0.302,0.113-0.625,0.172-0.97,0.172
			c-0.569,0-1.01-0.141-1.313-0.418c-0.306-0.278-0.459-0.635-0.459-1.065c0-0.254,0.061-0.484,0.174-0.695
			c0.115-0.209,0.27-0.377,0.453-0.504c0.188-0.127,0.398-0.225,0.633-0.289c0.176-0.045,0.436-0.092,0.781-0.131
			c0.71-0.088,1.232-0.188,1.567-0.304c0.003-0.121,0.005-0.196,0.005-0.229c0-0.356-0.083-0.609-0.249-0.756
			c-0.227-0.199-0.561-0.3-1.001-0.3c-0.413,0-0.719,0.071-0.916,0.218c-0.196,0.146-0.342,0.401-0.438,0.771l-0.857-0.116
			c0.078-0.369,0.207-0.666,0.386-0.895c0.179-0.227,0.438-0.396,0.776-0.521c0.339-0.121,0.729-0.186,1.177-0.186
			c0.442,0,0.803,0.055,1.079,0.156c0.274,0.104,0.479,0.234,0.608,0.396c0.132,0.155,0.224,0.354,0.272,0.6
			c0.029,0.146,0.044,0.42,0.044,0.811v1.172c0,0.816,0.021,1.334,0.057,1.552c0.037,0.217,0.111,0.424,0.225,0.623h-0.918
			C143.406,118.427,143.347,118.216,143.321,117.969z M143.248,116.009c-0.319,0.129-0.798,0.24-1.438,0.332
			c-0.358,0.051-0.616,0.107-0.767,0.176c-0.151,0.066-0.268,0.16-0.349,0.285c-0.079,0.125-0.12,0.267-0.12,0.418
			c0,0.232,0.089,0.431,0.266,0.586c0.178,0.156,0.438,0.234,0.779,0.234c0.339,0,0.64-0.074,0.9-0.226
			c0.267-0.146,0.457-0.352,0.581-0.604c0.098-0.199,0.145-0.492,0.145-0.881L143.248,116.009L143.248,116.009z"/>
		<path d="M148.277,120.596v-7.174h0.803v0.676c0.188-0.266,0.399-0.463,0.64-0.594c0.237-0.133,0.525-0.197,0.864-0.197
			c0.439,0,0.833,0.113,1.172,0.344c0.339,0.228,0.594,0.549,0.767,0.963c0.174,0.416,0.262,0.871,0.262,1.363
			c0,0.529-0.098,1.009-0.286,1.435c-0.189,0.426-0.469,0.75-0.83,0.979c-0.362,0.228-0.744,0.34-1.146,0.34
			c-0.293,0-0.556-0.063-0.789-0.186c-0.229-0.125-0.424-0.281-0.57-0.471v2.522H148.277z M149.073,116.048
			c0,0.666,0.135,1.16,0.402,1.479c0.271,0.317,0.601,0.479,0.981,0.479c0.391,0,0.725-0.164,1.004-0.494
			c0.275-0.332,0.417-0.844,0.417-1.537c0-0.658-0.136-1.152-0.407-1.48c-0.271-0.33-0.597-0.494-0.975-0.494
			c-0.374,0-0.705,0.177-0.994,0.525C149.218,114.872,149.073,115.38,149.073,116.048z"/>
		<path d="M157.388,116.938l0.908,0.111c-0.146,0.531-0.408,0.943-0.796,1.236c-0.39,0.293-0.882,0.438-1.484,0.438
			c-0.759,0-1.356-0.233-1.805-0.701c-0.443-0.469-0.666-1.122-0.666-1.965c0-0.873,0.225-1.551,0.674-2.03
			c0.449-0.482,1.032-0.726,1.748-0.726c0.693,0,1.26,0.236,1.699,0.709c0.438,0.474,0.659,1.137,0.659,1.992
			c0,0.051-0.002,0.129-0.007,0.232h-3.865c0.03,0.567,0.19,1.006,0.48,1.311c0.29,0.303,0.651,0.453,1.084,0.453
			c0.322,0,0.601-0.084,0.825-0.256C157.073,117.58,157.255,117.309,157.388,116.938z M154.503,115.518h2.896
			c-0.038-0.438-0.146-0.766-0.331-0.98c-0.278-0.338-0.644-0.508-1.09-0.508c-0.4,0-0.742,0.135-1.018,0.404
			C154.683,114.706,154.532,115.067,154.503,115.518z"/>
		<path d="M159.381,118.609v-7.157h0.879v7.157H159.381z"/>
		<path d="M161.295,116.016c0-0.961,0.267-1.672,0.801-2.135c0.446-0.383,0.989-0.574,1.631-0.574c0.713,0,1.296,0.232,1.748,0.699
			c0.452,0.469,0.68,1.113,0.68,1.938c0,0.666-0.101,1.19-0.302,1.573c-0.198,0.384-0.49,0.681-0.873,0.892
			c-0.383,0.215-0.801,0.317-1.253,0.317c-0.726,0-1.313-0.231-1.761-0.698C161.517,117.561,161.295,116.891,161.295,116.016z
			 M162.198,116.016c0,0.664,0.145,1.16,0.435,1.492c0.29,0.33,0.654,0.494,1.094,0.494c0.438,0,0.8-0.166,1.089-0.498
			c0.29-0.332,0.438-0.838,0.438-1.518c0-0.644-0.146-1.127-0.438-1.457c-0.292-0.332-0.651-0.496-1.087-0.496
			c-0.438,0-0.804,0.164-1.094,0.492C162.343,114.857,162.198,115.352,162.198,116.016z"/>
		<path d="M173.345,116.712l0.864,0.109c-0.095,0.598-0.336,1.063-0.727,1.397c-0.391,0.336-0.865,0.506-1.435,0.506
			c-0.71,0-1.28-0.229-1.711-0.694c-0.432-0.463-0.646-1.129-0.646-1.994c0-0.562,0.095-1.05,0.277-1.47
			c0.188-0.422,0.468-0.733,0.849-0.942c0.381-0.212,0.791-0.314,1.236-0.314c0.563,0,1.023,0.144,1.382,0.427
			c0.358,0.284,0.589,0.688,0.688,1.215l-0.854,0.131c-0.081-0.348-0.226-0.609-0.432-0.785c-0.207-0.176-0.457-0.264-0.75-0.264
			c-0.442,0-0.803,0.158-1.079,0.475c-0.275,0.318-0.415,0.82-0.415,1.508c0,0.695,0.134,1.203,0.4,1.521
			c0.266,0.315,0.613,0.475,1.045,0.475c0.345,0,0.633-0.104,0.862-0.315C173.135,117.477,173.284,117.15,173.345,116.712z"/>
		<path d="M178.345,117.969c-0.325,0.275-0.639,0.474-0.938,0.586c-0.304,0.113-0.624,0.172-0.972,0.172
			c-0.566,0-1.008-0.141-1.313-0.418c-0.308-0.278-0.459-0.635-0.459-1.065c0-0.254,0.058-0.484,0.173-0.695
			c0.116-0.209,0.268-0.377,0.455-0.504c0.187-0.127,0.396-0.225,0.632-0.289c0.173-0.045,0.434-0.092,0.781-0.131
			c0.71-0.088,1.229-0.188,1.564-0.304c0.004-0.121,0.006-0.196,0.006-0.229c0-0.356-0.083-0.609-0.249-0.756
			c-0.226-0.199-0.56-0.3-1.001-0.3c-0.411,0-0.72,0.071-0.915,0.218c-0.195,0.146-0.344,0.401-0.438,0.771l-0.858-0.116
			c0.077-0.369,0.206-0.666,0.388-0.895c0.179-0.227,0.438-0.396,0.773-0.521c0.34-0.121,0.73-0.186,1.18-0.186
			c0.439,0,0.803,0.055,1.077,0.156c0.275,0.104,0.479,0.234,0.609,0.396c0.13,0.155,0.223,0.354,0.273,0.6
			c0.026,0.146,0.044,0.42,0.044,0.811v1.172c0,0.816,0.019,1.334,0.057,1.552c0.037,0.217,0.111,0.424,0.223,0.623h-0.919
			C178.43,118.427,178.372,118.216,178.345,117.969z M178.271,116.009c-0.316,0.129-0.798,0.24-1.436,0.332
			c-0.361,0.051-0.617,0.107-0.769,0.176c-0.148,0.066-0.267,0.16-0.348,0.285s-0.122,0.267-0.122,0.418
			c0,0.232,0.089,0.431,0.27,0.586c0.177,0.156,0.437,0.234,0.775,0.234s0.643-0.074,0.903-0.226
			c0.264-0.146,0.457-0.352,0.581-0.604c0.095-0.199,0.142-0.492,0.142-0.881L178.271,116.009L178.271,116.009z"/>
		<path d="M180.513,118.609v-5.187h0.791v0.785c0.202-0.367,0.389-0.609,0.563-0.728c0.17-0.116,0.355-0.178,0.563-0.178
			c0.296,0,0.599,0.096,0.903,0.283l-0.305,0.815c-0.216-0.128-0.431-0.19-0.646-0.19c-0.192,0-0.364,0.059-0.518,0.174
			c-0.154,0.115-0.265,0.274-0.327,0.479c-0.101,0.313-0.146,0.652-0.146,1.023v2.715h-0.878V118.609L180.513,118.609z"/>
		<path d="M183.844,118.609v-5.187h0.791v0.785c0.202-0.367,0.388-0.609,0.561-0.728c0.172-0.116,0.357-0.178,0.563-0.178
			c0.296,0,0.598,0.096,0.903,0.283l-0.305,0.815c-0.216-0.128-0.431-0.19-0.646-0.19c-0.192,0-0.364,0.059-0.52,0.174
			c-0.152,0.115-0.263,0.274-0.325,0.479c-0.101,0.313-0.146,0.652-0.146,1.023v2.715h-0.878L183.844,118.609L183.844,118.609z"/>
		<path d="M187.187,112.464v-1.013h0.88v1.013H187.187z M187.187,118.609v-5.187h0.88v5.187H187.187z"/>
		<path d="M189.406,118.609v-5.187h0.789v0.736c0.383-0.568,0.933-0.854,1.649-0.854c0.313,0,0.601,0.058,0.861,0.17
			c0.263,0.109,0.459,0.258,0.589,0.439c0.13,0.18,0.222,0.396,0.271,0.648c0.031,0.161,0.051,0.444,0.051,0.854v3.188h-0.881
			v-3.153c0-0.357-0.032-0.625-0.104-0.804c-0.067-0.178-0.188-0.317-0.363-0.426c-0.175-0.104-0.379-0.158-0.61-0.158
			c-0.374,0-0.697,0.119-0.972,0.355c-0.271,0.237-0.405,0.688-0.405,1.354v2.832h-0.88v0.003h0.004V118.609z"/>
		<path d="M194.967,118.609v-7.157h0.879v2.566c0.41-0.477,0.928-0.713,1.553-0.713c0.387,0,0.721,0.074,1.002,0.229
			c0.282,0.148,0.485,0.357,0.606,0.627c0.123,0.267,0.184,0.653,0.184,1.162v3.283h-0.879v-3.283c0-0.438-0.096-0.761-0.284-0.959
			c-0.189-0.2-0.46-0.302-0.81-0.302c-0.261,0-0.506,0.065-0.733,0.2c-0.229,0.139-0.395,0.318-0.489,0.552
			c-0.1,0.229-0.146,0.55-0.146,0.956v2.836h-0.882V118.609z"/>
		<path d="M200.201,116.016c0-0.961,0.267-1.672,0.801-2.135c0.446-0.383,0.989-0.574,1.631-0.574c0.713,0,1.296,0.232,1.748,0.699
			c0.452,0.469,0.679,1.113,0.679,1.938c0,0.666-0.1,1.19-0.301,1.573c-0.199,0.384-0.491,0.681-0.873,0.892
			c-0.383,0.215-0.801,0.317-1.253,0.317c-0.726,0-1.313-0.231-1.761-0.698C200.424,117.561,200.201,116.891,200.201,116.016z
			 M201.103,116.016c0,0.664,0.146,1.16,0.438,1.492c0.29,0.33,0.652,0.494,1.094,0.494c0.438,0,0.799-0.166,1.089-0.498
			s0.438-0.838,0.438-1.518c0-0.644-0.146-1.127-0.438-1.457c-0.292-0.332-0.654-0.496-1.087-0.496
			c-0.438,0-0.804,0.164-1.094,0.492C201.249,114.857,201.103,115.352,201.103,116.016z"/>
		<path d="M212.231,118.609v-0.654c-0.328,0.518-0.813,0.771-1.447,0.771c-0.413,0-0.793-0.112-1.144-0.342
			c-0.346-0.229-0.614-0.547-0.805-0.955c-0.191-0.408-0.286-0.879-0.286-1.408c0-0.518,0.086-0.984,0.259-1.406
			c0.173-0.423,0.435-0.744,0.776-0.971c0.344-0.227,0.729-0.338,1.157-0.338c0.313,0,0.591,0.064,0.835,0.197
			c0.242,0.131,0.439,0.305,0.596,0.516v-2.566h0.874v7.157H212.231L212.231,118.609z M209.454,116.02c0,0.664,0.14,1.16,0.42,1.488
			c0.278,0.33,0.608,0.494,0.991,0.494c0.384,0,0.71-0.158,0.979-0.473c0.269-0.313,0.402-0.793,0.402-1.438
			c0-0.711-0.139-1.229-0.41-1.563c-0.273-0.334-0.61-0.498-1.011-0.498c-0.394,0-0.719,0.157-0.979,0.479
			C209.585,114.834,209.454,115.337,209.454,116.02z"/>
		<path d="M217.978,116.938l0.908,0.111c-0.144,0.531-0.408,0.943-0.796,1.236s-0.882,0.438-1.484,0.438
			c-0.759,0-1.357-0.233-1.804-0.701c-0.445-0.469-0.667-1.122-0.667-1.965c0-0.873,0.226-1.551,0.674-2.03
			c0.449-0.482,1.032-0.726,1.748-0.726c0.693,0,1.261,0.236,1.699,0.709c0.438,0.474,0.659,1.137,0.659,1.992
			c0,0.051-0.002,0.129-0.005,0.232h-3.867c0.032,0.567,0.191,1.006,0.481,1.311c0.29,0.303,0.65,0.453,1.084,0.453
			c0.321,0,0.6-0.084,0.824-0.256C217.663,117.58,217.845,117.309,217.978,116.938z M215.094,115.518h2.896
			c-0.039-0.438-0.149-0.766-0.332-0.98c-0.28-0.338-0.646-0.508-1.091-0.508c-0.401,0-0.741,0.135-1.02,0.404
			C215.274,114.706,215.123,115.067,215.094,115.518z"/>
		<path d="M222.843,118.609v-7.157h0.947v6.313h3.522v0.847h-4.471L222.843,118.609L222.843,118.609z"/>
		<path d="M231.728,118.609v-0.763c-0.4,0.586-0.951,0.879-1.646,0.879c-0.308,0-0.592-0.059-0.856-0.176
			c-0.266-0.117-0.463-0.266-0.592-0.44c-0.128-0.179-0.219-0.396-0.271-0.65c-0.036-0.174-0.057-0.445-0.057-0.82v-3.213h0.879
			v2.877c0,0.459,0.021,0.771,0.057,0.928c0.056,0.23,0.173,0.412,0.352,0.546c0.179,0.131,0.4,0.196,0.664,0.196
			s0.511-0.065,0.742-0.203c0.229-0.135,0.395-0.317,0.491-0.551c0.096-0.231,0.144-0.572,0.144-1.016v-2.777h0.879v5.188h-0.786
			V118.609z"/>
		<path d="M237.276,116.712l0.863,0.109c-0.095,0.598-0.336,1.063-0.726,1.397c-0.392,0.336-0.866,0.506-1.436,0.506
			c-0.71,0-1.277-0.229-1.712-0.694c-0.431-0.463-0.646-1.129-0.646-1.994c0-0.562,0.093-1.05,0.276-1.47
			c0.187-0.422,0.47-0.733,0.849-0.942c0.38-0.212,0.792-0.314,1.236-0.314c0.563,0,1.022,0.144,1.384,0.427
			c0.355,0.284,0.588,0.688,0.688,1.215l-0.854,0.131c-0.081-0.348-0.229-0.609-0.436-0.785c-0.206-0.176-0.456-0.264-0.749-0.264
			c-0.439,0-0.803,0.158-1.079,0.475c-0.273,0.318-0.415,0.82-0.415,1.508c0,0.695,0.137,1.203,0.4,1.521
			c0.265,0.317,0.615,0.475,1.045,0.475c0.345,0,0.633-0.104,0.864-0.315C237.065,117.477,237.215,117.15,237.276,116.712z"/>
		<path d="M242.276,117.969c-0.323,0.275-0.64,0.474-0.938,0.586c-0.302,0.113-0.625,0.172-0.97,0.172
			c-0.569,0-1.01-0.141-1.313-0.418c-0.306-0.278-0.459-0.635-0.459-1.065c0-0.254,0.06-0.484,0.174-0.695
			c0.115-0.209,0.27-0.377,0.453-0.504c0.188-0.127,0.398-0.225,0.633-0.289c0.176-0.045,0.436-0.092,0.781-0.131
			c0.71-0.088,1.232-0.188,1.567-0.304c0.003-0.121,0.005-0.196,0.005-0.229c0-0.356-0.083-0.609-0.249-0.756
			c-0.227-0.199-0.561-0.3-1.001-0.3c-0.413,0-0.719,0.071-0.916,0.218c-0.196,0.146-0.342,0.401-0.438,0.771l-0.856-0.116
			c0.078-0.369,0.207-0.666,0.386-0.895c0.179-0.227,0.438-0.396,0.776-0.521c0.339-0.121,0.729-0.186,1.177-0.186
			c0.441,0,0.803,0.055,1.079,0.156c0.273,0.104,0.479,0.234,0.607,0.396c0.133,0.155,0.225,0.354,0.273,0.6
			c0.029,0.146,0.044,0.42,0.044,0.811v1.172c0,0.816,0.021,1.334,0.056,1.552c0.038,0.217,0.112,0.424,0.226,0.623h-0.918
			C242.361,118.427,242.302,118.216,242.276,117.969z M242.203,116.009c-0.319,0.129-0.8,0.24-1.438,0.332
			c-0.358,0.051-0.617,0.107-0.767,0.176c-0.15,0.066-0.268,0.16-0.349,0.285s-0.122,0.267-0.122,0.418
			c0,0.232,0.091,0.431,0.268,0.586c0.178,0.156,0.438,0.234,0.779,0.234c0.339,0,0.64-0.074,0.9-0.226
			c0.267-0.146,0.457-0.352,0.581-0.604c0.096-0.199,0.145-0.492,0.145-0.881L242.203,116.009L242.203,116.009z"/>
		<path d="M244.101,117.061l0.869-0.139c0.049,0.35,0.188,0.615,0.408,0.803c0.223,0.187,0.534,0.277,0.935,0.277
			c0.403,0,0.703-0.082,0.898-0.248c0.195-0.164,0.293-0.354,0.293-0.578c0-0.197-0.086-0.354-0.259-0.469
			c-0.12-0.078-0.42-0.178-0.898-0.297c-0.645-0.164-1.092-0.306-1.34-0.424c-0.25-0.117-0.438-0.283-0.566-0.492
			c-0.129-0.211-0.19-0.441-0.19-0.695c0-0.229,0.053-0.444,0.158-0.643c0.104-0.197,0.25-0.361,0.433-0.49
			c0.137-0.103,0.323-0.188,0.56-0.258c0.235-0.068,0.488-0.104,0.762-0.104c0.404,0,0.765,0.06,1.068,0.176
			c0.312,0.117,0.535,0.275,0.685,0.478c0.146,0.201,0.247,0.469,0.303,0.803l-0.859,0.117c-0.039-0.266-0.149-0.475-0.34-0.625
			c-0.187-0.147-0.451-0.225-0.793-0.225c-0.4,0-0.688,0.065-0.864,0.2c-0.173,0.134-0.259,0.289-0.259,0.47
			c0,0.112,0.036,0.217,0.107,0.307c0.069,0.096,0.184,0.174,0.337,0.234c0.088,0.032,0.347,0.106,0.774,0.225
			c0.621,0.166,1.058,0.303,1.303,0.408c0.246,0.104,0.438,0.26,0.579,0.461c0.14,0.203,0.21,0.453,0.21,0.752
			c0,0.293-0.086,0.57-0.258,0.828c-0.173,0.26-0.418,0.459-0.738,0.602c-0.322,0.142-0.688,0.213-1.096,0.213
			c-0.675,0-1.188-0.141-1.54-0.42C244.426,118.027,244.2,117.611,244.101,117.061z"/>
	</g>
	<rect x="39.223" y="110.372" fill="#D1313D" width="8" height="8.999"/>
</g>
</svg>
